mtllib skeleton.mtl
o Skull
v -0.250000 0.250000 0.250000
v -0.250000 -0.250000 -0.250000
v -0.250000 -0.250000 0.250000
v -0.250000 0.250000 -0.250000
v 0.250000 -0.250000 -0.250000
v 0.250000 0.250000 -0.250000
v 0.250000 -0.250000 0.250000
v 0.250000 0.250000 0.250000
v -0.250000 -0.250000 -0.250000
v -0.250000 0.250000 0.250000
v -0.250000 -0.250000 0.250000
v 0.250000 -0.250000 -0.250000
v -0.250000 0.250000 -0.250000
v 0.250000 -0.250000 0.250000
v 0.250000 0.250000 -0.250000
v 0.250000 0.250000 0.250000
vt 0.500000 0.750000
vt 0.375000 0.500000
vt 0.500000 0.500000
vt 0.375000 0.750000
vt 0.250000 0.500000
vt 0.250000 0.750000
vt 0.125000 0.500000
vt 0.125000 0.750000
vt -0.000000 0.500000
vt 0.250000 0.750000
vt 0.375000 1.000000
vt 0.250000 1.000000
vt 0.250000 1.000000
vt 0.375000 0.500000
vt 0.500000 0.750000
vt 0.500000 0.500000
vt 0.250000 0.500000
vt 0.375000 0.750000
vt 0.125000 0.500000
vt 0.250000 0.750000
vt -0.000000 0.500000
vt 0.125000 0.750000
vt 0.375000 1.000000
vt 0.250000 0.750000
vt 0.250000 1.000000
vt 0.250000 1.000000
vt -0.000000 0.750000
vt 0.375000 0.750000
vt 0.125000 1.000000
vt -0.000000 0.750000
vt 0.375000 0.750000
vt 0.125000 1.000000
vn -1.0000 -0.0000 0.0000
vn 0.0000 0.0000 -1.0000
vn 1.0000 -0.0000 0.0000
vn 0.0000 -0.0000 1.0000
vn 0.0000 -1.0000 -0.0000
vn 0.0000 1.0000 0.0000
usemtl bone
f 1/1/1 2/2/1 3/3/1
f 4/4/2 5/5/2 2/2/2
f 6/6/3 7/7/3 5/5/3
f 8/8/4 3/9/4 7/7/4
f 5/10/5 3/11/5 2/12/5
f 4/13/6 8/8/6 6/6/6
f 9/14/3 10/15/3 11/16/3
f 12/17/4 13/18/4 9/14/4
f 14/19/1 15/20/1 12/17/1
f 11/21/2 16/22/2 14/19/2
f 11/23/6 12/24/6 9/25/6
f 16/22/5 13/26/5 15/20/5
f 1/1/1 4/4/1 2/2/1
f 4/4/2 6/6/2 5/5/2
f 6/6/3 8/8/3 7/7/3
f 8/8/4 1/27/4 3/9/4
f 5/10/5 7/28/5 3/11/5
f 4/13/6 1/29/6 8/8/6
f 9/14/3 13/18/3 10/15/3
f 12/17/4 15/20/4 13/18/4
f 14/19/1 16/22/1 15/20/1
f 11/21/2 10/30/2 16/22/2
f 11/23/6 14/31/6 12/24/6
f 16/22/5 10/32/5 13/26/5
