mtllib skeleton.mtl
o Limb
v -0.062500 0.375000 0.062500
v -0.062500 -0.375000 -0.062500
v -0.062500 -0.375000 0.062500
v -0.062500 0.375000 -0.062500
v 0.062500 -0.375000 -0.062500
v 0.062500 0.375000 -0.062500
v 0.062500 -0.375000 0.062500
v 0.062500 0.375000 0.062500
vt 0.125000 0.437500
vt 0.093750 0.062500
vt 0.125000 0.062500
vt 0.093750 0.437500
vt 0.062500 0.062500
vt 0.062500 0.437500
vt 0.031250 0.062500
vt 0.031250 0.437500
vt 0.000000 0.062500
vt 0.062500 0.437500
vt 0.093750 0.500000
vt 0.062500 0.500000
vt 0.062500 0.500000
vt -0.000000 0.437500
vt 0.093750 0.437500
vt 0.031250 0.500000
vn -1.0000 0.0000 0.0000
vn 0.0000 0.0000 -1.0000
vn 1.0000 0.0000 0.0000
vn 0.0000 -0.0000 1.0000
vn 0.0000 -1.0000 0.0000
vn 0.0000 1.0000 0.0000
usemtl bone
f 1/1/1 2/2/1 3/3/1
f 4/4/2 5/5/2 2/2/2
f 6/6/3 7/7/3 5/5/3
f 8/8/4 3/9/4 7/7/4
f 5/10/5 3/11/5 2/12/5
f 4/13/6 8/8/6 6/6/6
f 1/1/1 4/4/1 2/2/1
f 4/4/2 6/6/2 5/5/2
f 6/6/3 8/8/3 7/7/3
f 8/8/4 1/14/4 3/9/4
f 5/10/5 7/15/5 3/11/5
f 4/13/6 1/16/6 8/8/6
