{
  "accessors": [
    {
      "bufferView": 0,
      "componentType": 5126,
      "count": 416,
      "max": [
        0.025624999776482582,
        0.08399999886751175,
        0.025624999776482582
      ],
      "min": [
        -0.025624999776482582,
        0.02800000086426735,
        -0.025624999776482582
      ],
      "type": "VEC3"
    },
    {
      "bufferView": 1,
      "componentType": 5126,
      "count": 416,
      "type": "VEC3"
    },
    {
      "bufferView": 2,
      "componentType": 5126,
      "count": 416,
      "type": "VEC2"
    },
    {
      "bufferView": 3,
      "componentType": 5123,
      "count": 732,
      "type": "SCALAR"
    },
    {
      "bufferView": 4,
      "componentType": 5126,
      "count": 301,
      "max": [
        0.02225000038743019,
        0.0064999982714653015,
        0.02225000038743019
      ],
      "min": [
        -0.02225000038743019,
        -0.0010000020265579224,
        -0.02225000038743019
      ],
      "type": "VEC3"
    },
    {
      "bufferView": 5,
      "componentType": 5126,
      "count": 301,
      "type": "VEC3"
    },
    {
      "bufferView": 6,
      "componentType": 5126,
      "count": 301,
      "type": "VEC2"
    },
    {
      "bufferView": 7,
      "componentType": 5123,
      "count": 501,
      "type": "SCALAR"
    },
    {
      "bufferView": 8,
      "componentType": 5126,
      "count": 108,
      "max": [
        0.03195077180862427,
        0.022094957530498505,
        0.00494999997317791
      ],
      "min": [
        -0.002199999988079071,
        -0.002199999988079071,
        -0.00494999997317791
      ],
      "type": "VEC3"
    },
    {
      "bufferView": 9,
      "componentType": 5126,
      "count": 108,
      "type": "VEC3"
    },
    {
      "bufferView": 10,
      "componentType": 5126,
      "count": 108,
      "type": "VEC2"
    },
    {
      "bufferView": 11,
      "componentType": 5123,
      "count": 180,
      "type": "SCALAR"
    },
    {
      "bufferView": 12,
      "componentType": 5126,
      "count": 108,
      "max": [
        0.018027279525995255,
        0.002199999988079071,
        0.0043802568688988686
      ],
      "min": [
        -0.005386826116591692,
        -0.024674132466316223,
        -0.028749164193868637
      ],
      "type": "VEC3"
    },
    {
      "bufferView": 13,
      "componentType": 5126,
      "count": 108,
      "type": "VEC3"
    },
    {
      "bufferView": 14,
      "componentType": 5126,
      "count": 108,
      "type": "VEC2"
    },
    {
      "bufferView": 15,
      "componentType": 5123,
      "count": 180,
      "type": "SCALAR"
    },
    {
      "bufferView": 16,
      "componentType": 5126,
      "count": 108,
      "max": [
        0.005386826582252979,
        0.022047311067581177,
        0.0043802568688988686
      ],
      "min": [
        -0.017997510731220245,
        -0.002199999988079071,
        -0.028697606176137924
      ],
      "type": "VEC3"
    },
    {
      "bufferView": 17,
      "componentType": 5126,
      "count": 108,
      "type": "VEC3"
    },
    {
      "bufferView": 18,
      "componentType": 5126,
      "count": 108,
      "type": "VEC2"
    },
    {
      "bufferView": 19,
      "componentType": 5123,
      "count": 180,
      "type": "SCALAR"
    },
    {
      "bufferView": 20,
      "componentType": 5126,
      "count": 108,
      "max": [
        0.002199999988079071,
        0.002199999988079071,
        0.00494999997317791
      ],
      "min": [
        -0.032041825354099274,
        -0.024674132466316223,
        -0.00494999997317791
      ],
      "type": "VEC3"
    },
    {
      "bufferView": 21,
      "componentType": 5126,
      "count": 108,
      "type": "VEC3"
    },
    {
      "bufferView": 22,
      "componentType": 5126,
      "count": 108,
      "type": "VEC2"
    },
    {
      "bufferView": 23,
      "componentType": 5123,
      "count": 180,
      "type": "SCALAR"
    },
    {
      "bufferView": 24,
      "componentType": 5126,
      "count": 108,
      "max": [
        0.005386826116591692,
        0.022047311067581177,
        0.028697606176137924
      ],
      "min": [
        -0.017997510731220245,
        -0.002199999988079071,
        -0.0043802568688988686
      ],
      "type": "VEC3"
    },
    {
      "bufferView": 25,
      "componentType": 5126,
      "count": 108,
      "type": "VEC3"
    },
    {
      "bufferView": 26,
      "componentType": 5126,
      "count": 108,
      "type": "VEC2"
    },
    {
      "bufferView": 27,
      "componentType": 5123,
      "count": 180,
      "type": "SCALAR"
    },
    {
      "bufferView": 28,
      "componentType": 5126,
      "count": 108,
      "max": [
        0.018027279525995255,
        0.002199999988079071,
        0.028749164193868637
      ],
      "min": [
        -0.005386826582252979,
        -0.024674132466316223,
        -0.0043802568688988686
      ],
      "type": "VEC3"
    },
    {
      "bufferView": 29,
      "componentType": 5126,
      "count": 108,
      "type": "VEC3"
    },
    {
      "bufferView": 30,
      "componentType": 5126,
      "count": 108,
      "type": "VEC2"
    },
    {
      "bufferView": 31,
      "componentType": 5123,
      "count": 180,
      "type": "SCALAR"
    },
    {
      "bufferView": 32,
      "componentType": 5126,
      "count": 336,
      "max": [
        0.02250000089406967,
        0.0887874960899353,
        0.02250000089406967
      ],
      "min": [
        -0.02250000089406967,
        0.026000000536441803,
        -0.02250000089406967
      ],
      "type": "VEC3"
    },
    {
      "bufferView": 33,
      "componentType": 5126,
      "count": 336,
      "type": "VEC3"
    },
    {
      "bufferView": 34,
      "componentType": 5126,
      "count": 336,
      "type": "VEC2"
    },
    {
      "bufferView": 35,
      "componentType": 5123,
      "count": 564,
      "type": "SCALAR"
    }
  ],
  "asset": {
    "generator": "Khronos glTF Blender I/O v5.2.39",
    "version": "2.0"
  },
  "bufferViews": [
    {
      "buffer": 0,
      "byteLength": 4992,
      "byteOffset": 0,
      "target": 34962
    },
    {
      "buffer": 0,
      "byteLength": 4992,
      "byteOffset": 4992,
      "target": 34962
    },
    {
      "buffer": 0,
      "byteLength": 3328,
      "byteOffset": 9984,
      "target": 34962
    },
    {
      "buffer": 0,
      "byteLength": 1464,
      "byteOffset": 13312,
      "target": 34963
    },
    {
      "buffer": 0,
      "byteLength": 3612,
      "byteOffset": 14776,
      "target": 34962
    },
    {
      "buffer": 0,
      "byteLength": 3612,
      "byteOffset": 18388,
      "target": 34962
    },
    {
      "buffer": 0,
      "byteLength": 2408,
      "byteOffset": 22000,
      "target": 34962
    },
    {
      "buffer": 0,
      "byteLength": 1002,
      "byteOffset": 24408,
      "target": 34963
    },
    {
      "buffer": 0,
      "byteLength": 1296,
      "byteOffset": 25412,
      "target": 34962
    },
    {
      "buffer": 0,
      "byteLength": 1296,
      "byteOffset": 26708,
      "target": 34962
    },
    {
      "buffer": 0,
      "byteLength": 864,
      "byteOffset": 28004,
      "target": 34962
    },
    {
      "buffer": 0,
      "byteLength": 360,
      "byteOffset": 28868,
      "target": 34963
    },
    {
      "buffer": 0,
      "byteLength": 1296,
      "byteOffset": 29228,
      "target": 34962
    },
    {
      "buffer": 0,
      "byteLength": 1296,
      "byteOffset": 30524,
      "target": 34962
    },
    {
      "buffer": 0,
      "byteLength": 864,
      "byteOffset": 31820,
      "target": 34962
    },
    {
      "buffer": 0,
      "byteLength": 360,
      "byteOffset": 32684,
      "target": 34963
    },
    {
      "buffer": 0,
      "byteLength": 1296,
      "byteOffset": 33044,
      "target": 34962
    },
    {
      "buffer": 0,
      "byteLength": 1296,
      "byteOffset": 34340,
      "target": 34962
    },
    {
      "buffer": 0,
      "byteLength": 864,
      "byteOffset": 35636,
      "target": 34962
    },
    {
      "buffer": 0,
      "byteLength": 360,
      "byteOffset": 36500,
      "target": 34963
    },
    {
      "buffer": 0,
      "byteLength": 1296,
      "byteOffset": 36860,
      "target": 34962
    },
    {
      "buffer": 0,
      "byteLength": 1296,
      "byteOffset": 38156,
      "target": 34962
    },
    {
      "buffer": 0,
      "byteLength": 864,
      "byteOffset": 39452,
      "target": 34962
    },
    {
      "buffer": 0,
      "byteLength": 360,
      "byteOffset": 40316,
      "target": 34963
    },
    {
      "buffer": 0,
      "byteLength": 1296,
      "byteOffset": 40676,
      "target": 34962
    },
    {
      "buffer": 0,
      "byteLength": 1296,
      "byteOffset": 41972,
      "target": 34962
    },
    {
      "buffer": 0,
      "byteLength": 864,
      "byteOffset": 43268,
      "target": 34962
    },
    {
      "buffer": 0,
      "byteLength": 360,
      "byteOffset": 44132,
      "target": 34963
    },
    {
      "buffer": 0,
      "byteLength": 1296,
      "byteOffset": 44492,
      "target": 34962
    },
    {
      "buffer": 0,
      "byteLength": 1296,
      "byteOffset": 45788,
      "target": 34962
    },
    {
      "buffer": 0,
      "byteLength": 864,
      "byteOffset": 47084,
      "target": 34962
    },
    {
      "buffer": 0,
      "byteLength": 360,
      "byteOffset": 47948,
      "target": 34963
    },
    {
      "buffer": 0,
      "byteLength": 4032,
      "byteOffset": 48308,
      "target": 34962
    },
    {
      "buffer": 0,
      "byteLength": 4032,
      "byteOffset": 52340,
      "target": 34962
    },
    {
      "buffer": 0,
      "byteLength": 2688,
      "byteOffset": 56372,
      "target": 34962
    },
    {
      "buffer": 0,
      "byteLength": 1128,
      "byteOffset": 59060,
      "target": 34963
    }
  ],
  "buffers": [
    {
      "byteLength": 60188,
      "extras": {
        "resourceLocation": "wfballistics:raw_models/mines/scatter_ap.bin"
      }
    }
  ],
  "images": [
    {
      "extras": {
        "resourceLocation": "wfballistics:textures/models/mines/scatter_ap_basecolor.png"
      },
      "mimeType": "image/png",
      "name": "AP_Scatter_Mine_basecolor_512"
    },
    {
      "extras": {
        "resourceLocation": "wfballistics:textures/models/mines/scatter_ap_orm.png"
      },
      "mimeType": "image/png",
      "name": "AP_Scatter_Mine_ORM_512"
    }
  ],
  "materials": [
    {
      "doubleSided": true,
      "name": "AP_Scatter_Mine | worn olive",
      "pbrMetallicRoughness": {
        "baseColorTexture": {
          "index": 0
        },
        "metallicRoughnessTexture": {
          "index": 1
        }
      }
    }
  ],
  "meshes": [
    {
      "name": "Scatter_mine_casing",
      "primitives": [
        {
          "attributes": {
            "NORMAL": 1,
            "POSITION": 0,
            "TEXCOORD_0": 2
          },
          "indices": 3,
          "material": 0
        }
      ]
    },
    {
      "name": "Closed_top_cap",
      "primitives": [
        {
          "attributes": {
            "NORMAL": 5,
            "POSITION": 4,
            "TEXCOORD_0": 6
          },
          "indices": 7,
          "material": 0
        }
      ]
    },
    {
      "name": "Exterior_stabilizer_vane",
      "primitives": [
        {
          "attributes": {
            "NORMAL": 9,
            "POSITION": 8,
            "TEXCOORD_0": 10
          },
          "indices": 11,
          "material": 0
        }
      ]
    },
    {
      "name": "Exterior_stabilizer_vane.001",
      "primitives": [
        {
          "attributes": {
            "NORMAL": 13,
            "POSITION": 12,
            "TEXCOORD_0": 14
          },
          "indices": 15,
          "material": 0
        }
      ]
    },
    {
      "name": "Exterior_stabilizer_vane.002",
      "primitives": [
        {
          "attributes": {
            "NORMAL": 17,
            "POSITION": 16,
            "TEXCOORD_0": 18
          },
          "indices": 19,
          "material": 0
        }
      ]
    },
    {
      "name": "Exterior_stabilizer_vane.003",
      "primitives": [
        {
          "attributes": {
            "NORMAL": 21,
            "POSITION": 20,
            "TEXCOORD_0": 22
          },
          "indices": 23,
          "material": 0
        }
      ]
    },
    {
      "name": "Exterior_stabilizer_vane.004",
      "primitives": [
        {
          "attributes": {
            "NORMAL": 25,
            "POSITION": 24,
            "TEXCOORD_0": 26
          },
          "indices": 27,
          "material": 0
        }
      ]
    },
    {
      "name": "Exterior_stabilizer_vane.005",
      "primitives": [
        {
          "attributes": {
            "NORMAL": 29,
            "POSITION": 28,
            "TEXCOORD_0": 30
          },
          "indices": 31,
          "material": 0
        }
      ]
    },
    {
      "name": "Lower_end_cap",
      "primitives": [
        {
          "attributes": {
            "NORMAL": 33,
            "POSITION": 32,
            "TEXCOORD_0": 34
          },
          "indices": 35,
          "material": 0
        }
      ]
    }
  ],
  "nodes": [
    {
      "extras": {
        "surface": "paint"
      },
      "mesh": 0,
      "name": "01_CYLINDRICAL_CASE_mesh"
    },
    {
      "children": [
        0
      ],
      "extras": {
        "removable_module": true
      },
      "name": "01_CYLINDRICAL_CASE"
    },
    {
      "extras": {
        "surface": "darkpaint"
      },
      "mesh": 1,
      "name": "02_TOP_CAP_mesh"
    },
    {
      "children": [
        2
      ],
      "extras": {
        "removable_module": true
      },
      "name": "02_TOP_CAP",
      "translation": [
        0,
        0.08399999886751175,
        0
      ]
    },
    {
      "extras": {
        "surface": "darkpaint"
      },
      "mesh": 2,
      "name": "03_VANE_01_mesh"
    },
    {
      "children": [
        4
      ],
      "extras": {
        "removable_module": true
      },
      "name": "03_VANE_01",
      "translation": [
        0.02199999988079071,
        0.07280000299215317,
        0
      ]
    },
    {
      "extras": {
        "surface": "darkpaint"
      },
      "mesh": 3,
      "name": "03_VANE_02_mesh"
    },
    {
      "children": [
        6
      ],
      "extras": {
        "removable_module": true
      },
      "name": "03_VANE_02",
      "translation": [
        0.010999999940395355,
        0.03807999938726425,
        -0.01905255764722824
      ]
    },
    {
      "extras": {
        "surface": "darkpaint"
      },
      "mesh": 4,
      "name": "03_VANE_03_mesh"
    },
    {
      "children": [
        8
      ],
      "extras": {
        "removable_module": true
      },
      "name": "03_VANE_03",
      "translation": [
        -0.010999999940395355,
        0.07280000299215317,
        -0.01905255764722824
      ]
    },
    {
      "extras": {
        "surface": "darkpaint"
      },
      "mesh": 5,
      "name": "03_VANE_04_mesh"
    },
    {
      "children": [
        10
      ],
      "extras": {
        "removable_module": true
      },
      "name": "03_VANE_04",
      "translation": [
        -0.02199999988079071,
        0.03807999938726425,
        0
      ]
    },
    {
      "extras": {
        "surface": "darkpaint"
      },
      "mesh": 6,
      "name": "03_VANE_05_mesh"
    },
    {
      "children": [
        12
      ],
      "extras": {
        "removable_module": true
      },
      "name": "03_VANE_05",
      "translation": [
        -0.010999999940395355,
        0.07280000299215317,
        0.01905255764722824
      ]
    },
    {
      "extras": {
        "surface": "darkpaint"
      },
      "mesh": 7,
      "name": "03_VANE_06_mesh"
    },
    {
      "children": [
        14
      ],
      "extras": {
        "removable_module": true
      },
      "name": "03_VANE_06",
      "translation": [
        0.010999999940395355,
        0.03807999938726425,
        0.01905255764722824
      ]
    },
    {
      "extras": {
        "surface": "darkpaint"
      },
      "mesh": 8,
      "name": "04_BASE_RING_mesh"
    },
    {
      "children": [
        16
      ],
      "extras": {
        "removable_module": true
      },
      "name": "04_BASE_RING"
    },
    {
      "children": [
        1,
        3,
        5,
        7,
        9,
        11,
        13,
        15,
        17
      ],
      "extras": {
        "axes": "Metres; +Z up; -Y front.",
        "description": "AP scatter mine; fictional exterior game prop; EMB4-inspired finish"
      },
      "name": "AP_Scatter_Mine_ROOT",
      "scale": [
        2.8,
        2.8,
        2.8
      ],
      "translation": [
        0.0,
        -0.03753642737865448,
        0.0
      ]
    }
  ],
  "samplers": [
    {
      "magFilter": 9728,
      "minFilter": 9984
    },
    {
      "magFilter": 9729,
      "minFilter": 9987
    }
  ],
  "scene": 0,
  "scenes": [
    {
      "name": "Scene",
      "nodes": [
        18
      ]
    }
  ],
  "textures": [
    {
      "sampler": 0,
      "source": 0
    },
    {
      "sampler": 1,
      "source": 1
    }
  ]
}