# Made in Blockbench 5.1.4
mtllib hypersonic_missile.mtl

o some_hypersonic_bullshit_made_by_glowker
v 0.417982 16.904528 -0.581327
v -0.417982 16.904528 -0.581327
v -0.768827 13.696512 0.287628
v 0.768827 13.696512 0.287628
v -1.213264 12.049337 -0.132505
v -0.930058 12.049337 -1.089852
v -0.930058 9.099534 -1.089852
v -1.213264 9.099534 -0.132505
v 1.038995 13.696512 -0.153669
v 0.796468 13.696512 -0.973507
v 0.930058 9.099534 -1.089852
v 1.213264 9.099534 -0.132505
v 0.930058 12.049337 -1.089852
v 1.213264 12.049337 -0.132505
v -0.897781 9.099534 0.382809
v 0.897781 9.099534 0.382809
v 0.897781 12.049337 0.382809
v -0.897781 12.049337 0.382809
v -1.038995 13.696512 -0.153669
v -0.796468 13.696512 -0.973507
v -0.308289 1.814617 -1.269160
v -0.308289 8.100329 -1.269160
v 0.308289 8.100329 -1.269160
v 0.308289 1.814617 -1.269160
v 0.842261 8.100329 -0.960871
v 0.842261 1.814617 -0.960871
v 1.150550 8.100329 -0.426899
v 1.150550 1.814617 -0.426899
v 1.150550 8.100329 0.189679
v 1.150550 1.814617 0.189679
v 0.842261 8.100329 0.723651
v 0.842261 1.814617 0.723651
v 0.308289 8.100329 1.031940
v 0.308289 1.814617 1.031940
v -0.308289 8.100329 1.031940
v -0.308289 1.814617 1.031940
v -0.842261 8.100329 0.723651
v -0.842261 1.814617 0.723651
v -1.150550 8.100329 0.189679
v -1.150550 1.814617 0.189679
v -1.150550 8.100329 -0.426899
v -1.150550 1.814617 -0.426899
v 0.842261 8.100329 0.723651
v 0.308289 8.100329 1.031940
v -0.842261 8.100329 -0.960871
v -0.842261 1.814617 -0.960871
v 0.213626 1.233483 0.678653
v 0.583638 1.233483 0.465027
v 1.150550 8.100329 0.189679
v 1.150550 8.100329 -0.426899
v -0.842261 8.100329 -0.960871
v -0.308289 8.100329 -1.269160
v 0.308289 8.100329 -1.269160
v 0.842261 8.100329 -0.960871
v -1.150550 8.100329 -0.426899
v -1.150550 8.100329 0.189679
v -0.842261 8.100329 0.723651
v -0.308289 8.100329 1.031940
v -0.213626 1.233483 -0.915874
v 0.213626 1.233483 -0.915874
v 0.583638 1.233483 -0.702248
v 0.797264 1.233483 -0.332236
v 0.797264 1.233483 0.095016
v -0.583638 1.233483 -0.702248
v -0.797264 1.233483 -0.332236
v -0.797264 1.233483 0.095016
v -0.583638 1.233483 0.465027
v -0.213626 1.233483 0.678653
v -0.422806 9.664789 1.022753
v -0.422806 10.772378 0.177141
v -0.380375 8.106224 0.219573
v -0.380375 8.106224 0.980323
v 0.380375 8.106224 0.219573
v 0.380375 8.106224 0.980323
v 0.422806 10.772378 0.177141
v 0.422806 9.664789 1.022753
v 0.343194 9.473687 0.974443
v 0.343194 10.454720 0.225453
v -0.343194 10.454720 0.225453
v -0.343194 9.473687 0.974443
v 1.050000 2.826293 -0.118610
v 2.250000 2.076294 -0.118610
v 1.050000 2.076294 -0.118610
v -1.050000 2.826293 -0.118610
v -2.250000 2.076294 -0.118610
v -1.050000 2.076294 -0.118610
v -0.951623 2.826293 0.325139
v -2.039192 2.076294 0.832281
v -0.951623 2.076294 0.325139
v 0.951623 2.826293 -0.562359
v 2.039192 2.076294 -1.069501
v 0.951623 2.076294 -0.562359
v -0.951623 2.826293 -0.562359
v -2.039192 2.076294 -1.069501
v -0.951623 2.076294 -0.562359
v 0.951623 2.826293 0.325139
v 2.039192 2.076294 0.832281
v 0.951623 2.076294 0.325139
v -1.170444 10.335134 -0.166310
v -2.329555 9.216015 0.144273
v -1.170444 9.216015 -0.166310
v 1.170444 10.335134 -0.166310
v 2.329555 9.216015 0.144273
v 1.170444 9.216015 -0.166310
v 0.970444 10.335134 -0.663375
v 2.129555 9.216015 -0.973957
v 0.970444 9.216015 -0.663375
v -0.970444 10.335134 -0.663375
v -2.129555 9.216015 -0.973957
v -0.970444 9.216015 -0.663375
v -2.129555 8.819819 -0.973957
v -0.970444 8.819819 -0.663375
v 2.329555 8.819819 0.144273
v 1.170444 8.819819 -0.166310
v 2.129555 8.819819 -0.973957
v 0.970444 8.819819 -0.663375
v -2.329555 8.819819 0.144273
v -1.170444 8.819819 -0.166310
v -2.250000 1.982705 -0.118610
v -1.050000 1.982705 -0.118610
v -2.039192 1.982705 -1.069501
v -0.951623 1.982705 -0.562359
v -2.039192 1.982705 0.832281
v -0.951623 1.982705 0.325139
v 2.039192 1.982705 0.832281
v 0.951623 1.982705 0.325139
v 2.250000 1.982705 -0.118610
v 1.050000 1.982705 -0.118610
v 2.039192 1.982705 -1.069501
v 0.951623 1.982705 -0.562359
v -0.322214 0.000000 -0.896504
v -0.239870 1.884952 -0.697707
v 0.081815 1.884952 -0.740058
v 0.109901 0.000000 -0.953393
v 0.381578 1.884952 -0.615892
v 0.512569 0.000000 -0.786603
v 0.579097 1.884952 -0.358480
v 0.777894 0.000000 -0.440824
v 0.621448 1.884952 -0.036795
v 0.834783 0.000000 -0.008709
v 0.497282 1.884952 0.262968
v 0.667993 0.000000 0.393959
v 0.239870 1.884952 0.460487
v 0.322214 0.000000 0.659284
v -0.081815 1.884952 0.502838
v -0.109901 0.000000 0.716173
v -0.381578 1.884952 0.378672
v -0.512569 0.000000 0.549383
v -0.579097 1.884952 0.121260
v -0.777894 0.000000 0.203604
v -0.621448 1.884952 -0.200425
v -0.834783 0.000000 -0.228511
v -0.497282 1.884952 -0.500188
v -0.667993 0.000000 -0.631179
vt 0.1292728515625 0.9116669921875
vt 0.1031490234375 0.9116669921875
vt 0.09218515625 0.80780390625
vt 0.14023671875 0.80780390625
vt 0.12469004578158581 0.9688064883925145
vt 0.12411210223354206 0.9999999629926383
vt 0.03194666996275358 0.9982923488965364
vt 0.03252461351079734 0.9670988742964127
vt 0.3711819529328859 0.8193068562137107
vt 0.369482245773603 0.8459702773324376
vt 0.26888190212053775 0.8311434277123982
vt 0.34357851562499997 0.6966455078125
vt 0.3347283203125 0.7265625
vt 0.2765998046875 0.7265625
vt 0.26774960937500003 0.6966455078125
vt 0.5149302074533757 0.8262862387657941
vt 0.5129455078125 0.857421875
vt 0.4209509669882395 0.8515578055856787
vt 0.4229356666291153 0.8204221693514728
vt 0.0881552734375 0.6640625
vt 0.14426660156249999 0.6640625
vt 0.14426660156249999 0.75624375
vt 0.0881552734375 0.75624375
vt 0.1763606436570595 0.9719432910378734
vt 0.17586580179368821 0.9986562266695262
vt 0.12411210154788051 1
vt 0.12469004578158581 0.9688064883925145
vt 0.0935173828125 0.96484375
vt 0.0353888671875 0.96484375
vt 0.0353888671875 0.8726625
vt 0.0935173828125 0.8726625
vt 0.27734375 0.992137771828003
vt 0.1758658013667827 0.9986562497150704
vt 0.1763606436570595 0.9719432910378734
vt 0.42293565656415644 0.8204223272488655
vt 0.4209509669882395 0.8515578055856787
vt 0.369482245773603 0.8459702773324376
vt 0.37118195146653105 0.8193068792165182
vt 0.0881552734375 0.75624375
vt 0.14426660156249999 0.75624375
vt 0.14023671875 0.80780390625
vt 0.09218515625 0.80780390625
vt 0.0935173828125 0.8726625
vt 0.0353888671875 0.8726625
vt 0.039563476562500005 0.8210599609375
vt 0.0893427734375 0.8210599609375
vt 0.4169966755898631 0.966796875
vt 0.4169966755898631 0.9856787582377139
vt 0.3652811469268583 0.9833991171170001
vt 0.36528115959410734 0.9672295720468845
vt 0.4120625732518768 0.7973074705281776
vt 0.5150373064899915 0.8147424788382585
vt 0.41206260729993094 0.8134770549978086
vt 0.4120625732518768 0.7973074705281776
vt 0.41206260730025845 0.8134772105708765
vt 0.3603470685100086 0.8157566882651162
vt 0.3603470685100086 0.796875
vt 0.5091779255898631 0.9667969223002139
vt 0.5091779255898631 0.9856787582377139
vt 0.4169966755898631 0.9856787582377139
vt 0.4169966755898631 0.9667969223002139
vt 0.3337197265625 0.680541796875
vt 0.34357851562499997 0.6966455078125
vt 0.26774960937500003 0.6966455078125
vt 0.2776083984375 0.680541796875
vt 0.3652811595941382 0.9672295326473381
vt 0.3652811469268583 0.9833991171170001
vt 0.2623064494101369 0.9846646771191909
vt 0.3603470685100086 0.796875
vt 0.3603470685100086 0.8157568359375
vt 0.26816581851000854 0.8157568359375
vt 0.26816581851000854 0.796875
vt 0.07751503906250001 0.7200630859375
vt 0.0893427734375 0.8210599609375
vt 0.039563476562500005 0.8210599609375
vt 0.0513912109375 0.7200630859375
vt 0.22669400928263425 0.8244501399007357
vt 0.22669400928263425 0.6280216242757357
vt 0.24596197803263425 0.6280216242757357
vt 0.24596197803263425 0.8244501399007357
vt 0.24596197803263425 0.8244501399007357
vt 0.24596197803263425 0.6280216242757357
vt 0.26522994678263423 0.6280216242757357
vt 0.26522994678263423 0.8244501399007357
vt 0.3297752371102015 0.966796875
vt 0.13334672148529864 0.9667966796874999
vt 0.13334674064398994 0.9475285156250095
vt 0.3297752562688928 0.9475287109375096
vt 0.3297752562688928 0.9475287109375096
vt 0.13334674064389282 0.9475285156250095
vt 0.13334674064389282 0.9282605468750096
vt 0.3297752562688928 0.9282605468750096
vt 0.3297752562688928 0.9282605468750096
vt 0.13334674064389282 0.9282605468750096
vt 0.13334674064389282 0.9089923828125095
vt 0.3297752562688928 0.9089923828125095
vt 0.2046833984375 0.64820625
vt 0.2046833984375 0.8446347656250001
vt 0.185415234375 0.8446347656250001
vt 0.18541523437500002 0.64820625
vt 0.18541523437500002 0.64820625
vt 0.18541523437500002 0.844634765625
vt 0.16614726562499998 0.844634765625
vt 0.16614726562499998 0.64820625
vt 0.16614726562500004 0.6482062500000001
vt 0.16614726562499998 0.844634765625
vt 0.1468791015625 0.844634765625
vt 0.14687910156250003 0.6482062500000001
vt 0.1604591297812587 0.8484455078125095
vt 0.3568876454062587 0.8484455078125095
vt 0.3568876454062587 0.8677136718750096
vt 0.1604591297812587 0.8677136718750096
vt 0.1604591297812587 0.8677136718750096
vt 0.3568876454062587 0.8677136718750096
vt 0.3568876454062587 0.8869818359375096
vt 0.1604591297812587 0.8869816406250095
vt 0 1
vt 0.017578125 1
vt 0.017578125 1
vt 0 1
vt 0.16045912978135585 0.8869816406250095
vt 0.3568876454062587 0.8869818359375096
vt 0.3568876262475674 0.90625
vt 0.16045911062266455 0.9062498046874999
vt 0.20742604053263425 0.8244501399007357
vt 0.20742604053263425 0.6280216242757357
vt 0.22669400928263425 0.6280216242757357
vt 0.22669400928263425 0.8244501399007357
vt 0.2046833984375 0.64820625
vt 0.18541531219586302 0.64820625
vt 0.18837343202829693 0.6269533955378919
vt 0.201725230719624 0.6269533347045525
vt 0 1
vt 0.009765625 1
vt 0.009765625 1
vt 0 1
vt 0 1
vt 0 1
vt 0 1
vt 0 1
vt 0.017578125 1
vt 0 1
vt 0 1
vt 0.017578125 1
vt 0.01953125 1
vt 0 1
vt 0 1
vt 0.01953125 1
vt 0.009765625 1
vt 0 1
vt 0 1
vt 0.009765625 1
vt 0.009765625 1
vt 0 1
vt 0 1
vt 0.009765625 1
vt 0.017578125 1
vt 0 1
vt 0 1
vt 0.017578125 1
vt 0 1
vt 0 1
vt 0 1
vt 0 1
vt 0 1
vt 0.009765625 1
vt 0.009765625 1
vt 0 1
vt 0 1
vt 0.017578125 1
vt 0.017578125 1
vt 0 1
vt 0 1
vt 0.01953125 1
vt 0.01953125 1
vt 0 1
vt 0.0012380900732973377 0.9762986789839126
vt 0.0012380900732973377 0.9570307102339127
vt 0.03252461351079734 0.9670988742964127
vt 0.031970316635797344 0.9970160617964127
vt 0.28292219713426775 0.6409192847757105
vt 0.3017267064334653 0.63671875
vt 0.28330513514830563 0.673954468385194
vt 0.2676226905173372 0.6798463290274083
vt 0.380727734375 0.658203125
vt 0.361459765625 0.658203125
vt 0.3420294921875 0.6264791015625
vt 0.4001580078125 0.6264791015625
vt 0 0.668930087906245
vt 0.015946145982455202 0.6797456940027726
vt 1.3877787807814457e-17 0.70703125
vt 0.27935506900277257 0.74609375
vt 0.26853946290624503 0.7301476040175447
vt 0.306640625 0.7301476040175447
vt 0.544921875 0.8174365234375001
vt 0.544921875 0.8367044921875
vt 0.5129455078125 0.857421875
vt 0.5148525390625001 0.8275046875000001
vt 0.32099467518346525 0.63671875
vt 0.3397991844826628 0.6409192847757105
vt 0.3394162464686249 0.673954468385194
vt 0.0012380900732973377 0.9570307102339127
vt 0.0014648139320126846 0.9377640490475515
vt 0.0325246598038597 0.9670988891937581
vt 0.3999953762920056 0.6580822979341112
vt 0.380727734375 0.658203125
vt 0.4001579409621369 0.6264792107098309
vt 0.3017267064334653 0.63671875
vt 0.32099467518346525 0.63671875
vt 0.3394163548709653 0.6739546875
vt 0.28330502674596525 0.6739546875
vt 0.361459765625 0.658203125
vt 0.3421921237079944 0.6580822979341112
vt 0.3420295590378631 0.6264792107098309
vt 0.3203125 0.59765625
vt 0.337890625 0.603342460649852
vt 0.337890625 0.636209125723644
vt 0.3206722651770119 0.6306881140590385
vt 0.3297752562688928 0.9282605468750096
vt 0.3297752562688928 0.9089925241435072
vt 0.3510281197578413 0.9119507378404178
vt 0.35102812309975606 0.9253023873179103
vt 0.3297752562688928 0.9475287109375096
vt 0.3297752562688928 0.9282607421875095
vt 0.35102818595639285 0.9312189453125095
vt 0.35102818595639285 0.9445705078125095
vt 0.20742604053263425 0.8244501399007357
vt 0.22669412677427123 0.8244501399007357
vt 0.2237358617491857 0.845703125
vt 0.21038420825051024 0.8457030551961833
vt 0.22669400928263425 0.8244501399007357
vt 0.24596197803263425 0.8244501399007357
vt 0.24300377490763425 0.8457030695882357
vt 0.22965221240763425 0.8457030695882357
vt 0.3297752371102015 0.966796875
vt 0.3297752562688081 0.9475287961598593
vt 0.35102827851470136 0.9504872393095019
vt 0.35102813226157803 0.9638388887861937
vt 0.16045912978135585 0.8869816406250095
vt 0.16045911062280505 0.9062496633565023
vt 0.1392062500752736 0.9032914285274786
vt 0.13920626000915037 0.8899397790499894
vt 0.24596197803263425 0.8244501399007357
vt 0.26523020946736575 0.8244501399007357
vt 0.2622719100130117 0.8457030898092144
vt 0.24892038715128817 0.8457031049426977
vt 0.1604591297812587 0.8677136718750096
vt 0.1604591297812587 0.8869816406250095
vt 0.13920620009375873 0.8840234375000096
vt 0.13920620009375873 0.8706718750000095
vt 0.1604591297812587 0.8484455078125095
vt 0.1604591297812587 0.8677135866526597
vt 0.13920610459374128 0.8647551646352911
vt 0.13920623757107303 0.8514035151584605
vt 0.16614726562500004 0.6482062500000001
vt 0.14687917938336303 0.6482062500000001
vt 0.14983747773839518 0.6269531895119008
vt 0.16318914579256613 0.6269533955378919
vt 0.18541523437500002 0.64820625
vt 0.166147265625 0.64820625
vt 0.16910546875000002 0.626953125
vt 0.18245703125 0.626953125
vt 0.3906235781755238 0.6616228105099444
vt 0.4256474158872138 0.6875
vt 0.3423089337925237 0.6875
vt 0.34193070911278617 0.6637348454876988
vt 0.369140625 0.69140625
vt 0.369140625 0.71484375
vt 0.345703125 0.71484375
vt 0.345703125 0.69140625
vt 0.00991348036039117 0.8772209625195951
vt 0.033203125 0.8775992163008809
vt 0.033203125 0.9609375
vt 0.0078125 0.9259136199011312
vt 0.0243966796875 0.826171875
vt 0.0243966796875 0.8647427734375
vt 0.0029470703124999994 0.8647427734375
vt 0.0029470703124999994 0.826171875
vt 0.12126171875 0.96484375
vt 0.09748828125 0.96484375
vt 0.0961623046875 0.916015625
vt 0.1225876953125 0.916015625
vt 0.005859375 0.88671875
vt 0.005859375 0.9252894317622876
vt 0 0.934095843760522
vt 0 0.8905492954590742
vt 0.24169568176228762 0.974609375
vt 0.203125 0.974609375
vt 0.20695541819067995 0.96875
vt 0.25050196649212764 0.96875
vt 0.2724435546875 0.98046875
vt 0.2509939453125 0.98046875
vt 0.2485060546875 0.974609375
vt 0.2749314453125 0.974609375
vt 0.0029470703124999994 0.8647427734375
vt 0.0243966796875 0.8647427734375
vt 0.0268845703125 0.8747837890625
vt 0.00045917968750000017 0.8747837890625
vt 0.36015625 0.8564503906250001
vt 0.39765625 0.8798878906250001
vt 0.36015625 0.8798878906250001
vt 0.286328125 0.6357371093749999
vt 0.248828125 0.6122996093749999
vt 0.286328125 0.6122996093749999
vt 0.010256445312500001 0.781640625
vt 0.0336939453125 0.744140625
vt 0.0336939453125 0.781640625
vt 0.0268529296875 0.78671875
vt 0.003415429687499999 0.82421875
vt 0.003415429687499999 0.78671875
vt 0.0268529296875 0.744140625
vt 0.003415429687499999 0.781640625
vt 0.003415429687499999 0.744140625
vt 0.010256445312500001 0.82421875
vt 0.0336939453125 0.78671875
vt 0.0336939453125 0.82421875
vt 0.35425283203125 0.96328125
vt 0.38922529296875 0.92578125
vt 0.38922529296875 0.96328125
vt 0.35425283203125 0.923828125
vt 0.38922529296875 0.886328125
vt 0.38922529296875 0.923828125
vt 0.13598154296875 0.624609375
vt 0.10100908203125 0.662109375
vt 0.10100908203125 0.624609375
vt 0.04809091796875 0.615234375
vt 0.013118457031249996 0.652734375
vt 0.013118457031249996 0.615234375
vt 0.013118457031249996 0.615234375
vt 0.013118457031249996 0.652734375
vt 0.0007372070312499993 0.652734375
vt 0.0007372070312499993 0.615234375
vt 0.38922529296875 0.923828125
vt 0.38922529296875 0.886328125
vt 0.40160654296875 0.886328125
vt 0.40160654296875 0.923828125
vt 0.10100908203125 0.624609375
vt 0.10100908203125 0.662109375
vt 0.08862783203124999 0.662109375
vt 0.08862783203124999 0.624609375
vt 0.38922529296875 0.96328125
vt 0.38922529296875 0.92578125
vt 0.40160654296875 0.92578125
vt 0.40160654296875 0.96328125
vt 0.286328125 0.6122996093749999
vt 0.248828125 0.6122996093749999
vt 0.248828125 0.609375
vt 0.286328125 0.609375
vt 0.003415429687499999 0.744140625
vt 0.003415429687499999 0.781640625
vt 0.000490820312500001 0.781640625
vt 0.000490820312500001 0.744140625
vt 0.0336939453125 0.781640625
vt 0.0336939453125 0.744140625
vt 0.0366185546875 0.744140625
vt 0.0366185546875 0.781640625
vt 0.0336939453125 0.82421875
vt 0.0336939453125 0.78671875
vt 0.0366185546875 0.78671875
vt 0.0366185546875 0.82421875
vt 0.36015625 0.8798878906250001
vt 0.39765625 0.8798878906250001
vt 0.39765625 0.8828125
vt 0.36015625 0.8828125
vt 0.003415429687499999 0.78671875
vt 0.003415429687499999 0.82421875
vt 0.000490820312500001 0.82421875
vt 0.000490820312500001 0.78671875
vt 0.27566294623107357 0.7745163275961874
vt 0.3223211493560736 0.7379378119711875
vt 0.3288084540435736 0.7457301947836874
vt 0.28437700873107363 0.7849839057211874
vt 0.28437719231871483 0.7849837435275844
vt 0.32880845404357356 0.7457301947836874
vt 0.3357419284469603 0.7531285440999482
vt 0.29369069720290925 0.794921875
vt 0.4011517390804155 0.755859375
vt 0.34217563580460897 0.7497929554409478
vt 0.3429166865773069 0.7396806863351666
vt 0.40214725413726693 0.7422758078519152
vt 0.40214725413726693 0.7422758078519152
vt 0.3429167853872669 0.7396806906644152
vt 0.3430630744497669 0.7295424094144152
vt 0.4023437385122669 0.7286572531644152
vt 0.40234375 0.7286572529928848
vt 0.3430630744497669 0.7295424094144152
vt 0.3426142217239991 0.7194130137028344
vt 0.4017408310593155 0.7150505408385588
vt 0.068359375 0.7032417160022413
vt 0.019634971496403808 0.7370189718295281
vt 0.013616135417115593 0.7288592678167343
vt 0.06027446122085575 0.692280656015587
vt 0.06027446122085575 0.692280656015587
vt 0.01361625809585576 0.728859171640587
vt 0.007128953408355759 0.7210665935155871
vt 0.051560398720855743 0.6818130778905871
vt 0.05156031204431655 0.6818131544660588
vt 0.007128953408355773 0.7210665935155871
vt 0.00019566283673781715 0.7136683306903514
vt 0.04224683169593521 0.671875
vt 0.3390824406183889 0.75390625
vt 0.39805873919539103 0.7599726674577062
vt 0.3973176884226931 0.7700849365634874
vt 0.33808712086273307 0.7674898150467389
vt 0.33808712086273307 0.7674898150467389
vt 0.3973175896127331 0.7700849322342388
vt 0.3971713005502331 0.7802234087967388
vt 0.3378906364877331 0.7811085650467389
vt 0.337890625 0.7811085652182692
vt 0.3971713005502331 0.7802234087967388
vt 0.3976201532760009 0.7903528045083196
vt 0.3384935439406845 0.7947152773725953
vt 0.267578125 0.7635554396032169
vt 0.31630243595552554 0.7297780117822463
vt 0.32232127203481375 0.7379377157950402
vt 0.27566294623107357 0.7745163275961874
usemtl missile_texture
vn 0.158328 0.274246 0.948537
vn -0.158328 0.274246 0.948537
vn -0.192798 0.190035 0.962661
vn 0.192798 0.190035 0.962661
vn -0.999105 0.036180 0.021898
vn -0.958388 0.033370 -0.283513
vn -0.944565 -0.023188 -0.327504
vn -0.999790 0.004678 0.019958
vn 0.988867 0.147216 0.021674
vn 0.951924 0.120587 -0.281601
vn 0.981008 0.192772 0.021502
vn 0.000000 -1.000000 0.000000
vn 0.998835 0.011431 0.046873
vn 0.944565 -0.023188 -0.327504
vn 0.958388 0.033370 -0.283513
vn 0.999105 0.036180 0.021898
vn -0.237260 0.111140 0.965068
vn 0.262970 0.112172 0.958261
vn 0.237064 0.025493 0.971160
vn -0.237064 0.025493 0.971160
vn -0.988867 0.147216 0.021674
vn -0.951924 0.120587 -0.281601
vn 0.022019 0.024886 -0.999448
vn -0.022019 0.024886 -0.999448
vn 0.000000 0.024105 -0.999709
vn -0.981008 0.192772 0.021502
vn 0.000000 0.099967 -0.994991
vn -0.441757 0.312020 0.841127
vn 0.307308 0.021643 0.951364
vn 0.441757 0.312020 0.841127
vn -0.995513 0.025220 0.091199
vn -0.278827 0.017597 0.960180
vn 0.000000 0.121346 -0.992610
vn -0.258550 -0.045631 -0.964920
vn -0.258819 0.000000 -0.965926
vn 0.258819 0.000000 -0.965926
vn 0.258550 -0.045631 -0.964920
vn 0.707107 0.000000 -0.707107
vn 0.706370 -0.045631 -0.706370
vn 0.965926 0.000000 -0.258819
vn 0.964920 -0.045631 -0.258549
vn 0.965926 -0.000000 0.258819
vn 0.964920 -0.045631 0.258549
vn 0.707107 -0.000000 0.707107
vn 0.706370 -0.045632 0.706370
vn 0.258819 -0.000000 0.965926
vn 0.258549 -0.045632 0.964920
vn -0.258819 -0.000000 0.965926
vn -0.258549 -0.045632 0.964920
vn -0.707107 -0.000000 0.707107
vn -0.706370 -0.045632 0.706370
vn -0.965926 -0.000000 0.258819
vn -0.964920 -0.045631 0.258549
vn -0.965926 0.000000 -0.258819
vn -0.964920 -0.045631 -0.258549
vn 0.000000 1.000000 0.000000
vn -0.707107 0.000000 -0.707107
vn -0.706370 -0.045631 -0.706370
vn 0.219046 -0.532657 0.817493
vn 0.598446 -0.532657 0.598447
vn -0.961767 -0.046566 -0.269880
vn -0.999642 0.023971 0.011895
vn -0.749663 0.171122 0.639314
vn -0.215575 0.474032 0.853710
vn -0.908203 0.044778 0.416127
vn 0.101198 0.114373 -0.988270
vn -0.101198 0.114373 -0.988270
vn 0.961767 -0.046566 -0.269880
vn 0.698930 -0.151634 -0.698930
vn -0.698930 -0.151634 -0.698930
vn 0.990491 0.048908 0.128593
vn 0.089843 0.504763 0.858570
vn 0.749663 0.171122 0.639314
vn 0.444533 0.013573 -0.895660
vn 0.022566 0.126785 0.991674
vn -0.058807 0.129312 0.989859
vn -0.444533 0.013573 -0.895660
vn 0.817493 -0.532657 0.219046
vn 0.817494 -0.532657 -0.219046
vn -0.219047 -0.532656 -0.817493
vn -0.598447 -0.532656 -0.598447
vn 0.219047 -0.532656 -0.817493
vn 0.598447 -0.532656 -0.598447
vn -0.817494 -0.532657 -0.219046
vn -0.817493 -0.532657 0.219046
vn -0.598446 -0.532657 0.598447
vn -0.219046 -0.532657 0.817493
vn -0.999702 -0.020081 -0.013846
vn 0.999702 -0.020081 -0.013846
vn 0.000000 0.606830 0.794831
vn 0.000000 0.515243 0.857044
vn 0.000000 -0.027214 0.999630
vn 0.888761 0.278153 0.364327
vn -0.888761 0.278153 0.364327
vn 0.000000 0.245089 -0.969501
vn 0.000000 0.150357 0.988632
vn 0.000000 0.000000 -1.000000
vn 0.000000 -0.000000 1.000000
vn 0.422618 0.000000 0.906308
vn -0.422618 0.000000 -0.906308
vn -0.422618 -0.000000 0.906308
vn 0.422618 -0.000000 -0.906308
vn -0.380214 0.113418 -0.917918
vn 0.129684 0.113418 -0.985047
vn 0.604833 0.113418 -0.788234
vn 0.917918 0.113418 -0.380214
vn 0.985047 0.113418 0.129683
vn 0.788234 0.113418 0.604833
vn 0.380214 0.113418 0.917918
vn -0.129684 0.113418 0.985047
vn -0.604833 0.113418 0.788234
vn -0.917918 0.113418 0.380214
vn -0.985047 0.113418 -0.129683
vn -0.788234 0.113418 -0.604834
f 1/1/1 2/2/2 3/3/3 4/4/4
f 5/5/5 6/6/6 7/7/7 8/8/8
f 9/9/9 10/10/10 1/11/11
f 8/12/12 7/13/12 11/14/12 12/15/12
f 12/16/13 11/17/14 13/18/15 14/19/16
f 15/20/17 16/21/18 17/22/19 18/23/20
f 19/24/21 20/25/22 6/26/6 5/27/5
f 11/28/23 7/29/24 6/30/25 13/31/25
f 2/32/26 20/33/22 19/34/21
f 14/35/16 13/36/15 10/37/10 9/38/9
f 18/39/20 17/40/19 4/41/4 3/42/3
f 13/43/25 6/44/25 20/45/27 10/46/27
f 17/47/19 14/48/16 9/49/9 4/50/4
f 3/51/3 2/52/28 19/53/21
f 3/54/3 19/55/21 5/56/5 18/57/20
f 16/58/29 12/59/13 14/60/16 17/61/19
f 15/62/12 8/63/12 12/64/12 16/65/12
f 4/66/4 9/67/9 1/68/30
f 18/69/20 5/70/5 8/71/31 15/72/32
f 1/73/33 10/74/27 20/75/27 2/76/33
f 21/77/34 22/78/35 23/79/36 24/80/37
f 24/81/37 23/82/36 25/83/38 26/84/39
f 26/85/39 25/86/38 27/87/40 28/88/41
f 28/89/41 27/90/40 29/91/42 30/92/43
f 30/93/43 29/94/42 31/95/44 32/96/45
f 32/97/45 31/98/44 33/99/46 34/100/47
f 34/101/47 33/102/46 35/103/48 36/104/49
f 36/105/49 35/106/48 37/107/50 38/108/51
f 38/109/51 37/110/50 39/111/52 40/112/53
f 40/113/53 39/114/52 41/115/54 42/116/55
f 33/117/56 31/118/56 43/119/56 44/120/56
f 42/121/55 41/122/54 45/123/57 46/124/58
f 46/125/58 45/126/57 22/127/35 21/128/34
f 32/129/45 34/130/47 47/131/59 48/132/60
f 31/133/56 49/134/56 29/135/56 43/136/56
f 29/137/56 27/138/56 50/139/56 49/140/56
f 22/141/56 45/142/56 51/143/56 52/144/56
f 23/145/56 22/146/56 52/147/56 53/148/56
f 27/149/56 54/150/56 25/151/56 50/152/56
f 45/153/56 55/154/56 41/155/56 51/156/56
f 25/157/56 23/158/56 53/159/56 54/160/56
f 41/161/56 39/162/56 56/163/56 55/164/56
f 39/165/56 37/166/56 57/167/56 56/168/56
f 37/169/56 35/170/56 58/171/56 57/172/56
f 35/173/56 33/174/56 44/175/56 58/176/56
f 55/177/61 56/178/62 8/179/31 7/180/7
f 57/181/63 58/182/64 15/183/17 8/184/65
f 53/185/66 52/186/67 7/187/24 11/188/23
f 50/189/68 54/190/69 11/191/14
f 51/192/70 55/193/61 7/194/7
f 49/195/71 50/196/68 11/197/14 12/198/13
f 44/199/72 43/200/73 16/201/18
f 56/202/62 57/203/63 8/204/31
f 54/205/69 53/206/66 11/207/74
f 58/208/64 44/209/72 16/210/75 15/211/76
f 52/212/67 51/213/70 7/214/77
f 43/215/73 49/216/71 12/217/13 16/218/29
f 30/219/43 32/220/45 48/221/60 63/222/78
f 28/223/41 30/224/43 63/225/78 62/226/79
f 46/227/58 21/228/34 59/229/80 64/230/81
f 21/231/34 24/232/37 60/233/82 59/234/80
f 26/235/39 28/236/41 62/237/79 61/238/83
f 42/239/55 46/240/58 64/241/81 65/242/84
f 24/243/37 26/244/39 61/245/83 60/246/82
f 40/247/53 42/248/55 65/249/84 66/250/85
f 38/251/51 40/252/53 66/253/85 67/254/86
f 36/255/49 38/256/51 67/257/86 68/258/87
f 34/259/47 36/260/49 68/261/87 47/262/59
f 69/263/88 70/264/88 71/265/88 72/266/88
f 72/267/12 71/268/12 73/269/12 74/270/12
f 74/271/89 73/272/89 75/273/89 76/274/89
f 77/275/90 78/276/91 79/277/91 80/278/90
f 72/279/92 74/280/92 76/281/92 69/282/92
f 80/283/93 79/284/93 70/285/93 69/286/93
f 78/287/94 77/288/94 76/289/94 75/290/94
f 77/291/95 80/292/95 69/293/95 76/294/95
f 79/295/91 78/296/91 75/297/96 70/298/96
f 81/299/97 82/300/97 83/301/97
f 84/302/98 85/303/98 86/304/98
f 87/305/99 88/306/99 89/307/99
f 90/308/100 91/309/100 92/310/100
f 93/311/101 94/312/101 95/313/101
f 96/314/102 97/315/102 98/316/102
f 99/317/46 100/318/46 101/319/46
f 102/320/36 103/321/36 104/322/36
f 105/323/35 106/324/35 107/325/35
f 108/326/48 109/327/48 110/328/48
f 110/329/48 109/330/48 111/331/48 112/332/48
f 104/333/36 103/334/36 113/335/36 114/336/36
f 107/337/35 106/338/35 115/339/35 116/340/35
f 101/341/46 100/342/46 117/343/46 118/344/46
f 86/345/98 85/346/98 119/347/98 120/348/98
f 95/349/101 94/350/101 121/351/101 122/352/101
f 89/353/99 88/354/99 123/355/99 124/356/99
f 98/357/102 97/358/102 125/359/102 126/360/102
f 83/361/97 82/362/97 127/363/97 128/364/97
f 92/365/100 91/366/100 129/367/100 130/368/100
f 131/369/103 132/370/103 133/371/104 134/372/104
f 134/373/104 133/374/104 135/375/105 136/376/105
f 136/377/105 135/378/105 137/379/106 138/380/106
f 138/381/106 137/382/106 139/383/107 140/384/107
f 140/385/107 139/386/107 141/387/108 142/388/108
f 142/389/108 141/390/108 143/391/109 144/392/109
f 144/393/109 143/394/109 145/395/110 146/396/110
f 146/397/110 145/398/110 147/399/111 148/400/111
f 148/401/111 147/402/111 149/403/112 150/404/112
f 150/405/112 149/406/112 151/407/113 152/408/113
f 152/409/113 151/410/113 153/411/114 154/412/114
f 154/413/114 153/414/114 132/415/103 131/416/103
o circle
v 0.000000 0.027986 -0.125946
v -0.109794 0.027986 0.708020
v 0.321899 0.027986 0.651187
v 0.667339 0.027986 0.386121
v 0.833966 0.027986 -0.016152
v 0.777132 0.027986 -0.447844
v 0.512067 0.027986 -0.793284
v 0.109794 0.027986 -0.959911
v -0.321899 0.027986 -0.903078
v -0.667339 0.027986 -0.638013
v -0.833966 0.027986 -0.235739
v -0.777132 0.027986 0.195953
v -0.512067 0.027986 0.541393
vt 0.0791341796875 0.6298501953125
vt 0.0859375 0.6416341796875
vt 0.060546875 0.6484375
vt 0.0859375 0.6416341796875
vt 0.0859375 0.6552408203125
vt 0.060546875 0.6484375
vt 0.0859375 0.6552408203125
vt 0.0791341796875 0.6670248046875
vt 0.060546875 0.6484375
vt 0.0791341796875 0.6670248046875
vt 0.0673501953125 0.673828125
vt 0.060546875 0.6484375
vt 0.0673501953125 0.673828125
vt 0.0537435546875 0.673828125
vt 0.060546875 0.6484375
vt 0.0537435546875 0.673828125
vt 0.0419595703125 0.6670248046875
vt 0.060546875 0.6484375
vt 0.0419595703125 0.6670248046875
vt 0.03515625 0.6552408203125
vt 0.060546875 0.6484375
vt 0.03515625 0.6552408203125
vt 0.03515625 0.6416341796875
vt 0.060546875 0.6484375
vt 0.03515625 0.6416341796875
vt 0.0419595703125 0.6298501953125
vt 0.060546875 0.6484375
vt 0.0419595703125 0.6298501953125
vt 0.0537435546875 0.623046875
vt 0.060546875 0.6484375
vt 0.0537435546875 0.623046875
vt 0.0673501953125 0.623046875
vt 0.060546875 0.6484375
vt 0.0673501953125 0.623046875
vt 0.0791341796875 0.6298501953125
vt 0.060546875 0.6484375
usemtl missile_texture
f 157/417/56 158/418/56 155/419/56
f 158/420/56 159/421/56 155/422/56
f 159/423/56 160/424/56 155/425/56
f 160/426/56 161/427/56 155/428/56
f 161/429/56 162/430/56 155/431/56
f 162/432/56 163/433/56 155/434/56
f 163/435/56 164/436/56 155/437/56
f 164/438/56 165/439/56 155/440/56
f 165/441/56 166/442/56 155/443/56
f 166/444/56 167/445/56 155/446/56
f 167/447/56 156/448/56 155/449/56
f 156/450/56 157/451/56 155/452/56
