# Made in Blockbench 5.1.4
mtllib icbm.mtl

o cylinder
v -0.250000 0.000000 -0.250000
v -0.250000 0.500000 -0.250000
v -0.199759 0.000000 -0.062500
v -0.199759 0.500000 -0.062500
v -0.112741 0.000000 -0.112741
v -0.112741 0.500000 -0.112741
v -0.062500 0.000000 -0.199759
v -0.062500 0.500000 -0.199759
v -0.062500 0.000000 -0.300241
v -0.062500 0.500000 -0.300241
v -0.112741 0.000000 -0.387259
v -0.112741 0.500000 -0.387259
v -0.199759 0.000000 -0.437500
v -0.199759 0.500000 -0.437500
v -0.300241 0.000000 -0.437500
v -0.300241 0.500000 -0.437500
v -0.387259 0.000000 -0.387259
v -0.387259 0.500000 -0.387259
v -0.437500 0.000000 -0.300241
v -0.437500 0.500000 -0.300241
v -0.437500 0.000000 -0.199759
v -0.437500 0.500000 -0.199759
v -0.387259 0.000000 -0.112741
v -0.387259 0.500000 -0.112741
v -0.300241 0.000000 -0.062500
v -0.300241 0.500000 -0.062500
vt 0.32107890625 0.81326640625
vt 0.31563984375 0.81640625
vt 0.3125 0.8046875
vt 0.05978046875 0.703125
vt 0.06606015625 0.703125
vt 0.06606015625 0.734375
vt 0.05978046875 0.734375
vt 0.27657734375 0.67578125
vt 0.28201640625 0.67892109375
vt 0.2734375 0.6875
vt 0.32421875 0.80782734375
vt 0.32107890625 0.81326640625
vt 0.3125 0.8046875
vt 0.047220703125 0.7734375
vt 0.05350078125 0.7734375
vt 0.05350078125 0.8046875
vt 0.047220703125 0.8046875
vt 0.28201640625 0.67892109375
vt 0.28515625 0.68436015625
vt 0.2734375 0.6875
vt 0.32421875 0.80154765625
vt 0.32421875 0.80782734375
vt 0.3125 0.8046875
vt 0.05350078125 0.7734375
vt 0.05978046875 0.7734375
vt 0.05978046875 0.8046875
vt 0.05350078125 0.8046875
vt 0.28515625 0.68436015625
vt 0.28515625 0.69063984375
vt 0.2734375 0.6875
vt 0.32107890625 0.79610859375
vt 0.32421875 0.80154765625
vt 0.3125 0.8046875
vt 0.05978046875 0.7734375
vt 0.066060546875 0.7734375
vt 0.066060546875 0.8046875
vt 0.05978046875 0.8046875
vt 0.28515625 0.69063984375
vt 0.28201640625 0.69607890625
vt 0.2734375 0.6875
vt 0.31563984375 0.79296875
vt 0.32107890625 0.79610859375
vt 0.3125 0.8046875
vt 0.15659609375 0.703125
vt 0.16287578125 0.703125
vt 0.16287578125 0.734375
vt 0.15659609375 0.734375
vt 0.28201640625 0.69607890625
vt 0.27657734375 0.69921875
vt 0.2734375 0.6875
vt 0.30936015625 0.79296875
vt 0.31563984375 0.79296875
vt 0.3125 0.8046875
vt 0.16287578125 0.703125
vt 0.16915546875 0.703125
vt 0.16915546875 0.734375
vt 0.16287578125 0.734375
vt 0.27657734375 0.69921875
vt 0.27029765625 0.69921875
vt 0.2734375 0.6875
vt 0.30392109375 0.79610859375
vt 0.30936015625 0.79296875
vt 0.3125 0.8046875
vt 0.16915546875 0.703125
vt 0.17543515625 0.703125
vt 0.17543515625 0.734375
vt 0.16915546875 0.734375
vt 0.27029765625 0.69921875
vt 0.26485859375 0.69607890625
vt 0.2734375 0.6875
vt 0.30078125 0.80154765625
vt 0.30392109375 0.79610859375
vt 0.3125 0.8046875
vt 0.156595703125 0.7734375
vt 0.16287578125 0.7734375
vt 0.16287578125 0.8046875
vt 0.156595703125 0.8046875
vt 0.26485859375 0.69607890625
vt 0.26171875 0.69063984375
vt 0.2734375 0.6875
vt 0.30078125 0.80782734375
vt 0.30078125 0.80154765625
vt 0.3125 0.8046875
vt 0.16287578125 0.7734375
vt 0.16915546875 0.7734375
vt 0.16915546875 0.8046875
vt 0.16287578125 0.8046875
vt 0.26171875 0.69063984375
vt 0.26171875 0.68436015625
vt 0.2734375 0.6875
vt 0.30392109375 0.81326640625
vt 0.30078125 0.80782734375
vt 0.3125 0.8046875
vt 0.16915546875 0.7734375
vt 0.175435546875 0.7734375
vt 0.175435546875 0.8046875
vt 0.16915546875 0.8046875
vt 0.26171875 0.68436015625
vt 0.26485859375 0.67892109375
vt 0.2734375 0.6875
vt 0.30936015625 0.81640625
vt 0.30392109375 0.81326640625
vt 0.3125 0.8046875
vt 0.04722109375 0.703125
vt 0.05350078125 0.703125
vt 0.05350078125 0.734375
vt 0.04722109375 0.734375
vt 0.26485859375 0.67892109375
vt 0.27029765625 0.67578125
vt 0.2734375 0.6875
vt 0.31563984375 0.81640625
vt 0.30936015625 0.81640625
vt 0.3125 0.8046875
vt 0.05350078125 0.703125
vt 0.05978046875 0.703125
vt 0.05978046875 0.734375
vt 0.05350078125 0.734375
vt 0.27029765625 0.67578125
vt 0.27657734375 0.67578125
vt 0.2734375 0.6875
usemtl missile_texture
vn 0.000000 -1.000000 0.000000
vn 0.258820 0.000000 0.965926
vn 0.707107 0.000000 0.707107
vn 0.000000 1.000000 0.000000
vn 0.965926 0.000000 0.258820
vn 0.965926 0.000000 -0.258820
vn 0.707107 0.000000 -0.707107
vn 0.258820 0.000000 -0.965926
vn -0.258820 0.000000 -0.965926
vn -0.707107 0.000000 -0.707107
vn -0.965926 0.000000 -0.258820
vn -0.965926 0.000000 0.258820
vn -0.707107 0.000000 0.707107
vn -0.258820 0.000000 0.965926
vn 0.999814 0.019297 0.000000
vn 0.965746 0.019297 0.258771
vn 1.000000 0.000000 0.000000
vn 0.865864 0.019297 0.499907
vn 0.866026 0.000000 0.500000
vn 0.706975 0.019297 0.706975
vn 0.499907 0.019297 0.865864
vn 0.500000 0.000000 0.866026
vn 0.258771 0.019297 0.965746
vn 0.000000 0.019297 0.999814
vn 0.000000 0.000000 1.000000
vn -0.258771 0.019297 0.965746
vn -0.499907 0.019297 0.865864
vn -0.500000 0.000000 0.866026
vn -0.706975 0.019297 0.706975
vn -0.865864 0.019297 0.499907
vn -0.866026 0.000000 0.500000
vn -0.965746 0.019297 0.258771
vn -0.999814 0.019297 0.000000
vn -1.000000 0.000000 0.000000
vn -0.965746 0.019297 -0.258771
vn -0.865864 0.019297 -0.499907
vn -0.866026 0.000000 -0.500000
vn -0.706975 0.019297 -0.706975
vn -0.499907 0.019297 -0.865864
vn -0.500000 0.000000 -0.866026
vn -0.258771 0.019297 -0.965746
vn 0.000000 0.019297 -0.999814
vn 0.000000 0.000000 -1.000000
vn 0.258771 0.019297 -0.965746
vn 0.499907 0.019297 -0.865864
vn 0.500000 0.000000 -0.866026
vn 0.706975 0.019297 -0.706975
vn 0.865864 0.019297 -0.499907
vn 0.866026 0.000000 -0.500000
vn 0.965746 0.019297 -0.258771
vn 0.998920 0.046461 0.000000
vn 0.964883 0.046461 0.258539
vn 0.865091 0.046461 0.499459
vn 0.706343 0.046461 0.706343
vn 0.499459 0.046461 0.865091
vn 0.258539 0.046461 0.964883
vn 0.000000 0.046461 0.998920
vn -0.258539 0.046461 0.964883
vn -0.499459 0.046461 0.865091
vn -0.706343 0.046461 0.706343
vn -0.865091 0.046461 0.499459
vn -0.964883 0.046461 0.258539
vn -0.998920 0.046461 0.000000
vn -0.964883 0.046461 -0.258539
vn -0.865091 0.046461 -0.499459
vn -0.706343 0.046461 -0.706343
vn -0.499459 0.046461 -0.865091
vn -0.258539 0.046461 -0.964883
vn 0.000000 0.046461 -0.998920
vn 0.258539 0.046461 -0.964883
vn 0.499459 0.046461 -0.865091
vn 0.706343 0.046461 -0.706343
vn 0.865091 0.046461 -0.499459
vn 0.964883 0.046461 -0.258539
vn 0.999422 0.034006 0.000000
vn 0.965367 0.034006 0.258669
vn 0.865525 0.034006 0.499709
vn 0.706698 0.034006 0.706698
vn 0.499709 0.034006 0.865525
vn 0.258669 0.034006 0.965367
vn 0.000000 0.034006 0.999422
vn -0.258669 0.034006 0.965367
vn -0.499709 0.034006 0.865525
vn -0.706698 0.034006 0.706698
vn -0.865525 0.034006 0.499709
vn -0.965367 0.034006 0.258669
vn -0.999422 0.034006 0.000000
vn -0.965367 0.034006 -0.258669
vn -0.865525 0.034006 -0.499709
vn -0.706698 0.034006 -0.706698
vn -0.499709 0.034006 -0.865525
vn -0.258669 0.034006 -0.965367
vn 0.000000 0.034006 -0.999422
vn 0.258669 0.034006 -0.965367
vn 0.499709 0.034006 -0.865525
vn 0.706698 0.034006 -0.706698
vn 0.865525 0.034006 -0.499709
vn 0.965367 0.034006 -0.258669
vn 0.997211 0.074638 0.000000
vn 0.963231 0.074638 0.258098
vn 0.863611 0.074638 0.498603
vn 0.705134 0.074638 0.705134
vn 0.498603 0.074638 0.863611
vn 0.258098 0.074638 0.963231
vn 0.000000 0.074638 0.997211
vn -0.258098 0.074638 0.963231
vn -0.498603 0.074638 0.863611
vn -0.705134 0.074638 0.705134
vn -0.863611 0.074638 0.498603
vn -0.963231 0.074638 0.258098
vn -0.997211 0.074638 0.000000
vn -0.963231 0.074638 -0.258098
vn -0.863611 0.074638 -0.498603
vn -0.705134 0.074638 -0.705134
vn -0.498603 0.074638 -0.863611
vn -0.258098 0.074638 -0.963231
vn 0.000000 0.074638 -0.997211
vn 0.258098 0.074638 -0.963231
vn 0.498603 0.074638 -0.863611
vn 0.705134 0.074638 -0.705134
vn 0.863611 0.074638 -0.498603
vn 0.963231 0.074638 -0.258098
vn 0.999995 0.003098 -0.000000
vn 0.965921 0.003098 0.258818
vn 0.866023 0.003098 0.499995
vn 0.707103 0.003098 0.707103
vn 0.499995 0.003098 0.866023
vn 0.258818 0.003098 0.965921
vn 0.000000 0.003098 0.999995
vn -0.258818 0.003098 0.965921
vn -0.499995 0.003098 0.866023
vn -0.707103 0.003098 0.707103
vn -0.866023 0.003098 0.499995
vn -0.965921 0.003098 0.258818
vn -0.999995 0.003098 0.000000
vn -0.965921 0.003098 -0.258818
vn -0.866023 0.003098 -0.499995
vn -0.707103 0.003098 -0.707103
vn -0.499995 0.003098 -0.866023
vn -0.258818 0.003098 -0.965921
vn 0.000000 0.003098 -0.999995
vn 0.258818 0.003098 -0.965921
vn 0.499995 0.003098 -0.866023
vn 0.707103 0.003098 -0.707103
vn 0.866023 0.003098 -0.499995
vn 0.965921 0.003098 -0.258818
vn 0.999021 0.044232 0.000000
vn 0.964980 0.044233 0.258566
vn 0.865179 0.044233 0.499508
vn 0.706415 0.044233 0.706415
vn 0.499508 0.044233 0.865179
vn 0.258566 0.044233 0.964980
vn 0.000000 0.044232 0.999021
vn -0.258566 0.044233 0.964980
vn -0.499508 0.044233 0.865179
vn -0.706415 0.044233 0.706415
vn -0.865179 0.044233 0.499508
vn -0.964980 0.044233 0.258566
vn -0.999021 0.044232 -0.000000
vn -0.964980 0.044233 -0.258566
vn -0.865179 0.044233 -0.499508
vn -0.706415 0.044233 -0.706415
vn -0.499508 0.044233 -0.865179
vn -0.258566 0.044233 -0.964980
vn 0.000000 0.044232 -0.999021
vn 0.258566 0.044233 -0.964980
vn 0.499508 0.044233 -0.865179
vn 0.706415 0.044233 -0.706415
vn 0.865179 0.044233 -0.499508
vn 0.964980 0.044233 -0.258566
vn 0.995726 0.092354 0.000000
vn 0.961798 0.092354 0.257714
vn 0.862326 0.092353 0.497860
vn 0.704085 0.092353 0.704085
vn 0.497860 0.092353 0.862326
vn 0.257714 0.092354 0.961798
vn 0.000000 0.092354 0.995726
vn -0.257714 0.092354 0.961798
vn -0.497860 0.092353 0.862326
vn -0.704085 0.092353 0.704085
vn -0.862326 0.092353 0.497860
vn -0.961798 0.092354 0.257714
vn -0.995726 0.092354 -0.000000
vn -0.961798 0.092354 -0.257714
vn -0.862326 0.092353 -0.497860
vn -0.704085 0.092353 -0.704085
vn -0.497860 0.092353 -0.862326
vn -0.257714 0.092354 -0.961798
vn 0.000000 0.092354 -0.995726
vn 0.257714 0.092354 -0.961798
vn 0.497860 0.092353 -0.862326
vn 0.704085 0.092353 -0.704085
vn 0.862326 0.092353 -0.497860
vn 0.961798 0.092354 -0.257714
vn 0.988639 0.150310 -0.000000
vn 0.954952 0.150310 0.255878
vn 0.856188 0.150310 0.494317
vn 0.699073 0.150310 0.699073
vn 0.494317 0.150310 0.856188
vn 0.255878 0.150310 0.954952
vn 0.000000 0.150310 0.988639
vn -0.255878 0.150310 0.954952
vn -0.494317 0.150310 0.856188
vn -0.699073 0.150310 0.699073
vn -0.856188 0.150310 0.494317
vn -0.954952 0.150310 0.255878
vn -0.988639 0.150310 0.000000
vn -0.954952 0.150310 -0.255878
vn -0.856188 0.150310 -0.494317
vn -0.699073 0.150310 -0.699073
vn -0.494317 0.150310 -0.856188
vn -0.255878 0.150310 -0.954952
vn 0.000000 0.150310 -0.988639
vn 0.255878 0.150310 -0.954952
vn 0.494317 0.150310 -0.856188
vn 0.699073 0.150310 -0.699073
vn 0.856188 0.150310 -0.494317
vn 0.954952 0.150310 -0.255878
vn 0.972762 0.231807 -0.000000
vn 0.939616 0.231807 0.251768
vn 0.842437 0.231809 0.486380
vn 0.687846 0.231809 0.687846
vn 0.486380 0.231809 0.842437
vn 0.251768 0.231807 0.939616
vn 0.000000 0.231807 0.972762
vn -0.251768 0.231807 0.939616
vn -0.486380 0.231809 0.842437
vn -0.687846 0.231809 0.687846
vn -0.842437 0.231809 0.486380
vn -0.939616 0.231807 0.251768
vn -0.972762 0.231807 0.000000
vn -0.939616 0.231807 -0.251768
vn -0.842437 0.231809 -0.486380
vn -0.687846 0.231809 -0.687846
vn -0.486380 0.231809 -0.842437
vn -0.251768 0.231807 -0.939616
vn 0.000000 0.231807 -0.972762
vn 0.251768 0.231807 -0.939616
vn 0.486380 0.231809 -0.842437
vn 0.687846 0.231809 -0.687846
vn 0.842437 0.231809 -0.486380
vn 0.939616 0.231807 -0.251768
vn 0.905636 0.424055 0.000000
vn 0.874778 0.424055 0.234396
vn 0.784303 0.424056 0.452820
vn 0.640381 0.424057 0.640381
vn 0.452820 0.424056 0.784303
vn 0.234396 0.424055 0.874778
vn 0.000000 0.424055 0.905636
vn -0.234396 0.424055 0.874778
vn -0.452820 0.424056 0.784303
vn -0.640381 0.424057 0.640381
vn -0.784303 0.424056 0.452820
vn -0.874778 0.424055 0.234396
vn -0.905636 0.424055 0.000000
vn -0.874778 0.424055 -0.234396
vn -0.784303 0.424056 -0.452820
vn -0.640381 0.424057 -0.640381
vn -0.452820 0.424056 -0.784303
vn -0.234396 0.424055 -0.874778
vn 0.000000 0.424055 -0.905636
vn 0.234396 0.424055 -0.874778
vn 0.452820 0.424056 -0.784303
vn 0.640381 0.424057 -0.640381
vn 0.784303 0.424056 -0.452820
vn 0.874778 0.424055 -0.234396
vn 0.622956 0.777945 0.082013
vn 0.580503 0.777946 0.240451
vn 0.498489 0.777946 0.382503
vn 0.382503 0.777946 0.498489
vn 0.240451 0.777946 0.580503
vn 0.082013 0.777945 0.622956
vn -0.082013 0.777945 0.622956
vn -0.240451 0.777946 0.580503
vn -0.382503 0.777946 0.498489
vn -0.498489 0.777946 0.382503
vn -0.580503 0.777946 0.240451
vn -0.622956 0.777945 0.082013
vn -0.622956 0.777945 -0.082013
vn -0.580503 0.777946 -0.240451
vn -0.498489 0.777946 -0.382503
vn -0.382503 0.777946 -0.498489
vn -0.240451 0.777946 -0.580503
vn -0.082013 0.777945 -0.622956
vn 0.082013 0.777945 -0.622956
vn 0.240451 0.777946 -0.580503
vn 0.382503 0.777946 -0.498489
vn 0.498489 0.777946 -0.382503
vn 0.580503 0.777946 -0.240451
vn 0.622956 0.777945 -0.082013
f 5/1/1 3/2/1 1/3/1
f 3/4/2 5/5/3 6/6/3 4/7/2
f 4/8/4 6/9/4 2/10/4
f 7/11/1 5/12/1 1/13/1
f 5/14/3 7/15/5 8/16/5 6/17/3
f 6/18/4 8/19/4 2/20/4
f 9/21/1 7/22/1 1/23/1
f 7/24/5 9/25/6 10/26/6 8/27/5
f 8/28/4 10/29/4 2/30/4
f 11/31/1 9/32/1 1/33/1
f 9/34/6 11/35/7 12/36/7 10/37/6
f 10/38/4 12/39/4 2/40/4
f 13/41/1 11/42/1 1/43/1
f 11/44/7 13/45/8 14/46/8 12/47/7
f 12/48/4 14/49/4 2/50/4
f 15/51/1 13/52/1 1/53/1
f 13/54/8 15/55/9 16/56/9 14/57/8
f 14/58/4 16/59/4 2/60/4
f 17/61/1 15/62/1 1/63/1
f 15/64/9 17/65/10 18/66/10 16/67/9
f 16/68/4 18/69/4 2/70/4
f 19/71/1 17/72/1 1/73/1
f 17/74/10 19/75/11 20/76/11 18/77/10
f 18/78/4 20/79/4 2/80/4
f 21/81/1 19/82/1 1/83/1
f 19/84/11 21/85/12 22/86/12 20/87/11
f 20/88/4 22/89/4 2/90/4
f 23/91/1 21/92/1 1/93/1
f 21/94/12 23/95/13 24/96/13 22/97/12
f 22/98/4 24/99/4 2/100/4
f 25/101/1 23/102/1 1/103/1
f 23/104/13 25/105/14 26/106/14 24/107/13
f 24/108/4 26/109/4 2/110/4
f 3/111/1 25/112/1 1/113/1
f 25/114/14 3/115/2 4/116/2 26/117/14
f 26/118/4 4/119/4 2/120/4
o cylinder
v -0.250000 0.000000 0.250000
v -0.250000 0.500000 0.250000
v -0.199759 0.000000 0.437500
v -0.199759 0.500000 0.437500
v -0.112741 0.000000 0.387259
v -0.112741 0.500000 0.387259
v -0.062500 0.000000 0.300241
v -0.062500 0.500000 0.300241
v -0.062500 0.000000 0.199759
v -0.062500 0.500000 0.199759
v -0.112741 0.000000 0.112741
v -0.112741 0.500000 0.112741
v -0.199759 0.000000 0.062500
v -0.199759 0.500000 0.062500
v -0.300241 0.000000 0.062500
v -0.300241 0.500000 0.062500
v -0.387259 0.000000 0.112741
v -0.387259 0.500000 0.112741
v -0.437500 0.000000 0.199759
v -0.437500 0.500000 0.199759
v -0.437500 0.000000 0.300241
v -0.437500 0.500000 0.300241
v -0.387259 0.000000 0.387259
v -0.387259 0.500000 0.387259
v -0.300241 0.000000 0.437500
v -0.300241 0.500000 0.437500
vt 0.32498515625 0.87967265625
vt 0.31954609375 0.8828125
vt 0.31640625 0.87109375
vt 0.31368671875 0.96875
vt 0.31996640625 0.96875
vt 0.31996640625 1
vt 0.31368671875 1
vt 0.31954609375 0.83203125
vt 0.32498515625 0.83517109375
vt 0.31640625 0.84375
vt 0.328125 0.87423359375
vt 0.32498515625 0.87967265625
vt 0.31640625 0.87109375
vt 0.28550234375 0.703125
vt 0.29178203125 0.703125
vt 0.29178203125 0.734375
vt 0.28550234375 0.734375
vt 0.32498515625 0.83517109375
vt 0.328125 0.84061015625
vt 0.31640625 0.84375
vt 0.328125 0.86795390625
vt 0.328125 0.87423359375
vt 0.31640625 0.87109375
vt 0.29178203125 0.703125
vt 0.29806171875 0.703125
vt 0.29806171875 0.734375
vt 0.29178203125 0.734375
vt 0.328125 0.84061015625
vt 0.328125 0.84688984375
vt 0.31640625 0.84375
vt 0.32498515625 0.86251484375
vt 0.328125 0.86795390625
vt 0.31640625 0.87109375
vt 0.29806171875 0.703125
vt 0.30434140625 0.703125
vt 0.30434140625 0.734375
vt 0.29806171875 0.734375
vt 0.328125 0.84688984375
vt 0.32498515625 0.85232890625
vt 0.31640625 0.84375
vt 0.31954609375 0.859375
vt 0.32498515625 0.86251484375
vt 0.31640625 0.87109375
vt 0.15659609375 0.66796875
vt 0.16287578125 0.66796875
vt 0.16287578125 0.69921875
vt 0.15659609375 0.69921875
vt 0.32498515625 0.85232890625
vt 0.31954609375 0.85546875
vt 0.31640625 0.84375
vt 0.31326640625 0.859375
vt 0.31954609375 0.859375
vt 0.31640625 0.87109375
vt 0.16287578125 0.66796875
vt 0.16915546875 0.66796875
vt 0.16915546875 0.69921875
vt 0.16287578125 0.69921875
vt 0.31954609375 0.85546875
vt 0.31326640625 0.85546875
vt 0.31640625 0.84375
vt 0.30782734375 0.86251484375
vt 0.31326640625 0.859375
vt 0.31640625 0.87109375
vt 0.16915546875 0.66796875
vt 0.17543515625 0.66796875
vt 0.17543515625 0.69921875
vt 0.16915546875 0.69921875
vt 0.31326640625 0.85546875
vt 0.30782734375 0.85232890625
vt 0.31640625 0.84375
vt 0.3046875 0.86795390625
vt 0.30782734375 0.86251484375
vt 0.31640625 0.87109375
vt 0.04722109375 0.66796875
vt 0.05350078125 0.66796875
vt 0.05350078125 0.69921875
vt 0.04722109375 0.69921875
vt 0.30782734375 0.85232890625
vt 0.3046875 0.84688984375
vt 0.31640625 0.84375
vt 0.3046875 0.87423359375
vt 0.3046875 0.86795390625
vt 0.31640625 0.87109375
vt 0.05350078125 0.66796875
vt 0.05978046875 0.66796875
vt 0.05978046875 0.69921875
vt 0.05350078125 0.69921875
vt 0.3046875 0.84688984375
vt 0.3046875 0.84061015625
vt 0.31640625 0.84375
vt 0.30782734375 0.87967265625
vt 0.3046875 0.87423359375
vt 0.31640625 0.87109375
vt 0.05978046875 0.66796875
vt 0.06606015625 0.66796875
vt 0.06606015625 0.69921875
vt 0.05978046875 0.69921875
vt 0.3046875 0.84061015625
vt 0.30782734375 0.83517109375
vt 0.31640625 0.84375
vt 0.31326640625 0.8828125
vt 0.30782734375 0.87967265625
vt 0.31640625 0.87109375
vt 0.30112734375 0.96875
vt 0.30740703125 0.96875
vt 0.30740703125 1
vt 0.30112734375 1
vt 0.30782734375 0.83517109375
vt 0.31326640625 0.83203125
vt 0.31640625 0.84375
vt 0.31954609375 0.8828125
vt 0.31326640625 0.8828125
vt 0.31640625 0.87109375
vt 0.30740703125 0.96875
vt 0.31368671875 0.96875
vt 0.31368671875 1
vt 0.30740703125 1
vt 0.31326640625 0.83203125
vt 0.31954609375 0.83203125
vt 0.31640625 0.84375
usemtl missile_texture
f 31/121/1 29/122/1 27/123/1
f 29/124/2 31/125/3 32/126/3 30/127/2
f 30/128/4 32/129/4 28/130/4
f 33/131/1 31/132/1 27/133/1
f 31/134/3 33/135/5 34/136/5 32/137/3
f 32/138/4 34/139/4 28/140/4
f 35/141/1 33/142/1 27/143/1
f 33/144/5 35/145/6 36/146/6 34/147/5
f 34/148/4 36/149/4 28/150/4
f 37/151/1 35/152/1 27/153/1
f 35/154/6 37/155/7 38/156/7 36/157/6
f 36/158/4 38/159/4 28/160/4
f 39/161/1 37/162/1 27/163/1
f 37/164/7 39/165/8 40/166/8 38/167/7
f 38/168/4 40/169/4 28/170/4
f 41/171/1 39/172/1 27/173/1
f 39/174/8 41/175/9 42/176/9 40/177/8
f 40/178/4 42/179/4 28/180/4
f 43/181/1 41/182/1 27/183/1
f 41/184/9 43/185/10 44/186/10 42/187/9
f 42/188/4 44/189/4 28/190/4
f 45/191/1 43/192/1 27/193/1
f 43/194/10 45/195/11 46/196/11 44/197/10
f 44/198/4 46/199/4 28/200/4
f 47/201/1 45/202/1 27/203/1
f 45/204/11 47/205/12 48/206/12 46/207/11
f 46/208/4 48/209/4 28/210/4
f 49/211/1 47/212/1 27/213/1
f 47/214/12 49/215/13 50/216/13 48/217/12
f 48/218/4 50/219/4 28/220/4
f 51/221/1 49/222/1 27/223/1
f 49/224/13 51/225/14 52/226/14 50/227/13
f 50/228/4 52/229/4 28/230/4
f 29/231/1 51/232/1 27/233/1
f 51/234/14 29/235/2 30/236/2 52/237/14
f 52/238/4 30/239/4 28/240/4
o cylinder
v 0.250000 0.000000 -0.250000
v 0.250000 0.500000 -0.250000
v 0.300241 0.000000 -0.062500
v 0.300241 0.500000 -0.062500
v 0.387259 0.000000 -0.112741
v 0.387259 0.500000 -0.112741
v 0.437500 0.000000 -0.199759
v 0.437500 0.500000 -0.199759
v 0.437500 0.000000 -0.300241
v 0.437500 0.500000 -0.300241
v 0.387259 0.000000 -0.387259
v 0.387259 0.500000 -0.387259
v 0.300241 0.000000 -0.437500
v 0.300241 0.500000 -0.437500
v 0.199759 0.000000 -0.437500
v 0.199759 0.500000 -0.437500
v 0.112741 0.000000 -0.387259
v 0.112741 0.500000 -0.387259
v 0.062500 0.000000 -0.300241
v 0.062500 0.500000 -0.300241
v 0.062500 0.000000 -0.199759
v 0.062500 0.500000 -0.199759
v 0.112741 0.000000 -0.112741
v 0.112741 0.500000 -0.112741
v 0.199759 0.000000 -0.062500
v 0.199759 0.500000 -0.062500
vt 0.32498515625 0.93436015625
vt 0.31954609375 0.9375
vt 0.31640625 0.92578125
vt 0.24728046875 0.9296875
vt 0.253560546875 0.9296875
vt 0.253560546875 0.9609375
vt 0.24728046875 0.9609375
vt 0.31954609375 0.88671875
vt 0.32498515625 0.88985859375
vt 0.31640625 0.8984375
vt 0.328125 0.92892109375
vt 0.32498515625 0.93436015625
vt 0.31640625 0.92578125
vt 0.28159609375 0.93359375
vt 0.28787578125 0.93359375
vt 0.28787578125 0.96484375
vt 0.28159609375 0.96484375
vt 0.32498515625 0.88985859375
vt 0.328125 0.89529765625
vt 0.31640625 0.8984375
vt 0.328125 0.92264140625
vt 0.328125 0.92892109375
vt 0.31640625 0.92578125
vt 0.28787578125 0.93359375
vt 0.29415546875 0.93359375
vt 0.29415546875 0.96484375
vt 0.28787578125 0.96484375
vt 0.328125 0.89529765625
vt 0.328125 0.90157734375
vt 0.31640625 0.8984375
vt 0.32498515625 0.91720234375
vt 0.328125 0.92264140625
vt 0.31640625 0.92578125
vt 0.29415546875 0.93359375
vt 0.30043515625 0.93359375
vt 0.30043515625 0.96484375
vt 0.29415546875 0.96484375
vt 0.328125 0.90157734375
vt 0.32498515625 0.90701640625
vt 0.31640625 0.8984375
vt 0.31954609375 0.9140625
vt 0.32498515625 0.91720234375
vt 0.31640625 0.92578125
vt 0.258158203125 0.9296875
vt 0.26443828125 0.9296875
vt 0.26443828125 0.9609375
vt 0.258158203125 0.9609375
vt 0.32498515625 0.90701640625
vt 0.31954609375 0.91015625
vt 0.31640625 0.8984375
vt 0.31326640625 0.9140625
vt 0.31954609375 0.9140625
vt 0.31640625 0.92578125
vt 0.26443828125 0.9296875
vt 0.27071796875 0.9296875
vt 0.27071796875 0.9609375
vt 0.26443828125 0.9609375
vt 0.31954609375 0.91015625
vt 0.31326640625 0.91015625
vt 0.31640625 0.8984375
vt 0.30782734375 0.91720234375
vt 0.31326640625 0.9140625
vt 0.31640625 0.92578125
vt 0.27071796875 0.9296875
vt 0.276998046875 0.9296875
vt 0.276998046875 0.9609375
vt 0.27071796875 0.9609375
vt 0.31326640625 0.91015625
vt 0.30782734375 0.90701640625
vt 0.31640625 0.8984375
vt 0.3046875 0.92264140625
vt 0.30782734375 0.91720234375
vt 0.31640625 0.92578125
vt 0.28159609375 0.8203125
vt 0.28787578125 0.8203125
vt 0.28787578125 0.8515625
vt 0.28159609375 0.8515625
vt 0.30782734375 0.90701640625
vt 0.3046875 0.90157734375
vt 0.31640625 0.8984375
vt 0.3046875 0.92892109375
vt 0.3046875 0.92264140625
vt 0.31640625 0.92578125
vt 0.28787578125 0.8203125
vt 0.29415546875 0.8203125
vt 0.29415546875 0.8515625
vt 0.28787578125 0.8515625
vt 0.3046875 0.90157734375
vt 0.3046875 0.89529765625
vt 0.31640625 0.8984375
vt 0.30782734375 0.93436015625
vt 0.3046875 0.92892109375
vt 0.31640625 0.92578125
vt 0.29415546875 0.8203125
vt 0.30043515625 0.8203125
vt 0.30043515625 0.8515625
vt 0.29415546875 0.8515625
vt 0.3046875 0.89529765625
vt 0.30782734375 0.88985859375
vt 0.31640625 0.8984375
vt 0.31326640625 0.9375
vt 0.30782734375 0.93436015625
vt 0.31640625 0.92578125
vt 0.234720703125 0.9296875
vt 0.24100078125 0.9296875
vt 0.24100078125 0.9609375
vt 0.234720703125 0.9609375
vt 0.30782734375 0.88985859375
vt 0.31326640625 0.88671875
vt 0.31640625 0.8984375
vt 0.31954609375 0.9375
vt 0.31326640625 0.9375
vt 0.31640625 0.92578125
vt 0.24100078125 0.9296875
vt 0.24728046875 0.9296875
vt 0.24728046875 0.9609375
vt 0.24100078125 0.9609375
vt 0.31326640625 0.88671875
vt 0.31954609375 0.88671875
vt 0.31640625 0.8984375
usemtl missile_texture
f 57/241/1 55/242/1 53/243/1
f 55/244/2 57/245/3 58/246/3 56/247/2
f 56/248/4 58/249/4 54/250/4
f 59/251/1 57/252/1 53/253/1
f 57/254/3 59/255/5 60/256/5 58/257/3
f 58/258/4 60/259/4 54/260/4
f 61/261/1 59/262/1 53/263/1
f 59/264/5 61/265/6 62/266/6 60/267/5
f 60/268/4 62/269/4 54/270/4
f 63/271/1 61/272/1 53/273/1
f 61/274/6 63/275/7 64/276/7 62/277/6
f 62/278/4 64/279/4 54/280/4
f 65/281/1 63/282/1 53/283/1
f 63/284/7 65/285/8 66/286/8 64/287/7
f 64/288/4 66/289/4 54/290/4
f 67/291/1 65/292/1 53/293/1
f 65/294/8 67/295/9 68/296/9 66/297/8
f 66/298/4 68/299/4 54/300/4
f 69/301/1 67/302/1 53/303/1
f 67/304/9 69/305/10 70/306/10 68/307/9
f 68/308/4 70/309/4 54/310/4
f 71/311/1 69/312/1 53/313/1
f 69/314/10 71/315/11 72/316/11 70/317/10
f 70/318/4 72/319/4 54/320/4
f 73/321/1 71/322/1 53/323/1
f 71/324/11 73/325/12 74/326/12 72/327/11
f 72/328/4 74/329/4 54/330/4
f 75/331/1 73/332/1 53/333/1
f 73/334/12 75/335/13 76/336/13 74/337/12
f 74/338/4 76/339/4 54/340/4
f 77/341/1 75/342/1 53/343/1
f 75/344/13 77/345/14 78/346/14 76/347/13
f 76/348/4 78/349/4 54/350/4
f 55/351/1 77/352/1 53/353/1
f 77/354/14 55/355/2 56/356/2 78/357/14
f 78/358/4 56/359/4 54/360/4
o cylinder
v 0.250000 0.000000 0.250000
v 0.250000 0.500000 0.250000
v 0.300241 0.000000 0.437500
v 0.300241 0.500000 0.437500
v 0.387259 0.000000 0.387259
v 0.387259 0.500000 0.387259
v 0.437500 0.000000 0.300241
v 0.437500 0.500000 0.300241
v 0.437500 0.000000 0.199759
v 0.437500 0.500000 0.199759
v 0.387259 0.000000 0.112741
v 0.387259 0.500000 0.112741
v 0.300241 0.000000 0.062500
v 0.300241 0.500000 0.062500
v 0.199759 0.000000 0.062500
v 0.199759 0.500000 0.062500
v 0.112741 0.000000 0.112741
v 0.112741 0.500000 0.112741
v 0.062500 0.000000 0.199759
v 0.062500 0.500000 0.199759
v 0.062500 0.000000 0.300241
v 0.062500 0.500000 0.300241
v 0.112741 0.000000 0.387259
v 0.112741 0.500000 0.387259
v 0.199759 0.000000 0.437500
v 0.199759 0.500000 0.437500
vt 0.30936015625 0.69607890625
vt 0.30392109375 0.69921875
vt 0.30078125 0.6875
vt 0.05978046875 0.73828125
vt 0.066060546875 0.73828125
vt 0.066060546875 0.76953125
vt 0.05978046875 0.76953125
vt 0.31954609375 0.94140625
vt 0.32498515625 0.94454609375
vt 0.31640625 0.953125
vt 0.3125 0.69063984375
vt 0.30936015625 0.69607890625
vt 0.30078125 0.6875
vt 0.26206484375 0.703125
vt 0.26834453125 0.703125
vt 0.26834453125 0.734375
vt 0.26206484375 0.734375
vt 0.32498515625 0.94454609375
vt 0.328125 0.94998515625
vt 0.31640625 0.953125
vt 0.3125 0.68436015625
vt 0.3125 0.69063984375
vt 0.30078125 0.6875
vt 0.26834453125 0.703125
vt 0.27462421875 0.703125
vt 0.27462421875 0.734375
vt 0.26834453125 0.734375
vt 0.328125 0.94998515625
vt 0.328125 0.95626484375
vt 0.31640625 0.953125
vt 0.30936015625 0.67892109375
vt 0.3125 0.68436015625
vt 0.30078125 0.6875
vt 0.27462421875 0.703125
vt 0.28090390625 0.703125
vt 0.28090390625 0.734375
vt 0.27462421875 0.734375
vt 0.328125 0.95626484375
vt 0.32498515625 0.96170390625
vt 0.31640625 0.953125
vt 0.30392109375 0.67578125
vt 0.30936015625 0.67892109375
vt 0.30078125 0.6875
vt 0.156595703125 0.73828125
vt 0.16287578125 0.73828125
vt 0.16287578125 0.76953125
vt 0.156595703125 0.76953125
vt 0.32498515625 0.96170390625
vt 0.31954609375 0.96484375
vt 0.31640625 0.953125
vt 0.29764140625 0.67578125
vt 0.30392109375 0.67578125
vt 0.30078125 0.6875
vt 0.16287578125 0.73828125
vt 0.16915546875 0.73828125
vt 0.16915546875 0.76953125
vt 0.16287578125 0.76953125
vt 0.31954609375 0.96484375
vt 0.31326640625 0.96484375
vt 0.31640625 0.953125
vt 0.29220234375 0.67892109375
vt 0.29764140625 0.67578125
vt 0.30078125 0.6875
vt 0.16915546875 0.73828125
vt 0.175435546875 0.73828125
vt 0.175435546875 0.76953125
vt 0.16915546875 0.76953125
vt 0.31326640625 0.96484375
vt 0.30782734375 0.96170390625
vt 0.31640625 0.953125
vt 0.2890625 0.68436015625
vt 0.29220234375 0.67892109375
vt 0.30078125 0.6875
vt 0.27768984375 0.96875
vt 0.28396953125 0.96875
vt 0.28396953125 1
vt 0.27768984375 1
vt 0.30782734375 0.96170390625
vt 0.3046875 0.95626484375
vt 0.31640625 0.953125
vt 0.2890625 0.69063984375
vt 0.2890625 0.68436015625
vt 0.30078125 0.6875
vt 0.28396953125 0.96875
vt 0.29024921875 0.96875
vt 0.29024921875 1
vt 0.28396953125 1
vt 0.3046875 0.95626484375
vt 0.3046875 0.94998515625
vt 0.31640625 0.953125
vt 0.29220234375 0.69607890625
vt 0.2890625 0.69063984375
vt 0.30078125 0.6875
vt 0.29024921875 0.96875
vt 0.29652890625 0.96875
vt 0.29652890625 1
vt 0.29024921875 1
vt 0.3046875 0.94998515625
vt 0.30782734375 0.94454609375
vt 0.31640625 0.953125
vt 0.29764140625 0.69921875
vt 0.29220234375 0.69607890625
vt 0.30078125 0.6875
vt 0.047220703125 0.73828125
vt 0.05350078125 0.73828125
vt 0.05350078125 0.76953125
vt 0.047220703125 0.76953125
vt 0.30782734375 0.94454609375
vt 0.31326640625 0.94140625
vt 0.31640625 0.953125
vt 0.30392109375 0.69921875
vt 0.29764140625 0.69921875
vt 0.30078125 0.6875
vt 0.05350078125 0.73828125
vt 0.05978046875 0.73828125
vt 0.05978046875 0.76953125
vt 0.05350078125 0.76953125
vt 0.31326640625 0.94140625
vt 0.31954609375 0.94140625
vt 0.31640625 0.953125
usemtl missile_texture
f 83/361/1 81/362/1 79/363/1
f 81/364/2 83/365/3 84/366/3 82/367/2
f 82/368/4 84/369/4 80/370/4
f 85/371/1 83/372/1 79/373/1
f 83/374/3 85/375/5 86/376/5 84/377/3
f 84/378/4 86/379/4 80/380/4
f 87/381/1 85/382/1 79/383/1
f 85/384/5 87/385/6 88/386/6 86/387/5
f 86/388/4 88/389/4 80/390/4
f 89/391/1 87/392/1 79/393/1
f 87/394/6 89/395/7 90/396/7 88/397/6
f 88/398/4 90/399/4 80/400/4
f 91/401/1 89/402/1 79/403/1
f 89/404/7 91/405/8 92/406/8 90/407/7
f 90/408/4 92/409/4 80/410/4
f 93/411/1 91/412/1 79/413/1
f 91/414/8 93/415/9 94/416/9 92/417/8
f 92/418/4 94/419/4 80/420/4
f 95/421/1 93/422/1 79/423/1
f 93/424/9 95/425/10 96/426/10 94/427/9
f 94/428/4 96/429/4 80/430/4
f 97/431/1 95/432/1 79/433/1
f 95/434/10 97/435/11 98/436/11 96/437/10
f 96/438/4 98/439/4 80/440/4
f 99/441/1 97/442/1 79/443/1
f 97/444/11 99/445/12 100/446/12 98/447/11
f 98/448/4 100/449/4 80/450/4
f 101/451/1 99/452/1 79/453/1
f 99/454/12 101/455/13 102/456/13 100/457/12
f 100/458/4 102/459/4 80/460/4
f 103/461/1 101/462/1 79/463/1
f 101/464/13 103/465/14 104/466/14 102/467/13
f 102/468/4 104/469/4 80/470/4
f 81/471/1 103/472/1 79/473/1
f 103/474/14 81/475/2 82/476/2 104/477/14
f 104/478/4 82/479/4 80/480/4
o Minuteman_II_Body
v 0.562500 0.500000 0.000000
v 0.543333 0.500000 0.145586
v 0.487139 0.500000 0.281250
v 0.397747 0.500000 0.397747
v 0.281250 0.500000 0.487139
v 0.145586 0.500000 0.543333
v 0.000000 0.500000 0.562500
v -0.145586 0.500000 0.543333
v -0.281250 0.500000 0.487139
v -0.397747 0.500000 0.397747
v -0.487139 0.500000 0.281250
v -0.543333 0.500000 0.145586
v -0.562500 0.500000 0.000000
v -0.543333 0.500000 -0.145586
v -0.487139 0.500000 -0.281250
v -0.397747 0.500000 -0.397747
v -0.281250 0.500000 -0.487139
v -0.145586 0.500000 -0.543333
v 0.000000 0.500000 -0.562500
v 0.145586 0.500000 -0.543333
v 0.281250 0.500000 -0.487139
v 0.397747 0.500000 -0.397747
v 0.487139 0.500000 -0.281250
v 0.543333 0.500000 -0.145586
v 0.562500 5.812500 0.000000
v 0.543333 5.812500 0.145586
v 0.487139 5.812500 0.281250
v 0.397747 5.812500 0.397747
v 0.281250 5.812500 0.487139
v 0.145586 5.812500 0.543333
v 0.000000 5.812500 0.562500
v -0.145586 5.812500 0.543333
v -0.281250 5.812500 0.487139
v -0.397747 5.812500 0.397747
v -0.487139 5.812500 0.281250
v -0.543333 5.812500 0.145586
v -0.562500 5.812500 0.000000
v -0.543333 5.812500 -0.145586
v -0.487139 5.812500 -0.281250
v -0.397747 5.812500 -0.397747
v -0.281250 5.812500 -0.487139
v -0.145586 5.812500 -0.543333
v 0.000000 5.812500 -0.562500
v 0.145586 5.812500 -0.543333
v 0.281250 5.812500 -0.487139
v 0.397747 5.812500 -0.397747
v 0.487139 5.812500 -0.281250
v 0.543333 5.812500 -0.145586
v 0.437500 6.312500 0.000000
v 0.422592 6.312500 0.113233
v 0.378886 6.312500 0.218750
v 0.309359 6.312500 0.309359
v 0.218750 6.312500 0.378886
v 0.113233 6.312500 0.422592
v 0.000000 6.312500 0.437500
v -0.113233 6.312500 0.422592
v -0.218750 6.312500 0.378886
v -0.309359 6.312500 0.309359
v -0.378886 6.312500 0.218750
v -0.422592 6.312500 0.113233
v -0.437500 6.312500 0.000000
v -0.422592 6.312500 -0.113233
v -0.378886 6.312500 -0.218750
v -0.309359 6.312500 -0.309359
v -0.218750 6.312500 -0.378886
v -0.113233 6.312500 -0.422592
v 0.000000 6.312500 -0.437500
v 0.113233 6.312500 -0.422592
v 0.218750 6.312500 -0.378886
v 0.309359 6.312500 -0.309359
v 0.378886 6.312500 -0.218750
v 0.422592 6.312500 -0.113233
v 0.437500 8.812500 0.000000
v 0.422592 8.812500 0.113233
v 0.378886 8.812500 0.218750
v 0.309359 8.812500 0.309359
v 0.218750 8.812500 0.378886
v 0.113233 8.812500 0.422592
v 0.000000 8.812500 0.437500
v -0.113233 8.812500 0.422592
v -0.218750 8.812500 0.378886
v -0.309359 8.812500 0.309359
v -0.378886 8.812500 0.218750
v -0.422592 8.812500 0.113233
v -0.437500 8.812500 0.000000
v -0.422592 8.812500 -0.113233
v -0.378886 8.812500 -0.218750
v -0.309359 8.812500 -0.309359
v -0.218750 8.812500 -0.378886
v -0.113233 8.812500 -0.422592
v 0.000000 8.812500 -0.437500
v 0.113233 8.812500 -0.422592
v 0.218750 8.812500 -0.378886
v 0.309359 8.812500 -0.309359
v 0.378886 8.812500 -0.218750
v 0.422592 8.812500 -0.113233
v 0.325000 9.250000 0.000000
v 0.313926 9.250000 0.084116
v 0.281458 9.250000 0.162500
v 0.229810 9.250000 0.229810
v 0.162500 9.250000 0.281458
v 0.084116 9.250000 0.313926
v 0.000000 9.250000 0.325000
v -0.084116 9.250000 0.313926
v -0.162500 9.250000 0.281458
v -0.229810 9.250000 0.229810
v -0.281458 9.250000 0.162500
v -0.313926 9.250000 0.084116
v -0.325000 9.250000 0.000000
v -0.313926 9.250000 -0.084116
v -0.281458 9.250000 -0.162500
v -0.229810 9.250000 -0.229810
v -0.162500 9.250000 -0.281458
v -0.084116 9.250000 -0.313926
v 0.000000 9.250000 -0.325000
v 0.084116 9.250000 -0.313926
v 0.162500 9.250000 -0.281458
v 0.229810 9.250000 -0.229810
v 0.281458 9.250000 -0.162500
v 0.313926 9.250000 -0.084116
v 0.325000 10.500000 0.000000
v 0.313926 10.500000 0.084116
v 0.281458 10.500000 0.162500
v 0.229810 10.500000 0.229810
v 0.162500 10.500000 0.281458
v 0.084116 10.500000 0.313926
v 0.000000 10.500000 0.325000
v -0.084116 10.500000 0.313926
v -0.162500 10.500000 0.281458
v -0.229810 10.500000 0.229810
v -0.281458 10.500000 0.162500
v -0.313926 10.500000 0.084116
v -0.325000 10.500000 0.000000
v -0.313926 10.500000 -0.084116
v -0.281458 10.500000 -0.162500
v -0.229810 10.500000 -0.229810
v -0.162500 10.500000 -0.281458
v -0.084116 10.500000 -0.313926
v 0.000000 10.500000 -0.325000
v 0.084116 10.500000 -0.313926
v 0.162500 10.500000 -0.281458
v 0.229810 10.500000 -0.229810
v 0.281458 10.500000 -0.162500
v 0.313926 10.500000 -0.084116
v 0.320454 10.708333 0.000000
v 0.309535 10.708333 0.082939
v 0.277522 10.708333 0.160227
v 0.226596 10.708333 0.226596
v 0.160227 10.708333 0.277522
v 0.082939 10.708333 0.309535
v 0.000000 10.708333 0.320454
v -0.082939 10.708333 0.309535
v -0.160227 10.708333 0.277522
v -0.226596 10.708333 0.226596
v -0.277522 10.708333 0.160227
v -0.309535 10.708333 0.082939
v -0.320454 10.708333 0.000000
v -0.309535 10.708333 -0.082939
v -0.277522 10.708333 -0.160227
v -0.226596 10.708333 -0.226596
v -0.160227 10.708333 -0.277522
v -0.082939 10.708333 -0.309535
v 0.000000 10.708333 -0.320454
v 0.082939 10.708333 -0.309535
v 0.160227 10.708333 -0.277522
v 0.226596 10.708333 -0.226596
v 0.277522 10.708333 -0.160227
v 0.309535 10.708333 -0.082939
v 0.306413 10.916667 0.000000
v 0.295972 10.916667 0.079306
v 0.265361 10.916667 0.153206
v 0.216667 10.916667 0.216667
v 0.153206 10.916667 0.265361
v 0.079306 10.916667 0.295972
v 0.000000 10.916667 0.306413
v -0.079306 10.916667 0.295972
v -0.153206 10.916667 0.265361
v -0.216667 10.916667 0.216667
v -0.265361 10.916667 0.153206
v -0.295972 10.916667 0.079306
v -0.306413 10.916667 0.000000
v -0.295972 10.916667 -0.079306
v -0.265361 10.916667 -0.153206
v -0.216667 10.916667 -0.216667
v -0.153206 10.916667 -0.265361
v -0.079306 10.916667 -0.295972
v 0.000000 10.916667 -0.306413
v 0.079306 10.916667 -0.295972
v 0.153206 10.916667 -0.265361
v 0.216667 10.916667 -0.216667
v 0.265361 10.916667 -0.153206
v 0.295972 10.916667 -0.079306
v 0.281458 11.125000 0.000000
v 0.271867 11.125000 0.072847
v 0.243750 11.125000 0.140729
v 0.199021 11.125000 0.199021
v 0.140729 11.125000 0.243750
v 0.072847 11.125000 0.271867
v 0.000000 11.125000 0.281458
v -0.072847 11.125000 0.271867
v -0.140729 11.125000 0.243750
v -0.199021 11.125000 0.199021
v -0.243750 11.125000 0.140729
v -0.271867 11.125000 0.072847
v -0.281458 11.125000 0.000000
v -0.271867 11.125000 -0.072847
v -0.243750 11.125000 -0.140729
v -0.199021 11.125000 -0.199021
v -0.140729 11.125000 -0.243750
v -0.072847 11.125000 -0.271867
v 0.000000 11.125000 -0.281458
v 0.072847 11.125000 -0.271867
v 0.140729 11.125000 -0.243750
v 0.199021 11.125000 -0.199021
v 0.243750 11.125000 -0.140729
v 0.271867 11.125000 -0.072847
v 0.242241 11.333333 0.000000
v 0.233986 11.333333 0.062696
v 0.209787 11.333333 0.121121
v 0.171290 11.333333 0.171290
v 0.121121 11.333333 0.209787
v 0.062696 11.333333 0.233986
v 0.000000 11.333333 0.242241
v -0.062696 11.333333 0.233986
v -0.121121 11.333333 0.209787
v -0.171290 11.333333 0.171290
v -0.209787 11.333333 0.121121
v -0.233986 11.333333 0.062696
v -0.242241 11.333333 0.000000
v -0.233986 11.333333 -0.062696
v -0.209787 11.333333 -0.121121
v -0.171290 11.333333 -0.171290
v -0.121121 11.333333 -0.209787
v -0.062696 11.333333 -0.233986
v 0.000000 11.333333 -0.242241
v 0.062696 11.333333 -0.233986
v 0.121121 11.333333 -0.209787
v 0.171290 11.333333 -0.171290
v 0.209787 11.333333 -0.121121
v 0.233986 11.333333 -0.062696
v 0.179651 11.541667 0.000000
v 0.173529 11.541667 0.046497
v 0.155582 11.541667 0.089825
v 0.127032 11.541667 0.127032
v 0.089825 11.541667 0.155582
v 0.046497 11.541667 0.173529
v 0.000000 11.541667 0.179651
v -0.046497 11.541667 0.173529
v -0.089825 11.541667 0.155582
v -0.127032 11.541667 0.127032
v -0.155582 11.541667 0.089825
v -0.173529 11.541667 0.046497
v -0.179651 11.541667 0.000000
v -0.173529 11.541667 -0.046497
v -0.155582 11.541667 -0.089825
v -0.127032 11.541667 -0.127032
v -0.089825 11.541667 -0.155582
v -0.046497 11.541667 -0.173529
v 0.000000 11.541667 -0.179651
v 0.046497 11.541667 -0.173529
v 0.089825 11.541667 -0.155582
v 0.127032 11.541667 -0.127032
v 0.155582 11.541667 -0.089825
v 0.173529 11.541667 -0.046497
v 0.000000 0.500000 0.000000
v 0.000000 11.750000 0.000000
vt 0.265625 0.890625
vt 0.30078125 0.890625
vt 0.299583203125 0.89972421875
vt 0.265625 0.890625
vt 0.299583203125 0.89972421875
vt 0.29607109375 0.908203125
vt 0.265625 0.890625
vt 0.29607109375 0.908203125
vt 0.290484375 0.915484375
vt 0.265625 0.890625
vt 0.290484375 0.915484375
vt 0.283203125 0.92107109375
vt 0.265625 0.890625
vt 0.283203125 0.92107109375
vt 0.27472421875 0.924583203125
vt 0.265625 0.890625
vt 0.27472421875 0.924583203125
vt 0.265625 0.92578125
vt 0.265625 0.890625
vt 0.265625 0.92578125
vt 0.25652578125 0.924583203125
vt 0.265625 0.890625
vt 0.25652578125 0.924583203125
vt 0.248046875 0.92107109375
vt 0.265625 0.890625
vt 0.248046875 0.92107109375
vt 0.240765625 0.915484375
vt 0.265625 0.890625
vt 0.240765625 0.915484375
vt 0.23517890625 0.908203125
vt 0.265625 0.890625
vt 0.23517890625 0.908203125
vt 0.231666796875 0.89972421875
vt 0.265625 0.890625
vt 0.231666796875 0.89972421875
vt 0.23046875 0.890625
vt 0.265625 0.890625
vt 0.23046875 0.890625
vt 0.231666796875 0.88152578125
vt 0.265625 0.890625
vt 0.231666796875 0.88152578125
vt 0.23517890625 0.873046875
vt 0.265625 0.890625
vt 0.23517890625 0.873046875
vt 0.240765625 0.865765625
vt 0.265625 0.890625
vt 0.240765625 0.865765625
vt 0.248046875 0.86017890625
vt 0.265625 0.890625
vt 0.248046875 0.86017890625
vt 0.25652578125 0.856666796875
vt 0.265625 0.890625
vt 0.25652578125 0.856666796875
vt 0.265625 0.85546875
vt 0.265625 0.890625
vt 0.265625 0.85546875
vt 0.27472421875 0.856666796875
vt 0.265625 0.890625
vt 0.27472421875 0.856666796875
vt 0.283203125 0.86017890625
vt 0.265625 0.890625
vt 0.283203125 0.86017890625
vt 0.290484375 0.865765625
vt 0.265625 0.890625
vt 0.290484375 0.865765625
vt 0.29607109375 0.873046875
vt 0.265625 0.890625
vt 0.29607109375 0.873046875
vt 0.299583203125 0.88152578125
vt 0.265625 0.890625
vt 0.299583203125 0.88152578125
vt 0.30078125 0.890625
vt 0.1006984375 0.622062890625
vt 0.09152109375 0.622062890625
vt 0.09152109375 0.290031640625
vt 0.1006984375 0.290031640625
vt 0.09152109375 0.622062890625
vt 0.082343359375 0.622062890625
vt 0.082343359375 0.290031640625
vt 0.09152109375 0.290031640625
vt 0.082343359375 0.622062890625
vt 0.073166015625 0.622062890625
vt 0.073166015625 0.290031640625
vt 0.082343359375 0.290031640625
vt 0.073166015625 0.622062890625
vt 0.063988671875 0.622062890625
vt 0.063988671875 0.290031640625
vt 0.073166015625 0.290031640625
vt 0.386545703125 0.61815625
vt 0.37736796875 0.61815625
vt 0.37736796875 0.28612499999999996
vt 0.386545703125 0.28612499999999996
vt 0.37736796875 0.61815625
vt 0.368190625 0.61815625
vt 0.368190625 0.28612499999999996
vt 0.37736796875 0.28612499999999996
vt 0.366184375 0.618156640625
vt 0.35700703125 0.618156640625
vt 0.35700703125 0.286125390625
vt 0.366184375 0.286125390625
vt 0.35700703125 0.618156640625
vt 0.347829296875 0.618156640625
vt 0.347829296875 0.286125390625
vt 0.35700703125 0.286125390625
vt 0.057105078125 0.6220625
vt 0.047927734375 0.6220625
vt 0.047927734375 0.29003124999999996
vt 0.057105078125 0.29003124999999996
vt 0.047927734375 0.6220625
vt 0.038750390625 0.6220625
vt 0.038750390625 0.29003124999999996
vt 0.047927734375 0.29003124999999996
vt 0.038750390625 0.6220625
vt 0.02957265625 0.6220625
vt 0.02957265625 0.29003124999999996
vt 0.038750390625 0.29003124999999996
vt 0.02957265625 0.6220625
vt 0.0203953125 0.6220625
vt 0.0203953125 0.29003124999999996
vt 0.02957265625 0.29003124999999996
vt 0.0203953125 0.6220625
vt 0.01121796875 0.6220625
vt 0.01121796875 0.29003124999999996
vt 0.0203953125 0.29003124999999996
vt 0.01121796875 0.6220625
vt 0.002040234375 0.6220625
vt 0.002040234375 0.29003124999999996
vt 0.01121796875 0.29003124999999996
vt 0.47265625 0.61815625
vt 0.46347890625 0.61815625
vt 0.46347890625 0.28612499999999996
vt 0.47265625 0.28612499999999996
vt 0.46347890625 0.61815625
vt 0.4543015625 0.61815625
vt 0.4543015625 0.28612499999999996
vt 0.46347890625 0.28612499999999996
vt 0.4543015625 0.61815625
vt 0.445123828125 0.61815625
vt 0.445123828125 0.28612499999999996
vt 0.4543015625 0.28612499999999996
vt 0.445123828125 0.61815625
vt 0.435946484375 0.61815625
vt 0.435946484375 0.28612499999999996
vt 0.445123828125 0.28612499999999996
vt 0.431241015625 0.618156640625
vt 0.422063671875 0.618156640625
vt 0.422063671875 0.286125390625
vt 0.431241015625 0.286125390625
vt 0.422063671875 0.618156640625
vt 0.4128859375 0.618156640625
vt 0.4128859375 0.286125390625
vt 0.422063671875 0.286125390625
vt 0.4128859375 0.618156640625
vt 0.40370859375 0.618156640625
vt 0.40370859375 0.286125390625
vt 0.4128859375 0.286125390625
vt 0.40370859375 0.618156640625
vt 0.39453125 0.618156640625
vt 0.39453125 0.286125390625
vt 0.40370859375 0.286125390625
vt 0.119053515625 0.622062890625
vt 0.10987578125 0.622062890625
vt 0.10987578125 0.290031640625
vt 0.119053515625 0.290031640625
vt 0.10987578125 0.622062890625
vt 0.1006984375 0.622062890625
vt 0.1006984375 0.290031640625
vt 0.10987578125 0.290031640625
vt 0.09967890625 0.6542582031249999
vt 0.092540625 0.6542582031249999
vt 0.09152109375 0.622062890625
vt 0.1006984375 0.622062890625
vt 0.27241796875 0.9972988671875
vt 0.2652796875 0.9972988671875
vt 0.264259765625 0.9651035546875
vt 0.2734375 0.9651035546875
vt 0.2652796875 0.9972988671875
vt 0.258155703125 0.9977505859375
vt 0.2551008203125 0.96568390625
vt 0.264259765625 0.9651031640625
vt 0.258155703125 0.9977505859375
vt 0.251074609375 0.9986521484375
vt 0.2459969921875 0.9668433984375
vt 0.255100859375 0.965684296875
vt 0.251074609375 0.9986521484375
vt 0.2440647265625 1
vt 0.2369843359375 0.9685763671875
vt 0.2459969921875 0.9668433984375
vt 0.3763484375 0.6503515625
vt 0.36921015625 0.6503515625
vt 0.368190625 0.61815625
vt 0.37736796875 0.61815625
vt 0.36516484375 0.6503519531249999
vt 0.3580265625 0.6503519531249999
vt 0.35700703125 0.618156640625
vt 0.366184375 0.618156640625
vt 0.2676540234375 0.8515625
vt 0.260644140625 0.8502146484374999
vt 0.2657217578125 0.8184058984375
vt 0.2747344140625 0.8201388671875001
vt 0.260644140625 0.8502146484374999
vt 0.253563046875 0.8493130859375
vt 0.25661796875 0.81724640625
vt 0.2657218359375 0.8184055078125
vt 0.253563046875 0.8493130859375
vt 0.2464390625 0.848861328125
vt 0.247458984375 0.8166660546875
vt 0.2566179296875 0.817246796875
vt 0.2464390625 0.848861328125
vt 0.23930078125 0.848861328125
vt 0.23828125 0.816666015625
vt 0.247458984375 0.816666015625
vt 0.028553125 0.6542578125
vt 0.02141484375 0.6542578125
vt 0.0203953125 0.6220625
vt 0.02957265625 0.6220625
vt 0.2985898437500001 0.7715177734375
vt 0.2914515625000001 0.7715177734375
vt 0.28847890625000017 0.7393224609375
vt 0.2976562500000002 0.7393224609375
vt 0.2887171875 0.7707365234375
vt 0.281593203125 0.7711881640625
vt 0.2785383203125 0.7391218749999999
vt 0.28769765625 0.7385412109375
vt 0.281593203125 0.7711881640625
vt 0.2745120703125 0.7720897265625
vt 0.2694344140625 0.7402805859375
vt 0.27853828125 0.7391215234374999
vt 0.2745120703125 0.7720897265625
vt 0.2675021875 0.7734375
vt 0.2604221875 0.74201375
vt 0.2694344921875 0.7402809765625
vt 0.081011328125 0.91015625
vt 0.073873046875 0.91015625
vt 0.072853515625 0.87890625
vt 0.08203125 0.87890625
vt 0.444104296875 0.6503515625
vt 0.436966015625 0.6503515625
vt 0.435946484375 0.61815625
vt 0.445123828125 0.61815625
vt 0.430221484375 0.6503519531249999
vt 0.423083203125 0.6503519531249999
vt 0.422063671875 0.618156640625
vt 0.431241015625 0.618156640625
vt 0.008158203125 0.91015625
vt 0.001019921875 0.91015625
vt 0 0.87890625
vt 0.009177734375 0.87890625
vt 0.2910915625 0.8125
vt 0.2840816796875 0.8111522265625
vt 0.2891593359375 0.7793430859375
vt 0.298171640625 0.7810758984375
vt 0.2840816796875 0.8111522265625
vt 0.277000546875 0.8102506640625
vt 0.2800554296875 0.778184375
vt 0.289159296875 0.7793434765625
vt 0.277000546875 0.8102506640625
vt 0.2698765625 0.8097990234375
vt 0.27089609375 0.7776037109375
vt 0.2800554296875 0.778184375
vt 0.2698765625 0.8097990234375
vt 0.26273828125 0.8097990234375
vt 0.26171875 0.7776037109375
vt 0.27089609375 0.7776037109375
vt 0.09967890625 0.8105082031249999
vt 0.092540625 0.8105082031249999
vt 0.092540625 0.6542582031249999
vt 0.09967890625 0.6542582031249999
vt 0.092540625 0.8105082031249999
vt 0.08540234375 0.8105082031249999
vt 0.08540234375 0.6542582031249999
vt 0.092540625 0.6542582031249999
vt 0.08540234375 0.8105082031249999
vt 0.0782640625 0.8105082031249999
vt 0.0782640625 0.6542582031249999
vt 0.08540234375 0.6542582031249999
vt 0.390625 0.8066015625
vt 0.38348671875 0.8066015625
vt 0.38348671875 0.6503515625
vt 0.390625 0.6503515625
vt 0.38348671875 0.8066015625
vt 0.3763484375 0.8066015625
vt 0.3763484375 0.6503515625
vt 0.38348671875 0.6503515625
vt 0.3763484375 0.8066015625
vt 0.36921015625 0.8066015625
vt 0.36921015625 0.6503515625
vt 0.3763484375 0.6503515625
vt 0.36516484375 0.8066019531249999
vt 0.3580265625 0.8066019531249999
vt 0.3580265625 0.6503519531249999
vt 0.36516484375 0.6503519531249999
vt 0.3580265625 0.8066019531249999
vt 0.35088828125 0.8066019531249999
vt 0.35088828125 0.6503519531249999
vt 0.3580265625 0.6503519531249999
vt 0.35088828125 0.8066019531249999
vt 0.34375 0.8066019531249999
vt 0.34375 0.6503519531249999
vt 0.35088828125 0.6503519531249999
vt 0.0428296875 0.8105078125
vt 0.03569140625 0.8105078125
vt 0.03569140625 0.6542578125
vt 0.0428296875 0.6542578125
vt 0.03569140625 0.8105078125
vt 0.028553125 0.8105078125
vt 0.028553125 0.6542578125
vt 0.03569140625 0.6542578125
vt 0.028553125 0.8105078125
vt 0.02141484375 0.8105078125
vt 0.02141484375 0.6542578125
vt 0.028553125 0.6542578125
vt 0.02141484375 0.8105078125
vt 0.0142765625 0.8105078125
vt 0.0142765625 0.6542578125
vt 0.02141484375 0.6542578125
vt 0.0142765625 0.8105078125
vt 0.00713828125 0.8105078125
vt 0.00713828125 0.6542578125
vt 0.0142765625 0.6542578125
vt 0.00713828125 0.8105078125
vt 0 0.8105078125
vt 0 0.6542578125
vt 0.00713828125 0.6542578125
vt 0.458380859375 0.8066015625
vt 0.451242578125 0.8066015625
vt 0.451242578125 0.6503515625
vt 0.458380859375 0.6503515625
vt 0.451242578125 0.8066015625
vt 0.444104296875 0.8066015625
vt 0.444104296875 0.6503515625
vt 0.451242578125 0.6503515625
vt 0.444104296875 0.8066015625
vt 0.436966015625 0.8066015625
vt 0.436966015625 0.6503515625
vt 0.444104296875 0.6503515625
vt 0.430221484375 0.8066019531249999
vt 0.423083203125 0.8066019531249999
vt 0.423083203125 0.6503519531249999
vt 0.430221484375 0.6503519531249999
vt 0.423083203125 0.8066019531249999
vt 0.415944921875 0.8066019531249999
vt 0.415944921875 0.6503519531249999
vt 0.423083203125 0.6503519531249999
vt 0.415944921875 0.8066019531249999
vt 0.408806640625 0.8066019531249999
vt 0.408806640625 0.6503519531249999
vt 0.415944921875 0.6503519531249999
vt 0.12109375 0.8105082031249999
vt 0.11395546875 0.8105082031249999
vt 0.11395546875 0.6542582031249999
vt 0.12109375 0.6542582031249999
vt 0.11395546875 0.8105082031249999
vt 0.1068171875 0.8105082031249999
vt 0.1068171875 0.6542582031249999
vt 0.11395546875 0.6542582031249999
vt 0.1068171875 0.8105082031249999
vt 0.09967890625 0.8105082031249999
vt 0.09967890625 0.6542582031249999
vt 0.1068171875 0.6542582031249999
vt 0.098761328125 0.8387265625
vt 0.09345859375 0.8387265625
vt 0.092540625 0.8105082031249999
vt 0.09967890625 0.8105082031249999
vt 0.09345859375 0.8387265625
vt 0.0881674609375 0.839071171875
vt 0.085417421875 0.8109721484375
vt 0.092540625 0.8105082031249999
vt 0.0881674609375 0.839071171875
vt 0.08290953125 0.8397589453125001
vt 0.07833984375 0.8118979296875
vt 0.085417421875 0.8109721484375
vt 0.38597953125 0.8358523046874999
vt 0.3807216015625 0.83516453125
vt 0.3834716796875 0.8070651171875
vt 0.39054921875 0.8079912890625001
vt 0.3807216015625 0.83516453125
vt 0.37543046875 0.834819921875
vt 0.3763484375 0.8066015625
vt 0.383471640625 0.8070655078125
vt 0.37543046875 0.834819921875
vt 0.370127734375 0.834819921875
vt 0.36921015625 0.8066015625
vt 0.3763484375 0.8066015625
vt 0.364247265625 0.8348203125
vt 0.35894453125 0.8348203125
vt 0.3580265625 0.8066019531249999
vt 0.36516484375 0.8066019531249999
vt 0.35894453125 0.8348203125
vt 0.3536533984375 0.835164921875
vt 0.350903359375 0.8070658984375
vt 0.3580265625 0.8066019531249999
vt 0.3536533984375 0.835164921875
vt 0.34839546875 0.8358526953125001
vt 0.34382578125 0.8079916796875
vt 0.350903359375 0.8070658984375
vt 0.03818421875 0.8397585546874999
vt 0.0329262890625 0.83907078125
vt 0.0356763671875 0.8109713671875
vt 0.04275390625 0.8118975390625001
vt 0.0329262890625 0.83907078125
vt 0.02763515625 0.838726171875
vt 0.028553125 0.8105078125
vt 0.035676328125 0.8109717578125
vt 0.02763515625 0.838726171875
vt 0.022332421875 0.838726171875
vt 0.02141484375 0.8105078125
vt 0.028553125 0.8105078125
vt 0.022332421875 0.838726171875
vt 0.0170408984375 0.8390706640625
vt 0.014291640625 0.8109715625
vt 0.02141484375 0.8105078125
vt 0.0170408984375 0.8390706640625
vt 0.0117833203125 0.83975828125
vt 0.0072136328125 0.811897265625
vt 0.014291640625 0.8109715625
vt 0.16657265625 0.8387265625
vt 0.161269921875 0.8387265625
vt 0.16035234375 0.8105082031249999
vt 0.167490234375 0.8105082031249999
vt 0.453735390625 0.8358523046874999
vt 0.4484774609375 0.83516453125
vt 0.4512275390625 0.8070651171875
vt 0.458305078125 0.8079912890625001
vt 0.4484774609375 0.83516453125
vt 0.443186328125 0.834819921875
vt 0.444104296875 0.8066015625
vt 0.4512275 0.8070655078125
vt 0.443186328125 0.834819921875
vt 0.43788359375 0.834819921875
vt 0.436966015625 0.8066015625
vt 0.444104296875 0.8066015625
vt 0.42930390625 0.8348203125
vt 0.424001171875 0.8348203125
vt 0.423083203125 0.8066019531249999
vt 0.430221484375 0.8066019531249999
vt 0.424001171875 0.8348203125
vt 0.4187100390625 0.835164921875
vt 0.41596 0.8070658984375
vt 0.423083203125 0.8066019531249999
vt 0.4187100390625 0.835164921875
vt 0.413452109375 0.8358526953125001
vt 0.408882421875 0.8079916796875
vt 0.41596 0.8070658984375
vt 0.057480078125 0.838726171875
vt 0.05217734375 0.838726171875
vt 0.051259765625 0.810507421875
vt 0.05839765625 0.8105078125
vt 0.1093104296875 0.839758671875
vt 0.1040528515625 0.8390710546875
vt 0.106802109375 0.810971953125
vt 0.1138801171875 0.81189765625
vt 0.1040528515625 0.8390710546875
vt 0.098761328125 0.8387265625
vt 0.09967890625 0.8105082031249999
vt 0.106802109375 0.810971953125
vt 0.098761328125 0.9168515625
vt 0.09345859375 0.9168515625
vt 0.09345859375 0.8387265625
vt 0.098761328125 0.8387265625
vt 0.09345859375 0.9168515625
vt 0.08815625 0.9168515625
vt 0.08815625 0.8387265625
vt 0.09345859375 0.8387265625
vt 0.07421875 1
vt 0.068916015625 1
vt 0.068916015625 0.921875
vt 0.07421875 0.921875
vt 0.068916015625 1
vt 0.06361328125 1
vt 0.06361328125 0.921875
vt 0.068916015625 0.921875
vt 0.3807328125 0.912944921875
vt 0.37543046875 0.912944921875
vt 0.37543046875 0.834819921875
vt 0.3807328125 0.834819921875
vt 0.37543046875 0.912944921875
vt 0.370127734375 0.912944921875
vt 0.370127734375 0.834819921875
vt 0.37543046875 0.834819921875
vt 0.364247265625 0.9129453125
vt 0.35894453125 0.9129453125
vt 0.35894453125 0.8348203125
vt 0.364247265625 0.8348203125
vt 0.35894453125 0.9129453125
vt 0.3536421875 0.9129453125
vt 0.3536421875 0.8348203125
vt 0.35894453125 0.8348203125
vt 0.12388671875 1
vt 0.118583984375 1
vt 0.118583984375 0.921875
vt 0.12388671875 0.921875
vt 0.118583984375 1
vt 0.11328125 1
vt 0.11328125 0.921875
vt 0.118583984375 0.921875
vt 0.0329375 0.916851171875
vt 0.02763515625 0.916851171875
vt 0.02763515625 0.838726171875
vt 0.0329375 0.838726171875
vt 0.02763515625 0.916851171875
vt 0.022332421875 0.916851171875
vt 0.022332421875 0.838726171875
vt 0.02763515625 0.838726171875
vt 0.022332421875 0.916851171875
vt 0.0170296875 0.916851171875
vt 0.0170296875 0.838726171875
vt 0.022332421875 0.838726171875
vt 0.171875 0.9168515625
vt 0.16657265625 0.9168515625
vt 0.16657265625 0.8387265625
vt 0.171875 0.8387265625
vt 0.16657265625 0.9168515625
vt 0.161269921875 0.9168515625
vt 0.161269921875 0.8387265625
vt 0.16657265625 0.8387265625
vt 0.161269921875 0.9168515625
vt 0.1559671875 0.9168515625
vt 0.1559671875 0.8387265625
vt 0.161269921875 0.8387265625
vt 0.448488671875 0.912944921875
vt 0.443186328125 0.912944921875
vt 0.443186328125 0.834819921875
vt 0.448488671875 0.834819921875
vt 0.443186328125 0.912944921875
vt 0.43788359375 0.912944921875
vt 0.43788359375 0.834819921875
vt 0.443186328125 0.834819921875
vt 0.42930390625 0.9129453125
vt 0.424001171875 0.9129453125
vt 0.424001171875 0.8348203125
vt 0.42930390625 0.8348203125
vt 0.424001171875 0.9129453125
vt 0.418698828125 0.9129453125
vt 0.418698828125 0.8348203125
vt 0.424001171875 0.8348203125
vt 0.0627828125 0.916851171875
vt 0.057480078125 0.916851171875
vt 0.057480078125 0.838726171875
vt 0.0627828125 0.838726171875
vt 0.057480078125 0.916851171875
vt 0.05217734375 0.916851171875
vt 0.05217734375 0.838726171875
vt 0.057480078125 0.838726171875
vt 0.05217734375 0.916851171875
vt 0.046875 0.916851171875
vt 0.046875 0.838726171875
vt 0.05217734375 0.838726171875
vt 0.1040640625 0.9168515625
vt 0.098761328125 0.9168515625
vt 0.098761328125 0.8387265625
vt 0.1040640625 0.8387265625
vt 0.098724609375 0.929875390625
vt 0.09349609375 0.929875390625
vt 0.093458984375 0.9168515625
vt 0.098761328125 0.9168515625
vt 0.09349609375 0.929875390625
vt 0.08826765625 0.9299051953125
vt 0.088156328125 0.916881796875
vt 0.093458984375 0.9168515625
vt 0.08826765625 0.9299051953125
vt 0.0830394921875 0.929964765625
vt 0.0828539453125 0.9169422265625
vt 0.088156328125 0.916881796875
vt 0.3858499609375 0.926058125
vt 0.380621796875 0.9259985546875
vt 0.380733125 0.91297515625
vt 0.3860355078125 0.9130355859375
vt 0.380621796875 0.9259985546875
vt 0.375393359375 0.92596875
vt 0.37543046875 0.912944921875
vt 0.380733125 0.91297515625
vt 0.375393359375 0.92596875
vt 0.37016484375 0.92596875
vt 0.370128125 0.912944921875
vt 0.37543046875 0.912944921875
vt 0.364210546875 0.925969140625
vt 0.35898203125 0.925969140625
vt 0.358944921875 0.9129453125
vt 0.364247265625 0.9129453125
vt 0.35898203125 0.925969140625
vt 0.35375359375 0.9259989453125
vt 0.353642265625 0.912975546875
vt 0.358944921875 0.9129453125
vt 0.35375359375 0.9259989453125
vt 0.3485254296875 0.926058515625
vt 0.3483398828125 0.9130359765625
vt 0.353642265625 0.912975546875
vt 0.0380546484375 0.929964375
vt 0.032826484375 0.9299048046875
vt 0.0329378125 0.91688140625
vt 0.0382401953125 0.9169418359375
vt 0.032826484375 0.9299048046875
vt 0.027598046875 0.929875
vt 0.02763515625 0.916851171875
vt 0.0329378125 0.91688140625
vt 0.027598046875 0.929875
vt 0.02236953125 0.929875
vt 0.0223328125 0.916851171875
vt 0.02763515625 0.916851171875
vt 0.02236953125 0.929875
vt 0.01714109375 0.9299044921875
vt 0.017030546875 0.9168810546875
vt 0.0223328125 0.916851171875
vt 0.01714109375 0.9299044921875
vt 0.0119129296875 0.92996375
vt 0.0117281640625 0.916941171875
vt 0.017030546875 0.9168810546875
vt 0.166535546875 0.929875390625
vt 0.16130703125 0.929875390625
vt 0.161269921875 0.9168515625
vt 0.16657265625 0.9168515625
vt 0.4536058203125 0.926058125
vt 0.44837765625 0.9259985546875
vt 0.448488984375 0.91297515625
vt 0.4537913671875 0.9130355859375
vt 0.44837765625 0.9259985546875
vt 0.44314921875 0.92596875
vt 0.443186328125 0.912944921875
vt 0.448488984375 0.91297515625
vt 0.44314921875 0.92596875
vt 0.437920703125 0.92596875
vt 0.437883984375 0.912944921875
vt 0.443186328125 0.912944921875
vt 0.4292671875 0.925969140625
vt 0.424038671875 0.925969140625
vt 0.4240015625 0.9129453125
vt 0.42930390625 0.9129453125
vt 0.424038671875 0.925969140625
vt 0.418810234375 0.9259989453125
vt 0.41869890625 0.912975546875
vt 0.4240015625 0.9129453125
vt 0.418810234375 0.9259989453125
vt 0.4135820703125 0.926058515625
vt 0.4133965234375 0.9130359765625
vt 0.41869890625 0.912975546875
vt 0.05744296875 0.929875
vt 0.052214453125 0.929875
vt 0.05217734375 0.916851171875
vt 0.057480078125 0.916851171875
vt 0.1091812109375 0.929964140625
vt 0.103953046875 0.9299048828125
vt 0.10406359375 0.9168814453125
vt 0.1093659765625 0.9169415625
vt 0.103953046875 0.9299048828125
vt 0.098724609375 0.929875390625
vt 0.098761328125 0.9168515625
vt 0.10406359375 0.9168814453125
vt 0.098609765625 0.942925
vt 0.093610546875 0.942925
vt 0.09349609375 0.929875390625
vt 0.098724609375 0.929875390625
vt 0.093610546875 0.942925
vt 0.088612109375 0.9430126953125
vt 0.0882687890625 0.92996671875
vt 0.09349609375 0.929875
vt 0.088612109375 0.9430126953125
vt 0.083615546875 0.943188046875
vt 0.0830434765625 0.93015046875
vt 0.0882687890625 0.9299670703125
vt 0.38527390625 0.93928140625
vt 0.38027734375 0.9391060546875
vt 0.380620703125 0.926060078125
vt 0.3858459765625 0.9262434375
vt 0.38027734375 0.9391060546875
vt 0.37527890625 0.939018359375
vt 0.375393359375 0.92596875
vt 0.3806206640625 0.92606046875
vt 0.37527890625 0.939018359375
vt 0.3702796875 0.939018359375
vt 0.37016484375 0.92596875
vt 0.375393359375 0.92596875
vt 0.364095703125 0.93901875
vt 0.359096484375 0.93901875
vt 0.35898203125 0.925969140625
vt 0.364210546875 0.925969140625
vt 0.359096484375 0.93901875
vt 0.354098046875 0.9391064453125
vt 0.3537547265625 0.92606046875
vt 0.35898203125 0.92596875
vt 0.354098046875 0.9391064453125
vt 0.349101484375 0.939281796875
vt 0.3485294140625 0.92624421875
vt 0.3537547265625 0.9260608203125
vt 0.03747859375 0.94318765625
vt 0.03248203125 0.9430123046875
vt 0.032825390625 0.929966328125
vt 0.0380506640625 0.9301496875
vt 0.03248203125 0.9430123046875
vt 0.02748359375 0.942924609375
vt 0.027598046875 0.929875
vt 0.0328253515625 0.92996671875
vt 0.02748359375 0.942924609375
vt 0.022484375 0.942924609375
vt 0.02236953125 0.929875
vt 0.027598046875 0.929875
vt 0.022484375 0.942924609375
vt 0.0174859375 0.9430125781250001
vt 0.0171418359375 0.92996703125
vt 0.02236953125 0.929875
vt 0.0174859375 0.9430125781250001
vt 0.0124898046875 0.9431882421875
vt 0.0119169140625 0.9301503125
vt 0.017141796875 0.929966640625
vt 0.16642109375 0.942925
vt 0.161421484375 0.942925
vt 0.16130703125 0.929875390625
vt 0.166535546875 0.929875390625
vt 0.453029765625 0.93928140625
vt 0.448033203125 0.9391060546875
vt 0.4483765625 0.926060078125
vt 0.4536018359375 0.9262434375
vt 0.448033203125 0.9391060546875
vt 0.443034765625 0.939018359375
vt 0.44314921875 0.92596875
vt 0.4483765234375 0.92606046875
vt 0.443034765625 0.939018359375
vt 0.438035546875 0.939018359375
vt 0.437920703125 0.92596875
vt 0.44314921875 0.92596875
vt 0.42915234375 0.93901875
vt 0.424153125 0.93901875
vt 0.424038671875 0.925969140625
vt 0.4292671875 0.925969140625
vt 0.424153125 0.93901875
vt 0.4191546875 0.9391064453125
vt 0.4188113671875 0.92606046875
vt 0.424038671875 0.92596875
vt 0.4191546875 0.9391064453125
vt 0.414158125 0.939281796875
vt 0.4135860546875 0.92624421875
vt 0.4188113671875 0.9260608203125
vt 0.057328515625 0.942925
vt 0.05232890625 0.942925
vt 0.052214453125 0.929875
vt 0.05744296875 0.929875
vt 0.1086043359375 0.9431886328125
vt 0.103608203125 0.94301296875
vt 0.1039523046875 0.929967421875
vt 0.1091772265625 0.93015109375
vt 0.103608203125 0.94301296875
vt 0.098609765625 0.942925
vt 0.098724609375 0.929875390625
vt 0.1039523046875 0.929967421875
vt 0.09840625 0.956037109375
vt 0.0938140625 0.956037109375
vt 0.093610546875 0.942925
vt 0.098609765625 0.942925
vt 0.0938140625 0.956037109375
vt 0.0892241015625 0.956179609375
vt 0.08861375 0.94308015625
vt 0.093610546875 0.942925
vt 0.0892241015625 0.956179609375
vt 0.0846407421875 0.95646453125
vt 0.083624140625 0.9433903125
vt 0.08861375 0.94308015625
vt 0.3842487109375 0.95255828125
vt 0.3796653515625 0.952273359375
vt 0.3802757421875 0.939173515625
vt 0.3852653125 0.939483671875
vt 0.3796653515625 0.952273359375
vt 0.375075390625 0.952130859375
vt 0.37527890625 0.93901875
vt 0.380275703125 0.93917390625
vt 0.375075390625 0.952130859375
vt 0.370483203125 0.952130859375
vt 0.3702796875 0.939018359375
vt 0.37527890625 0.939018359375
vt 0.3638921875 0.952130859375
vt 0.3593 0.952130859375
vt 0.359096484375 0.93901875
vt 0.364095703125 0.93901875
vt 0.3593 0.952130859375
vt 0.3547100390625 0.952273359375
vt 0.3540996875 0.93917390625
vt 0.359096484375 0.93901875
vt 0.3547100390625 0.952273359375
vt 0.3501266796875 0.95255828125
vt 0.349110078125 0.9394840625
vt 0.3540996875 0.93917390625
vt 0.0364533984375 0.95646453125
vt 0.0318700390625 0.956179609375
vt 0.0324804296875 0.943079765625
vt 0.03747 0.943389921875
vt 0.0318700390625 0.956179609375
vt 0.027280078125 0.956037109375
vt 0.02748359375 0.942925
vt 0.032480390625 0.94308015625
vt 0.027280078125 0.956037109375
vt 0.022687890625 0.956037109375
vt 0.022484375 0.942924609375
vt 0.02748359375 0.942924609375
vt 0.022687890625 0.956037109375
vt 0.0180979296875 0.956179609375
vt 0.017487578125 0.94308015625
vt 0.022484375 0.942925
vt 0.0180979296875 0.956179609375
vt 0.0135145703125 0.95646453125
vt 0.01249796875 0.9433903125
vt 0.017487578125 0.94308015625
vt 0.166217578125 0.956037109375
vt 0.161625390625 0.956037109375
vt 0.161421875 0.942925
vt 0.16642109375 0.942925
vt 0.4520045703125 0.95255828125
vt 0.4474212109375 0.952273359375
vt 0.4480316015625 0.939173515625
vt 0.453021171875 0.939483671875
vt 0.4474212109375 0.952273359375
vt 0.44283125 0.952130859375
vt 0.443034765625 0.93901875
vt 0.4480315625 0.93917390625
vt 0.44283125 0.952130859375
vt 0.4382390625 0.952130859375
vt 0.438035546875 0.939018359375
vt 0.443034765625 0.939018359375
vt 0.428948828125 0.952130859375
vt 0.424356640625 0.952130859375
vt 0.424153125 0.93901875
vt 0.42915234375 0.93901875
vt 0.424356640625 0.952130859375
vt 0.4197666796875 0.952273359375
vt 0.419156328125 0.93917390625
vt 0.424153125 0.93901875
vt 0.4197666796875 0.952273359375
vt 0.4151833203125 0.95255828125
vt 0.41416671875 0.9394840625
vt 0.419156328125 0.93917390625
vt 0.057125 0.9560375
vt 0.0525328125 0.9560375
vt 0.052329296875 0.942925
vt 0.057328515625 0.942925
vt 0.1075795703125 0.95646453125
vt 0.1029962109375 0.956179609375
vt 0.1036065625 0.94308015625
vt 0.108596171875 0.9433903125
vt 0.1029962109375 0.956179609375
vt 0.09840625 0.956037109375
vt 0.098609765625 0.942924609375
vt 0.1036066015625 0.943079765625
vt 0.098086328125 0.9692828125
vt 0.094133984375 0.9692828125
vt 0.0938140625 0.956037109375
vt 0.09840625 0.956037109375
vt 0.094133984375 0.9692828125
vt 0.09018625 0.969473515625
vt 0.0892272265625 0.956258671875
vt 0.0938140625 0.956037109375
vt 0.09018625 0.969473515625
vt 0.0862523046875 0.9698546875
vt 0.0846564453125 0.9567015625
vt 0.0892272265625 0.9562587109375
vt 0.3826371484375 0.9659484375
vt 0.378703203125 0.965567265625
vt 0.379662265625 0.9523524609375
vt 0.384233046875 0.9527953515625
vt 0.378703203125 0.965567265625
vt 0.37475546875 0.9653765625
vt 0.375075390625 0.95213125
vt 0.3796622265625 0.9523528125
vt 0.37475546875 0.9653765625
vt 0.370803125 0.9653765625
vt 0.370483203125 0.952130859375
vt 0.375075390625 0.952130859375
vt 0.363572265625 0.9653765625
vt 0.359619921875 0.9653765625
vt 0.3593 0.952130859375
vt 0.3638921875 0.952130859375
vt 0.359619921875 0.9653765625
vt 0.3556721875 0.965567265625
vt 0.3547131640625 0.952352421875
vt 0.3593 0.952130859375
vt 0.3556721875 0.965567265625
vt 0.3517382421875 0.9659484375
vt 0.3501423828125 0.9527953125
vt 0.3547131640625 0.9523524609375
vt 0.0348418359375 0.9698546875
vt 0.030907890625 0.969473515625
vt 0.031866953125 0.9562587109375
vt 0.036437734375 0.9567016015625
vt 0.030907890625 0.969473515625
vt 0.02696015625 0.9692828125
vt 0.027280078125 0.9560375
vt 0.0318669140625 0.9562590625
vt 0.02696015625 0.9692828125
vt 0.0230078125 0.9692828125
vt 0.022687890625 0.956037109375
vt 0.027280078125 0.956037109375
vt 0.0230078125 0.9692828125
vt 0.019060078125 0.9694736328125
vt 0.0181010546875 0.956258828125
vt 0.022687890625 0.956037109375
vt 0.019060078125 0.9694736328125
vt 0.0151261328125 0.9698546875
vt 0.0135302734375 0.9567015625
vt 0.0181010546875 0.956258828125
vt 0.16589765625 0.9692828125
vt 0.1619453125 0.9692828125
vt 0.161625390625 0.956037109375
vt 0.166217578125 0.956037109375
vt 0.4503930078125 0.9659484375
vt 0.4464590625 0.965567265625
vt 0.447418125 0.9523524609375
vt 0.45198890625 0.9527953515625
vt 0.4464590625 0.965567265625
vt 0.442511328125 0.9653765625
vt 0.44283125 0.95213125
vt 0.4474180859375 0.9523528125
vt 0.442511328125 0.9653765625
vt 0.438558984375 0.9653765625
vt 0.4382390625 0.952130859375
vt 0.44283125 0.952130859375
vt 0.42862890625 0.9653765625
vt 0.4246765625 0.9653765625
vt 0.424356640625 0.952130859375
vt 0.428948828125 0.952130859375
vt 0.4246765625 0.9653765625
vt 0.420728828125 0.965567265625
vt 0.4197698046875 0.952352421875
vt 0.424356640625 0.952130859375
vt 0.420728828125 0.965567265625
vt 0.4167948828125 0.9659484375
vt 0.4151990234375 0.9527953125
vt 0.4197698046875 0.9523524609375
vt 0.056805078125 0.969283203125
vt 0.052852734375 0.969283203125
vt 0.0525328125 0.9560375
vt 0.057125 0.9560375
vt 0.1059680078125 0.9698546875
vt 0.1020340625 0.9694736328125
vt 0.102993046875 0.95625921875
vt 0.1075638671875 0.956701953125
vt 0.1020340625 0.9694736328125
vt 0.098086328125 0.9692828125
vt 0.09840625 0.956037109375
vt 0.1029930859375 0.956258828125
vt 0.09757578125 0.982869140625
vt 0.09464453125 0.982869140625
vt 0.094133984375 0.9692828125
vt 0.098086328125 0.9692828125
vt 0.09464453125 0.982869140625
vt 0.0917215625 0.983089140625
vt 0.0901928125 0.96957984375
vt 0.094133984375 0.969283203125
vt 0.0917215625 0.983089140625
vt 0.0888233203125 0.983527890625
vt 0.086284921875 0.970171015625
vt 0.0901927734375 0.969579453125
vt 0.3800661328125 0.979621640625
vt 0.377167890625 0.979182890625
vt 0.378696640625 0.9656735546875
vt 0.382604453125 0.96626515625
vt 0.377167890625 0.979182890625
vt 0.374244921875 0.978962890625
vt 0.37475546875 0.9653765625
vt 0.3786966796875 0.965673203125
vt 0.374244921875 0.978962890625
vt 0.371313671875 0.978962890625
vt 0.370803125 0.9653765625
vt 0.37475546875 0.9653765625
vt 0.36306171875 0.978962890625
vt 0.36013046875 0.978962890625
vt 0.359619921875 0.9653765625
vt 0.363572265625 0.9653765625
vt 0.36013046875 0.978962890625
vt 0.3572075 0.979182890625
vt 0.35567875 0.9656735937500001
vt 0.359619921875 0.965376953125
vt 0.3572075 0.979182890625
vt 0.3543092578125 0.979621640625
vt 0.351770859375 0.966264765625
vt 0.3556787109375 0.965673203125
vt 0.0322708203125 0.983527890625
vt 0.029372578125 0.983089140625
vt 0.030901328125 0.9695798046875
vt 0.034809140625 0.97017140625
vt 0.029372578125 0.983089140625
vt 0.026449609375 0.982869140625
vt 0.02696015625 0.9692828125
vt 0.0309013671875 0.969579453125
vt 0.026449609375 0.982869140625
vt 0.023518359375 0.982869140625
vt 0.0230078125 0.9692828125
vt 0.02696015625 0.9692828125
vt 0.023518359375 0.982869140625
vt 0.020595390625 0.983089140625
vt 0.0190666015625 0.969579453125
vt 0.0230078125 0.9692828125
vt 0.020595390625 0.983089140625
vt 0.0176971484375 0.983527890625
vt 0.015158828125 0.97017140625
vt 0.019066640625 0.9695798046875
vt 0.165387109375 0.982869140625
vt 0.162455859375 0.982869140625
vt 0.1619453125 0.9692828125
vt 0.16589765625 0.9692828125
vt 0.4478219921875 0.979621640625
vt 0.44492375 0.979182890625
vt 0.4464525 0.9656735546875
vt 0.4503603125 0.96626515625
vt 0.44492375 0.979182890625
vt 0.44200078125 0.978962890625
vt 0.442511328125 0.9653765625
vt 0.4464525390625 0.965673203125
vt 0.44200078125 0.978962890625
vt 0.43906953125 0.978962890625
vt 0.438558984375 0.9653765625
vt 0.442511328125 0.9653765625
vt 0.428118359375 0.978962890625
vt 0.425187109375 0.978962890625
vt 0.4246765625 0.9653765625
vt 0.42862890625 0.9653765625
vt 0.425187109375 0.978962890625
vt 0.422264140625 0.979182890625
vt 0.420735390625 0.9656735937500001
vt 0.4246765625 0.965376953125
vt 0.422264140625 0.979182890625
vt 0.4193658984375 0.979621640625
vt 0.4168275 0.966264765625
vt 0.4207353515625 0.965673203125
vt 0.05629453125 0.982869140625
vt 0.05336328125 0.982869140625
vt 0.052852734375 0.969283203125
vt 0.056805078125 0.969283203125
vt 0.1033969921875 0.9835278515625
vt 0.10049875 0.983089140625
vt 0.1020275390625 0.969579453125
vt 0.1059353515625 0.970171015625
vt 0.10049875 0.983089140625
vt 0.09757578125 0.982869140625
vt 0.098086328125 0.9692828125
vt 0.1020275390625 0.969579453125
vt 0.09464453125 0.982869140625
vt 0.09757578125 0.982869140625
vt 0.09611015625 1
vt 0.0917558984375 0.9833670703125
vt 0.09464453125 0.982869140625
vt 0.09611015625 1
vt 0.00488125 0.982869140625
vt 0.0078125 0.982869140625
vt 0.006346875 1
vt 0.0019926171875 0.9833670703125
vt 0.00488125 0.982869140625
vt 0.006346875 1
vt 0.374244921875 0.978962890625
vt 0.3771335546875 0.9794608203125
vt 0.372779296875 0.99609375
vt 0.371313671875 0.978962890625
vt 0.374244921875 0.978962890625
vt 0.372779296875 0.99609375
vt 0.36013046875 0.978962890625
vt 0.36306171875 0.978962890625
vt 0.36159609375 0.99609375
vt 0.3572418359375 0.9794608203125
vt 0.36013046875 0.978962890625
vt 0.36159609375 0.99609375
vt 0.00293125 0.959431640625
vt 0.0058198828125 0.9599295703125
vt 0.001465625 0.9765625
vt 0 0.959431640625
vt 0.00293125 0.959431640625
vt 0.001465625 0.9765625
vt 0.026449609375 0.982869140625
vt 0.0293382421875 0.9833670703125
vt 0.024983984375 1
vt 0.023518359375 0.982869140625
vt 0.026449609375 0.982869140625
vt 0.024983984375 1
vt 0.0206297265625 0.9833670703125
vt 0.023518359375 0.982869140625
vt 0.024983984375 1
vt 0.165387109375 0.982869140625
vt 0.1682757421875 0.9833670703125
vt 0.163921484375 1
vt 0.162455859375 0.982869140625
vt 0.165387109375 0.982869140625
vt 0.163921484375 1
vt 0.1742128125 1
vt 0.1744626953125 0.9970794140625
vt 0.19140625 1
vt 0.44200078125 0.978962890625
vt 0.4448894140625 0.9794608203125
vt 0.44053515625 0.99609375
vt 0.43906953125 0.978962890625
vt 0.44200078125 0.978962890625
vt 0.44053515625 0.99609375
vt 0.425187109375 0.978962890625
vt 0.428118359375 0.978962890625
vt 0.426652734375 0.99609375
vt 0.4222984765625 0.9794608203125
vt 0.425187109375 0.978962890625
vt 0.426652734375 0.99609375
vt 0.0390625 0.9830564453125
vt 0.0419830859375 0.9828065625
vt 0.0419830859375 1
vt 0.05336328125 0.982869140625
vt 0.05629453125 0.982869140625
vt 0.05482890625 1
vt 0.0504746484375 0.9833670703125
vt 0.05336328125 0.982869140625
vt 0.05482890625 1
vt 0.09757578125 0.982869140625
vt 0.1004644140625 0.9833670703125
vt 0.09611015625 1
usemtl missile_texture
f 369/481/1 105/482/1 106/483/1
f 369/484/1 106/485/1 107/486/1
f 369/487/1 107/488/1 108/489/1
f 369/490/1 108/491/1 109/492/1
f 369/493/1 109/494/1 110/495/1
f 369/496/1 110/497/1 111/498/1
f 369/499/1 111/500/1 112/501/1
f 369/502/1 112/503/1 113/504/1
f 369/505/1 113/506/1 114/507/1
f 369/508/1 114/509/1 115/510/1
f 369/511/1 115/512/1 116/513/1
f 369/514/1 116/515/1 117/516/1
f 369/517/1 117/518/1 118/519/1
f 369/520/1 118/521/1 119/522/1
f 369/523/1 119/524/1 120/525/1
f 369/526/1 120/527/1 121/528/1
f 369/529/1 121/530/1 122/531/1
f 369/532/1 122/533/1 123/534/1
f 369/535/1 123/536/1 124/537/1
f 369/538/1 124/539/1 125/540/1
f 369/541/1 125/542/1 126/543/1
f 369/544/1 126/545/1 127/546/1
f 369/547/1 127/548/1 128/549/1
f 369/550/1 128/551/1 105/552/1
f 129/553/15 130/554/16 106/555/5 105/556/17
f 130/557/16 131/558/18 107/559/19 106/560/5
f 131/561/18 132/562/20 108/563/3 107/564/19
f 132/565/20 133/566/21 109/567/22 108/568/3
f 133/569/21 134/570/23 110/571/2 109/572/22
f 134/573/23 135/574/24 111/575/25 110/576/2
f 135/577/24 136/578/26 112/579/14 111/580/25
f 136/581/26 137/582/27 113/583/28 112/584/14
f 137/585/27 138/586/29 114/587/13 113/588/28
f 138/589/29 139/590/30 115/591/31 114/592/13
f 139/593/30 140/594/32 116/595/12 115/596/31
f 140/597/32 141/598/33 117/599/34 116/600/12
f 141/601/33 142/602/35 118/603/11 117/604/34
f 142/605/35 143/606/36 119/607/37 118/608/11
f 143/609/36 144/610/38 120/611/10 119/612/37
f 144/613/38 145/614/39 121/615/40 120/616/10
f 145/617/39 146/618/41 122/619/9 121/620/40
f 146/621/41 147/622/42 123/623/43 122/624/9
f 147/625/42 148/626/44 124/627/8 123/628/43
f 148/629/44 149/630/45 125/631/46 124/632/8
f 149/633/45 150/634/47 126/635/7 125/636/46
f 150/637/47 151/638/48 127/639/49 126/640/7
f 151/641/48 152/642/50 128/643/6 127/644/49
f 152/645/50 129/646/15 105/647/17 128/648/6
f 153/649/51 154/650/52 130/651/16 129/652/15
f 154/653/52 155/654/53 131/655/18 130/656/16
f 155/657/53 156/658/54 132/659/20 131/660/18
f 156/661/54 157/662/55 133/663/21 132/664/20
f 157/665/55 158/666/56 134/667/23 133/668/21
f 158/669/56 159/670/57 135/671/24 134/672/23
f 159/673/57 160/674/58 136/675/26 135/676/24
f 160/677/58 161/678/59 137/679/27 136/680/26
f 161/681/59 162/682/60 138/683/29 137/684/27
f 162/685/60 163/686/61 139/687/30 138/688/29
f 163/689/61 164/690/62 140/691/32 139/692/30
f 164/693/62 165/694/63 141/695/33 140/696/32
f 165/697/63 166/698/64 142/699/35 141/700/33
f 166/701/64 167/702/65 143/703/36 142/704/35
f 167/705/65 168/706/66 144/707/38 143/708/36
f 168/709/66 169/710/67 145/711/39 144/712/38
f 169/713/67 170/714/68 146/715/41 145/716/39
f 170/717/68 171/718/69 147/719/42 146/720/41
f 171/721/69 172/722/70 148/723/44 147/724/42
f 172/725/70 173/726/71 149/727/45 148/728/44
f 173/729/71 174/730/72 150/731/47 149/732/45
f 174/733/72 175/734/73 151/735/48 150/736/47
f 175/737/73 176/738/74 152/739/50 151/740/48
f 176/741/74 153/742/51 129/743/15 152/744/50
f 177/745/75 178/746/76 154/747/52 153/748/51
f 178/749/76 179/750/77 155/751/53 154/752/52
f 179/753/77 180/754/78 156/755/54 155/756/53
f 180/757/78 181/758/79 157/759/55 156/760/54
f 181/761/79 182/762/80 158/763/56 157/764/55
f 182/765/80 183/766/81 159/767/57 158/768/56
f 183/769/81 184/770/82 160/771/58 159/772/57
f 184/773/82 185/774/83 161/775/59 160/776/58
f 185/777/83 186/778/84 162/779/60 161/780/59
f 186/781/84 187/782/85 163/783/61 162/784/60
f 187/785/85 188/786/86 164/787/62 163/788/61
f 188/789/86 189/790/87 165/791/63 164/792/62
f 189/793/87 190/794/88 166/795/64 165/796/63
f 190/797/88 191/798/89 167/799/65 166/800/64
f 191/801/89 192/802/90 168/803/66 167/804/65
f 192/805/90 193/806/91 169/807/67 168/808/66
f 193/809/91 194/810/92 170/811/68 169/812/67
f 194/813/92 195/814/93 171/815/69 170/816/68
f 195/817/93 196/818/94 172/819/70 171/820/69
f 196/821/94 197/822/95 173/823/71 172/824/70
f 197/825/95 198/826/96 174/827/72 173/828/71
f 198/829/96 199/830/97 175/831/73 174/832/72
f 199/833/97 200/834/98 176/835/74 175/836/73
f 200/837/98 177/838/75 153/839/51 176/840/74
f 201/841/99 202/842/100 178/843/76 177/844/75
f 202/845/100 203/846/101 179/847/77 178/848/76
f 203/849/101 204/850/102 180/851/78 179/852/77
f 204/853/102 205/854/103 181/855/79 180/856/78
f 205/857/103 206/858/104 182/859/80 181/860/79
f 206/861/104 207/862/105 183/863/81 182/864/80
f 207/865/105 208/866/106 184/867/82 183/868/81
f 208/869/106 209/870/107 185/871/83 184/872/82
f 209/873/107 210/874/108 186/875/84 185/876/83
f 210/877/108 211/878/109 187/879/85 186/880/84
f 211/881/109 212/882/110 188/883/86 187/884/85
f 212/885/110 213/886/111 189/887/87 188/888/86
f 213/889/111 214/890/112 190/891/88 189/892/87
f 214/893/112 215/894/113 191/895/89 190/896/88
f 215/897/113 216/898/114 192/899/90 191/900/89
f 216/901/114 217/902/115 193/903/91 192/904/90
f 217/905/115 218/906/116 194/907/92 193/908/91
f 218/909/116 219/910/117 195/911/93 194/912/92
f 219/913/117 220/914/118 196/915/94 195/916/93
f 220/917/118 221/918/119 197/919/95 196/920/94
f 221/921/119 222/922/120 198/923/96 197/924/95
f 222/925/120 223/926/121 199/927/97 198/928/96
f 223/929/121 224/930/122 200/931/98 199/932/97
f 224/933/122 201/934/99 177/935/75 200/936/98
f 225/937/123 226/938/124 202/939/100 201/940/99
f 226/941/124 227/942/125 203/943/101 202/944/100
f 227/945/125 228/946/126 204/947/102 203/948/101
f 228/949/126 229/950/127 205/951/103 204/952/102
f 229/953/127 230/954/128 206/955/104 205/956/103
f 230/957/128 231/958/129 207/959/105 206/960/104
f 231/961/129 232/962/130 208/963/106 207/964/105
f 232/965/130 233/966/131 209/967/107 208/968/106
f 233/969/131 234/970/132 210/971/108 209/972/107
f 234/973/132 235/974/133 211/975/109 210/976/108
f 235/977/133 236/978/134 212/979/110 211/980/109
f 236/981/134 237/982/135 213/983/111 212/984/110
f 237/985/135 238/986/136 214/987/112 213/988/111
f 238/989/136 239/990/137 215/991/113 214/992/112
f 239/993/137 240/994/138 216/995/114 215/996/113
f 240/997/138 241/998/139 217/999/115 216/1000/114
f 241/1001/139 242/1002/140 218/1003/116 217/1004/115
f 242/1005/140 243/1006/141 219/1007/117 218/1008/116
f 243/1009/141 244/1010/142 220/1011/118 219/1012/117
f 244/1013/142 245/1014/143 221/1015/119 220/1016/118
f 245/1017/143 246/1018/144 222/1019/120 221/1020/119
f 246/1021/144 247/1022/145 223/1023/121 222/1024/120
f 247/1025/145 248/1026/146 224/1027/122 223/1028/121
f 248/1029/146 225/1030/123 201/1031/99 224/1032/122
f 249/1033/147 250/1034/148 226/1035/124 225/1036/123
f 250/1037/148 251/1038/149 227/1039/125 226/1040/124
f 251/1041/149 252/1042/150 228/1043/126 227/1044/125
f 252/1045/150 253/1046/151 229/1047/127 228/1048/126
f 253/1049/151 254/1050/152 230/1051/128 229/1052/127
f 254/1053/152 255/1054/153 231/1055/129 230/1056/128
f 255/1057/153 256/1058/154 232/1059/130 231/1060/129
f 256/1061/154 257/1062/155 233/1063/131 232/1064/130
f 257/1065/155 258/1066/156 234/1067/132 233/1068/131
f 258/1069/156 259/1070/157 235/1071/133 234/1072/132
f 259/1073/157 260/1074/158 236/1075/134 235/1076/133
f 260/1077/158 261/1078/159 237/1079/135 236/1080/134
f 261/1081/159 262/1082/160 238/1083/136 237/1084/135
f 262/1085/160 263/1086/161 239/1087/137 238/1088/136
f 263/1089/161 264/1090/162 240/1091/138 239/1092/137
f 264/1093/162 265/1094/163 241/1095/139 240/1096/138
f 265/1097/163 266/1098/164 242/1099/140 241/1100/139
f 266/1101/164 267/1102/165 243/1103/141 242/1104/140
f 267/1105/165 268/1106/166 244/1107/142 243/1108/141
f 268/1109/166 269/1110/167 245/1111/143 244/1112/142
f 269/1113/167 270/1114/168 246/1115/144 245/1116/143
f 270/1117/168 271/1118/169 247/1119/145 246/1120/144
f 271/1121/169 272/1122/170 248/1123/146 247/1124/145
f 272/1125/170 249/1126/147 225/1127/123 248/1128/146
f 273/1129/171 274/1130/172 250/1131/148 249/1132/147
f 274/1133/172 275/1134/173 251/1135/149 250/1136/148
f 275/1137/173 276/1138/174 252/1139/150 251/1140/149
f 276/1141/174 277/1142/175 253/1143/151 252/1144/150
f 277/1145/175 278/1146/176 254/1147/152 253/1148/151
f 278/1149/176 279/1150/177 255/1151/153 254/1152/152
f 279/1153/177 280/1154/178 256/1155/154 255/1156/153
f 280/1157/178 281/1158/179 257/1159/155 256/1160/154
f 281/1161/179 282/1162/180 258/1163/156 257/1164/155
f 282/1165/180 283/1166/181 259/1167/157 258/1168/156
f 283/1169/181 284/1170/182 260/1171/158 259/1172/157
f 284/1173/182 285/1174/183 261/1175/159 260/1176/158
f 285/1177/183 286/1178/184 262/1179/160 261/1180/159
f 286/1181/184 287/1182/185 263/1183/161 262/1184/160
f 287/1185/185 288/1186/186 264/1187/162 263/1188/161
f 288/1189/186 289/1190/187 265/1191/163 264/1192/162
f 289/1193/187 290/1194/188 266/1195/164 265/1196/163
f 290/1197/188 291/1198/189 267/1199/165 266/1200/164
f 291/1201/189 292/1202/190 268/1203/166 267/1204/165
f 292/1205/190 293/1206/191 269/1207/167 268/1208/166
f 293/1209/191 294/1210/192 270/1211/168 269/1212/167
f 294/1213/192 295/1214/193 271/1215/169 270/1216/168
f 295/1217/193 296/1218/194 272/1219/170 271/1220/169
f 296/1221/194 273/1222/171 249/1223/147 272/1224/170
f 297/1225/195 298/1226/196 274/1227/172 273/1228/171
f 298/1229/196 299/1230/197 275/1231/173 274/1232/172
f 299/1233/197 300/1234/198 276/1235/174 275/1236/173
f 300/1237/198 301/1238/199 277/1239/175 276/1240/174
f 301/1241/199 302/1242/200 278/1243/176 277/1244/175
f 302/1245/200 303/1246/201 279/1247/177 278/1248/176
f 303/1249/201 304/1250/202 280/1251/178 279/1252/177
f 304/1253/202 305/1254/203 281/1255/179 280/1256/178
f 305/1257/203 306/1258/204 282/1259/180 281/1260/179
f 306/1261/204 307/1262/205 283/1263/181 282/1264/180
f 307/1265/205 308/1266/206 284/1267/182 283/1268/181
f 308/1269/206 309/1270/207 285/1271/183 284/1272/182
f 309/1273/207 310/1274/208 286/1275/184 285/1276/183
f 310/1277/208 311/1278/209 287/1279/185 286/1280/184
f 311/1281/209 312/1282/210 288/1283/186 287/1284/185
f 312/1285/210 313/1286/211 289/1287/187 288/1288/186
f 313/1289/211 314/1290/212 290/1291/188 289/1292/187
f 314/1293/212 315/1294/213 291/1295/189 290/1296/188
f 315/1297/213 316/1298/214 292/1299/190 291/1300/189
f 316/1301/214 317/1302/215 293/1303/191 292/1304/190
f 317/1305/215 318/1306/216 294/1307/192 293/1308/191
f 318/1309/216 319/1310/217 295/1311/193 294/1312/192
f 319/1313/217 320/1314/218 296/1315/194 295/1316/193
f 320/1317/218 297/1318/195 273/1319/171 296/1320/194
f 321/1321/219 322/1322/220 298/1323/196 297/1324/195
f 322/1325/220 323/1326/221 299/1327/197 298/1328/196
f 323/1329/221 324/1330/222 300/1331/198 299/1332/197
f 324/1333/222 325/1334/223 301/1335/199 300/1336/198
f 325/1337/223 326/1338/224 302/1339/200 301/1340/199
f 326/1341/224 327/1342/225 303/1343/201 302/1344/200
f 327/1345/225 328/1346/226 304/1347/202 303/1348/201
f 328/1349/226 329/1350/227 305/1351/203 304/1352/202
f 329/1353/227 330/1354/228 306/1355/204 305/1356/203
f 330/1357/228 331/1358/229 307/1359/205 306/1360/204
f 331/1361/229 332/1362/230 308/1363/206 307/1364/205
f 332/1365/230 333/1366/231 309/1367/207 308/1368/206
f 333/1369/231 334/1370/232 310/1371/208 309/1372/207
f 334/1373/232 335/1374/233 311/1375/209 310/1376/208
f 335/1377/233 336/1378/234 312/1379/210 311/1380/209
f 336/1381/234 337/1382/235 313/1383/211 312/1384/210
f 337/1385/235 338/1386/236 314/1387/212 313/1388/211
f 338/1389/236 339/1390/237 315/1391/213 314/1392/212
f 339/1393/237 340/1394/238 316/1395/214 315/1396/213
f 340/1397/238 341/1398/239 317/1399/215 316/1400/214
f 341/1401/239 342/1402/240 318/1403/216 317/1404/215
f 342/1405/240 343/1406/241 319/1407/217 318/1408/216
f 343/1409/241 344/1410/242 320/1411/218 319/1412/217
f 344/1413/242 321/1414/219 297/1415/195 320/1416/218
f 345/1417/243 346/1418/244 322/1419/220 321/1420/219
f 346/1421/244 347/1422/245 323/1423/221 322/1424/220
f 347/1425/245 348/1426/246 324/1427/222 323/1428/221
f 348/1429/246 349/1430/247 325/1431/223 324/1432/222
f 349/1433/247 350/1434/248 326/1435/224 325/1436/223
f 350/1437/248 351/1438/249 327/1439/225 326/1440/224
f 351/1441/249 352/1442/250 328/1443/226 327/1444/225
f 352/1445/250 353/1446/251 329/1447/227 328/1448/226
f 353/1449/251 354/1450/252 330/1451/228 329/1452/227
f 354/1453/252 355/1454/253 331/1455/229 330/1456/228
f 355/1457/253 356/1458/254 332/1459/230 331/1460/229
f 356/1461/254 357/1462/255 333/1463/231 332/1464/230
f 357/1465/255 358/1466/256 334/1467/232 333/1468/231
f 358/1469/256 359/1470/257 335/1471/233 334/1472/232
f 359/1473/257 360/1474/258 336/1475/234 335/1476/233
f 360/1477/258 361/1478/259 337/1479/235 336/1480/234
f 361/1481/259 362/1482/260 338/1483/236 337/1484/235
f 362/1485/260 363/1486/261 339/1487/237 338/1488/236
f 363/1489/261 364/1490/262 340/1491/238 339/1492/237
f 364/1493/262 365/1494/263 341/1495/239 340/1496/238
f 365/1497/263 366/1498/264 342/1499/240 341/1500/239
f 366/1501/264 367/1502/265 343/1503/241 342/1504/240
f 367/1505/265 368/1506/266 344/1507/242 343/1508/241
f 368/1509/266 345/1510/243 321/1511/219 344/1512/242
f 346/1513/244 345/1514/243 370/1515/267
f 347/1516/245 346/1517/244 370/1518/268
f 348/1519/246 347/1520/245 370/1521/269
f 349/1522/247 348/1523/246 370/1524/270
f 350/1525/248 349/1526/247 370/1527/271
f 351/1528/249 350/1529/248 370/1530/272
f 352/1531/250 351/1532/249 370/1533/273
f 353/1534/251 352/1535/250 370/1536/274
f 354/1537/252 353/1538/251 370/1539/275
f 355/1540/253 354/1541/252 370/1542/276
f 356/1543/254 355/1544/253 370/1545/277
f 357/1546/255 356/1547/254 370/1548/278
f 358/1549/256 357/1550/255 370/1551/279
f 359/1552/257 358/1553/256 370/1554/280
f 360/1555/258 359/1556/257 370/1557/281
f 361/1558/259 360/1559/258 370/1560/282
f 362/1561/260 361/1562/259 370/1563/283
f 363/1564/261 362/1565/260 370/1566/284
f 364/1567/262 363/1568/261 370/1569/285
f 365/1570/263 364/1571/262 370/1572/286
f 366/1573/264 365/1574/263 370/1575/287
f 367/1576/265 366/1577/264 370/1578/288
f 368/1579/266 367/1580/265 370/1581/289
f 345/1582/243 368/1583/266 370/1584/290
