mtllib missile_micro.mtl
# Blender v2.79 (sub 0) OBJ File: 'missile_micro.blend'
# www.blender.org
o Circle
usemtl missile_texture
v 0.164063 4.750000 -0.284164
v 0.284165 4.750000 -0.164062
v 0.328125 4.750000 0.000000
v 0.284165 4.750000 0.164063
v 0.164062 4.750000 0.284165
v -0.000000 4.750000 0.328125
v -0.164063 4.750000 0.284165
v -0.284165 4.750000 0.164063
v -0.328125 4.750000 0.000000
v -0.284165 4.750000 -0.164062
v -0.164062 4.750000 -0.284165
v 0.000000 4.750000 -0.328125
v 0.000000 0.000000 -0.375000
v -0.187500 0.000000 -0.324760
v -0.324760 0.000000 -0.187500
v -0.375000 0.000000 0.000000
v -0.324760 0.000000 0.187500
v -0.187500 0.000000 0.324760
v -0.000000 0.000000 0.375000
v 0.187500 0.000000 0.324760
v 0.324759 0.000000 0.187500
v 0.375000 0.000000 0.000000
v 0.324760 0.000000 -0.187500
v 0.187500 0.000000 -0.324759
v 0.000000 1.500000 -0.375000
v -0.187500 1.500000 -0.324760
v -0.324760 1.500000 -0.187500
v -0.375000 1.500000 0.000000
v -0.324760 1.500000 0.187500
v -0.187500 1.500000 0.324760
v -0.000000 1.500000 0.375000
v 0.187500 1.500000 0.324760
v 0.324759 1.500000 0.187500
v 0.375000 1.500000 0.000000
v 0.324760 1.500000 -0.187500
v 0.187500 1.500000 -0.324759
v 0.000000 1.500000 -0.312500
v -0.156250 1.500000 -0.270633
v -0.270633 1.500000 -0.156250
v -0.312500 1.500000 0.000000
v -0.270633 1.500000 0.156250
v -0.156250 1.500000 0.270633
v -0.000000 1.500000 0.312500
v 0.156250 1.500000 0.270633
v 0.270633 1.500000 0.156250
v 0.312500 1.500000 0.000000
v 0.270633 1.500000 -0.156250
v 0.156250 1.500000 -0.270633
v 0.000000 1.750000 -0.312500
v -0.156250 1.750000 -0.270633
v -0.270633 1.750000 -0.156250
v -0.312500 1.750000 0.000000
v -0.270633 1.750000 0.156250
v -0.156250 1.750000 0.270633
v -0.000000 1.750000 0.312500
v 0.156250 1.750000 0.270633
v 0.270633 1.750000 0.156250
v 0.312500 1.750000 0.000000
v 0.270633 1.750000 -0.156250
v 0.156250 1.750000 -0.270633
v 0.000000 1.750000 -0.375000
v -0.187500 1.750000 -0.324760
v -0.324760 1.750000 -0.187500
v -0.375000 1.750000 0.000000
v -0.324760 1.750000 0.187500
v -0.187500 1.750000 0.324760
v -0.000000 1.750000 0.375000
v 0.187500 1.750000 0.324760
v 0.324759 1.750000 0.187500
v 0.375000 1.750000 0.000000
v 0.324760 1.750000 -0.187500
v 0.187500 1.750000 -0.324759
v 0.000000 2.500000 -0.375000
v -0.187500 2.500000 -0.324760
v -0.324760 2.500000 -0.187500
v -0.375000 2.500000 0.000000
v -0.324760 2.500000 0.187500
v -0.187500 2.500000 0.324760
v -0.000000 2.500000 0.375000
v 0.187500 2.500000 0.324760
v 0.324759 2.500000 0.187500
v 0.375000 2.500000 0.000000
v 0.324760 2.500000 -0.187500
v 0.187500 2.500000 -0.324759
v 0.000000 2.500000 -0.312500
v -0.156250 2.500000 -0.270633
v -0.270633 2.500000 -0.156250
v -0.312500 2.500000 0.000000
v -0.270633 2.500000 0.156250
v -0.156250 2.500000 0.270633
v -0.000000 2.500000 0.312500
v 0.156250 2.500000 0.270633
v 0.270633 2.500000 0.156250
v 0.312500 2.500000 0.000000
v 0.270633 2.500000 -0.156250
v 0.156250 2.500000 -0.270633
v 0.000000 2.750000 -0.312500
v -0.156250 2.750000 -0.270633
v -0.270633 2.750000 -0.156250
v -0.312500 2.750000 0.000000
v -0.270633 2.750000 0.156250
v -0.156250 2.750000 0.270633
v -0.000000 2.750000 0.312500
v 0.156250 2.750000 0.270633
v 0.270633 2.750000 0.156250
v 0.312500 2.750000 0.000000
v 0.270633 2.750000 -0.156250
v 0.156250 2.750000 -0.270633
v 0.000000 2.750000 -0.375000
v -0.187500 2.750000 -0.324760
v -0.324760 2.750000 -0.187500
v -0.375000 2.750000 0.000000
v -0.324760 2.750000 0.187500
v -0.187500 2.750000 0.324760
v -0.000000 2.750000 0.375000
v 0.187500 2.750000 0.324760
v 0.324759 2.750000 0.187500
v 0.375000 2.750000 0.000000
v 0.324760 2.750000 -0.187500
v 0.187500 2.750000 -0.324759
v 0.000000 3.500000 -0.375000
v -0.187500 3.500000 -0.324760
v -0.324760 3.500000 -0.187500
v -0.375000 3.500000 0.000000
v -0.324760 3.500000 0.187500
v -0.187500 3.500000 0.324760
v -0.000000 3.500000 0.375000
v 0.187500 3.500000 0.324760
v 0.324759 3.500000 0.187500
v 0.375000 3.500000 0.000000
v 0.324760 3.500000 -0.187500
v 0.187500 3.500000 -0.324759
v 0.000000 3.500000 -0.312500
v -0.156250 3.500000 -0.270633
v -0.270633 3.500000 -0.156250
v -0.312500 3.500000 0.000000
v -0.270633 3.500000 0.156250
v -0.156250 3.500000 0.270633
v -0.000000 3.500000 0.312500
v 0.156250 3.500000 0.270633
v 0.270633 3.500000 0.156250
v 0.312500 3.500000 0.000000
v 0.270633 3.500000 -0.156250
v 0.156250 3.500000 -0.270633
v 0.000000 3.750000 -0.312500
v -0.156250 3.750000 -0.270633
v -0.270633 3.750000 -0.156250
v -0.312500 3.750000 0.000000
v -0.270633 3.750000 0.156250
v -0.156250 3.750000 0.270633
v -0.000000 3.750000 0.312500
v 0.156250 3.750000 0.270633
v 0.270633 3.750000 0.156250
v 0.312500 3.750000 0.000000
v 0.270633 3.750000 -0.156250
v 0.156250 3.750000 -0.270633
v 0.000000 3.750000 -0.375000
v -0.187500 3.750000 -0.324760
v -0.324760 3.750000 -0.187500
v -0.375000 3.750000 0.000000
v -0.324760 3.750000 0.187500
v -0.187500 3.750000 0.324760
v -0.000000 3.750000 0.375000
v 0.187500 3.750000 0.324760
v 0.324759 3.750000 0.187500
v 0.375000 3.750000 0.000000
v 0.324760 3.750000 -0.187500
v 0.187500 3.750000 -0.324759
v 0.000000 4.500000 -0.375000
v -0.187500 4.500000 -0.324760
v -0.324760 4.500000 -0.187500
v -0.375000 4.500000 0.000000
v -0.324760 4.500000 0.187500
v -0.187500 4.500000 0.324760
v -0.000000 4.500000 0.375000
v 0.187500 4.500000 0.324760
v 0.324759 4.500000 0.187500
v 0.375000 4.500000 0.000000
v 0.324760 4.500000 -0.187500
v 0.187500 4.500000 -0.324759
v 0.000000 5.000000 0.000000
v -0.198874 1.531250 -0.154680
v -0.198874 0.031250 -0.154680
v -0.154680 1.531250 -0.198874
v -0.154680 0.031250 -0.198874
v -0.530330 1.031250 -0.530330
v -0.530330 0.031250 -0.530330
v 0.530330 0.031250 0.530330
v 0.530330 1.031250 0.530330
v 0.154680 0.031250 0.198874
v 0.154680 1.531250 0.198874
v 0.198874 0.031250 0.154680
v 0.198874 1.531250 0.154680
v -0.154680 1.531250 0.198874
v -0.154680 0.031250 0.198874
v -0.198874 1.531250 0.154680
v -0.198874 0.031250 0.154680
v -0.530330 1.031250 0.530330
v -0.530330 0.031250 0.530330
v 0.530330 0.031250 -0.530330
v 0.530330 1.031250 -0.530330
v 0.198874 0.031250 -0.154680
v 0.198874 1.531250 -0.154680
v 0.154680 0.031250 -0.198874
v 0.154680 1.531250 -0.198874
v 0.000000 0.000000 -0.250000
v -0.125000 0.000000 -0.216506
v -0.216506 0.000000 -0.125000
v -0.250000 0.000000 0.000000
v -0.216506 0.000000 0.125000
v -0.125000 0.000000 0.216506
v -0.000000 0.000000 0.250000
v 0.125000 0.000000 0.216506
v 0.216506 0.000000 0.125000
v 0.250000 0.000000 0.000000
v 0.216506 0.000000 -0.125000
v 0.125000 0.000000 -0.216506
v -0.000000 0.500000 0.000000
v 0.334759 2.937500 0.187500
v 0.385000 2.937500 0.000000
v 0.334760 2.937500 -0.187500
v 0.334759 3.312500 0.187500
v 0.385000 3.312500 0.000000
v 0.334760 3.312500 -0.187500
v -0.334760 2.937500 -0.187500
v -0.385000 2.937500 -0.000000
v -0.334760 2.937500 0.187500
v -0.334760 3.312500 -0.187500
v -0.385000 3.312500 -0.000000
v -0.334760 3.312500 0.187500
vt 0.576923 0.354167
vt 0.634615 0.364583
vt 0.576923 0.364583
vt 0.634615 0.354167
vt 0.692308 0.364583
vt 0.057692 0.354167
vt 0.000000 0.364583
vt 0.000000 0.354167
vt 0.115385 0.354167
vt 0.057692 0.364583
vt 0.173077 0.354167
vt 0.115385 0.364583
vt 0.230769 0.354167
vt 0.173077 0.364583
vt 0.288462 0.354167
vt 0.230769 0.364583
vt 0.346154 0.354167
vt 0.288462 0.364583
vt 0.403846 0.364583
vt 0.346154 0.364583
vt 0.403846 0.354167
vt 0.461538 0.364583
vt 0.519231 0.354167
vt 0.461538 0.354167
vt 0.519231 0.364583
vt 0.519231 0.406250
vt 0.461538 0.416667
vt 0.461538 0.406250
vt 0.576923 0.406250
vt 0.519231 0.416667
vt 0.634615 0.406250
vt 0.576923 0.416667
vt 0.692308 0.406250
vt 0.634615 0.416667
vt 0.057692 0.406250
vt 0.000000 0.416667
vt 0.000000 0.406250
vt 0.115385 0.416667
vt 0.057692 0.416667
vt 0.115385 0.406250
vt 0.173077 0.416667
vt 0.230769 0.406250
vt 0.173077 0.406250
vt 0.288462 0.406250
vt 0.230769 0.416667
vt 0.346154 0.416667
vt 0.288462 0.416667
vt 0.403846 0.406250
vt 0.346154 0.406250
vt 0.403846 0.416667
vt 0.519231 0.593750
vt 0.461538 0.604167
vt 0.461538 0.593750
vt 0.576923 0.593750
vt 0.519231 0.604167
vt 0.634615 0.593750
vt 0.576923 0.604167
vt 0.692308 0.593750
vt 0.634615 0.604167
vt 0.057692 0.593750
vt 0.000000 0.604167
vt 0.000000 0.593750
vt 0.115385 0.604167
vt 0.057692 0.604167
vt 0.115385 0.593750
vt 0.173077 0.604167
vt 0.230769 0.593750
vt 0.173077 0.593750
vt 0.288462 0.593750
vt 0.230769 0.604167
vt 0.346154 0.604167
vt 0.288462 0.604167
vt 0.403846 0.593750
vt 0.346154 0.593750
vt 0.403846 0.604167
vt 0.519231 0.781250
vt 0.461538 0.791667
vt 0.461538 0.781250
vt 0.576923 0.781250
vt 0.519231 0.791667
vt 0.634615 0.781250
vt 0.576923 0.791667
vt 0.692308 0.781250
vt 0.634615 0.791667
vt 0.057692 0.781250
vt 0.000000 0.791667
vt 0.000000 0.781250
vt 0.115385 0.791667
vt 0.057692 0.791667
vt 0.115385 0.781250
vt 0.173077 0.791667
vt 0.230769 0.781250
vt 0.173077 0.781250
vt 0.288462 0.781250
vt 0.230769 0.791667
vt 0.346154 0.791667
vt 0.288462 0.791667
vt 0.403846 0.781250
vt 0.346154 0.781250
vt 0.403846 0.791667
vt 0.519231 0.541667
vt 0.461538 0.552083
vt 0.461538 0.541667
vt 0.576923 0.541667
vt 0.519231 0.552083
vt 0.634615 0.552083
vt 0.576923 0.552083
vt 0.634615 0.541667
vt 0.692308 0.552083
vt 0.057692 0.541667
vt 0.000000 0.552083
vt 0.000000 0.541667
vt 0.115385 0.541667
vt 0.057692 0.552083
vt 0.173077 0.541667
vt 0.115385 0.552083
vt 0.230769 0.541667
vt 0.173077 0.552083
vt 0.288462 0.541667
vt 0.230769 0.552083
vt 0.346154 0.541667
vt 0.288462 0.552083
vt 0.403846 0.552083
vt 0.346154 0.552083
vt 0.403846 0.541667
vt 0.519231 0.729167
vt 0.461538 0.739583
vt 0.461538 0.729167
vt 0.576923 0.729167
vt 0.519231 0.739583
vt 0.634615 0.739583
vt 0.576923 0.739583
vt 0.634615 0.729167
vt 0.692308 0.739583
vt 0.057692 0.729167
vt 0.000000 0.739583
vt 0.000000 0.729167
vt 0.115385 0.729167
vt 0.057692 0.739583
vt 0.173077 0.729167
vt 0.115385 0.739583
vt 0.230769 0.729167
vt 0.173077 0.739583
vt 0.288462 0.729167
vt 0.230769 0.739583
vt 0.346154 0.729167
vt 0.288462 0.739583
vt 0.403846 0.739583
vt 0.346154 0.739583
vt 0.403846 0.729167
vt 0.846154 0.000000
vt 0.692308 0.010417
vt 0.692308 0.000000
vt 0.692308 0.260417
vt 0.846154 0.270833
vt 0.692308 0.270833
vt 0.692308 0.010417
vt 0.846154 0.177083
vt 0.846154 0.010417
vt 0.846154 0.177083
vt 0.692308 0.010417
vt 0.846154 0.010417
vt 0.692308 0.010417
vt 0.692308 0.260417
vt 0.846154 0.270833
vt 0.692308 0.270833
vt 0.846154 0.000000
vt 0.692308 0.000000
vt 0.846154 0.000000
vt 0.692308 0.010417
vt 0.692308 0.000000
vt 0.692308 0.260417
vt 0.846154 0.270833
vt 0.692308 0.270833
vt 0.692308 0.010417
vt 0.846154 0.177083
vt 0.846154 0.010417
vt 0.846154 0.177083
vt 0.692308 0.010417
vt 0.846154 0.010417
vt 0.692308 0.010417
vt 0.692308 0.260417
vt 0.846154 0.270833
vt 0.692308 0.270833
vt 0.846154 0.000000
vt 0.692308 0.000000
vt 0.346154 0.083333
vt 0.403846 0.104167
vt 0.346154 0.104167
vt 0.403846 0.083333
vt 0.461538 0.104167
vt 0.461538 0.083333
vt 0.519231 0.104167
vt 0.519231 0.083333
vt 0.576923 0.104167
vt 0.615385 0.083333
vt 0.634615 0.104167
vt 0.634615 0.083333
vt 0.692308 0.104167
vt 0.000000 0.083333
vt 0.057692 0.104167
vt 0.000000 0.104167
vt 0.057692 0.083333
vt 0.115385 0.104167
vt 0.115385 0.083333
vt 0.173077 0.104167
vt 0.173077 0.083333
vt 0.230769 0.104167
vt 0.230769 0.083333
vt 0.288462 0.104167
vt 0.288462 0.083333
vt 0.692308 0.354167
vt 0.692308 0.416667
vt 0.692308 0.604167
vt 0.692308 0.791667
vt 0.692308 0.541667
vt 0.692308 0.729167
vt 0.692308 0.260417
vt 0.692308 0.260417
vt 0.692308 0.260417
vt 0.692308 0.260417
vt 0.384615 0.083333
vt 0.442308 0.083333
vt 0.500000 0.083333
vt 0.557692 0.083333
vt 0.576923 0.083333
vt 0.673077 0.083333
vt 0.038462 0.083333
vt 0.096154 0.083333
vt 0.153846 0.083333
vt 0.211538 0.083333
vt 0.269231 0.083333
vt 0.326923 0.083333
vt 0.576923 0.916667
vt 0.000000 0.916667
vt 0.403846 0.916667
vt 0.230769 0.916667
vt 0.634615 0.916667
vt 0.057692 0.916667
vt 0.461538 0.916667
vt 0.288462 0.916667
vt 0.115385 0.916667
vt 0.519231 0.916667
vt 0.346154 0.916667
vt 0.173077 0.916667
vt 0.288462 0.958333
vt 0.115385 0.958333
vt 0.557692 0.958333
vt 0.519231 0.958333
vt 0.346154 0.958333
vt 0.211538 0.958333
vt 0.173077 0.958333
vt 0.576923 0.958333
vt 0.000000 0.958333
vt 0.442308 0.958333
vt 0.403846 0.958333
vt 0.230769 0.958333
vt 0.692308 0.916667
vt 0.634615 0.958333
vt 0.057692 0.958333
vt 0.461538 0.958333
vt 0.038462 0.958333
vt 0.019231 1.000000
vt 0.096154 0.958333
vt 0.076923 1.000000
vt 0.153846 0.958333
vt 0.134615 1.000000
vt 0.192308 1.000000
vt 0.269231 0.958333
vt 0.250000 1.000000
vt 0.326923 0.958333
vt 0.307692 1.000000
vt 0.384615 0.958333
vt 0.365385 1.000000
vt 0.423077 1.000000
vt 0.500000 0.958333
vt 0.480769 1.000000
vt 0.538462 1.000000
vt 0.615385 0.958333
vt 0.596154 1.000000
vt 0.673077 0.958333
vt 0.653846 1.000000
vt 0.019231 0.000000
vt 0.653846 0.000000
vt 0.596154 0.000000
vt 0.538462 0.000000
vt 0.480769 0.000000
vt 0.423077 0.000000
vt 0.365385 0.000000
vt 0.307692 0.000000
vt 0.250000 0.000000
vt 0.192308 0.000000
vt 0.134615 0.000000
vt 0.076923 0.000000
vt 0.846154 0.270833
vt 0.692308 0.437500
vt 0.692308 0.270833
vt 1.000000 0.270833
vt 0.846154 0.437500
vt 0.846154 0.270833
vt 0.692308 0.437500
vt 0.692308 0.270833
vt 1.000000 0.270833
vt 0.846154 0.437500
vt 1.000000 0.437500
vt 1.000000 0.437500
s off
vn 0.000000 1.000000 0.000000
vn 0.000000 -1.000000 0.000000
vn -0.500000 0.707106 -0.500000
vn -0.749838 0.000000 0.661622
vn 0.661622 0.000000 -0.749838
vn -0.661622 0.000000 0.749838
vn 0.749838 0.000000 -0.661622
vn 0.500000 0.707106 0.500000
vn -0.500000 0.707106 0.500000
vn 0.661622 0.000000 0.749838
vn -0.749838 0.000000 -0.661622
vn 0.749838 0.000000 0.661622
vn -0.661622 0.000000 -0.749838
vn 0.500000 0.707106 -0.500000
vn 0.907073 0.000000 -0.420974
vn 0.996035 0.000000 -0.088960
vn 0.996035 0.000000 0.088965
vn 0.420974 0.000000 0.907073
vn 0.088961 0.000000 0.996035
vn -0.088961 0.000000 0.996035
vn -0.907073 0.000000 0.420973
vn -0.996035 0.000000 0.088961
vn -0.996035 0.000000 -0.088961
vn 0.575060 0.000000 -0.818111
vn 0.818109 0.000000 -0.575063
vn -0.420973 0.000000 -0.907073
vn -0.088960 0.000000 -0.996035
vn 0.088965 0.000000 -0.996035
vn 0.818111 0.000000 0.575060
vn 0.575063 0.000000 0.818109
vn -0.575061 0.000000 0.818111
vn -0.818111 0.000000 0.575061
vn 0.420974 0.000000 -0.907073
vn -0.818111 0.000000 -0.575061
vn -0.575061 0.000000 -0.818111
vn 0.907073 0.000000 0.420974
vn -0.420973 0.000000 0.907073
vn -0.907073 0.000000 -0.420973
vn 0.826802 0.033981 -0.561465
vn -0.047842 0.045296 -0.997827
vn 0.552666 0.054955 0.831589
vn -0.826803 0.033980 0.561464
vn 0.457479 0.045296 -0.888066
vn -0.540348 0.045296 -0.840222
vn 0.899644 0.033980 0.435301
vn -0.457478 0.045296 0.888066
vn -0.888066 0.045297 -0.457478
vn 0.996510 0.054954 -0.062825
vn 0.047844 0.045296 0.997827
vn -0.996510 0.054955 0.062826
vn -0.379785 0.529325 0.758669
vn -0.758668 0.529325 -0.379787
vn 0.760280 0.478852 -0.438948
vn 0.800000 0.600000 0.000000
vn 0.050429 0.529325 0.846919
vn -0.760280 0.478852 0.438947
vn -0.800000 0.600000 0.000000
vn -0.050427 0.529325 -0.846919
vn 0.760280 0.478852 0.438948
vn 0.399998 0.600000 0.692821
vn 0.379788 0.529324 -0.758668
vn -0.467133 0.529325 -0.708239
vn -0.100333 0.921805 -0.374446
vn -0.274113 0.921805 -0.274114
vn -0.374445 0.921805 -0.100333
vn -0.374446 0.921805 0.100332
vn -0.274113 0.921805 0.274113
vn -0.100332 0.921805 0.374446
vn 0.100332 0.921805 0.374446
vn 0.274113 0.921805 0.274114
vn 0.374446 0.921805 0.100333
vn 0.374446 0.921805 -0.100332
vn 0.274113 0.921805 -0.274113
vn 0.100333 0.921805 -0.374446
vn 0.447214 -0.447213 0.774597
vn 0.000000 -0.447214 0.894427
vn 0.217298 -0.543244 0.810967
vn -0.447214 -0.447213 0.774597
vn -0.217298 -0.543244 0.810967
vn -0.774597 -0.447213 0.447214
vn -0.593669 -0.543245 0.593669
vn -0.894427 -0.447214 0.000000
vn -0.810967 -0.543244 0.217298
vn -0.774597 -0.447213 -0.447214
vn -0.810967 -0.543244 -0.217298
vn -0.447214 -0.447213 -0.774597
vn -0.593669 -0.543245 -0.593669
vn 0.000000 -0.447214 -0.894427
vn -0.217298 -0.543244 -0.810967
vn 0.447214 -0.447213 -0.774597
vn 0.217298 -0.543244 -0.810967
vn 0.774597 -0.447213 -0.447214
vn 0.593669 -0.543245 -0.593669
vn 0.894427 -0.447214 0.000000
vn 0.810967 -0.543244 -0.217298
vn 0.774597 -0.447213 0.447214
vn 0.810967 -0.543244 0.217298
vn 0.593669 -0.543245 0.593669
vn 0.965925 0.000000 0.258822
vn 0.965926 0.000000 -0.258817
vn -0.965926 0.000000 -0.258817
vn -0.965926 0.000000 0.258817
f 35/1/1 48/2/1 47/3/1
f 36/4/1 37/5/1 48/2/1
f 26/6/1 37/7/1 25/8/1
f 27/9/1 38/10/1 26/6/1
f 28/11/1 39/12/1 27/9/1
f 29/13/1 40/14/1 28/11/1
f 30/15/1 41/16/1 29/13/1
f 31/17/1 42/18/1 30/15/1
f 31/17/1 44/19/1 43/20/1
f 32/21/1 45/22/1 44/19/1
f 34/23/1 45/22/1 33/24/1
f 35/1/1 46/25/1 34/23/1
f 58/26/2 69/27/2 57/28/2
f 59/29/2 70/30/2 58/26/2
f 60/31/2 71/32/2 59/29/2
f 49/33/2 72/34/2 60/31/2
f 50/35/2 61/36/2 49/37/2
f 50/35/2 63/38/2 62/39/2
f 51/40/2 64/41/2 63/38/2
f 53/42/2 64/41/2 52/43/2
f 54/44/2 65/45/2 53/42/2
f 54/44/2 67/46/2 66/47/2
f 56/48/2 67/46/2 55/49/2
f 57/28/2 68/50/2 56/48/2
f 106/51/2 117/52/2 105/53/2
f 107/54/2 118/55/2 106/51/2
f 108/56/2 119/57/2 107/54/2
f 97/58/2 120/59/2 108/56/2
f 98/60/2 109/61/2 97/62/2
f 98/60/2 111/63/2 110/64/2
f 99/65/2 112/66/2 111/63/2
f 101/67/2 112/66/2 100/68/2
f 102/69/2 113/70/2 101/67/2
f 102/69/2 115/71/2 114/72/2
f 104/73/2 115/71/2 103/74/2
f 105/53/2 116/75/2 104/73/2
f 154/76/2 165/77/2 153/78/2
f 155/79/2 166/80/2 154/76/2
f 156/81/2 167/82/2 155/79/2
f 145/83/2 168/84/2 156/81/2
f 146/85/2 157/86/2 145/87/2
f 146/85/2 159/88/2 158/89/2
f 147/90/2 160/91/2 159/88/2
f 149/92/2 160/91/2 148/93/2
f 150/94/2 161/95/2 149/92/2
f 150/94/2 163/96/2 162/97/2
f 152/98/2 163/96/2 151/99/2
f 153/78/2 164/100/2 152/98/2
f 82/101/1 93/102/1 81/103/1
f 83/104/1 94/105/1 82/101/1
f 83/104/1 96/106/1 95/107/1
f 84/108/1 85/109/1 96/106/1
f 74/110/1 85/111/1 73/112/1
f 75/113/1 86/114/1 74/110/1
f 76/115/1 87/116/1 75/113/1
f 77/117/1 88/118/1 76/115/1
f 78/119/1 89/120/1 77/117/1
f 79/121/1 90/122/1 78/119/1
f 79/121/1 92/123/1 91/124/1
f 80/125/1 93/102/1 92/123/1
f 130/126/1 141/127/1 129/128/1
f 131/129/1 142/130/1 130/126/1
f 131/129/1 144/131/1 143/132/1
f 132/133/1 133/134/1 144/131/1
f 122/135/1 133/136/1 121/137/1
f 123/138/1 134/139/1 122/135/1
f 124/140/1 135/141/1 123/138/1
f 125/142/1 136/143/1 124/140/1
f 126/144/1 137/145/1 125/142/1
f 127/146/1 138/147/1 126/144/1
f 127/146/1 140/148/1 139/149/1
f 128/150/1 141/127/1 140/148/1
f 187/151/2 185/152/2 183/153/2
f 184/154/3 186/155/3 182/156/3
f 183/157/4 186/158/4 187/159/4
f 186/158/5 185/152/5 187/159/5
f 189/160/6 190/161/6 188/162/6
f 192/163/7 189/160/7 188/162/7
f 191/164/8 189/165/8 193/166/8
f 188/167/2 190/161/2 192/168/2
f 199/169/2 197/170/2 195/171/2
f 196/172/9 198/173/9 194/174/9
f 195/175/10 198/176/10 199/177/10
f 198/176/11 197/170/11 199/177/11
f 201/178/12 202/179/12 200/180/12
f 204/181/13 201/178/13 200/180/13
f 203/182/14 201/183/14 205/184/14
f 200/185/2 202/179/2 204/186/2
f 212/187/2 20/188/2 19/189/2
f 213/190/2 21/191/2 20/188/2
f 214/192/2 22/193/2 21/191/2
f 215/194/2 23/195/2 22/193/2
f 23/195/2 217/196/2 24/197/2
f 217/198/2 13/199/2 24/197/2
f 206/200/2 14/201/2 13/202/2
f 207/203/2 15/204/2 14/201/2
f 208/205/2 16/206/2 15/204/2
f 209/207/2 17/208/2 16/206/2
f 210/209/2 18/210/2 17/208/2
f 211/211/2 19/189/2 18/210/2
f 35/1/1 36/4/1 48/2/1
f 36/4/1 25/212/1 37/5/1
f 26/6/1 38/10/1 37/7/1
f 27/9/1 39/12/1 38/10/1
f 28/11/1 40/14/1 39/12/1
f 29/13/1 41/16/1 40/14/1
f 30/15/1 42/18/1 41/16/1
f 31/17/1 43/20/1 42/18/1
f 31/17/1 32/21/1 44/19/1
f 32/21/1 33/24/1 45/22/1
f 34/23/1 46/25/1 45/22/1
f 35/1/1 47/3/1 46/25/1
f 58/26/2 70/30/2 69/27/2
f 59/29/2 71/32/2 70/30/2
f 60/31/2 72/34/2 71/32/2
f 49/33/2 61/213/2 72/34/2
f 50/35/2 62/39/2 61/36/2
f 50/35/2 51/40/2 63/38/2
f 51/40/2 52/43/2 64/41/2
f 53/42/2 65/45/2 64/41/2
f 54/44/2 66/47/2 65/45/2
f 54/44/2 55/49/2 67/46/2
f 56/48/2 68/50/2 67/46/2
f 57/28/2 69/27/2 68/50/2
f 106/51/2 118/55/2 117/52/2
f 107/54/2 119/57/2 118/55/2
f 108/56/2 120/59/2 119/57/2
f 97/58/2 109/214/2 120/59/2
f 98/60/2 110/64/2 109/61/2
f 98/60/2 99/65/2 111/63/2
f 99/65/2 100/68/2 112/66/2
f 101/67/2 113/70/2 112/66/2
f 102/69/2 114/72/2 113/70/2
f 102/69/2 103/74/2 115/71/2
f 104/73/2 116/75/2 115/71/2
f 105/53/2 117/52/2 116/75/2
f 154/76/2 166/80/2 165/77/2
f 155/79/2 167/82/2 166/80/2
f 156/81/2 168/84/2 167/82/2
f 145/83/2 157/215/2 168/84/2
f 146/85/2 158/89/2 157/86/2
f 146/85/2 147/90/2 159/88/2
f 147/90/2 148/93/2 160/91/2
f 149/92/2 161/95/2 160/91/2
f 150/94/2 162/97/2 161/95/2
f 150/94/2 151/99/2 163/96/2
f 152/98/2 164/100/2 163/96/2
f 153/78/2 165/77/2 164/100/2
f 82/101/1 94/105/1 93/102/1
f 83/104/1 95/107/1 94/105/1
f 83/104/1 84/108/1 96/106/1
f 84/108/1 73/216/1 85/109/1
f 74/110/1 86/114/1 85/111/1
f 75/113/1 87/116/1 86/114/1
f 76/115/1 88/118/1 87/116/1
f 77/117/1 89/120/1 88/118/1
f 78/119/1 90/122/1 89/120/1
f 79/121/1 91/124/1 90/122/1
f 79/121/1 80/125/1 92/123/1
f 80/125/1 81/103/1 93/102/1
f 130/126/1 142/130/1 141/127/1
f 131/129/1 143/132/1 142/130/1
f 131/129/1 132/133/1 144/131/1
f 132/133/1 121/217/1 133/134/1
f 122/135/1 134/139/1 133/136/1
f 123/138/1 135/141/1 134/139/1
f 124/140/1 136/143/1 135/141/1
f 125/142/1 137/145/1 136/143/1
f 126/144/1 138/147/1 137/145/1
f 127/146/1 139/149/1 138/147/1
f 127/146/1 128/150/1 140/148/1
f 128/150/1 129/128/1 141/127/1
f 183/157/4 182/218/4 186/158/4
f 186/158/5 184/154/5 185/152/5
f 189/160/6 191/164/6 190/161/6
f 192/163/7 193/219/7 189/160/7
f 195/175/10 194/220/10 198/176/10
f 198/176/11 196/172/11 197/170/11
f 201/178/12 203/182/12 202/179/12
f 204/181/13 205/221/13 201/178/13
f 212/187/2 213/222/2 20/188/2
f 213/190/2 214/223/2 21/191/2
f 214/192/2 215/224/2 22/193/2
f 215/194/2 216/225/2 23/195/2
f 23/195/2 216/226/2 217/196/2
f 217/198/2 206/227/2 13/199/2
f 206/200/2 207/228/2 14/201/2
f 207/203/2 208/229/2 15/204/2
f 208/205/2 209/230/2 16/206/2
f 209/207/2 210/231/2 17/208/2
f 210/209/2 211/232/2 18/210/2
f 211/211/2 212/233/2 19/189/2
s 1
f 23/195/15 34/23/16 22/193/17
f 20/188/18 31/17/19 19/189/20
f 17/208/21 28/11/22 16/206/23
f 24/197/24 35/1/25 23/195/15
f 14/201/26 25/8/27 13/202/28
f 21/191/29 32/21/30 20/188/18
f 18/210/31 29/13/32 17/208/21
f 13/199/28 36/4/33 24/197/24
f 15/204/34 26/6/35 14/201/26
f 22/193/17 33/24/36 21/191/29
f 19/189/20 30/15/37 18/210/31
f 16/206/23 27/9/38 15/204/34
f 45/22/29 56/48/30 44/19/18
f 42/18/31 53/42/32 41/16/21
f 37/5/28 60/31/33 48/2/24
f 39/12/34 50/35/35 38/10/26
f 46/25/17 57/28/36 45/22/29
f 43/20/20 54/44/37 42/18/31
f 40/14/23 51/40/38 39/12/34
f 47/3/15 58/26/16 46/25/17
f 44/19/18 55/49/19 43/20/20
f 41/16/21 52/43/22 40/14/23
f 48/2/24 59/29/25 47/3/15
f 38/10/26 49/37/27 37/7/28
f 72/34/24 83/104/25 71/32/15
f 62/39/26 73/112/27 61/36/28
f 69/27/29 80/125/30 68/50/18
f 66/47/31 77/117/32 65/45/21
f 61/213/28 84/108/33 72/34/24
f 63/38/34 74/110/35 62/39/26
f 70/30/17 81/103/36 69/27/29
f 67/46/20 78/119/37 66/47/31
f 64/41/23 75/113/38 63/38/34
f 71/32/15 82/101/16 70/30/17
f 68/50/18 79/121/19 67/46/20
f 65/45/21 76/115/22 64/41/23
f 93/102/29 104/73/30 92/123/18
f 90/122/31 101/67/32 89/120/21
f 85/109/28 108/56/33 96/106/24
f 87/116/34 98/60/35 86/114/26
f 94/105/17 105/53/36 93/102/29
f 91/124/20 102/69/37 90/122/31
f 88/118/23 99/65/38 87/116/34
f 95/107/15 106/51/16 94/105/17
f 92/123/18 103/74/19 91/124/20
f 89/120/21 100/68/22 88/118/23
f 96/106/24 107/54/25 95/107/15
f 86/114/26 97/62/27 85/111/28
f 120/59/24 131/129/25 119/57/15
f 110/64/26 121/137/27 109/61/28
f 117/52/29 128/150/30 116/75/18
f 114/72/31 125/142/32 113/70/21
f 109/214/28 132/133/33 120/59/24
f 111/63/34 122/135/35 110/64/26
f 118/55/17 129/128/36 117/52/29
f 115/71/20 126/144/37 114/72/31
f 112/66/23 123/138/38 111/63/34
f 119/57/15 130/126/16 118/55/17
f 116/75/18 127/146/19 115/71/20
f 113/70/21 124/140/22 112/66/23
f 141/127/29 152/98/30 140/148/18
f 138/147/31 149/92/32 137/145/21
f 133/134/28 156/81/33 144/131/24
f 135/141/34 146/85/35 134/139/26
f 142/130/17 153/78/36 141/127/29
f 139/149/20 150/94/37 138/147/31
f 136/143/23 147/90/38 135/141/34
f 143/132/15 154/76/16 142/130/17
f 140/148/18 151/99/19 139/149/20
f 137/145/21 148/93/22 136/143/23
f 144/131/24 155/79/25 143/132/15
f 134/139/26 145/87/27 133/136/28
f 168/84/24 179/234/39 167/82/15
f 158/89/26 169/235/40 157/86/28
f 165/77/29 176/236/41 164/100/18
f 162/97/31 173/237/42 161/95/21
f 157/215/28 180/238/43 168/84/24
f 159/88/34 170/239/44 158/89/26
f 166/80/17 177/240/45 165/77/29
f 163/96/20 174/241/46 162/97/31
f 160/91/23 171/242/47 159/88/34
f 167/82/15 178/243/48 166/80/17
f 164/100/18 175/244/49 163/96/20
f 161/95/21 172/245/50 160/91/23
f 175/244/49 7/246/51 174/241/46
f 172/245/50 10/247/52 171/242/47
f 178/243/48 2/248/53 3/249/54
f 176/236/41 6/250/55 175/244/49
f 172/245/50 8/251/56 9/252/57
f 180/238/43 2/253/53 179/234/39
f 170/239/44 12/254/58 169/235/40
f 176/236/41 4/255/59 5/256/60
f 174/241/46 8/257/56 173/237/42
f 169/258/40 1/259/61 180/238/43
f 171/242/47 11/260/62 170/239/44
f 178/243/48 4/261/59 177/240/45
f 12/254/58 11/262/62 181/263/63
f 11/260/62 10/264/52 181/265/64
f 10/247/52 9/266/57 181/267/65
f 9/252/57 8/251/56 181/268/66
f 8/257/56 7/269/51 181/270/67
f 7/246/51 6/271/55 181/272/68
f 6/250/55 5/273/60 181/274/69
f 5/256/60 4/255/59 181/275/70
f 4/261/59 3/276/54 181/277/71
f 3/249/54 2/248/53 181/278/72
f 2/253/53 1/279/61 181/280/73
f 1/259/61 12/281/58 181/282/74
f 207/228/75 206/200/76 218/283/77
f 206/227/76 217/198/78 218/284/79
f 217/196/78 216/226/80 218/285/81
f 216/225/80 215/194/82 218/286/83
f 215/224/82 214/192/84 218/287/85
f 214/223/84 213/190/86 218/288/87
f 213/222/86 212/187/88 218/289/89
f 212/233/88 211/211/90 218/290/91
f 211/232/90 210/209/92 218/291/93
f 210/231/92 209/207/94 218/292/95
f 209/230/94 208/205/96 218/293/97
f 208/229/96 207/203/75 218/294/98
f 220/295/17 222/296/99 219/297/99
f 221/298/100 223/299/16 220/295/17
f 226/300/23 228/301/101 225/302/101
f 227/303/102 229/304/22 226/300/23
f 23/195/15 35/1/25 34/23/16
f 20/188/18 32/21/30 31/17/19
f 17/208/21 29/13/32 28/11/22
f 24/197/24 36/4/33 35/1/25
f 14/201/26 26/6/35 25/8/27
f 21/191/29 33/24/36 32/21/30
f 18/210/31 30/15/37 29/13/32
f 13/199/28 25/212/27 36/4/33
f 15/204/34 27/9/38 26/6/35
f 22/193/17 34/23/16 33/24/36
f 19/189/20 31/17/19 30/15/37
f 16/206/23 28/11/22 27/9/38
f 45/22/29 57/28/36 56/48/30
f 42/18/31 54/44/37 53/42/32
f 37/5/28 49/33/27 60/31/33
f 39/12/34 51/40/38 50/35/35
f 46/25/17 58/26/16 57/28/36
f 43/20/20 55/49/19 54/44/37
f 40/14/23 52/43/22 51/40/38
f 47/3/15 59/29/25 58/26/16
f 44/19/18 56/48/30 55/49/19
f 41/16/21 53/42/32 52/43/22
f 48/2/24 60/31/33 59/29/25
f 38/10/26 50/35/35 49/37/27
f 72/34/24 84/108/33 83/104/25
f 62/39/26 74/110/35 73/112/27
f 69/27/29 81/103/36 80/125/30
f 66/47/31 78/119/37 77/117/32
f 61/213/28 73/216/27 84/108/33
f 63/38/34 75/113/38 74/110/35
f 70/30/17 82/101/16 81/103/36
f 67/46/20 79/121/19 78/119/37
f 64/41/23 76/115/22 75/113/38
f 71/32/15 83/104/25 82/101/16
f 68/50/18 80/125/30 79/121/19
f 65/45/21 77/117/32 76/115/22
f 93/102/29 105/53/36 104/73/30
f 90/122/31 102/69/37 101/67/32
f 85/109/28 97/58/27 108/56/33
f 87/116/34 99/65/38 98/60/35
f 94/105/17 106/51/16 105/53/36
f 91/124/20 103/74/19 102/69/37
f 88/118/23 100/68/22 99/65/38
f 95/107/15 107/54/25 106/51/16
f 92/123/18 104/73/30 103/74/19
f 89/120/21 101/67/32 100/68/22
f 96/106/24 108/56/33 107/54/25
f 86/114/26 98/60/35 97/62/27
f 120/59/24 132/133/33 131/129/25
f 110/64/26 122/135/35 121/137/27
f 117/52/29 129/128/36 128/150/30
f 114/72/31 126/144/37 125/142/32
f 109/214/28 121/217/27 132/133/33
f 111/63/34 123/138/38 122/135/35
f 118/55/17 130/126/16 129/128/36
f 115/71/20 127/146/19 126/144/37
f 112/66/23 124/140/22 123/138/38
f 119/57/15 131/129/25 130/126/16
f 116/75/18 128/150/30 127/146/19
f 113/70/21 125/142/32 124/140/22
f 141/127/29 153/78/36 152/98/30
f 138/147/31 150/94/37 149/92/32
f 133/134/28 145/83/27 156/81/33
f 135/141/34 147/90/38 146/85/35
f 142/130/17 154/76/16 153/78/36
f 139/149/20 151/99/19 150/94/37
f 136/143/23 148/93/22 147/90/38
f 143/132/15 155/79/25 154/76/16
f 140/148/18 152/98/30 151/99/19
f 137/145/21 149/92/32 148/93/22
f 144/131/24 156/81/33 155/79/25
f 134/139/26 146/85/35 145/87/27
f 168/84/24 180/238/43 179/234/39
f 158/89/26 170/239/44 169/235/40
f 165/77/29 177/240/45 176/236/41
f 162/97/31 174/241/46 173/237/42
f 157/215/28 169/258/40 180/238/43
f 159/88/34 171/242/47 170/239/44
f 166/80/17 178/243/48 177/240/45
f 163/96/20 175/244/49 174/241/46
f 160/91/23 172/245/50 171/242/47
f 167/82/15 179/234/39 178/243/48
f 164/100/18 176/236/41 175/244/49
f 161/95/21 173/237/42 172/245/50
f 175/244/49 6/271/55 7/246/51
f 172/245/50 9/266/57 10/247/52
f 178/243/48 179/234/39 2/248/53
f 176/236/41 5/273/60 6/250/55
f 172/245/50 173/237/42 8/251/56
f 180/238/43 1/279/61 2/253/53
f 170/239/44 11/262/62 12/254/58
f 176/236/41 177/240/45 4/255/59
f 174/241/46 7/269/51 8/257/56
f 169/258/40 12/281/58 1/259/61
f 171/242/47 10/264/52 11/260/62
f 178/243/48 3/276/54 4/261/59
f 220/295/17 223/299/16 222/296/99
f 221/298/100 224/305/100 223/299/16
f 226/300/23 229/304/22 228/301/101
f 227/303/102 230/306/102 229/304/22
