mtllib missilebooster.mtl
# Blender v2.76 (sub 0) OBJ File: 'carrier_booster.blend'
# www.blender.org
o Cylinder
usemtl missile_texture
v 0.000000 1.000000 -0.500000
v 0.000000 8.000000 -0.500000
v 0.250000 1.000000 -0.433013
v 0.250000 8.000000 -0.433013
v 0.433013 1.000000 -0.250000
v 0.433013 8.000000 -0.250000
v 0.500000 1.000000 0.000000
v 0.500000 8.000000 0.000000
v 0.433013 1.000000 0.250000
v 0.433013 8.000000 0.250000
v 0.250000 1.000000 0.433013
v 0.250000 8.000000 0.433013
v 0.000000 1.000000 0.500000
v 0.000000 8.000000 0.500000
v -0.250000 1.000000 0.433013
v -0.250000 8.000000 0.433013
v -0.433013 1.000000 0.250000
v -0.433013 8.000000 0.250000
v -0.500000 1.000000 0.000000
v -0.500000 8.000000 0.000000
v -0.433013 1.000000 -0.250000
v -0.433013 8.000000 -0.250000
v -0.250000 1.000000 -0.433013
v -0.250000 8.000000 -0.433013
v 0.200001 8.500000 -0.346410
v 0.000001 8.500000 -0.400000
v 0.346411 8.500000 -0.200000
v 0.400001 8.500000 0.000000
v 0.346411 8.500000 0.200000
v 0.200001 8.500000 0.346410
v 0.000001 8.500000 0.400000
v -0.199999 8.500000 0.346410
v -0.346409 8.500000 0.200000
v -0.399999 8.500000 0.000000
v -0.346409 8.500000 -0.200000
v -0.199999 8.500000 -0.346410
v 0.037502 9.000000 -0.064952
v 0.000002 9.000000 -0.075000
v 0.064954 9.000000 -0.037500
v 0.075002 9.000000 0.000000
v 0.064953 9.000000 0.037500
v 0.037502 9.000000 0.064952
v 0.000002 9.000000 0.075000
v -0.037498 9.000000 0.064952
v -0.064950 9.000000 0.037500
v -0.074998 9.000000 0.000000
v -0.064950 9.000000 -0.037500
v -0.037498 9.000000 -0.064952
v -0.000000 1.000000 -0.375000
v 0.187500 1.000000 -0.324760
v 0.324760 1.000000 -0.187500
v 0.375000 1.000000 0.000000
v 0.324760 1.000000 0.187500
v 0.187500 1.000000 0.324760
v 0.000000 1.000000 0.375000
v -0.187500 1.000000 0.324760
v -0.324759 1.000000 0.187500
v -0.375000 1.000000 0.000000
v -0.324760 1.000000 -0.187500
v -0.187500 1.000000 -0.324759
v 0.000000 0.000000 -0.500000
v 0.250000 0.000000 -0.433013
v 0.433013 0.000000 -0.250000
v 0.500000 0.000000 0.000000
v 0.433013 0.000000 0.250000
v 0.250000 0.000000 0.433013
v 0.000000 0.000000 0.500000
v -0.250000 0.000000 0.433013
v -0.433012 0.000000 0.250000
v -0.500000 0.000000 0.000000
v -0.433013 0.000000 -0.250000
v -0.250000 0.000000 -0.433013
vt 0.291673 0.852188
vt 0.261395 0.852188
vt 0.261395 0.033298
vt 0.231118 0.852188
vt 0.231118 0.033298
vt 0.200840 0.852188
vt 0.200840 0.033298
vt 0.170562 0.852188
vt 0.170563 0.033298
vt 0.140284 0.852188
vt 0.140285 0.033298
vt 0.110006 0.852188
vt 0.110008 0.033298
vt 0.079728 0.852188
vt 0.079730 0.033298
vt 0.049451 0.852188
vt 0.049453 0.033298
vt 0.019173 0.852188
vt 0.019175 0.033297
vt 0.382507 0.852188
vt 0.352229 0.852188
vt 0.352228 0.033298
vt 0.321951 0.852188
vt 0.349201 0.911762
vt 0.291673 0.033298
vt 0.321950 0.033298
vt 0.053237 0.019173
vt 0.197812 0.911762
vt 0.187972 0.980827
vt 0.183430 0.980827
vt 0.258368 0.911762
vt 0.379479 0.911762
vt 0.046423 0.911762
vt 0.022201 0.911762
vt 0.076701 0.911762
vt 0.052478 0.911762
vt 0.106979 0.911762
vt 0.082756 0.911762
vt 0.137256 0.911762
vt 0.113034 0.911762
vt 0.167534 0.911762
vt 0.143312 0.911762
vt 0.173590 0.911762
vt 0.318923 0.911762
vt 0.288645 0.911762
vt 0.228090 0.911762
vt 0.726241 0.560416
vt 0.740920 0.556483
vt 0.736987 0.571161
vt 0.339361 0.980827
vt 0.334819 0.980827
vt 0.264423 0.911762
vt 0.278805 0.980827
vt 0.066861 0.980827
vt 0.157694 0.980827
vt 0.153152 0.980827
vt 0.309083 0.980827
vt 0.304541 0.980827
vt 0.248527 0.980827
vt 0.243986 0.980827
vt 0.036583 0.980827
vt 0.032041 0.980827
vt 0.127416 0.980827
vt 0.218250 0.980827
vt 0.213708 0.980827
vt 0.369639 0.980827
vt 0.365097 0.980827
vt 0.097138 0.980827
vt 0.092596 0.980827
vt 0.643102 0.894316
vt 0.613151 0.780289
vt 0.642667 0.773541
vt 0.083515 0.019173
vt 0.106223 0.019173
vt 0.113792 0.019173
vt 0.136500 0.019173
vt 0.144070 0.019173
vt 0.166778 0.019173
vt 0.174347 0.019173
vt 0.197055 0.019173
vt 0.295457 0.019173
vt 0.265180 0.019173
vt 0.287888 0.019173
vt 0.204625 0.019173
vt 0.227333 0.019173
vt 0.325735 0.019173
vt 0.348443 0.019173
vt 0.234902 0.019173
vt 0.257610 0.019173
vt 0.382505 0.033297
vt 0.356012 0.019173
vt 0.022960 0.019173
vt 0.797384 0.255928
vt 0.684386 0.225651
vt 0.725746 0.184290
vt 0.710258 0.883441
vt 0.702692 0.765789
vt 0.732955 0.764817
vt 0.822808 0.894316
vt 0.852759 0.780289
vt 0.881781 0.788917
vt 0.778254 0.885625
vt 0.793354 0.768701
vt 0.823243 0.773541
vt 0.621335 0.900787
vt 0.584128 0.788917
vt 0.687655 0.885625
vt 0.672555 0.768701
vt 0.800671 0.889255
vt 0.755651 0.883441
vt 0.763217 0.765789
vt 0.600028 0.908641
vt 0.555719 0.799390
vt 0.665239 0.889255
vt 0.732955 0.882712
vt 0.844574 0.900787
vt 0.910190 0.799390
vt 0.324979 0.911762
vt 0.075946 0.019173
vt 0.234145 0.911762
vt 0.355257 0.911762
vt 0.294701 0.911762
vt 0.203868 0.911762
vt 0.732445 0.571161
vt 0.728512 0.568891
vt 0.726241 0.564957
vt 0.728512 0.556483
vt 0.732445 0.554212
vt 0.736987 0.554212
vt 0.743191 0.560416
vt 0.743191 0.564957
vt 0.740920 0.568891
vt 0.274263 0.980827
vt 0.062319 0.980827
vt 0.122875 0.980827
vt 0.318165 0.019173
vt 0.378720 0.019173
vt 0.045668 0.019173
vt 0.756024 0.184290
vt 0.782245 0.199429
vt 0.797384 0.225651
vt 0.782245 0.282150
vt 0.756024 0.297288
vt 0.725746 0.297288
vt 0.699525 0.282150
vt 0.684386 0.255928
vt 0.699525 0.199429
vt 0.865881 0.908641
s off
vn 0.078698 0.012460 -0.996821
vn 0.566565 0.012460 -0.823923
vn 0.420973 0.000000 -0.907073
vn 0.902621 0.012460 -0.430255
vn 0.818111 0.000000 -0.575061
vn 0.996510 0.015734 0.081978
vn 0.996035 0.000000 -0.088962
vn 0.818502 0.012450 0.574369
vn 0.907073 0.000000 0.420973
vn 0.421658 0.012450 0.906669
vn 0.575061 0.000000 0.818111
vn -0.088167 0.012450 0.996028
vn 0.088962 0.000000 0.996035
vn -0.574369 0.012450 0.818502
vn -0.420973 0.000000 0.907073
vn -0.906669 0.012450 0.421658
vn -0.818111 0.000000 0.575061
vn -0.996345 0.009058 -0.084945
vn -0.996035 0.000000 0.088962
vn -0.823923 0.012460 -0.566565
vn -0.907073 0.000000 -0.420973
vn -0.430255 0.012460 -0.902621
vn -0.774475 0.355286 -0.523412
vn -0.088962 0.000000 -0.996035
vn -0.575061 0.000000 -0.818111
vn 0.000000 -1.000000 0.000000
vn 0.916917 0.398926 0.011002
vn 0.812357 0.561263 -0.158303
vn 0.789966 0.549721 0.271589
vn 0.513081 0.362787 -0.777903
vn -0.944657 0.327983 -0.007097
vn -0.777903 0.362789 0.513081
vn -0.416176 0.347566 0.840235
vn 0.055389 0.362787 0.930224
vn 0.519578 0.347565 0.780537
vn 0.832736 0.355636 0.424351
vn -0.409009 0.355286 -0.840526
vn 0.059698 0.347566 -0.935753
vn 0.840526 0.355283 -0.409010
vn -0.735591 0.628451 -0.252895
vn 0.000000 0.809730 0.586802
vn 0.586810 0.628449 -0.510594
vn -0.552032 0.541068 -0.634433
vn 0.000000 0.560529 -0.828135
vn -0.418614 0.546855 0.725060
vn 0.418615 0.546854 0.725060
vn 0.415366 0.556670 -0.719437
vn -0.701143 0.586968 0.404804
vn -0.812355 0.561265 0.158306
vn -0.401770 0.123339 0.907397
vn -0.557474 0.123710 0.820925
vn 0.000000 0.124035 0.992278
vn 0.907397 0.123339 0.401769
vn 0.820926 0.123710 0.557473
vn 0.989679 0.123710 0.072322
vn -0.496139 0.124035 -0.859338
vn -0.820926 0.123710 -0.557474
vn 0.496139 0.124035 -0.859338
vn -0.000001 0.124035 -0.992278
vn -0.859338 0.124035 0.496139
vn 0.496139 0.124035 0.859338
vn 0.859338 0.124035 -0.496138
vn -0.992278 0.124035 0.000003
vn 0.986713 0.123339 -0.105755
vn -0.907397 0.123339 -0.401770
f 2/1/1 4/2/2 3/3/3
f 4/2/2 6/4/4 5/5/5
f 6/4/4 8/6/6 7/7/7
f 8/6/6 10/8/8 9/9/9
f 10/8/8 12/10/10 11/11/11
f 12/10/10 14/12/12 13/13/13
f 14/12/12 16/14/14 15/15/15
f 16/14/14 18/16/16 17/17/17
f 18/16/16 20/18/18 19/19/19
f 20/20/18 22/21/20 21/22/21
f 24/23/22 22/21/20 35/24/23
f 24/23/22 2/1/1 1/25/24
f 22/21/20 24/23/22 23/26/25
f 15/15/26 17/17/26 57/27/26
f 28/28/27 40/29/28 41/30/29
f 6/4/4 4/2/2 25/31/30
f 22/21/20 20/20/18 34/32/31
f 18/16/16 33/33/32 34/34/31
f 16/14/14 32/35/33 33/36/32
f 14/12/12 31/37/34 32/38/33
f 12/10/10 30/39/35 31/40/34
f 10/8/8 29/41/36 30/42/35
f 8/6/6 28/28/27 29/43/36
f 2/1/1 24/23/22 36/44/37
f 4/2/2 2/1/1 26/45/38
f 8/6/6 6/4/4 27/46/39
f 47/47/40 43/48/41 39/49/42
f 35/24/23 47/50/40 48/51/43
f 25/52/30 26/45/38 38/53/44
f 33/36/32 32/35/33 44/54/45
f 29/41/36 41/55/29 42/56/46
f 36/44/37 48/57/43 38/58/44
f 25/31/30 37/59/47 39/60/42
f 33/33/32 45/61/48 46/62/49
f 31/40/34 30/39/35 42/63/46
f 27/46/39 39/64/42 40/65/28
f 34/32/31 46/66/49 47/67/40
f 31/37/34 43/68/41 44/69/45
f 56/70/50 68/71/51 67/72/52
f 15/15/26 56/73/26 55/74/26
f 13/13/26 55/75/26 54/76/26
f 11/11/26 54/77/26 53/78/26
f 9/9/26 53/79/26 52/80/26
f 23/26/26 1/25/26 49/81/26
f 3/3/26 50/82/26 49/83/26
f 7/7/26 52/84/26 51/85/26
f 23/26/26 60/86/26 59/87/26
f 5/5/26 51/88/26 50/89/26
f 19/90/26 21/22/26 59/91/26
f 17/17/26 19/19/26 58/92/26
f 64/93/26 70/94/26 72/95/26
f 53/96/53 65/97/54 64/98/55
f 60/99/56 72/100/56 71/101/57
f 50/102/58 62/103/58 61/104/59
f 57/105/60 69/106/60 68/71/51
f 54/107/61 66/108/61 65/97/54
f 60/99/56 49/109/59 61/104/59
f 50/102/58 51/110/62 63/111/62
f 57/105/60 58/112/63 70/113/63
f 54/107/61 55/114/52 67/72/52
f 52/115/64 64/98/55 63/111/62
f 59/116/65 71/101/57 70/117/63
f 1/25/24 2/1/1 3/3/3
f 3/3/3 4/2/2 5/5/5
f 5/5/5 6/4/4 7/7/7
f 7/7/7 8/6/6 9/9/9
f 9/9/9 10/8/8 11/11/11
f 11/11/11 12/10/10 13/13/13
f 13/13/13 14/12/12 15/15/15
f 15/15/15 16/14/14 17/17/17
f 17/17/17 18/16/16 19/19/19
f 19/90/19 20/20/18 21/22/21
f 36/118/37 24/23/22 35/24/23
f 23/26/25 24/23/22 1/25/24
f 21/22/21 22/21/20 23/26/25
f 56/119/26 15/15/26 57/27/26
f 29/43/36 28/28/27 41/30/29
f 27/120/39 6/4/4 25/31/30
f 35/121/23 22/21/20 34/32/31
f 20/18/18 18/16/16 34/34/31
f 18/16/16 16/14/14 33/36/32
f 16/14/14 14/12/12 32/38/33
f 14/12/12 12/10/10 31/40/34
f 12/10/10 10/8/8 30/42/35
f 10/8/8 8/6/6 29/43/36
f 26/122/38 2/1/1 36/44/37
f 25/52/30 4/2/2 26/45/38
f 28/123/27 8/6/6 27/46/39
f 39/49/42 37/124/47 38/125/44
f 38/125/44 48/126/43 47/47/40
f 47/47/40 46/127/49 43/48/41
f 45/128/48 44/129/45 43/48/41
f 43/48/41 42/130/46 41/131/29
f 41/131/29 40/132/28 43/48/41
f 39/49/42 38/125/44 47/47/40
f 46/127/49 45/128/48 43/48/41
f 43/48/41 40/132/28 39/49/42
f 36/118/37 35/24/23 48/51/43
f 37/133/47 25/52/30 38/53/44
f 45/134/48 33/36/32 44/54/45
f 30/42/35 29/41/36 42/56/46
f 26/122/38 36/44/37 38/58/44
f 27/120/39 25/31/30 39/60/42
f 34/34/31 33/33/32 46/62/49
f 43/135/41 31/40/34 42/63/46
f 28/123/27 27/46/39 40/65/28
f 35/121/23 34/32/31 47/67/40
f 32/38/33 31/37/34 44/69/45
f 55/114/52 56/70/50 67/72/52
f 13/13/26 15/15/26 55/74/26
f 11/11/26 13/13/26 54/76/26
f 9/9/26 11/11/26 53/78/26
f 7/7/26 9/9/26 52/80/26
f 60/136/26 23/26/26 49/81/26
f 1/25/26 3/3/26 49/83/26
f 5/5/26 7/7/26 51/85/26
f 21/22/26 23/26/26 59/87/26
f 3/3/26 5/5/26 50/89/26
f 58/137/26 19/90/26 59/91/26
f 57/138/26 17/17/26 58/92/26
f 72/95/26 61/139/26 62/140/26
f 62/140/26 63/141/26 64/93/26
f 64/93/26 65/142/26 66/143/26
f 66/143/26 67/144/26 68/145/26
f 68/145/26 69/146/26 70/94/26
f 70/94/26 71/147/26 72/95/26
f 72/95/26 62/140/26 64/93/26
f 64/93/26 66/143/26 68/145/26
f 68/145/26 70/94/26 64/93/26
f 52/115/64 53/96/53 64/98/55
f 59/116/65 60/99/56 71/101/57
f 49/109/59 50/102/58 61/104/59
f 56/70/50 57/105/60 68/71/51
f 53/96/53 54/107/61 65/97/54
f 72/100/56 60/99/56 61/104/59
f 62/103/58 50/102/58 63/111/62
f 69/106/60 57/105/60 70/113/63
f 66/108/61 54/107/61 67/72/52
f 51/110/62 52/115/64 63/111/62
f 58/148/63 59/116/65 70/117/63
