# Made in Blockbench 5.1.6
mtllib missile_strong.mtl

o the_body
v 0.000000 1.059479 -0.563158
v 0.000000 3.910539 -0.563158
v 0.215511 3.910539 -0.520290
v 0.215511 1.059479 -0.520290
v 0.398212 3.910539 -0.398212
v 0.398212 1.059479 -0.398212
v 0.520290 3.910539 -0.215511
v 0.520290 1.059479 -0.215511
v 0.563158 3.910539 0.000000
v 0.563158 1.059479 0.000000
v 0.520290 3.910539 0.215511
v 0.520290 1.059479 0.215511
v 0.398212 3.910539 0.398212
v 0.398212 1.059479 0.398212
v 0.215511 3.910539 0.520290
v 0.215511 1.059479 0.520290
v 0.000000 3.910539 0.563158
v 0.000000 1.059479 0.563158
v -0.215511 3.910539 0.520290
v -0.215511 1.059479 0.520290
v -0.398212 3.910539 0.398212
v -0.398212 1.059479 0.398212
v -0.520290 3.910539 0.215511
v -0.520290 1.059479 0.215511
v -0.563158 3.910539 0.000000
v -0.563158 1.059479 0.000000
v -0.520290 3.910539 -0.215511
v -0.520290 1.059479 -0.215511
v -0.398212 3.910539 -0.398212
v -0.398212 1.059479 -0.398212
v 0.356427 4.420384 0.147637
v 0.272797 4.420384 0.272797
v -0.215511 3.910539 -0.520290
v -0.215511 1.059479 -0.520290
v 0.398212 0.802411 -0.398212
v 0.215511 0.802411 -0.520290
v 0.147637 4.420384 -0.356427
v 0.272797 4.420384 -0.272797
v -0.272797 4.420384 0.272797
v -0.356427 4.420384 0.147637
v 0.356427 4.420384 -0.147637
v 0.385794 4.420384 0.000000
v 0.000000 4.420384 0.385794
v -0.147637 4.420384 0.356427
v -0.000000 6.000000 0.000000
v -0.356427 4.420384 -0.147637
v -0.272797 4.420384 -0.272797
v 0.147637 4.420384 0.356427
v -0.385794 4.420384 0.000000
v -0.147637 4.420384 -0.356427
v 0.000000 4.420384 -0.385794
v 0.000000 0.802411 -0.563158
v -0.215511 0.802411 -0.520290
v 0.520290 0.802411 0.215511
v 0.563158 0.802411 0.000000
v -0.398212 0.802411 0.398212
v -0.215511 0.802411 0.520290
v -0.398212 0.802411 -0.398212
v 0.520290 0.802411 -0.215511
v 0.000000 0.802411 0.563158
v 0.215511 0.802411 0.520290
v -0.520290 0.802411 -0.215511
v -0.563158 0.802411 0.000000
v 0.398212 0.802411 0.398212
v -0.520290 0.802411 0.215511
v 0.000000 0.433811 -0.357929
v 0.136973 0.433811 -0.330683
v 0.173339 0.000000 -0.418477
v 0.000000 0.000000 -0.452956
v 0.164074 0.433811 -0.396109
v 0.000000 0.433811 -0.428745
v 0.303168 0.433811 -0.303168
v 0.396109 0.433811 -0.164074
v 0.428745 0.433811 0.000000
v 0.396109 0.433811 0.164074
v 0.303168 0.433811 0.303168
v 0.164074 0.433811 0.396109
v 0.000000 0.433811 0.428745
v -0.164073 0.433811 0.396109
v -0.303168 0.433811 0.303168
v -0.396109 0.433811 0.164074
v -0.428745 0.433811 0.000000
v -0.396109 0.433811 -0.164074
v -0.303168 0.433811 -0.303168
v -0.164073 0.433811 -0.396109
v 0.253094 0.433811 -0.253094
v 0.330683 0.433811 -0.136973
v 0.357929 0.433811 0.000000
v 0.330683 0.433811 0.136973
v 0.253094 0.433811 0.253094
v 0.136973 0.433811 0.330683
v 0.000000 0.433811 0.357929
v -0.136973 0.433811 0.330683
v -0.253094 0.433811 0.253094
v -0.330683 0.433811 0.136973
v -0.357929 0.433811 0.000000
v -0.330683 0.433811 -0.136973
v -0.253094 0.433811 -0.253094
v -0.136973 0.433811 -0.330683
v 0.320289 0.000000 -0.320289
v 0.418477 0.000000 -0.173339
v -0.173339 0.000000 -0.418477
v -0.173339 0.000000 0.418477
v 0.000000 0.000000 0.452956
v -0.320289 0.000000 0.320289
v -0.418477 0.000000 0.173339
v 0.452956 0.000000 0.000000
v -0.452956 0.000000 0.000000
v 0.418477 0.000000 0.173339
v -0.418477 0.000000 -0.173339
v 0.320289 0.000000 0.320289
v -0.320289 0.000000 -0.320289
v 0.173339 0.000000 0.418477
vt 0.223701171875 0.5463701171875
vt 0.223701171875 0.8043095703125
vt 0.203821484375 0.8043095703125
vt 0.203821484375 0.5463701171875
vt 0.203821484375 0.5463701171875
vt 0.203821484375 0.8043095703125
vt 0.1839419921875 0.8043095703125
vt 0.1839419921875 0.5463701171875
vt 0.1839419921875 0.5463701171875
vt 0.1839419921875 0.8043095703125
vt 0.1640625 0.8043095703125
vt 0.1640625 0.5463701171875
vt 0.080078125 0.5463701171875
vt 0.080078125 0.8043095703125
vt 0.0601984375 0.8043095703125
vt 0.0601984375 0.5463701171875
vt 0.0601984375 0.5463701171875
vt 0.0601984375 0.8043095703125
vt 0.04031875 0.8043095703125
vt 0.04031875 0.5463701171875
vt 0.04031875 0.5463701171875
vt 0.04031875 0.8043095703125
vt 0.0204392578125 0.8043095703125
vt 0.0204392578125 0.5463701171875
vt 0.0204392578125 0.5463701171875
vt 0.0204392578125 0.8043095703125
vt 0.000559765625 0.8043095703125
vt 0.000559765625 0.5463701171875
vt 0.3103619921875 0.5463701171875
vt 0.3103619921875 0.8043095703125
vt 0.2904823046875 0.8043095703125
vt 0.2904823046875 0.5463701171875
vt 0.286201171875 0.5463701171875
vt 0.286201171875 0.8043095703125
vt 0.266321484375 0.8043095703125
vt 0.266321484375 0.5463701171875
vt 0.266321484375 0.5463701171875
vt 0.266321484375 0.8043095703125
vt 0.2464419921875 0.8043095703125
vt 0.2464419921875 0.5463701171875
vt 0.2464419921875 0.5463701171875
vt 0.2464419921875 0.8043095703125
vt 0.2265625 0.8043095703125
vt 0.2265625 0.5463701171875
vt 0.162109375 0.5463701171875
vt 0.162109375 0.8043095703125
vt 0.1422296875 0.8043095703125
vt 0.1422296875 0.5463701171875
vt 0.1422296875 0.5463701171875
vt 0.1422296875 0.8043095703125
vt 0.12235 0.8043095703125
vt 0.12235 0.5463701171875
vt 0.12235 0.5463701171875
vt 0.12235 0.8043095703125
vt 0.1024705078125 0.8043095703125
vt 0.1024705078125 0.5463701171875
vt 0.0204392578125 0.8043095703125
vt 0.04031875 0.8043095703125
vt 0.03718828125 0.853046875
vt 0.0235697265625 0.853046875
vt 0.1024705078125 0.5463701171875
vt 0.1024705078125 0.8043095703125
vt 0.082591015625 0.8043095703125
vt 0.082591015625 0.5463701171875
vt 0.3513776171875 0.23972949218749995
vt 0.3513776171875 0.49766894531250006
vt 0.3314979296875 0.49766894531250006
vt 0.3314979296875 0.23972949218749995
vt 0.203821484375 0.5463701171875
vt 0.1839419921875 0.5463701171875
vt 0.1839419921875 0.5231126953125
vt 0.203821484375 0.5231126953125
vt 0.1839419921875 0.8043095703125
vt 0.203821484375 0.8043095703125
vt 0.200691015625 0.8530470703124999
vt 0.1870724609375 0.8530470703124999
vt 0.40625 0.6031376953125
vt 0.4261294921875 0.6031376953125
vt 0.4229990234375 0.6518751953124999
vt 0.40938046875 0.6518751953124999
vt 0.0601984375 0.8043095703125
vt 0.080078125 0.8043095703125
vt 0.07694765625 0.853046875
vt 0.06332890625 0.853046875
vt 0.266321484375 0.8043095703125
vt 0.286201171875 0.8043095703125
vt 0.283070703125 0.8530470703124999
vt 0.269451953125 0.8530470703124999
vt 0.0633291015625 0.853046875
vt 0.07694765625 0.853046875
vt 0.0701384765625 0.9999998046875
vt 0.1024705078125 0.8043095703125
vt 0.12235 0.8043095703125
vt 0.11921953125 0.8530470703124999
vt 0.1056009765625 0.8530470703124999
vt 0.3103619921875 0.8043095703125
vt 0.330078125 0.8068528515625
vt 0.3207381640625 0.85478935546875
vt 0.3072315234375 0.8530470703124999
vt 0.1422296875 0.8043095703125
vt 0.162109375 0.8043095703125
vt 0.15897890625 0.8530470703124999
vt 0.14536015625 0.8530470703124999
vt 0.423828125 0.7047001953125
vt 0.4437076171875 0.7047001953125
vt 0.4405771484375 0.7534376953124999
vt 0.42695859375 0.7534376953124999
vt 0.04031875 0.8043095703125
vt 0.0601984375 0.8043095703125
vt 0.05706796875 0.8530470703124999
vt 0.04344921875 0.8530470703124999
vt 0.2464419921875 0.8043095703125
vt 0.266321484375 0.8043095703125
vt 0.263191015625 0.8530470703124999
vt 0.2495724609375 0.8530470703124999
vt 0.3513776171875 0.49766894531250006
vt 0.37109375 0.5002122265625
vt 0.3617537890625 0.54814873046875
vt 0.3482471484375 0.5464064453124999
vt 0.3314979296875 0.49766894531250006
vt 0.3513776171875 0.49766894531250006
vt 0.3482471484375 0.5464064453124999
vt 0.3346283984375 0.5464064453124999
vt 0.2904823046875 0.8043095703125
vt 0.3103619921875 0.8043095703125
vt 0.3072315234375 0.8530470703124999
vt 0.2936127734375 0.8530470703124999
vt 0.12235 0.8043095703125
vt 0.1422296875 0.8043095703125
vt 0.13909921875 0.8530470703124999
vt 0.12548046875 0.8530470703124999
vt 0.2069521484375 0.8530470703124999
vt 0.220570703125 0.8530470703124999
vt 0.2137615234375 1
vt 0.203821484375 0.8043095703125
vt 0.223701171875 0.8043095703125
vt 0.220570703125 0.8530470703124999
vt 0.206951953125 0.8530470703124999
vt 0.2694521484375 0.8530470703124999
vt 0.283070703125 0.8530470703124999
vt 0.2762615234375 1
vt 0.10560078125 0.8530470703124999
vt 0.11921953125 0.8530470703124999
vt 0.11241015625 1
vt 0.1870724609375 0.8530470703124999
vt 0.200691015625 0.8530470703124999
vt 0.193881640625 1
vt 0.40757689453125 0.986328125
vt 0.408207265625 0.97272416015625
vt 0.5546875 0.986328125
vt 0.1453603515625 0.8530470703124999
vt 0.15897890625 0.8530470703124999
vt 0.15216953125 1
vt 0.0434494140625 0.8530470703124999
vt 0.05706796875 0.8530470703124999
vt 0.05025859375 1
vt 0.2495724609375 0.8530470703124999
vt 0.263191015625 0.8530470703124999
vt 0.256381640625 1
vt 0.38023314453125 1
vt 0.380863515625 0.98639603515625
vt 0.52734375 1
vt 0.42695859375 0.7534376953124999
vt 0.44057734375 0.7534376953124999
vt 0.43376796875 0.900390625
vt 0.29361296875 0.8530470703124999
vt 0.3072315234375 0.8530470703124999
vt 0.3004221484375 1
vt 0.1254806640625 0.8530470703124999
vt 0.13909921875 0.8530470703124999
vt 0.1322900390625 1
vt 0.02356953125 0.853046875
vt 0.03718828125 0.853046875
vt 0.03037890625 0.9999998046875
vt 0.40938046875 0.6518751953124999
vt 0.42299921875 0.6518751953124999
vt 0.41618984375 0.798828125
vt 0.33462859375 0.5464064453124999
vt 0.3482471484375 0.5464064453124999
vt 0.3414377734375 0.693359375
vt 0.3513776171875 0.23972949218749995
vt 0.3314979296875 0.23972949218749995
vt 0.3314979296875 0.21647207031250004
vt 0.3513776171875 0.21647207031250004
vt 0.0601984375 0.5463701171875
vt 0.04031875 0.5463701171875
vt 0.04031875 0.5231126953125
vt 0.0601984375 0.5231126953125
vt 0.266321484375 0.5463701171875
vt 0.2464419921875 0.5463701171875
vt 0.2464419921875 0.5231126953125
vt 0.266321484375 0.5231126953125
vt 0.1024705078125 0.5463701171875
vt 0.082591015625 0.5463701171875
vt 0.082591015625 0.5231126953125
vt 0.1024705078125 0.5231126953125
vt 0.1839419921875 0.5463701171875
vt 0.1640625 0.5463701171875
vt 0.1640625 0.5231126953125
vt 0.1839419921875 0.5231126953125
vt 0.3103619921875 0.5463701171875
vt 0.2904823046875 0.5463701171875
vt 0.2904823046875 0.5231126953125
vt 0.3103619921875 0.5231126953125
vt 0.1422296875 0.5463701171875
vt 0.12235 0.5463701171875
vt 0.12235 0.5231126953125
vt 0.1422296875 0.5231126953125
vt 0.04031875 0.5463701171875
vt 0.0204392578125 0.5463701171875
vt 0.0204392578125 0.5231126953125
vt 0.04031875 0.5231126953125
vt 0.2464419921875 0.5463701171875
vt 0.2265625 0.5463701171875
vt 0.2265625 0.5231126953125
vt 0.2464419921875 0.5231126953125
vt 0.080078125 0.5463701171875
vt 0.0601984375 0.5463701171875
vt 0.0601984375 0.5231126953125
vt 0.080078125 0.5231126953125
vt 0.286201171875 0.5463701171875
vt 0.266321484375 0.5463701171875
vt 0.266321484375 0.5231126953125
vt 0.286201171875 0.5231126953125
vt 0.3590650390625 0.9580791796875
vt 0.35853755859375 0.970703125
vt 0.318359375 0.970703125
vt 0.31902689453125 0.9547276171875
vt 0.12235 0.5463701171875
vt 0.1024705078125 0.5463701171875
vt 0.1024705078125 0.5231126953125
vt 0.12235 0.5231126953125
vt 0.0204392578125 0.5463701171875
vt 0.000559765625 0.5463701171875
vt 0.000559765625 0.5231126953125
vt 0.0204392578125 0.5231126953125
vt 0.162109375 0.5463701171875
vt 0.1422296875 0.5463701171875
vt 0.1422296875 0.5231126953125
vt 0.162109375 0.5231126953125
vt 0.223701171875 0.5231126953125
vt 0.203821484375 0.5231126953125
vt 0.2061939453125 0.48769628906249995
vt 0.2213287109375 0.48769628906249995
vt 0.203821484375 0.5231126953125
vt 0.184119609375 0.5204612304687499
vt 0.19119439453125 0.48567765625000003
vt 0.2061939453125 0.48769628906249995
vt 0.349007265625 0.724609375
vt 0.347678671875 0.744140625
vt 0.3125 0.7394065039062501
vt 0.313511484375 0.724609375
vt 0.0799005078125 0.5204612109375
vt 0.0601984375 0.5231126953125
vt 0.0578259765625 0.48769628906249995
vt 0.07282552734375 0.48567765625000003
vt 0.0601984375 0.5231126953125
vt 0.04031875 0.5231126953125
vt 0.0426912109375 0.48769628906249995
vt 0.0578259765625 0.48769628906249995
vt 0.04031875 0.5231126953125
vt 0.020616875 0.5204612304687499
vt 0.02769166015625 0.48567765625000003
vt 0.0426912109375 0.48769628906249995
vt 0.3300638671875 0.5204612304687499
vt 0.3103619921875 0.5231126953125
vt 0.30798953125 0.48769628906249995
vt 0.3229890625 0.48567765625000003
vt 0.3103619921875 0.5231126953125
vt 0.2904823046875 0.5231126953125
vt 0.292854765625 0.48769628906249995
vt 0.30798953125 0.48769628906249995
vt 0.286201171875 0.5231126953125
vt 0.266321484375 0.5231126953125
vt 0.2686939453125 0.48769628906249995
vt 0.2838287109375 0.48769628906249995
vt 0.266321484375 0.5231126953125
vt 0.24661958984375 0.5204613476562501
vt 0.25369419921875 0.48567773437499995
vt 0.2686939453125 0.48769630859375
vt 0.0198350390625 0.99806927734375
vt 0 0.99939798828125
vt 0 0.96390220703125
vt 0.01510091796875 0.962890625
vt 0.1619317578125 0.5204612109375
vt 0.1422296875 0.5231126953125
vt 0.1398572265625 0.48769628906249995
vt 0.15485677734375 0.48567765625000003
vt 0.1422296875 0.5231126953125
vt 0.12235 0.5231126953125
vt 0.1247224609375 0.48769628906249995
vt 0.1398572265625 0.48769628906249995
vt 0.12235 0.5231126953125
vt 0.102648125 0.5204612304687499
vt 0.10972291015625 0.48567765625000003
vt 0.1247224609375 0.48769628906249995
vt 0.37107951171875 0.21382072265624996
vt 0.3513776171875 0.21647207031250004
vt 0.34900515625 0.18105568359375002
vt 0.36400490234375 0.17903710937499995
vt 0.3513776171875 0.21647207031250004
vt 0.3314979296875 0.21647207031250004
vt 0.333870390625 0.18105566406249995
vt 0.34900515625 0.18105566406249995
vt 0.223701171875 0.5463701171875
vt 0.203821484375 0.5463701171875
vt 0.203821484375 0.5231126953125
vt 0.223701171875 0.5231126953125
vt 0.3580953125 0.930746875
vt 0.345703125 0.9282818359375
vt 0.345703125 0.921875
vt 0.3605470703125 0.924827734375
vt 0.3686009765625 0.93776640625
vt 0.3580953125 0.930746875
vt 0.3605470703125 0.924827734375
vt 0.37313125 0.9332361328125
vt 0.3756205078125 0.9482720703125
vt 0.3686009765625 0.93776640625
vt 0.37313125 0.9332361328125
vt 0.3815396484375 0.9458203125
vt 0.378085546875 0.9606642578125
vt 0.3756205078125 0.9482720703125
vt 0.3815396484375 0.9458203125
vt 0.3844923828125 0.9606642578125
vt 0.3756205078125 0.9730564453125
vt 0.378085546875 0.9606642578125
vt 0.3844923828125 0.9606642578125
vt 0.3815396484375 0.975508203125
vt 0.3686009765625 0.983562109375
vt 0.3756205078125 0.9730564453125
vt 0.3815396484375 0.975508203125
vt 0.37313125 0.9880923828125
vt 0.3580953125 0.990581640625
vt 0.3686009765625 0.983562109375
vt 0.37313125 0.9880923828125
vt 0.3605470703125 0.99650078125
vt 0.345703125 0.9930466796875
vt 0.3580953125 0.990581640625
vt 0.3605470703125 0.99650078125
vt 0.345703125 0.999453515625
vt 0.3333109375 0.990581640625
vt 0.345703125 0.9930466796875
vt 0.345703125 0.999453515625
vt 0.3308591796875 0.99650078125
vt 0.3228052734375 0.983562109375
vt 0.3333109375 0.990581640625
vt 0.3308591796875 0.99650078125
vt 0.318275 0.9880923828125
vt 0.3157857421875 0.9730564453125
vt 0.3228052734375 0.983562109375
vt 0.318275 0.9880923828125
vt 0.3098666015625 0.975508203125
vt 0.313320703125 0.9606642578125
vt 0.3157857421875 0.9730564453125
vt 0.3098666015625 0.975508203125
vt 0.3069138671875 0.9606642578125
vt 0.3157857421875 0.9482720703125
vt 0.313320703125 0.9606642578125
vt 0.3069138671875 0.9606642578125
vt 0.3098666015625 0.9458203125
vt 0.3228052734375 0.93776640625
vt 0.3157857421875 0.9482720703125
vt 0.3098666015625 0.9458203125
vt 0.318275 0.9332361328125
vt 0.3333109375 0.930746875
vt 0.3228052734375 0.93776640625
vt 0.318275 0.9332361328125
vt 0.3308591796875 0.924827734375
vt 0.345703125 0.9282818359375
vt 0.3333109375 0.930746875
vt 0.3308591796875 0.924827734375
vt 0.345703125 0.921875
vt 0.32098294921875 0.951171875
vt 0.335755390625 0.9453125
vt 0.35174478515625 0.9453125
vt 0.36651705078125 0.951171875
vt 0.015625 0.96041001953125
vt 0.0033515625 0.9609375
vt 0 0.92089935546875
vt 0.015625 0.9202318359375
vt 0.186496015625 0.99894595703125
vt 0.1738610546875 0.99894595703125
vt 0.1721837109375 0.95880279296875
vt 0.1881731640625 0.95880279296875
vt 0.4968440625 0.701171875
vt 0.48438494140625 0.69907126953125
vt 0.489405078125 0.6592079492187499
vt 0.50517201171875 0.66186625
vt 0.1738610546875 0.99894595703125
vt 0.16127013671875 1
vt 0.15625 0.9601366796875
vt 0.1721837109375 0.95880279296875
vt 0.48438494140625 0.69907126953125
vt 0.4717940234375 0.6980172265625
vt 0.4734713671875 0.6578740625
vt 0.489405078125 0.6592079492187499
vt 0.45456287109375 0.9726561328125
vt 0.44210375 0.97055552734375
vt 0.44712369140625 0.93069216796875
vt 0.462890625 0.93335046875
vt 0.4717940234375 0.6980172265625
vt 0.4591590625 0.6980172265625
vt 0.4574819140625 0.6578740625
vt 0.4734713671875 0.6578740625
vt 0.44210375 0.97055552734375
vt 0.4295128125 0.9695016015625
vt 0.4311899609375 0.9293584375
vt 0.44712369140625 0.93069216796875
vt 0.4591590625 0.6980172265625
vt 0.446568125 0.6990711523437501
vt 0.44154818359375 0.65920779296875
vt 0.4574819140625 0.6578740625
vt 0.4295128125 0.9695016015625
vt 0.4168778515625 0.9695016015625
vt 0.4152005078125 0.9293584375
vt 0.4311899609375 0.9293584375
vt 0.446568125 0.6990711523437501
vt 0.43410900390625 0.7011717578125001
vt 0.42578125 0.66186609375
vt 0.44154818359375 0.65920779296875
vt 0.4168778515625 0.9695016015625
vt 0.40428693359375 0.97055564453125
vt 0.399266796875 0.93069232421875
vt 0.4152005078125 0.9293584375
vt 0.10240173828125 1
vt 0.0898108203125 0.99894595703125
vt 0.0914881640625 0.95880279296875
vt 0.107421875 0.9601366796875
vt 0.40428693359375 0.97055564453125
vt 0.3918278125 0.97265625
vt 0.38349986328125 0.933350625
vt 0.399266796875 0.93069232421875
vt 0.0898108203125 0.99894595703125
vt 0.077175859375 0.99894595703125
vt 0.0754987109375 0.95880279296875
vt 0.0914881640625 0.95880279296875
usemtl missile_texture
vn 0.000000 0.000000 -1.000000
vn 0.000000 0.045503 -0.998964
vn 0.382289 0.045503 -0.922922
vn 0.382686 0.000000 -0.923879
vn 0.706374 0.045503 -0.706374
vn 0.707107 0.000000 -0.707107
vn 0.922922 0.045503 -0.382289
vn 0.923879 0.000000 -0.382686
vn 0.998964 0.045503 0.000000
vn 1.000000 0.000000 0.000000
vn 0.922922 0.045503 0.382289
vn 0.923879 0.000000 0.382686
vn 0.706374 0.045503 0.706374
vn 0.707107 0.000000 0.707107
vn 0.382289 0.045503 0.922922
vn 0.382686 0.000000 0.923879
vn 0.000000 0.045503 0.998964
vn 0.000000 0.000000 1.000000
vn -0.382289 0.045503 0.922922
vn -0.382686 0.000000 0.923879
vn -0.706374 0.045503 0.706374
vn -0.707107 0.000000 0.707107
vn -0.922922 0.045503 0.382289
vn -0.923879 0.000000 0.382686
vn -0.998964 0.045503 0.000000
vn -1.000000 0.000000 0.000000
vn -0.922922 0.045503 -0.382289
vn -0.923879 0.000000 -0.382686
vn -0.706374 0.045503 -0.706374
vn -0.707107 0.000000 -0.707107
vn 0.887296 0.278615 0.367532
vn 0.679107 0.278614 0.679107
vn -0.382289 0.045503 -0.922922
vn -0.382686 0.000000 -0.923879
vn 0.692905 -0.199413 -0.692905
vn 0.375000 -0.199413 -0.905323
vn 0.367532 0.278615 -0.887296
vn 0.679107 0.278614 -0.679107
vn -0.679107 0.278614 0.679107
vn -0.887296 0.278615 0.367532
vn 0.887296 0.278615 -0.367532
vn 0.960403 0.278615 0.000000
vn 0.000000 0.278615 0.960403
vn -0.367532 0.278615 0.887296
vn 0.944211 0.270540 -0.187815
vn -0.887296 0.278615 -0.367532
vn -0.679107 0.278614 -0.679107
vn 0.367532 0.278615 0.887296
vn -0.960403 0.278615 0.000000
vn -0.367532 0.278615 -0.887296
vn 0.000000 0.278615 -0.960403
vn 0.187815 0.270540 -0.944211
vn -0.187815 0.270540 0.944211
vn -0.800463 0.270540 -0.534852
vn 0.534852 0.270540 -0.800463
vn 0.534852 0.270540 0.800463
vn -0.944211 0.270540 0.187815
vn 0.944211 0.270540 0.187815
vn -0.534852 0.270540 0.800463
vn -0.534852 0.270540 -0.800463
vn 0.800463 0.270540 -0.534852
vn 0.187815 0.270540 0.944211
vn -0.944211 0.270540 -0.187815
vn 0.800463 0.270540 0.534852
vn -0.800463 0.270540 0.534852
vn -0.187815 0.270540 -0.944211
vn 0.000000 -0.199413 -0.979915
vn -0.375000 -0.199413 -0.905323
vn 0.905323 -0.199413 0.375000
vn 0.979915 -0.199413 0.000000
vn -0.692905 -0.199413 0.692905
vn -0.375000 -0.199413 0.905323
vn -0.692905 -0.199413 -0.692905
vn 0.905323 -0.199413 -0.375000
vn 0.000000 -0.199413 0.979915
vn 0.375000 -0.199413 0.905323
vn -0.905323 -0.199413 -0.375000
vn -0.979915 -0.199413 0.000000
vn 0.692905 -0.199413 0.692905
vn -0.905323 -0.199413 0.375000
vn 0.000000 0.213979 -0.976838
vn 0.373818 0.213979 -0.902481
vn 0.359527 -0.342590 -0.867970
vn 0.000000 -0.342590 -0.939485
vn 0.664316 -0.342589 -0.664316
vn 0.867970 -0.342590 -0.359527
vn 0.939485 -0.342590 0.000000
vn 0.867970 -0.342590 0.359527
vn 0.664316 -0.342589 0.664316
vn 0.359527 -0.342590 0.867970
vn 0.000000 -0.342590 0.939485
vn -0.359527 -0.342590 0.867970
vn -0.664316 -0.342589 0.664317
vn -0.867970 -0.342590 0.359527
vn -0.939485 -0.342590 0.000000
vn -0.867970 -0.342590 -0.359527
vn -0.664316 -0.342589 -0.664317
vn -0.359527 -0.342590 -0.867970
vn 0.000000 -1.000000 0.000000
vn -0.373818 0.213979 -0.902481
vn 0.000000 0.213979 0.976838
vn -0.373818 0.213979 0.902481
vn 0.690729 0.213980 -0.690729
vn -0.690729 0.213980 0.690729
vn 0.902481 0.213979 -0.373818
vn -0.902481 0.213979 0.373818
vn 0.976838 0.213979 0.000000
vn -0.976838 0.213979 -0.000000
vn 0.902481 0.213979 0.373818
vn -0.902481 0.213979 -0.373818
vn 0.690729 0.213980 0.690729
vn -0.690729 0.213980 -0.690729
vn 0.373818 0.213979 0.902481
vn 0.486551 -0.230406 0.842722
vn -0.643420 0.761733 -0.075987
vn -0.500004 0.000000 -0.866023
vn 0.255894 0.761738 -0.595208
vn -0.850438 -0.061172 0.522506
vn 0.877723 -0.061172 -0.475248
vn 0.973095 0.230406 0.000020
vn -0.387517 -0.761735 -0.519222
vn -0.387519 -0.761738 0.519216
vn 0.027284 0.061173 -0.997754
vn 0.027284 0.061173 0.997754
vn 0.462899 -0.230406 -0.855942
vn 0.272350 0.761742 0.587856
vn -0.475714 0.000000 0.879600
vn -0.641051 0.761736 0.093866
vn 0.890608 -0.061174 0.450639
vn -0.864649 -0.061172 -0.498639
vn 0.991807 -0.127748 0.000000
vn -0.893573 -0.370940 -0.252846
vn -0.578686 -0.673887 -0.459346
vn -0.651484 -0.758662 0.000000
vn -0.852923 -0.522037 0.000000
vn -0.893573 -0.370940 0.252846
vn -0.578686 -0.673887 0.459346
vn 0.018016 0.049239 -0.998625
vn 0.018433 0.049416 0.998608
vn 0.495905 0.127749 -0.858929
vn -0.227818 0.370940 0.900279
vn 0.108455 0.673889 0.730829
vn -0.325742 0.758661 0.564203
vn -0.426460 0.522036 0.738654
vn -0.499997 0.000000 0.866027
vn -0.665754 0.370939 0.647438
vn -0.687146 0.673888 0.271487
vn 0.873842 -0.049238 0.483711
vn -0.855603 -0.049416 -0.515269
vn 0.495913 0.127749 0.858924
vn -0.665757 0.370938 -0.647435
vn -0.687150 0.673886 -0.271482
vn -0.325745 0.758662 -0.564201
vn -0.426462 0.522036 -0.738653
vn -0.227818 0.370941 -0.900279
vn 0.108454 0.673889 -0.730829
vn -0.855826 -0.049238 0.514914
vn 0.874037 -0.049417 -0.483340
f 1/1/1 2/2/2 3/3/3 4/4/4
f 4/5/4 3/6/3 5/7/5 6/8/6
f 6/9/6 5/10/5 7/11/7 8/12/8
f 8/13/8 7/14/7 9/15/9 10/16/10
f 10/17/10 9/18/9 11/19/11 12/20/12
f 12/21/12 11/22/11 13/23/13 14/24/14
f 14/25/14 13/26/13 15/27/15 16/28/16
f 16/29/16 15/30/15 17/31/17 18/32/18
f 18/33/18 17/34/17 19/35/19 20/36/20
f 20/37/20 19/38/19 21/39/21 22/40/22
f 22/41/22 21/42/21 23/43/23 24/44/24
f 24/45/24 23/46/23 25/47/25 26/48/26
f 26/49/26 25/50/25 27/51/27 28/52/28
f 28/53/28 27/54/27 29/55/29 30/56/30
f 13/57/13 11/58/11 31/59/31 32/60/32
f 30/61/30 29/62/29 33/63/33 34/64/34
f 34/65/34 33/66/33 2/67/2 1/68/1
f 4/69/4 6/70/6 35/71/35 36/72/36
f 5/73/5 3/74/3 37/75/37 38/76/38
f 23/77/23 21/78/21 39/79/39 40/80/40
f 9/81/9 7/82/7 41/83/41 42/84/42
f 19/85/19 17/86/17 43/87/43 44/88/44
f 42/89/42 41/90/41 45/91/45
f 29/92/29 27/93/27 46/94/46 47/95/47
f 15/96/15 13/97/13 32/98/32 48/99/48
f 25/100/25 23/101/23 40/102/40 49/103/49
f 7/104/7 5/105/5 38/106/38 41/107/41
f 11/108/11 9/109/9 42/110/42 31/111/31
f 21/112/21 19/113/19 44/114/44 39/115/39
f 33/116/33 29/117/29 47/118/47 50/119/50
f 2/120/2 33/121/33 50/122/50 51/123/51
f 17/124/17 15/125/15 48/126/48 43/127/43
f 27/128/27 25/129/25 49/130/49 46/131/46
f 37/132/37 51/133/51 45/134/52
f 3/135/3 2/136/2 51/137/51 37/138/37
f 44/139/44 43/140/43 45/141/53
f 47/142/47 46/143/46 45/144/54
f 38/145/38 37/146/37 45/147/55
f 48/148/48 32/149/32 45/150/56
f 49/151/49 40/152/40 45/153/57
f 31/154/31 42/155/42 45/156/58
f 39/157/39 44/158/44 45/159/59
f 50/160/50 47/161/47 45/162/60
f 41/163/41 38/164/38 45/165/61
f 43/166/43 48/167/48 45/168/62
f 46/169/46 49/170/49 45/171/63
f 32/172/32 31/173/31 45/174/64
f 40/175/40 39/176/39 45/177/65
f 51/178/51 50/179/50 45/180/66
f 34/181/34 1/182/1 52/183/67 53/184/68
f 10/185/10 12/186/12 54/187/69 55/188/70
f 20/189/20 22/190/22 56/191/71 57/192/72
f 30/193/30 34/194/34 53/195/68 58/196/73
f 6/197/6 8/198/8 59/199/74 35/200/35
f 16/201/16 18/202/18 60/203/75 61/204/76
f 26/205/26 28/206/28 62/207/77 63/208/78
f 12/209/12 14/210/14 64/211/79 54/212/69
f 22/213/22 24/214/24 65/215/80 56/216/71
f 8/217/8 10/218/10 55/219/70 59/220/74
f 18/221/18 20/222/20 57/223/72 60/224/75
f 66/225/81 67/226/82 68/227/82 69/228/81
f 28/229/28 30/230/30 58/231/73 62/232/77
f 14/233/14 16/234/16 61/235/76 64/236/79
f 24/237/24 26/238/26 63/239/78 65/240/80
f 52/241/67 36/242/36 70/243/83 71/244/84
f 36/245/36 35/246/35 72/247/85 70/248/83
f 35/249/35 59/250/74 73/251/86 72/252/85
f 59/253/74 55/254/70 74/255/87 73/256/86
f 55/257/70 54/258/69 75/259/88 74/260/87
f 54/261/69 64/262/79 76/263/89 75/264/88
f 64/265/79 61/266/76 77/267/90 76/268/89
f 61/269/76 60/270/75 78/271/91 77/272/90
f 60/273/75 57/274/72 79/275/92 78/276/91
f 57/277/72 56/278/71 80/279/93 79/280/92
f 56/281/71 65/282/80 81/283/94 80/284/93
f 65/285/80 63/286/78 82/287/95 81/288/94
f 63/289/78 62/290/77 83/291/96 82/292/95
f 62/293/77 58/294/73 84/295/97 83/296/96
f 58/297/73 53/298/68 85/299/98 84/300/97
f 53/301/68 52/302/67 71/303/84 85/304/98
f 1/305/1 4/306/4 36/307/36 52/308/67
f 67/309/99 66/310/99 71/311/99 70/312/99
f 86/313/99 67/314/99 70/315/99 72/316/99
f 87/317/99 86/318/99 72/319/99 73/320/99
f 88/321/99 87/322/99 73/323/99 74/324/99
f 89/325/99 88/326/99 74/327/99 75/328/99
f 90/329/99 89/330/99 75/331/99 76/332/99
f 91/333/99 90/334/99 76/335/99 77/336/99
f 92/337/99 91/338/99 77/339/99 78/340/99
f 93/341/99 92/342/99 78/343/99 79/344/99
f 94/345/99 93/346/99 79/347/99 80/348/99
f 95/349/99 94/350/99 80/351/99 81/352/99
f 96/353/99 95/354/99 81/355/99 82/356/99
f 97/357/99 96/358/99 82/359/99 83/360/99
f 98/361/99 97/362/99 83/363/99 84/364/99
f 99/365/99 98/366/99 84/367/99 85/368/99
f 66/369/99 99/370/99 85/371/99 71/372/99
f 69/373/99 68/374/99 100/375/99 101/376/99
f 99/377/100 66/378/81 69/379/81 102/380/100
f 92/381/101 93/382/102 103/383/102 104/384/101
f 67/385/82 86/386/103 100/387/103 68/388/82
f 93/389/102 94/390/104 105/391/104 103/392/102
f 86/393/103 87/394/105 101/395/105 100/396/103
f 94/397/104 95/398/106 106/399/106 105/400/104
f 87/401/105 88/402/107 107/403/107 101/404/105
f 95/405/106 96/406/108 108/407/108 106/408/106
f 88/409/107 89/410/109 109/411/109 107/412/107
f 96/413/108 97/414/110 110/415/110 108/416/108
f 89/417/109 90/418/111 111/419/111 109/420/109
f 97/421/110 98/422/112 112/423/112 110/424/110
f 90/425/111 91/426/113 113/427/113 111/428/111
f 98/429/112 99/430/100 102/431/100 112/432/112
f 91/433/113 92/434/101 104/435/101 113/436/113
o the_fins
v -0.083867 5.376837 -0.096256
v -0.121281 4.898267 -0.210065
v -0.041427 5.376837 -0.120759
v -0.062647 5.393539 -0.108507
v -0.296058 5.160941 -0.463782
v -0.274838 5.177643 -0.476033
v -0.274838 4.787900 -0.476033
v -0.253618 5.160941 -0.488285
v 0.125293 5.376837 0.024503
v 0.242562 4.898267 0.000000
v 0.125294 5.376837 -0.024503
v 0.125293 5.393539 0.000000
v 0.549676 5.160941 0.024503
v 0.549676 5.177643 0.000000
v 0.549676 4.787900 0.000000
v 0.549676 5.160941 -0.024503
v -0.038050 5.376837 0.121865
v -0.115389 4.898267 0.213358
v -0.081156 5.376837 0.098553
v -0.059603 5.393539 0.110208
v -0.239932 5.160941 0.495153
v -0.261485 5.177643 0.483496
v -0.261485 4.787900 0.483496
v -0.283038 5.160941 0.471840
v 0.526371 1.543762 0.043982
v 0.381278 0.448296 -0.001309
v 0.526371 1.543762 -0.046980
v 0.526371 1.574763 -0.001499
v 0.993034 1.143025 0.043982
v 0.993034 1.174027 -0.001499
v 0.993034 0.450600 -0.001499
v 0.993034 1.143025 -0.046980
v -0.223798 1.543762 0.477092
v -0.190474 0.448296 0.328793
v -0.302573 1.543762 0.431611
v -0.263186 1.574763 0.454352
v -0.457129 1.143025 0.881234
v -0.496517 1.174026 0.858493
v -0.496517 0.450600 0.858493
v -0.535905 1.143025 0.835753
v -0.302573 1.543762 -0.434609
v -0.190804 0.448296 -0.331600
v -0.223798 1.543762 -0.480091
v -0.263186 1.574763 -0.457350
v -0.535905 1.143025 -0.838751
v -0.496517 1.174027 -0.861491
v -0.496517 0.450600 -0.861491
v -0.457129 1.143025 -0.884232
vt 0.08736875 0.9235390625
vt 0.08736875 0.87890625
vt 0.091796875 0.9233188671875
vt 0.089655703125 0.9248947265625
vt 0.3468626953125 0.65234375
vt 0.38993990234375 0.65234375
vt 0.390625 0.654296875
vt 0.3475479296875 0.654296875
vt 0.0951853125 0.880830703125
vt 0.099609375 0.91436244140625
vt 0.09749638671875 0.916015625
vt 0.0951853125 0.91465302734375
vt 0.021484375 0.87489154296875
vt 0.021484375 0.91796875
vt 0.01953125 0.91728365234375
vt 0.01953125 0.8742064453125
vt 0.45379068359375 0.859375
vt 0.49842361328125 0.859375
vt 0.470349609375 0.892578125
vt 0.4375 0.88452828125
vt 0.46798017578125 0.75
vt 0.476031328125 0.782849921875
vt 0.443359375 0.8109246679687501
vt 0.443359375 0.7662925781250001
vt 0.012434375 0.91661291015625
vt 0.012434375 0.871980078125
vt 0.0168625 0.9163926757812499
vt 0.01472134765625 0.91796875
vt 0.34686255859375 0.65625
vt 0.389939765625 0.65625
vt 0.390625 0.658203125
vt 0.34754765625 0.658203125
vt 0.09446765625 0.919893203125
vt 0.09889171875 0.95342494140625
vt 0.09677873046875 0.955078125
vt 0.09446765625 0.95371552734375
vt 0.04296875 0.8913101171875
vt 0.04296875 0.93438744140625
vt 0.041015625 0.9337021875
vt 0.041015625 0.890625
vt 0.44286013671875 0.89453125
vt 0.48749306640625 0.89453125
vt 0.4594188671875 0.927734375
vt 0.42656943359375 0.9196845703125001
vt 0.46629263671875 0.8023565820312499
vt 0.4743437890625 0.835206484375
vt 0.4416718359375 0.86328125
vt 0.4416718359375 0.81864916015625
vt 0.05859375 0.9293984375
vt 0.05859375 0.884765625
vt 0.063021875 0.9291782421875
vt 0.060880703125 0.930754296875
vt 0.32147193359375 0.97265625
vt 0.364549140625 0.97265625
vt 0.365234375 0.974609375
vt 0.32215703125 0.974609375
vt 0.3125 0.71875
vt 0.34632234375 0.71875
vt 0.34768490234375 0.7205434765625001
vt 0.34603173828125 0.72265625
vt 0.103515625 0.9139541796875
vt 0.103515625 0.95703125
vt 0.1015625 0.95634615234375
vt 0.1015625 0.91326896484375
vt 0.4436483203125 0.62109375
vt 0.48828125 0.62109375
vt 0.46020705078125 0.654296875
vt 0.42735763671875 0.6462470703125001
vt 0.24390193359375 0.9375
vt 0.251953125 0.97035009765625
vt 0.219281171875 0.99842486328125
vt 0.219281171875 0.9537927734375
vt 0.54545607421875 0.99609375
vt 0.44573654296875 0.98828125
vt 0.54579591796875 0.98828125
vt 0.54840408203125 0.99209744140625
vt 0.36635083984375 0.921875
vt 0.4220009375 0.921875
vt 0.423828125 0.92578125
vt 0.36817802734375 0.92578125
vt 0.0789019140625 0.889769453125
vt 0.0871137109375 0.95200958984375
vt 0.0831917578125 0.955078125
vt 0.0789019140625 0.952548984375
vt 0.009765625 0.8612021875
vt 0.009765625 0.91685228515625
vt 0.005859375 0.91502509765625
vt 0.005859375 0.859375
vt 0.400390625 0.6597077734375
vt 0.400390625 0.759765625
vt 0.353883828125 0.7293934375
vt 0.345703125 0.6671747070312499
vt 0.3206509375 0.7460160546875
vt 0.38290025390625 0.7541594921875
vt 0.4132866796875 0.80078125
vt 0.3132758203125 0.80078125
vt 0.52745392578125 0.62109375
vt 0.427734375 0.61328125
vt 0.52779375 0.61328125
vt 0.53040193359375 0.6170972265625
vt 0.36830396484375 0.802734375
vt 0.4239540625 0.802734375
vt 0.42578125 0.806640625
vt 0.37013115234375 0.806640625
vt 0.056640625 0.93469130859375
vt 0.064852421875 0.99693146484375
vt 0.06093025390625 1
vt 0.056640625 0.9974708203125
vt 0.00390625 0.86231865234375
vt 0.00390625 0.91796875
vt 0 0.9161415625
vt 0 0.8604912890625
vt 0.455078125 0.501953125
vt 0.455078125 0.6020109765625
vt 0.408571328125 0.5716385937499999
vt 0.400390625 0.50941986328125
vt 0.31556736328125 0.86328125
vt 0.377816484375 0.8714246484375
vt 0.408203125 0.91804642578125
vt 0.30819205078125 0.91804642578125
vt 0.54392697265625 0.751953125
vt 0.44420744140625 0.744140625
vt 0.54426681640625 0.744140625
vt 0.546875 0.74795662109375
vt 0.3624444140625 0.86328125
vt 0.4180946875 0.86328125
vt 0.419921875 0.8671875
vt 0.36427177734375 0.8671875
vt 0.038663203125 0.93469130859375
vt 0.046875 0.99693146484375
vt 0.04295283203125 1
vt 0.038663203125 0.9974708203125
vt 0.0234375 0.9228653515625
vt 0.0234375 0.978515625
vt 0.01953125 0.97668826171875
vt 0.01953125 0.9210381640625
vt 0.404296875 0.556640625
vt 0.404296875 0.6566984765625
vt 0.3577898828125 0.62632630859375
vt 0.349609375 0.5641075585937501
vt 0.3355001171875 0.8046875
vt 0.397749453125 0.8128309375
vt 0.42813587890625 0.8594526953125
vt 0.328125 0.8594526953125
usemtl missile_texture
f 114/437/114 115/438/114 116/439/114 117/440/114
f 118/441/115 114/442/115 117/443/115 119/444/115
f 120/445/116 118/446/116 119/447/116 121/448/116
f 119/449/117 117/450/117 116/451/117 121/452/117
f 115/453/118 114/454/118 118/455/118 120/456/118
f 120/457/119 121/458/119 116/459/119 115/460/119
f 122/461/120 123/462/120 124/463/120 125/464/120
f 126/465/121 122/466/121 125/467/121 127/468/121
f 128/469/26 126/470/26 127/471/26 129/472/26
f 127/473/122 125/474/122 124/475/122 129/476/122
f 123/477/123 122/478/123 126/479/123 128/480/123
f 128/481/124 129/482/124 124/483/124 123/484/124
f 130/485/125 131/486/125 132/487/125 133/488/125
f 134/489/126 130/490/126 133/491/126 135/492/126
f 136/493/127 134/494/127 135/495/127 137/496/127
f 135/497/128 133/498/128 132/499/128 137/500/128
f 131/501/129 130/502/129 134/503/129 136/504/129
f 136/505/130 137/506/130 132/507/130 131/508/130
f 138/509/131 139/510/131 140/511/131 141/512/131
f 142/513/132 138/514/133 141/515/134 143/516/135
f 144/517/26 142/518/132 143/519/135 145/520/136
f 143/521/135 141/522/134 140/523/137 145/524/136
f 139/525/138 138/526/138 142/527/138 144/528/138
f 144/529/139 145/530/139 140/531/139 139/532/139
f 146/533/140 147/534/140 148/535/140 149/536/140
f 150/537/141 146/538/142 149/539/143 151/540/144
f 152/541/145 150/542/141 151/543/144 153/544/146
f 151/545/144 149/546/143 148/547/147 153/548/146
f 147/549/148 146/550/148 150/551/148 152/552/148
f 152/553/149 153/554/149 148/555/149 147/556/149
f 154/557/150 155/558/150 156/559/150 157/560/150
f 158/561/151 154/562/152 157/563/153 159/564/154
f 160/565/116 158/566/151 159/567/154 161/568/155
f 159/569/154 157/570/153 156/571/156 161/572/155
f 155/573/157 154/574/157 158/575/157 160/576/157
f 160/577/158 161/578/158 156/579/158 155/580/158
