mtllib missilethermo.mtl
# Blender v2.76 (sub 0) OBJ File: 'MissileThermo.blend'
# www.blender.org
o Cylinder
usemtl missile_texture
v -0.097545 0.500000 -0.490393
v 0.097545 0.500000 -0.490393
v 0.073159 0.000000 -0.367794
v 0.277785 0.500000 -0.415735
v 0.208339 0.000000 -0.311801
v 0.415735 0.500000 -0.277785
v 0.311801 0.000000 -0.208339
v 0.490393 0.500000 -0.097545
v 0.367794 0.000000 -0.073159
v 0.490393 0.500000 0.097545
v 0.367794 -0.000000 0.073159
v 0.415735 0.500000 0.277785
v 0.311801 -0.000000 0.208339
v 0.277785 0.500000 0.415735
v 0.208339 -0.000000 0.311801
v 0.097545 0.500000 0.490393
v -0.097545 0.500000 0.490393
v -0.073159 -0.000000 0.367794
v -0.277785 0.500000 0.415735
v -0.208339 -0.000000 0.311801
v -0.415735 0.500000 0.277785
v -0.311801 -0.000000 0.208339
v -0.490393 0.500000 0.097545
v -0.490393 0.500000 -0.097545
v -0.367794 0.000000 -0.073159
v -0.415735 0.500000 -0.277785
v -0.311801 0.000000 -0.208339
v 0.490393 3.000000 0.097545
v 0.415735 3.000000 0.277785
v -0.208339 0.000000 -0.311801
v -0.277785 0.500000 -0.415735
v 0.332588 4.500000 0.222228
v 0.222228 4.500000 0.332588
v -0.277785 3.000000 0.415735
v -0.415735 3.000000 0.277785
v -0.277785 3.000000 -0.415735
v -0.097545 3.000000 -0.490393
v 0.415735 3.000000 -0.277785
v 0.490393 3.000000 -0.097545
v -0.490393 3.000000 -0.097545
v -0.415735 3.000000 -0.277785
v 0.097545 3.000000 -0.490393
v 0.277785 3.000000 -0.415735
v 0.277785 3.000000 0.415735
v -0.490393 3.000000 0.097545
v -0.097545 3.000000 0.490393
v 0.097545 3.000000 0.490393
v -0.332588 4.500000 0.222228
v -0.270228 4.750000 0.180560
v -0.318755 4.750000 0.063404
v -0.332588 4.500000 -0.222228
v -0.222228 4.500000 -0.332588
v -0.078036 4.500000 -0.392314
v 0.078036 4.500000 -0.392314
v 0.078036 4.500000 0.392314
v -0.078036 4.500000 0.392314
v -0.222228 4.500000 0.332588
v 0.222228 4.500000 -0.332588
v 0.332588 4.500000 -0.222228
v 0.392314 4.500000 -0.078036
v -0.392314 4.500000 0.078036
v 0.392314 4.500000 0.078036
v -0.392314 4.500000 -0.078036
v -0.180560 4.750000 0.270228
v -0.063404 4.750000 0.318755
v -0.073159 5.000000 0.367795
v 0.318755 4.750000 -0.063404
v -0.318755 4.750000 -0.063404
v 0.318755 4.750000 0.063404
v 0.270227 4.750000 0.180560
v -0.270228 4.750000 -0.180560
v 0.180560 4.750000 0.270228
v -0.063405 4.750000 -0.318755
v 0.063404 4.750000 -0.318755
v -0.180560 4.750000 -0.270228
v 0.063404 4.750000 0.318755
v 0.180560 4.750000 -0.270228
v 0.270227 4.750000 -0.180560
v -0.311801 5.000000 -0.208339
v -0.311801 6.500000 -0.208339
v -0.208339 6.500000 -0.311801
v 0.208338 5.000000 -0.311801
v 0.311801 5.000000 -0.208339
v -0.208339 5.000000 0.311801
v -0.311801 5.000000 0.208339
v 0.367794 5.000000 -0.073159
v -0.367795 5.000000 0.073159
v -0.367795 5.000000 -0.073159
v 0.367794 5.000000 0.073159
v 0.311801 5.000000 0.208339
v -0.208339 5.000000 -0.311801
v 0.208339 5.000000 0.311801
v 0.073159 5.000000 0.367794
v -0.073159 5.000000 -0.367794
v 0.073158 5.000000 -0.367794
v 0.367794 6.500000 0.073159
v 0.367794 6.500000 -0.073159
v 0.220676 6.750000 -0.043895
v 0.208339 6.500000 0.311801
v 0.073159 6.500000 0.367794
v -0.073159 6.500000 -0.367794
v 0.073159 6.500000 -0.367794
v -0.073159 6.500000 0.367795
v 0.208339 6.500000 -0.311801
v -0.208339 6.500000 0.311801
v 0.311801 6.500000 -0.208339
v -0.311801 6.500000 0.208339
v -0.367795 6.500000 0.073159
v -0.367795 6.500000 -0.073159
v 0.311801 6.500000 0.208339
v 0.187080 6.750000 -0.125003
v 0.000000 6.900000 0.000000
v -0.220677 6.750000 0.043895
v -0.220677 6.750000 -0.043895
v 0.220676 6.750000 0.043895
v -0.187081 6.750000 -0.125003
v 0.187080 6.750000 0.125003
v 0.125003 6.750000 0.187081
v 0.043895 6.750000 0.220677
v -0.043896 6.750000 -0.220677
v -0.125004 6.750000 -0.187081
v 0.043895 6.750000 -0.220677
v -0.043896 6.750000 0.220677
v 0.125003 6.750000 -0.187081
v -0.125004 6.750000 0.187081
v -0.187081 6.750000 0.125003
v -0.048773 0.500000 0.490393
v 0.048772 0.500000 0.490393
v -0.490393 0.500000 0.048773
v -0.490393 0.500000 -0.048772
v 0.048773 0.500000 -0.490393
v -0.048772 0.500000 -0.490393
v 0.490393 0.500000 -0.048772
v 0.490393 0.500000 0.048773
v -0.073159 0.000000 -0.367794
v 0.073159 -0.000000 0.367794
v -0.367794 -0.000000 0.073159
v 0.048773 3.000000 -0.490393
v -0.048772 3.000000 -0.490393
v -0.048772 3.000000 0.490393
v 0.048772 3.000000 0.490393
v -0.048772 0.500000 -0.990393
v 0.048773 0.500000 -0.990393
v 0.048772 0.500000 0.990393
v -0.048773 0.500000 0.990393
v -0.490393 3.000000 -0.048773
v -0.490393 3.000000 0.048772
v 0.490393 3.000000 0.048773
v 0.490393 3.000000 -0.048772
v -0.990393 0.500000 0.048772
v -0.990393 0.500000 -0.048773
v 0.990393 0.500000 -0.048772
v 0.990393 0.500000 0.048773
vt 0.637050 0.082779
vt 0.613897 0.082779
vt 0.616792 0.021683
vt 0.590745 0.082779
vt 0.593639 0.021683
vt 0.567592 0.082778
vt 0.570487 0.021683
vt 0.544439 0.082778
vt 0.547334 0.021683
vt 0.914881 0.082781
vt 0.891728 0.082781
vt 0.894623 0.021685
vt 0.888835 0.021685
vt 0.868576 0.082781
vt 0.865682 0.021685
vt 0.845423 0.082781
vt 0.822271 0.082780
vt 0.825165 0.021684
vt 0.799118 0.082780
vt 0.802012 0.021685
vt 0.796224 0.021684
vt 0.775965 0.082780
vt 0.773072 0.021684
vt 0.752813 0.082780
vt 0.729660 0.082780
vt 0.732555 0.021684
vt 0.706508 0.082780
vt 0.709402 0.021684
vt 0.914879 0.379471
vt 0.891726 0.379471
vt 0.680461 0.021684
vt 0.683355 0.082779
vt 0.660202 0.082779
vt 0.686250 0.021684
vt 0.664143 0.659251
vt 0.683067 0.630930
vt 0.744795 0.643209
vt 0.889410 0.557865
vt 0.870888 0.557865
vt 0.799116 0.379470
vt 0.775963 0.379470
vt 0.683353 0.379470
vt 0.660200 0.379469
vt 0.590742 0.379469
vt 0.567590 0.379469
vt 0.729658 0.379470
vt 0.706505 0.379470
vt 0.637048 0.379469
vt 0.613895 0.379469
vt 0.868574 0.379471
vt 0.752811 0.379470
vt 0.822269 0.379470
vt 0.845421 0.379471
vt 0.773647 0.557865
vt 0.771910 0.588792
vt 0.756861 0.588792
vt 0.704189 0.557864
vt 0.685667 0.557864
vt 0.866258 0.557866
vt 0.657884 0.557864
vt 0.639362 0.557864
vt 0.681036 0.557864
vt 0.662514 0.557864
vt 0.843105 0.557865
vt 0.824583 0.557865
vt 0.634731 0.557864
vt 0.819952 0.557865
vt 0.801430 0.557865
vt 0.611578 0.557864
vt 0.796800 0.557865
vt 0.588426 0.557864
vt 0.569904 0.557864
vt 0.755125 0.557865
vt 0.565273 0.557864
vt 0.546751 0.557864
vt 0.750494 0.557864
vt 0.731972 0.557864
vt 0.912563 0.557866
vt 0.727342 0.557865
vt 0.423279 0.021683
vt 0.438328 0.021683
vt 0.439486 0.051917
vt 0.563536 0.588791
vt 0.748758 0.588791
vt 0.733709 0.588791
vt 0.910826 0.588793
vt 0.895777 0.588793
vt 0.725605 0.588792
vt 0.710556 0.588792
vt 0.887674 0.588792
vt 0.702453 0.588791
vt 0.847735 0.557865
vt 0.864521 0.588792
vt 0.656147 0.588791
vt 0.641098 0.588790
vt 0.679300 0.588791
vt 0.664251 0.588791
vt 0.841368 0.588791
vt 0.632994 0.588791
vt 0.617945 0.588791
vt 0.818216 0.588792
vt 0.609842 0.588791
vt 0.594792 0.588790
vt 0.778277 0.557865
vt 0.795063 0.588792
vt 0.586689 0.588791
vt 0.352664 0.051917
vt 0.352664 0.229931
vt 0.335300 0.229931
vt 0.282049 0.021683
vt 0.283206 0.051917
vt 0.265842 0.051917
vt 0.420964 0.021683
vt 0.422122 0.051917
vt 0.404757 0.051917
vt 0.264684 0.021683
vt 0.248477 0.051917
vt 0.403600 0.021683
vt 0.387393 0.051917
vt 0.232271 0.021683
vt 0.247320 0.021683
vt 0.386235 0.021683
vt 0.370028 0.051917
vt 0.507786 0.021683
vt 0.508944 0.051917
vt 0.491579 0.051917
vt 0.368871 0.021683
vt 0.475372 0.021683
vt 0.490422 0.021683
vt 0.351506 0.021683
vt 0.335299 0.051917
vt 0.473057 0.021683
vt 0.474215 0.051917
vt 0.456851 0.051917
vt 0.316778 0.021683
vt 0.317935 0.051917
vt 0.300571 0.051917
vt 0.334142 0.021683
vt 0.455693 0.021683
vt 0.299413 0.021683
vt 0.231112 0.229931
vt 0.248477 0.229931
vt 0.245004 0.264357
vt 0.474215 0.229931
vt 0.456851 0.229931
vt 0.317935 0.229931
vt 0.300570 0.229931
vt 0.439486 0.229931
vt 0.283206 0.229931
vt 0.422122 0.229931
vt 0.265842 0.229931
vt 0.404757 0.229931
vt 0.387393 0.229931
vt 0.370028 0.229931
vt 0.508944 0.229931
vt 0.491580 0.229931
vt 0.251950 0.264357
vt 0.262369 0.264357
vt 0.257159 0.296023
vt 0.383920 0.264356
vt 0.373501 0.264357
vt 0.505472 0.264356
vt 0.366555 0.264357
vt 0.356137 0.264357
vt 0.488107 0.264356
vt 0.477688 0.264356
vt 0.349191 0.264356
vt 0.470743 0.264356
vt 0.460324 0.264356
vt 0.314462 0.264357
vt 0.331827 0.264357
vt 0.321408 0.264357
vt 0.453378 0.264356
vt 0.297098 0.264356
vt 0.436013 0.264356
vt 0.279733 0.264356
vt 0.269314 0.264356
vt 0.418649 0.264356
vt 0.408230 0.264356
vt 0.401285 0.264356
vt 0.274523 0.296023
vt 0.482898 0.296022
vt 0.500262 0.296023
vt 0.495053 0.264356
vt 0.239795 0.296023
vt 0.234585 0.264357
vt 0.465533 0.296023
vt 0.448169 0.296023
vt 0.442959 0.264356
vt 0.430804 0.296023
vt 0.425595 0.264356
vt 0.413440 0.296022
vt 0.396075 0.296023
vt 0.390866 0.264356
vt 0.378711 0.296023
vt 0.361346 0.296023
vt 0.343982 0.296022
vt 0.338772 0.264356
vt 0.326617 0.296023
vt 0.309253 0.296023
vt 0.304043 0.264357
vt 0.291888 0.296023
vt 0.286679 0.264356
vt 0.275742 0.693421
vt 0.275742 0.390854
vt 0.287318 0.693421
vt 0.439182 0.390854
vt 0.450758 0.693421
vt 0.439182 0.693421
vt 0.112301 0.693421
vt 0.112301 0.390854
vt 0.123877 0.693421
vt 0.287318 0.331516
vt 0.287318 0.390854
vt 0.275742 0.331516
vt 0.845119 0.683623
vt 0.856695 0.986190
vt 0.845119 0.986190
vt 0.856695 0.683623
vt 0.845119 0.624285
vt 0.450758 0.390854
vt 0.439182 0.331516
vt 0.123877 0.390854
vt 0.380996 0.402491
vt 0.508944 0.402491
vt 0.786933 0.695261
vt 0.182063 0.402491
vt 0.914881 0.695261
vt 0.054115 0.402491
vt 0.657309 0.021683
vt 0.639944 0.021683
vt 0.634156 0.021683
vt 0.611004 0.021683
vt 0.587851 0.021683
vt 0.564698 0.021683
vt 0.911987 0.021685
vt 0.871470 0.021685
vt 0.848318 0.021685
vt 0.842530 0.021684
vt 0.819377 0.021685
vt 0.778860 0.021684
vt 0.755707 0.021684
vt 0.749919 0.021684
vt 0.726766 0.021684
vt 0.663097 0.021683
vt 0.703614 0.021684
vt 0.751440 0.659251
vt 0.751440 0.676616
vt 0.744795 0.692659
vt 0.732517 0.704937
vt 0.716474 0.711582
vt 0.670788 0.692659
vt 0.699110 0.711582
vt 0.683067 0.704937
vt 0.664143 0.676616
vt 0.670788 0.643209
vt 0.699110 0.624285
vt 0.716474 0.624285
vt 0.732517 0.630930
vt 0.616209 0.557864
vt 0.593056 0.557863
vt 0.544437 0.379469
vt 0.894041 0.557866
vt 0.708820 0.557865
vt 0.548487 0.588791
vt 0.872624 0.588792
vt 0.687403 0.588791
vt 0.849472 0.588792
vt 0.826319 0.588791
vt 0.803167 0.588792
vt 0.780014 0.588791
vt 0.571640 0.588791
vt 0.266999 0.021683
vt 0.405915 0.021683
vt 0.249635 0.021683
vt 0.388550 0.021683
vt 0.231113 0.051917
vt 0.371186 0.021683
vt 0.492737 0.021683
vt 0.353822 0.021683
vt 0.336457 0.021683
vt 0.458008 0.021683
vt 0.301728 0.021683
vt 0.319093 0.021683
vt 0.440644 0.021683
vt 0.284364 0.021683
vt 0.345504 0.402491
vt 0.217556 0.402491
vt 0.856695 0.624285
vt 0.450758 0.331516
vt 0.112301 0.331516
vt 0.123877 0.331516
s 1
vn 0.257562 -0.038624 -0.965489
vn 0.607433 -0.038623 -0.793431
vn 0.473393 -0.241817 -0.847009
vn 0.864828 -0.038623 -0.500581
vn 0.761495 -0.241816 -0.601373
vn 0.990561 -0.038624 -0.131521
vn 0.933665 -0.241817 -0.264185
vn 0.965489 -0.038624 0.257562
vn 0.963693 -0.241818 0.113222
vn 0.797259 -0.029349 0.602923
vn 0.806644 -0.242536 0.538982
vn 0.515001 -0.038660 0.856317
vn 0.473393 -0.241817 0.847009
vn 0.194682 -0.064679 0.978732
vn -0.201426 -0.030205 0.979038
vn -0.113222 -0.241818 0.963693
vn -0.602923 -0.029349 0.797259
vn -0.538982 -0.242536 0.806644
vn -0.856317 -0.038660 0.515001
vn -0.847009 -0.241817 0.473393
vn -0.978732 -0.064679 0.194682
vn -0.979038 -0.030205 -0.201426
vn -0.963693 -0.241818 -0.113222
vn -0.793431 -0.038623 -0.607433
vn -0.847009 -0.241817 -0.473393
vn 0.988737 0.019023 0.148447
vn 0.851922 0.027875 0.522926
vn -0.538982 -0.242536 -0.806644
vn -0.505843 -0.029349 -0.862126
vn -0.142000 -0.047177 -0.988742
vn 0.000000 -1.000000 0.000000
vn 0.827343 0.099504 0.552813
vn 0.557880 0.088331 0.825207
vn -0.515521 0.019023 0.856666
vn -0.809137 0.027875 0.586958
vn -0.573643 0.023919 -0.818756
vn -0.216653 0.023919 -0.975956
vn 0.809137 0.027875 -0.586958
vn 0.975956 0.023919 -0.216653
vn -0.980479 0.024992 -0.195030
vn -0.851922 0.027875 -0.522926
vn 0.148447 0.019023 -0.988737
vn 0.502132 0.023878 -0.864461
vn 0.594175 0.019023 0.804111
vn -0.983734 0.019712 0.178544
vn -0.220361 0.030411 0.974944
vn 0.195037 0.023370 0.980517
vn -0.825469 0.119928 0.551560
vn -0.855348 -0.005965 0.518020
vn -0.978941 0.052936 0.197162
vn -0.827344 0.099504 -0.552813
vn -0.604745 0.102486 -0.789797
vn -0.251957 0.095470 -0.963018
vn 0.199621 0.088332 -0.975884
vn 0.204523 0.110287 0.972629
vn -0.121518 0.095379 0.987996
vn -0.548901 0.088331 0.831207
vn 0.612692 0.095379 -0.784545
vn 0.827343 0.099504 -0.552813
vn 0.959292 0.095379 -0.265821
vn -0.963018 0.095470 0.251957
vn 0.976455 0.093870 0.194229
vn -0.975884 0.088332 -0.199621
vn -0.582206 0.014276 0.812916
vn -0.239319 0.108067 0.964908
vn -0.248429 -0.034284 0.968043
vn 0.983042 0.108069 -0.148152
vn -0.979874 0.052937 -0.192469
vn 0.979943 -0.041428 0.194924
vn 0.822837 0.143730 0.549801
vn -0.810866 0.092489 -0.577877
vn 0.528235 0.014277 0.848978
vn -0.197162 0.052938 -0.978941
vn 0.192467 0.052939 -0.979874
vn -0.518020 -0.005964 -0.855348
vn 0.121719 0.052792 0.991160
vn 0.552799 0.052938 -0.831631
vn 0.844195 0.092489 -0.527997
vn -0.834826 -0.021335 -0.550100
vn -0.828431 0.085401 -0.553542
vn -0.598982 0.090055 -0.795682
vn 0.595318 -0.027433 -0.803021
vn 0.857307 -0.027433 -0.514075
vn -0.603993 -0.019960 0.796740
vn -0.857306 -0.027433 0.514076
vn 0.989425 -0.034284 -0.140935
vn -0.988776 -0.027433 0.146867
vn -0.982251 -0.038534 -0.183570
vn 0.967230 -0.019960 0.253115
vn 0.799286 -0.034284 0.599972
vn -0.514073 -0.027433 -0.857308
vn 0.504953 -0.019960 0.862916
vn 0.146869 -0.027433 0.988776
vn -0.146865 -0.027433 -0.988776
vn 0.242701 -0.027433 -0.969713
vn 0.988389 0.075360 0.131940
vn 0.965693 0.059786 -0.252712
vn 0.778869 0.607751 -0.154926
vn 0.596408 0.075410 0.799131
vn 0.252715 0.059786 0.965692
vn -0.252712 0.059786 -0.965693
vn 0.131940 0.075360 -0.988389
vn -0.131938 0.075360 0.988389
vn 0.505892 0.090055 -0.857883
vn -0.505896 0.090055 0.857881
vn 0.799130 0.075410 -0.596410
vn -0.795473 0.059786 0.603033
vn -0.964334 0.090055 0.248896
vn -0.978219 0.058545 -0.199149
vn 0.857883 0.090056 0.505892
vn 0.612261 0.634088 -0.472302
vn 0.235291 0.967026 -0.097461
vn -0.715519 0.683942 0.142326
vn -0.766902 0.634088 -0.098964
vn 0.746397 0.634088 0.202050
vn -0.660294 0.607751 -0.441193
vn 0.606590 0.683941 0.405307
vn 0.472305 0.634088 0.612258
vn 0.154927 0.607750 0.778869
vn -0.154926 0.607750 -0.778870
vn -0.405312 0.683941 -0.606586
vn 0.202050 0.634087 -0.746398
vn -0.202051 0.634088 0.746397
vn 0.405312 0.683941 -0.606586
vn -0.405312 0.683941 0.606586
vn -0.660294 0.607751 0.441193
vn 0.180084 0.967026 -0.180084
vn 0.180084 0.967026 0.180084
vn 0.235291 0.967026 0.097461
vn 0.254678 0.967026 0.000000
vn 0.097461 0.967026 0.235292
vn 0.000000 0.967026 0.254678
vn -0.097461 0.967026 0.235292
vn -0.180084 0.967026 0.180084
vn -0.235291 0.967026 0.097461
vn -0.254678 0.967026 0.000000
vn -0.235291 0.967026 -0.097461
vn -0.180084 0.967026 -0.180084
vn -0.097461 0.967026 -0.235292
vn 0.000000 0.967026 -0.254678
vn 0.097461 0.967026 -0.235292
vn 0.000000 0.196116 0.980581
vn 0.980581 0.196116 0.000000
vn 0.000000 0.196116 -0.980581
vn -0.980581 0.196116 0.000000
vn 0.000000 0.000000 1.000000
vn 0.000000 0.000000 -1.000000
vn -1.000000 0.000000 0.000000
vn 1.000000 0.000000 0.000000
vn -0.189264 -0.242537 -0.951501
vn 0.113222 -0.241818 -0.963693
vn 0.189264 -0.242537 0.951501
vn -0.951501 -0.242537 0.189264
f 2/1/1 4/2/2 5/3/3
f 4/2/2 6/4/4 7/5/5
f 6/4/4 8/6/6 9/7/7
f 8/6/6 10/8/8 11/9/9
f 10/10/8 12/11/10 13/12/11
f 13/13/11 12/11/10 14/14/12
f 15/15/13 14/14/12 16/16/14
f 16/16/14 17/17/15 18/18/16
f 17/17/15 19/19/17 20/20/18
f 20/21/18 19/19/17 21/22/19
f 22/23/20 21/22/19 23/24/21
f 23/24/21 24/25/22 25/26/23
f 24/25/22 26/27/24 27/28/25
f 10/10/8 28/29/26 29/30/27
f 30/31/28 31/32/29 1/33/30
f 26/27/24 31/32/29 30/34/28
f 18/35/31 22/36/31 30/37/31
f 29/30/27 32/38/32 33/39/33
f 19/19/17 34/40/34 35/41/35
f 31/32/29 36/42/36 37/43/37
f 6/4/4 38/44/38 39/45/39
f 24/25/22 40/46/40 41/47/41
f 2/1/1 42/48/42 43/49/43
f 12/11/10 29/30/27 44/50/44
f 21/22/19 35/41/35 45/51/45
f 17/17/15 46/52/46 34/40/34
f 26/27/24 41/47/41 36/42/36
f 4/2/2 43/49/43 38/44/38
f 14/14/12 44/50/44 47/53/47
f 48/54/48 49/55/49 50/56/50
f 41/47/41 51/57/51 52/58/52
f 47/53/47 44/50/44 33/59/33
f 37/43/37 53/60/53 54/61/54
f 36/42/36 52/62/52 53/63/53
f 47/53/47 55/64/55 56/65/56
f 43/49/43 42/48/42 54/66/54
f 46/52/46 56/67/56 57/68/57
f 38/44/38 43/49/43 58/69/58
f 35/41/35 34/40/34 57/70/57
f 38/44/38 59/71/59 60/72/60
f 35/41/35 48/54/48 61/73/61
f 39/45/39 60/74/60 62/75/62
f 45/51/45 61/76/61 63/77/63
f 29/30/27 28/29/26 62/78/62
f 41/47/41 40/46/40 63/79/63
f 64/80/64 65/81/65 66/82/66
f 62/75/62 60/74/60 67/83/67
f 61/76/61 50/84/50 68/85/68
f 62/78/62 69/86/69 70/87/70
f 63/79/63 68/88/68 71/89/71
f 33/39/33 32/38/32 70/90/70
f 52/58/52 51/57/51 71/91/71
f 55/92/55 33/59/33 72/93/72
f 53/60/53 73/94/73 74/95/74
f 52/62/52 75/96/75 73/97/73
f 56/65/56 55/64/55 76/98/76
f 54/66/54 74/99/74 77/100/77
f 57/68/57 56/67/56 65/101/65
f 58/69/58 77/102/77 78/103/78
f 48/104/48 57/70/57 64/105/64
f 60/72/60 59/71/59 78/106/78
f 79/107/79 80/108/80 81/109/81
f 77/110/77 82/111/82 83/112/83
f 64/113/64 84/114/84 85/115/85
f 78/116/78 83/112/83 86/117/86
f 49/118/49 85/115/85 87/119/87
f 69/120/69 67/121/67 86/117/86
f 50/122/50 87/119/87 88/123/88
f 69/124/69 89/125/89 90/126/90
f 68/127/68 88/123/88 79/107/79
f 72/128/72 70/129/70 90/126/90
f 71/130/71 79/107/79 91/131/91
f 72/132/72 92/133/92 93/134/93
f 73/135/73 94/136/94 95/137/95
f 75/138/75 91/131/91 94/136/94
f 76/139/76 93/134/93 66/82/66
f 74/140/74 95/137/95 82/111/82
f 96/141/96 97/142/97 98/143/98
f 92/133/92 99/144/99 100/145/100
f 94/136/94 101/146/101 102/147/102
f 91/131/91 81/109/81 101/146/101
f 93/134/93 100/145/100 103/148/103
f 95/137/95 102/147/102 104/149/104
f 66/82/66 103/148/103 105/150/105
f 82/111/82 104/149/104 106/151/106
f 84/114/84 105/150/105 107/152/107
f 83/112/83 106/151/106 97/142/97
f 85/115/85 107/152/107 108/153/108
f 86/117/86 97/142/97 96/141/96
f 87/119/87 108/153/108 109/154/109
f 89/125/89 96/155/96 110/156/110
f 79/107/79 88/123/88 109/154/109
f 90/126/90 110/156/110 99/144/99
f 98/157/98 111/158/111 112/159/112
f 108/153/108 113/160/113 114/161/114
f 110/156/110 96/155/96 115/162/115
f 109/154/109 114/163/114 116/164/116
f 110/156/110 117/165/117 118/166/118
f 81/109/81 80/108/80 116/167/116
f 99/144/99 118/168/118 119/169/119
f 102/147/102 101/146/101 120/170/120
f 81/109/81 121/171/121 120/172/120
f 103/148/103 100/145/100 119/173/119
f 104/149/104 102/147/102 122/174/122
f 105/150/105 103/148/103 123/175/123
f 104/149/104 124/176/124 111/177/111
f 105/150/105 125/178/125 126/179/126
f 106/151/106 111/158/111 98/157/98
f 108/153/108 107/152/107 126/180/126
f 124/176/124 112/181/127 111/177/111
f 117/165/117 112/182/128 118/166/118
f 115/162/115 112/183/129 117/184/117
f 98/143/98 112/185/130 115/186/115
f 118/168/118 112/187/131 119/169/119
f 119/173/119 112/188/132 123/189/123
f 123/175/123 112/190/133 125/191/125
f 125/178/125 112/192/134 126/179/126
f 126/180/126 112/193/135 113/194/113
f 113/160/113 112/195/136 114/161/114
f 114/163/114 112/196/137 116/164/116
f 116/167/116 112/197/138 121/198/121
f 121/171/121 112/199/139 120/172/120
f 120/170/120 112/200/140 122/201/122
f 122/174/122 112/202/141 124/203/124
f 140/204/142 145/205/142 141/206/142
f 153/207/143 149/208/143 148/209/143
f 138/210/144 143/211/144 139/212/144
f 128/213/31 144/214/31 127/215/31
f 151/216/145 147/217/145 146/218/145
f 150/219/31 151/216/31 130/220/31
f 152/221/31 153/207/31 134/222/31
f 145/205/142 144/214/142 141/206/142
f 143/211/144 142/223/144 139/212/144
f 134/224/146 153/207/146 148/209/146
f 133/225/147 149/208/147 152/221/147
f 130/226/147 151/216/147 146/218/147
f 132/227/148 139/212/148 142/223/148
f 129/228/146 147/217/146 150/219/146
f 131/229/149 143/211/149 138/210/149
f 135/230/150 1/33/30 3/231/151
f 3/232/151 2/1/1 5/3/3
f 5/233/3 4/2/2 7/5/5
f 7/234/5 6/4/4 9/7/7
f 9/235/7 8/6/6 11/9/9
f 11/236/9 10/10/8 13/12/11
f 15/237/13 13/13/11 14/14/12
f 136/238/152 15/15/13 16/16/14
f 136/239/152 16/16/14 18/18/16
f 18/240/16 17/17/15 20/20/18
f 22/241/20 20/21/18 21/22/19
f 137/242/153 22/23/20 23/24/21
f 137/243/153 23/24/21 25/26/23
f 25/244/23 24/25/22 27/28/25
f 12/11/10 10/10/8 29/30/27
f 135/245/150 30/31/28 1/33/30
f 27/246/25 26/27/24 30/34/28
f 30/37/31 135/247/31 3/248/31
f 3/248/31 5/249/31 7/250/31
f 7/250/31 9/251/31 15/252/31
f 11/253/31 13/254/31 15/252/31
f 15/252/31 136/255/31 18/35/31
f 18/35/31 20/256/31 22/36/31
f 22/36/31 137/257/31 30/37/31
f 25/258/31 27/259/31 30/37/31
f 30/37/31 3/248/31 15/252/31
f 9/251/31 11/253/31 15/252/31
f 15/252/31 18/35/31 30/37/31
f 137/257/31 25/258/31 30/37/31
f 3/248/31 7/250/31 15/252/31
f 44/50/44 29/30/27 33/39/33
f 21/22/19 19/19/17 35/41/35
f 1/33/30 31/32/29 37/43/37
f 8/6/6 6/4/4 39/45/39
f 26/27/24 24/25/22 41/47/41
f 4/2/2 2/1/1 43/49/43
f 14/14/12 12/11/10 44/50/44
f 23/24/21 21/22/19 45/51/45
f 19/19/17 17/17/15 34/40/34
f 31/32/29 26/27/24 36/42/36
f 6/4/4 4/2/2 38/44/38
f 16/16/14 14/14/12 47/53/47
f 61/73/61 48/54/48 50/56/50
f 36/42/36 41/47/41 52/58/52
f 55/92/55 47/53/47 33/59/33
f 42/48/42 37/43/37 54/61/54
f 37/43/37 36/42/36 53/63/53
f 46/52/46 47/53/47 56/65/56
f 58/260/58 43/49/43 54/66/54
f 34/40/34 46/52/46 57/68/57
f 59/261/59 38/44/38 58/69/58
f 48/104/48 35/41/35 57/70/57
f 39/45/39 38/44/38 60/72/60
f 45/51/45 35/41/35 61/73/61
f 28/262/26 39/45/39 62/75/62
f 40/46/40 45/51/45 63/77/63
f 32/263/32 29/30/27 62/78/62
f 51/264/51 41/47/41 63/79/63
f 84/114/84 64/80/64 66/82/66
f 69/265/69 62/75/62 67/83/67
f 63/77/63 61/76/61 68/85/68
f 32/263/32 62/78/62 70/87/70
f 51/264/51 63/79/63 71/89/71
f 72/266/72 33/39/33 70/90/70
f 75/267/75 52/58/52 71/91/71
f 76/268/76 55/92/55 72/93/72
f 54/61/54 53/60/53 74/95/74
f 53/63/53 52/62/52 73/97/73
f 65/269/65 56/65/56 76/98/76
f 58/260/58 54/66/54 77/100/77
f 64/270/64 57/68/57 65/101/65
f 59/261/59 58/69/58 78/103/78
f 49/271/49 48/104/48 64/105/64
f 67/272/67 60/72/60 78/106/78
f 91/131/91 79/107/79 81/109/81
f 78/273/78 77/110/77 83/112/83
f 49/274/49 64/113/64 85/115/85
f 67/275/67 78/116/78 86/117/86
f 50/276/50 49/118/49 87/119/87
f 89/277/89 69/120/69 86/117/86
f 68/278/68 50/122/50 88/123/88
f 70/279/70 69/124/69 90/126/90
f 71/280/71 68/127/68 79/107/79
f 92/133/92 72/128/72 90/126/90
f 75/281/75 71/130/71 91/131/91
f 76/282/76 72/132/72 93/134/93
f 74/283/74 73/135/73 95/137/95
f 73/284/73 75/138/75 94/136/94
f 65/285/65 76/139/76 66/82/66
f 77/286/77 74/140/74 82/111/82
f 115/186/115 96/141/96 98/143/98
f 93/134/93 92/133/92 100/145/100
f 95/137/95 94/136/94 102/147/102
f 94/136/94 91/131/91 101/146/101
f 66/82/66 93/134/93 103/148/103
f 82/111/82 95/137/95 104/149/104
f 84/114/84 66/82/66 105/150/105
f 83/112/83 82/111/82 106/151/106
f 85/115/85 84/114/84 107/152/107
f 86/117/86 83/112/83 97/142/97
f 87/119/87 85/115/85 108/153/108
f 89/277/89 86/117/86 96/141/96
f 88/123/88 87/119/87 109/154/109
f 90/126/90 89/125/89 110/156/110
f 80/108/80 79/107/79 109/154/109
f 92/133/92 90/126/90 99/144/99
f 109/154/109 108/153/108 114/161/114
f 117/184/117 110/156/110 115/162/115
f 80/108/80 109/154/109 116/164/116
f 99/144/99 110/156/110 118/166/118
f 121/198/121 81/109/81 116/167/116
f 100/145/100 99/144/99 119/169/119
f 122/201/122 102/147/102 120/170/120
f 101/146/101 81/109/81 120/172/120
f 123/189/123 103/148/103 119/173/119
f 124/203/124 104/149/104 122/174/122
f 125/191/125 105/150/105 123/175/123
f 106/151/106 104/149/104 111/177/111
f 107/152/107 105/150/105 126/179/126
f 97/142/97 106/151/106 98/157/98
f 113/194/113 108/153/108 126/180/126
f 128/287/149 141/206/149 144/214/149
f 151/216/145 150/219/145 147/217/145
f 127/288/148 145/205/148 140/204/148
f 153/207/143 152/221/143 149/208/143
f 129/289/31 150/219/31 130/220/31
f 144/214/31 145/205/31 127/215/31
f 133/290/31 152/221/31 134/222/31
f 142/223/31 143/211/31 131/291/31
f 28/262/26 10/8/8 8/6/6
f 47/53/47 46/52/46 17/17/15
f 45/51/45 40/46/40 24/25/22
f 3/231/151 1/33/30 2/1/1
f 142/223/31 131/291/31 132/292/31
f 42/48/42 2/1/1 1/33/30
f 39/45/39 28/262/26 8/6/6
f 16/16/14 47/53/47 17/17/15
f 23/24/21 45/51/45 24/25/22
f 37/43/37 42/48/42 1/33/30
