# Blender v3.2.0 OBJ File: 'titan.blend'
# www.blender.org
mtllib missile_atlas.mtl
o Circle.002_Circle.003
v -0.883883 0.687500 -0.883883
v -1.154849 0.687500 -0.478354
v -1.250000 0.687500 0.000000
v -1.154849 0.687500 0.478354
v -0.883883 0.687500 0.883883
v 0.883883 0.687500 0.883884
v 1.154849 0.687500 0.478354
v 1.250000 0.687500 -0.000000
v 1.154849 0.687500 -0.478355
v 0.883884 0.687500 -0.883883
v 0.000000 3.312500 -1.250000
v -0.478354 3.312500 -1.154849
v -0.883883 3.312500 -0.883883
v -1.154849 3.312500 -0.478354
v -1.250000 3.312500 0.000000
v -1.154849 3.312500 0.478354
v -0.883883 3.312500 0.883883
v -0.478354 3.312500 1.154849
v 0.000000 3.312500 1.250000
v 0.478354 3.312500 1.154849
v 0.883883 3.312500 0.883884
v 1.154849 3.312500 0.478354
v 1.250000 3.312500 -0.000000
v 1.154849 3.312500 -0.478355
v 0.883884 3.312500 -0.883883
v 0.478354 3.312500 -1.154849
v 0.000000 3.312500 -1.125000
v -0.430519 3.312500 -1.039364
v -0.795495 3.312500 -0.795495
v -1.039364 3.312500 -0.430519
v -1.125000 3.312500 0.000000
v -1.039364 3.312500 0.430519
v -0.795495 3.312500 0.795495
v -0.430519 3.312500 1.039364
v 0.000000 3.312500 1.125000
v 0.430519 3.312500 1.039364
v 0.795495 3.312500 0.795495
v 1.039364 3.312500 0.430519
v 1.125000 3.312500 -0.000000
v 1.039364 3.312500 -0.430519
v 0.795495 3.312500 -0.795495
v 0.430519 3.312500 -1.039364
v 0.000000 10.812500 -1.125000
v -0.430519 10.812500 -1.039364
v -0.795495 10.812500 -0.795495
v -1.039364 10.812500 -0.430519
v -1.125000 10.812500 0.000000
v -1.039364 10.812500 0.430519
v -0.795495 10.812500 0.795495
v -0.430519 10.812500 1.039364
v 0.000000 10.812500 1.125000
v 0.430519 10.812500 1.039364
v 0.795495 10.812500 0.795495
v 1.039364 10.812500 0.430519
v 1.125000 10.812500 -0.000000
v 1.039364 10.812500 -0.430519
v 0.795495 10.812500 -0.795495
v 0.430519 10.812500 -1.039364
v -0.000000 13.312500 -0.562500
v -0.215259 13.312500 -0.519682
v -0.397748 13.312500 -0.397748
v -0.519682 13.312500 -0.215259
v -0.562500 13.312500 0.000000
v -0.519682 13.312500 0.215259
v -0.397748 13.312500 0.397748
v -0.215259 13.312500 0.519682
v 0.000000 13.312500 0.562500
v 0.215259 13.312500 0.519682
v 0.397747 13.312500 0.397748
v 0.519682 13.312500 0.215260
v 0.562500 13.312500 -0.000000
v 0.519682 13.312500 -0.215260
v 0.397748 13.312500 -0.397748
v 0.215259 13.312500 -0.519682
v -0.000000 14.437500 -0.000000
v -0.500000 2.250000 -1.250000
v -0.433013 2.250000 -1.500000
v -0.250000 2.250000 -1.683013
v 0.000000 2.250000 -1.750000
v 0.500000 2.250000 -1.250000
v 0.433013 2.250000 -1.500000
v 0.250000 2.250000 -1.683013
v 0.000000 0.687500 -2.000000
v -0.375000 0.687500 -1.899519
v -0.649519 0.687500 -1.625000
v -0.750000 0.687500 -1.250000
v 0.750000 0.687500 -1.250000
v 0.649519 0.687500 -1.625000
v 0.375000 0.687500 -1.899519
v 0.125000 3.312500 -1.466506
v 0.216506 3.312500 -1.375000
v 0.250000 3.312500 -1.250000
v 0.216506 3.312500 -1.125000
v -0.216506 3.312500 -1.125000
v -0.250000 3.312500 -1.250000
v -0.216506 3.312500 -1.375000
v -0.125000 3.312500 -1.466506
v 0.180586 3.312500 -1.089079
v -0.180586 3.312500 -1.089079
v 0.687126 0.687500 -1.015352
v -0.687126 0.687500 -1.015352
v 0.125000 6.812500 -1.466506
v 0.216506 6.812500 -1.375000
v 0.250000 6.812500 -1.250000
v 0.216506 6.812500 -1.125000
v -0.216506 6.812500 -1.125000
v -0.250000 6.812500 -1.250000
v -0.216506 6.812500 -1.375000
v -0.125000 6.812500 -1.466506
v 0.180586 6.812500 -1.089079
v -0.180586 6.812500 -1.089079
v 0.000000 7.687500 -1.125000
v 0.478354 2.250000 -1.154849
v -0.478354 2.250000 -1.154849
v 0.000000 0.687500 -1.625000
v -0.187500 0.687500 -1.574759
v -0.324760 0.687500 -1.437500
v -0.375000 0.687500 -1.250000
v -0.324760 0.687500 -1.062500
v -0.187500 0.687500 -0.925241
v 0.000000 0.687500 -0.875000
v 0.187500 0.687500 -0.925241
v 0.324760 0.687500 -1.062500
v 0.375000 0.687500 -1.250000
v 0.324760 0.687500 -1.437500
v 0.187500 0.687500 -1.574759
v 0.000000 0.000000 -1.750000
v -0.250000 0.000000 -1.683013
v -0.433013 0.000000 -1.500000
v -0.500000 0.000000 -1.250000
v -0.433013 0.000000 -1.000000
v -0.250000 0.000000 -0.816987
v 0.000000 0.000000 -0.750000
v 0.250000 0.000000 -0.816987
v 0.433013 0.000000 -1.000000
v 0.500000 0.000000 -1.250000
v 0.433013 0.000000 -1.500000
v 0.250000 0.000000 -1.683013
v 0.000000 0.687500 -0.375000
v -0.187500 0.687500 -0.324759
v -0.324760 0.687500 -0.187500
v -0.375000 0.687500 0.000000
v -0.324760 0.687500 0.187500
v -0.187500 0.687500 0.324759
v 0.000000 0.687500 0.375000
v 0.187500 0.687500 0.324759
v 0.324760 0.687500 0.187500
v 0.375000 0.687500 0.000000
v 0.324760 0.687500 -0.187500
v 0.187500 0.687500 -0.324759
v 0.000000 0.375000 -0.500000
v -0.250000 0.375000 -0.433013
v -0.433013 0.375000 -0.250000
v -0.500000 0.375000 0.000000
v -0.433013 0.375000 0.250000
v -0.250000 0.375000 0.433013
v 0.000000 0.375000 0.500000
v 0.250000 0.375000 0.433013
v 0.433013 0.375000 0.250000
v 0.500000 0.375000 0.000000
v 0.433013 0.375000 -0.250000
v 0.250000 0.375000 -0.433013
v 0.000000 0.000000 -0.500000
v -0.250000 0.000000 -0.433013
v -0.433013 0.000000 -0.250000
v -0.500000 0.000000 0.000000
v -0.433013 0.000000 0.250000
v -0.250000 0.000000 0.433013
v 0.000000 0.000000 0.500000
v 0.250000 0.000000 0.433013
v 0.433013 0.000000 0.250000
v 0.500000 0.000000 0.000000
v 0.433013 0.000000 -0.250000
v 0.250000 0.000000 -0.433013
v 0.000000 3.312500 -1.500000
v 0.125000 3.376629 -1.642699
v -0.125000 3.376629 -1.642699
v 0.062500 3.687500 -1.466506
v -0.062500 3.687500 -1.466506
v 0.500000 2.250000 1.250000
v 0.433013 2.250000 1.500000
v 0.250000 2.250000 1.683013
v -0.000000 2.250000 1.750000
v -0.500000 2.250000 1.250000
v -0.433013 2.250000 1.500000
v -0.250000 2.250000 1.683013
v -0.000000 0.687500 2.000000
v 0.375000 0.687500 1.899519
v 0.649519 0.687500 1.625000
v 0.750000 0.687500 1.250000
v -0.750000 0.687500 1.250000
v -0.649519 0.687500 1.625000
v -0.375000 0.687500 1.899519
v -0.125000 3.312500 1.466506
v -0.216506 3.312500 1.375000
v -0.250000 3.312500 1.250000
v -0.216506 3.312500 1.125000
v 0.216506 3.312500 1.125000
v 0.250000 3.312500 1.250000
v 0.216506 3.312500 1.375000
v 0.125000 3.312500 1.466506
v -0.180586 3.312500 1.089079
v 0.180586 3.312500 1.089079
v -0.687126 0.687500 1.015352
v 0.687126 0.687500 1.015353
v -0.125000 6.812500 1.466506
v -0.216506 6.812500 1.375000
v -0.250000 6.812500 1.250000
v -0.216506 6.812500 1.125000
v 0.216506 6.812500 1.125000
v 0.250000 6.812500 1.250000
v 0.216506 6.812500 1.375000
v 0.125000 6.812500 1.466506
v -0.180586 6.812500 1.089079
v 0.180586 6.812500 1.089079
v -0.000000 7.687500 1.125000
v -0.478354 2.250000 1.154849
v 0.478354 2.250000 1.154849
v -0.000000 0.687500 1.625000
v 0.187500 0.687500 1.574759
v 0.324759 0.687500 1.437500
v 0.375000 0.687500 1.250000
v 0.324759 0.687500 1.062500
v 0.187500 0.687500 0.925241
v -0.000000 0.687500 0.875000
v -0.187500 0.687500 0.925241
v -0.324760 0.687500 1.062500
v -0.375000 0.687500 1.250000
v -0.324760 0.687500 1.437500
v -0.187500 0.687500 1.574759
v -0.000000 0.000000 1.750000
v 0.250000 0.000000 1.683013
v 0.433013 0.000000 1.500000
v 0.500000 0.000000 1.250000
v 0.433013 0.000000 1.000000
v 0.250000 0.000000 0.816987
v -0.000000 0.000000 0.750000
v -0.250000 0.000000 0.816987
v -0.433013 0.000000 1.000000
v -0.500000 0.000000 1.250000
v -0.433013 0.000000 1.500000
v -0.250000 0.000000 1.683013
v -0.000000 3.312500 1.500000
v -0.378886 3.312500 1.500000
v -0.218750 3.437500 1.722636
v 0.218750 3.437500 1.722636
v 0.378886 3.312500 1.500000
v -0.378886 3.312500 1.049635
v 0.378886 3.312500 1.049635
v -0.378886 4.562500 1.500000
v -0.218750 4.562500 1.722636
v 0.218750 4.562500 1.722636
v 0.378886 4.562500 1.500000
v -0.378886 4.562500 1.049635
v 0.378886 4.562500 1.049635
v 0.180586 5.437500 1.089079
v -0.216506 5.437500 1.125000
v -0.250000 5.437500 1.250000
v -0.216506 5.437500 1.375000
v 0.216506 5.437500 1.375000
v 0.250000 5.437500 1.250000
v 0.216506 5.437500 1.125000
v -0.180586 5.437500 1.089079
v -0.125000 5.437500 1.466506
v 0.125000 5.437500 1.466506
v -0.806102 10.093750 -0.806102
v -1.053223 10.093750 -0.436259
v -1.140000 10.093750 0.000000
v -1.053223 10.093750 0.436259
v -0.806102 10.093750 0.806102
v 0.806102 10.093750 0.806102
v 1.053223 10.093750 0.436259
v 1.140000 10.093750 -0.000000
v 1.053223 10.093750 -0.436259
v 0.806102 10.093750 -0.806102
v -0.806102 8.125000 -0.806102
v -1.053223 8.125000 -0.436259
v -1.140000 8.125000 0.000000
v -1.053223 8.125000 0.436259
v -0.806102 8.125000 0.806102
v 0.806102 8.125000 0.806102
v 1.053223 8.125000 0.436259
v 1.140000 8.125000 -0.000000
v 1.053223 8.125000 -0.436259
v 0.806102 8.125000 -0.806102
v -0.225167 6.406250 1.380000
v -0.145625 6.406250 1.475167
v 0.145625 6.406250 1.475167
v 0.225166 6.406250 1.380000
v -0.225167 5.875000 1.380000
v -0.145625 5.875000 1.475167
v 0.145625 5.875000 1.475167
v 0.225166 5.875000 1.380000
v 0.225166 6.406250 -1.380000
v 0.145625 6.406250 -1.475167
v -0.145625 6.406250 -1.475167
v -0.225167 6.406250 -1.380000
v 0.225166 5.875000 -1.380000
v 0.145625 5.875000 -1.475167
v -0.145625 5.875000 -1.475167
v -0.225167 5.875000 -1.380000
vt 0.107143 0.186667
vt 0.071429 0.195556
vt 0.071429 0.186667
vt 0.142857 0.195556
vt 0.178571 0.186667
vt 0.178571 0.195556
vt 0.142857 0.186667
vt 0.107143 0.195556
vt 0.576531 0.622222
vt 0.576531 0.684444
vt 0.571429 0.622222
vt 0.790816 0.577778
vt 0.770408 0.577778
vt 0.780612 0.573333
vt 0.214286 0.195556
vt 0.214286 0.186667
vt 0.250000 0.195556
vt 0.285714 0.186667
vt 0.250000 0.186667
vt 0.321429 0.186667
vt 0.285714 0.195556
vt 0.357143 0.195556
vt 0.321429 0.195556
vt 0.392857 0.186667
vt 0.357143 0.186667
vt 0.392857 0.195556
vt 0.428571 0.186667
vt 0.428571 0.195556
vt 0.464286 0.186667
vt 0.500000 0.195556
vt 0.464286 0.195556
vt 0.535714 0.186667
vt 0.500000 0.186667
vt 0.035714 0.186667
vt 0.035714 0.195556
vt 0.000000 0.186667
vt 0.571429 0.195556
vt 0.535714 0.195556
vt 0.744173 0.160632
vt 0.733441 0.146640
vt 0.777277 0.179900
vt 0.918367 0.151111
vt 0.899213 0.146640
vt 0.948980 0.143966
vt 0.948980 0.051590
vt 0.979592 0.097778
vt 0.971389 0.124444
vt 0.971389 0.071111
vt 0.918367 0.044444
vt 0.899213 0.048915
vt 0.795918 0.320000
vt 0.801387 0.337778
vt 0.801387 0.302222
vt 0.877551 0.320000
vt 0.872083 0.302222
vt 0.872083 0.337778
vt 0.836735 0.355556
vt 0.857143 0.350792
vt 0.816327 0.350792
vt 0.836735 0.284444
vt 0.816327 0.289208
vt 0.857143 0.289208
vt 0.795918 0.320000
vt 0.801387 0.337778
vt 0.801387 0.302222
vt 0.877551 0.320000
vt 0.872083 0.302222
vt 0.872083 0.337778
vt 0.836735 0.355556
vt 0.857143 0.350792
vt 0.816327 0.350792
vt 0.836735 0.284444
vt 0.816327 0.289208
vt 0.857143 0.289208
vt 0.816327 0.186667
vt 0.855376 0.179900
vt 0.816327 0.008889
vt 0.855376 0.015655
vt 0.777277 0.015655
vt 0.888480 0.034924
vt 0.888480 0.160632
vt 0.790816 0.591111
vt 0.770408 0.591111
vt 0.668367 0.622222
vt 0.668367 0.684444
vt 0.663265 0.622222
vt 0.714286 0.044444
vt 0.733441 0.048915
vt 0.683674 0.051590
vt 0.683674 0.143966
vt 0.653061 0.097778
vt 0.661264 0.071111
vt 0.661264 0.124444
vt 0.714286 0.151111
vt 0.877551 0.320000
vt 0.872083 0.302222
vt 0.872083 0.337778
vt 0.795918 0.320000
vt 0.801387 0.337778
vt 0.801387 0.302222
vt 0.836735 0.284444
vt 0.816327 0.289208
vt 0.857143 0.289208
vt 0.836735 0.355556
vt 0.857143 0.350792
vt 0.816327 0.350792
vt 0.744173 0.034924
vt 0.000000 0.195556
vt 0.571429 0.186667
vt 0.040816 0.111111
vt 0.061224 -0.000000
vt 0.081633 -0.000000
vt -0.000000 0.728889
vt 0.035714 0.728889
vt 0.392857 0.728889
vt 0.142857 0.728889
vt 0.428571 0.728889
vt 0.178571 0.728889
vt 0.464286 0.728889
vt 0.214286 0.728889
vt 0.500000 0.728889
vt 0.250000 0.728889
vt 0.535714 0.728889
vt 0.571429 0.728889
vt 0.285714 0.728889
vt 0.321429 0.728889
vt 0.071429 0.728889
vt 0.357143 0.728889
vt 0.107143 0.728889
vt 0.438776 0.911111
vt 0.474490 0.911111
vt 0.510204 0.911111
vt 0.545918 0.911111
vt 0.010204 0.911111
vt 0.045918 0.911111
vt 0.081633 0.911111
vt 0.117347 0.911111
vt 0.168367 0.911111
vt 0.153061 0.911111
vt 0.188776 0.911111
vt 0.239796 0.911111
vt 0.224490 0.911111
vt 0.260204 0.911111
vt 0.295918 0.911111
vt 0.331633 0.911111
vt 0.367347 0.911111
vt 0.403061 0.911111
vt 0.489796 0.911111
vt 0.482143 1.000000
vt 0.232143 1.000000
vt 0.525510 0.911111
vt 0.517857 1.000000
vt 0.275510 0.911111
vt 0.267857 1.000000
vt 0.025510 0.911111
vt 0.017857 1.000000
vt 0.561224 0.911111
vt 0.553571 1.000000
vt 0.311224 0.911111
vt 0.303571 1.000000
vt 0.061224 0.911111
vt 0.053571 1.000000
vt 0.346939 0.911111
vt 0.339286 1.000000
vt 0.096939 0.911111
vt 0.089286 1.000000
vt 0.382653 0.911111
vt 0.375000 1.000000
vt 0.132653 0.911111
vt 0.125000 1.000000
vt 0.418367 0.911111
vt 0.410714 1.000000
vt 0.160714 1.000000
vt 0.454082 0.911111
vt 0.446429 1.000000
vt 0.204082 0.911111
vt 0.196429 1.000000
vt 0.653061 0.186667
vt 0.678571 0.297778
vt 0.658163 0.297778
vt 0.683673 0.186667
vt 0.709184 0.297778
vt 0.688776 0.297778
vt 0.714286 0.186667
vt 0.739796 0.297778
vt 0.719388 0.297778
vt 0.744898 0.186667
vt 0.770408 0.297778
vt 0.750000 0.297778
vt 0.785714 0.297778
vt 0.775510 0.186667
vt 0.795918 0.186667
vt 0.622449 0.186667
vt 0.647959 0.297778
vt 0.627551 0.297778
vt 0.591837 0.186667
vt 0.617347 0.297778
vt 0.596939 0.297778
vt 0.581633 0.297778
vt 0.591837 0.297778
vt 0.591837 0.373333
vt 0.581633 0.373333
vt 0.602041 0.373333
vt 0.632653 0.373333
vt 0.693878 0.373333
vt 0.673469 0.373333
vt 0.724490 0.373333
vt 0.755102 0.373333
vt 0.775510 0.373333
vt 0.785714 0.373333
vt 0.663265 0.373333
vt 0.658163 0.622222
vt 0.658163 0.373333
vt 0.647959 0.622222
vt 0.647959 0.373333
vt 0.576531 0.373333
vt 0.571429 0.373333
vt 0.607143 0.373333
vt 0.596939 0.622222
vt 0.596939 0.373333
vt 0.586735 0.622222
vt 0.586735 0.373333
vt 0.637755 0.622222
vt 0.637755 0.373333
vt 0.627551 0.622222
vt 0.627551 0.373333
vt 0.581633 0.688889
vt 0.591837 0.688889
vt 0.607143 0.622222
vt 0.602041 0.688889
vt 0.632653 0.688889
vt 0.642857 0.688889
vt 0.653061 0.688889
vt 0.663265 0.622222
vt 0.658163 0.684444
vt 0.612245 0.111111
vt 0.571429 0.000000
vt 0.591837 0.000000
vt 0.571429 0.186667
vt 0.612245 0.186667
vt 0.653061 0.186667
vt 0.040816 0.186667
vt 0.081633 0.186667
vt 0.122449 -0.000000
vt 0.163265 0.000000
vt 0.122449 0.186667
vt 0.204082 0.000000
vt 0.163265 0.186667
vt 0.244898 -0.000000
vt 0.204082 0.186667
vt 0.367347 0.186667
vt 0.326531 0.186667
vt 0.367347 0.111111
vt 0.408163 0.186667
vt 0.387755 -0.000000
vt 0.408163 -0.000000
vt 0.448980 0.000000
vt 0.489796 -0.000000
vt 0.448980 0.186667
vt 0.530612 -0.000000
vt 0.489796 0.186667
vt 0.530612 0.186667
vt 0.948980 0.235556
vt 0.964286 0.186667
vt 0.964286 0.235556
vt 0.918367 0.186667
vt 0.933673 0.235556
vt 0.918367 0.235556
vt 0.887755 0.186667
vt 0.903061 0.235556
vt 0.887755 0.235556
vt 0.903061 0.186667
vt 0.933673 0.186667
vt 0.933673 0.262222
vt 0.948980 0.235556
vt 0.948980 0.262222
vt 0.887755 0.262222
vt 0.903061 0.235556
vt 0.903061 0.262222
vt 0.841837 0.262222
vt 0.857143 0.235556
vt 0.857143 0.262222
vt 0.964286 0.235556
vt 0.964286 0.262222
vt 0.795918 0.262222
vt 0.811224 0.235556
vt 0.811224 0.262222
vt 0.918367 0.235556
vt 0.918367 0.262222
vt 0.872449 0.235556
vt 0.872449 0.262222
vt 0.979592 0.235556
vt 0.979592 0.262222
vt 0.826531 0.235556
vt 0.826531 0.262222
vt 0.933673 0.235556
vt 0.887755 0.235556
vt 0.841837 0.235556
vt 0.948980 0.284444
vt 0.933673 0.284444
vt 0.964286 0.284444
vt 0.979592 0.284444
vt 0.811224 0.284444
vt 0.795918 0.284444
vt 0.826531 0.284444
vt 0.841837 0.284444
vt 0.857143 0.284444
vt 0.872449 0.284444
vt 0.887755 0.284444
vt 0.903061 0.284444
vt 0.918367 0.284444
vt 0.979592 0.235556
vt 0.795918 0.186667
vt 0.811224 0.235556
vt 0.795918 0.235556
vt 0.811224 0.186667
vt 0.826531 0.235556
vt 0.826531 0.186667
vt 0.841837 0.235556
vt 0.841837 0.186667
vt 0.857143 0.235556
vt 0.857143 0.186667
vt 0.872449 0.235556
vt 0.872449 0.186667
vt 0.770408 0.617778
vt 0.755102 0.591111
vt 0.806122 0.591111
vt 0.790816 0.617778
vt 0.775510 0.617778
vt 0.785714 0.617778
vt 0.617347 0.688889
vt 0.653061 0.186667
vt 0.678571 0.297778
vt 0.658163 0.297778
vt 0.683673 0.186667
vt 0.709184 0.297778
vt 0.688776 0.297778
vt 0.714286 0.186667
vt 0.739796 0.297778
vt 0.719388 0.297778
vt 0.744898 0.186667
vt 0.770408 0.297778
vt 0.750000 0.297778
vt 0.785714 0.297778
vt 0.775510 0.186667
vt 0.795918 0.186667
vt 0.622449 0.186667
vt 0.647959 0.297778
vt 0.627551 0.297778
vt 0.591837 0.186667
vt 0.617347 0.297778
vt 0.596939 0.297778
vt 0.581633 0.297778
vt 0.591837 0.297778
vt 0.591837 0.373333
vt 0.581633 0.373333
vt 0.602041 0.373333
vt 0.632653 0.373333
vt 0.693878 0.373333
vt 0.673469 0.373333
vt 0.724490 0.373333
vt 0.755102 0.373333
vt 0.775510 0.373333
vt 0.785714 0.373333
vt 0.760204 0.382222
vt 0.724490 0.462222
vt 0.724490 0.382222
vt 0.760204 0.524444
vt 0.724490 0.524444
vt 0.798469 0.524444
vt 0.785714 0.524444
vt 0.780612 0.462222
vt 0.755102 0.555556
vt 0.806122 0.573333
vt 0.765306 0.573333
vt 0.816327 0.462222
vt 0.811224 0.524444
vt 0.816327 0.524444
vt 0.765306 0.524444
vt 0.760204 0.462222
vt 0.678571 0.622222
vt 0.673469 0.688889
vt 0.688776 0.622222
vt 0.683673 0.688889
vt 0.698980 0.622222
vt 0.693878 0.688889
vt 0.719388 0.622222
vt 0.729592 0.622222
vt 0.724490 0.688889
vt 0.739796 0.622222
vt 0.734694 0.688889
vt 0.750000 0.622222
vt 0.744898 0.688889
vt 0.755102 0.622222
vt 0.750000 0.684444
vt 0.857143 0.235556
vt 0.872449 0.186667
vt 0.872449 0.235556
vt 0.826531 0.235556
vt 0.841837 0.186667
vt 0.841837 0.235556
vt 0.795918 0.186667
vt 0.811224 0.235556
vt 0.795918 0.235556
vt 0.811224 0.186667
vt 0.887755 0.235556
vt 0.887755 0.186667
vt 0.903061 0.235556
vt 0.903061 0.186667
vt 0.918367 0.235556
vt 0.933673 0.186667
vt 0.933673 0.235556
vt 0.948980 0.235556
vt 0.948980 0.186667
vt 0.964286 0.235556
vt 0.964286 0.186667
vt 0.979592 0.235556
vt 0.709184 0.688889
vt 0.704082 0.462222
vt 0.719388 0.524444
vt 0.704082 0.524444
vt 0.285714 0.111111
vt 0.285714 0.186667
vt 0.244898 0.186667
vt 0.265306 0.000000
vt 0.668367 0.373333
vt 0.704082 0.373333
vt 0.816327 0.373333
vt 0.780612 0.373333
vt 0.686224 0.524444
vt 0.698980 0.524444
vt 0.668367 0.462222
vt 0.673469 0.524444
vt 0.668367 0.524444
vt 0.750000 0.524444
vt 0.739796 0.524444
vt 0.729592 0.524444
vt 0.719388 0.524444
vt 0.678571 0.524444
vt 0.668367 0.524444
vt 0.663265 0.524444
vt 0.816327 0.524444
vt 0.755102 0.524444
vt 0.688776 0.524444
vt 0.714286 0.968889
vt 0.785714 0.688889
vt 0.785714 0.968889
vt 0.571429 0.968889
vt 0.642857 0.688889
vt 0.642857 0.968889
vt 0.714286 0.968889
vt 0.785714 0.688889
vt 0.785714 0.968889
vt 0.571429 0.968889
vt 0.642857 0.688889
vt 0.642857 0.968889
vt 0.857143 0.688889
vt 0.857143 0.968889
vt 0.714286 0.688889
vt 0.857143 0.688889
vt 0.857143 0.968889
vt 0.714286 0.688889
vt 0.923469 0.764444
vt 0.943878 0.688889
vt 0.943878 0.764444
vt 0.877551 0.688889
vt 0.877551 0.764444
vt 0.857143 0.764444
vt 0.923469 0.764444
vt 0.943878 0.688889
vt 0.943878 0.764444
vt 0.877551 0.688889
vt 0.877551 0.764444
vt 0.857143 0.764444
vt 0.775510 0.297778
vt 0.571429 0.186667
vt 0.612245 0.373333
vt 0.642857 0.373333
vt 0.704082 0.373333
vt 0.663265 0.373333
vt 0.734694 0.373333
vt 0.765306 0.373333
vt 0.948980 0.186667
vt 0.795918 0.235556
vt 0.979592 0.186667
vt 0.775510 0.297778
vt 0.571429 0.186667
vt 0.612245 0.373333
vt 0.642857 0.373333
vt 0.704082 0.373333
vt 0.663265 0.373333
vt 0.734694 0.373333
vt 0.765306 0.373333
vt 0.816327 0.555556
vt 0.780612 0.524444
vt 0.857143 0.186667
vt 0.826531 0.186667
vt 0.918367 0.186667
vt 0.979592 0.186667
vt 0.755102 0.524444
vt 0.698980 0.524444
vt 0.571429 0.688889
vt 0.571429 0.688889
vt 0.923469 0.688889
vt 0.857143 0.688889
vt 0.923469 0.688889
vt 0.857143 0.688889
usemtl missile_texture
s off
vn 0.000000 1.000000 -0.000000
vn 0.937865 0.028624 0.345818
vn 0.955772 0.268481 0.120073
vn 0.706983 0.019437 0.706963
vn 0.000000 -1.000000 0.000000
vn 0.000000 -0.939693 -0.342020
vn -0.892011 0.075530 -0.445658
vn -0.955772 0.268481 -0.120073
vn -0.705485 0.067885 -0.705466
vn -0.491899 0.000000 -0.870652
vn -0.555571 0.000000 -0.831469
vn -0.689142 0.000000 -0.724626
vn -0.043150 0.048809 -0.997876
vn -0.320723 0.000000 -0.947173
vn -0.421736 0.048809 -0.905404
vn 0.997809 0.000000 0.066159
vn 0.938429 0.048809 0.342006
vn 0.896538 0.000000 0.442968
vn -0.947173 0.000000 0.320723
vn -0.997193 0.056092 0.049589
vn -0.997809 0.000000 -0.066159
vn 0.947173 0.000000 -0.320723
vn 0.997876 0.048809 -0.043150
vn -0.752339 0.000000 0.658776
vn -0.901042 0.040815 0.431807
vn 0.752339 0.000000 -0.658776
vn 0.905404 0.048809 -0.421736
vn -0.442968 0.000000 0.896538
vn -0.670058 0.056092 0.740187
vn 0.442968 0.000000 -0.896538
vn 0.675093 0.048809 -0.736116
vn -0.066159 0.000000 0.997809
vn -0.331799 0.040815 0.942467
vn 0.342005 0.048809 -0.938430
vn 0.066159 0.000000 -0.997809
vn 0.320723 0.000000 0.947173
vn 0.043150 0.048809 0.997876
vn -0.658776 0.000000 -0.752339
vn 0.658776 0.000000 0.752339
vn 0.421736 0.048809 0.905404
vn -0.896538 0.000000 -0.442968
vn -0.736116 0.048809 -0.675093
vn 0.736116 0.048809 0.675093
vn -0.938430 0.048809 -0.342005
vn 0.961140 0.264804 -0.078034
vn 0.858116 0.264804 -0.439905
vn 0.624449 0.264804 -0.734807
vn 0.295718 0.264804 -0.917840
vn -0.078034 0.264804 -0.961140
vn -0.439905 0.264804 -0.858116
vn -0.734807 0.264804 -0.624450
vn -0.917840 0.264804 -0.295718
vn -0.893962 0.252422 0.370291
vn -0.955064 0.296399 0.000000
vn -0.370291 0.252422 0.893962
vn -0.675332 0.296399 0.675332
vn 0.078034 0.264804 0.961140
vn 0.439906 0.264804 0.858115
vn 0.734806 0.264804 0.624451
vn 0.917839 0.264804 0.295719
vn 0.686664 0.563900 -0.458813
vn -0.458814 0.563899 0.686664
vn 0.458815 0.563899 -0.686664
vn -0.161115 0.563899 0.809975
vn -0.161115 0.563899 -0.809975
vn 0.161114 0.563900 -0.809975
vn 0.161114 0.563899 0.809975
vn -0.458814 0.563899 -0.686664
vn 0.458815 0.563899 0.686664
vn -0.686664 0.563899 -0.458814
vn 0.686664 0.563899 0.458814
vn -0.809975 0.563899 -0.161114
vn 0.809975 0.563899 0.161114
vn -0.809975 0.563899 0.161114
vn 0.809975 0.563899 -0.161114
vn -0.686664 0.563899 0.458814
vn 0.435484 0.157646 -0.886285
vn 0.081109 0.177586 -0.980757
vn 0.551766 0.184036 -0.813440
vn -0.066001 0.157646 -0.985288
vn -0.409171 0.180764 -0.894373
vn -0.549803 0.157646 -0.820283
vn -0.801539 0.180764 -0.569965
vn -0.886285 0.157646 -0.435484
vn -0.966589 0.177030 -0.185379
vn -0.954235 0.174571 0.242817
vn -0.987320 0.157161 -0.022359
vn -0.954933 0.150436 0.255875
vn 0.820283 0.157646 -0.549803
vn 0.894373 0.180764 -0.409171
vn 0.983919 0.156831 -0.085478
vn 0.974260 0.185573 -0.127984
vn 0.954235 0.174571 0.242817
vn 0.996443 0.076478 0.035380
vn 0.896763 0.034627 0.441154
vn 0.876230 0.067621 -0.477125
vn 0.000000 0.229040 -0.973417
vn -0.275043 0.052423 -0.960002
vn -0.851317 0.067620 -0.520276
vn -0.997103 0.051522 -0.055953
vn -0.943781 0.026419 0.329514
vn -0.707117 0.000000 0.707097
vn -0.887503 0.037265 0.459293
vn -0.996258 0.040664 0.076271
vn 0.707117 0.000000 0.707097
vn 0.433877 0.037996 -0.900171
vn 0.824266 0.050806 -0.563919
vn 0.996258 0.040664 -0.076271
vn -0.900500 0.050806 -0.431877
vn -0.368331 0.065459 -0.927388
vn 0.937122 0.320553 -0.138016
vn 0.166386 0.053225 -0.984623
vn 0.644598 0.411079 -0.644598
vn -0.644598 0.411079 -0.644598
vn -0.937122 0.320553 -0.138016
vn -0.706684 0.034972 0.706664
vn -0.955772 0.268481 0.120073
vn 0.491899 -0.000000 -0.870653
vn 0.736841 -0.000000 -0.676066
vn 0.555569 -0.000000 -0.831471
vn 0.683049 0.000000 -0.730372
vn 0.382684 0.000000 -0.923879
vn 0.000000 0.000000 -1.000000
vn -0.382684 0.000000 -0.923879
vn -0.731254 0.000000 -0.682105
vn -0.947173 0.000000 -0.320723
vn -0.997809 0.000000 0.066159
vn -0.736841 0.000000 0.676066
vn -0.896537 0.000000 0.442968
vn 0.382683 0.000000 0.923880
vn 0.000000 0.000000 1.000000
vn 0.491898 0.000000 0.870653
vn 0.731254 0.000000 0.682105
vn 0.555571 0.000001 0.831469
vn 0.689142 0.000000 0.724626
vn 0.947173 0.000000 0.320723
vn 0.997809 0.000000 -0.066159
vn 0.896538 0.000000 -0.442967
vn 0.852056 0.178886 -0.491935
vn 0.491935 0.178886 -0.852056
vn 0.885720 0.178425 0.428562
vn 0.978445 0.177899 0.104869
vn 0.794923 0.177899 0.580042
vn 0.071714 0.178425 0.981337
vn 0.398402 0.177900 0.899793
vn -0.104869 0.177899 0.978445
vn 0.552773 0.178425 0.814007
vn 0.981337 0.178425 -0.071713
vn 0.982103 0.170128 -0.080810
vn 0.907073 0.000000 -0.420973
vn 0.810120 0.170128 -0.561036
vn 0.056749 0.141193 0.988354
vn 0.420973 0.000000 0.907073
vn 0.528512 0.193268 0.826634
vn -0.982103 0.170128 0.080810
vn -0.907073 0.000000 0.420973
vn -0.810120 0.170128 0.561036
vn 0.575061 0.000000 -0.818111
vn 0.421067 0.170129 -0.890931
vn -0.080811 0.170128 -0.982103
vn -0.420973 0.000000 -0.907073
vn -0.561035 0.170129 -0.810121
vn 0.818111 0.000000 0.575061
vn 0.890932 0.170128 0.421067
vn -0.575061 0.000000 0.818111
vn -0.421067 0.170129 0.890931
vn 0.088962 0.000000 -0.996035
vn -0.818111 0.000000 -0.575061
vn -0.890932 0.170128 -0.421067
vn 0.996035 0.000000 0.088962
vn -0.088962 0.000000 0.996035
vn -0.996035 0.000000 -0.088962
vn 0.849645 0.369565 -0.376199
vn 0.923913 0.369565 0.099024
vn 0.547714 0.369566 -0.750620
vn 0.099024 0.369566 -0.923913
vn -0.376198 0.369566 -0.849645
vn -0.750620 0.369566 -0.547715
vn -0.923913 0.369565 -0.099024
vn -0.849645 0.369565 0.376199
vn -0.547714 0.369566 0.750620
vn 0.000000 0.371392 0.928476
vn 0.464237 0.371393 0.804084
vn 0.750620 0.369566 0.547715
vn 0.104869 0.177899 -0.978445
vn -0.071714 0.178425 -0.981337
vn -0.398402 0.177900 -0.899793
vn -0.552773 0.178425 -0.814007
vn -0.794923 0.177899 -0.580042
vn -0.885720 0.178425 -0.428562
vn -0.978445 0.177899 -0.104869
vn -0.981337 0.178425 0.071713
vn -0.899793 0.177899 0.398403
vn -0.814006 0.178425 0.552774
vn -0.580042 0.177900 0.794924
vn -0.428563 0.178426 0.885719
vn 0.984633 0.164105 0.059729
vn 0.738012 0.038801 -0.673671
vn -0.984633 0.164105 0.059729
vn -0.739659 0.114286 -0.663207
vn 0.000000 0.493082 -0.869983
vn 0.000000 0.410873 -0.911692
vn -0.250938 0.048441 -0.966790
vn -0.435484 0.157646 0.886285
vn -0.081109 0.177586 0.980757
vn -0.551766 0.184036 0.813440
vn 0.066001 0.157646 0.985288
vn 0.409171 0.180764 0.894373
vn 0.549803 0.157646 0.820283
vn 0.801539 0.180764 0.569965
vn 0.886285 0.157646 0.435484
vn 0.966589 0.177030 0.185379
vn 0.954235 0.174571 -0.242818
vn 0.987320 0.157161 0.022359
vn 0.954933 0.150436 -0.255876
vn -0.820283 0.157646 0.549803
vn -0.894373 0.180764 0.409171
vn -0.983919 0.156831 0.085478
vn -0.974260 0.185573 0.127984
vn -0.954235 0.174571 -0.242817
vn -0.970587 0.229112 0.073943
vn -0.941187 0.224866 -0.252193
vn -0.771266 0.227117 0.594615
vn 0.000000 0.229040 0.973417
vn 0.594615 0.227117 0.771266
vn 0.900585 0.227116 0.370629
vn 0.971324 0.229822 -0.060916
vn 0.941187 0.224866 -0.252193
vn 0.361285 0.000000 0.932455
vn -0.225804 0.120682 0.966669
vn -0.518278 0.000000 0.855212
vn 0.283557 0.142326 0.948335
vn -0.398882 0.151528 0.904396
vn 0.994849 0.092879 -0.040602
vn 0.893496 0.068850 0.443762
vn 0.965864 0.067771 0.250029
vn 0.000000 -0.987824 0.155577
vn 0.000000 -0.871965 0.489569
vn 0.995188 0.081048 -0.055059
vn 0.892494 0.068026 -0.445899
vn 0.705151 0.074509 -0.705131
vn 0.345890 0.135121 0.928495
vn -0.994458 0.084635 -0.062365
vn -0.937122 0.320553 0.138016
vn -0.890615 0.105581 0.442331
vn -0.257536 0.099428 0.961140
vn -0.644598 0.411079 0.644598
vn 0.255528 0.158941 0.953647
vn 0.828377 0.105581 0.550131
vn 0.644598 0.411079 0.644598
vn 0.994458 0.084635 0.062365
vn 0.937122 0.320553 0.138016
vn 0.933433 0.060907 -0.353543
vn 0.706487 0.042195 -0.706467
vn 0.955772 0.268481 -0.120073
vn -0.852056 0.178886 0.491935
vn -0.491935 0.178886 0.852056
vn -0.852056 0.178886 -0.491935
vn -0.983870 0.178885 0.000000
vn 0.852056 0.178886 0.491935
vn 0.983870 0.178886 0.000000
vn 0.899793 0.177900 -0.398403
vn 0.814006 0.178426 -0.552773
vn 0.580042 0.177900 -0.794923
vn 0.428563 0.178426 -0.885719
vn 0.000000 0.410873 0.911692
vn -0.965864 0.067771 0.250029
vn -0.831056 0.068850 0.551911
vn -0.491899 0.000000 0.870652
vn -0.382684 0.000000 0.923879
vn -0.683050 0.000000 0.730372
vn -0.555571 0.000000 0.831469
vn -1.000000 0.000000 0.000000
vn -0.972840 0.000000 0.231481
vn 1.000000 0.000000 0.000000
vn 0.972840 0.000000 0.231481
vn -0.994849 0.092879 0.040602
vn -0.995188 0.081048 -0.055059
vn -0.933762 0.054845 -0.353668
vn -0.706357 0.046326 -0.706338
vn 0.831470 0.000000 0.555570
vn -0.831470 0.000000 -0.555570
vn 0.831470 0.000000 -0.555570
vn -0.831470 0.000000 0.555570
vn 0.248602 0.000000 0.968606
vn 0.767288 0.000000 0.641303
vn -0.248601 0.000000 0.968606
vn -0.767284 0.000000 0.641307
vn -0.248601 0.000000 -0.968606
vn -0.767284 0.000000 -0.641307
vn 0.248602 0.000000 -0.968606
vn 0.767288 0.000000 -0.641303
vn 0.954933 0.150436 0.255875
vn 0.404846 0.032718 -0.913799
vn -0.954933 0.150436 -0.255875
vn -0.486709 0.229040 0.843004
vn 0.000000 -0.983185 0.182612
f 14/1/1 29/2/1 13/3/1
f 31/4/1 16/5/1 32/6/1
f 15/7/1 30/8/1 14/1/1
f 105/9/2 112/10/3 110/11/4
f 97/12/1 90/13/1 175/14/1
f 33/15/1 16/5/1 17/16/1
f 17/16/1 34/17/1 33/15/1
f 19/18/1 34/17/1 18/19/1
f 20/20/1 35/21/1 19/18/1
f 20/20/1 37/22/1 36/23/1
f 22/24/1 37/22/1 21/25/1
f 38/26/1 23/27/1 39/28/1
f 24/29/1 39/28/1 23/27/1
f 24/29/1 41/30/1 40/31/1
f 26/32/1 41/30/1 25/33/1
f 12/34/1 29/2/1 28/35/1
f 28/35/1 11/36/1 12/34/1
f 26/32/1 27/37/1 42/38/1
f 6/39/5 205/40/5 7/41/5
f 87/42/5 100/43/5 88/44/5
f 100/43/5 85/45/5 88/44/5
f 88/44/5 83/46/5 89/47/5
f 84/48/5 83/46/5 85/45/5
f 86/49/5 85/45/5 101/50/5
f 88/44/5 85/45/5 83/46/5
f 127/51/5 138/52/5 128/53/5
f 133/54/5 132/55/5 134/56/5
f 136/57/5 135/58/5 137/59/5
f 130/60/5 129/61/5 131/62/5
f 131/62/5 134/56/5 132/55/5
f 128/53/5 137/59/5 129/61/5
f 131/62/5 137/59/5 135/58/5
f 163/63/5 174/64/5 164/65/5
f 169/66/5 168/67/5 170/68/5
f 172/69/5 171/70/5 173/71/5
f 166/72/5 165/73/5 167/74/5
f 167/74/5 170/68/5 168/67/5
f 164/65/5 173/71/5 165/73/5
f 167/74/5 173/71/5 171/70/5
f 8/75/5 7/41/5 9/76/5
f 3/77/5 2/78/5 4/79/5
f 1/80/5 101/50/5 2/78/5
f 10/81/5 9/76/5 100/43/5
f 9/76/5 101/50/5 100/43/5
f 4/79/5 9/76/5 7/41/5
f 90/13/6 177/82/6 176/83/6
f 209/84/7 216/85/8 214/86/9
f 191/87/5 204/88/5 192/89/5
f 204/88/5 189/90/5 192/89/5
f 192/89/5 187/91/5 193/92/5
f 188/93/5 187/91/5 189/90/5
f 190/94/5 189/90/5 205/40/5
f 192/89/5 189/90/5 187/91/5
f 231/95/5 242/96/5 232/97/5
f 237/98/5 236/99/5 238/100/5
f 240/101/5 239/102/5 241/103/5
f 234/104/5 233/105/5 235/106/5
f 236/99/5 239/102/5 238/100/5
f 232/97/5 241/103/5 233/105/5
f 235/106/5 241/103/5 239/102/5
f 5/107/5 4/79/5 204/88/5
f 204/88/5 7/41/5 205/40/5
f 14/1/1 30/8/1 29/2/1
f 31/4/1 15/7/1 16/5/1
f 15/7/1 31/4/1 30/8/1
f 33/15/1 32/6/1 16/5/1
f 17/16/1 18/19/1 34/17/1
f 19/18/1 35/21/1 34/17/1
f 20/20/1 36/23/1 35/21/1
f 20/20/1 21/25/1 37/22/1
f 22/24/1 38/26/1 37/22/1
f 38/26/1 22/24/1 23/27/1
f 24/29/1 40/31/1 39/28/1
f 24/29/1 25/33/1 41/30/1
f 26/32/1 42/38/1 41/30/1
f 12/34/1 13/3/1 29/2/1
f 28/35/1 27/108/1 11/36/1
f 26/32/1 11/109/1 27/37/1
f 100/43/5 101/50/5 85/45/5
f 131/62/5 135/58/5 134/56/5
f 128/53/5 138/52/5 137/59/5
f 131/62/5 129/61/5 137/59/5
f 167/74/5 171/70/5 170/68/5
f 164/65/5 174/64/5 173/71/5
f 167/74/5 165/73/5 173/71/5
f 9/76/5 2/78/5 101/50/5
f 4/79/5 2/78/5 9/76/5
f 90/13/6 97/12/6 177/82/6
f 204/88/5 205/40/5 189/90/5
f 236/99/5 235/106/5 239/102/5
f 232/97/5 242/96/5 241/103/5
f 235/106/5 233/105/5 241/103/5
f 204/88/5 4/79/5 7/41/5
s 1
f 114/110/10 101/111/11 1/112/12
f 43/113/13 28/35/14 44/114/15
f 39/28/16 54/115/17 38/26/18
f 32/6/19 47/116/20 31/4/21
f 40/31/22 55/117/23 39/28/16
f 33/15/24 48/118/25 32/6/19
f 41/30/26 56/119/27 40/31/22
f 34/17/28 49/120/29 33/15/24
f 42/38/30 57/121/31 41/30/26
f 35/21/32 50/122/33 34/17/28
f 58/123/34 27/37/35 43/124/13
f 36/23/36 51/125/37 35/21/32
f 29/2/38 44/114/15 28/35/14
f 37/22/39 52/126/40 36/23/36
f 30/8/41 45/127/42 29/2/38
f 38/26/18 53/128/43 37/22/39
f 31/4/21 46/129/44 30/8/41
f 56/119/27 71/130/45 55/117/23
f 57/121/31 72/131/46 56/119/27
f 58/123/34 73/132/47 57/121/31
f 43/124/13 74/133/48 58/123/34
f 44/114/15 59/134/49 43/113/13
f 45/127/42 60/135/50 44/114/15
f 46/129/44 61/136/51 45/127/42
f 47/116/20 62/137/52 46/129/44
f 47/116/20 64/138/53 63/139/54
f 49/120/29 64/140/53 48/118/25
f 49/120/29 66/141/55 65/142/56
f 51/125/37 66/143/55 50/122/33
f 52/126/40 67/144/57 51/125/37
f 53/128/43 68/145/58 52/126/40
f 54/115/17 69/146/59 53/128/43
f 55/117/23 70/147/60 54/115/17
f 72/131/46 73/148/47 75/149/61
f 65/142/56 66/141/55 75/150/62
f 73/132/47 74/151/48 75/152/63
f 66/143/55 67/153/57 75/154/64
f 59/134/49 60/155/50 75/156/65
f 74/133/48 59/157/49 75/158/66
f 67/144/57 68/159/58 75/160/67
f 60/135/50 61/161/51 75/162/68
f 68/145/58 69/163/59 75/164/69
f 61/136/51 62/165/52 75/166/70
f 69/146/59 70/167/60 75/168/71
f 62/137/52 63/169/54 75/170/72
f 70/147/60 71/171/45 75/172/73
f 63/139/54 64/138/53 75/173/74
f 71/130/45 72/174/46 75/175/75
f 64/140/53 65/176/56 75/177/76
f 89/178/77 79/179/78 82/180/79
f 83/181/80 78/182/81 79/183/78
f 84/184/82 77/185/83 78/186/81
f 85/187/84 76/188/85 77/189/83
f 114/190/86 86/191/87 101/192/88
f 88/193/89 82/194/79 81/195/90
f 87/196/91 81/197/90 80/198/92
f 113/199/93 87/196/91 80/200/92
f 113/199/93 92/201/94 93/202/95
f 81/197/90 92/203/94 80/198/92
f 82/194/79 91/204/96 81/195/90
f 78/182/81 175/205/97 79/183/78
f 175/206/97 82/180/79 79/179/78
f 77/185/83 97/207/98 78/186/81
f 76/188/85 96/208/99 77/189/83
f 95/209/100 114/190/86 94/210/101
f 99/211/102 106/212/103 94/213/101
f 94/213/101 107/214/104 95/215/100
f 93/216/95 110/11/4 98/217/105
f 90/218/106 103/219/107 91/220/96
f 91/220/96 104/221/108 92/222/94
f 92/222/94 105/9/2 93/216/95
f 95/215/100 108/223/109 96/224/99
f 96/224/99 109/225/110 97/226/98
f 105/9/2 104/221/108 112/227/111
f 104/221/108 103/219/107 112/228/111
f 103/219/107 102/229/112 112/230/113
f 109/225/110 108/223/109 112/231/114
f 108/223/109 107/214/104 112/232/115
f 107/214/104 106/212/103 112/233/115
f 106/212/103 111/234/116 112/235/117
f 113/236/118 10/237/119 100/238/120
f 25/239/121 113/236/118 26/240/122
f 26/240/122 113/236/118 11/241/123
f 11/36/123 114/110/10 12/242/124
f 13/243/125 114/110/10 1/112/12
f 2/244/41 13/243/125 1/112/12
f 3/245/21 14/246/126 2/244/41
f 4/247/19 15/248/127 3/245/21
f 5/249/128 16/250/129 4/247/19
f 20/251/130 19/252/131 218/253/132
f 218/253/132 21/254/133 20/251/130
f 218/253/132 205/255/134 6/256/135
f 7/257/18 21/254/133 6/256/135
f 8/258/16 22/259/136 7/257/18
f 9/260/22 23/261/137 8/258/16
f 10/237/119 24/262/138 9/260/22
f 125/263/139 138/264/140 126/265/140
f 135/266/141 124/267/142 123/268/143
f 133/269/144 122/270/145 121/271/146
f 134/272/147 123/268/143 122/270/145
f 136/273/148 125/263/139 124/267/142
f 160/274/149 173/275/150 161/276/151
f 157/277/152 170/278/153 158/279/154
f 154/280/155 167/281/156 155/282/157
f 161/276/151 174/283/158 162/284/159
f 151/285/160 164/286/161 152/287/162
f 158/279/154 171/288/163 159/289/164
f 155/282/157 168/290/165 156/291/166
f 162/284/159 163/292/167 151/293/160
f 152/287/162 165/294/168 153/295/169
f 159/289/164 172/296/170 160/274/149
f 156/291/166 169/297/171 157/277/152
f 153/295/169 166/298/172 154/280/155
f 160/274/149 149/299/173 148/300/174
f 161/276/151 150/301/175 149/299/173
f 162/284/159 139/302/176 150/301/175
f 151/285/160 140/303/177 139/304/176
f 152/287/162 141/305/178 140/303/177
f 153/295/169 142/306/179 141/305/178
f 154/280/155 143/307/180 142/306/179
f 155/282/157 144/308/181 143/307/180
f 156/291/166 145/309/182 144/308/181
f 145/309/182 158/279/154 146/310/183
f 158/279/154 147/311/184 146/310/183
f 159/289/164 148/300/174 147/311/184
f 138/264/140 115/312/185 126/265/140
f 127/313/186 116/314/187 115/315/185
f 128/316/188 117/317/189 116/314/187
f 129/318/190 118/319/191 117/317/189
f 130/320/192 119/321/193 118/319/191
f 131/322/194 120/323/195 119/321/193
f 132/324/196 121/271/146 120/323/195
f 176/83/197 178/325/197 90/326/198
f 177/82/199 97/327/200 179/328/199
f 178/329/201 177/82/201 179/330/201
f 112/331/202 102/229/112 109/225/110
f 102/229/112 97/226/203 109/225/110
f 193/332/204 183/333/205 186/334/206
f 187/335/207 182/336/208 183/337/205
f 188/338/209 181/339/210 182/340/208
f 189/341/211 180/342/212 181/343/210
f 218/344/213 190/345/214 205/346/215
f 192/347/216 186/348/206 185/349/217
f 191/350/218 185/351/217 184/352/219
f 217/353/220 191/350/218 184/354/219
f 217/353/220 196/355/221 197/356/222
f 185/351/217 196/357/221 184/352/219
f 186/348/206 195/358/223 185/349/217
f 182/336/208 243/359/224 183/337/205
f 243/360/224 186/334/206 183/333/205
f 181/339/210 201/361/225 182/340/208
f 180/342/212 200/362/226 181/343/210
f 199/363/227 218/344/213 198/364/228
f 246/365/229 251/366/230 245/367/231
f 251/366/230 265/368/232 264/369/233
f 261/370/234 260/371/235 253/372/236
f 244/373/237 246/374/238 245/375/238
f 261/370/234 255/376/239 262/377/240
f 256/378/241 262/377/240 255/376/239
f 253/372/236 265/379/232 252/380/242
f 255/376/239 261/370/234 253/372/236
f 209/84/7 208/381/243 216/382/244
f 208/381/243 207/383/245 216/384/244
f 207/383/245 206/385/246 216/386/247
f 213/387/248 212/388/249 216/389/250
f 212/388/249 211/390/251 216/391/252
f 211/390/251 210/392/253 216/393/252
f 210/392/253 215/394/254 216/395/255
f 229/396/256 242/397/257 230/398/257
f 227/399/258 240/400/259 228/401/259
f 237/402/186 226/403/187 225/404/185
f 238/405/188 227/399/258 226/403/187
f 240/400/259 229/396/256 228/401/259
f 242/397/257 219/406/146 230/398/257
f 231/407/144 220/408/145 219/406/146
f 232/409/147 221/410/260 220/408/145
f 221/410/260 234/411/261 222/412/261
f 234/411/261 223/413/262 222/412/261
f 235/414/263 224/415/264 223/413/262
f 236/416/265 225/417/185 224/415/264
f 216/418/266 206/385/246 213/387/248
f 250/419/267 264/420/233 259/421/268
f 217/422/269 19/252/131 18/423/270
f 17/424/271 217/422/269 18/423/270
f 217/422/269 5/249/128 204/425/272
f 250/419/267 248/426/273 244/427/274
f 245/367/231 250/419/267 244/427/274
f 249/428/275 253/372/236 247/429/276
f 253/372/236 246/365/229 247/429/276
f 258/430/277 250/419/267 259/431/268
f 258/430/277 254/432/278 250/419/267
f 258/430/277 257/433/279 254/432/278
f 263/434/280 254/432/278 257/433/279
f 262/435/240 215/394/254 210/392/253
f 261/436/234 210/392/253 211/390/251
f 260/437/235 211/390/251 212/388/249
f 206/385/246 265/438/232 213/387/248
f 258/439/277 207/383/245 208/381/243
f 257/440/279 208/381/243 209/84/7
f 263/441/280 209/84/7 214/86/9
f 249/442/5 244/373/237 248/443/5
f 265/438/232 212/388/249 213/387/248
f 259/444/268 206/385/246 207/383/245
f 273/445/137 284/446/22 274/447/138
f 271/448/281 282/449/18 272/450/136
f 268/451/127 279/452/19 269/453/129
f 266/454/282 277/455/41 267/456/126
f 274/447/138 285/457/283 275/458/283
f 272/450/136 283/459/16 273/445/137
f 269/453/129 280/460/284 270/461/284
f 267/456/126 278/462/21 268/451/127
f 288/463/285 293/464/286 289/465/286
f 291/466/287 288/463/285 287/467/287
f 286/468/288 291/466/287 287/467/287
f 296/469/289 301/470/290 297/471/290
f 299/472/291 296/469/289 295/473/291
f 294/474/292 299/472/291 295/473/291
f 43/113/13 27/108/35 28/35/14
f 39/28/16 55/117/23 54/115/17
f 32/6/19 48/118/25 47/116/20
f 40/31/22 56/119/27 55/117/23
f 33/15/24 49/120/29 48/118/25
f 41/30/26 57/121/31 56/119/27
f 34/17/28 50/122/33 49/120/29
f 42/38/30 58/123/34 57/121/31
f 35/21/32 51/125/37 50/122/33
f 58/123/34 42/38/30 27/37/35
f 36/23/36 52/126/40 51/125/37
f 29/2/38 45/127/42 44/114/15
f 37/22/39 53/128/43 52/126/40
f 30/8/41 46/129/44 45/127/42
f 38/26/18 54/115/17 53/128/43
f 31/4/21 47/116/20 46/129/44
f 56/119/27 72/174/46 71/130/45
f 57/121/31 73/148/47 72/131/46
f 58/123/34 74/151/48 73/132/47
f 43/124/13 59/157/49 74/133/48
f 44/114/15 60/155/50 59/134/49
f 45/127/42 61/161/51 60/135/50
f 46/129/44 62/165/52 61/136/51
f 47/116/20 63/169/54 62/137/52
f 47/116/20 48/118/25 64/138/53
f 49/120/29 65/176/56 64/140/53
f 49/120/29 50/122/33 66/141/55
f 51/125/37 67/153/57 66/143/55
f 52/126/40 68/159/58 67/144/57
f 53/128/43 69/163/59 68/145/58
f 54/115/17 70/167/60 69/146/59
f 55/117/23 71/171/45 70/147/60
f 89/178/77 83/181/80 79/179/78
f 83/181/80 84/184/82 78/182/81
f 84/184/82 85/187/84 77/185/83
f 85/187/84 86/191/87 76/188/85
f 114/190/86 76/475/85 86/191/87
f 88/193/89 89/178/77 82/194/79
f 87/196/91 88/193/89 81/197/90
f 113/199/93 100/476/293 87/196/91
f 113/199/93 80/200/92 92/201/94
f 81/197/90 91/477/96 92/203/94
f 82/194/79 90/478/106 91/204/96
f 78/182/81 97/479/203 175/205/97
f 175/206/97 90/480/294 82/180/79
f 77/185/83 96/481/99 97/207/98
f 76/188/85 95/482/100 96/208/99
f 95/209/100 76/475/85 114/190/86
f 99/211/102 111/234/116 106/212/103
f 94/213/101 106/212/103 107/214/104
f 93/216/95 105/9/2 110/11/4
f 90/218/106 102/229/112 103/219/107
f 91/220/96 103/219/107 104/221/108
f 92/222/94 104/221/108 105/9/2
f 95/215/100 107/214/104 108/223/109
f 96/224/99 108/223/109 109/225/110
f 25/239/121 10/237/119 113/236/118
f 13/243/125 12/242/124 114/110/10
f 2/244/41 14/246/126 13/243/125
f 3/245/21 15/248/127 14/246/126
f 4/247/19 16/250/129 15/248/127
f 5/249/128 17/424/271 16/250/129
f 218/253/132 6/256/135 21/254/133
f 7/257/18 22/259/136 21/254/133
f 8/258/16 23/261/137 22/259/136
f 9/260/22 24/262/138 23/261/137
f 10/237/119 25/239/121 24/262/138
f 125/263/139 137/483/139 138/264/140
f 135/266/141 136/273/148 124/267/142
f 133/269/144 134/272/147 122/270/145
f 134/272/147 135/266/141 123/268/143
f 136/273/148 137/483/139 125/263/139
f 160/274/149 172/296/170 173/275/150
f 157/277/152 169/297/171 170/278/153
f 154/280/155 166/298/172 167/281/156
f 161/276/151 173/275/150 174/283/158
f 151/285/160 163/484/167 164/286/161
f 158/279/154 170/278/153 171/288/163
f 155/282/157 167/281/156 168/290/165
f 162/284/159 174/283/158 163/292/167
f 152/287/162 164/286/161 165/294/168
f 159/289/164 171/288/163 172/296/170
f 156/291/166 168/290/165 169/297/171
f 153/295/169 165/294/168 166/298/172
f 160/274/149 161/276/151 149/299/173
f 161/276/151 162/284/159 150/301/175
f 162/284/159 151/293/160 139/302/176
f 151/285/160 152/287/162 140/303/177
f 152/287/162 153/295/169 141/305/178
f 153/295/169 154/280/155 142/306/179
f 154/280/155 155/282/157 143/307/180
f 155/282/157 156/291/166 144/308/181
f 156/291/166 157/277/152 145/309/182
f 145/309/182 157/277/152 158/279/154
f 158/279/154 159/289/164 147/311/184
f 159/289/164 160/274/149 148/300/174
f 138/264/140 127/485/186 115/312/185
f 127/313/186 128/316/188 116/314/187
f 128/316/188 129/318/190 117/317/189
f 129/318/190 130/320/192 118/319/191
f 130/320/192 131/322/194 119/321/193
f 131/322/194 132/324/196 120/323/195
f 132/324/196 133/269/144 121/271/146
f 178/329/201 176/83/201 177/82/201
f 102/229/112 90/218/294 97/226/203
f 193/332/204 187/335/207 183/333/205
f 187/335/207 188/338/209 182/336/208
f 188/338/209 189/341/211 181/339/210
f 189/341/211 190/345/214 180/342/212
f 218/344/213 180/486/212 190/345/214
f 192/347/216 193/332/204 186/348/206
f 191/350/218 192/347/216 185/351/217
f 217/353/220 204/487/295 191/350/218
f 217/353/220 184/354/219 196/355/221
f 185/351/217 195/488/223 196/357/221
f 186/348/206 194/489/296 195/358/223
f 182/336/208 201/490/225 243/359/224
f 243/360/224 194/491/296 186/334/206
f 181/339/210 200/492/226 201/361/225
f 180/342/212 199/493/227 200/362/226
f 199/363/227 180/486/212 218/344/213
f 246/365/229 252/380/242 251/366/230
f 251/366/230 252/380/242 265/368/232
f 244/373/237 247/494/297 246/374/238
f 253/372/236 260/495/235 265/379/232
f 229/396/256 241/496/256 242/397/257
f 227/399/258 239/497/258 240/400/259
f 237/402/186 238/405/188 226/403/187
f 238/405/188 239/497/258 227/399/258
f 240/400/259 241/496/256 229/396/256
f 242/397/257 231/407/144 219/406/146
f 231/407/144 232/409/147 220/408/145
f 232/409/147 233/498/260 221/410/260
f 221/410/260 233/498/260 234/411/261
f 234/411/261 235/414/263 223/413/262
f 235/414/263 236/416/265 224/415/264
f 236/416/265 237/499/186 225/417/185
f 250/419/267 251/366/230 264/420/233
f 17/424/271 5/249/128 217/422/269
f 250/419/267 254/432/278 248/426/273
f 245/367/231 251/366/230 250/419/267
f 249/428/275 255/376/239 253/372/236
f 253/372/236 252/380/242 246/365/229
f 262/435/240 256/500/241 215/394/254
f 261/436/234 262/435/240 210/392/253
f 260/437/235 261/436/234 211/390/251
f 206/385/246 264/501/233 265/438/232
f 258/439/277 259/444/268 207/383/245
f 257/440/279 258/439/277 208/381/243
f 263/441/280 257/440/279 209/84/7
f 249/442/5 247/494/297 244/373/237
f 265/438/232 260/437/235 212/388/249
f 259/444/268 264/501/233 206/385/246
f 273/445/137 283/459/16 284/446/22
f 271/448/281 281/502/281 282/449/18
f 268/451/127 278/462/21 279/452/19
f 266/454/282 276/503/282 277/455/41
f 274/447/138 284/446/22 285/457/283
f 272/450/136 282/449/18 283/459/16
f 269/453/129 279/452/19 280/460/284
f 267/456/126 277/455/41 278/462/21
f 288/463/285 292/504/285 293/464/286
f 291/466/287 292/504/285 288/463/285
f 286/468/288 290/505/288 291/466/287
f 296/469/289 300/506/289 301/470/290
f 299/472/291 300/506/289 296/469/289
f 294/474/292 298/507/292 299/472/291
l 197 202
l 203 198
