# Made in Blockbench 5.1.4
mtllib missile_abm.mtl

o Cylinder
v 0.000000 0.525910 -0.485192
v 0.000000 5.562353 -0.485192
v 0.185675 5.562353 -0.448259
v 0.185675 0.525910 -0.448259
v 0.343083 5.562353 -0.343083
v 0.343083 0.525910 -0.343083
v 0.448259 5.562353 -0.185675
v 0.448259 0.525910 -0.185675
v 0.485192 5.562353 0.000000
v 0.485192 0.525910 0.000000
v 0.448259 5.562353 0.185675
v 0.448259 0.525910 0.185675
v 0.343083 5.562353 0.343083
v 0.343083 0.525910 0.343083
v 0.185675 5.562353 0.448259
v 0.185675 0.525910 0.448259
v 0.000000 5.562353 0.485192
v 0.000000 0.525910 0.485192
v -0.185675 5.562353 0.448259
v -0.185675 0.525910 0.448259
v -0.343083 5.562353 0.343083
v -0.343083 0.525910 0.343083
v -0.448259 5.562353 0.185675
v -0.448259 0.525910 0.185675
v -0.485192 5.562353 0.000000
v -0.485192 0.525910 0.000000
v -0.448259 5.562353 -0.185675
v -0.448259 0.525910 -0.185675
v -0.343083 5.562353 -0.343083
v -0.343083 0.525910 -0.343083
v -0.000000 8.500000 0.000000
v -0.185675 5.562353 -0.448259
v -0.185675 0.525910 -0.448259
v 0.568889 0.001355 -0.235641
v 0.435409 0.001355 -0.435409
v 0.568889 0.001355 0.235641
v 0.615761 0.001355 0.000000
v -0.615761 0.001355 0.000000
v -0.568889 0.001355 0.235641
v 0.235641 0.001355 0.568889
v 0.435409 0.001355 0.435409
v 0.235641 0.001355 -0.568889
v -0.435409 0.001355 -0.435409
v -0.568889 0.001355 -0.235641
v -0.235641 0.001355 0.568889
v 0.000000 0.001355 0.615761
v 0.000000 0.001355 -0.615761
v -0.235641 0.001355 -0.568889
v -0.435409 0.001355 0.435409
v 0.000000 0.308928 -0.449094
v 0.171861 0.308928 -0.414909
v 0.317558 0.308928 -0.317558
v 0.414909 0.308928 -0.171861
v -0.171861 0.308928 -0.414909
v -0.317558 0.308928 -0.317558
v -0.414909 0.308928 -0.171861
v -0.449094 0.308928 0.000000
v -0.414909 0.308928 0.171861
v -0.317558 0.308928 0.317558
v -0.171861 0.308928 0.414909
v 0.000000 0.308928 0.449094
v 0.171861 0.308928 0.414909
v 0.317558 0.308928 0.317558
v 0.414909 0.308928 0.171861
v 0.449094 0.308928 0.000000
v -0.238765 4.673761 -0.413552
v -0.399483 4.673761 -0.691924
v -0.238765 5.562959 -0.413552
v 0.477529 4.673761 0.000000
v 0.798964 4.673761 0.000000
v 0.477529 5.562959 0.000000
v 0.238764 4.673761 -0.413552
v 0.399482 4.673761 -0.691924
v 0.238764 5.562959 -0.413552
v -0.238765 4.673761 0.413552
v -0.399482 4.673761 0.691924
v -0.238765 5.562959 0.413552
v 0.238764 4.673761 0.413552
v 0.399482 4.673761 0.691924
v 0.238764 5.562959 0.413552
vt 0.1376531640625 0.2507569140625001
vt 0.1376531640625 0.7552082805452882
vt 0.12094122683606102 0.7552082805452882
vt 0.12094122683606102 0.2507569140625001
vt 0.12094122683606102 0.2507569140625001
vt 0.12094122683606102 0.7552082805452882
vt 0.10422893847301341 0.7552082805452882
vt 0.10422893847301341 0.2507569140625001
vt 0.10422893847301341 0.2507569140625001
vt 0.10422893847301341 0.7552082805452882
vt 0.08751698954202078 0.7552082805452882
vt 0.08751698954202078 0.2507569140625001
vt 0.08751698954202078 0.2507569140625001
vt 0.08751698954202078 0.7552082805452882
vt 0.07080471288352681 0.7552082805452882
vt 0.07080471288352681 0.2507569140625001
vt 0.07080471288352681 0.2507569140625001
vt 0.07080471288352681 0.7552082805452882
vt 0.0540927639525342 0.7552082805452882
vt 0.0540927639525342 0.2507569140625001
vt 0.0540927639525342 0.2507569140625001
vt 0.0540927639525342 0.7552082805452882
vt 0.03738047558948661 0.7552082805452882
vt 0.03738047558948661 0.2507569140625001
vt 0.03738047558948661 0.2507569140625001
vt 0.03738047558948661 0.7552082805452882
vt 0.020668538363047585 0.7552082805452882
vt 0.020668538363047585 0.2507569140625001
vt 0.020668538363047585 0.2507569140625001
vt 0.020668538363047585 0.7552082805452882
vt 0.00395625 0.7552082805452882
vt 0.00395625 0.2507569140625001
vt 0.271350078125 0.2507569140625001
vt 0.271350078125 0.7552082805452882
vt 0.254638140898561 0.7552082805452882
vt 0.254638140898561 0.2507569140625001
vt 0.254638140898561 0.2507569140625001
vt 0.254638140898561 0.7552082805452882
vt 0.23792585253551343 0.7552082805452882
vt 0.23792585253551343 0.2507569140625001
vt 0.23792585253551343 0.2507569140625001
vt 0.23792585253551343 0.7552082805452882
vt 0.22121391530907444 0.7552082805452882
vt 0.22121391530907444 0.2507569140625001
vt 0.22121391530907444 0.2507569140625001
vt 0.22121391530907444 0.7552082805452882
vt 0.20450162694602683 0.7552082805452882
vt 0.20450162694602683 0.2507569140625001
vt 0.20450162694602683 0.2507569140625001
vt 0.20450162694602683 0.7552082805452882
vt 0.1877896780150342 0.7552082805452882
vt 0.1877896780150342 0.2507569140625001
vt 0.1877896780150342 0.2507569140625001
vt 0.1877896780150342 0.7552082805452882
vt 0.1710774013565402 0.7552082805452882
vt 0.1710774013565402 0.2507569140625001
vt 0.0540927639525342 0.7552082805452882
vt 0.07080471288352681 0.7552082805452882
vt 0.06244890228178118 0.995843125
vt 0.1710774013565402 0.2507569140625001
vt 0.1710774013565402 0.7552082805452882
vt 0.15436545242554764 0.7552082805452882
vt 0.15436545242554764 0.2507569140625001
vt 0.15436545242554764 0.2507569140625001
vt 0.15436545242554764 0.7552082805452882
vt 0.1376531640625 0.7552082805452882
vt 0.1376531640625 0.2507569140625001
vt 0.7482715196004653 0.30457514743627834
vt 0.7583425727226036 0.2699716662404825
vt 0.7679008192821328 0.3017619045995006
vt 0.7551193070898836 0.345676735027205
vt 0.7654776145447942 0.2256017014754812
vt 0.7690865159726323 0.1751352408837481
vt 0.7815358380944863 0.18140419408574338
vt 0.7769558400592318 0.24545267563863815
vt 0.23792585253551343 0.7552082805452882
vt 0.254638140898561 0.7552082805452882
vt 0.246282002569314 0.9958420073176836
vt 0.1543654524255476 0.7552082805452882
vt 0.1710774013565402 0.7552082805452882
vt 0.1627215907547946 0.9958420073176836
vt 0.08751698954202078 0.7552082805452882
vt 0.10422893847301341 0.7552082805452882
vt 0.09587313957582139 0.995843125
vt 0.00395625 0.7552082805452882
vt 0.020668538363047592 0.7552082805452882
vt 0.012312388329246986 0.9958420073176836
vt 0.12094122683606101 0.7552082805452882
vt 0.1376531640625 0.7552082805452882
vt 0.129297365165308 0.995843125
vt 0.1877896780150342 0.7552082805452882
vt 0.20450162694602683 0.7552082805452882
vt 0.19614582804883482 0.9958420073176836
vt 0.0373804755894866 0.7552082805452882
vt 0.0540927639525342 0.7552082805452882
vt 0.04573662562328721 0.995843125
vt 0.22121391530907442 0.7552082805452882
vt 0.23792585253551343 0.7552082805452882
vt 0.22957005363832142 0.9958420073176836
vt 0.1376531640625 0.7552082805452882
vt 0.1543654524255476 0.7552082805452882
vt 0.1460093140963006 0.9958420073176836
vt 0.07080471288352681 0.7552082805452882
vt 0.08751698954202078 0.7552082805452882
vt 0.0791608512127738 0.995843125
vt 0.254638140898561 0.7552082805452882
vt 0.271350078125 0.7552082805452882
vt 0.26299427922780805 0.995843125
vt 0.1710774013565402 0.7552082805452882
vt 0.1877896780150342 0.7552082805452882
vt 0.1794335396857872 0.9958420073176836
vt 0.10422893847301341 0.7552082805452882
vt 0.12094122683606101 0.7552082805452882
vt 0.1125850768022604 0.995843125
vt 0.020668538363047592 0.7552082805452882
vt 0.0373804755894866 0.7552082805452882
vt 0.029024676692294582 0.995843125
vt 0.20450162694602683 0.7552082805452882
vt 0.22121391530907442 0.7552082805452882
vt 0.2128577652752738 0.9958420073176836
vt 0.6765620851236628 0.1751352408837481
vt 0.6801709959444227 0.2256017014754812
vt 0.6686924980352544 0.24545267563863815
vt 0.6641125 0.18140419408574338
vt 0.7688708169177051 0.1227411589446985
vt 0.7648483075737954 0.07275440695472923
vt 0.7761574229251555 0.0514716719735544
vt 0.7812620250327295 0.1149108284407403
vt 0.7360965647227511 0.32655183193614046
vt 0.7482715196004653 0.30457514743627834
vt 0.7551193070898836 0.345676735027205
vt 0.7396681950371093 0.3735679053712795
vt 0.687305755978961 0.2699716662404825
vt 0.6973770908887515 0.30457514743627834
vt 0.6905290216116811 0.345676735027205
vt 0.6777475188123535 0.3017619045995006
vt 0.6882965871149613 0.029304372852576588
vt 0.6808002935224997 0.07275440695472923
vt 0.6694911875640613 0.0514716719735544
vt 0.6790050243895853 0
vt 0.7583425727226036 0.2699716662404825
vt 0.7654776145447942 0.2256017014754812
vt 0.7769558400592318 0.24545267563863815
vt 0.7679008192821328 0.3017619045995006
vt 0.7095520457664658 0.32655183193614046
vt 0.7228241690472432 0.334084427360521
vt 0.7228241690472432 0.3831276953125
vt 0.7059804154521074 0.3735679053712795
vt 0.6767777935715118 0.1227411589446985
vt 0.6765620851236628 0.1751352408837481
vt 0.6641125 0.18140419408574338
vt 0.6643863130617569 0.1149108284407403
vt 0.7690865159726323 0.1751352408837481
vt 0.7688708169177051 0.1227411589446985
vt 0.7812620250327295 0.1149108284407403
vt 0.7815358380944863 0.18140419408574338
vt 0.6801709959444227 0.2256017014754812
vt 0.687305755978961 0.2699716662404825
vt 0.6777475188123535 0.3017619045995006
vt 0.6686924980352544 0.24545267563863815
vt 0.7228241690472432 0.334084427360521
vt 0.7360965647227511 0.32655183193614046
vt 0.7396681950371093 0.3735679053712795
vt 0.7228241690472432 0.3831276953125
vt 0.7648483075737954 0.07275440695472923
vt 0.757351750979525 0.029304372852576588
vt 0.7666435767067099 0
vt 0.7761574229251555 0.0514716719735544
vt 1 0.2616799609375
vt 0.9634951562499999 0.22493726562500005
vt 0.9437392578124999 0.17692910156249997
vt 0.9437392578124999 0.12496617187500003
vt 0.6808002935224997 0.07275440695472923
vt 0.6767777935715118 0.1227411589446985
vt 0.6643863130617569 0.1149108284407403
vt 0.6694911875640613 0.0514716719735544
vt 0.6973770908887515 0.30457514743627834
vt 0.7095520457664658 0.32655183193614046
vt 0.7059804154521074 0.3735679053712795
vt 0.6905290216116811 0.345676735027205
vt 0.8286111330038897 0.06900737852854877
vt 0.8163997241968872 0.07772653903127535
vt 0.8118679682077095 0.030902137566910293
vt 0.8286111330038897 0.018946757903847145
vt 0.8163997241968872 0.07772653903127535
vt 0.8057670588907586 0.10275845359827984
vt 0.7972892707265101 0.06522396268999764
vt 0.8118679682077095 0.030902137566910293
vt 0.8057670588907586 0.10275845359827984
vt 0.7980876878605864 0.1408658457195675
vt 0.7867599369524862 0.11747347940855679
vt 0.7972892707265101 0.06522396268999764
vt 0.7980876878605864 0.1408658457195675
vt 0.7943546214002154 0.1871216118298925
vt 0.7816413581773575 0.18089549951921535
vt 0.7867599369524862 0.11747347940855679
vt 0.7943546214002154 0.1871216118298925
vt 0.795050251791648 0.2355470229782317
vt 0.7825951812016867 0.24729246404366956
vt 0.7816413581773575 0.18089549951921535
vt 0.795050251791648 0.2355470229782317
vt 0.800084679380873 0.2798805274101963
vt 0.7894980675700548 0.3080790583617701
vt 0.7825951812016867 0.24729246404366956
vt 0.800084679380873 0.2798805274101963
vt 0.8088072376928462 0.31439085245508347
vt 0.8014578587893811 0.35539713273545204
vt 0.7894980675700548 0.3080790583617701
vt 0.8088072376928462 0.31439085245508347
vt 0.8200903064722105 0.33461663884185766
vt 0.8169278881865476 0.3831276953125
vt 0.8014578587893811 0.35539713273545204
vt 0.837131950142647 0.33461663884185766
vt 0.848415028314933 0.31439085245508347
vt 0.8557643978254763 0.35539713273545204
vt 0.8402943684283098 0.3831276953125
vt 0.848415028314933 0.31439085245508347
vt 0.8571375772339844 0.2798805274101963
vt 0.8677241890448026 0.3080790583617701
vt 0.8557643978254763 0.35539713273545204
vt 0.8571375772339844 0.2798805274101963
vt 0.8621720048232094 0.2355470229782317
vt 0.8746270754131706 0.24729246404366956
vt 0.8677241890448026 0.3080790583617701
vt 0.8621720048232094 0.2355470229782317
vt 0.8628676446075638 0.18712270563988354
vt 0.8755808984375 0.1808965933292066
vt 0.8746270754131706 0.24729246404366956
vt 0.8628676446075638 0.18712270563988354
vt 0.8591345781471929 0.1408658457195675
vt 0.8704623196623712 0.11747347940855679
vt 0.8755808984375 0.1808965933292066
vt 0.8591345781471929 0.1408658457195675
vt 0.8514551977240988 0.10275845359827984
vt 0.8599332676759996 0.06522396268999764
vt 0.8704623196623712 0.11747347940855679
vt 0.8514551977240988 0.10275845359827984
vt 0.8408225324179701 0.07772653903127535
vt 0.8453545701948002 0.030902137566910293
vt 0.8599332676759996 0.06522396268999764
vt 0.8408225324179701 0.07772653903127535
vt 0.8286111330038897 0.06900737852854877
vt 0.8286111330038897 0.018946757903847145
vt 0.8453545701948002 0.030902137566910293
vt 0.99372015625 0.7446283984375
vt 0.9027489453125 0.744627421875
vt 0.9933659375 0.6767167578125
vt 0.9914900390625 0.995843125
vt 0.8967889453125 0.995843125
vt 0.9914900390625 0.9356309765624999
vt 0.9935137109375 0.6739533203125
vt 0.902543125 0.6739533203125
vt 0.9931601171875 0.60604265625
vt 0.99148890625 0.9351904296875
vt 0.8967889453125 0.9351904296875
vt 0.99148890625 0.87497828125
vt 0.99148890625 0.874537734375
vt 0.8967889453125 0.874537734375
vt 0.99148890625 0.8143255859375
usemtl missile_texture
vn 0.000000 0.026296 -0.999654
vn 0.000000 0.037266 -0.999305
vn 0.382417 0.037266 -0.923238
vn 0.382550 0.026296 -0.923560
vn 0.706616 0.037266 -0.706616
vn 0.706862 0.026296 -0.706862
vn 0.923238 0.037266 -0.382417
vn 0.923560 0.026296 -0.382550
vn 0.999305 0.037266 -0.000000
vn 0.999654 0.026296 0.000000
vn 0.923238 0.037266 0.382417
vn 0.923560 0.026296 0.382550
vn 0.706616 0.037266 0.706616
vn 0.706862 0.026296 0.706862
vn 0.382417 0.037266 0.923238
vn 0.382550 0.026296 0.923560
vn 0.000000 0.037266 0.999305
vn 0.000000 0.026296 0.999654
vn -0.382417 0.037266 0.923238
vn -0.382550 0.026296 0.923560
vn -0.706616 0.037266 0.706616
vn -0.706862 0.026296 0.706862
vn -0.923238 0.037266 0.382417
vn -0.923560 0.026296 0.382550
vn -0.999305 0.037266 0.000000
vn -0.999654 0.026296 0.000000
vn -0.923238 0.037266 -0.382417
vn -0.923560 0.026296 -0.382550
vn -0.706616 0.037266 -0.706616
vn -0.706862 0.026296 -0.706862
vn 0.963540 0.186700 0.191660
vn -0.382417 0.037266 -0.923238
vn -0.382550 0.026296 -0.923560
vn 0.896524 0.241543 -0.371352
vn 0.686170 0.241542 -0.686170
vn 0.896524 0.241543 0.371352
vn 0.970390 0.241543 0.000000
vn -0.545802 0.186700 0.816850
vn -0.545802 0.186700 -0.816850
vn 0.816850 0.186700 -0.545802
vn 0.191660 0.186700 0.963540
vn 0.191660 0.186700 -0.963540
vn -0.963540 0.186699 -0.191660
vn 0.816850 0.186700 0.545802
vn -0.816850 0.186700 0.545802
vn -0.191660 0.186700 -0.963540
vn 0.963540 0.186700 -0.191660
vn -0.191660 0.186700 0.963540
vn -0.816850 0.186700 -0.545802
vn 0.545802 0.186700 -0.816850
vn 0.545802 0.186700 0.816850
vn -0.963540 0.186699 0.191660
vn -0.970390 0.241543 0.000000
vn -0.896524 0.241543 0.371352
vn 0.371352 0.241543 0.896524
vn 0.686170 0.241542 0.686170
vn 0.371352 0.241543 -0.896524
vn -0.686170 0.241542 -0.686170
vn -0.896524 0.241543 -0.371352
vn -0.371352 0.241543 0.896524
vn 0.000000 0.241543 0.970390
vn 0.000000 0.241543 -0.970390
vn -0.371352 0.241543 -0.896524
vn -0.686170 0.241542 0.686170
vn 0.000000 -1.000000 0.000000
vn 0.000000 -0.476425 0.879215
vn 0.336461 -0.476426 0.812289
vn 0.621699 -0.476425 0.621699
vn 0.812289 -0.476426 0.336461
vn 0.879215 -0.476425 0.000000
vn 0.812289 -0.476426 -0.336461
vn 0.621699 -0.476425 -0.621699
vn 0.336461 -0.476426 -0.812289
vn 0.000000 -0.476425 -0.879215
vn -0.336461 -0.476426 -0.812289
vn -0.621699 -0.476425 -0.621699
vn -0.812289 -0.476426 -0.336461
vn -0.879215 -0.476425 -0.000000
vn -0.812289 -0.476426 0.336461
vn -0.621699 -0.476425 0.621699
vn -0.336461 -0.476426 0.812289
vn 0.866025 0.000000 -0.500000
vn 0.000000 0.000000 1.000000
vn 0.866025 0.000000 0.500000
vn -0.866025 0.000000 -0.500000
vn -0.866025 -0.000000 0.500000
vn 0.000000 1.000000 0.000000
vn 0.000000 0.000000 -1.000000
f 1/1/1 2/2/2 3/3/3 4/4/4
f 4/5/4 3/6/3 5/7/5 6/8/6
f 6/9/6 5/10/5 7/11/7 8/12/8
f 8/13/8 7/14/7 9/15/9 10/16/10
f 10/17/10 9/18/9 11/19/11 12/20/12
f 12/21/12 11/22/11 13/23/13 14/24/14
f 14/25/14 13/26/13 15/27/15 16/28/16
f 16/29/16 15/30/15 17/31/17 18/32/18
f 18/33/18 17/34/17 19/35/19 20/36/20
f 20/37/20 19/38/19 21/39/21 22/40/22
f 22/41/22 21/42/21 23/43/23 24/44/24
f 24/45/24 23/46/23 25/47/25 26/48/26
f 26/49/26 25/50/25 27/51/27 28/52/28
f 28/53/28 27/54/27 29/55/29 30/56/30
f 11/57/11 9/58/9 31/59/31
f 30/60/30 29/61/29 32/62/32 33/63/33
f 33/64/33 32/65/32 2/66/2 1/67/1
f 6/68/6 8/69/8 34/70/34 35/71/35
f 10/72/10 12/73/12 36/74/36 37/75/37
f 21/76/21 19/77/19 31/78/38
f 32/79/32 29/80/29 31/81/39
f 7/82/7 5/83/5 31/84/40
f 17/85/17 15/86/15 31/87/41
f 3/88/3 2/89/2 31/90/42
f 27/91/27 25/92/25 31/93/43
f 13/94/13 11/95/11 31/96/44
f 23/97/23 21/98/21 31/99/45
f 2/100/2 32/101/32 31/102/46
f 9/103/9 7/104/7 31/105/47
f 19/106/19 17/107/17 31/108/48
f 29/109/29 27/110/27 31/111/49
f 5/112/5 3/113/3 31/114/50
f 15/115/15 13/116/13 31/117/51
f 25/118/25 23/119/23 31/120/52
f 24/121/24 26/122/26 38/123/53 39/124/54
f 14/125/14 16/126/16 40/127/55 41/128/56
f 4/129/4 6/130/6 35/131/35 42/132/57
f 28/133/28 30/134/30 43/135/58 44/136/59
f 18/137/18 20/138/20 45/139/60 46/140/61
f 8/141/8 10/142/10 37/143/37 34/144/34
f 33/145/33 1/146/1 47/147/62 48/148/63
f 22/149/22 24/150/24 39/151/54 49/152/64
f 12/153/12 14/154/14 41/155/56 36/156/36
f 26/157/26 28/158/28 44/159/59 38/160/53
f 1/161/1 4/162/4 42/163/57 47/164/62
f 16/165/16 18/166/18 46/167/61 40/168/55
f 50/169/65 51/170/65 52/171/65 53/172/65
f 20/173/20 22/174/22 49/175/64 45/176/60
f 30/177/30 33/178/33 48/179/63 43/180/58
f 50/181/66 54/182/67 48/183/67 47/184/66
f 54/185/67 55/186/68 43/187/68 48/188/67
f 55/189/68 56/190/69 44/191/69 43/192/68
f 56/193/69 57/194/70 38/195/70 44/196/69
f 57/197/70 58/198/71 39/199/71 38/200/70
f 58/201/71 59/202/72 49/203/72 39/204/71
f 59/205/72 60/206/73 45/207/73 49/208/72
f 60/209/73 61/210/74 46/211/74 45/212/73
f 61/213/74 62/214/75 40/215/75 46/216/74
f 62/217/75 63/218/76 41/219/76 40/220/75
f 63/221/76 64/222/77 36/223/77 41/224/76
f 64/225/77 65/226/78 37/227/78 36/228/77
f 65/229/78 53/230/79 34/231/79 37/232/78
f 53/233/79 52/234/80 35/235/80 34/236/79
f 52/237/80 51/238/81 42/239/81 35/240/80
f 51/241/81 50/242/66 47/243/66 42/244/81
f 66/245/82 67/246/82 68/247/82
f 69/248/83 70/249/83 71/250/83
f 72/251/84 73/252/84 74/253/84
f 75/254/85 76/255/85 77/256/85
f 78/257/86 79/258/86 80/259/86
o circle
v 0.000000 0.000000 0.000000
v 0.248417 0.000000 0.564570
v 0.445559 0.000000 0.426530
v 0.574868 0.000000 0.223554
v 0.616659 0.000000 -0.013456
v 0.564570 0.000000 -0.248417
v 0.426530 0.000000 -0.445559
v 0.223554 0.000000 -0.574868
v -0.013456 0.000000 -0.616659
v -0.248417 0.000000 -0.564570
v -0.445559 0.000000 -0.426530
v -0.574868 0.000000 -0.223554
v -0.616659 0.000000 0.013456
v -0.564570 0.000000 0.248417
v -0.426530 0.000000 0.445559
v -0.223554 0.000000 0.574868
v 0.013456 0.000000 0.616659
vt 0.9906001171875001 0.025308515625000028
vt 0.97381625 0.00881503906250003
vt 0.9407490625000001 0.05925089843750009
vt 0.97381625 0.00881503906250003
vt 0.951998203125 0
vt 0.9407490625000001 0.05925089843750009
vt 0.951998203125 0
vt 0.928467578125 0.0002053515625000113
vt 0.9407490625000001 0.05925089843750009
vt 0.928467578125 0.0002053515625000113
vt 0.9068066796875001 0.009399843750000025
vt 0.9407490625000001 0.05925089843750009
vt 0.9068066796875001 0.009399843750000025
vt 0.8903132031250001 0.02618371093750005
vt 0.9407490625000001 0.05925089843750009
vt 0.8903132031250001 0.02618371093750005
vt 0.881498125 0.048001757812500045
vt 0.9407490625000001 0.05925089843750009
vt 0.881498125 0.048001757812500045
vt 0.8817034765625 0.07153242187500009
vt 0.9407490625000001 0.05925089843750009
vt 0.8817034765625 0.07153242187500009
vt 0.8908980078125001 0.09319328125000004
vt 0.9407490625000001 0.05925089843750009
vt 0.8908980078125001 0.09319328125000004
vt 0.9076818750000001 0.10968675781250004
vt 0.9407490625000001 0.05925089843750009
vt 0.9076818750000001 0.10968675781250004
vt 0.9294999218750001 0.11850183593750008
vt 0.9407490625000001 0.05925089843750009
vt 0.9294999218750001 0.11850183593750008
vt 0.953030546875 0.11829648437500007
vt 0.9407490625000001 0.05925089843750009
vt 0.953030546875 0.11829648437500007
vt 0.9746914453125001 0.10910199218750005
vt 0.9407490625000001 0.05925089843750009
vt 0.9746914453125001 0.10910199218750005
vt 0.9911849218750001 0.09231812500000003
vt 0.9407490625000001 0.05925089843750009
vt 0.9911849218750001 0.09231812500000003
vt 1 0.07050003906250002
vt 0.9407490625000001 0.05925089843750009
vt 1 0.07050003906250002
vt 0.9997946484375 0.04696941406249999
vt 0.9407490625000001 0.05925089843750009
vt 0.9997946484375 0.04696941406249999
vt 0.9906001171875001 0.025308515625000028
vt 0.9407490625000001 0.05925089843750009
usemtl missile_texture
f 83/260/87 84/261/87 81/262/87
f 84/263/87 85/264/87 81/265/87
f 85/266/87 86/267/87 81/268/87
f 86/269/87 87/270/87 81/271/87
f 87/272/87 88/273/87 81/274/87
f 88/275/87 89/276/87 81/277/87
f 89/278/87 90/279/87 81/280/87
f 90/281/87 91/282/87 81/283/87
f 91/284/87 92/285/87 81/286/87
f 92/287/87 93/288/87 81/289/87
f 93/290/87 94/291/87 81/292/87
f 94/293/87 95/294/87 81/295/87
f 95/296/87 96/297/87 81/298/87
f 96/299/87 97/300/87 81/301/87
f 97/302/87 82/303/87 81/304/87
f 82/305/87 83/306/87 81/307/87
o Plane
v -0.477529 4.673761 0.000000
v -0.798965 4.673761 0.000000
v -0.477529 5.562959 0.000000
vt 0.991608203125 0.8096250390624999
vt 0.8989953125 0.8096250390624999
vt 0.991608203125 0.7450887109375
usemtl missile_texture
f 98/308/88 99/309/88 100/310/88
