# Made in Blockbench 5.1.6
mtllib missile_v2_cl.mtl

o Fins
v 0.6875 3.6875 0.09375
v 0.73988625 0.011466875000000043 0.09375
v 2.01011375 -0.5918243749999998 0.09375
v 2.0625 1.625 0.09375
v 0.6875 3.6875 -0.09375
v 0.73988625 0.011466875000000043 -0.09375
v 2.01011375 -0.5918243749999998 -0.09375
v 2.0625 1.625 -0.09375
vt 0.597194921875 0.9140625
vt 0.4670771875 1
vt 0.328586328125 0.994751796875
vt 0.3674192578125 0.9140625
vt 0.3290478125 0.45772433593749995
vt 0.4078915234375 0.41889140625
vt 0.4131396875 0.557382265625
vt 0.3290478125 0.6875
vt 0.67578125 0.34765625
vt 0.6640625 0.34765625
vt 0.6640625 0.19273007812499998
vt 0.67578125 0.19273007812499998
vt 0.67578125 0.19273007812499998
vt 0.6640625 0.19273007812499998
vt 0.6640625 0.05413984375000003
vt 0.67578125 0.05413984375000003
vt 0.484375 0.5546875
vt 0.49609375 0.5546875
vt 0.49609375 0.640625
vt 0.484375 0.640625
vt 0.046875 0.1015625
vt 0.05859375 0.1015625
vt 0.05859375 0.33203125
vt 0.046875 0.33203125
vn -0 -0 1
vn -0 -0 -1
vn 0.8320502943 0.5547001962 -0
vn 0.9997208998 -0.02362461798 -0
vn -0.4290180484 -0.9032959173 -0
vn -0.9998984734 -0.01424930887 -0
usemtl missile_texture
f 2/4/1 3/3/1 4/2/1 1/1/1
f 5/8/2 8/7/2 7/6/2 6/5/2
f 4/12/3 8/11/3 5/10/3 1/9/3
f 3/16/4 7/15/4 8/14/4 4/13/4
f 2/20/5 6/19/5 7/18/5 3/17/5
f 1/24/6 5/23/6 6/22/6 2/21/6
v -0.6875 3.6875 0.09375
v -0.73988625 0.011466875000000043 0.09375
v -2.01011375 -0.5918243749999998 0.09375
v -2.0625 1.625 0.09375
v -0.6875 3.6875 -0.09375
v -0.73988625 0.011466875000000043 -0.09375
v -2.01011375 -0.5918243749999998 -0.09375
v -2.0625 1.625 -0.09375
vt 0.4977352734375 0.37201640625
vt 0.5029834375 0.510507265625
vt 0.4188915625 0.640625
vt 0.4188915625 0.41084933593749995
vt 0.4670771875 0.91015625
vt 0.328586328125 0.904908046875
vt 0.3674192578125 0.82421875
vt 0.597194921875 0.82421875
vt 0.01171875 0.03851484375000003
vt 0.01171875 0.17710507812499998
vt 0 0.17710507812499998
vt 0 0.03851484375000003
vt 0.6015625 0.76171875
vt 0.6015625 0.67578125
vt 0.61328125 0.67578125
vt 0.61328125 0.76171875
vt 0.0625 0.33203125
vt 0.0625 0.1015625
vt 0.07421875 0.1015625
vt 0.07421875 0.33203125
vt 0.01171875 0.17710507812499998
vt 0.01171875 0.33203125
vt 0 0.33203125
vt 0 0.17710507812499998
vn -0 -0 1
vn -0 -0 -1
vn -0.9997208998 -0.02362461798 -0
vn 0.4290180484 -0.9032959173 -0
vn 0.9998984734 -0.01424930887 -0
vn -0.8320502943 0.5547001962 -0
usemtl missile_texture
f 10/28/7 9/27/7 12/26/7 11/25/7
f 13/32/8 14/31/8 15/30/8 16/29/8
f 11/36/9 12/35/9 16/34/9 15/33/9
f 10/40/10 11/39/10 15/38/10 14/37/10
f 9/44/11 10/43/11 14/42/11 13/41/11
f 12/48/12 9/47/12 13/46/12 16/45/12
v -0.031249999999999847 3.6875 0.6875
v -0.03124999999999986 0.011466875000000043 0.73988625
v -0.03125000000000014 -0.5918243749999998 2.01011375
v -0.03125000000000015 1.625 2.0625
v -0.21874999999999983 3.6875 0.6875
v -0.21874999999999986 0.011466875000000043 0.73988625
v -0.21875000000000014 -0.5918243749999998 2.01011375
v -0.21875000000000017 1.625 2.0625
vt 0.5875790234375 0.37201640625
vt 0.5928271875 0.510507265625
vt 0.5087353125 0.640625
vt 0.5087353125 0.41084933593749995
vt 0.4670771875 0.8203125
vt 0.328586328125 0.815064296875
vt 0.3674192578125 0.734375
vt 0.597194921875 0.734375
vt 0.02734375 0.17710507812499998
vt 0.02734375 0.33203125
vt 0.015625 0.33203125
vt 0.015625 0.17710507812499998
vt 0.02734375 0.03851484375000003
vt 0.02734375 0.17710507812499998
vt 0.015625 0.17710507812499998
vt 0.015625 0.03851484375000003
vt 0.6171875 0.76171875
vt 0.6171875 0.67578125
vt 0.62890625 0.67578125
vt 0.62890625 0.76171875
vt 0.078125 0.33203125
vt 0.078125 0.1015625
vt 0.08984375 0.1015625
vt 0.08984375 0.33203125
vn 1 -0 2.220446049e-16
vn -1 -0 -2.220446049e-16
vn -1.847522789e-16 0.5547001962 0.8320502943
vn -2.219826322e-16 -0.02362461798 0.9997208998
vn 9.526114306e-17 -0.9032959173 -0.4290180484
vn 2.220220615e-16 -0.01424930887 -0.9998984734
usemtl missile_texture
f 18/52/13 17/51/13 20/50/13 19/49/13
f 21/56/14 22/55/14 23/54/14 24/53/14
f 20/60/15 17/59/15 21/58/15 24/57/15
f 19/64/16 20/63/16 24/62/16 23/61/16
f 18/68/17 19/67/17 23/66/17 22/65/17
f 17/72/18 18/71/18 22/70/18 21/69/18
v -0.031249999999999847 3.6875 -0.6875
v -0.03124999999999986 0.011466875000000043 -0.73988625
v -0.03125000000000014 -0.5918243749999998 -2.01011375
v -0.03125000000000015 1.625 -2.0625
v -0.21874999999999983 3.6875 -0.6875
v -0.21874999999999986 0.011466875000000043 -0.73988625
v -0.21875000000000014 -0.5918243749999998 -2.01011375
v -0.21875000000000017 1.625 -2.0625
vt 0.597194921875 0.64453125
vt 0.4670771875 0.73046875
vt 0.328586328125 0.7252205468749999
vt 0.3674192578125 0.64453125
vt 0.3290478125 0.21944308593749995
vt 0.4078915234375 0.18061015625
vt 0.4131396875 0.31910101562500004
vt 0.3290478125 0.44921875
vt 0.04296875 0.33203125
vt 0.03125 0.33203125
vt 0.03125 0.17710507812499998
vt 0.04296875 0.17710507812499998
vt 0.04296875 0.17710507812499998
vt 0.03125 0.17710507812499998
vt 0.03125 0.03851484375000003
vt 0.04296875 0.03851484375000003
vt 0.62109375 0.45703125
vt 0.6328125 0.45703125
vt 0.6328125 0.54296875
vt 0.62109375 0.54296875
vt 0.09375 0.1015625
vt 0.10546875 0.1015625
vt 0.10546875 0.33203125
vt 0.09375 0.33203125
vn 1 -0 -2.220446049e-16
vn -1 -0 2.220446049e-16
vn -1.847522789e-16 0.5547001962 -0.8320502943
vn -2.219826322e-16 -0.02362461798 -0.9997208998
vn 9.526114306e-17 -0.9032959173 0.4290180484
vn 2.220220615e-16 -0.01424930887 0.9998984734
usemtl missile_texture
f 26/76/19 27/75/19 28/74/19 25/73/19
f 29/80/20 32/79/20 31/78/20 30/77/20
f 28/84/21 32/83/21 29/82/21 25/81/21
f 27/88/22 31/87/22 32/86/22 28/85/22
f 26/92/23 30/91/23 31/90/23 27/89/23
f 25/96/24 29/95/24 30/94/24 26/93/24
o circle
v 0 0 0
v 0.200961875 0 0.75
v 0.549038125 0 0.549038125
v 0.75 0 0.200961875
v 0.75 0 -0.200961875
v 0.549038125 0 -0.549038125
v 0.200961875 0 -0.75
v -0.200961875 0 -0.75
v -0.549038125 0 -0.549038125
v -0.75 0 -0.200961875
v -0.75 0 0.200961875
v -0.549038125 0 0.549038125
v -0.200961875 0 0.75
vt 0.64368984375 0.55943515625
vt 0.65625 0.58118984375
vt 0.609375 0.59375
vt 0.65625 0.58118984375
vt 0.65625 0.60631015625
vt 0.609375 0.59375
vt 0.65625 0.60631015625
vt 0.64368984375 0.62806484375
vt 0.609375 0.59375
vt 0.64368984375 0.62806484375
vt 0.62193515625 0.640625
vt 0.609375 0.59375
vt 0.62193515625 0.640625
vt 0.59681484375 0.640625
vt 0.609375 0.59375
vt 0.59681484375 0.640625
vt 0.57506015625 0.62806484375
vt 0.609375 0.59375
vt 0.57506015625 0.62806484375
vt 0.5625 0.60631015625
vt 0.609375 0.59375
vt 0.5625 0.60631015625
vt 0.5625 0.58118984375
vt 0.609375 0.59375
vt 0.5625 0.58118984375
vt 0.57506015625 0.55943515625
vt 0.609375 0.59375
vt 0.57506015625 0.55943515625
vt 0.59681484375 0.546875
vt 0.609375 0.59375
vt 0.59681484375 0.546875
vt 0.62193515625 0.546875
vt 0.609375 0.59375
vt 0.62193515625 0.546875
vt 0.64368984375 0.55943515625
vt 0.609375 0.59375
vn 0 1 0
vn 0 1 0
vn 0 1 0
vn 0 1 0
vn 0 1 0
vn 0 1 0
vn 0 1 0
vn 0 1 0
vn 0 1 0
vn 0 1 0
vn 0 1 0
vn 0 1 0
usemtl missile_texture
f 35/97/25 36/98/25 33/99/25
f 36/100/26 37/101/26 33/102/26
f 37/103/27 38/104/27 33/105/27
f 38/106/28 39/107/28 33/108/28
f 39/109/29 40/110/29 33/111/29
f 40/112/30 41/113/30 33/114/30
f 41/115/31 42/116/31 33/117/31
f 42/118/32 43/119/32 33/120/32
f 43/121/33 44/122/33 33/123/33
f 44/124/34 45/125/34 33/126/34
f 45/127/35 34/128/35 33/129/35
f 34/130/36 35/131/36 33/132/36
o Nose Cone
v 0.75 10.625 0
v 0.6929125 10.625 0.2870125
v 0.53033125 10.625 0.53033125
v 0.2870125 10.625 0.6929125
v 0 10.625 0.75
v -0.2870125 10.625 0.6929125
v -0.53033125 10.625 0.53033125
v -0.6929125 10.625 0.2870125
v -0.75 10.625 0
v -0.6929125 10.625 -0.2870125
v -0.53033125 10.625 -0.53033125
v -0.2870125 10.625 -0.6929125
v 0 10.625 -0.75
v 0.2870125 10.625 -0.6929125
v 0.53033125 10.625 -0.53033125
v 0.6929125 10.625 -0.2870125
v 0.736775 11.142855625 0
v 0.6806875 11.142855625 0.28195
v 0.520975 11.142855625 0.520975
v 0.28195 11.142855625 0.6806875
v 0 11.142855625 0.736775
v -0.28195 11.142855625 0.6806875
v -0.520975 11.142855625 0.520975
v -0.6806875 11.142855625 0.28195
v -0.736775 11.142855625 0
v -0.6806875 11.142855625 -0.28195
v -0.520975 11.142855625 -0.520975
v -0.28195 11.142855625 -0.6806875
v 0 11.142855625 -0.736775
v 0.28195 11.142855625 -0.6806875
v 0.520975 11.142855625 -0.520975
v 0.6806875 11.142855625 -0.28195
v 0.6967 11.660710625 0
v 0.6436625 11.660710625 0.2666125
v 0.4926375 11.660710625 0.4926375
v 0.2666125 11.660710625 0.6436625
v 0 11.660710625 0.6967
v -0.2666125 11.660710625 0.6436625
v -0.4926375 11.660710625 0.4926375
v -0.6436625 11.660710625 0.2666125
v -0.6967 11.660710625 0
v -0.6436625 11.660710625 -0.2666125
v -0.4926375 11.660710625 -0.4926375
v -0.2666125 11.660710625 -0.6436625
v 0 11.660710625 -0.6967
v 0.2666125 11.660710625 -0.6436625
v 0.4926375 11.660710625 -0.4926375
v 0.6436625 11.660710625 -0.2666125
v 0.62853125 12.17856625 0
v 0.5806875 12.17856625 0.24053125
v 0.4444375 12.17856625 0.4444375
v 0.24053125 12.17856625 0.5806875
v 0 12.17856625 0.62853125
v -0.24053125 12.17856625 0.5806875
v -0.4444375 12.17856625 0.4444375
v -0.5806875 12.17856625 0.24053125
v -0.62853125 12.17856625 0
v -0.5806875 12.17856625 -0.24053125
v -0.4444375 12.17856625 -0.4444375
v -0.24053125 12.17856625 -0.5806875
v 0 12.17856625 -0.62853125
v 0.24053125 12.17856625 -0.5806875
v 0.4444375 12.17856625 -0.4444375
v 0.5806875 12.17856625 -0.24053125
v 0.52998125 12.69643375 0
v 0.4896375 12.69643375 0.2028125
v 0.37475 12.69643375 0.37475
v 0.2028125 12.69643375 0.4896375
v 0 12.69643375 0.52998125
v -0.2028125 12.69643375 0.4896375
v -0.37475 12.69643375 0.37475
v -0.4896375 12.69643375 0.2028125
v -0.52998125 12.69643375 0
v -0.4896375 12.69643375 -0.2028125
v -0.37475 12.69643375 -0.37475
v -0.2028125 12.69643375 -0.4896375
v 0 12.69643375 -0.52998125
v 0.2028125 12.69643375 -0.4896375
v 0.37475 12.69643375 -0.37475
v 0.4896375 12.69643375 -0.2028125
v 0.39724375 13.214289375 0
v 0.36700625 13.214289375 0.15201875
v 0.28089375 13.214289375 0.28089375
v 0.15201875 13.214289375 0.36700625
v 0 13.214289375 0.39724375
v -0.15201875 13.214289375 0.36700625
v -0.28089375 13.214289375 0.28089375
v -0.36700625 13.214289375 0.15201875
v -0.39724375 13.214289375 0
v -0.36700625 13.214289375 -0.15201875
v -0.28089375 13.214289375 -0.28089375
v -0.15201875 13.214289375 -0.36700625
v 0 13.214289375 -0.39724375
v 0.15201875 13.214289375 -0.36700625
v 0.28089375 13.214289375 -0.28089375
v 0.36700625 13.214289375 -0.15201875
v 0.224125 13.732144375 0
v 0.2070625 13.732144375 0.08576875
v 0.15848125 13.732144375 0.15848125
v 0.08576875 13.732144375 0.2070625
v 0 13.732144375 0.224125
v -0.08576875 13.732144375 0.2070625
v -0.15848125 13.732144375 0.15848125
v -0.2070625 13.732144375 0.08576875
v -0.224125 13.732144375 0
v -0.2070625 13.732144375 -0.08576875
v -0.15848125 13.732144375 -0.15848125
v -0.08576875 13.732144375 -0.2070625
v 0 13.732144375 -0.224125
v 0.08576875 13.732144375 -0.2070625
v 0.15848125 13.732144375 -0.15848125
v 0.2070625 13.732144375 -0.08576875
v 0 14.25 0
vt 0.544152734375 0.24981328125000002
vt 0.559439296875 0.2509306640625
vt 0.555840625 0.28368125
vt 0.54295078125 0.2827390625
vt 0.63689625 0.765625
vt 0.65518515625 0.765807265625
vt 0.6547012109375 0.798180234375
vt 0.636734921875 0.798001171875
vt 0.65518515625 0.765807265625
vt 0.6734713671875 0.766171796875
vt 0.67266484375 0.7985383203125
vt 0.6547012109375 0.798180234375
vt 0.4868587109375 0.164244765625
vt 0.50514765625 0.1640625
vt 0.505308984375 0.19643867187499997
vt 0.4873426953125 0.19661773437499996
vt 0.50514765625 0.1640625
vt 0.5234375 0.1640625
vt 0.523276171875 0.19643867187499997
vt 0.505308984375 0.19643867187499997
vt 0.640625 0.3203125
vt 0.65891484375 0.3203125
vt 0.658753515625 0.35268867187499997
vt 0.640786328125 0.35268867187499997
vt 0.56640625 0.22710929687500003
vt 0.5846924609375 0.226744765625
vt 0.5851764453125 0.25911773437499996
vt 0.5672128125 0.25947582031250005
vt 0.5846924609375 0.226744765625
vt 0.60298140625 0.2265625
vt 0.603142734375 0.25893867187499997
vt 0.5851764453125 0.25911773437499996
vt 0.60298140625 0.2265625
vt 0.62127125 0.2265625
vt 0.621109921875 0.25893867187499997
vt 0.603142734375 0.25893867187499997
vt 0.62127125 0.2265625
vt 0.63956015625 0.226744765625
vt 0.6390762109375 0.25911773437499996
vt 0.621109921875 0.25893867187499997
vt 0.63956015625 0.226744765625
vt 0.6578463671875 0.22710929687500003
vt 0.65703984375 0.25947582031250005
vt 0.6390762109375 0.25911773437499996
vt 0.4165462109375 0.156432265625
vt 0.43483515625 0.15625
vt 0.434996484375 0.18862617187499997
vt 0.4170301953125 0.18880523437499996
vt 0.43483515625 0.15625
vt 0.453125 0.15625
vt 0.452963671875 0.18862617187499997
vt 0.434996484375 0.18862617187499997
vt 0.52734375 0.15234375
vt 0.54563359375 0.15234375
vt 0.545472265625 0.18471992187499997
vt 0.527505078125 0.18471992187499997
vt 0.58203125 0.766171796875
vt 0.6003174609375 0.765807265625
vt 0.6008014453125 0.798180234375
vt 0.5828378125 0.7985383203125
vt 0.6003174609375 0.765807265625
vt 0.61860640625 0.765625
vt 0.618767734375 0.798001171875
vt 0.6008014453125 0.798180234375
vt 0.61860640625 0.765625
vt 0.63689625 0.765625
vt 0.636734921875 0.798001171875
vt 0.618767734375 0.798001171875
vt 0.636734921875 0.798001171875
vt 0.6546939453125 0.79854203125
vt 0.6532283984375 0.8309716015624999
vt 0.63624625 0.83046015625
vt 0.4585953125 0.17578125
vt 0.4765625 0.17578125
vt 0.476073828125 0.20824023437500006
vt 0.459083984375 0.20824023437500006
vt 0.487349921875 0.19697953125
vt 0.505308984375 0.19643867187499997
vt 0.50579765625 0.22889804687500004
vt 0.4888155078125 0.22940949218749995
vt 0.505308984375 0.19643867187499997
vt 0.523276171875 0.19643867187499997
vt 0.5227875 0.22889765625000003
vt 0.50579765625 0.22889765625000003
vt 0.640786328125 0.35268867187499997
vt 0.658753515625 0.35268867187499997
vt 0.65826484375 0.38514765625
vt 0.641275 0.38514765625
vt 0.658753515625 0.35268867187499997
vt 0.676712578125 0.35322953125
vt 0.6752469921875 0.38565910156250005
vt 0.65826484375 0.38514765625
vt 0.585183671875 0.25947953125
vt 0.603142734375 0.25893867187499997
vt 0.60363140625 0.29139804687500004
vt 0.5866492578125 0.29190949218749995
vt 0.603142734375 0.25893867187499997
vt 0.621109921875 0.25893867187499997
vt 0.62062125 0.29139765625
vt 0.60363140625 0.29139765625
vt 0.621109921875 0.25893867187499997
vt 0.6390689453125 0.25947953125
vt 0.6376033984375 0.29190910156250005
vt 0.62062125 0.29139765625
vt 0.6617203125 0.55859375
vt 0.6796875 0.55859375
vt 0.679198828125 0.591052734375
vt 0.662208984375 0.591052734375
vt 0.417037421875 0.18916703125
vt 0.434996484375 0.18862617187499997
vt 0.43548515625 0.22108554687500004
vt 0.4185030078125 0.22159699218749995
vt 0.434996484375 0.18862617187499997
vt 0.452963671875 0.18862617187499997
vt 0.452475 0.22108515625000003
vt 0.43548515625 0.22108515625000003
vt 0.527505078125 0.18471992187499997
vt 0.545472265625 0.18471992187499997
vt 0.54498359375 0.21717890625000003
vt 0.52799375 0.21717890625000003
vt 0.545472265625 0.18471992187499997
vt 0.563431328125 0.18526078125
vt 0.5619657421875 0.21769035156250005
vt 0.54498359375 0.21717890625000003
vt 0.600808671875 0.79854203125
vt 0.618767734375 0.798001171875
vt 0.61925640625 0.830460546875
vt 0.6022742578125 0.8309719921875001
vt 0.618767734375 0.798001171875
vt 0.636734921875 0.798001171875
vt 0.63624625 0.83046015625
vt 0.61925640625 0.83046015625
vt 0.63624625 0.83046015625
vt 0.6532140625 0.8313251171875
vt 0.6507228515625 0.8638748828125
vt 0.635415 0.86309453125
vt 0.459083984375 0.20824023437500006
vt 0.476073828125 0.20824023437500006
vt 0.475242578125 0.24087460937500005
vt 0.459915234375 0.24087460937500005
vt 0.48882984375 0.22976242187499996
vt 0.50579765625 0.22889765625000003
vt 0.506628515625 0.26153203125
vt 0.491321015625 0.26231218749999996
vt 0.50579765625 0.22889765625000003
vt 0.5227875 0.22889765625000003
vt 0.52195625 0.26153242187500003
vt 0.506628515625 0.26153242187500003
vt 0.641275 0.38514765625
vt 0.65826484375 0.38514765625
vt 0.657433984375 0.41778203125
vt 0.64210625 0.41778203125
vt 0.65826484375 0.38514765625
vt 0.67523265625 0.38601242187499996
vt 0.6727414453125 0.41856218749999996
vt 0.657433984375 0.41778203125
vt 0.5866635546875 0.29226242187499996
vt 0.60363140625 0.29139765625
vt 0.604462265625 0.32403203125
vt 0.589154765625 0.32481218749999996
vt 0.60363140625 0.29139765625
vt 0.62062125 0.29139765625
vt 0.61979 0.32403242187500003
vt 0.604462265625 0.32403242187500003
vt 0.62062125 0.29139765625
vt 0.6375890625 0.2922626171875
vt 0.6350978515625 0.3248123828125
vt 0.61979 0.32403203125
vt 0.662208984375 0.591052734375
vt 0.679198828125 0.591052734375
vt 0.678367578125 0.623687109375
vt 0.663040234375 0.623687109375
vt 0.41851734375 0.22194992187499996
vt 0.43548515625 0.22108515625000003
vt 0.436316015625 0.25371953125
vt 0.421008515625 0.25449968749999996
vt 0.43548515625 0.22108515625000003
vt 0.452475 0.22108515625000003
vt 0.45164375 0.25371992187500003
vt 0.436316015625 0.25371992187500003
vt 0.52799375 0.21717890625000003
vt 0.54498359375 0.21717890625000003
vt 0.544152734375 0.24981328125000002
vt 0.528825 0.24981328125000002
vt 0.54498359375 0.21717890625000003
vt 0.56195140625 0.21804367187499996
vt 0.5594601953125 0.25059343749999996
vt 0.544152734375 0.24981328125000002
vt 0.6022885546875 0.8313249218750001
vt 0.61925640625 0.83046015625
vt 0.620087265625 0.86309453125
vt 0.604779765625 0.8638746875
vt 0.61925640625 0.83046015625
vt 0.63624625 0.83046015625
vt 0.635415 0.863094921875
vt 0.620087265625 0.863094921875
vt 0.635415 0.863094921875
vt 0.650701953125 0.8642121484375
vt 0.64710328125 0.896962734375
vt 0.6342134375 0.896020703125
vt 0.459915234375 0.24087460937500005
vt 0.475242578125 0.24087460937500005
vt 0.474041015625 0.2761441406249998
vt 0.461116796875 0.2761441406249998
vt 0.491341953125 0.2626498046875
vt 0.506628515625 0.26153242187500003
vt 0.50783046875 0.29445820312500004
vt 0.494940625 0.295400390625
vt 0.506628515625 0.26153242187500003
vt 0.52195625 0.26153242187500003
vt 0.5207546875 0.29445820312500004
vt 0.50783046875 0.29445820312500004
vt 0.64210625 0.41778203125
vt 0.657433984375 0.41778203125
vt 0.65623203125 0.4507078125
vt 0.6433078125 0.4507078125
vt 0.657433984375 0.41778203125
vt 0.672720546875 0.4188994140625
vt 0.669121875 0.45165
vt 0.65623203125 0.4507078125
vt 0.589175703125 0.3251498046875
vt 0.604462265625 0.32403242187500003
vt 0.60566421875 0.35695820312500004
vt 0.592774375 0.357900390625
vt 0.604462265625 0.32403242187500003
vt 0.61979 0.32403242187500003
vt 0.6185884375 0.35695820312500004
vt 0.60566421875 0.35695820312500004
vt 0.61979 0.32403242187500003
vt 0.635076953125 0.32514964843750005
vt 0.63147828125 0.35790023437499996
vt 0.6185884375 0.35695820312500004
vt 0.663040234375 0.623687109375
vt 0.678367578125 0.623687109375
vt 0.677556640625 0.6593472656249999
vt 0.6646324218749999 0.6593472656249999
vt 0.421029453125 0.2548373046875
vt 0.436316015625 0.25371992187500003
vt 0.43751796875 0.28664570312500004
vt 0.424628125 0.287587890625
vt 0.436316015625 0.25371992187500003
vt 0.45164375 0.25371992187500003
vt 0.4504421875 0.28664570312500004
vt 0.43751796875 0.28664570312500004
vt 0.528825 0.24981328125000002
vt 0.544152734375 0.24981328125000002
vt 0.54295078125 0.2827390625
vt 0.5300265625 0.2827390625
vt 0.604800703125 0.8642123046875
vt 0.620087265625 0.863094921875
vt 0.62128921875 0.896020703125
vt 0.608399375 0.896962890625
vt 0.620087265625 0.863094921875
vt 0.635415 0.863094921875
vt 0.6342134375 0.896020703125
vt 0.62128921875 0.896020703125
vt 0.6342134375 0.896020703125
vt 0.6470769921875 0.8972715234374999
vt 0.642236328125 0.9303312890625
vt 0.6325946875 0.92939375
vt 0.461116796875 0.2761441406249998
vt 0.474041015625 0.2761441406249998
vt 0.47242265625 0.3091265624999999
vt 0.462735546875 0.3091265624999999
vt 0.4949669140625 0.2957088671875
vt 0.50783046875 0.29445820312500004
vt 0.509448828125 0.32783125
vt 0.4998071875 0.32876871093750004
vt 0.50783046875 0.29445820312500004
vt 0.5207546875 0.29445820312500004
vt 0.5191359375 0.32783125
vt 0.509448828125 0.32783125
vt 0.6433078125 0.4507078125
vt 0.65623203125 0.4507078125
vt 0.654613671875 0.484080859375
vt 0.6449265625 0.484080859375
vt 0.65623203125 0.4507078125
vt 0.6690955859375 0.4519584765625
vt 0.6642553125 0.48501832031250003
vt 0.654613671875 0.484080859375
vt 0.5928006640625 0.3582088671875
vt 0.60566421875 0.35695820312500004
vt 0.607282578125 0.39033125
vt 0.5976409375 0.39126871093750004
vt 0.60566421875 0.35695820312500004
vt 0.6185884375 0.35695820312500004
vt 0.6169696875 0.39033125
vt 0.607282578125 0.39033125
vt 0.6185884375 0.35695820312500004
vt 0.6314519921875 0.35820902343750005
vt 0.626611328125 0.39126878906249996
vt 0.6169696875 0.39033125
vt 0.6646324218749999 0.6593472656249999
vt 0.677556640625 0.6593472656249999
vt 0.6748046875 0.6880859375
vt 0.6650390625 0.6880859375
vt 0.4246544140625 0.2878963671875
vt 0.43751796875 0.28664570312500004
vt 0.439136328125 0.32001875
vt 0.4294946875 0.32095621093750004
vt 0.43751796875 0.28664570312500004
vt 0.4504421875 0.28664570312500004
vt 0.4488234375 0.32001875
vt 0.439136328125 0.32001875
vt 0.5300265625 0.2827390625
vt 0.54295078125 0.2827390625
vt 0.541332421875 0.316112109375
vt 0.5316453125 0.316112109375
vt 0.54295078125 0.2827390625
vt 0.555840625 0.28368125
vt 0.5517936328125 0.31684749999999995
vt 0.5421323046875 0.31614128906250005
vt 0.6084256640625 0.8972713671875
vt 0.62128921875 0.896020703125
vt 0.622907578125 0.92939375
vt 0.6132659375 0.9303312109375
vt 0.62128921875 0.896020703125
vt 0.6342134375 0.896020703125
vt 0.6325946875 0.92939375
vt 0.622907578125 0.92939375
vt 0.6325946875 0.92939375
vt 0.6422076953125 0.9305896484375
vt 0.6359079296875 0.9641298046875
vt 0.630484140625 0.963455078125
vt 0.462735546875 0.3091265624999999
vt 0.47242265625 0.3091265624999999
vt 0.470312109375 0.341234765625
vt 0.464846484375 0.341234765625
vt 0.499835859375 0.3290273828125
vt 0.509448828125 0.32783125
vt 0.511559765625 0.361892578125
vt 0.5061358984375 0.3625670703125
vt 0.509448828125 0.32783125
vt 0.5191359375 0.32783125
vt 0.517025390625 0.361892578125
vt 0.511559765625 0.361892578125
vt 0.6449265625 0.484080859375
vt 0.654613671875 0.484080859375
vt 0.652502734375 0.5181421875000001
vt 0.647037109375 0.5181421875000001
vt 0.654613671875 0.484080859375
vt 0.664226640625 0.4852769921875
vt 0.6579265234375 0.5188170703125
vt 0.652502734375 0.5181421875000001
vt 0.5976695703125 0.3915273828125
vt 0.607282578125 0.39033125
vt 0.609393515625 0.424392578125
vt 0.6039696484375 0.4250670703125
vt 0.607282578125 0.39033125
vt 0.6169696875 0.39033125
vt 0.614859140625 0.424392578125
vt 0.609393515625 0.424392578125
vt 0.6169696875 0.39033125
vt 0.6265826953125 0.3915271484375
vt 0.6202829296875 0.4250673046875
vt 0.614859140625 0.424392578125
vt 0.6650390625 0.6880859375
vt 0.6748046875 0.6880859375
vt 0.673437109375 0.724047265625
vt 0.667971484375 0.724047265625
vt 0.429523359375 0.3212148828125
vt 0.439136328125 0.32001875
vt 0.441247265625 0.354080078125
vt 0.4358233984375 0.3547545703125
vt 0.439136328125 0.32001875
vt 0.4488234375 0.32001875
vt 0.446712890625 0.354080078125
vt 0.441247265625 0.354080078125
vt 0.5316453125 0.316112109375
vt 0.541332421875 0.316112109375
vt 0.539221484375 0.35017343749999996
vt 0.533755859375 0.35017343749999996
vt 0.5421323046875 0.31614128906250005
vt 0.5517936328125 0.31684749999999995
vt 0.5472055859375 0.3506643359375
vt 0.54175453125 0.3502658984375
vt 0.6132945703125 0.9305898828125
vt 0.622907578125 0.92939375
vt 0.625018515625 0.963455078125
vt 0.6195946484375 0.9641295703125
vt 0.622907578125 0.92939375
vt 0.6325946875 0.92939375
vt 0.630484140625 0.963455078125
vt 0.625018515625 0.963455078125
vt 0.630484140625 0.963455078125
vt 0.6358841015625 0.9642996875000001
vt 0.6277509375 0.998616015625
vt 0.464846484375 0.341234765625
vt 0.470312109375 0.341234765625
vt 0.46757890625 0.37639570312500004
vt 0.506159765625 0.362736953125
vt 0.511559765625 0.361892578125
vt 0.5142921875 0.397053515625
vt 0.511559765625 0.361892578125
vt 0.517025390625 0.361892578125
vt 0.5142921875 0.397053515625
vt 0.647037109375 0.5181421875000001
vt 0.652502734375 0.5181421875000001
vt 0.6497703125 0.553303125
vt 0.652502734375 0.5181421875000001
vt 0.657902734375 0.5189865625000001
vt 0.6497703125 0.553303125
vt 0.603993515625 0.425236953125
vt 0.609393515625 0.424392578125
vt 0.6121259375 0.459553515625
vt 0.609393515625 0.424392578125
vt 0.614859140625 0.424392578125
vt 0.6121259375 0.459553515625
vt 0.614859140625 0.424392578125
vt 0.6202591015625 0.42523718749999995
vt 0.6121259375 0.459553515625
vt 0.667971484375 0.724047265625
vt 0.673437109375 0.724047265625
vt 0.67070390625 0.759208203125
vt 0.435847265625 0.354924453125
vt 0.441247265625 0.354080078125
vt 0.4439796875 0.389241015625
vt 0.441247265625 0.354080078125
vt 0.446712890625 0.354080078125
vt 0.4439796875 0.389241015625
vt 0.533755859375 0.35017343749999996
vt 0.539221484375 0.35017343749999996
vt 0.5364890625 0.385334375
vt 0.54175453125 0.3502658984375
vt 0.5472055859375 0.3506643359375
vt 0.54191640625 0.38553246093750004
vt 0.619618515625 0.964299453125
vt 0.625018515625 0.963455078125
vt 0.6277509375 0.998616015625
vt 0.625018515625 0.963455078125
vt 0.630484140625 0.963455078125
vt 0.6277509375 0.998616015625
vn -0.5461501361027463 -0.1834806281835796 0.8173462472638574
vn -0.9804792984016039 -0.025052633178012543 -0.19501977073298732
vn -0.8312072951983694 -0.025052204060750052 -0.5553978929386654
vn -0.5553978986823981 -0.025051791512289867 -0.8312073037944274
vn -0.19501983494964154 -0.025039494339987336 -0.9804796212565627
vn 0.19501977073298732 -0.025052633178012543 -0.9804792984016039
vn 0.5553978929386654 -0.025052204060750052 -0.8312072951983694
vn 0.8312073037944275 -0.02505179151228987 -0.5553978986823981
vn 0.9804796212565625 -0.02503949433998733 -0.19501983494964148
vn 0.9804792984016039 -0.025052633178012543 0.19501977073298732
vn 0.8312072951983694 -0.025052204060750052 0.5553978929386654
vn 0.5553978986823981 -0.025051791512289867 0.8312073037944274
vn 0.19501983494964154 -0.025039494339987336 0.9804796212565627
vn -0.19501977073298732 -0.025052633178012543 0.9804792984016039
vn -0.5553978929386654 -0.025052204060750052 0.8312072951983694
vn -0.8312073037944275 -0.02505179151228987 0.5553978986823981
vn -0.9804796212565625 -0.02503949433998733 0.19501983494964148
vn -0.9779695112974279 -0.07568363687514573 -0.19454465318281414
vn -0.8290831684323791 -0.07568245520314447 -0.5539794813858648
vn -0.5539794063521113 -0.07568423457996051 -0.8290830561372052
vn -0.1945446822292034 -0.07568167540490067 -0.9779696573126622
vn 0.19454465318281414 -0.07568363687514573 -0.9779695112974279
vn 0.5539794813858648 -0.07568245520314447 -0.8290831684323791
vn 0.8290830561372052 -0.07568423457996051 -0.5539794063521113
vn 0.9779696573126622 -0.07568167540490067 -0.1945446822292034
vn 0.9779695112974279 -0.07568363687514573 0.19454465318281414
vn 0.8290831684323791 -0.07568245520314447 0.5539794813858648
vn 0.5539794063521113 -0.07568423457996051 0.8290830561372052
vn 0.1945446822292034 -0.07568167540490067 0.9779696573126622
vn -0.19454465318281414 -0.07568363687514573 0.9779695112974279
vn -0.5539794813858648 -0.07568245520314447 0.8290831684323791
vn -0.8290830561372052 -0.07568423457996051 0.5539794063521113
vn -0.9779696573126622 -0.07568167540490067 0.1945446822292034
vn -0.9727097157243847 -0.12803408721577222 -0.19350214842789448
vn -0.8246261640664809 -0.12803771578150006 -0.5509973075020033
vn -0.5509977870425732 -0.12803102971317928 -0.8246268817500254
vn -0.19350189805664741 -0.12804402701572715 -0.9727084571412292
vn 0.19350214842789448 -0.12803408721577222 -0.9727097157243847
vn 0.5509973075020033 -0.12803771578150006 -0.8246261640664809
vn 0.8246268817500254 -0.12803102971317928 -0.5509977870425732
vn 0.9727084571412292 -0.12804402701572715 -0.19350189805664741
vn 0.9727097157243847 -0.12803408721577222 0.19350214842789448
vn 0.8246261640664809 -0.12803771578150006 0.5509973075020033
vn 0.5509977870425732 -0.12803102971317928 0.8246268817500254
vn 0.19350189805664741 -0.12804402701572715 0.9727084571412292
vn -0.19350214842789448 -0.12803408721577222 0.9727097157243847
vn -0.5509973075020033 -0.12803771578150006 0.8246261640664809
vn -0.8246268817500254 -0.12803102971317928 0.5509977870425732
vn -0.9727084571412292 -0.12804402701572715 0.19350189805664741
vn -0.9641356988369848 -0.18347949350321102 -0.19177494542281703
vn -0.8173462472638574 -0.1834806281835796 -0.5461501361027463
vn -0.5461499770357171 -0.1834821621069819 -0.8173460092105627
vn -0.19177511484167575 -0.183474840687156 -0.9641365505789545
vn 0.19177494542281703 -0.18347949350321102 -0.9641356988369848
vn 0.5461501361027463 -0.1834806281835796 -0.8173462472638574
vn 0.8173460092105627 -0.1834821621069819 -0.5461499770357171
vn 0.9641365505789545 -0.183474840687156 -0.19177511484167575
vn 0.9641356988369848 -0.18347949350321102 0.19177494542281703
vn 0.8173462472638574 -0.1834806281835796 0.5461501361027463
vn 0.5461499770357171 -0.1834821621069819 0.8173460092105627
vn 0.19177511484167575 -0.183474840687156 0.9641365505789545
vn -0.19177494542281703 -0.18347949350321102 0.9641356988369848
vn -0.8173460092105627 -0.1834821621069819 0.5461499770357171
vn -0.9641365505789545 -0.183474840687156 0.19177511484167575
vn -0.951187583446818 -0.24380557449703236 -0.1892115824699292
vn -0.8063744982462365 -0.24380223317518415 -0.5388141049350169
vn -0.5388139162570301 -0.24380358409646108 -0.8063742158759059
vn -0.18921138883444122 -0.24380952248515123 -0.9511866100197713
vn 0.1892115824699292 -0.24380557449703236 -0.951187583446818
vn 0.5388141049350169 -0.24380223317518415 -0.8063744982462365
vn 0.8063742158759059 -0.24380358409646108 -0.5388139162570301
vn 0.9511866100197715 -0.24380952248515125 -0.18921138883444125
vn 0.951187583446818 -0.24380557449703236 0.1892115824699292
vn 0.8063744982462365 -0.24380223317518415 0.5388141049350169
vn 0.5388139162570301 -0.24380358409646108 0.8063742158759059
vn 0.18921138883444122 -0.24380952248515123 0.9511866100197713
vn -0.1892115824699292 -0.24380557449703236 0.951187583446818
vn -0.5388141049350169 -0.24380223317518415 0.8063744982462365
vn -0.8063742158759059 -0.24380358409646108 0.5388139162570301
vn -0.9511866100197715 -0.24380952248515125 0.18921138883444125
vn -0.9319687554746152 -0.3115614228752382 -0.18537453599416984
vn -0.790083013320868 -0.31155508903068513 -0.5279225876593073
vn -0.5279215234084865 -0.31156093141499464 -0.7900814205750468
vn -0.18537480083446597 -0.3115572824272084 -0.9319700869567408
vn 0.18537453599416986 -0.31156142287523825 -0.9319687554746154
vn 0.5279225876593073 -0.31155508903068513 -0.790083013320868
vn 0.7900814205750468 -0.31156093141499464 -0.5279215234084865
vn 0.9319700869567408 -0.3115572824272084 -0.18537480083446597
vn 0.9319687554746152 -0.3115614228752382 0.18537453599416984
vn 0.790083013320868 -0.31155508903068513 0.5279225876593073
vn 0.5279215234084865 -0.31156093141499464 0.7900814205750468
vn 0.18537480083446597 -0.3115572824272084 0.9319700869567408
vn -0.18537453599416986 -0.31156142287523825 0.9319687554746154
vn -0.5279225876593073 -0.31155508903068513 0.790083013320868
vn -0.7900814205750468 -0.31156093141499464 0.5279215234084865
vn -0.9319700869567408 -0.3115572824272084 0.18537480083446597
vn -0.9028129905659726 -0.39073238127054993 -0.17960208877396358
vn -0.7653888995752985 -0.3907335433809891 -0.5113776789065497
vn -0.5113776789065497 -0.3907335433809891 -0.7653888995752985
vn -0.17960208877396358 -0.39073238127054993 -0.9028129905659726
vn 0.17960208877396358 -0.39073238127054993 -0.9028129905659726
vn 0.5113776789065497 -0.3907335433809891 -0.7653888995752985
vn 0.7653888995752985 -0.3907335433809891 -0.5113776789065497
vn 0.9028129905659726 -0.39073238127054993 -0.17960208877396358
vn 0.9028129905659726 -0.39073238127054993 0.17960208877396358
vn 0.7653888995752985 -0.3907335433809891 0.5113776789065497
vn 0.5113776789065497 -0.3907335433809891 0.7653888995752985
vn 0.17960208877396358 -0.39073238127054993 0.9028129905659726
vn -0.17960208877396358 -0.39073238127054993 0.9028129905659726
vn -0.5113776789065497 -0.3907335433809891 0.7653888995752985
vn -0.7653888995752985 -0.3907335433809891 0.5113776789065497
vn -0.9028129905659726 -0.39073238127054993 0.17960208877396358
usemtl missile_texture
f 107/133/37 108/134/37 124/135/37 123/136/37
f 46/137/38 47/138/38 63/139/38 62/140/38
f 47/141/39 48/142/39 64/143/39 63/144/39
f 48/145/40 49/146/40 65/147/40 64/148/40
f 49/149/41 50/150/41 66/151/41 65/152/41
f 50/153/42 51/154/42 67/155/42 66/156/42
f 51/157/43 52/158/43 68/159/43 67/160/43
f 52/161/44 53/162/44 69/163/44 68/164/44
f 53/165/45 54/166/45 70/167/45 69/168/45
f 54/169/46 55/170/46 71/171/46 70/172/46
f 55/173/47 56/174/47 72/175/47 71/176/47
f 56/177/48 57/178/48 73/179/48 72/180/48
f 57/181/49 58/182/49 74/183/49 73/184/49
f 58/185/50 59/186/50 75/187/50 74/188/50
f 59/189/51 60/190/51 76/191/51 75/192/51
f 60/193/52 61/194/52 77/195/52 76/196/52
f 61/197/53 46/198/53 62/199/53 77/200/53
f 62/201/54 63/202/54 79/203/54 78/204/54
f 63/205/55 64/206/55 80/207/55 79/208/55
f 64/209/56 65/210/56 81/211/56 80/212/56
f 65/213/57 66/214/57 82/215/57 81/216/57
f 66/217/58 67/218/58 83/219/58 82/220/58
f 67/221/59 68/222/59 84/223/59 83/224/59
f 68/225/60 69/226/60 85/227/60 84/228/60
f 69/229/61 70/230/61 86/231/61 85/232/61
f 70/233/62 71/234/62 87/235/62 86/236/62
f 71/237/63 72/238/63 88/239/63 87/240/63
f 72/241/64 73/242/64 89/243/64 88/244/64
f 73/245/65 74/246/65 90/247/65 89/248/65
f 74/249/66 75/250/66 91/251/66 90/252/66
f 75/253/67 76/254/67 92/255/67 91/256/67
f 76/257/68 77/258/68 93/259/68 92/260/68
f 77/261/69 62/262/69 78/263/69 93/264/69
f 78/265/70 79/266/70 95/267/70 94/268/70
f 79/269/71 80/270/71 96/271/71 95/272/71
f 80/273/72 81/274/72 97/275/72 96/276/72
f 81/277/73 82/278/73 98/279/73 97/280/73
f 82/281/74 83/282/74 99/283/74 98/284/74
f 83/285/75 84/286/75 100/287/75 99/288/75
f 84/289/76 85/290/76 101/291/76 100/292/76
f 85/293/77 86/294/77 102/295/77 101/296/77
f 86/297/78 87/298/78 103/299/78 102/300/78
f 87/301/79 88/302/79 104/303/79 103/304/79
f 88/305/80 89/306/80 105/307/80 104/308/80
f 89/309/81 90/310/81 106/311/81 105/312/81
f 90/313/82 91/314/82 107/315/82 106/316/82
f 91/317/83 92/318/83 108/319/83 107/320/83
f 92/321/84 93/322/84 109/323/84 108/324/84
f 93/325/85 78/326/85 94/327/85 109/328/85
f 94/329/86 95/330/86 111/331/86 110/332/86
f 95/333/87 96/334/87 112/335/87 111/336/87
f 96/337/88 97/338/88 113/339/88 112/340/88
f 97/341/89 98/342/89 114/343/89 113/344/89
f 98/345/90 99/346/90 115/347/90 114/348/90
f 99/349/91 100/350/91 116/351/91 115/352/91
f 100/353/92 101/354/92 117/355/92 116/356/92
f 101/357/93 102/358/93 118/359/93 117/360/93
f 102/361/94 103/362/94 119/363/94 118/364/94
f 103/365/95 104/366/95 120/367/95 119/368/95
f 104/369/96 105/370/96 121/371/96 120/372/96
f 105/373/97 106/374/97 122/375/97 121/376/97
f 106/377/98 107/378/98 123/379/98 122/380/98
f 108/381/99 109/382/99 125/383/99 124/384/99
f 109/385/100 94/386/100 110/387/100 125/388/100
f 110/389/101 111/390/101 127/391/101 126/392/101
f 111/393/102 112/394/102 128/395/102 127/396/102
f 112/397/103 113/398/103 129/399/103 128/400/103
f 113/401/104 114/402/104 130/403/104 129/404/104
f 114/405/105 115/406/105 131/407/105 130/408/105
f 115/409/106 116/410/106 132/411/106 131/412/106
f 116/413/107 117/414/107 133/415/107 132/416/107
f 117/417/108 118/418/108 134/419/108 133/420/108
f 118/421/109 119/422/109 135/423/109 134/424/109
f 119/425/110 120/426/110 136/427/110 135/428/110
f 120/429/111 121/430/111 137/431/111 136/432/111
f 121/433/112 122/434/112 138/435/112 137/436/112
f 122/437/113 123/438/113 139/439/113 138/440/113
f 123/441/114 124/442/114 140/443/114 139/444/114
f 124/445/115 125/446/115 141/447/115 140/448/115
f 125/449/116 110/450/116 126/451/116 141/452/116
f 126/453/117 127/454/117 143/455/117 142/456/117
f 127/457/118 128/458/118 144/459/118 143/460/118
f 128/461/119 129/462/119 145/463/119 144/464/119
f 129/465/120 130/466/120 146/467/120 145/468/120
f 130/469/121 131/470/121 147/471/121 146/472/121
f 131/473/122 132/474/122 148/475/122 147/476/122
f 132/477/123 133/478/123 149/479/123 148/480/123
f 133/481/124 134/482/124 150/483/124 149/484/124
f 134/485/125 135/486/125 151/487/125 150/488/125
f 135/489/126 136/490/126 152/491/126 151/492/126
f 136/493/127 137/494/127 153/495/127 152/496/127
f 137/497/128 138/498/128 154/499/128 153/500/128
f 138/501/129 139/502/129 155/503/129 154/504/129
f 139/505/130 140/506/130 156/507/130 155/508/130
f 140/509/131 141/510/131 157/511/131 156/512/131
f 141/513/132 126/514/132 142/515/132 157/516/132
f 142/517/133 143/518/133 158/519/133
f 143/520/134 144/521/134 158/522/134
f 144/523/135 145/524/135 158/525/135
f 145/526/136 146/527/136 158/528/136
f 146/529/137 147/530/137 158/531/137
f 147/532/138 148/533/138 158/534/138
f 148/535/139 149/536/139 158/537/139
f 149/538/140 150/539/140 158/540/140
f 150/541/141 151/542/141 158/543/141
f 151/544/142 152/545/142 158/546/142
f 152/547/143 153/548/143 158/549/143
f 153/550/144 154/551/144 158/552/144
f 154/553/145 155/554/145 158/555/145
f 155/556/146 156/557/146 158/558/146
f 156/559/147 157/560/147 158/561/147
f 157/562/148 142/563/148 158/564/148
o Body
v 0.2870125 10.625 0.6929125
v 0.75 0 0
v 0.6929125 0 0.2870125
v 0.53033125 0 0.53033125
v 0.2870125 0 0.6929125
v 0 0 0.75
v -0.2870125 0 0.6929125
v -0.53033125 0 0.53033125
v -0.6929125 0 0.2870125
v -0.75 0 0
v -0.6929125 0 -0.2870125
v -0.53033125 0 -0.53033125
v -0.2870125 0 -0.6929125
v 0 0 -0.75
v 0.2870125 0 -0.6929125
v 0.53033125 0 -0.53033125
v 0.6929125 0 -0.2870125
v 0.75 10.625 0
v 0.6929125 10.625 0.2870125
v 0.53033125 10.625 0.53033125
v 0 10.625 0.75
v -0.2870125 10.625 0.6929125
v -0.53033125 10.625 0.53033125
v -0.6929125 10.625 0.2870125
v -0.75 10.625 0
v -0.6929125 10.625 -0.2870125
v -0.53033125 10.625 -0.53033125
v -0.2870125 10.625 -0.6929125
v 0 10.625 -0.75
v 0.2870125 10.625 -0.6929125
v 0.53033125 10.625 -0.53033125
v 0.6929125 10.625 -0.2870125
vt 0.036579687500000006 0.3359375
vt 0.054869531250000006 0.3359375
vt 0.054869531250000006 1
vt 0.036579687500000006 1
vt 0.054869531250000006 0.3359375
vt 0.07315937499999998 0.3359375
vt 0.07315937499999998 1
vt 0.054869531250000006 1
vt 0.1458421875 0.3359375
vt 0.16413203125 0.3359375
vt 0.16413203125 1
vt 0.1458421875 1
vt 0.16413203125 0.3359375
vt 0.182421875 0.3359375
vt 0.182421875 1
vt 0.16413203125 1
vt 0.182421875 0.3359375
vt 0.20071171875000002 0.3359375
vt 0.20071171875000002 1
vt 0.182421875 1
vt 0.20071171875000002 0.3359375
vt 0.21900156250000002 0.3359375
vt 0.21900156250000002 1
vt 0.20071171875000002 1
vt 0.073046875 0.3359375
vt 0.09133671875 0.3359375
vt 0.09133671875 1
vt 0.073046875 1
vt 0.09133671875 0.3359375
vt 0.1096265625 0.3359375
vt 0.1096265625 1
vt 0.09133671875 1
vt 0.1096265625 0.3359375
vt 0.12791640625 0.3359375
vt 0.12791640625 1
vt 0.1096265625 1
vt 0.12791640625 0.3359375
vt 0.14620625 0.3359375
vt 0.14620625 1
vt 0.12791640625 1
vt 0.21888906249999998 0.3359375
vt 0.23717890625000002 0.3359375
vt 0.23717890625000002 1
vt 0.21888906249999998 1
vt 0.23717890625000002 0.3359375
vt 0.2554687500000001 0.3359375
vt 0.2554687500000001 1
vt 0.23717890625000002 1
vt 0.2554687500000001 0.3359375
vt 0.27375859375000006 0.3359375
vt 0.27375859375000006 1
vt 0.2554687500000001 1
vt 0.27375859375000006 0.3359375
vt 0.2920484375000001 0.3359375
vt 0.2920484375000001 1
vt 0.27375859375000006 1
vt 0 0.3359375
vt 0.018289843750000003 0.3359375
vt 0.018289843750000003 1
vt 0 1
vt 0.018289843750000003 0.3359375
vt 0.036579687500000006 0.3359375
vt 0.036579687500000006 1
vt 0.018289843750000003 1
vn -0.9807871345980055 0 -0.19508100011798649
vn -0.8314682562639825 0 -0.5555722624693682
vn -0.5555722624693682 0 -0.8314682562639825
vn -0.19508100011798649 0 -0.9807871345980055
vn 0.19508100011798649 0 -0.9807871345980055
vn 0.5555722624693682 0 -0.8314682562639825
vn 0.8314682562639825 0 -0.5555722624693682
vn 0.9807871345980055 0 -0.19508100011798649
vn 0.9807871345980055 0 0.19508100011798649
vn 0.8314682562639825 0 0.5555722624693682
vn 0.5555722624693682 0 0.8314682562639825
vn 0.19508100011798649 0 0.9807871345980055
vn -0.19508100011798649 0 0.9807871345980055
vn -0.5555722624693682 0 0.8314682562639825
vn -0.8314682562639825 0 0.5555722624693682
vn -0.9807871345980055 0 0.19508100011798649
usemtl missile_texture
f 160/565/149 161/566/149 177/567/149 176/568/149
f 161/569/150 162/570/150 178/571/150 177/572/150
f 162/573/151 163/574/151 159/575/151 178/576/151
f 163/577/152 164/578/152 179/579/152 159/580/152
f 164/581/153 165/582/153 180/583/153 179/584/153
f 165/585/154 166/586/154 181/587/154 180/588/154
f 166/589/155 167/590/155 182/591/155 181/592/155
f 167/593/156 168/594/156 183/595/156 182/596/156
f 168/597/157 169/598/157 184/599/157 183/600/157
f 169/601/158 170/602/158 185/603/158 184/604/158
f 170/605/159 171/606/159 186/607/159 185/608/159
f 171/609/160 172/610/160 187/611/160 186/612/160
f 172/613/161 173/614/161 188/615/161 187/616/161
f 173/617/162 174/618/162 189/619/162 188/620/162
f 174/621/163 175/622/163 190/623/163 189/624/163
f 175/625/164 160/626/164 176/627/164 190/628/164