# Made in Blockbench 5.1.3
mtllib missile_cluster.mtl

o OTR21_type_thing,_by_glowker
v -0.089533 1.026113 -0.450112
v -0.089533 4.944626 -0.450112
v 0.089533 4.944626 -0.450112
v 0.089533 1.026113 -0.450112
v 0.254968 4.944626 -0.381586
v 0.254968 1.026113 -0.381586
v 0.381586 4.944626 -0.254968
v 0.381586 1.026113 -0.254968
v 0.450112 4.944626 -0.089533
v 0.450112 1.026113 -0.089533
v 0.450112 4.944626 0.089533
v 0.450112 1.026113 0.089533
v 0.381586 4.944626 0.254968
v 0.381586 1.026113 0.254968
v 0.254968 4.944626 0.381586
v 0.254968 1.026113 0.381586
v 0.089533 4.944626 0.450112
v 0.089533 1.026113 0.450112
v -0.089533 4.944626 0.450112
v -0.089533 1.026113 0.450112
v -0.254968 4.944626 0.381586
v -0.254968 1.026113 0.381586
v -0.381586 4.944626 0.254968
v -0.381586 1.026113 0.254968
v -0.450112 4.944626 0.089533
v -0.450112 1.026113 0.089533
v -0.450112 4.944626 -0.089533
v -0.450112 1.026113 -0.089533
v -0.381586 4.944626 -0.254968
v -0.381586 1.026113 -0.254968
v 0.065788 6.080799 0.330738
v -0.065788 6.080799 0.330738
v -0.254968 4.944626 -0.381586
v -0.254968 1.026113 -0.381586
v 0.370466 0.990804 -0.073690
v 0.370466 0.990804 0.073690
v 0.412873 0.682214 0.082126
v 0.412873 0.682214 -0.082126
v -0.065788 6.080799 -0.330738
v -0.187348 6.080799 -0.280386
v -0.000000 7.682214 0.000000
v -0.330738 6.080799 -0.065788
v -0.280386 6.080799 -0.187348
v 0.065788 6.080799 -0.330738
v 0.187347 6.080799 -0.280386
v 0.280386 6.080799 0.187348
v 0.187347 6.080799 0.280386
v -0.280386 6.080799 0.187348
v -0.330738 6.080799 0.065788
v 0.330738 6.080799 -0.065788
v 0.330738 6.080799 0.065788
v -0.187348 6.080799 0.280386
v 0.280386 6.080799 -0.187348
v 0.073690 0.990804 -0.370466
v -0.073690 0.990804 -0.370466
v 0.209852 0.990804 -0.314066
v 0.314066 0.990804 -0.209852
v 0.314066 0.990804 0.209852
v 0.209852 0.990804 0.314066
v 0.073690 0.990804 0.370466
v -0.073690 0.990804 0.370466
v -0.209852 0.990804 0.314066
v -0.314066 0.990804 0.209852
v -0.370466 0.990804 0.073690
v -0.370466 0.990804 -0.073690
v -0.314066 0.990804 -0.209852
v -0.209852 0.990804 -0.314066
v -0.082126 0.682214 -0.412874
v 0.082126 0.682214 -0.412873
v 0.233874 0.682214 -0.350017
v 0.350017 0.682214 -0.233874
v -0.412874 0.682214 -0.082126
v -0.412874 0.682214 0.082126
v 0.350017 0.682214 0.233874
v -0.350017 0.682214 -0.233874
v 0.233874 0.682214 0.350017
v -0.233874 0.682214 -0.350017
v 0.082126 0.682214 0.412874
v -0.082126 0.682214 0.412874
v -0.233874 0.682214 0.350017
v -0.350017 0.682214 0.233874
v 0.000000 2.780892 0.421010
v -0.041034 3.396319 0.421010
v -0.041034 3.396319 0.775411
v 0.000000 2.780892 0.775411
v 0.000000 3.442586 0.775411
v 0.041034 3.396319 0.775411
v 0.041034 3.396319 0.421010
v 0.000000 3.442586 0.421010
v -0.041034 3.836898 0.421010
v 0.000000 3.883166 0.421010
v 0.041034 3.836898 0.421010
v 0.000000 2.780892 -0.421010
v -0.041034 3.396319 -0.421010
v -0.041034 3.396319 -0.775411
v 0.000000 2.780892 -0.775411
v 0.000000 3.442586 -0.775411
v 0.041034 3.396319 -0.775411
v 0.041034 3.396319 -0.421010
v 0.000000 3.442586 -0.421010
v -0.041034 3.836898 -0.421010
v 0.000000 3.883166 -0.421010
v 0.041034 3.836898 -0.421010
v -0.421010 2.780892 0.000000
v -0.421010 3.396319 0.041034
v -0.775411 3.396319 0.041034
v -0.775411 2.780892 0.000000
v -0.775411 3.442586 0.000000
v -0.775411 3.396319 -0.041034
v -0.421010 3.396319 -0.041034
v -0.421010 3.442586 0.000000
v -0.421010 3.836898 0.041034
v -0.421010 3.883166 0.000000
v -0.421010 3.836898 -0.041034
v 0.421010 2.780892 0.000000
v 0.421010 3.396319 0.041034
v 0.775411 3.396319 0.041034
v 0.775411 2.780892 0.000000
v 0.775411 3.442586 0.000000
v 0.775411 3.396319 -0.041034
v 0.421010 3.396319 -0.041034
v 0.421010 3.442586 0.000000
v 0.421010 3.836898 0.041034
v 0.421010 3.883166 0.000000
v 0.421010 3.836898 -0.041034
v 0.462158 1.213981 -0.176137
v 0.462158 1.213981 0.176137
v 0.509598 1.194330 0.176137
v 0.509598 1.194330 -0.176137
v 0.529248 1.146891 0.176137
v 0.529248 1.146891 -0.176137
v 0.509598 1.099452 0.176137
v 0.509598 1.099452 -0.176137
v 0.462158 1.079802 0.176137
v 0.462158 1.079802 -0.176137
v 0.414719 1.099452 0.176137
v 0.414719 1.099452 -0.176137
v 0.395069 1.146891 0.176137
v 0.395069 1.146891 -0.176137
v 0.414719 1.194330 0.176137
v 0.414719 1.194330 -0.176137
v 0.480391 1.087146 -0.170732
v 0.480391 1.206636 -0.170732
v 0.951038 1.206636 -0.170732
v 0.951038 1.087146 -0.170732
v 0.951038 1.206636 0.170732
v 0.951038 1.087146 0.170732
v 0.480391 1.206636 0.170732
v 0.480391 1.087146 0.170732
v 0.537225 1.087146 -0.145786
v 0.537225 1.206636 -0.145786
v 0.537225 1.206636 0.145786
v 0.537225 1.087146 0.145786
v 0.918424 1.087146 -0.145786
v 0.918424 1.206636 -0.145786
v 0.918424 1.087146 0.145786
v 0.918424 1.206636 0.145786
v 0.526614 1.095589 0.000000
v 0.929034 1.095589 0.000000
v 0.929034 1.198194 0.000000
v 0.526614 1.198194 0.000000
v 0.526614 1.095589 -0.057911
v 0.929034 1.095589 -0.057911
v 0.929034 1.198194 -0.057911
v 0.526614 1.198194 -0.057911
v 0.526614 1.095589 -0.115823
v 0.929034 1.095589 -0.115823
v 0.929034 1.198194 -0.115823
v 0.526614 1.198194 -0.115823
v 0.526614 1.095589 0.057911
v 0.929034 1.095589 0.057911
v 0.929034 1.198194 0.057911
v 0.526614 1.198194 0.057911
v 0.526614 1.095589 0.115823
v 0.929034 1.095589 0.115823
v 0.929034 1.198194 0.115823
v 0.526614 1.198194 0.115823
v 0.727824 1.095589 0.168465
v 0.727824 1.095589 -0.168465
v 0.727824 1.198194 -0.168465
v 0.727824 1.198194 0.168465
v 0.785735 1.095589 0.168465
v 0.785735 1.095589 -0.168465
v 0.785735 1.198194 -0.168465
v 0.785735 1.198194 0.168465
v 0.669913 1.095589 0.168465
v 0.669913 1.095589 -0.168465
v 0.669913 1.198194 -0.168465
v 0.669913 1.198194 0.168465
v 0.612001 1.095589 0.168465
v 0.612001 1.095589 -0.168465
v 0.612001 1.198194 -0.168465
v 0.612001 1.198194 0.168465
v 0.554090 1.095589 0.168465
v 0.554090 1.095589 -0.168465
v 0.554090 1.198194 -0.168465
v 0.554090 1.198194 0.168465
v 0.843647 1.095589 0.168465
v 0.843647 1.095589 -0.168465
v 0.843647 1.198194 -0.168465
v 0.843647 1.198194 0.168465
v 0.901558 1.095589 0.168465
v 0.901558 1.095589 -0.168465
v 0.901558 1.198194 -0.168465
v 0.901558 1.198194 0.168465
v -0.462160 1.213981 -0.176137
v -0.462160 1.213981 0.176137
v -0.509599 1.194330 0.176137
v -0.509599 1.194330 -0.176137
v -0.529249 1.146891 0.176137
v -0.529249 1.146891 -0.176137
v -0.509599 1.099452 0.176137
v -0.509599 1.099452 -0.176137
v -0.462160 1.079802 0.176137
v -0.462160 1.079802 -0.176137
v -0.414720 1.099452 0.176137
v -0.414720 1.099452 -0.176137
v -0.395070 1.146891 0.176137
v -0.395070 1.146891 -0.176137
v -0.414720 1.194330 0.176137
v -0.414720 1.194330 -0.176137
v -0.480392 1.087146 -0.170732
v -0.480392 1.206636 -0.170732
v -0.951039 1.206636 -0.170732
v -0.951039 1.087146 -0.170732
v -0.951039 1.206636 0.170732
v -0.951039 1.087146 0.170732
v -0.480392 1.206636 0.170732
v -0.480392 1.087146 0.170732
v -0.537225 1.087146 -0.145786
v -0.537225 1.206636 -0.145786
v -0.537225 1.206636 0.145786
v -0.537225 1.087146 0.145786
v -0.918425 1.087146 -0.145786
v -0.918425 1.206636 -0.145786
v -0.918425 1.087146 0.145786
v -0.918425 1.206636 0.145786
v -0.526615 1.095589 0.000000
v -0.929035 1.095589 0.000000
v -0.929035 1.198194 0.000000
v -0.526615 1.198194 0.000000
v -0.526615 1.095589 -0.057911
v -0.929035 1.095589 -0.057911
v -0.929035 1.198194 -0.057911
v -0.526615 1.198194 -0.057911
v -0.526615 1.095589 -0.115823
v -0.929035 1.095589 -0.115823
v -0.929035 1.198194 -0.115823
v -0.526615 1.198194 -0.115823
v -0.526615 1.095589 0.057911
v -0.929035 1.095589 0.057911
v -0.929035 1.198194 0.057911
v -0.526615 1.198194 0.057911
v -0.526615 1.095589 0.115823
v -0.929035 1.095589 0.115823
v -0.929035 1.198194 0.115823
v -0.526615 1.198194 0.115823
v -0.727825 1.095589 0.168465
v -0.727825 1.095589 -0.168465
v -0.727825 1.198194 -0.168465
v -0.727825 1.198194 0.168465
v -0.785737 1.095589 0.168465
v -0.785737 1.095589 -0.168465
v -0.785737 1.198194 -0.168465
v -0.785737 1.198194 0.168465
v -0.669914 1.095589 0.168465
v -0.669914 1.095589 -0.168465
v -0.669914 1.198194 -0.168465
v -0.669914 1.198194 0.168465
v -0.612003 1.095589 0.168465
v -0.612003 1.095589 -0.168465
v -0.612003 1.198194 -0.168465
v -0.612003 1.198194 0.168465
v -0.554091 1.095589 0.168465
v -0.554091 1.095589 -0.168465
v -0.554091 1.198194 -0.168465
v -0.554091 1.198194 0.168465
v -0.843648 1.095589 0.168465
v -0.843648 1.095589 -0.168465
v -0.843648 1.198194 -0.168465
v -0.843648 1.198194 0.168465
v -0.901559 1.095589 0.168465
v -0.901559 1.095589 -0.168465
v -0.901559 1.198194 -0.168465
v -0.901559 1.198194 0.168465
v -0.176137 1.213981 0.462159
v 0.176136 1.213981 0.462159
v 0.176136 1.194330 0.509599
v -0.176137 1.194330 0.509599
v 0.176136 1.146891 0.529249
v -0.176137 1.146891 0.529249
v 0.176136 1.099452 0.509599
v -0.176137 1.099452 0.509599
v 0.176136 1.079802 0.462159
v -0.176137 1.079802 0.462159
v 0.176136 1.099452 0.414719
v -0.176137 1.099452 0.414719
v 0.176136 1.146891 0.395069
v -0.176137 1.146891 0.395069
v 0.176136 1.194330 0.414719
v -0.176137 1.194330 0.414719
v -0.170732 1.087146 0.480392
v -0.170732 1.206636 0.480392
v -0.170732 1.206636 0.951039
v -0.170732 1.087146 0.951039
v 0.170732 1.206636 0.951039
v 0.170732 1.087146 0.951039
v 0.170731 1.206636 0.480392
v 0.170731 1.087146 0.480392
v -0.145786 1.087146 0.537225
v -0.145786 1.206636 0.537225
v 0.145785 1.206636 0.537225
v 0.145785 1.087146 0.537225
v -0.145786 1.087146 0.918424
v -0.145786 1.206636 0.918424
v 0.145785 1.087146 0.918424
v 0.145785 1.206636 0.918424
v -0.000000 1.095589 0.526615
v -0.000000 1.095589 0.929035
v -0.000000 1.198194 0.929035
v -0.000000 1.198194 0.526615
v -0.057912 1.095589 0.526615
v -0.057912 1.095589 0.929035
v -0.057912 1.198194 0.929035
v -0.057912 1.198194 0.526615
v -0.115823 1.095589 0.526615
v -0.115823 1.095589 0.929035
v -0.115823 1.198194 0.929035
v -0.115823 1.198194 0.526615
v 0.057911 1.095589 0.526615
v 0.057911 1.095589 0.929035
v 0.057911 1.198194 0.929035
v 0.057911 1.198194 0.526615
v 0.115822 1.095589 0.526615
v 0.115822 1.095589 0.929035
v 0.115822 1.198194 0.929035
v 0.115822 1.198194 0.526615
v 0.168465 1.095589 0.727825
v -0.168466 1.095589 0.727825
v -0.168466 1.198194 0.727825
v 0.168465 1.198194 0.727825
v 0.168465 1.095589 0.785736
v -0.168466 1.095589 0.785736
v -0.168466 1.198194 0.785736
v 0.168465 1.198194 0.785736
v 0.168465 1.095589 0.669913
v -0.168466 1.095589 0.669913
v -0.168466 1.198194 0.669913
v 0.168465 1.198194 0.669913
v 0.168465 1.095589 0.612002
v -0.168466 1.095589 0.612002
v -0.168466 1.198194 0.612002
v 0.168465 1.198194 0.612002
v 0.168465 1.095589 0.554091
v -0.168466 1.095589 0.554091
v -0.168466 1.198194 0.554091
v 0.168465 1.198194 0.554091
v 0.168465 1.095589 0.843648
v -0.168466 1.095589 0.843648
v -0.168466 1.198194 0.843648
v 0.168465 1.198194 0.843648
v 0.168465 1.095589 0.901559
v -0.168466 1.095589 0.901559
v -0.168466 1.198194 0.901559
v 0.168465 1.198194 0.901559
v -0.176137 1.213981 -0.462159
v 0.176136 1.213981 -0.462159
v 0.176136 1.194330 -0.509599
v -0.176137 1.194330 -0.509599
v 0.176136 1.146891 -0.529249
v -0.176137 1.146891 -0.529249
v 0.176136 1.099452 -0.509599
v -0.176137 1.099452 -0.509599
v 0.176136 1.079802 -0.462159
v -0.176137 1.079802 -0.462159
v 0.176136 1.099452 -0.414719
v -0.176137 1.099452 -0.414719
v 0.176136 1.146891 -0.395069
v -0.176137 1.146891 -0.395069
v 0.176136 1.194330 -0.414719
v -0.176137 1.194330 -0.414719
v -0.170732 1.087146 -0.480392
v -0.170732 1.206636 -0.480392
v -0.170732 1.206636 -0.951039
v -0.170732 1.087146 -0.951039
v 0.170731 1.206636 -0.951039
v 0.170731 1.087146 -0.951039
v 0.170731 1.206636 -0.480392
v 0.170731 1.087146 -0.480392
v -0.145786 1.087146 -0.537225
v -0.145786 1.206636 -0.537225
v 0.145785 1.206636 -0.537225
v 0.145785 1.087146 -0.537225
v -0.145786 1.087146 -0.918424
v -0.145786 1.206636 -0.918424
v 0.145785 1.087146 -0.918424
v 0.145785 1.206636 -0.918424
v -0.000000 1.095589 -0.526615
v -0.000000 1.095589 -0.929035
v -0.000000 1.198194 -0.929035
v -0.000000 1.198194 -0.526615
v -0.057912 1.095589 -0.526615
v -0.057912 1.095589 -0.929035
v -0.057912 1.198194 -0.929035
v -0.057912 1.198194 -0.526615
v -0.115823 1.095589 -0.526615
v -0.115823 1.095589 -0.929035
v -0.115823 1.198194 -0.929035
v -0.115823 1.198194 -0.526615
v 0.057911 1.095589 -0.526615
v 0.057911 1.095589 -0.929035
v 0.057911 1.198194 -0.929035
v 0.057911 1.198194 -0.526615
v 0.115822 1.095589 -0.526615
v 0.115822 1.095589 -0.929035
v 0.115822 1.198194 -0.929035
v 0.115822 1.198194 -0.526615
v 0.168465 1.095589 -0.727825
v -0.168466 1.095589 -0.727825
v -0.168466 1.198194 -0.727825
v 0.168465 1.198194 -0.727825
v 0.168465 1.095589 -0.785736
v -0.168466 1.095589 -0.785736
v -0.168466 1.198194 -0.785736
v 0.168465 1.198194 -0.785736
v 0.168465 1.095589 -0.669913
v -0.168466 1.095589 -0.669913
v -0.168466 1.198194 -0.669913
v 0.168465 1.198194 -0.669913
v 0.168465 1.095589 -0.612002
v -0.168466 1.095589 -0.612002
v -0.168466 1.198194 -0.612002
v 0.168465 1.198194 -0.612002
v 0.168465 1.095589 -0.554091
v -0.168466 1.095589 -0.554091
v -0.168466 1.198194 -0.554091
v 0.168465 1.198194 -0.554091
v 0.168465 1.095589 -0.843648
v -0.168466 1.095589 -0.843648
v -0.168466 1.198194 -0.843648
v 0.168465 1.198194 -0.843648
v 0.168465 1.095589 -0.901559
v -0.168466 1.095589 -0.901559
v -0.168466 1.198194 -0.901559
v 0.168465 1.198194 -0.901559
vt 0.0297080078125 0.4579955078125
vt 0.0297080078125 0.7751705078125
vt 0.0152138671875 0.7751705078125
vt 0.0152138671875 0.4579955078125
vt 0.0152138671875 0.4579955078125
vt 0.0152138671875 0.7751705078125
vt 0.0007197265624999984 0.7751705078125
vt 0.0007197265624999984 0.4579955078125
vt 0.194181640625 0.4579955078125
vt 0.194181640625 0.7751705078125
vt 0.1796875 0.7751705078125
vt 0.1796875 0.4579955078125
vt 0.0891240234375 0.4579955078125
vt 0.0891240234375 0.7751705078125
vt 0.07462988281249999 0.7751705078125
vt 0.07462988281249999 0.4579955078125
vt 0.07462988281249999 0.4579955078125
vt 0.07462988281249999 0.7751705078125
vt 0.0601357421875 0.7751705078125
vt 0.0601357421875 0.4579955078125
vt 0.0601357421875 0.4579955078125
vt 0.0601357421875 0.7751705078125
vt 0.045641601562499995 0.7751705078125
vt 0.045641601562499995 0.4579955078125
vt 0.2109375 0.4579955078125
vt 0.2109375 0.7751705078125
vt 0.196443359375 0.7751705078125
vt 0.196443359375 0.4579955078125
vt 0.1340458984375 0.4579955078125
vt 0.1340458984375 0.7751705078125
vt 0.11955175781249999 0.7751705078125
vt 0.11955175781249999 0.4579955078125
vt 0.11955175781249999 0.4579955078125
vt 0.11955175781249999 0.7751705078125
vt 0.10505761718750001 0.7751705078125
vt 0.10505761718750001 0.4579955078125
vt 0.10505761718750001 0.4579955078125
vt 0.10505761718750001 0.7751705078125
vt 0.0905634765625 0.7751705078125
vt 0.0905634765625 0.4579955078125
vt 0.225431640625 0.4579955078125
vt 0.225431640625 0.7751705078125
vt 0.2109375 0.7751705078125
vt 0.2109375 0.4579955078125
vt 0.1789677734375 0.4579955078125
vt 0.1789677734375 0.7751705078125
vt 0.1644736328125 0.7751705078125
vt 0.1644736328125 0.4579955078125
vt 0.1644736328125 0.4579955078125
vt 0.1644736328125 0.7751705078125
vt 0.1499794921875 0.7751705078125
vt 0.1499794921875 0.4579955078125
vt 0.1499794921875 0.4579955078125
vt 0.1499794921875 0.7751705078125
vt 0.1354853515625 0.7751705078125
vt 0.1354853515625 0.4579955078125
vt 0.10505761718750001 0.7751705078125
vt 0.11955175781249999 0.7751705078125
vt 0.1176296875 0.8676416015624999
vt 0.1069796875 0.8676416015624999
vt 0.2421875 0.4579955078125
vt 0.2421875 0.7751705078125
vt 0.227693359375 0.7751705078125
vt 0.227693359375 0.4579955078125
vt 0.044202148437500005 0.4579955078125
vt 0.044202148437500005 0.7751705078125
vt 0.0297080078125 0.7751705078125
vt 0.0297080078125 0.4579955078125
vt 0.32725371365572287 0.669276207959064
vt 0.31532441678072287 0.669276207959064
vt 0.3146416042807229 0.6440635126465639
vt 0.3279365261557229 0.6440635126465639
vt 0.031630078125 0.8676416015624999
vt 0.042280078124999995 0.8676416015624999
vt 0.036955078125 1
vt 0.1354853515625 0.7751705078125
vt 0.1499794921875 0.7751705078125
vt 0.148057421875 0.8676416015624999
vt 0.137407421875 0.8676416015624999
vt 0.0007197265624999984 0.7751705078125
vt 0.0152138671875 0.7751705078125
vt 0.013291796875 0.8676416015624999
vt 0.002641796874999998 0.8676416015624999
vt 0.196443359375 0.7751705078125
vt 0.2109375 0.7751705078125
vt 0.2090154296875 0.8676416015624999
vt 0.1983654296875 0.8676416015624999
vt 0.1644736328125 0.7751705078125
vt 0.1789677734375 0.7751705078125
vt 0.177045703125 0.8676416015624999
vt 0.16639570312500002 0.8676416015624999
vt 0.0601357421875 0.7751705078125
vt 0.07462988281249999 0.7751705078125
vt 0.0727078125 0.8676416015624999
vt 0.062057812500000004 0.8676416015624999
vt 0.0905634765625 0.7751705078125
vt 0.10505761718750001 0.7751705078125
vt 0.103135546875 0.8676416015624999
vt 0.09248554687499999 0.8676416015624999
vt 0.227693359375 0.7751705078125
vt 0.2421875 0.7751705078125
vt 0.2402654296875 0.8676416015624999
vt 0.2296154296875 0.8676416015624999
vt 0.1796875 0.7751705078125
vt 0.194181640625 0.7751705078125
vt 0.1922595703125 0.8676416015624999
vt 0.1816095703125 0.8676416015624999
vt 0.1195517578125 0.7751705078125
vt 0.1340458984375 0.7751705078125
vt 0.132123828125 0.8676416015624999
vt 0.121473828125 0.8676416015624999
vt 0.0152138671875 0.7751705078125
vt 0.0297080078125 0.7751705078125
vt 0.0277859375 0.8676416015624999
vt 0.0171359375 0.8676416015624999
vt 0.1499794921875 0.7751705078125
vt 0.1644736328125 0.7751705078125
vt 0.1625515625 0.8676416015624999
vt 0.1519015625 0.8676416015624999
vt 0.045641601562499995 0.7751705078125
vt 0.0601357421875 0.7751705078125
vt 0.058213671875 0.8676416015624999
vt 0.047563671875 0.8676416015624999
vt 0.2109375 0.7751705078125
vt 0.225431640625 0.7751705078125
vt 0.2235095703125 0.8676416015624999
vt 0.2128595703125 0.8676416015624999
vt 0.029708007812500003 0.7751705078125
vt 0.044202148437500005 0.7751705078125
vt 0.042280078124999995 0.8676416015624999
vt 0.031630078125 0.8676416015624999
vt 0.0746298828125 0.7751705078125
vt 0.0891240234375 0.7751705078125
vt 0.087201953125 0.8676416015624999
vt 0.076551953125 0.8676416015624999
vt 0.1069796875 0.8676416015624999
vt 0.1176296875 0.8676416015624999
vt 0.1123046875 1
vt 0.002641796874999998 0.8676416015624999
vt 0.013291796875 0.8676416015624999
vt 0.007966796875 1
vt 0.09248554687499999 0.8676416015624999
vt 0.103135546875 0.8676416015624999
vt 0.097810546875 1
vt 0.1816095703125 0.8676416015624999
vt 0.1922595703125 0.8676416015624999
vt 0.1869345703125 1
vt 0.2128595703125 0.8676416015624999
vt 0.2235095703125 0.8676416015624999
vt 0.2181845703125 1
vt 0.076551953125 0.8676416015624999
vt 0.087201953125 0.8676416015624999
vt 0.081876953125 1
vt 0.16639570312500002 0.8676416015624999
vt 0.177045703125 0.8676416015624999
vt 0.17172070312499998 1
vt 0.062057812500000004 0.8676416015624999
vt 0.0727078125 0.8676416015624999
vt 0.0673828125 1
vt 0.1519015625 0.8676416015624999
vt 0.1625515625 0.8676416015624999
vt 0.1572265625 1
vt 0.047563671875 0.8676416015624999
vt 0.058213671875 0.8676416015624999
vt 0.052888671875 1
vt 0.137407421875 0.8676416015624999
vt 0.148057421875 0.8676416015624999
vt 0.142732421875 1
vt 0.1983654296875 0.8676416015624999
vt 0.2090154296875 0.8676416015624999
vt 0.2036904296875 1
vt 0.2296154296875 0.8676416015624999
vt 0.2402654296875 0.8676416015624999
vt 0.2349404296875 1
vt 0.121473828125 0.8676416015624999
vt 0.132123828125 0.8676416015624999
vt 0.12679882812499998 1
vt 0.0171359375 0.8676416015624999
vt 0.0277859375 0.8676416015624999
vt 0.0224609375 1
vt 0.2733320563842843 0.9925711329609966
vt 0.2852613532592843 0.9925711329609966
vt 0.2865437751342843 0.9996228907734966
vt 0.2720496345092843 0.9996228907734966
vt 0.2621665620496005 0.9883711496045977
vt 0.2733320563842843 0.9925711329609966
vt 0.2720496345092843 0.9996228907734966
vt 0.2584835168470019 0.9945198951796925
vt 0.25319462833540596 0.9805090551406533
vt 0.2621665620496005 0.9883711496045977
vt 0.2584834181033715 0.9945200600295455
vt 0.24758248485522366 0.9849675856497474
vt 0.2475650733586336 0.9699916298523338
vt 0.25319462833540596 0.9805090551406533
vt 0.24758248485522366 0.9849675856497474
vt 0.24074255435936134 0.9721888743192162
vt 0.245998808300677 0.9581656018758699
vt 0.2475650733586336 0.9699916298523338
vt 0.24074273726839343 0.9721888154119622
vt 0.23883971932492837 0.9578201468875608
vt 0.248696452376387 0.9465453247547049
vt 0.245998808300677 0.9581656018758699
vt 0.23883971932492837 0.9578201468875608
vt 0.2421173670353714 0.9437014664271388
vt 0.25531251060952265 0.9366187998145435
vt 0.248696452376387 0.9465453247547049
vt 0.24211719064797038 0.9437013901823793
vt 0.25015572631516636 0.931640625
vt 0.35752711880654997 0.8752937333563989
vt 0.3686926336183356 0.8710938044379908
vt 0.37237571760573246 0.8772427507773612
vt 0.35880957506369426 0.8823456802288014
vt 0.34559782193155 0.8752937333563989
vt 0.35752711880654997 0.8752937333563989
vt 0.35880954068154997 0.8823454911688989
vt 0.34431540005655 0.8823454911688989
vt 0.33443232759686614 0.87109375
vt 0.34559782193155 0.8752937333563989
vt 0.34431540005655 0.8823454911688989
vt 0.33074928239426754 0.8772424955750948
vt 0.3098971623414172 0.9465454809742616
vt 0.30328120090316013 0.9366188915207091
vt 0.30843803373996503 0.9316407669907354
vt 0.3164764518010191 0.9437016105571281
vt 0.31259474976183743 0.9581657712477907
vt 0.3098971623414172 0.9465454809742616
vt 0.3164764518010191 0.9437016105571281
vt 0.31975403067507163 0.957820306997722
vt 0.3110284847038808 0.9699917992242547
vt 0.31259474976183743 0.9581657712477907
vt 0.319753838737586 0.9578203162594817
vt 0.31785082079412097 0.9721889847838832
vt 0.3053988784489283 0.9805091970652648
vt 0.3110284847038808 0.9699917992242547
vt 0.31785082079412097 0.9721889847838832
vt 0.3110108279950768 0.9849676627658303
vt 0.29642686807106994 0.9883712040425885
vt 0.3053988784489284 0.9805091970652648
vt 0.31101097845325504 0.9849677822987344
vt 0.3001099520584668 0.9945201503819588
vt 0.2852613532592843 0.9925711329609966
vt 0.29642686807106994 0.9883712040425885
vt 0.3001099520584668 0.9945201503819588
vt 0.2865438095164286 0.9996230798333992
vt 0.3643630859375 0.7591199629534139
vt 0.3524337890625 0.7591199629534139
vt 0.3517509765625 0.7339070723284139
vt 0.3650458984375 0.7339070723284139
vt 0.31532441678072287 0.669276207959064
vt 0.3034126057836992 0.6699218725028251
vt 0.30136616472145566 0.6447828954839181
vt 0.31464159899512867 0.6440633174772084
vt 0.3524337890625 0.7591199629534139
vt 0.3405219779301204 0.759765625
vt 0.3384755421379759 0.7346266475520806
vt 0.3517509765625 0.7339070723284139
vt 0.3637202475358514 0.8671875
vt 0.3518608426410918 0.8658980662196003
vt 0.3539072625920714 0.8407592833688864
vt 0.36712429149259673 0.842196327106923
vt 0.3559077312580505 0.7265624975138114
vt 0.3440483263632908 0.7252730637334117
vt 0.34609476742553436 0.7001340867145047
vt 0.35931179632605975 0.7015711304525415
vt 0.3518608426410918 0.8658980662196003
vt 0.33994903150871214 0.8652524041730143
vt 0.34063184400871216 0.8400395135480143
vt 0.3539072784332362 0.8407590887716809
vt 0.33213651536626715 0.7246273991896507
vt 0.32020721849126715 0.7246273991896507
vt 0.31952440599126714 0.6994147038771508
vt 0.3328193278662671 0.6994147038771508
vt 0.3440483263632908 0.7252730637334117
vt 0.33213651536626715 0.7246273991896507
vt 0.3328193331518613 0.6994145087077951
vt 0.34609476742553436 0.7001340867145047
vt 0.33994903150871214 0.8652524041730143
vt 0.32801973463371215 0.8652524041730143
vt 0.3273369221337122 0.8400395135480143
vt 0.34063184400871216 0.8400395135480143
vt 0.32020721849126715 0.7246273991896507
vt 0.30829540749424345 0.7252730637334117
vt 0.3062489664319999 0.7001340867145047
vt 0.31952440070567295 0.6994145087077951
vt 0.32801973463371215 0.8652524041730143
vt 0.31610792350133254 0.8658980662196003
vt 0.3140614877091881 0.8407590887716809
vt 0.3273369221337122 0.8400395135480143
vt 0.30829540749424345 0.7252730637334117
vt 0.2964360028697991 0.7265625
vt 0.29303195367394025 0.7015713278205425
vt 0.3062489822732055 0.7001342813117069
vt 0.31610792350133254 0.8658980662196003
vt 0.3042485183362581 0.8671874975138114
vt 0.30084445850740327 0.8421961297389187
vt 0.3140614877091881 0.8407590887716809
vt 0.3391655245173901 0.669921875
vt 0.32725371365572287 0.669276207959064
vt 0.3279365261557229 0.6440635126465639
vt 0.34121196027854434 0.6447830934363167
vt 0.3762748970698796 0.759765625
vt 0.3643630859375 0.7591199629534139
vt 0.3650458984375 0.7339070723284139
vt 0.3783213328620241 0.7346266475520806
vt 0.27117900390625 0.7659759765625
vt 0.27117900390625 0.8159009765625
vt 0.24249287109375 0.8159009765625
vt 0.24249287109375 0.7659759765625
vt 0.07090481850586389 0.9465592737401952
vt 0.07753268149413611 0.9960424237347963
vt 0.07446788280716944 1
vt 0.07090481850586389 0.9964843245782214
vt 0.27117900390625 0.8519134765625
vt 0.27117900390625 0.9018384765625
vt 0.24249287109375 0.9018384765625
vt 0.24249287109375 0.8519134765625
vt 0.015625 0.91077890625
vt 0.0189462890625 0.960593359375
vt 0.015625 0.9643382812500001
vt 0.0123037109375 0.960593359375
vt 0.3818243488680902 0.8203125
vt 0.37890625 0.81640625
vt 0.4246736150460929 0.81640625
vt 0.42759171391418316 0.8203125
vt 0.24249287109375 0.9018384765625
vt 0.27117900390625 0.9018384765625
vt 0.24249287109375 0.9375
vt 0.24249287109375 0.8159009765625
vt 0.27117900390625 0.8159009765625
vt 0.27117900390625 0.8515625
vt 0.015625 0.9643382812500001
vt 0.0189462890625 0.960593359375
vt 0.0189462890625 0.9962548828125
vt 0.015625 1
vt 0.0123037109375 0.960593359375
vt 0.015625 0.9643382812500001
vt 0.015625 1
vt 0.0123037109375 0.9962548828125
vt 0.072265625 0.90625
vt 0.076171875 0.9091681219190676
vt 0.076171875 0.9549355818745598
vt 0.072265625 0.9520172828026883
vt 0.30047587890625 0.8987884765625
vt 0.30047587890625 0.9487134765625
vt 0.27178974609375 0.9487134765625
vt 0.27178974609375 0.8987884765625
vt 0.08652981850586389 0.9465592737401952
vt 0.09315768149413611 0.9960424237347963
vt 0.09009288280716944 1
vt 0.08652981850586389 0.9964843245782214
vt 0.27117900390625 0.6800384765625
vt 0.27117900390625 0.7299634765625
vt 0.24249287109375 0.7299634765625
vt 0.24249287109375 0.6800384765625
vt 0.029296875 0.91077890625
vt 0.032618164062499996 0.960593359375
vt 0.029296875 0.9643382812500001
vt 0.0259755859375 0.960593359375
vt 0.38196700995390703 0.81640625
vt 0.37904891108581684 0.8125
vt 0.42481627613190975 0.8125
vt 0.427734375 0.81640625
vt 0.24249287109375 0.7299634765625
vt 0.27117900390625 0.7299634765625
vt 0.24249287109375 0.765625
vt 0.27178974609375 0.9487134765625
vt 0.30047587890625 0.9487134765625
vt 0.30047587890625 0.984375
vt 0.029296875 0.9643382812500001
vt 0.032618164062499996 0.960593359375
vt 0.032618164062499996 0.9962548828125
vt 0.029296875 1
vt 0.0259755859375 0.960593359375
vt 0.029296875 0.9643382812500001
vt 0.029296875 1
vt 0.0259755859375 0.9962548828125
vt 0.087890625 0.9063925431254402
vt 0.091796875 0.9093106650445077
vt 0.091796875 0.955078125
vt 0.087890625 0.9521598259281284
vt 0.30047587890625 0.7269134765625
vt 0.30047587890625 0.7768384765625
vt 0.27178974609375 0.7768384765625
vt 0.27178974609375 0.7269134765625
vt 0.10215481850586389 0.9465592737401952
vt 0.10878268149413611 0.9960424237347963
vt 0.10571788280716944 1
vt 0.10215481850586389 0.9964843245782214
vt 0.30047587890625 0.8128509765625
vt 0.30047587890625 0.8627759765625
vt 0.27178974609375 0.8627759765625
vt 0.27178974609375 0.8128509765625
vt 0.044921875 0.91077890625
vt 0.048243164062499996 0.960593359375
vt 0.044921875 0.9643382812500001
vt 0.041600585937500004 0.960593359375
vt 0.3740118488680902 0.875
vt 0.37109375 0.87109375
vt 0.4168611150460929 0.87109375
vt 0.41977921391418316 0.875
vt 0.27178974609375 0.8627759765625
vt 0.30047587890625 0.8627759765625
vt 0.27178974609375 0.8984375
vt 0.27178974609375 0.7768384765625
vt 0.30047587890625 0.7768384765625
vt 0.30047587890625 0.8125
vt 0.044921875 0.9643382812500001
vt 0.048243164062499996 0.960593359375
vt 0.048243164062499996 0.9962548828125
vt 0.044921875 1
vt 0.041600585937500004 0.960593359375
vt 0.044921875 0.9643382812500001
vt 0.044921875 1
vt 0.041600585937500004 0.9962548828125
vt 0 0.9513144181254402
vt 0.00390625 0.9542325400445077
vt 0.00390625 1
vt 0 0.9970817009281284
vt 0.32977275390625 0.8675384765625
vt 0.32977275390625 0.9174634765625
vt 0.30108662109375 0.9174634765625
vt 0.30108662109375 0.8675384765625
vt 0.11582669350586389 0.9465592737401952
vt 0.12245455649413611 0.9960424237347963
vt 0.11938975780716944 1
vt 0.11582669350586389 0.9964843245782214
vt 0.30047587890625 0.6409759765625
vt 0.30047587890625 0.6909009765625
vt 0.27178974609375 0.6909009765625
vt 0.27178974609375 0.6409759765625
vt 0.060546875 0.91077890625
vt 0.0638681640625 0.960593359375
vt 0.060546875 0.9643382812500001
vt 0.057225585937500004 0.960593359375
vt 0.38196700995390703 0.82421875
vt 0.37904891108581684 0.8203125
vt 0.42481627613190975 0.8203125
vt 0.427734375 0.82421875
vt 0.27178974609375 0.6909009765625
vt 0.30047587890625 0.6909009765625
vt 0.27178974609375 0.7265625
vt 0.30108662109375 0.9174634765625
vt 0.32977275390625 0.9174634765625
vt 0.32977275390625 0.953125
vt 0.060546875 0.9643382812500001
vt 0.0638681640625 0.960593359375
vt 0.0638681640625 0.9962548828125
vt 0.060546875 1
vt 0.057225585937500004 0.960593359375
vt 0.060546875 0.9643382812500001
vt 0.060546875 1
vt 0.057225585937500004 0.9962548828125
vt 0 0.90234375
vt 0.00390625 0.9052618719190676
vt 0.00390625 0.9510293318745598
vt 0 0.9481110328026883
vt 0.412109375 0.96875
vt 0.3828125 0.96875
vt 0.3828125 0.96484375
vt 0.412109375 0.96484375
vt 0.412109375 0.99609375
vt 0.3828125 0.99609375
vt 0.3828125 0.9921875
vt 0.412109375 0.9921875
vt 0.412109375 1
vt 0.3828125 1
vt 0.3828125 0.99609375
vt 0.412109375 0.99609375
vt 0.412109375 0.984375
vt 0.3828125 0.984375
vt 0.3828125 0.98046875
vt 0.412109375 0.98046875
vt 0.3828125 0.98828125
vt 0.412109375 0.98828125
vt 0.412109375 0.9921875
vt 0.3828125 0.9921875
vt 0.37890625 0.7421875
vt 0.408203125 0.7421875
vt 0.408203125 0.74609375
vt 0.37890625 0.74609375
vt 0.13978267328036326 0.98046875
vt 0.1368438976955889 0.984375
vt 0.13268763881108248 0.984375
vt 0.12974857671963674 0.98046875
vt 0.37890625 0.734375
vt 0.408203125 0.734375
vt 0.408203125 0.73828125
vt 0.37890625 0.73828125
vt 0.3828125 0.984375
vt 0.412109375 0.984375
vt 0.412109375 0.98828125
vt 0.3828125 0.98828125
vt 0.13978267328036328 0.99609375
vt 0.13684361118891755 1
vt 0.13268735230441106 1
vt 0.12974857671963672 0.99609375
vt 0.37890625 0.830078125
vt 0.37890625 0.83984375
vt 0.33984375 0.83984375
vt 0.33984375 0.830078125
vt 0.33203125 0.767578125
vt 0.33203125 0.77734375
vt 0.3046875 0.77734375
vt 0.3046875 0.767578125
vt 0.37890625 0.8203125
vt 0.37890625 0.830078125
vt 0.33984375 0.830078125
vt 0.33984375 0.8203125
vt 0.271484375 0.951171875
vt 0.271484375 0.9609375
vt 0.248046875 0.9609375
vt 0.248046875 0.951171875
vt 0.279296875 0.9609375
vt 0.279296875 0.970703125
vt 0.248046875 0.970703125
vt 0.248046875 0.9609375
vt 0.30586494140625 0.8125662109375
vt 0.30586494140625 0.8361666015625
vt 0.30126474609375 0.8381859375
vt 0.30126474609375 0.810546875
vt 0.30586494140625 0.7849271484375
vt 0.30586494140625 0.8085275390625
vt 0.30126474609375 0.810546875
vt 0.30126474609375 0.7829078125
vt 0.33672021484375003 0.8125662109375
vt 0.30586494140625 0.8125662109375
vt 0.30126474609375 0.810546875
vt 0.33936025390625 0.810546875
vt 0.30586494140625 0.8085275390625
vt 0.33672021484375003 0.8085275390625
vt 0.33936025390625 0.810546875
vt 0.30126474609375 0.810546875
vt 0.33672021484375003 0.8361666015625
vt 0.33672021484375003 0.8125662109375
vt 0.33936025390625 0.810546875
vt 0.33936025390625 0.8381859375
vt 0.33672021484375003 0.8085275390625
vt 0.33672021484375003 0.7849271484375
vt 0.33936025390625 0.7829078125
vt 0.33936025390625 0.810546875
vt 0.30586494140625 0.8361666015625
vt 0.33672021484375003 0.8361666015625
vt 0.33936025390625 0.8381859375
vt 0.30126474609375 0.8381859375
vt 0.33672021484375003 0.7849271484375
vt 0.30586494140625 0.7849271484375
vt 0.30126474609375 0.7829078125
vt 0.33936025390625 0.7829078125
vt 0.28515625 0.970703125
vt 0.28515625 0.98046875
vt 0.25390625 0.98046875
vt 0.25390625 0.970703125
vt 0.291015625 0.98046875
vt 0.291015625 0.990234375
vt 0.267578125 0.990234375
vt 0.267578125 0.98046875
vt 0.341796875 0.65234375
vt 0.375 0.65234375
vt 0.375 0.66015625
vt 0.341796875 0.66015625
vt 0.341796875 0.64453125
vt 0.375 0.64453125
vt 0.375 0.65234375
vt 0.341796875 0.65234375
vt 0.349609375 0.9921875
vt 0.3828125 0.9921875
vt 0.3828125 1
vt 0.349609375 1
vt 0.349609375 0.984375
vt 0.3828125 0.984375
vt 0.3828125 0.9921875
vt 0.349609375 0.9921875
vt 0.349609375 0.9765625
vt 0.3828125 0.9765625
vt 0.3828125 0.984375
vt 0.349609375 0.984375
vt 0.359375 0.8828125
vt 0.38671875 0.8828125
vt 0.38671875 0.890625
vt 0.359375 0.890625
vt 0.359375 0.708984375
vt 0.38671875 0.708984375
vt 0.38671875 0.716796875
vt 0.359375 0.716796875
vt 0.359375 0.701171875
vt 0.38671875 0.701171875
vt 0.38671875 0.708984375
vt 0.359375 0.708984375
vt 0.333984375 0.62890625
vt 0.361328125 0.62890625
vt 0.361328125 0.63671875
vt 0.333984375 0.63671875
vt 0.361328125 0.62890625
vt 0.388671875 0.62890625
vt 0.388671875 0.63671875
vt 0.361328125 0.63671875
vt 0.365234375 0.86328125
vt 0.392578125 0.86328125
vt 0.392578125 0.87109375
vt 0.365234375 0.87109375
vt 0.2890625 0.626953125
vt 0.31640625 0.626953125
vt 0.31640625 0.634765625
vt 0.2890625 0.634765625
vt 0.412109375 0.96484375
vt 0.3828125 0.96484375
vt 0.3828125 0.9609375
vt 0.412109375 0.9609375
vt 0.326171875 0.62109375
vt 0.296875 0.62109375
vt 0.296875 0.6171875
vt 0.326171875 0.6171875
vt 0.408203125 0.7421875
vt 0.37890625 0.7421875
vt 0.37890625 0.73828125
vt 0.408203125 0.73828125
vt 0.412109375 0.98046875
vt 0.3828125 0.98046875
vt 0.3828125 0.9765625
vt 0.412109375 0.9765625
vt 0.3828125 0.97265625
vt 0.412109375 0.97265625
vt 0.412109375 0.9765625
vt 0.3828125 0.9765625
vt 0.326171875 0.6171875
vt 0.35546875 0.6171875
vt 0.35546875 0.62109375
vt 0.326171875 0.62109375
vt 0.1397825830586635 0.96875
vt 0.13684380747388916 0.97265625
vt 0.1326875485893827 0.97265625
vt 0.1297486669413365 0.96875
vt 0.35546875 0.6171875
vt 0.384765625 0.6171875
vt 0.384765625 0.62109375
vt 0.35546875 0.62109375
vt 0.3828125 0.96875
vt 0.412109375 0.96875
vt 0.412109375 0.97265625
vt 0.3828125 0.97265625
vt 0.13978267328036328 0.9921875
vt 0.13684361118891755 0.99609375
vt 0.13268735230441106 0.99609375
vt 0.12974857671963672 0.9921875
vt 0.37890625 0.810546875
vt 0.37890625 0.8203125
vt 0.33984375 0.8203125
vt 0.33984375 0.810546875
vt 0.33203125 0.7578125
vt 0.33203125 0.767578125
vt 0.3046875 0.767578125
vt 0.3046875 0.7578125
vt 0.37890625 0.80078125
vt 0.37890625 0.810546875
vt 0.33984375 0.810546875
vt 0.33984375 0.80078125
vt 0.330078125 0.81640625
vt 0.330078125 0.826171875
vt 0.306640625 0.826171875
vt 0.306640625 0.81640625
vt 0.33203125 0.7421875
vt 0.33203125 0.751953125
vt 0.30078125 0.751953125
vt 0.30078125 0.7421875
vt 0.33476005859375 0.7792306640625
vt 0.33476005859375 0.7556302734375
vt 0.33936025390625 0.7536109375
vt 0.33936025390625 0.78125
vt 0.33476005859375 0.6955416015625
vt 0.33476005859375 0.6719412109375
vt 0.33936025390625 0.669921875
vt 0.33936025390625 0.6975609375
vt 0.30390458984375 0.7792306640625
vt 0.33476005859375 0.7792306640625
vt 0.33936025390625 0.78125
vt 0.30126474609375 0.78125
vt 0.33476005859375 0.6719412109375
vt 0.30390458984375 0.6719412109375
vt 0.30126474609375 0.669921875
vt 0.33936025390625 0.669921875
vt 0.30390458984375 0.7556302734375
vt 0.30390458984375 0.7792306640625
vt 0.30126474609375 0.78125
vt 0.30126474609375 0.7536109375
vt 0.30390458984375 0.6719412109375
vt 0.30390458984375 0.6955416015625
vt 0.30126474609375 0.6975609375
vt 0.30126474609375 0.669921875
vt 0.33476005859375 0.7556302734375
vt 0.30390458984375 0.7556302734375
vt 0.30126474609375 0.7536109375
vt 0.33936025390625 0.7536109375
vt 0.30390458984375 0.6955416015625
vt 0.33476005859375 0.6955416015625
vt 0.33936025390625 0.6975609375
vt 0.30126474609375 0.6975609375
vt 0.33203125 0.732421875
vt 0.33203125 0.7421875
vt 0.30078125 0.7421875
vt 0.30078125 0.732421875
vt 0.330078125 0.796875
vt 0.330078125 0.806640625
vt 0.306640625 0.806640625
vt 0.306640625 0.796875
vt 0.349609375 0.96875
vt 0.3828125 0.96875
vt 0.3828125 0.9765625
vt 0.349609375 0.9765625
vt 0.349609375 0.9609375
vt 0.3828125 0.9609375
vt 0.3828125 0.96875
vt 0.349609375 0.96875
vt 0.337890625 0.63671875
vt 0.37109375 0.63671875
vt 0.37109375 0.64453125
vt 0.337890625 0.64453125
vt 0.357421875 0.724609375
vt 0.390625 0.724609375
vt 0.390625 0.732421875
vt 0.357421875 0.732421875
vt 0.357421875 0.716796875
vt 0.390625 0.716796875
vt 0.390625 0.724609375
vt 0.357421875 0.724609375
vt 0.3671875 0.85546875
vt 0.39453125 0.85546875
vt 0.39453125 0.86328125
vt 0.3671875 0.86328125
vt 0.3671875 0.84765625
vt 0.39453125 0.84765625
vt 0.39453125 0.85546875
vt 0.3671875 0.85546875
vt 0.3671875 0.83984375
vt 0.39453125 0.83984375
vt 0.39453125 0.84765625
vt 0.3671875 0.84765625
vt 0.2421875 0.623046875
vt 0.26953125 0.623046875
vt 0.26953125 0.630859375
vt 0.2421875 0.630859375
vt 0.37109375 0.693359375
vt 0.3984375 0.693359375
vt 0.3984375 0.701171875
vt 0.37109375 0.701171875
vt 0.37109375 0.685546875
vt 0.3984375 0.685546875
vt 0.3984375 0.693359375
vt 0.37109375 0.693359375
vt 0.37109375 0.677734375
vt 0.3984375 0.677734375
vt 0.3984375 0.685546875
vt 0.37109375 0.685546875
vt 0.408203125 0.75390625
vt 0.37890625 0.75390625
vt 0.37890625 0.75
vt 0.408203125 0.75
vt 0.408203125 0.77734375
vt 0.37890625 0.77734375
vt 0.37890625 0.7734375
vt 0.408203125 0.7734375
vt 0.408203125 0.80078125
vt 0.37890625 0.80078125
vt 0.37890625 0.796875
vt 0.408203125 0.796875
vt 0.408203125 0.78515625
vt 0.37890625 0.78515625
vt 0.37890625 0.78125
vt 0.408203125 0.78125
vt 0.330078125 0.8671875
vt 0.359375 0.8671875
vt 0.359375 0.87109375
vt 0.330078125 0.87109375
vt 0.37890625 0.79296875
vt 0.408203125 0.79296875
vt 0.408203125 0.796875
vt 0.37890625 0.796875
vt 0.13978267328036326 0.9765625
vt 0.1368438976955889 0.98046875
vt 0.13268763881108248 0.98046875
vt 0.12974857671963674 0.9765625
vt 0.37890625 0.76953125
vt 0.408203125 0.76953125
vt 0.408203125 0.7734375
vt 0.37890625 0.7734375
vt 0.37890625 0.80859375
vt 0.408203125 0.80859375
vt 0.408203125 0.8125
vt 0.37890625 0.8125
vt 0.13978267328036328 0.98828125
vt 0.13684361118891755 0.9921875
vt 0.13268735230441106 0.9921875
vt 0.12974857671963672 0.98828125
vt 0.37890625 0.791015625
vt 0.37890625 0.80078125
vt 0.33984375 0.80078125
vt 0.33984375 0.791015625
vt 0.33203125 0.685546875
vt 0.33203125 0.6953125
vt 0.3046875 0.6953125
vt 0.3046875 0.685546875
vt 0.37890625 0.76171875
vt 0.37890625 0.771484375
vt 0.33984375 0.771484375
vt 0.33984375 0.76171875
vt 0.330078125 0.787109375
vt 0.330078125 0.796875
vt 0.306640625 0.796875
vt 0.306640625 0.787109375
vt 0.373046875 0.66015625
vt 0.373046875 0.669921875
vt 0.341796875 0.669921875
vt 0.341796875 0.66015625
vt 0.323160546875 0.9953998046875
vt 0.3467611328125 0.9953998046875
vt 0.34878046875 1
vt 0.32114140625 1
vt 0.2686361328125 0.6452251953125
vt 0.245035546875 0.6452251953125
vt 0.24301640625 0.640625
vt 0.27065546875 0.640625
vt 0.323160546875 0.96454453125
vt 0.323160546875 0.9953998046875
vt 0.32114140625 1
vt 0.32114140625 0.9619044921875
vt 0.245035546875 0.6452251953125
vt 0.245035546875 0.6760804687499999
vt 0.24301640625 0.6787205078125
vt 0.24301640625 0.640625
vt 0.3467611328125 0.96454453125
vt 0.323160546875 0.96454453125
vt 0.32114140625 0.9619044921875
vt 0.34878046875 0.9619044921875
vt 0.245035546875 0.6760804687499999
vt 0.2686361328125 0.6760804687499999
vt 0.27065546875 0.6787205078125
vt 0.24301640625 0.6787205078125
vt 0.3467611328125 0.9953998046875
vt 0.3467611328125 0.96454453125
vt 0.34878046875 0.9619044921875
vt 0.34878046875 1
vt 0.2686361328125 0.6760804687499999
vt 0.2686361328125 0.6452251953125
vt 0.27065546875 0.640625
vt 0.27065546875 0.6787205078125
vt 0.37109375 0.689453125
vt 0.37109375 0.69921875
vt 0.33984375 0.69921875
vt 0.33984375 0.689453125
vt 0.328125 0.67578125
vt 0.328125 0.685546875
vt 0.3046875 0.685546875
vt 0.3046875 0.67578125
vt 0.30078125 0.634765625
vt 0.333984375 0.634765625
vt 0.333984375 0.642578125
vt 0.30078125 0.642578125
vt 0.359375 0.953125
vt 0.392578125 0.953125
vt 0.392578125 0.9609375
vt 0.359375 0.9609375
vt 0.359375 0.9453125
vt 0.392578125 0.9453125
vt 0.392578125 0.953125
vt 0.359375 0.953125
vt 0.359375 0.9375
vt 0.392578125 0.9375
vt 0.392578125 0.9453125
vt 0.359375 0.9453125
vt 0.359375 0.9296875
vt 0.392578125 0.9296875
vt 0.392578125 0.9375
vt 0.359375 0.9375
vt 0.31640625 0.62109375
vt 0.34375 0.62109375
vt 0.34375 0.62890625
vt 0.31640625 0.62890625
vt 0.37109375 0.669921875
vt 0.3984375 0.669921875
vt 0.3984375 0.677734375
vt 0.37109375 0.677734375
vt 0.34375 0.62109375
vt 0.37109375 0.62109375
vt 0.37109375 0.62890625
vt 0.34375 0.62890625
vt 0.37109375 0.63671875
vt 0.3984375 0.63671875
vt 0.3984375 0.64453125
vt 0.37109375 0.64453125
vt 0.37109375 0.62109375
vt 0.3984375 0.62109375
vt 0.3984375 0.62890625
vt 0.37109375 0.62890625
vt 0.373046875 0.875
vt 0.400390625 0.875
vt 0.400390625 0.8828125
vt 0.373046875 0.8828125
vt 0.26953125 0.619140625
vt 0.296875 0.619140625
vt 0.296875 0.626953125
vt 0.26953125 0.626953125
vt 0.408203125 0.75
vt 0.37890625 0.75
vt 0.37890625 0.74609375
vt 0.408203125 0.74609375
vt 0.408203125 0.76953125
vt 0.37890625 0.76953125
vt 0.37890625 0.765625
vt 0.408203125 0.765625
vt 0.408203125 0.79296875
vt 0.37890625 0.79296875
vt 0.37890625 0.7890625
vt 0.408203125 0.7890625
vt 0.408203125 0.78125
vt 0.37890625 0.78125
vt 0.37890625 0.77734375
vt 0.408203125 0.77734375
vt 0.37890625 0.8046875
vt 0.408203125 0.8046875
vt 0.408203125 0.80859375
vt 0.37890625 0.80859375
vt 0.37890625 0.78515625
vt 0.408203125 0.78515625
vt 0.408203125 0.7890625
vt 0.37890625 0.7890625
vt 0.13978267328036326 0.97265625
vt 0.1368438976955889 0.9765625
vt 0.13268763881108248 0.9765625
vt 0.12974857671963674 0.97265625
vt 0.37890625 0.76171875
vt 0.408203125 0.76171875
vt 0.408203125 0.765625
vt 0.37890625 0.765625
vt 0.37890625 0.80078125
vt 0.408203125 0.80078125
vt 0.408203125 0.8046875
vt 0.37890625 0.8046875
vt 0.13978267328036328 0.984375
vt 0.13684361118891755 0.98828125
vt 0.13268735230441106 0.98828125
vt 0.12974857671963672 0.984375
vt 0.37890625 0.78125
vt 0.37890625 0.791015625
vt 0.33984375 0.791015625
vt 0.33984375 0.78125
vt 0.333984375 0.826171875
vt 0.333984375 0.8359375
vt 0.306640625 0.8359375
vt 0.306640625 0.826171875
vt 0.37890625 0.771484375
vt 0.37890625 0.78125
vt 0.33984375 0.78125
vt 0.33984375 0.771484375
vt 0.265625 0.630859375
vt 0.265625 0.640625
vt 0.2421875 0.640625
vt 0.2421875 0.630859375
vt 0.37109375 0.6796875
vt 0.37109375 0.689453125
vt 0.33984375 0.689453125
vt 0.33984375 0.6796875
vt 0.332926171875 0.9553703125
vt 0.3565267578125 0.9553703125
vt 0.35854609375 0.9599705078125
vt 0.33090703125 0.9599705078125
vt 0.3565267578125 0.8883796875
vt 0.332926171875 0.8883796875
vt 0.33090703125 0.8837794921875
vt 0.35854609375 0.8837794921875
vt 0.332926171875 0.9245150390625
vt 0.332926171875 0.9553703125
vt 0.33090703125 0.9599705078125
vt 0.33090703125 0.921875
vt 0.332926171875 0.8883796875
vt 0.332926171875 0.9192349609375
vt 0.33090703125 0.921875
vt 0.33090703125 0.8837794921875
vt 0.3565267578125 0.9245150390625
vt 0.332926171875 0.9245150390625
vt 0.33090703125 0.921875
vt 0.35854609375 0.921875
vt 0.332926171875 0.9192349609375
vt 0.3565267578125 0.9192349609375
vt 0.35854609375 0.921875
vt 0.33090703125 0.921875
vt 0.3565267578125 0.9553703125
vt 0.3565267578125 0.9245150390625
vt 0.35854609375 0.921875
vt 0.35854609375 0.9599705078125
vt 0.3565267578125 0.9192349609375
vt 0.3565267578125 0.8883796875
vt 0.35854609375 0.8837794921875
vt 0.35854609375 0.921875
vt 0.37109375 0.669921875
vt 0.37109375 0.6796875
vt 0.33984375 0.6796875
vt 0.33984375 0.669921875
vt 0.2890625 0.630859375
vt 0.2890625 0.640625
vt 0.265625 0.640625
vt 0.265625 0.630859375
vt 0.359375 0.921875
vt 0.392578125 0.921875
vt 0.392578125 0.9296875
vt 0.359375 0.9296875
vt 0.359375 0.890625
vt 0.392578125 0.890625
vt 0.392578125 0.8984375
vt 0.359375 0.8984375
vt 0.359375 0.8984375
vt 0.392578125 0.8984375
vt 0.392578125 0.90625
vt 0.359375 0.90625
vt 0.359375 0.9140625
vt 0.392578125 0.9140625
vt 0.392578125 0.921875
vt 0.359375 0.921875
vt 0.359375 0.90625
vt 0.392578125 0.90625
vt 0.392578125 0.9140625
vt 0.359375 0.9140625
vt 0.373046875 0.662109375
vt 0.400390625 0.662109375
vt 0.400390625 0.669921875
vt 0.373046875 0.669921875
vt 0.375 0.654296875
vt 0.40234375 0.654296875
vt 0.40234375 0.662109375
vt 0.375 0.662109375
vt 0.375 0.646484375
vt 0.40234375 0.646484375
vt 0.40234375 0.654296875
vt 0.375 0.654296875
vt 0.376953125 0.75390625
vt 0.404296875 0.75390625
vt 0.404296875 0.76171875
vt 0.376953125 0.76171875
vt 0.2421875 0.615234375
vt 0.26953125 0.615234375
vt 0.26953125 0.623046875
vt 0.2421875 0.623046875
vt 0.37890625 0.83203125
vt 0.40625 0.83203125
vt 0.40625 0.83984375
vt 0.37890625 0.83984375
vt 0.37890625 0.82421875
vt 0.40625 0.82421875
vt 0.40625 0.83203125
vt 0.37890625 0.83203125
vn 0 0 -1
vn 0.38268312258345827 0 -0.9238796608269793
vn 0.7071067811865476 0 -0.7071067811865476
vn 0.9238796608269793 0 -0.38268312258345827
vn 1 0 0
vn 0.9238796608269793 0 0.38268312258345827
vn 0.7071067811865476 0 0.7071067811865476
vn 0.38268312258345827 0 0.9238796608269793
vn 0 0 1
vn -0.38268312258345827 0 0.9238796608269793
vn -0.7071067811865476 0 0.7071067811865476
vn -0.9238796608269793 0 0.38268312258345827
vn -1 0 0
vn -0.9238796608269793 0 -0.38268312258345827
vn 0 0.10449182046041904 0.9945257460000057
vn -0.7071067811865476 0 -0.7071067811865476
vn -0.38268312258345827 0 -0.9238796608269793
vn 0.9906892866219821 0.13614234232019237 0
vn -0.37477341041357654 0.2022596833984467 -0.9047850083409524
vn -0.9188221320598956 0.1044915818499524 -0.3805882275628115
vn 0.38058821514637664 0.10449189066019297 -0.9188221020839419
vn 0.7032358888639081 0.10449195771722428 0.7032358888639081
vn -0.9188221192534031 0.10449171378168402 0.38058822225819366
vn 0.9945257460000057 0.10449182046041904 0
vn -0.38058822028943184 0.10449176274692812 0.9188221145003872
vn -0.7032359064234275 0.10449172136413927 -0.7032359064234275
vn 0.7032358888639081 0.10449195771722433 -0.7032358888639081
vn 0.38058821711514074 0.10449184169495086 0.9188221068369632
vn 0 0.10449182046041904 -0.9945257460000057
vn -0.994525781118983 0.10449148620666089 0
vn 0.9188221020839419 0.10449189066019297 0.38058821514637664
vn -0.7032359064234275 0.10449172136413927 0.7032359064234275
vn -0.38058822225819355 0.104491713781684 -0.9188221192534028
vn 0.918822089277412 0.1044920225919116 -0.38058820984174335
vn 0 0.20225967668230868 0.9793319269728565
vn 0.37477340356476335 0.20225977005411092 -0.9047849918064188
vn -0.37477341041357654 0.2022596833984467 0.9047850083409524
vn 0.6924922293242594 0.20225979494460727 -0.6924922293242596
vn -0.6924922527076556 0.20225963482552112 0.6924922527076556
vn 0.9047843849716465 0.20225983132903064 -0.3747748355242539
vn -0.9047844248895753 0.2022596221234355 0.37477485205884015
vn 0.9793318802060484 0.20225990312488115 0
vn -0.9793319269728565 0.20225967668230868 0
vn 0.9047843849716465 0.20225983132903064 0.3747748355242539
vn -0.9047844248895753 0.20225962212343557 -0.37477485205884015
vn 0.6924922293242594 0.20225979494460727 0.6924922293242596
vn -0.6924922527076556 0.20225963482552112 -0.6924922527076556
vn 0.37477340356476335 0.20225977005411092 0.9047849918064188
vn 0 0.20225967668230868 -0.9793319269728565
vn 0 -0.9141905205106368 -0.40528470512528747
vn 0.1550959742701245 -0.9141906004306383 -0.3744339525863945
vn 0.286578895753702 -0.9141909390369047 -0.286578895753702
vn 0.37443315070151945 -0.9141909852168788 -0.15509564211777802
vn 0.40528470512528747 -0.9141905205106368 0
vn 0.3744339525863945 -0.9141906004306383 0.1550959742701245
vn 0.286578895753702 -0.9141909390369047 0.286578895753702
vn 0.15509564211777802 -0.9141909852168788 0.37443315070151945
vn 0 -0.9141905205106368 0.40528470512528747
vn -0.1550959742701245 -0.9141906004306383 0.3744339525863945
vn -0.286578895753702 -0.9141909390369047 0.286578895753702
vn -0.37443315070151945 -0.9141909852168788 0.15509564211777802
vn -0.40528470512528747 -0.9141905205106368 0
vn -0.3744339525863945 -0.9141906004306383 -0.1550959742701245
vn -0.286578895753702 -0.9141909390369047 -0.286578895753702
vn -0.15509564211777802 -0.9141909852168788 -0.37443315070151945
vn -0.9906891194508467 0.13614355879624346 0
vn 0.9152772007459012 0.13614273028601487 0.3791210925087352
vn -0.9152770580561623 0.1361438541628061 -0.37912103340457565
vn 0.7005230818519035 0.13614265894796793 0.7005230818519035
vn -0.700522998266254 0.1361435191263833 -0.700522998266254
vn 0.3791210484037992 0.13614356895062318 0.9152770942674088
vn 0 0.13614234232019237 -0.9906892866219821
vn -0.3791210484037992 0.13614356895062318 -0.9152770942674088
vn 0 0.13614355879624346 0.9906891194508467
vn 0.3791210925087352 0.13614273028601487 -0.9152772007459012
vn -0.37912103340457565 0.1361438541628061 0.9152770580561623
vn 0.7005230818519035 0.13614265894796793 -0.7005230818519035
vn -0.700522998266254 0.1361435191263833 0.700522998266254
vn 0.91527723695686 0.13614244507369871 -0.37912110750783956
vn -0.9152770942674088 0.13614356895062318 0.3791210484037992
vn 0.9977845983528594 0.0665274025482983 0
vn 0 0 -1
vn -0.9977845983528594 0.0665274025482983 0
vn 0 0 1
vn 0.5771424858705163 -0.5118575765041888 -0.6363241095373172
vn -1 0 0
vn 1 0 0
vn 0 0 1
vn 0 0 1
vn -0.5771420763095024 -0.5118572132716888 -0.6363247731896798
vn -0.9977845983528594 -0.0665274025482983 0
vn 0 0 -1
vn 0.9977845983528594 -0.0665274025482983 0
vn 0 0 1
vn -0.5771424858705163 0.5118575765041888 -0.6363241095373172
vn 1 0 0
vn -1 0 0
vn 0 0 1
vn 0 0 1
vn 0.5771420763095024 0.5118572132716888 -0.6363247731896798
vn 0 -0.0665274025482983 0.9977845983528594
vn -1 0 0
vn 0 -0.0665274025482983 -0.9977845983528594
vn 1 0 0
vn -0.6363241095373171 0.5118575765041887 0.5771424858705162
vn 0 0 -1
vn 0 0 1
vn 1 0 0
vn 1 0 0
vn -0.6363247731896798 0.5118572132716888 -0.5771420763095024
vn 0 0.0665274025482983 -0.9977845983528594
vn -1 0 0
vn 0 0.0665274025482983 0.9977845983528594
vn 1 0 0
vn -0.6363241095373171 -0.5118575765041887 -0.5771424858705162
vn 0 0 1
vn 0 0 -1
vn 1 0 0
vn 1 0 0
vn -0.6363247731896798 -0.5118572132716888 0.5771420763095024
vn 0.382684037616318 0.9238792818072323 0.000001012530365562861
vn 0.9238766234946131 0.3826904552770989 0
vn 0.9238766234946136 -0.3826904552770978 0
vn 0.3826840376165141 -0.923879281807706 0
vn -0.3826840376165135 -0.9238792818077062 0
vn -0.9238792818077062 -0.3826840376165135 0
vn 0 0 1
vn -0.9238792818077056 0.3826840376165147 0
vn -0.3826840376165135 0.9238792818077062 0
vn 0 0 -1
vn 0 0 -1
vn 1 0 0
vn 0 0 1
vn 1 0 0
vn 0 0 1
vn 0 -1 0
vn 0 1 0
vn 0 -1 0
vn 0 1 0
vn 0 -1 0
vn 0 1 0
vn 0 -1 0
vn 0 1 0
vn 0 0 -1
vn -1 0 0
vn 0 0 1
vn 0 0 1
vn 0 0 1
vn 0 0 1
vn 0 0 1
vn 1 0 0
vn 1 0 0
vn 1 0 0
vn 1 0 0
vn 1 0 0
vn 1 0 0
vn 1 0 0
vn 0.382684037616318 -0.9238792818072323 -0.000001012530365562861
vn 0.9238792818077056 -0.3826840376165147 0
vn 0.9238792818077062 0.3826840376165135 0
vn 0.3826840376165141 0.923879281807706 0
vn -0.3826840376165141 0.923879281807706 0
vn -0.9238792818077057 0.382684037616515 0
vn 0 0 -1
vn -0.9238792818077051 -0.3826840376165161 0
vn -0.3826840376165141 -0.923879281807706 0
vn 0 0 1
vn 0 0 1
vn 1 0 0
vn 0 0 -1
vn 1 0 0
vn 0 0 -1
vn 0 1 0
vn 0 -1 0
vn 0 1 0
vn 0 -1 0
vn 0 1 0
vn 0 -1 0
vn 0 1 0
vn 0 -1 0
vn 0 0 1
vn -1 0 0
vn 0 0 -1
vn 0 0 -1
vn 0 0 -1
vn 0 0 -1
vn 0 0 -1
vn 1 0 0
vn 1 0 0
vn 1 0 0
vn 1 0 0
vn 1 0 0
vn 1 0 0
vn 1 0 0
vn -0.000001012530365562861 -0.9238792818072323 -0.3826840376163179
vn 0 -0.3826840376165147 -0.9238792818077056
vn 0 0.38268403761651354 -0.9238792818077062
vn 0 0.923879281807706 -0.3826840376165141
vn 0 0.9238803829015446 0.3826813793349441
vn 0 0.38268403761651354 0.9238792818077062
vn -1 0 0
vn 0 -0.3826840376165147 0.9238792818077056
vn 0 -0.9238803829015446 0.3826813793349441
vn 1 0 0
vn 1 0 0
vn 0 0 -1
vn -0.9999999999996637 0 8.203082061770097e-7
vn 0 0 -1
vn -0.9999999999994872 0 0.000001012792583089738
vn 0 1 0
vn 0 -1 0
vn 0 1 0
vn 0 -1 0
vn 0 1 0
vn 0 -1 0
vn 0 1 0
vn 0 -1 0
vn 1 0 0
vn 0 0 1
vn -1 0 0
vn -1 0 0
vn -1 0 0
vn -1 0 0
vn -1 0 0
vn 0 0 -1
vn 0 0 -1
vn 0 0 -1
vn 0 0 -1
vn 0 0 -1
vn 0 0 -1
vn 0 0 -1
vn 0.000001012530365562861 0.9238792818072323 -0.3826840376163179
vn 0 0.3826840376165147 -0.9238792818077056
vn 0 -0.38268403761651354 -0.9238792818077062
vn 0 -0.923879281807706 -0.3826840376165141
vn 0 -0.9238803829015446 0.3826813793349441
vn 0 -0.38268403761651354 0.9238792818077062
vn 1 0 0
vn 0 0.3826840376165147 0.9238792818077056
vn 0 0.9238803829015446 0.3826813793349441
vn -1 0 0
vn -1 0 0
vn 0 0 -1
vn 1 0 0
vn 0 0 -1
vn 1 0 0
vn 0 -1 0
vn 0 1 0
vn 0 -1 0
vn 0 1 0
vn 0 -1 0
vn 0 1 0
vn 0 -1 0
vn 0 1 0
vn -1 0 0
vn 0 0 1
vn 1 0 0
vn 0.9999999999924607 -0.000003762736864261003 -9.593844589248764e-7
vn 0.9999999999995399 0 -9.5938445890504e-7
vn 1 0 0
vn 1 0 0
vn 0 0 -1
vn 0 0 -1
vn 0 0 -1
vn 0 0 -1
vn 0 0 -1
vn 0 0 -1
vn 0 0 -1
usemtl missile_texture
f 1/1/1 2/2/1 3/3/1 4/4/1
f 4/5/2 3/6/2 5/7/2 6/8/2
f 6/9/3 5/10/3 7/11/3 8/12/3
f 8/13/4 7/14/4 9/15/4 10/16/4
f 10/17/5 9/18/5 11/19/5 12/20/5
f 12/21/6 11/22/6 13/23/6 14/24/6
f 14/25/7 13/26/7 15/27/7 16/28/7
f 16/29/8 15/30/8 17/31/8 18/32/8
f 18/33/9 17/34/9 19/35/9 20/36/9
f 20/37/10 19/38/10 21/39/10 22/40/10
f 22/41/11 21/42/11 23/43/11 24/44/11
f 24/45/12 23/46/12 25/47/12 26/48/12
f 26/49/13 25/50/13 27/51/13 28/52/13
f 28/53/14 27/54/14 29/55/14 30/56/14
f 19/57/15 17/58/15 31/59/15 32/60/15
f 30/61/16 29/62/16 33/63/16 34/64/16
f 34/65/17 33/66/17 2/67/17 1/68/17
f 35/69/18 36/70/18 37/71/18 38/72/18
f 39/73/19 40/74/19 41/75/19
f 29/76/20 27/77/20 42/78/20 43/79/20
f 5/80/21 3/81/21 44/82/21 45/83/21
f 15/84/22 13/85/22 46/86/22 47/87/22
f 25/88/23 23/89/23 48/90/23 49/91/23
f 11/92/24 9/93/24 50/94/24 51/95/24
f 21/96/25 19/97/25 32/98/25 52/99/25
f 33/100/26 29/101/26 43/102/26 40/103/26
f 7/104/27 5/105/27 45/106/27 53/107/27
f 17/108/28 15/109/28 47/110/28 31/111/28
f 3/112/29 2/113/29 39/114/29 44/115/29
f 27/116/30 25/117/30 49/118/30 42/119/30
f 13/120/31 11/121/31 51/122/31 46/123/31
f 23/124/32 21/125/32 52/126/32 48/127/32
f 2/128/33 33/129/33 40/130/33 39/131/33
f 9/132/34 7/133/34 53/134/34 50/135/34
f 32/136/35 31/137/35 41/138/35
f 45/139/36 44/140/36 41/141/36
f 52/142/37 32/143/37 41/144/37
f 53/145/38 45/146/38 41/147/38
f 48/148/39 52/149/39 41/150/39
f 50/151/40 53/152/40 41/153/40
f 49/154/41 48/155/41 41/156/41
f 51/157/42 50/158/42 41/159/42
f 42/160/43 49/161/43 41/162/43
f 46/163/44 51/164/44 41/165/44
f 43/166/45 42/167/45 41/168/45
f 47/169/46 46/170/46 41/171/46
f 40/172/47 43/173/47 41/174/47
f 31/175/48 47/176/48 41/177/48
f 44/178/49 39/179/49 41/180/49
f 54/181/50 55/182/50 1/183/50 4/184/50
f 56/185/51 54/186/51 4/187/51 6/188/51
f 57/189/52 56/190/52 6/191/52 8/192/52
f 35/193/53 57/194/53 8/195/53 10/196/53
f 36/197/54 35/198/54 10/199/54 12/200/54
f 58/201/55 36/202/55 12/203/55 14/204/55
f 59/205/56 58/206/56 14/207/56 16/208/56
f 60/209/57 59/210/57 16/211/57 18/212/57
f 61/213/58 60/214/58 18/215/58 20/216/58
f 62/217/59 61/218/59 20/219/59 22/220/59
f 63/221/60 62/222/60 22/223/60 24/224/60
f 64/225/61 63/226/61 24/227/61 26/228/61
f 65/229/62 64/230/62 26/231/62 28/232/62
f 66/233/63 65/234/63 28/235/63 30/236/63
f 67/237/64 66/238/64 30/239/64 34/240/64
f 55/241/65 67/242/65 34/243/65 1/244/65
f 64/245/66 65/246/66 72/247/66 73/248/66
f 36/249/67 58/250/67 74/251/67 37/252/67
f 65/253/68 66/254/68 75/255/68 72/256/68
f 58/257/69 59/258/69 76/259/69 74/260/69
f 66/261/70 67/262/70 77/263/70 75/264/70
f 59/265/71 60/266/71 78/267/71 76/268/71
f 55/269/72 54/270/72 69/271/72 68/272/72
f 67/273/73 55/274/73 68/275/73 77/276/73
f 60/277/74 61/278/74 79/279/74 78/280/74
f 54/281/75 56/282/75 70/283/75 69/284/75
f 61/285/76 62/286/76 80/287/76 79/288/76
f 56/289/77 57/290/77 71/291/77 70/292/77
f 62/293/78 63/294/78 81/295/78 80/296/78
f 57/297/79 35/298/79 38/299/79 71/300/79
f 63/301/80 64/302/80 73/303/80 81/304/80
f 82/305/81 83/306/81 84/307/81 85/308/81
f 85/309/82 84/310/82 86/311/82 87/312/82
f 85/313/83 87/314/83 88/315/83 82/316/83
f 82/317/84 88/318/84 89/319/84 83/320/84
f 86/321/85 84/322/85 90/323/85 91/324/85
f 88/325/86 87/326/86 92/327/86
f 84/328/87 83/329/87 90/330/87
f 89/331/88 88/332/88 92/333/88 91/334/88
f 83/335/89 89/336/89 91/337/89 90/338/89
f 87/339/90 86/340/90 91/341/90 92/342/90
f 93/343/91 94/344/91 95/345/91 96/346/91
f 96/347/92 95/348/92 97/349/92 98/350/92
f 96/351/93 98/352/93 99/353/93 93/354/93
f 93/355/94 99/356/94 100/357/94 94/358/94
f 97/359/95 95/360/95 101/361/95 102/362/95
f 99/363/96 98/364/96 103/365/96
f 95/366/97 94/367/97 101/368/97
f 100/369/98 99/370/98 103/371/98 102/372/98
f 94/373/99 100/374/99 102/375/99 101/376/99
f 98/377/100 97/378/100 102/379/100 103/380/100
f 104/381/101 105/382/101 106/383/101 107/384/101
f 107/385/102 106/386/102 108/387/102 109/388/102
f 107/389/103 109/390/103 110/391/103 104/392/103
f 104/393/104 110/394/104 111/395/104 105/396/104
f 108/397/105 106/398/105 112/399/105 113/400/105
f 110/401/106 109/402/106 114/403/106
f 106/404/107 105/405/107 112/406/107
f 111/407/108 110/408/108 114/409/108 113/410/108
f 105/411/109 111/412/109 113/413/109 112/414/109
f 109/415/110 108/416/110 113/417/110 114/418/110
f 115/419/111 116/420/111 117/421/111 118/422/111
f 118/423/112 117/424/112 119/425/112 120/426/112
f 118/427/113 120/428/113 121/429/113 115/430/113
f 115/431/114 121/432/114 122/433/114 116/434/114
f 119/435/115 117/436/115 123/437/115 124/438/115
f 121/439/116 120/440/116 125/441/116
f 117/442/117 116/443/117 123/444/117
f 122/445/118 121/446/118 125/447/118 124/448/118
f 116/449/119 122/450/119 124/451/119 123/452/119
f 120/453/120 119/454/120 124/455/120 125/456/120
f 126/457/121 127/458/121 128/459/121 129/460/121
f 129/461/122 128/462/122 130/463/122 131/464/122
f 131/465/123 130/466/123 132/467/123 133/468/123
f 133/469/124 132/470/124 134/471/124 135/472/124
f 135/473/125 134/474/125 136/475/125 137/476/125
f 137/477/126 136/478/126 138/479/126 139/480/126
f 128/481/127 127/482/127 140/483/127 138/484/127
f 139/485/128 138/486/128 140/487/128 141/488/128
f 141/489/129 140/490/129 127/491/129 126/492/129
f 126/493/130 129/494/130 131/495/130 133/496/130
f 142/497/131 143/498/131 144/499/131 145/500/131
f 145/501/132 144/502/132 146/503/132 147/504/132
f 147/505/133 146/506/133 148/507/133 149/508/133
f 150/509/134 151/510/134 152/511/134 153/512/134
f 154/513/135 155/514/135 151/515/135 150/516/135
f 150/517/136 153/518/136 149/519/136 142/520/136
f 152/521/137 151/522/137 143/523/137 148/524/137
f 154/525/138 150/526/138 142/527/138 145/528/138
f 151/529/139 155/530/139 144/531/139 143/532/139
f 156/533/140 154/534/140 145/535/140 147/536/140
f 155/537/141 157/538/141 146/539/141 144/540/141
f 153/541/142 156/542/142 147/543/142 149/544/142
f 157/545/143 152/546/143 148/547/143 146/548/143
f 153/549/144 152/550/144 157/551/144 156/552/144
f 156/553/145 157/554/145 155/555/145 154/556/145
f 158/557/146 159/558/146 160/559/146 161/560/146
f 162/561/147 163/562/147 164/563/147 165/564/147
f 166/565/148 167/566/148 168/567/148 169/568/148
f 170/569/149 171/570/149 172/571/149 173/572/149
f 174/573/150 175/574/150 176/575/150 177/576/150
f 178/577/151 179/578/151 180/579/151 181/580/151
f 182/581/152 183/582/152 184/583/152 185/584/152
f 186/585/153 187/586/153 188/587/153 189/588/153
f 190/589/154 191/590/154 192/591/154 193/592/154
f 194/593/155 195/594/155 196/595/155 197/596/155
f 198/597/156 199/598/156 200/599/156 201/600/156
f 202/601/157 203/602/157 204/603/157 205/604/157
f 206/605/158 207/606/158 208/607/158 209/608/158
f 209/609/159 208/610/159 210/611/159 211/612/159
f 211/613/160 210/614/160 212/615/160 213/616/160
f 213/617/161 212/618/161 214/619/161 215/620/161
f 215/621/162 214/622/162 216/623/162 217/624/162
f 217/625/163 216/626/163 218/627/163 219/628/163
f 208/629/164 207/630/164 220/631/164 218/632/164
f 219/633/165 218/634/165 220/635/165 221/636/165
f 221/637/166 220/638/166 207/639/166 206/640/166
f 206/641/167 209/642/167 211/643/167 213/644/167
f 222/645/168 223/646/168 224/647/168 225/648/168
f 225/649/169 224/650/169 226/651/169 227/652/169
f 227/653/170 226/654/170 228/655/170 229/656/170
f 230/657/171 231/658/171 232/659/171 233/660/171
f 234/661/172 235/662/172 231/663/172 230/664/172
f 230/665/173 233/666/173 229/667/173 222/668/173
f 232/669/174 231/670/174 223/671/174 228/672/174
f 234/673/175 230/674/175 222/675/175 225/676/175
f 231/677/176 235/678/176 224/679/176 223/680/176
f 236/681/177 234/682/177 225/683/177 227/684/177
f 235/685/178 237/686/178 226/687/178 224/688/178
f 233/689/179 236/690/179 227/691/179 229/692/179
f 237/693/180 232/694/180 228/695/180 226/696/180
f 233/697/181 232/698/181 237/699/181 236/700/181
f 236/701/182 237/702/182 235/703/182 234/704/182
f 238/705/183 239/706/183 240/707/183 241/708/183
f 242/709/184 243/710/184 244/711/184 245/712/184
f 246/713/185 247/714/185 248/715/185 249/716/185
f 250/717/186 251/718/186 252/719/186 253/720/186
f 254/721/187 255/722/187 256/723/187 257/724/187
f 258/725/188 259/726/188 260/727/188 261/728/188
f 262/729/189 263/730/189 264/731/189 265/732/189
f 266/733/190 267/734/190 268/735/190 269/736/190
f 270/737/191 271/738/191 272/739/191 273/740/191
f 274/741/192 275/742/192 276/743/192 277/744/192
f 278/745/193 279/746/193 280/747/193 281/748/193
f 282/749/194 283/750/194 284/751/194 285/752/194
f 286/753/195 287/754/195 288/755/195 289/756/195
f 289/757/196 288/758/196 290/759/196 291/760/196
f 291/761/197 290/762/197 292/763/197 293/764/197
f 293/765/198 292/766/198 294/767/198 295/768/198
f 295/769/199 294/770/199 296/771/199 297/772/199
f 297/773/200 296/774/200 298/775/200 299/776/200
f 288/777/201 287/778/201 300/779/201 298/780/201
f 299/781/202 298/782/202 300/783/202 301/784/202
f 301/785/203 300/786/203 287/787/203 286/788/203
f 286/789/204 289/790/204 291/791/204 293/792/204
f 302/793/205 303/794/205 304/795/205 305/796/205
f 305/797/206 304/798/206 306/799/206 307/800/206
f 307/801/207 306/802/207 308/803/207 309/804/207
f 310/805/208 311/806/208 312/807/208 313/808/208
f 314/809/209 315/810/209 311/811/209 310/812/209
f 310/813/210 313/814/210 309/815/210 302/816/210
f 312/817/211 311/818/211 303/819/211 308/820/211
f 314/821/212 310/822/212 302/823/212 305/824/212
f 311/825/213 315/826/213 304/827/213 303/828/213
f 316/829/214 314/830/214 305/831/214 307/832/214
f 315/833/215 317/834/215 306/835/215 304/836/215
f 313/837/216 316/838/216 307/839/216 309/840/216
f 317/841/217 312/842/217 308/843/217 306/844/217
f 313/845/218 312/846/218 317/847/218 316/848/218
f 316/849/219 317/850/219 315/851/219 314/852/219
f 318/853/220 319/854/220 320/855/220 321/856/220
f 322/857/221 323/858/221 324/859/221 325/860/221
f 326/861/222 327/862/222 328/863/222 329/864/222
f 330/865/223 331/866/223 332/867/223 333/868/223
f 334/869/224 335/870/224 336/871/224 337/872/224
f 338/873/225 339/874/225 340/875/225 341/876/225
f 342/877/226 343/878/226 344/879/226 345/880/226
f 346/881/227 347/882/227 348/883/227 349/884/227
f 350/885/228 351/886/228 352/887/228 353/888/228
f 354/889/229 355/890/229 356/891/229 357/892/229
f 358/893/230 359/894/230 360/895/230 361/896/230
f 362/897/231 363/898/231 364/899/231 365/900/231
f 366/901/232 367/902/232 368/903/232 369/904/232
f 369/905/233 368/906/233 370/907/233 371/908/233
f 371/909/234 370/910/234 372/911/234 373/912/234
f 373/913/235 372/914/235 374/915/235 375/916/235
f 375/917/236 374/918/236 376/919/236 377/920/236
f 377/921/237 376/922/237 378/923/237 379/924/237
f 368/925/238 367/926/238 380/927/238 378/928/238
f 379/929/239 378/930/239 380/931/239 381/932/239
f 381/933/240 380/934/240 367/935/240 366/936/240
f 366/937/241 369/938/241 371/939/241 373/940/241
f 382/941/242 383/942/242 384/943/242 385/944/242
f 385/945/243 384/946/243 386/947/243 387/948/243
f 387/949/244 386/950/244 388/951/244 389/952/244
f 390/953/245 391/954/245 392/955/245 393/956/245
f 394/957/246 395/958/246 391/959/246 390/960/246
f 390/961/247 393/962/247 389/963/247 382/964/247
f 392/965/248 391/966/248 383/967/248 388/968/248
f 394/969/249 390/970/249 382/971/249 385/972/249
f 391/973/250 395/974/250 384/975/250 383/976/250
f 396/977/251 394/978/251 385/979/251 387/980/251
f 395/981/252 397/982/252 386/983/252 384/984/252
f 393/985/253 396/986/253 387/987/253 389/988/253
f 397/989/254 392/990/254 388/991/254 386/992/254
f 393/993/255 392/994/255 397/995/255 396/996/255
f 396/997/256 397/998/256 395/999/256 394/1000/256
f 398/1001/257 399/1002/257 400/1003/257 401/1004/257
f 402/1005/258 403/1006/258 404/1007/258 405/1008/258
f 406/1009/259 407/1010/259 408/1011/259 409/1012/259
f 410/1013/260 411/1014/260 412/1015/260 413/1016/260
f 414/1017/261 415/1018/261 416/1019/261 417/1020/261
f 418/1021/262 419/1022/262 420/1023/262 421/1024/262
f 422/1025/263 423/1026/263 424/1027/263 425/1028/263
f 426/1029/264 427/1030/264 428/1031/264 429/1032/264
f 430/1033/265 431/1034/265 432/1035/265 433/1036/265
f 434/1037/266 435/1038/266 436/1039/266 437/1040/266
f 438/1041/267 439/1042/267 440/1043/267 441/1044/267
f 442/1045/268 443/1046/268 444/1047/268 445/1048/268