# Made in Blockbench 5.1.6
mtllib missile_cluster_part.mtl

o cone
v 0.000000 0.000000 0.000000
v 0.000000 0.699762 0.000000
v 0.019276 0.000000 0.084454
v 0.054010 0.000000 0.067727
v 0.078047 0.000000 0.037586
v 0.086626 0.000000 0.000000
v 0.078047 0.000000 -0.037586
v 0.054010 0.000000 -0.067727
v 0.019276 0.000000 -0.084454
v -0.019276 0.000000 -0.084454
v -0.054010 0.000000 -0.067727
v -0.078047 0.000000 -0.037586
v -0.086626 0.000000 -0.000000
v -0.078047 0.000000 0.037586
v -0.054010 0.000000 0.067727
v -0.019276 0.000000 0.084454
vt 0.30059843750000004 0.98916875
vt 0.2781078125 1
vt 0.265625 0.9453125
vt 0.1296703125 0.5435859375000001
vt 0.15459861638894987 0.5449505241996245
vt 0.1171875 1
vt 0.3161640625 0.96965
vt 0.30059843750000004 0.98916875
vt 0.265625 0.9453125
vt 0.22205276722210027 0.37307552419962453
vt 0.24698107111105014 0.37171093750000006
vt 0.25946388361105016 0.828125
vt 0.32171875 0.9453125
vt 0.3161640625 0.96965
vt 0.265625 0.9453125
vt 0.24698107111105014 0.37171093750000006
vt 0.27194669611105016 0.37171093750000006
vt 0.25946388361105016 0.828125
vt 0.3161640625 0.920975
vt 0.32171875 0.9453125
vt 0.265625 0.9453125
vt 0.27194669611105016 0.37171093750000006
vt 0.296875 0.37307552419962453
vt 0.25946388361105016 0.828125
vt 0.30059843750000004 0.90145625
vt 0.3161640625 0.920975
vt 0.265625 0.9453125
vt 0.296875 0.43421093750000006
vt 0.321840625 0.43421093750000006
vt 0.3093578125 0.890625
vt 0.2781078125 0.890625
vt 0.30059843750000004 0.90145625
vt 0.265625 0.9453125
vt 0.0016513836110501404 0.5449505241996245
vt 0.026579687499999997 0.5435859375000001
vt 0.0390625 1
vt 0.2531421875 0.890625
vt 0.2781078125 0.890625
vt 0.265625 0.9453125
vt 0.026579687499999997 0.5435859375000001
vt 0.0515453125 0.5435859375000001
vt 0.0390625 1
vt 0.2306515625 0.90145625
vt 0.2531421875 0.890625
vt 0.265625 0.9453125
vt 0.0515453125 0.5435859375000001
vt 0.07647361638894987 0.5449505241996245
vt 0.0390625 1
vt 0.2150859375 0.920975
vt 0.2306515625 0.90145625
vt 0.265625 0.9453125
vt 0.334409375 0.5435859375000001
vt 0.359375 0.5435859375000001
vt 0.3468921875 1
vt 0.20953125 0.9453125
vt 0.2150859375 0.920975
vt 0.265625 0.9453125
vt 0.15625 0.5449505241996245
vt 0.18117830388894984 0.5435859375000001
vt 0.19366111638894987 1
vt 0.2150859375 0.96965
vt 0.20953125 0.9453125
vt 0.265625 0.9453125
vt 0.18117830388894984 0.5435859375000001
vt 0.20614392888894986 0.5435859375000001
vt 0.19366111638894987 1
vt 0.2306515625 0.98916875
vt 0.2150859375 0.96965
vt 0.265625 0.9453125
vt 0.20614392888894986 0.5435859375000001
vt 0.23107223277789973 0.5449505241996245
vt 0.19366111638894987 1
vt 0.2531421875 1
vt 0.2306515625 0.98916875
vt 0.265625 0.9453125
vt 0.07977638361105013 0.5449505241996245
vt 0.1047046875 0.5435859375000001
vt 0.1171875 1
vt 0.2781078125 1
vt 0.2531421875 1
vt 0.265625 0.9453125
vt 0.1047046875 0.5435859375000001
vt 0.1296703125 0.5435859375000001
vt 0.1171875 1
vn 0 -1 0
vn 0.4307578727522732 0.11982016019085817 0.8944779395120785
vn 0 -1 0
vn 0.7761988659073391 0.11982016019085814 0.6189979400418048
vn 0 -1 0
vn 0.9679041542150814 0.11982016019085816 0.22091780703470948
vn 0 -1 0
vn 0.9679041542150814 0.11982016019085816 -0.22091780703470948
vn 0 -1 0
vn 0.7761988659073393 0.11982016019085816 -0.6189979400418044
vn 0 -1 0
vn 0.4307578727522731 0.11982016019085819 -0.8944779395120787
vn 0 -1 0
vn 0 0.11982016019085817 -0.9927956130099675
vn 0 -1 0
vn -0.43075787275227295 0.11982016019085816 -0.8944779395120787
vn 0 -1 0
vn -0.776198865907339 0.11982016019085816 -0.6189979400418052
vn 0 -1 0
vn -0.9679041542150812 0.11982016019085814 -0.22091780703470976
vn 0 -1 0
vn -0.9679041542150814 0.11982016019085816 0.22091780703470923
vn 0 -1 0
vn -0.7761988659073393 0.11982016019085814 0.6189979400418044
vn 0 -1 0
vn -0.4307578727522732 0.11982016019085817 0.8944779395120785
vn 0 -1 0
vn -2.759520729858639e-16 0.11982016019085814 0.9927956130099675
usemtl missile_texture
f 4/1/1 3/2/1 1/3/1
f 3/4/2 4/5/2 2/6/2
f 5/7/3 4/8/3 1/9/3
f 4/10/4 5/11/4 2/12/4
f 6/13/5 5/14/5 1/15/5
f 5/16/6 6/17/6 2/18/6
f 7/19/7 6/20/7 1/21/7
f 6/22/8 7/23/8 2/24/8
f 8/25/9 7/26/9 1/27/9
f 7/28/10 8/29/10 2/30/10
f 9/31/11 8/32/11 1/33/11
f 8/34/12 9/35/12 2/36/12
f 10/37/13 9/38/13 1/39/13
f 9/40/14 10/41/14 2/42/14
f 11/43/15 10/44/15 1/45/15
f 10/46/16 11/47/16 2/48/16
f 12/49/17 11/50/17 1/51/17
f 11/52/18 12/53/18 2/54/18
f 13/55/19 12/56/19 1/57/19
f 12/58/20 13/59/20 2/60/20
f 14/61/21 13/62/21 1/63/21
f 13/64/22 14/65/22 2/66/22
f 15/67/23 14/68/23 1/69/23
f 14/70/24 15/71/24 2/72/24
f 16/73/25 15/74/25 1/75/25
f 15/76/26 16/77/26 2/78/26
f 3/79/27 16/80/27 1/81/27
f 16/82/28 3/83/28 2/84/28