# Made in Blockbench 5.1.5
mtllib missile_stealth.mtl

o shitty_stealth_cruise_missile_(glowker)
v 0.000000 -1.506406 -0.667096
v 0.000000 2.637242 -0.667096
v 0.489344 2.637242 -0.535977
v 0.489344 -1.506406 -0.535977
v 0.847568 2.637242 -0.177753
v 0.847568 -1.506406 -0.177753
v 0.978687 2.637242 0.311591
v 0.978687 -1.506406 0.311591
v 0.847568 2.637242 0.489344
v 0.847568 -1.506406 0.489344
v 0.489344 2.637242 0.751087
v 0.489344 -1.506406 0.751087
v 0.000000 2.637242 0.850045
v 0.000000 -1.506406 0.850045
v -0.489344 2.637242 0.751087
v -0.489344 -1.506406 0.751087
v -0.847568 2.637242 0.489344
v -0.847568 -1.506406 0.489344
v -0.978687 2.637242 0.311591
v -0.978687 -1.506406 0.311591
v -0.847568 2.637242 -0.177753
v -0.847568 -1.506406 -0.177753
v 0.847568 3.672949 0.489344
v 0.489344 3.672949 0.751087
v -0.489344 2.637242 -0.535977
v -0.489344 -1.506406 -0.535977
v -0.322967 -3.850629 0.251997
v 0.000000 -3.850629 0.317310
v 0.000000 -3.850629 -0.419913
v 0.322967 -3.850629 -0.333374
v 0.559395 -3.850629 -0.096946
v 0.602664 -3.850629 0.020588
v 0.322967 -3.850629 0.251997
v -0.322967 -3.850629 -0.333374
v -0.559395 -3.850629 -0.096946
v -0.602664 -3.850629 0.020588
v 0.489344 3.672949 -0.535976
v 0.000000 3.672949 -0.667096
v 0.000000 5.904846 -0.229021
v 0.489344 5.904846 -0.097902
v 0.978687 3.672949 0.311591
v -0.489344 3.672949 -0.535976
v 0.847568 3.672949 -0.177752
v -0.847568 3.672949 -0.177752
v -0.978687 3.672949 0.311591
v -0.847568 3.672949 0.489344
v -0.489344 3.672949 0.751087
v 0.000000 3.672949 0.850045
v 0.489344 5.904846 0.385781
v 0.891274 5.904846 0.207728
v 0.489344 6.758256 0.143940
v -0.489344 5.904846 0.385781
v -0.891274 5.904846 0.207728
v -0.489344 5.904846 -0.097902
v 0.000000 5.904846 0.484739
v 0.000000 7.146237 0.127860
v -0.489344 6.758256 0.143940
v -0.065288 -2.895478 1.638972
v -0.065288 -2.237394 0.679133
v 0.000000 -3.523817 0.378577
v 0.000000 -3.745373 1.638972
v 0.065288 -2.895478 1.638972
v 0.065288 -2.237394 0.679133
v 0.000000 -2.177577 0.679133
v 0.000000 -2.835660 1.638972
v 3.670141 0.095854 -0.234425
v 3.670141 0.131367 -0.295877
v 3.670141 0.095854 -0.357330
v 3.670141 -0.579909 -0.295877
v 0.657949 1.264801 -0.234425
v 0.657949 1.300313 -0.295877
v 0.657949 -0.125920 -0.295877
v 0.657949 1.264801 -0.357330
v -3.670141 0.095854 -0.234425
v -3.670141 0.131367 -0.295877
v -3.670141 0.095854 -0.357330
v -3.670141 -0.579909 -0.295877
v -0.657949 1.264801 -0.234425
v -0.657949 1.300313 -0.295877
v -0.657949 -0.125920 -0.295877
v -0.657949 1.264801 -0.357330
v -0.739449 -2.508525 0.060311
v -0.739449 -2.467415 -0.000000
v -0.739449 -2.508525 -0.060311
v -0.624721 -3.536382 -0.000000
v -1.833153 -3.105939 0.060311
v -1.833153 -3.064830 -0.000000
v -1.833153 -3.874051 -0.000000
v -1.833153 -3.105939 -0.060311
v 0.739449 -2.508525 0.060311
v 0.739449 -2.467415 -0.000000
v 0.739449 -2.508525 -0.060311
v 0.624721 -3.536382 -0.000000
v 1.833153 -3.105939 0.060311
v 1.833153 -3.064830 -0.000000
v 1.833153 -3.874051 -0.000000
v 1.833153 -3.105939 -0.060311
vt 0.4255652734215924 0.783203125
vt 0.22424886717159243 0.7832029296875
vt 0.22424886717159243 0.75858984375
vt 0.4255652734215924 0.7585900390625
vt 0.4040948167022357 0.8847652257035026
vt 0.20277841045223566 0.8847652257035026
vt 0.20277841045223566 0.8601519444535026
vt 0.4040948167022357 0.8601519444535026
vt 0.4040948167022357 0.8601519444535026
vt 0.20277841045223566 0.8601519444535026
vt 0.20277841045223566 0.8355388585160026
vt 0.4040948167022357 0.8355388585160026
vt 0.42422278513125433 0.9413078125
vt 0.2229063788812543 0.9413078125
vt 0.2229063788812543 0.9305765625
vt 0.42422278513125433 0.9305765625
vt 0.42422278513125433 0.9305765625
vt 0.2229063788812543 0.9305765625
vt 0.2229063788812543 0.909021484375
vt 0.42422278513125433 0.909021484375
vt 0.42422278513125433 0.909021484375
vt 0.2229063788812543 0.909021484375
vt 0.2229063788812543 0.884765625
vt 0.42422278513125433 0.8847658203125
vt 0.11679497609745451 0.941406640625
vt 0.3181113823474545 0.9414064453125
vt 0.3181113823474545 0.965662109375
vt 0.11679497609745451 0.9656623046875
vt 0.11679497609754927 0.9656623046874999
vt 0.3181113823474545 0.965662109375
vt 0.3181114032596905 0.9872171874999899
vt 0.11679499700978527 0.9872173828124898
vt 0.11679499700978527 0.9872173828124898
vt 0.3181114032596905 0.9872171874999899
vt 0.3181114136708999 0.9979484374999847
vt 0.11679500742099469 0.9979486328124848
vt 0.11544445487876245 0.7847580078125
vt 0.31676086112876245 0.7847580078125
vt 0.31676086112876245 0.80937109375
vt 0.11544445487876245 0.80937109375
vt 0.2229063788812543 0.909021484375
vt 0.2229063788812543 0.9305765625
vt 0.1725872382562543 0.9305765625
vt 0.1725872382562543 0.909021484375
vt 0.11544445487876245 0.80937109375
vt 0.31676086112876245 0.80937109375
vt 0.31676086112876245 0.833984375
vt 0.11544445487876245 0.833984375
vt 0.23654449272837338 0.7331991434398009
vt 0.4378608989783734 0.7331991434398009
vt 0.4378608989783734 0.757812229377301
vt 0.23654449272837338 0.757812229377301
vt 0.11679497609745451 0.941406640625
vt 0.11679497609745451 0.9656623284321688
vt 0.0001113428615665546 0.9625461828289512
vt 0.00011120258439722974 0.9465374099789765
vt 0.03668850599266933 0.84375
vt 0.021539414159373913 0.849609375
vt 0.005487541014632353 0.8471140225542866
vt 0.00042086900733066465 0.84375
vt 0.42422278513125433 0.909021484375
vt 0.42422278513125433 0.8847657965678312
vt 0.5409065486529347 0.8898962898889876
vt 0.5409064083757654 0.9059050627389623
vt 0.42422278513125433 0.9305765625
vt 0.42422278513125433 0.9090216301838259
vt 0.5406887229028967 0.9168007367529464
vt 0.540910395911911 0.9344058016025276
vt 0.42422278513125433 0.9413078125
vt 0.42422278513125433 0.930576566776372
vt 0.5404332624947408 0.9418412557480413
vt 0.23654449272837338 0.7331991434398009
vt 0.23654449272837338 0.7578123047347458
vt 0.12206255587504733 0.7547036883054352
vt 0.12206259753995388 0.7384590236810253
vt 0.4255652734215924 0.783203125
vt 0.4255652734215924 0.7585901463916946
vt 0.5400469711596327 0.7638502788756747
vt 0.5400469672291566 0.7800949435001375
vt 0.4040948167022357 0.8601519444535026
vt 0.4040948167022357 0.8355388252411877
vt 0.5188430921753509 0.853923778615632
vt 0.5189103360646412 0.8599836960748473
vt 0.11544445487876245 0.80937109375
vt 0.11544445487876245 0.8339841701473011
vt 0.0008486611496644203 0.8327395873127272
vt 0.0008486093531394623 0.8164950215710703
vt 0.4040948167022357 0.8847652257035026
vt 0.4040948167022357 0.8601521493062014
vt 0.5186906622278586 0.8672760771272718
vt 0.5186906104313337 0.8835206428689287
vt 0.11544445487876245 0.7847580078125
vt 0.11544445487876245 0.8093709958223287
vt 0.0006275816075841378 0.8092028792623157
vt 0.0006974916004892084 0.8031431157790584
vt 0.11679499700978527 0.9872173828124898
vt 0.11679500742099054 0.9979486285361128
vt 0.0005845305750930008 0.998482184528859
vt 0.11679497609754927 0.9656623046874999
vt 0.1167949970096552 0.9872172487583806
vt 0.00010257813747893696 0.9910458303307542
vt 0.0003337040983085737 0.9734409406022778
vt 0.1739299218590924 0.7585897771120733
vt 0.17392992185909242 0.7832029296875
vt 0.06356304136412627 0.7776942068663144
vt 0.06356304136412627 0.7530810542908877
vt 0.2229063788812543 0.9305765625
vt 0.2229063788812543 0.9413078125
vt 0.1725874335687543 0.9413078125
vt 0.1725874335687543 0.9305765625
vt 0.4378608989783734 0.7578122293780758
vt 0.4378608989783734 0.7331991434398009
vt 0.488180039603339 0.7331993474253482
vt 0.488179844290839 0.7578124333620733
vt 0.22424886717159243 0.75858984375
vt 0.22424886717159243 0.7832029296875
vt 0.17392992185909242 0.7832029296875
vt 0.17392992185909242 0.7585896484375
vt 0.20277841045223566 0.8355388585160026
vt 0.20277841045223566 0.8601519444535026
vt 0.15245946513973566 0.8601519444535026
vt 0.15245946513973566 0.8355388585160026
vt 0.31676086112876245 0.8339841796875
vt 0.31676086112876245 0.80937109375
vt 0.3670798064412625 0.80937109375
vt 0.3670798064412625 0.8339841796875
vt 0.20277841045223566 0.8601521397652276
vt 0.20277841045223566 0.8847652257035026
vt 0.15245946514131992 0.884765625
vt 0.15245926982881994 0.8601525390632749
vt 0.31676086112876245 0.80937109375
vt 0.31676086112876245 0.7847580078125
vt 0.36708000175376243 0.7847580078125
vt 0.36708000175376243 0.80937109375
vt 0.3181113823474545 0.9979484375
vt 0.3181113823474545 0.9872171875
vt 0.3684305229724545 0.9872171875
vt 0.3684305229724545 0.9979484375
vt 0.3181113823474545 0.9872171875
vt 0.3181113823474545 0.965662109375
vt 0.3684305229724545 0.965662109375
vt 0.3684305229724545 0.9872171875
vt 0.3181113823474545 0.965662109375
vt 0.3181113823474545 0.94140625
vt 0.3684305229724545 0.94140625
vt 0.3684305229724545 0.965662109375
vt 0.2229063788812543 0.884765625
vt 0.2229063788812543 0.909021484375
vt 0.1725874335687543 0.909021484375
vt 0.1725874335687543 0.884765625
vt 0.06276566854257071 0.9125393338672279
vt 0.06155766597088952 0.933863051822909
vt 0.019733673018931197 0.9148681699766669
vt 0.36979667633467317 0.9871735303359838
vt 0.3684305229724545 0.9656618943785324
vt 0.47825230272208535 0.9691797443423871
vt 0.4789820940445684 0.9900460246330477
vt 0.1725874335687543 0.909021484375
vt 0.1712195910706265 0.930533133841164
vt 0.0619413326606732 0.9333907502149729
vt 0.06285836437477055 0.9125363646016533
vt 0.4881798442903102 0.7578125
vt 0.488180039603339 0.7331993474253482
vt 0.598546963808261 0.7276915003998945
vt 0.5985467684952321 0.7523046529745462
vt 0.15245926982848643 0.8601524970363831
vt 0.15245946514131992 0.884765625
vt 0.042984743091583955 0.8697168554128067
vt 0.04343935991637071 0.8454090800630476
vt 0.3707203950260244 0.9978651562480757
vt 0.36979667633467317 0.9871735303359838
vt 0.47907446350593197 0.9900484547263382
vt 0.1725874335687543 0.8847658399964675
vt 0.1725874335687543 0.909021484375
vt 0.06276566854257071 0.9125393338672279
vt 0.06276566854257076 0.8882836894886954
vt 0.15245946513973566 0.8355388565507732
vt 0.15245946513973566 0.8601519444535026
vt 0.04398820269795406 0.8415127386905101
vt 0.36708000175376243 0.8093710957152294
vt 0.36708000175376243 0.7847580078125
vt 0.47555126419554405 0.7907318899522369
vt 0.3684305229724545 0.9656618943785324
vt 0.3684305229724545 0.94140625
vt 0.47825228799863806 0.9449240994922279
vt 0.47825228799863806 0.9691797438707603
vt 0.1712195910706265 0.930533133841164
vt 0.17029417895177562 0.9412246133119927
vt 0.061941349912856714 0.9333907497638299
vt 0.3670798064412625 0.8339841601653865
vt 0.3670798064412625 0.80937109375
vt 0.47614874232619786 0.7946264245732241
vt 0.47650494212340255 0.8189342606897494
vt 0.47825228799863806 0.9691797420361999
vt 0.47825228799863806 0.9449240994922279
vt 0.5409130468625211 0.948360778733732
vt 0.5212840376151621 0.9715085786809853
vt 0.04344347048838071 0.8451892930786469
vt 0.042984743091583955 0.8697168554128067
vt 0.0006209139353587911 0.8618110749518197
vt 0.4765081861904239 0.8191556427627456
vt 0.47614874232619786 0.7946264245732241
vt 0.5189036683924159 0.8114214023775659
vt 0.5985467684956651 0.7523045984007697
vt 0.598546963808261 0.7276915003998945
vt 0.6415347701050508 0.7246510343838191
vt 0.6611405691249527 0.7478178451403501
vt 0.4794602837304089 0.9905034603793654
vt 0.47825228799863806 0.9691797420361999
vt 0.5212842827752654 0.9715085919488129
vt 0.06276566854257076 0.8882836304336954
vt 0.06276566854257071 0.9125393338672279
vt 0.019733523732291647 0.9148681780558673
vt 0.00010522908808896503 0.8917203481205553
vt 0.06356304136412627 0.7530810840474678
vt 0.06356304136412627 0.7776942068663144
vt 0.0009686538403673173 0.7732064916548176
vt 0.020575608050518113 0.7500400331074744
vt 0.32186977156796626 0.6281131420471933
vt 0.375 0.6076135323438773
vt 0.375 0.671875
vt 0.3125 0.6684295041499885
vt 0.017578125 0.693359375
vt 0.017578125 0.7499004221395325
vt 0.013671875 0.751543764642443
vt 0.013671875 0.6950027175029105
vt 0.18591174956650192 0.6078430896924032
vt 0.18935727395624957 0.669921875
vt 0.12509585104375043 0.669921875
vt 0.1455954529911327 0.6172406295977386
vt 0.0016433425029105386 0.7890625
vt 0.058184389642442935 0.7890625
vt 0.05654104713953241 0.79296875
vt 0 0.79296875
vt 0.00660287344271468 0.71484375
vt 0.01292837655728532 0.7557710807217959
vt 0.009988215760364065 0.7589115645065704
vt 0.00660287344271468 0.7562570134510214
vt 0 0.771484375
vt 0 0.7072226696144411
vt 0.0033731937623042232 0.7045527698912962
vt 0.006213347021664858 0.7075358909770377
vt 0.03279686539848002 0.7831159425095402
vt 0.0347855429534302 0.7859329665658978
vt 0.033337619116863865 0.7890625
vt 0.000370707046569798 0.7890625
vt 0.49546953125000004 0.671875
vt 0.49609375 0.67578125
vt 0.33911484375 0.67578125
vt 0.33849062500000004 0.671875
vt 0.06976876623247498 0.96484375
vt 0.002399234301879334 0.970703125
vt 0.0005437337675250203 0.9677966527880787
vt 0.0021356506987146168 0.96484375
vt 0.533203125 0.66796875
vt 0.53257890625 0.671875
vt 0.37560000000000004 0.671875
vt 0.37622421875 0.66796875
vt 0.21041700487251497 0.4219233921236273
vt 0.21041700487251497 0.5699216343111273
vt 0.2767492680258806 0.5801139052550781
vt 0.2424355961508806 0.42693890525507805
vt 0 0.6639722689079195
vt 0.03225324398307794 0.51953125
vt 0.0625 0.5314115116487217
vt 0.0625 0.6883588311738084
vt 0.06795311539848002 0.7831159425095402
vt 0.0699417929534302 0.7859329665658978
vt 0.06849386911686386 0.7890625
vt 0.0355269570465698 0.7890625
vt 0.49682265625 0.67578125
vt 0.49744687499999996 0.6796875
vt 0.34046796874999996 0.6796875
vt 0.33984375 0.67578125
vt 0.06976876623247498 0.939453125
vt 0.002399234301879334 0.9453125
vt 0.0005437337675250203 0.9424060277880787
vt 0.0021356506987146168 0.939453125
vt 0.532603125 0.6640625
vt 0.53197890625 0.66796875
vt 0.375 0.66796875
vt 0.37562421874999996 0.6640625
vt 0.14401075487251497 0.4238765171236273
vt 0.14401075487251497 0.5718747593111273
vt 0.21034301802588062 0.5820670302550781
vt 0.17602934615088056 0.42889203025507805
vt 0.0625 0.6650665627341112
vt 0.09475324398307794 0.5206255438261916
vt 0.125 0.5325058054749134
vt 0.125 0.689453125
vt 0.05012462102608607 0.9336030302101294
vt 0.05229008370200869 0.9364110898951425
vt 0.05046787344624103 0.939453125
vt 0.0004442912979913116 0.939453125
vt 0.06150468749999999 0.873046875
vt 0.060547265624999985 0.876953125
vt 0 0.876953125
vt 0.0009574218749999891 0.873046875
vt 0.04010521328579947 0.931640625
vt 0.0031309018532694743 0.9375
vt 0.0009104117142005319 0.9347352484130201
vt 0.0026721967520725864 0.931640625
vt 0.11328164062499999 0.880859375
vt 0.11423906249999999 0.884765625
vt 0.05369179687499999 0.884765625
vt 0.052734375 0.880859375
vt 0.25105380859375 0.669921875
vt 0.19009404296875 0.669921875
vt 0.20013701171875 0.6338611328125
vt 0.25912470703125 0.62025234375
vt 0.25064091796875 0.5859375
vt 0.31160068359375 0.5859375
vt 0.31967158203125 0.634765625
vt 0.26068388671875004 0.6211353515625
vt 0.05012462102608607 0.8828217802101294
vt 0.05229008370200869 0.8856298398951425
vt 0.05046787344624103 0.888671875
vt 0.0004442912979913116 0.888671875
vt 0.0625 0.8359375
vt 0.061542578125 0.83984375
vt 0.0009953125000000118 0.83984375
vt 0.001952734375000001 0.8359375
vt 0.04010521328579947 0.92578125
vt 0.0031309018532694743 0.931640625
vt 0.0009104117142005319 0.9288758734130201
vt 0.0026721967520725864 0.92578125
vt 0.061542578125 0.876953125
vt 0.0625 0.880859375
vt 0.001952734375000001 0.880859375
vt 0.0009953125000000118 0.876953125
vt 0.40144443359375 0.73131015625
vt 0.34048466796875 0.73131015625
vt 0.35052763671875004 0.6952494140625001
vt 0.40951533203125 0.681640625
vt 0.36978154296875 0.587890625
vt 0.43074130859375 0.587890625
vt 0.43881220703125 0.63671875
vt 0.37982451171875004 0.6230884765625
vn 0.25881799196735894 9.371193431758898e-8 -0.9659261084751646
vn 0.7071067811865476 1.5700924586837752e-16 -0.7071067811865476
vn 0.9659259100929857 5.746930317004152e-17 -0.25881873234184105
vn 0.8047457096330753 -1.3181005075210105e-16 0.5936196954508485
vn 0.5899627453712086 -1.79285579054155e-16 0.807430467021196
vn 0.19821453095772906 -2.1763894253049873e-16 0.9801586604816629
vn -0.19821453095772812 -9.50927438506388e-8 0.9801586604816583
vn -0.5899627453712086 -1.79285579054155e-16 0.807430467021196
vn -0.8047457096330753 -1.3181005075210105e-16 0.5936196954508485
vn -0.9659259100929857 5.746930317004152e-17 -0.25881873234184105
vn 0.5899627453712085 -1.7928557905415497e-16 0.8074304670211959
vn -0.7071067811865476 1.5700924586837752e-16 -0.7071067811865476
vn -0.25881799196736005 2.144786811431418e-16 -0.9659261084751688
vn -0.19347223768956953 -0.21741725403408063 0.956712198569492
vn 0 -1 -2.220446049250313e-16
vn 0.19347225377808502 -0.21741688963823647 0.9567122781265344
vn 0.5769272923426024 -0.20905157440015704 0.7895899813137506
vn 0.7886945386422463 -0.19872961078783366 0.5817795686615427
vn -0.2574866508656044 -0.10132649388508005 -0.9609545079050159
vn 0.2574866480756855 -0.10132659972064681 -0.9609544974928834
vn 0.9587231249519851 -0.12189396029146951 -0.25688875437971664
vn -0.7027674758914846 -0.11061532289074281 -0.7027674758914846
vn 0.702767485260051 -0.1106152038488755 -0.702767485260051
vn -0.958149722955695 -0.1266340818190378 -0.2567351119768664
vn -0.7886945386422463 -0.19872961078783363 0.5817795686615427
vn -0.5758080592785585 -0.21773694274727212 0.7880581848016879
vn 0.25428962647741227 0.1862728847057964 -0.9490201253342099
vn 0.8047457096330752 -1.3181005075210105e-16 0.5936196954508485
vn -0.2588179919672873 7.498439520721291e-7 -0.9659261084748972
vn 0.25881799196736005 2.1447868114314182e-16 -0.9659261084751689
vn 0.9659259100929807 1.0045989000256427e-7 -0.2588187323418397
vn -0.7071067811865209 2.744618552573933e-7 -0.7071067811865209
vn 0.707106781186441 5.489237102701744e-7 -0.707106781186441
vn -0.9659259100929856 5.746930317004151e-17 -0.258818732341841
vn -0.8047457096330752 -1.3181005075210105e-16 0.5936196954508485
vn -0.5899627453712085 -1.7928557905415497e-16 0.8074304670211959
vn -0.19821453095772898 -2.176389425304987e-16 0.9801586604816628
vn 0.19821453095772898 -2.176389425304987e-16 0.9801586604816628
vn 0.3920848617910799 0.2508147906984866 0.8850770598773557
vn -0.5848773423990367 0.13101694751952017 0.8004705202634931
vn 0.5875706344249767 0.0899606707251367 0.8041565937577794
vn -0.2542896345742088 0.18627271970025494 -0.9490201555518121
vn 0.700392817219363 0.13747255057593302 -0.7003936032158429
vn -0.8033419465523179 0.05903955796710519 0.5925842113190172
vn 0.19571201553513404 0.1584019474058105 0.9677838756836273
vn 0.9656048771464314 0.02577780083885366 -0.2587329244895932
vn -0.9656048771464314 0.02577780083885366 -0.2587329244895932
vn -0.19571201553513404 0.15840194740581048 0.9677838756836273
vn 0.8033419465523179 0.0590395579671052 0.5925842113190172
vn -0.7029971994803978 0.10765113017925311 -0.7029979883995737
vn -0.19078504639376967 0.2712179430954348 0.943420316410246
vn 0.5904509607998286 0.2200458805652705 -0.7764969242288176
vn -0.5904509607998286 0.2200458805652705 -0.7764969242288176
vn -0.2496355022303934 0.26401461094500883 -0.9316535843508224
vn -0.3920848617910799 0.25081479069848656 0.8850770598773557
vn 0.19098416585003497 0.26762723899911817 0.944404949870698
vn 0.24938222078081163 0.26756405551540485 -0.9307083238880913
vn -0.9985964020372724 -0.043683215166863756 -0.029950000849744394
vn 0.6028803315286273 0.6580242958294453 0.45115333530197355
vn 0.9987772600185554 -0.048690143070775536 -0.008558903993766766
vn -0.6028804064891009 0.658024377646367 0.45115311579844836
vn 0 -2.220446049250313e-16 1
vn -0.19576890566991054 0.21367540050960718 -0.9570879577081015
vn -1 0 0
vn -0.31850338399514655 -0.8207337547128221 -0.4742907317865632
vn 1 0 0
vn -0.3185035808419218 -0.8207336974464268 0.47429069869310175
vn 0.006653163747514119 0.04414340757085229 -0.9990030505359744
vn 0.013648291445914312 0.09055572879412123 0.9957978630842572
vn -1 0 0
vn -0.31850338399514655 0.8207337547128221 0.4742907317865632
vn 1 0 0
vn -0.3185035808419218 0.8207336974464268 -0.47429069869310175
vn 0.006653163747514119 -0.04414340757085229 0.9990030505359744
vn 0.013648291445914312 -0.09055572879412123 -0.9957978630842572
vn -1 0 0
vn 0.41138865396076774 -0.7531411607827687 -0.5133592965235279
vn 1 0 0
vn 0.4113884239830616 -0.7531412465534848 0.5133593549869293
vn -0.021867536059797046 0.0782585088481657 -0.996693241002233
vn -0.015872118956493604 0.05680239229510218 0.9982592669589321
vn -1 0 0
vn 0.41138865396076774 0.7531411607827687 0.5133592965235279
vn 1 0 0
vn 0.4113884239830616 0.7531412465534848 -0.5133593549869293
vn -0.021867536059797046 -0.0782585088481657 0.996693241002233
vn -0.015872118956493604 -0.05680239229510218 -0.9982592669589321
usemtl missile_texture
f 1/1/1 2/2/1 3/3/1 4/4/1
f 4/5/2 3/6/2 5/7/2 6/8/2
f 6/9/3 5/10/3 7/11/3 8/12/3
f 8/13/4 7/14/4 9/15/4 10/16/4
f 10/17/5 9/18/5 11/19/5 12/20/5
f 12/21/6 11/22/6 13/23/6 14/24/6
f 14/25/7 13/26/7 15/27/7 16/28/7
f 16/29/8 15/30/8 17/31/8 18/32/8
f 18/33/9 17/34/9 19/35/9 20/36/9
f 20/37/10 19/38/10 21/39/10 22/40/10
f 11/41/11 9/42/11 23/43/11 24/44/11
f 22/45/12 21/46/12 25/47/12 26/48/12
f 26/49/13 25/50/13 2/51/13 1/52/13
f 14/53/14 16/54/14 27/55/14 28/56/14
f 29/57/15 30/58/15 31/59/15 32/60/15
f 12/61/16 14/62/16 28/63/16 33/64/16
f 10/65/17 12/66/17 33/67/17 32/68/17
f 8/69/18 10/70/18 32/71/18
f 26/72/19 1/73/19 29/74/19 34/75/19
f 1/76/20 4/77/20 30/78/20 29/79/20
f 6/80/21 8/81/21 32/82/21 31/83/21
f 22/84/22 26/85/22 34/86/22 35/87/22
f 4/88/23 6/89/23 31/90/23 30/91/23
f 20/92/24 22/93/24 35/94/24 36/95/24
f 18/96/25 20/97/25 36/98/25
f 16/99/26 18/100/26 36/101/26 27/102/26
f 37/103/27 38/104/27 39/105/27 40/106/27
f 9/107/28 7/108/28 41/109/28 23/110/28
f 2/111/29 25/112/29 42/113/29 38/114/29
f 3/115/30 2/116/30 38/117/30 37/118/30
f 7/119/31 5/120/31 43/121/31 41/122/31
f 25/123/32 21/124/32 44/125/32 42/126/32
f 5/127/33 3/128/33 37/129/33 43/130/33
f 21/131/34 19/132/34 45/133/34 44/134/34
f 19/135/35 17/136/35 46/137/35 45/138/35
f 17/139/36 15/140/36 47/141/36 46/142/36
f 15/143/37 13/144/37 48/145/37 47/146/37
f 13/147/38 11/148/38 24/149/38 48/150/38
f 49/151/39 50/152/39 51/153/39
f 46/154/40 47/155/40 52/156/40 53/157/40
f 24/158/41 23/159/41 50/160/41 49/161/41
f 38/162/42 42/163/42 54/164/42 39/165/42
f 43/166/43 37/167/43 40/168/43 50/169/43
f 45/170/44 46/171/44 53/172/44
f 48/173/45 24/174/45 49/175/45 55/176/45
f 41/177/46 43/178/46 50/179/46
f 44/180/47 45/181/47 53/182/47
f 47/183/48 48/184/48 55/185/48 52/186/48
f 23/187/49 41/188/49 50/189/49
f 42/190/50 44/191/50 53/192/50 54/193/50
f 52/194/51 55/195/51 56/196/51 57/197/51
f 50/198/52 40/199/52 51/200/52
f 54/201/53 53/202/53 57/203/53
f 39/204/54 54/205/54 57/206/54 56/207/54
f 53/208/55 52/209/55 57/210/55
f 55/211/56 49/212/56 51/213/56 56/214/56
f 40/215/57 39/216/57 56/217/57 51/218/57
f 58/219/58 59/220/58 60/221/58 61/222/58
f 62/223/59 63/224/59 64/225/59 65/226/59
f 61/227/60 60/228/60 63/229/60 62/230/60
f 65/231/61 64/232/61 59/233/61 58/234/61
f 61/235/62 62/236/62 65/237/62 58/238/62
f 60/239/63 59/240/63 64/241/63 63/242/63
f 66/243/64 67/244/64 68/245/64 69/246/64
f 70/247/65 71/248/65 67/249/65 66/250/65
f 72/251/66 73/252/66 71/253/66 70/254/66
f 71/255/67 73/256/67 68/257/67 67/258/67
f 69/259/68 72/260/68 70/261/68 66/262/68
f 72/263/69 69/264/69 68/265/69 73/266/69
f 74/267/70 75/268/70 76/269/70 77/270/70
f 78/271/71 79/272/71 75/273/71 74/274/71
f 80/275/72 81/276/72 79/277/72 78/278/72
f 79/279/73 81/280/73 76/281/73 75/282/73
f 77/283/74 80/284/74 78/285/74 74/286/74
f 80/287/75 77/288/75 76/289/75 81/290/75
f 82/291/76 83/292/76 84/293/76 85/294/76
f 86/295/77 87/296/77 83/297/77 82/298/77
f 88/299/78 89/300/78 87/301/78 86/302/78
f 87/303/79 89/304/79 84/305/79 83/306/79
f 85/307/80 88/308/80 86/309/80 82/310/80
f 88/311/81 85/312/81 84/313/81 89/314/81
f 90/315/82 91/316/82 92/317/82 93/318/82
f 94/319/83 95/320/83 91/321/83 90/322/83
f 96/323/84 97/324/84 95/325/84 94/326/84
f 95/327/85 97/328/85 92/329/85 91/330/85
f 93/331/86 96/332/86 94/333/86 90/334/86
f 96/335/87 93/336/87 92/337/87 97/338/87