# Blender 4.2.22 LTS
# www.blender.org
mtllib shahedjarty_body.mtl
o chudhed-136
v 0.101191 7.278965 -1.157855
v 0.072066 0.835957 -1.049159
v -0.101190 7.278965 -1.157855
v -0.072065 0.835957 -1.049159
v -0.276457 7.278965 -1.056664
v -0.196886 0.835957 -0.977094
v -0.377647 7.278965 -0.881397
v -0.268952 0.835957 -0.852272
v -0.377647 7.278965 -0.679017
v -0.268952 0.835957 -0.708142
v -0.276457 7.278965 -0.503750
v -0.196886 0.835957 -0.583320
v -0.101190 7.278965 -0.402559
v -0.072065 0.835957 -0.511255
v 0.101191 7.278965 -0.402559
v 0.072066 0.835957 -0.511255
v 0.276458 7.278965 -0.503750
v 0.196887 0.835957 -0.583320
v 0.377648 7.278965 -0.679017
v 0.268952 0.835957 -0.708142
v 0.377648 7.278965 -0.881397
v 0.268952 0.835957 -0.852272
v 0.276458 7.278965 -1.056664
v 0.196887 0.835957 -0.977094
v 0.025612 7.992241 -0.875791
v -0.025611 7.992241 -0.875791
v -0.069972 7.992241 -0.850180
v -0.095584 7.992241 -0.805819
v -0.095584 7.992241 -0.754595
v -0.069972 7.992241 -0.710234
v -0.025611 7.992241 -0.684623
v 0.025612 7.992241 -0.684623
v 0.069973 7.992241 -0.710234
v 0.095585 7.992241 -0.754595
v 0.095585 7.992241 -0.805819
v 0.069973 7.992241 -0.850180
v -0.101190 0.835957 -1.157855
v 0.101190 0.835957 -1.157855
v -0.276457 0.835957 -1.056664
v -0.377647 0.835957 -0.881397
v -0.377647 0.835957 -0.679017
v -0.276457 0.835957 -0.503750
v -0.101190 0.835957 -0.402559
v 0.101190 0.835957 -0.402559
v 0.276457 0.835957 -0.503750
v 0.377648 0.835957 -0.679017
v 0.377648 0.835957 -0.881397
v 0.276457 0.835957 -1.056664
v -0.072065 0.734111 -1.049159
v 0.072066 0.734111 -1.049159
v -0.196887 0.734111 -0.977094
v -0.268952 0.734111 -0.852273
v -0.268952 0.734111 -0.708142
v -0.196887 0.734111 -0.583320
v -0.072065 0.734111 -0.511255
v 0.072066 0.734111 -0.511255
v 0.196887 0.734111 -0.583320
v 0.268952 0.734111 -0.708142
v 0.268952 0.734111 -0.852272
v 0.196887 0.734111 -0.977094
v -0.777260 4.752438 -1.010763
v -0.777260 4.752438 -0.549651
v -0.777261 0.847058 -1.010763
v -0.777261 0.847058 -0.549651
v 0.777261 4.752437 -1.010763
v 0.777261 4.752437 -0.549651
v 0.777260 0.847058 -1.010763
v 0.777260 0.847058 -0.549651
v 1.505865 3.679359 -0.620748
v 1.505864 0.847058 -0.620748
v -1.505864 3.679359 -0.939666
v -1.505864 3.679359 -0.620748
v 1.505864 0.847058 -0.939666
v -1.505865 0.847058 -0.939666
v -1.505865 0.847058 -0.620748
v 1.505865 3.679359 -0.939666
v 2.015887 2.923218 -0.650103
v 2.015887 0.847057 -0.650103
v -2.015887 2.923218 -0.910311
v -2.015887 2.923218 -0.650103
v 2.015887 0.847057 -0.910311
v -2.015888 0.847058 -0.910311
v -2.015888 0.847058 -0.650103
v 2.015887 2.923218 -0.910311
v 2.380190 2.398039 -0.688042
v 2.380190 0.847057 -0.688042
v -2.380190 2.398039 -0.872372
v -2.380190 2.398039 -0.688042
v 2.380190 0.847057 -0.872372
v -2.380190 0.847058 -0.872372
v -2.380190 0.847058 -0.688042
v 2.380190 2.398038 -0.872372
v 2.865926 1.708721 -0.719720
v 2.865926 0.847057 -0.719720
v -2.865927 1.708721 -0.840694
v -2.865927 1.708721 -0.719720
v 2.865926 0.847057 -0.840694
v -2.865927 0.847058 -0.840694
v -2.865927 0.847058 -0.719720
v 2.865926 1.708721 -0.840694
v -0.000000 0.847058 -1.088306
v -0.000000 0.847058 -0.472108
v 0.777260 0.480998 -0.780207
v -0.777261 0.480998 -0.780207
v 1.505864 0.480998 -0.780207
v -1.505865 0.480998 -0.780207
v 2.015887 0.480997 -0.780207
v -2.015888 0.480998 -0.780207
v 2.380189 0.480997 -0.780207
v -2.380190 0.480998 -0.780207
v 2.865926 0.480997 -0.780207
v -2.865927 0.480998 -0.780207
v 0.589806 0.847058 -0.549651
v 0.589806 0.847058 -1.010763
v -0.589807 0.847058 -1.010763
v -0.589807 0.847058 -0.549651
v 0.589806 0.480998 -0.780207
v -0.589807 0.480998 -0.780207
v 0.269737 5.476835 -0.549651
v -0.269736 5.476835 -0.549651
v 0.000000 5.622478 -0.542702
v -0.269736 5.476835 -1.010763
v 0.269737 5.476835 -1.010763
v 0.000000 5.622478 -1.017712
v 2.989492 0.480997 -0.780207
v 2.989492 0.847057 -0.719720
v 2.989492 1.658720 -0.719720
v -2.989493 1.658721 -0.840694
v -2.989493 0.847058 -0.840694
v 2.989492 0.847057 -0.840694
v 2.989492 1.658720 -0.840694
v -2.989493 0.847058 -0.719720
v -2.989493 1.658721 -0.719720
v -2.989493 0.480998 -0.780207
v 2.864369 1.077934 -0.262915
v 2.864369 1.077934 -1.297499
v 2.864369 0.262936 -0.262915
v 2.864369 0.262936 -1.297499
v 2.975630 1.077931 -0.262915
v 2.975630 1.077931 -1.297499
v 2.975630 0.262933 -0.262915
v 2.975630 0.262933 -1.297499
v 2.864369 1.328666 -0.780207
v 2.975631 1.328666 -0.780207
v -2.975631 1.077934 -0.262915
v -2.975631 1.077934 -1.297499
v -2.975631 0.262936 -0.262915
v -2.975631 0.262936 -1.297499
v -2.864369 1.077934 -0.262915
v -2.864369 1.077934 -1.297499
v -2.864369 0.262936 -0.262915
v -2.864369 0.262936 -1.297499
v -2.975631 1.328666 -0.780207
v -2.864369 1.328666 -0.780207
v 0.060960 7.831811 -1.007711
v 0.085344 7.621925 -1.098715
v -0.085343 7.621925 -1.098715
v -0.060959 7.831811 -1.007711
v -0.233163 7.621925 -1.013371
v -0.166544 7.831811 -0.946751
v -0.318507 7.621925 -0.865551
v -0.227503 7.831811 -0.841167
v -0.318507 7.621925 -0.694863
v -0.227503 7.831811 -0.719248
v -0.233163 7.621925 -0.547043
v -0.166544 7.831811 -0.613663
v -0.085343 7.621925 -0.461699
v -0.060959 7.831811 -0.552703
v 0.085344 7.621925 -0.461699
v 0.060960 7.831811 -0.552703
v 0.233164 7.621925 -0.547043
v 0.166545 7.831811 -0.613663
v 0.318508 7.621925 -0.694863
v 0.227504 7.831811 -0.719248
v 0.318508 7.621925 -0.865551
v 0.227504 7.831811 -0.841166
v 0.233164 7.621925 -1.013371
v 0.166545 7.831811 -0.946751
v 1.209048 2.549079 -0.925017
v 1.209048 2.549079 -0.975017
v 1.209048 2.240584 -0.925017
v 1.209048 2.240584 -0.975017
v 1.517543 2.549079 -0.925017
v 1.517543 2.549079 -0.975017
v 1.517543 2.240584 -0.925017
v 1.517543 2.240584 -0.975017
v 1.274956 2.423705 -0.891097
v 1.274956 2.423705 -0.991097
v 1.316646 2.440973 -0.891097
v 1.316646 2.440973 -0.991097
v 1.333914 2.482663 -0.891097
v 1.333914 2.482663 -0.991097
v 1.316646 2.524352 -0.891097
v 1.316646 2.524352 -0.991097
v 1.274956 2.541621 -0.891097
v 1.274956 2.541621 -0.991097
v 1.233267 2.524352 -0.891097
v 1.233267 2.524352 -0.991097
v 1.215999 2.482663 -0.891097
v 1.215999 2.482663 -0.991097
v 1.233267 2.440973 -0.891097
v 1.233267 2.440973 -0.991097
v 1.442799 2.423705 -0.891097
v 1.442799 2.423705 -0.991097
v 1.484489 2.440973 -0.891097
v 1.484489 2.440973 -0.991097
v 1.501757 2.482663 -0.891097
v 1.501757 2.482663 -0.991097
v 1.484489 2.524352 -0.891097
v 1.484489 2.524352 -0.991097
v 1.442799 2.541621 -0.891097
v 1.442799 2.541621 -0.991097
v 1.401110 2.524352 -0.891097
v 1.401110 2.524352 -0.991097
v 1.383841 2.482663 -0.891097
v 1.383841 2.482663 -0.991097
v 1.401110 2.440973 -0.891097
v 1.401110 2.440973 -0.991097
v 1.442799 2.247994 -0.891097
v 1.442799 2.247994 -0.991097
v 1.484489 2.265263 -0.891097
v 1.484489 2.265263 -0.991097
v 1.501757 2.306952 -0.891097
v 1.501757 2.306952 -0.991097
v 1.484489 2.348642 -0.891097
v 1.484489 2.348642 -0.991097
v 1.442799 2.365910 -0.891097
v 1.442799 2.365910 -0.991097
v 1.401110 2.348642 -0.891097
v 1.401110 2.348642 -0.991097
v 1.383841 2.306952 -0.891097
v 1.383841 2.306952 -0.991097
v 1.401110 2.265263 -0.891097
v 1.401110 2.265263 -0.991097
v 1.274956 2.247994 -0.891097
v 1.274956 2.247994 -0.991097
v 1.316646 2.265263 -0.891097
v 1.316646 2.265263 -0.991097
v 1.333915 2.306952 -0.891097
v 1.333915 2.306952 -0.991097
v 1.316646 2.348642 -0.891097
v 1.316646 2.348642 -0.991097
v 1.274956 2.365910 -0.891097
v 1.274956 2.365910 -0.991097
v 1.233267 2.348642 -0.891097
v 1.233267 2.348642 -0.991097
v 1.215999 2.306952 -0.891097
v 1.215999 2.306952 -0.991097
v 1.233267 2.265263 -0.891097
v 1.233267 2.265263 -0.991097
v 2.380190 2.561925 -0.734093
v 2.380190 2.561925 -0.826321
v 1.505865 3.870277 -0.713565
v 1.505865 3.870277 -0.846849
v -1.505864 3.870277 -0.713565
v -1.505864 3.870277 -0.846849
v -2.865927 1.861901 -0.747968
v -2.865927 1.861901 -0.812446
v -2.380190 2.561926 -0.734093
v -2.380190 2.561925 -0.826321
v 2.865926 1.861900 -0.747968
v 2.865926 1.861900 -0.812446
v 2.015887 3.101904 -0.839433
v 2.015887 3.101904 -0.720981
v 0.777261 4.968457 -0.858918
v 0.777261 4.968457 -0.701496
v -0.777260 4.968457 -0.858918
v -0.777260 4.968457 -0.701496
v -2.015887 3.101904 -0.839433
v -2.015887 3.101904 -0.720981
v -0.377647 5.532535 -0.881397
v -0.377647 5.532535 -0.679017
v 0.377648 5.532535 -0.679017
v 0.377648 5.532535 -0.881397
v -2.923428 1.768285 -0.747867
v -2.923428 1.768285 -0.812547
v 2.923427 1.768284 -0.812547
v 2.923427 1.768284 -0.747867
v 0.101191 5.532535 -1.157855
v -0.101190 5.532535 -1.157855
v -0.276457 5.532535 -1.056664
v -0.276457 5.532535 -0.503750
v -0.101190 5.532535 -0.402559
v 0.101191 5.532535 -0.402559
v 0.276457 5.532535 -0.503750
v 0.276457 5.532535 -1.056664
vt 0.013333 0.953000
vt 0.013333 0.878000
vt 0.015333 0.878000
vt 0.015333 0.953000
vt 0.017333 0.878000
vt 0.017333 0.953000
vt 0.019333 0.878000
vt 0.019333 0.953000
vt 0.021333 0.878000
vt 0.021333 0.953000
vt 0.023333 0.878000
vt 0.023333 0.953000
vt 0.025333 0.878000
vt 0.025333 0.953000
vt 0.027333 0.878000
vt 0.027333 0.953000
vt 0.029333 0.878000
vt 0.029333 0.953000
vt 0.031333 0.878000
vt 0.031333 0.953000
vt 0.033333 0.878000
vt 0.033333 0.953000
vt 0.052667 0.967000
vt 0.051333 0.967000
vt 0.051333 0.965000
vt 0.052667 0.965000
vt 0.009333 0.953000
vt 0.009333 0.878000
vt 0.011333 0.878000
vt 0.011333 0.953000
vt 0.064667 0.971000
vt 0.062667 0.971000
vt 0.062667 0.968000
vt 0.064667 0.968000
vt 0.060667 0.981000
vt 0.058667 0.981000
vt 0.058667 0.975000
vt 0.060667 0.975000
vt 0.042667 0.971000
vt 0.040667 0.971000
vt 0.040667 0.968000
vt 0.042667 0.968000
vt 0.044667 0.971000
vt 0.044667 0.968000
vt 0.046667 0.971000
vt 0.046667 0.968000
vt 0.048667 0.971000
vt 0.048667 0.968000
vt 0.050667 0.971000
vt 0.050667 0.968000
vt 0.056667 0.971000
vt 0.054667 0.971000
vt 0.054667 0.968000
vt 0.056667 0.968000
vt 0.063401 0.990821
vt 0.063922 0.990821
vt 0.064373 0.991081
vt 0.064634 0.991533
vt 0.064634 0.992054
vt 0.064373 0.992505
vt 0.063922 0.992766
vt 0.063401 0.992766
vt 0.062949 0.992505
vt 0.062689 0.992054
vt 0.062689 0.991533
vt 0.062949 0.991081
vt 0.052667 0.971000
vt 0.052667 0.968000
vt 0.062667 0.981000
vt 0.062667 0.975000
vt 0.056667 0.981000
vt 0.056667 0.975000
vt 0.054667 0.981000
vt 0.054667 0.975000
vt 0.052667 0.981000
vt 0.052667 0.975000
vt 0.050667 0.981000
vt 0.050667 0.975000
vt 0.048667 0.981000
vt 0.048667 0.975000
vt 0.046667 0.981000
vt 0.046667 0.975000
vt 0.044667 0.981000
vt 0.044667 0.975000
vt 0.042667 0.981000
vt 0.042667 0.975000
vt 0.040667 0.981000
vt 0.040667 0.975000
vt 0.064667 0.981000
vt 0.064667 0.975000
vt 0.060667 0.971000
vt 0.058667 0.971000
vt 0.058667 0.968000
vt 0.060667 0.968000
vt 0.058558 0.991738
vt 0.059252 0.990536
vt 0.060298 0.990817
vt 0.059324 0.992504
vt 0.059252 0.989149
vt 0.060298 0.988869
vt 0.058558 0.987948
vt 0.059324 0.987182
vt 0.057357 0.987254
vt 0.057637 0.986208
vt 0.055970 0.987254
vt 0.055689 0.986208
vt 0.054768 0.987948
vt 0.054002 0.987182
vt 0.054075 0.989149
vt 0.053028 0.988869
vt 0.054075 0.990536
vt 0.053028 0.990817
vt 0.054768 0.991738
vt 0.054002 0.992504
vt 0.055970 0.992431
vt 0.055689 0.993478
vt 0.057357 0.992431
vt 0.057637 0.993478
vt 0.045820 0.984544
vt 0.046609 0.986447
vt 0.046609 0.988645
vt 0.045820 0.990548
vt 0.044453 0.991647
vt 0.042874 0.991647
vt 0.041507 0.990548
vt 0.040718 0.988645
vt 0.040718 0.986447
vt 0.041507 0.984544
vt 0.042874 0.983445
vt 0.044453 0.983445
vt 0.048667 0.967000
vt 0.047333 0.967000
vt 0.047333 0.965000
vt 0.048667 0.965000
vt 0.042000 0.967000
vt 0.040667 0.967000
vt 0.040667 0.965000
vt 0.042000 0.965000
vt 0.044667 0.967000
vt 0.043333 0.967000
vt 0.043333 0.965000
vt 0.044667 0.965000
vt 0.054000 0.967000
vt 0.054000 0.965000
vt 0.050000 0.967000
vt 0.050000 0.965000
vt 0.046000 0.967000
vt 0.046000 0.965000
vt 0.055333 0.967000
vt 0.055333 0.965000
vt 0.056667 0.967000
vt 0.056667 0.965000
vt 0.096000 0.926000
vt 0.096000 0.917000
vt 0.104000 0.919000
vt 0.104000 0.925000
vt 0.090000 0.932000
vt 0.090000 0.934000
vt 0.088667 0.934000
vt 0.071333 0.847000
vt 0.066000 0.858000
vt 0.063333 0.859000
vt 0.063333 0.791000
vt 0.071333 0.791000
vt 0.070667 0.943000
vt 0.070667 0.940000
vt 0.080667 0.940000
vt 0.080667 0.943000
vt 0.079333 0.789000
vt 0.079333 0.747000
vt 0.084667 0.760000
vt 0.084667 0.789000
vt 0.046000 0.747000
vt 0.046000 0.789000
vt 0.040667 0.789000
vt 0.040667 0.760000
vt 0.071333 0.789000
vt 0.071333 0.733000
vt 0.054000 0.733000
vt 0.054000 0.789000
vt 0.054000 0.791000
vt 0.054000 0.847000
vt 0.046000 0.833000
vt 0.046000 0.791000
vt 0.079333 0.791000
vt 0.079333 0.833000
vt 0.044667 0.934000
vt 0.054000 0.934000
vt 0.054000 0.938000
vt 0.044667 0.938000
vt 0.119333 0.948000
vt 0.124667 0.948000
vt 0.124667 0.954000
vt 0.119333 0.954000
vt 0.068000 0.934000
vt 0.068000 0.938000
vt 0.040667 0.791000
vt 0.040667 0.820000
vt 0.036667 0.813000
vt 0.036667 0.791000
vt 0.084667 0.791000
vt 0.084667 0.820000
vt 0.088000 0.948000
vt 0.096000 0.948000
vt 0.096000 0.954000
vt 0.088000 0.954000
vt 0.068000 0.941000
vt 0.068000 0.945000
vt 0.054000 0.945000
vt 0.054000 0.941000
vt 0.082667 0.960000
vt 0.078667 0.960000
vt 0.078667 0.954000
vt 0.082667 0.954000
vt 0.031333 0.803000
vt 0.031333 0.791000
vt 0.133333 0.960000
vt 0.128667 0.960000
vt 0.128667 0.954000
vt 0.133333 0.954000
vt 0.036667 0.789000
vt 0.036667 0.767000
vt 0.088667 0.767000
vt 0.088667 0.789000
vt 0.088667 0.791000
vt 0.088667 0.813000
vt 0.128667 0.948000
vt 0.133333 0.948000
vt 0.082667 0.948000
vt 0.031333 0.789000
vt 0.031333 0.777000
vt 0.094000 0.777000
vt 0.094000 0.789000
vt 0.094000 0.791000
vt 0.094000 0.803000
vt 0.074000 0.948000
vt 0.078667 0.948000
vt 0.074000 0.954000
vt 0.088000 0.925000
vt 0.088000 0.919000
vt 0.062000 0.859000
vt 0.059333 0.858000
vt 0.062000 0.791000
vt 0.124667 0.960000
vt 0.119333 0.960000
vt 0.097333 0.954000
vt 0.097333 0.947000
vt 0.099333 0.947000
vt 0.099333 0.954000
vt 0.074000 0.960000
vt 0.096000 0.960000
vt 0.088000 0.960000
vt 0.111333 0.948000
vt 0.111333 0.954000
vt 0.111333 0.960000
vt 0.103333 0.957000
vt 0.099333 0.961000
vt 0.108000 0.961000
vt 0.104000 0.957000
vt 0.108000 0.954000
vt 0.110000 0.947000
vt 0.110000 0.954000
vt 0.108000 0.947000
vt 0.110000 0.961000
vt 0.097333 0.961000
vt 0.117333 0.937000
vt 0.113333 0.937000
vt 0.113333 0.935000
vt 0.117333 0.935000
vt 0.104667 0.931000
vt 0.113333 0.931000
vt 0.113333 0.933000
vt 0.104667 0.933000
vt 0.089333 0.943000
vt 0.098667 0.943000
vt 0.098667 0.946000
vt 0.089333 0.946000
vt 0.080667 0.935000
vt 0.080667 0.938000
vt 0.070667 0.938000
vt 0.070667 0.935000
vt 0.063333 0.721000
vt 0.066000 0.722000
vt 0.063333 0.789000
vt 0.090000 0.937000
vt 0.090000 0.935000
vt 0.088667 0.935000
vt 0.058667 0.722000
vt 0.062000 0.721000
vt 0.062000 0.789000
vt 0.091333 0.938000
vt 0.091333 0.936000
vt 0.092667 0.936000
vt 0.088000 0.939000
vt 0.081333 0.939000
vt 0.081333 0.936000
vt 0.088000 0.936000
vt 0.044667 0.941000
vt 0.044667 0.945000
vt 0.088000 0.943000
vt 0.081333 0.943000
vt 0.081333 0.940000
vt 0.088000 0.940000
vt 0.117333 0.934000
vt 0.091333 0.932000
vt 0.091333 0.934000
vt 0.092667 0.934000
vt 0.117333 0.931000
vt 0.117333 0.933000
vt 0.104667 0.937000
vt 0.104667 0.935000
vt 0.060667 0.911000
vt 0.060667 0.895000
vt 0.070000 0.895000
vt 0.070000 0.911000
vt 0.071333 0.895000
vt 0.071333 0.911000
vt 0.081333 0.895000
vt 0.081333 0.911000
vt 0.058667 0.903000
vt 0.071333 0.924000
vt 0.070000 0.924000
vt 0.070000 0.882000
vt 0.071333 0.882000
vt 0.071333 0.933000
vt 0.070000 0.933000
vt 0.070000 0.873000
vt 0.071333 0.873000
vt 0.082667 0.903000
vt 0.076000 0.987000
vt 0.076000 0.986000
vt 0.079333 0.986000
vt 0.079333 0.987000
vt 0.080000 0.986000
vt 0.079333 0.981000
vt 0.080000 0.981000
vt 0.079333 0.980000
vt 0.076000 0.981000
vt 0.076000 0.980000
vt 0.075333 0.981000
vt 0.075333 0.986000
vt 0.076000 0.990000
vt 0.076000 0.988000
vt 0.076667 0.988000
vt 0.076667 0.990000
vt 0.077333 0.988000
vt 0.077333 0.990000
vt 0.078000 0.988000
vt 0.078000 0.990000
vt 0.078667 0.988000
vt 0.078667 0.990000
vt 0.079333 0.988000
vt 0.079333 0.990000
vt 0.080000 0.988000
vt 0.080000 0.990000
vt 0.076753 0.991740
vt 0.077088 0.991404
vt 0.077563 0.991404
vt 0.077899 0.991740
vt 0.077899 0.992215
vt 0.077563 0.992550
vt 0.077088 0.992550
vt 0.076753 0.992215
vt 0.080667 0.988000
vt 0.080667 0.990000
vt 0.081333 0.988000
vt 0.081333 0.990000
vt 0.077097 0.991390
vt 0.077571 0.991390
vt 0.077907 0.991726
vt 0.077907 0.992200
vt 0.077571 0.992536
vt 0.077097 0.992536
vt 0.076761 0.992200
vt 0.076761 0.991726
vt 0.077903 0.991740
vt 0.077903 0.992215
vt 0.077567 0.992550
vt 0.077092 0.992550
vt 0.076757 0.992215
vt 0.076757 0.991740
vt 0.077092 0.991404
vt 0.077567 0.991404
vt 0.077903 0.991726
vt 0.077903 0.992200
vt 0.077567 0.992536
vt 0.077092 0.992536
vt 0.076757 0.992200
vt 0.076757 0.991726
vt 0.077092 0.991390
vt 0.077567 0.991390
vt 0.089333 0.939000
vt 0.098667 0.939000
vt 0.098667 0.942000
vt 0.089333 0.942000
vt 0.011333 0.981000
vt 0.013333 0.981000
vt 0.009333 0.981000
vt 0.031333 0.981000
vt 0.033333 0.981000
vt 0.029333 0.981000
vt 0.027333 0.981000
vt 0.025333 0.981000
vt 0.023333 0.981000
vt 0.021333 0.981000
vt 0.019333 0.981000
vt 0.017333 0.981000
vt 0.015333 0.981000
s 0
usemtl Material
vn 0.258821 -0.000000 -0.965925
vn -0.258821 0.000000 -0.965925
vn -0.707108 0.000000 -0.707106
vn -0.965926 0.000000 -0.258819
vn -0.960559 0.049388 -0.273657
vn -0.965926 0.000000 0.258819
vn -0.960559 0.049388 0.273657
vn -0.707108 0.000000 0.707106
vn -0.258821 0.000000 0.965925
vn 0.258821 -0.000000 0.965925
vn 0.707107 -0.000000 0.707106
vn 0.965925 0.000000 0.258821
vn 0.960558 0.049388 0.273659
vn 0.965925 0.000000 -0.258821
vn 0.960558 0.049388 -0.273659
vn 0.707107 -0.000000 -0.707106
vn 0.837654 0.497954 -0.224448
vn 0.613206 0.497954 -0.613205
vn 0.323164 0.889455 -0.323164
vn 0.441451 0.889455 -0.118286
vn 0.258724 0.027350 -0.965564
vn -0.258723 0.027350 -0.965564
vn -0.250110 0.257248 -0.933418
vn 0.250110 0.257248 -0.933418
vn 0.837654 0.497954 0.224448
vn 0.441451 0.889455 0.118286
vn 0.613206 0.497954 0.613205
vn 0.323164 0.889455 0.323164
vn 0.224449 0.497955 0.837653
vn 0.118286 0.889455 0.441450
vn -0.224449 0.497955 0.837653
vn -0.118286 0.889455 0.441450
vn -0.613206 0.497954 0.613205
vn -0.323164 0.889455 0.323164
vn -0.613205 0.497954 -0.613206
vn -0.837654 0.497954 -0.224448
vn -0.441450 0.889455 -0.118286
vn -0.323163 0.889455 -0.323164
vn 0.118286 0.889455 -0.441450
vn -0.118286 0.889455 -0.441450
vn -0.441451 0.889454 0.118286
vn -0.837654 0.497954 0.224448
vn 0.706843 0.027350 -0.706841
vn 0.683310 0.257247 -0.683309
vn -0.706843 0.027350 -0.706841
vn -0.683310 0.257247 -0.683309
vn -0.965565 0.027350 -0.258722
vn -0.933418 0.257247 -0.250108
vn -0.965565 0.027350 0.258722
vn -0.933418 0.257248 0.250108
vn -0.706843 0.027350 0.706841
vn -0.683310 0.257247 0.683309
vn -0.258723 0.027350 0.965564
vn -0.250110 0.257248 0.933418
vn 0.258724 0.027350 0.965564
vn 0.250110 0.257248 0.933418
vn 0.706843 0.027350 0.706841
vn 0.683310 0.257247 0.683309
vn 0.965564 0.027350 0.258723
vn 0.933418 0.257247 0.250108
vn 0.965564 0.027350 -0.258723
vn 0.933418 0.257247 -0.250108
vn 0.224449 0.497955 -0.837653
vn -0.224449 0.497955 -0.837653
vn 0.000000 -1.000000 -0.000000
vn 0.000000 -0.989144 -0.146948
vn 0.000000 -0.989144 0.146948
vn 0.089380 0.026430 0.995647
vn 0.200578 0.253547 0.946299
vn 0.345163 0.211790 0.914334
vn -0.109203 0.029401 -0.993585
vn -0.082770 0.026062 -0.996228
vn -0.000000 0.008502 -0.999964
vn -0.072687 -0.025006 -0.997041
vn -0.130147 0.032843 0.990951
vn -0.767932 0.498777 0.401873
vn -0.745378 0.484307 0.458102
vn -0.116185 0.030249 0.992767
vn -0.078966 -0.051677 0.995537
vn -0.068359 -0.051025 0.996355
vn 0.130147 0.032843 0.990951
vn 0.078966 -0.051677 0.995537
vn 0.068358 -0.051025 0.996355
vn 0.116185 0.030249 0.992767
vn -0.072687 -0.025006 0.997041
vn -0.109203 0.029401 0.993585
vn 0.109203 0.029401 0.993585
vn 0.072687 -0.025006 0.997041
vn 0.072687 -0.025006 -0.997041
vn 0.109203 0.029401 -0.993585
vn 0.130147 0.032843 -0.990951
vn 0.078966 -0.051677 -0.995537
vn -0.078966 -0.051677 -0.995537
vn -0.130147 0.032843 -0.990951
vn -0.769143 0.513449 -0.380512
vn -0.036217 -0.336175 0.941103
vn -0.036586 -0.429670 0.902245
vn -0.767932 0.498777 -0.401873
vn 0.068358 -0.051025 -0.996355
vn 0.116185 0.030249 -0.992767
vn 0.123062 0.028158 -0.991999
vn 0.076557 -0.049581 -0.995832
vn -0.068359 -0.051025 -0.996355
vn -0.116185 0.030249 -0.992767
vn 0.033946 -0.483381 0.874752
vn 0.036585 -0.429670 0.902245
vn 0.767932 0.498776 -0.401874
vn 0.769143 0.513448 -0.380513
vn 0.039702 -0.241669 -0.969546
vn 0.036216 -0.336175 -0.941103
vn 0.089380 0.026430 -0.995647
vn 0.048125 -0.048712 -0.997653
vn -0.048125 -0.048712 -0.997653
vn -0.076557 -0.049581 -0.995832
vn -0.039702 -0.241669 -0.969546
vn -0.025484 -0.195800 -0.980313
vn 0.076557 -0.049581 0.995832
vn 0.123062 0.028158 0.991999
vn -0.123062 0.028158 0.991999
vn -0.076557 -0.049581 0.995832
vn -0.123062 0.028158 -0.991999
vn -0.048125 -0.048712 0.997653
vn -0.025484 -0.195800 0.980313
vn -0.039702 -0.241669 0.969546
vn 0.036216 -0.336175 0.941103
vn 0.048125 -0.048712 0.997653
vn -0.089379 0.026430 0.995647
vn -0.089379 0.026430 -0.995647
vn 0.039702 -0.241669 0.969546
vn 0.025484 -0.195800 0.980313
vn 0.082770 0.026062 0.996228
vn 0.769143 0.513448 0.380513
vn 0.082770 0.026062 -0.996228
vn -0.036586 -0.429670 -0.902245
vn -0.036217 -0.336175 -0.941103
vn 0.072403 -0.091713 0.993150
vn 0.000000 -0.532935 0.846156
vn 0.025484 -0.195800 -0.980313
vn 0.036585 -0.429670 -0.902245
vn 0.033946 -0.483381 -0.874752
vn -0.033946 -0.483381 0.874752
vn -0.033946 -0.483381 -0.874752
vn -1.000000 0.000000 -0.000000
vn 1.000000 0.000000 -0.000000
vn -0.072403 -0.091713 0.993150
vn -0.072403 -0.091713 -0.993150
vn 0.000000 -0.532935 -0.846156
vn 0.072403 -0.091713 -0.993150
vn 0.000000 -0.050228 -0.998738
vn 0.000000 -0.163027 -0.986622
vn 0.000000 -0.050228 0.998738
vn 0.000000 -0.163027 0.986622
vn -0.006484 0.016025 -0.999851
vn 0.409022 0.247855 -0.878219
vn 0.345162 0.211790 -0.914335
vn 0.745379 0.484306 0.458102
vn 0.767932 0.498776 0.401874
vn 0.000000 0.008502 0.999964
vn -0.082770 0.026062 0.996228
vn -0.769143 0.513449 0.380512
vn -0.200576 0.253546 -0.946300
vn -0.345161 0.211790 -0.914335
vn -0.200576 0.253546 0.946300
vn -0.006484 0.016025 0.999851
vn -0.409021 0.247855 0.878220
vn -0.345161 0.211789 0.914336
vn 0.745379 0.484306 -0.458102
vn 0.698047 0.457489 0.550848
vn 0.698047 0.457488 -0.550849
vn -0.745378 0.484307 -0.458103
vn -0.698046 0.457489 -0.550851
vn -0.698046 0.457489 0.550849
vn 0.200578 0.253547 -0.946299
vn 0.006485 0.016025 -0.999851
vn 0.006485 0.016025 0.999851
vn -0.998402 0.056504 -0.000000
vn 0.000000 0.000000 1.000000
vn 0.000000 0.000000 -1.000000
vn 0.000012 0.899865 0.436168
vn 0.000013 1.000000 -0.000000
vn 0.000012 0.899865 -0.436168
vn 0.707107 -0.707107 -0.000000
vn 0.707107 0.707107 -0.000000
vn -0.707113 0.707101 -0.000000
vn -0.707113 -0.707101 -0.000000
vn 0.998402 0.056504 -0.000000
vn -0.409022 0.247855 -0.878219
vn -0.854777 0.518996 -0.000000
vn 0.854777 0.518996 -0.000000
vn -0.824628 0.565676 -0.000003
vn -0.785626 0.521477 0.332947
vn -0.785625 0.521476 -0.332950
vn 0.785626 0.521476 0.332948
vn 0.785626 0.521476 -0.332949
vn 0.824629 0.565675 -0.000000
vn 0.409023 0.247856 0.878219
vn 0.500002 -0.866024 -0.000000
vn 0.866027 -0.499998 -0.000000
vn 0.866027 0.499998 -0.000000
vn 0.500002 0.866024 -0.000000
vn -0.500002 0.866024 -0.000000
vn -0.866027 0.499998 -0.000000
vn -0.866027 -0.499998 -0.000000
vn -0.500002 -0.866024 -0.000000
vn -0.349077 0.000000 -0.937094
vn 0.547984 0.000000 0.836489
vn 0.349077 0.000000 0.937094
vn -0.547984 0.000000 -0.836489
vn 0.468188 0.000000 0.883629
vn -0.403587 0.000000 0.914941
vn -0.890750 0.000000 0.454494
vn 0.347169 0.000000 0.937802
vn -0.468188 0.000000 -0.883629
vn -0.347169 0.000000 -0.937802
vn 0.403587 0.000000 -0.914941
vn 0.890750 0.000000 -0.454494
vn 0.999517 0.031084 -0.000000
vn 0.706768 0.031084 0.706762
vn 0.000000 0.031084 0.999517
vn -0.706768 0.031084 0.706762
vn -0.999517 0.031084 -0.000000
vn -0.706765 0.031085 -0.706765
vn 0.000000 0.031085 -0.999517
vn 0.000000 0.912049 0.410082
vn -0.289972 0.912049 0.289970
vn 0.706765 0.031085 -0.706765
vn 0.289972 0.912049 0.289970
vn 0.410080 0.912049 -0.000000
vn 0.289971 0.912050 -0.289969
vn 0.000000 0.912049 -0.410080
vn -0.289971 0.912050 -0.289969
vn -0.410080 0.912049 -0.000000
vn 0.991367 0.107407 -0.075207
vn 0.495680 0.599853 0.628074
vn -0.495679 0.599853 0.628076
vn -0.991367 0.107406 -0.075207
vn -0.495685 -0.385036 -0.778488
vn 0.495687 -0.385035 -0.778488
vn 0.000000 -0.819153 0.573576
vn -0.080532 0.000000 -0.996752
vn 0.075499 -0.001352 -0.997145
vn 0.080532 0.000000 -0.996752
vn -0.094260 0.001285 -0.995547
vn 0.077550 -0.004775 -0.996977
vn 0.077550 0.004775 0.996977
vn 0.075499 0.001352 -0.997145
vn 0.132209 0.010587 0.991165
vn 0.923883 0.000000 0.382676
vn 0.923881 0.000000 -0.382680
vn -0.073943 0.010587 0.997206
f 279/1/1 38/2/1 37/3/2 280/4/2
f 280/4/2 37/3/2 39/5/3 281/6/3
f 281/6/3 39/5/3 40/7/4 271/8/5
f 271/8/5 40/7/4 41/9/6 272/10/7
f 272/10/7 41/9/6 42/11/8 282/12/8
f 282/12/8 42/11/8 43/13/9 283/14/9
f 283/14/9 43/13/9 44/15/10 284/16/10
f 284/16/10 44/15/10 45/17/11 285/18/11
f 285/18/11 45/17/11 46/19/12 273/20/13
f 273/20/13 46/19/12 47/21/14 274/22/15
f 16/23/10 14/24/9 55/25/9 56/26/10
f 274/27/15 47/28/14 48/29/16 286/30/16
f 286/30/16 48/29/16 38/2/1 279/1/1
f 176/31/17 178/32/18 36/33/19 35/34/20
f 1/35/21 3/36/22 157/37/23 156/38/24
f 174/39/25 176/40/17 35/41/20 34/42/26
f 172/43/27 174/39/25 34/42/26 33/44/28
f 170/45/29 172/43/27 33/44/28 32/46/30
f 168/47/31 170/45/29 32/46/30 31/48/32
f 166/49/33 168/47/31 31/48/32 30/50/34
f 160/51/35 162/52/36 28/53/37 27/54/38
f 25/55/39 26/56/40 27/57/38
f 25/55/39 27/57/38 28/58/37
f 25/55/39 28/58/37 29/59/41
f 25/55/39 29/59/41 30/60/34
f 25/55/39 30/60/34 31/61/32
f 25/55/39 31/61/32 32/62/30
f 25/55/39 32/62/30 33/63/28
f 25/55/39 33/63/28 34/64/26
f 25/55/39 34/64/26 35/65/20
f 25/55/39 35/65/20 36/66/19
f 164/67/42 166/49/33 30/50/34 29/68/41
f 162/52/36 164/67/42 29/68/41 28/53/37
f 23/69/43 1/35/21 156/38/24 177/70/44
f 3/36/22 5/71/45 159/72/46 157/37/23
f 5/71/45 7/73/47 161/74/48 159/72/46
f 7/73/47 9/75/49 163/76/50 161/74/48
f 9/75/49 11/77/51 165/78/52 163/76/50
f 11/77/51 13/79/53 167/80/54 165/78/52
f 13/79/53 15/81/55 169/82/56 167/80/54
f 15/81/55 17/83/57 171/84/58 169/82/56
f 17/83/57 19/85/59 173/86/60 171/84/58
f 19/85/59 21/87/61 175/88/62 173/86/60
f 21/89/61 23/69/43 177/70/44 175/90/62
f 155/91/63 158/92/64 26/93/40 25/94/39
f 158/92/64 160/51/35 27/54/38 26/93/40
f 2/95/65 4/96/65 37/97/65 38/98/65
f 4/96/65 6/99/65 39/100/65 37/97/65
f 6/99/65 8/101/65 40/102/65 39/100/65
f 8/101/65 10/103/65 41/104/65 40/102/65
f 10/103/65 12/105/65 42/106/65 41/104/65
f 12/105/65 14/107/65 43/108/65 42/106/65
f 14/107/65 16/109/65 44/110/65 43/108/65
f 16/109/65 18/111/65 45/112/65 44/110/65
f 18/111/65 20/113/65 46/114/65 45/112/65
f 20/113/65 22/115/65 47/116/65 46/114/65
f 22/115/65 24/117/65 48/118/65 47/116/65
f 24/117/65 2/95/65 38/98/65 48/118/65
f 49/119/65 50/120/65 60/121/65
f 49/119/65 60/121/65 59/122/65
f 49/119/65 59/122/65 58/123/65
f 49/119/65 58/123/65 57/124/65
f 49/119/65 57/124/65 56/125/65
f 49/119/65 56/125/65 55/126/65
f 49/119/65 55/126/65 54/127/65
f 49/119/65 54/127/65 53/128/65
f 49/119/65 53/128/65 52/129/65
f 49/119/65 52/129/65 51/130/65
f 10/131/6 8/132/4 52/133/4 53/134/6
f 24/135/16 22/136/14 59/137/14 60/138/16
f 4/139/2 2/140/1 50/141/1 49/142/2
f 18/143/11 16/23/10 56/26/10 57/144/11
f 12/145/8 10/131/6 53/134/6 54/146/8
f 2/140/1 24/135/16 60/138/16 50/141/1
f 6/147/3 4/139/2 49/142/2 51/148/3
f 20/149/12 18/143/11 57/144/11 58/150/12
f 14/24/9 12/145/8 54/146/8 55/25/9
f 8/132/4 6/147/3 51/148/3 52/133/4
f 22/151/14 20/149/12 58/150/12 59/152/14
f 102/153/65 101/154/65 67/155/66 68/156/67
f 93/157/68 278/158/69 261/159/70
f 61/160/71 122/161/72 124/162/73
f 61/160/71 124/162/73 101/163/73
f 61/160/71 101/163/73 63/164/74
f 72/165/75 255/166/76 270/167/77 80/168/78
f 75/169/79 72/170/75 80/171/78 83/172/80
f 69/173/81 70/174/82 78/175/83 77/176/84
f 64/177/85 62/178/86 72/170/75 75/169/79
f 66/179/87 68/180/88 70/174/82 69/173/81
f 67/181/89 65/182/90 76/183/91 73/184/92
f 61/160/71 63/164/74 74/185/93 71/186/94
f 122/187/72 61/188/71 267/189/95 271/190/5
f 75/191/79 83/192/80 108/193/96 106/194/97
f 61/188/71 71/195/94 256/196/98 267/189/95
f 81/197/99 84/198/100 92/199/101 89/200/102
f 71/186/94 74/185/93 82/201/103 79/202/104
f 70/203/82 68/204/88 103/205/105 105/206/106
f 254/207/107 76/208/91 65/209/90 265/210/108
f 73/184/92 76/183/91 84/198/100 81/197/99
f 81/211/99 89/212/102 109/213/109 107/214/110
f 89/200/102 92/199/101 100/215/111 97/216/112
f 98/217/113 90/218/114 110/219/115 112/220/116
f 77/176/84 78/175/83 86/221/117 85/222/118
f 83/172/80 80/171/78 88/223/119 91/224/120
f 79/202/104 82/201/103 90/225/114 87/226/121
f 91/227/120 99/228/122 112/220/123 110/219/124
f 78/229/83 70/203/82 105/206/106 107/214/125
f 85/222/118 86/221/117 94/230/126 93/231/68
f 91/224/120 88/223/119 96/232/127 99/233/122
f 87/226/121 90/225/114 98/234/113 95/235/128
f 94/236/126 86/237/117 109/213/129 111/238/130
f 119/187/131 66/188/87 266/189/132 273/190/13
f 64/239/67 63/240/66 101/154/65 102/153/65
f 124/241/73 123/242/133 65/182/90
f 124/241/73 65/182/90 67/181/89
f 124/241/73 67/181/89 101/243/73
f 82/244/103 74/245/93 106/194/134 108/193/135
f 86/237/117 78/229/83 107/214/125 109/213/129
f 103/246/105 68/247/136 113/248/137 117/249/137
f 89/212/102 97/250/112 111/238/138 109/213/109
f 67/251/89 73/252/92 105/206/139 103/205/140
f 64/253/85 75/191/79 106/194/97 104/254/141
f 83/192/80 91/227/120 110/219/124 108/193/96
f 73/252/92 81/211/99 107/214/110 105/206/139
f 90/218/114 82/244/103 108/193/135 110/219/115
f 74/245/93 63/255/74 104/254/142 106/194/134
f 113/256/143 114/257/143 117/249/143
f 115/258/144 116/259/144 118/260/144
f 64/261/145 104/262/141 118/260/137 116/263/137
f 104/262/142 63/264/146 115/258/147 118/260/147
f 67/265/148 103/246/140 117/249/147 114/257/147
f 111/266/138 97/267/112 130/268/149 125/269/150
f 112/266/123 99/267/122 132/268/151 134/269/152
f 95/270/128 98/271/113 129/272/149 128/273/153
f 252/274/154 262/275/155 100/276/111 92/277/101
f 77/278/84 264/279/156 253/280/157 69/281/81
f 121/282/158 120/283/159 62/178/86
f 121/282/158 62/178/86 64/177/85
f 121/282/158 64/177/85 102/284/158
f 268/210/160 255/207/76 72/208/75 62/209/86
f 95/285/128 276/286/161 258/287/162
f 66/179/87 119/288/131 121/289/158
f 66/179/87 121/289/158 102/290/158
f 66/179/87 102/290/158 68/180/88
f 96/291/127 275/292/163 133/293/164
f 259/274/165 257/275/166 96/276/127 88/277/119
f 96/157/127 257/159/166 275/158/163
f 263/167/167 84/168/100 76/165/91 254/166/107
f 251/294/168 264/295/156 77/296/84 85/297/118
f 272/298/7 268/210/160 62/209/86 120/299/159
f 92/300/101 84/301/100 263/302/167 252/303/169
f 69/195/81 253/196/157 266/189/132 66/188/87
f 256/280/98 71/281/94 79/278/104 269/279/170
f 269/295/170 79/296/104 87/297/121 260/294/171
f 80/301/78 270/302/77 259/303/172 88/300/119
f 126/272/144 125/304/144 130/268/144
f 100/305/111 277/306/173 131/307/174
f 134/304/143 132/268/143 129/272/143
f 95/305/128 128/307/153 276/306/161
f 100/285/111 262/287/155 277/286/173
f 94/271/126 111/308/130 125/309/152 126/272/151
f 97/267/112 100/310/111 131/311/174 130/268/149
f 93/270/68 94/271/126 126/272/151 127/273/175
f 99/267/122 96/310/127 133/311/164 132/268/151
f 98/271/113 112/308/116 134/309/150 129/272/149
f 128/273/176 129/272/143 132/268/143 133/311/176
f 135/312/143 136/313/143 138/314/143 137/315/143
f 137/315/65 138/314/65 142/316/65 141/317/65
f 141/317/144 142/316/144 140/318/144 139/319/144
f 136/313/143 135/312/143 143/320/143
f 137/315/177 141/317/177 139/321/177 135/322/177
f 142/316/178 138/314/178 136/323/178 140/324/178
f 135/322/179 139/321/179 144/325/180 143/326/180
f 140/324/181 136/323/181 143/327/180 144/328/180
f 139/319/144 140/318/144 144/329/144
f 145/312/143 146/313/143 148/314/143 147/315/143
f 147/315/65 148/314/65 152/316/65 151/317/65
f 151/317/144 152/316/144 150/318/144 149/319/144
f 146/313/143 145/312/143 153/320/143
f 147/315/177 151/317/177 149/321/177 145/322/177
f 152/316/178 148/314/178 146/323/178 150/324/178
f 145/322/179 149/321/179 154/325/180 153/326/180
f 150/324/181 146/323/181 153/327/180 154/328/180
f 149/319/144 150/318/144 154/329/144
f 156/38/24 157/37/23 158/92/64 155/91/63
f 157/37/23 159/72/46 160/51/35 158/92/64
f 159/72/46 161/74/48 162/52/36 160/51/35
f 161/74/48 163/76/50 164/67/42 162/52/36
f 163/76/50 165/78/52 166/49/33 164/67/42
f 165/78/52 167/80/54 168/47/31 166/49/33
f 167/80/54 169/82/56 170/45/29 168/47/31
f 169/82/56 171/84/58 172/43/27 170/45/29
f 171/84/58 173/86/60 174/39/25 172/43/27
f 173/86/60 175/88/62 176/40/17 174/39/25
f 175/90/62 177/70/44 178/32/18 176/31/17
f 177/70/44 156/38/24 155/91/63 178/32/18
f 178/32/18 155/91/63 25/94/39 36/33/19
f 179/330/143 180/331/143 182/332/143 181/333/143
f 181/334/65 182/332/65 186/335/65 185/336/65
f 185/337/144 186/335/144 184/338/144 183/339/144
f 183/340/180 184/338/180 180/331/180 179/341/180
f 186/335/178 182/332/178 180/331/178 184/338/178
f 187/342/65 188/343/65 190/344/182 189/345/182
f 189/345/182 190/344/182 192/346/144 191/347/144
f 191/347/144 192/346/144 194/348/183 193/349/183
f 193/349/183 194/348/183 196/350/180 195/351/180
f 195/351/180 196/350/180 198/352/184 197/353/184
f 197/353/184 198/352/184 200/354/143 199/355/143
f 190/356/178 188/357/178 202/358/178
f 190/356/178 202/358/178 200/359/178
f 190/356/178 200/359/178 198/360/178
f 190/356/178 198/360/178 196/361/178
f 190/356/178 196/361/178 194/362/178
f 190/356/178 194/362/178 192/363/178
f 199/355/143 200/354/143 202/364/185 201/365/185
f 201/365/185 202/364/185 188/366/65 187/367/65
f 203/342/65 204/343/65 206/344/182 205/345/182
f 205/345/182 206/344/182 208/346/144 207/347/144
f 207/347/144 208/346/144 210/348/183 209/349/183
f 209/349/183 210/348/183 212/350/180 211/351/180
f 211/351/180 212/350/180 214/352/184 213/353/184
f 213/353/184 214/352/184 216/354/143 215/355/143
f 206/368/178 204/369/178 218/370/178
f 206/368/178 218/370/178 216/371/178
f 206/368/178 216/371/178 214/372/178
f 206/368/178 214/372/178 212/373/178
f 206/368/178 212/373/178 210/374/178
f 206/368/178 210/374/178 208/375/178
f 215/355/143 216/354/143 218/364/185 217/365/185
f 217/365/185 218/364/185 204/366/65 203/367/65
f 219/342/65 220/343/65 222/344/182 221/345/182
f 221/345/182 222/344/182 224/346/144 223/347/144
f 223/347/144 224/346/144 226/348/183 225/349/183
f 225/349/183 226/348/183 228/350/180 227/351/180
f 227/351/180 228/350/180 230/352/184 229/353/184
f 229/353/184 230/352/184 232/354/143 231/355/143
f 222/376/178 220/377/178 234/378/178
f 222/376/178 234/378/178 232/379/178
f 222/376/178 232/379/178 230/380/178
f 222/376/178 230/380/178 228/381/178
f 222/376/178 228/381/178 226/382/178
f 222/376/178 226/382/178 224/383/178
f 231/355/143 232/354/143 234/364/185 233/365/185
f 233/365/185 234/364/185 220/366/65 219/367/65
f 235/342/65 236/343/65 238/344/182 237/345/182
f 237/345/182 238/344/182 240/346/144 239/347/144
f 239/347/144 240/346/144 242/348/183 241/349/183
f 241/349/183 242/348/183 244/350/180 243/351/180
f 243/351/180 244/350/180 246/352/184 245/353/184
f 245/353/184 246/352/184 248/354/143 247/355/143
f 238/384/178 236/385/178 250/386/178
f 238/384/178 250/386/178 248/387/178
f 238/384/178 248/387/178 246/388/178
f 238/384/178 246/388/178 244/389/178
f 238/384/178 244/389/178 242/390/178
f 238/384/178 242/390/178 240/391/178
f 247/355/143 248/354/143 250/364/185 249/365/185
f 249/365/185 250/364/185 236/366/65 235/367/65
f 274/298/15 265/210/108 65/209/90 123/299/133
f 127/273/186 126/272/144 130/268/144 131/311/186
f 93/291/68 127/293/175 278/292/69
f 87/392/121 95/393/128 258/394/162 260/395/187
f 275/292/188 276/306/188 128/307/176 133/293/176
f 277/306/189 278/292/189 127/293/186 131/307/186
f 275/158/188 257/159/190 258/287/190 276/286/188
f 257/275/190 259/274/191 260/395/192 258/394/190
f 256/280/98 269/279/170 270/167/77 255/166/76
f 254/207/107 265/210/108 266/189/132 253/196/157
f 264/295/156 251/294/193 252/303/194 263/302/167
f 265/210/108 274/298/15 273/190/13 266/189/132
f 262/275/195 252/274/194 251/395/193 261/394/195
f 263/167/167 254/166/107 253/280/157 264/279/156
f 268/210/160 272/298/7 271/190/5 267/189/95
f 255/207/76 268/210/160 267/189/95 256/196/98
f 269/295/170 260/294/192 259/303/191 270/302/77
f 277/286/189 262/287/195 261/159/195 278/158/189
f 85/392/118 93/393/68 261/394/70 251/395/196
f 23/396/43 286/30/16 279/1/1 1/397/21
f 21/398/61 274/27/15 286/30/16 23/396/43
f 19/399/59 273/20/13 274/22/15 21/400/61
f 17/401/57 285/18/11 273/20/13 19/399/59
f 15/402/55 284/16/10 285/18/11 17/401/57
f 13/403/53 283/14/9 284/16/10 15/402/55
f 11/404/51 282/12/8 283/14/9 13/403/53
f 9/405/49 272/10/7 282/12/8 11/404/51
f 7/406/47 271/8/5 272/10/7 9/405/49
f 5/407/45 281/6/3 271/8/5 7/406/47
f 3/408/22 280/4/2 281/6/3 5/407/45
f 1/397/21 279/1/1 280/4/2 3/408/22
o motor
v 0.000000 0.095179 -0.956290
v 0.000000 0.260896 -0.956290
v 0.124510 0.095179 -0.904717
v 0.124510 0.260896 -0.904717
v 0.176083 0.095179 -0.780207
v 0.176083 0.260896 -0.780207
v 0.124510 0.095179 -0.655697
v 0.124510 0.260896 -0.655697
v 0.000000 0.095179 -0.604124
v 0.000000 0.260896 -0.604124
v -0.124510 0.095179 -0.655697
v -0.124510 0.260896 -0.655697
v -0.176083 0.095179 -0.780207
v -0.176083 0.260896 -0.780207
v -0.124510 0.095179 -0.904717
v -0.124510 0.260896 -0.904717
v 0.111746 0.464526 -0.681843
v 0.111746 0.464526 -0.878571
v 0.111746 0.267798 -0.681843
v 0.111746 0.267798 -0.878571
v 0.459457 0.464526 -0.681843
v 0.459457 0.464526 -0.878571
v 0.459457 0.267798 -0.681843
v 0.459457 0.267798 -0.878571
v -0.123042 0.743007 -0.657165
v -0.123042 0.743007 -0.903249
v -0.123042 0.192939 -0.657165
v -0.123042 0.192939 -0.903249
v 0.123042 0.743007 -0.657165
v 0.123042 0.743007 -0.903249
v 0.123042 0.192939 -0.657165
v 0.123042 0.192939 -0.903249
v -0.459457 0.714526 -0.681843
v -0.459457 0.714526 -0.878571
v -0.459457 0.517798 -0.681843
v -0.459457 0.517798 -0.878571
v -0.111746 0.714526 -0.681843
v -0.111746 0.714526 -0.878571
v -0.111746 0.517798 -0.681843
v -0.111746 0.517798 -0.878571
v -0.459457 0.464526 -0.681843
v -0.459457 0.464526 -0.878571
v -0.459457 0.267798 -0.681843
v -0.459457 0.267798 -0.878571
v -0.111746 0.464526 -0.681843
v -0.111746 0.464526 -0.878571
v -0.111746 0.267798 -0.681843
v -0.111746 0.267798 -0.878571
v 0.220000 0.304496 -0.836986
v 0.220000 0.304496 -1.023428
v 0.273404 0.335329 -0.836986
v 0.273404 0.335329 -1.023428
v 0.273404 0.396995 -0.836986
v 0.273404 0.396995 -1.023428
v 0.220000 0.427828 -0.836986
v 0.220000 0.427828 -1.023428
v 0.166596 0.396995 -0.836986
v 0.166596 0.396995 -1.023428
v 0.166596 0.335329 -0.836986
v 0.166596 0.335329 -1.023428
v -0.220000 0.554496 -0.836986
v -0.220000 0.554496 -1.023428
v -0.166596 0.585329 -0.836986
v -0.166596 0.585329 -1.023428
v -0.166596 0.646995 -0.836986
v -0.166596 0.646995 -1.023428
v -0.220000 0.677828 -0.836986
v -0.220000 0.677828 -1.023428
v -0.273404 0.646995 -0.836986
v -0.273404 0.646995 -1.023428
v -0.273404 0.585329 -0.836986
v -0.273404 0.585329 -1.023428
v 0.220000 0.554496 -0.836986
v 0.220000 0.554496 -1.023428
v 0.273404 0.585329 -0.836986
v 0.273404 0.585329 -1.023428
v 0.273404 0.646995 -0.836986
v 0.273404 0.646995 -1.023428
v 0.220000 0.677828 -0.836986
v 0.220000 0.677828 -1.023428
v 0.166596 0.646995 -0.836986
v 0.166596 0.646995 -1.023428
v 0.166596 0.585329 -0.836986
v 0.166596 0.585329 -1.023428
v -0.220000 0.304496 -0.836986
v -0.220000 0.304496 -1.023428
v -0.166596 0.335329 -0.836986
v -0.166596 0.335329 -1.023428
v -0.166596 0.396995 -0.836986
v -0.166596 0.396995 -1.023428
v -0.220000 0.427828 -0.836986
v -0.220000 0.427828 -1.023428
v -0.273404 0.396995 -0.836986
v -0.273404 0.396995 -1.023428
v -0.273404 0.335329 -0.836986
v -0.273404 0.335329 -1.023428
v 0.111746 0.714526 -0.681843
v 0.111746 0.714526 -0.878571
v 0.111746 0.517798 -0.681843
v 0.111746 0.517798 -0.878571
v 0.459457 0.714526 -0.681843
v 0.459457 0.714526 -0.878571
v 0.459457 0.517798 -0.681843
v 0.459457 0.517798 -0.878571
vt 0.052000 0.960000
vt 0.052000 0.963000
vt 0.050667 0.963000
vt 0.050667 0.960000
vt 0.049333 0.963000
vt 0.049333 0.960000
vt 0.048000 0.963000
vt 0.048000 0.960000
vt 0.046667 0.963000
vt 0.046667 0.960000
vt 0.045333 0.963000
vt 0.045333 0.960000
vt 0.044000 0.963000
vt 0.044000 0.960000
vt 0.061326 0.959262
vt 0.061326 0.960979
vt 0.060039 0.962695
vt 0.058751 0.962695
vt 0.057464 0.960979
vt 0.057464 0.959262
vt 0.058751 0.957546
vt 0.060039 0.957546
vt 0.042667 0.963000
vt 0.042667 0.960000
vt 0.041333 0.963000
vt 0.041333 0.960000
vt 0.119333 0.984000
vt 0.121333 0.984000
vt 0.121333 0.989000
vt 0.119333 0.989000
vt 0.121333 0.992000
vt 0.119333 0.992000
vt 0.117333 0.989000
vt 0.115333 0.989000
vt 0.115333 0.984000
vt 0.117333 0.984000
vt 0.113333 0.989000
vt 0.113333 0.984000
vt 0.103333 0.984000
vt 0.100667 0.984000
vt 0.100667 0.975000
vt 0.103333 0.975000
vt 0.106000 0.975000
vt 0.108667 0.975000
vt 0.108667 0.984000
vt 0.106000 0.984000
vt 0.111333 0.975000
vt 0.111333 0.984000
vt 0.077500 0.928333
vt 0.077500 0.923333
vt 0.078750 0.923333
vt 0.078750 0.928333
vt 0.080000 0.923333
vt 0.080000 0.928333
vt 0.081250 0.923333
vt 0.081250 0.928333
vt 0.082500 0.923333
vt 0.082500 0.928333
vt 0.048814 0.955376
vt 0.049856 0.954682
vt 0.050897 0.955376
vt 0.050897 0.956765
vt 0.049856 0.957460
vt 0.048814 0.956765
vt 0.083750 0.923333
vt 0.083750 0.928333
vt 0.085000 0.923333
vt 0.085000 0.928333
s 0
usemtl Material
f 287/409/178 288/410/178 290/411/16 289/412/16
f 289/412/16 290/411/16 292/413/144 291/414/144
f 291/414/144 292/413/144 294/415/11 293/416/11
f 293/416/11 294/415/11 296/417/177 295/418/177
f 295/418/177 296/417/177 298/419/8 297/420/8
f 297/420/8 298/419/8 300/421/143 299/422/143
f 290/423/180 288/424/180 302/425/180
f 290/423/180 302/425/180 300/426/180
f 290/423/180 300/426/180 298/427/180
f 290/423/180 298/427/180 296/428/180
f 290/423/180 296/428/180 294/429/180
f 290/423/180 294/429/180 292/430/180
f 299/422/143 300/421/143 302/431/3 301/432/3
f 301/432/3 302/431/3 288/433/178 287/434/178
f 287/423/65 289/424/65 291/425/65
f 287/423/65 291/425/65 293/426/65
f 287/423/65 293/426/65 295/427/65
f 287/423/65 295/427/65 297/428/65
f 287/423/65 297/428/65 299/429/65
f 287/423/65 299/429/65 301/430/65
f 305/435/65 306/436/65 310/437/65 309/438/65
f 309/438/144 310/437/144 308/439/144 307/440/144
f 307/441/180 308/442/180 304/443/180 303/444/180
f 305/435/177 309/438/177 307/441/177 303/444/177
f 310/445/178 306/446/178 304/443/178 308/442/178
f 311/447/143 312/448/143 314/449/143 313/450/143
f 317/451/144 318/452/144 316/453/144 315/454/144
f 313/450/177 317/451/177 315/454/177 311/447/177
f 318/452/178 314/455/178 312/456/178 316/453/178
f 319/440/143 320/439/143 322/437/143 321/438/143
f 321/438/65 322/437/65 326/436/65 325/435/65
f 323/444/180 324/443/180 320/442/180 319/441/180
f 321/438/177 325/435/177 323/444/177 319/441/177
f 326/446/178 322/445/178 320/442/178 324/443/178
f 327/440/143 328/439/143 330/437/143 329/438/143
f 329/438/65 330/437/65 334/436/65 333/435/65
f 331/444/180 332/443/180 328/442/180 327/441/180
f 329/438/177 333/435/177 331/444/177 327/441/177
f 334/446/178 330/445/178 328/442/178 332/443/178
f 335/457/197 336/458/197 338/459/198 337/460/198
f 337/460/198 338/459/198 340/461/199 339/462/199
f 339/462/199 340/461/199 342/463/200 341/464/200
f 341/464/201 342/463/201 344/465/202 343/466/202
f 338/467/178 336/468/178 346/469/178
f 338/467/178 346/469/178 344/470/178
f 338/467/178 344/470/178 342/471/178
f 338/467/178 342/471/178 340/472/178
f 343/466/202 344/465/202 346/473/203 345/474/203
f 345/474/203 346/473/203 336/475/204 335/476/204
f 347/457/197 348/458/197 350/459/198 349/460/198
f 349/460/198 350/459/198 352/461/199 351/462/199
f 351/462/199 352/461/199 354/463/200 353/464/200
f 353/464/201 354/463/201 356/465/202 355/466/202
f 350/467/178 348/468/178 358/469/178
f 350/467/178 358/469/178 356/470/178
f 350/467/178 356/470/178 354/471/178
f 350/467/178 354/471/178 352/472/178
f 355/466/202 356/465/202 358/473/203 357/474/203
f 357/474/203 358/473/203 348/475/204 347/476/204
f 359/457/197 360/458/197 362/459/198 361/460/198
f 361/460/198 362/459/198 364/461/199 363/462/199
f 363/462/199 364/461/199 366/463/200 365/464/200
f 365/464/201 366/463/201 368/465/202 367/466/202
f 362/467/178 360/468/178 370/469/178
f 362/467/178 370/469/178 368/470/178
f 362/467/178 368/470/178 366/471/178
f 362/467/178 366/471/178 364/472/178
f 367/466/202 368/465/202 370/473/203 369/474/203
f 369/474/203 370/473/203 360/475/204 359/476/204
f 371/457/197 372/458/197 374/459/198 373/460/198
f 373/460/198 374/459/198 376/461/199 375/462/199
f 375/462/199 376/461/199 378/463/200 377/464/200
f 377/464/201 378/463/201 380/465/202 379/466/202
f 374/467/178 372/468/178 382/469/178
f 374/467/178 382/469/178 380/470/178
f 374/467/178 380/470/178 378/471/178
f 374/467/178 378/471/178 376/472/178
f 379/466/202 380/465/202 382/473/203 381/474/203
f 381/474/203 382/473/203 372/475/204 371/476/204
f 385/435/65 386/436/65 390/437/65 389/438/65
f 389/438/144 390/437/144 388/439/144 387/440/144
f 387/441/180 388/442/180 384/443/180 383/444/180
f 385/435/177 389/438/177 387/441/177 383/444/177
f 390/445/178 386/446/178 384/443/178 388/442/178
o prop
v 0.000000 0.000000 -0.906720
v 0.000000 0.083660 -0.885346
v 0.089458 0.000000 -0.869665
v 0.074344 0.083660 -0.854551
v 0.126513 0.000000 -0.780207
v 0.105139 0.083660 -0.780207
v 0.089458 0.000000 -0.690749
v 0.074344 0.083660 -0.705863
v 0.000000 0.000000 -0.653694
v 0.000000 0.083660 -0.675068
v -0.089458 0.000000 -0.690749
v -0.074344 0.083660 -0.705863
v -0.126513 0.000000 -0.780207
v -0.105139 0.083660 -0.780207
v -0.089458 0.000000 -0.869665
v -0.074344 0.083660 -0.854551
v 0.646929 0.000000 -1.055948
v 0.646929 0.083660 -1.055948
v -0.646929 0.000000 -0.504466
v -0.646929 0.083660 -0.504466
v 0.638307 0.083660 -1.072846
v 0.534149 0.083660 -1.105696
v 0.534149 0.000000 -1.105696
v 0.638307 0.000000 -1.072846
v -0.638307 0.083660 -0.487568
v -0.534149 0.083660 -0.454718
v -0.534149 0.000000 -0.454718
v -0.638307 0.000000 -0.487568
v 0.089458 0.083660 -0.869665
v 0.000000 0.083660 -0.906720
v 0.126513 0.083660 -0.780207
v 0.089458 0.083660 -0.690749
v 0.000000 0.083660 -0.653694
v -0.089458 0.083660 -0.690749
v -0.126513 0.083660 -0.780207
v -0.089458 0.083660 -0.869665
v 0.074344 0.131256 -0.854551
v 0.000000 0.131256 -0.885346
v 0.105139 0.131256 -0.780207
v 0.074344 0.131256 -0.705863
v 0.000000 0.131256 -0.675068
v -0.074344 0.131256 -0.705863
v -0.105139 0.131256 -0.780207
v -0.074344 0.131256 -0.854551
vt 0.114000 0.923000
vt 0.114000 0.925000
vt 0.113333 0.925000
vt 0.113333 0.923000
vt 0.125333 0.928000
vt 0.126667 0.928000
vt 0.126667 0.938000
vt 0.125333 0.938000
vt 0.114667 0.923000
vt 0.114667 0.925000
vt 0.115333 0.923000
vt 0.115333 0.925000
vt 0.114667 0.926000
vt 0.115333 0.926000
vt 0.115333 0.927000
vt 0.114667 0.927000
vt 0.125140 0.922102
vt 0.125140 0.922902
vt 0.123940 0.924502
vt 0.123340 0.924502
vt 0.122140 0.922902
vt 0.122140 0.922102
vt 0.123340 0.920501
vt 0.123940 0.920501
vt 0.122667 0.928000
vt 0.124000 0.928000
vt 0.124000 0.938000
vt 0.122667 0.936000
vt 0.122000 0.938000
vt 0.122667 0.938000
vt 0.122667 0.939000
vt 0.122000 0.939000
vt 0.122000 0.928000
vt 0.122000 0.936000
vt 0.120963 0.923370
vt 0.120963 0.921907
vt 0.121232 0.921758
vt 0.121232 0.923519
vt 0.120187 0.920873
vt 0.120299 0.920514
vt 0.119090 0.920873
vt 0.118978 0.920514
vt 0.118314 0.921907
vt 0.118045 0.921758
vt 0.118314 0.923370
vt 0.118045 0.923519
vt 0.119090 0.924404
vt 0.118978 0.924764
vt 0.120187 0.924404
vt 0.120299 0.924764
vt 0.116000 0.926000
vt 0.116667 0.926000
vt 0.116667 0.927000
vt 0.116000 0.927000
vt 0.118000 0.926000
vt 0.118667 0.926000
vt 0.118667 0.927000
vt 0.118000 0.927000
vt 0.114000 0.926000
vt 0.114000 0.927000
vt 0.117333 0.926000
vt 0.117333 0.927000
vt 0.113333 0.926000
vt 0.113333 0.927000
s 0
usemtl Material
f 391/477/178 420/478/178 419/479/205 393/480/205
f 403/481/65 401/482/65 417/483/65
f 403/481/65 417/483/65 418/484/65
f 403/481/65 418/484/65 409/484/65
f 395/479/206 421/480/206 422/477/11 397/478/11
f 397/478/11 422/477/11 423/485/177 399/486/177
f 399/486/177 423/485/177 424/487/207 401/488/207
f 395/481/65 393/482/65 413/483/65
f 395/481/65 413/483/65 414/484/65
f 395/481/65 414/484/65 407/484/65
f 400/489/177 398/490/11 430/491/11 431/492/177
f 403/487/208 425/488/208 426/486/3 405/485/3
f 405/485/3 426/486/3 420/478/178 391/477/178
f 391/493/65 393/494/65 395/495/65
f 391/493/65 395/495/65 397/496/65
f 391/493/65 397/496/65 399/497/65
f 391/493/65 399/497/65 401/498/65
f 391/493/65 401/498/65 403/499/65
f 391/493/65 403/499/65 405/500/65
f 419/501/180 421/502/180 408/503/180
f 419/501/180 408/503/180 411/503/180
f 419/501/180 411/503/180 412/504/180
f 424/501/180 425/502/180 410/503/180
f 424/501/180 410/503/180 415/503/180
f 424/501/180 415/503/180 416/504/180
f 421/502/206 395/481/206 407/484/209 408/503/209
f 418/505/210 415/506/210 410/507/211 409/508/211
f 401/509/207 424/501/207 416/504/212 417/510/212
f 425/502/208 403/481/208 409/484/213 410/503/213
f 393/509/205 419/501/205 412/504/214 413/510/214
f 411/506/215 414/505/215 413/510/214 412/504/214
f 415/506/210 418/505/210 417/510/212 416/504/212
f 414/505/215 411/506/215 408/507/216 407/508/216
f 392/511/180 394/512/180 419/513/180 420/514/180
f 394/512/180 396/515/180 421/516/180 419/513/180
f 396/515/180 398/517/180 422/518/180 421/516/180
f 398/517/180 400/519/180 423/520/180 422/518/180
f 400/519/180 402/521/180 424/522/180 423/520/180
f 402/521/180 404/523/180 425/524/180 424/522/180
f 404/523/180 406/525/180 426/526/180 425/524/180
f 406/525/180 392/511/180 420/514/180 426/526/180
f 396/527/144 394/528/16 427/529/16 429/530/144
f 406/531/3 404/532/143 433/533/143 434/534/3
f 402/535/8 400/489/177 431/492/177 432/536/8
f 398/490/11 396/527/144 429/530/144 430/491/11
f 394/528/16 392/537/178 428/538/178 427/529/16
f 392/537/178 406/531/3 434/534/3 428/538/178
f 404/539/143 402/535/8 432/536/8 433/540/143
o booster
v 0.128315 2.020906 -0.247487
v 0.128315 3.565182 -0.247487
v 0.090733 2.020906 -0.156754
v 0.090733 3.565182 -0.156754
v 0.000000 2.020906 -0.119171
v -0.000000 3.565182 -0.119171
v -0.090733 2.020906 -0.156754
v -0.090733 3.565182 -0.156754
v -0.128315 2.020906 -0.247487
v -0.128315 3.565182 -0.247487
v -0.090733 2.020906 -0.338219
v -0.090733 3.565182 -0.338219
v 0.000000 2.020906 -0.375802
v -0.000000 3.565182 -0.375802
v 0.090733 2.020906 -0.338219
v 0.090733 3.565182 -0.338219
v 0.043314 3.630932 -0.204172
v 0.061255 3.630932 -0.247486
v -0.000000 3.630932 -0.186231
v -0.043314 3.630932 -0.204172
v -0.061255 3.630932 -0.247486
v -0.043314 3.630932 -0.290800
v -0.000000 3.630932 -0.308742
v 0.043314 3.630932 -0.290800
v 0.090299 1.824677 -0.064059
v 0.050729 2.069750 -0.235661
v 0.045150 1.869531 -0.000000
v 0.025365 2.094948 -0.199674
v -0.045149 1.869531 -0.000000
v -0.025365 2.094948 -0.199674
v -0.090299 1.824677 -0.064059
v -0.050729 2.069750 -0.235661
v -0.045149 1.779822 -0.128118
v -0.025365 2.044551 -0.271649
v 0.045150 1.779822 -0.128118
v 0.025365 2.044551 -0.271649
v -0.053968 3.248018 -0.234082
v -0.053968 3.248018 -0.425322
v 0.053968 3.248018 -0.234082
v 0.053968 3.248018 -0.425322
v -0.053968 3.209704 -0.234082
v -0.053968 3.209704 -0.425322
v 0.053968 3.209704 -0.234082
v 0.053968 3.209704 -0.425322
v -0.053968 2.061797 -0.234082
v -0.053968 2.061797 -0.425322
v 0.053968 2.061797 -0.234082
v 0.053968 2.061797 -0.425322
v -0.053968 2.023484 -0.234082
v -0.053968 2.023484 -0.425322
v 0.053968 2.023484 -0.234082
v 0.053968 2.023484 -0.425322
vt 0.088000 0.971000
vt 0.088000 0.996000
vt 0.086667 0.996000
vt 0.086667 0.971000
vt 0.085333 0.996000
vt 0.085333 0.971000
vt 0.096000 0.971000
vt 0.096000 0.996000
vt 0.094667 0.996000
vt 0.094667 0.971000
vt 0.093333 0.996000
vt 0.093333 0.971000
vt 0.092000 0.996000
vt 0.092000 0.971000
vt 0.090667 0.996000
vt 0.090667 0.971000
vt 0.097653 0.988973
vt 0.097653 0.989336
vt 0.097445 0.989240
vt 0.097446 0.989069
vt 0.089333 0.996000
vt 0.089333 0.971000
vt 0.098459 0.987959
vt 0.098619 0.988172
vt 0.098619 0.988812
vt 0.098459 0.989026
vt 0.097979 0.989026
vt 0.097819 0.988812
vt 0.097819 0.988172
vt 0.097979 0.987959
vt 0.097659 0.987532
vt 0.097659 0.988172
vt 0.097499 0.988386
vt 0.097019 0.988386
vt 0.096859 0.988172
vt 0.096859 0.987532
vt 0.097019 0.987319
vt 0.097499 0.987319
vt 0.096866 0.988974
vt 0.097096 0.988718
vt 0.097182 0.988948
vt 0.097073 0.989069
vt 0.097422 0.988717
vt 0.097337 0.988948
vt 0.096866 0.989335
vt 0.097073 0.989240
vt 0.097422 0.989592
vt 0.097337 0.989361
vt 0.097096 0.989592
vt 0.097182 0.989362
vt 0.099099 0.987746
vt 0.099099 0.988812
vt 0.098939 0.988812
vt 0.098939 0.987746
vt 0.098779 0.988812
vt 0.098779 0.987746
vt 0.099739 0.987746
vt 0.099739 0.988812
vt 0.099579 0.988812
vt 0.099579 0.987746
vt 0.099419 0.988812
vt 0.099419 0.987746
vt 0.099259 0.988812
vt 0.099259 0.987746
vt 0.110269 0.990662
vt 0.109949 0.990875
vt 0.109628 0.990662
vt 0.109628 0.990235
vt 0.109949 0.990021
vt 0.110269 0.990235
vt 0.098459 0.989879
vt 0.098779 0.989879
vt 0.098779 0.989239
vt 0.098459 0.989239
vt 0.097819 0.989879
vt 0.097979 0.989879
vt 0.097979 0.989239
vt 0.097819 0.989239
vt 0.098299 0.989879
vt 0.098299 0.989239
s 0
usemtl Material
f 435/541/144 436/542/217 438/543/218 437/544/11
f 437/544/11 438/543/218 440/545/219 439/546/177
f 439/547/177 440/548/219 442/549/220 441/550/8
f 441/550/8 442/549/220 444/551/221 443/552/143
f 443/552/143 444/551/221 446/553/222 445/554/3
f 445/554/3 446/553/222 448/555/223 447/556/178
f 442/557/220 440/558/219 453/559/224 454/560/225
f 447/556/178 448/555/223 450/561/226 449/562/16
f 449/562/16 450/561/226 436/542/217 435/541/144
f 435/563/65 437/564/65 439/565/65
f 435/563/65 439/565/65 441/566/65
f 435/563/65 441/566/65 443/567/65
f 435/563/65 443/567/65 445/568/65
f 435/563/65 445/568/65 447/569/65
f 435/563/65 447/569/65 449/570/65
f 451/571/227 452/572/228 458/573/229
f 451/571/227 458/573/229 457/574/230
f 451/571/227 457/574/230 456/575/231
f 451/571/227 456/575/231 455/576/232
f 451/571/227 455/576/232 454/577/225
f 451/571/227 454/577/225 453/578/224
f 448/579/223 446/580/222 456/581/231 457/582/230
f 444/583/221 442/557/220 454/560/225 455/584/232
f 450/585/226 448/579/223 457/582/230 458/586/229
f 440/558/219 438/587/218 451/588/227 453/559/224
f 446/580/222 444/583/221 455/584/232 456/581/231
f 436/589/217 450/585/226 458/586/229 452/590/228
f 438/587/218 436/589/217 452/590/228 451/588/227
f 459/591/233 460/592/233 462/593/234 461/594/234
f 461/594/234 462/593/234 464/595/235 463/596/235
f 463/597/235 464/598/235 466/599/236 465/600/236
f 465/600/236 466/599/236 468/601/237 467/602/237
f 467/602/237 468/601/237 470/603/238 469/604/238
f 469/604/238 470/603/238 460/592/233 459/591/233
f 459/605/239 461/606/239 463/607/239
f 459/605/239 463/607/239 465/608/239
f 459/605/239 465/608/239 467/609/239
f 459/605/239 467/609/239 469/610/239
f 471/611/180 473/612/180 474/613/180 472/614/180
f 473/615/144 477/616/144 478/617/144 474/618/144
f 477/616/65 475/619/65 476/620/65 478/617/65
f 475/619/143 471/611/143 472/614/143 476/620/143
f 479/611/180 481/612/180 482/613/180 480/614/180
f 481/615/144 485/616/144 486/617/144 482/618/144
f 485/616/65 483/619/65 484/620/65 486/617/65
f 483/619/143 479/611/143 480/614/143 484/620/143
o flag_whatever_who_cares_L
v 2.976630 0.920432 -1.281179
v 2.976630 0.920432 -0.906179
v 2.976630 0.420432 -1.281179
v 2.976630 0.420432 -0.906179
vt 0.143333 0.999000
vt 0.143333 0.987000
vt 0.154000 0.987000
vt 0.154000 0.999000
s 0
usemtl Material
f 487/621/144 488/622/144 490/623/144 489/624/144
o flag_whatever_who_cares_R
v -2.976630 0.920432 -1.281179
v -2.976630 0.920432 -0.906179
v -2.976630 0.420432 -1.281179
v -2.976630 0.420432 -0.906179
vt 0.132000 0.999000
vt 0.132000 0.987000
vt 0.142667 0.987000
vt 0.142667 0.999000
s 0
usemtl Material
f 491/625/144 492/626/144 494/627/144 493/628/144
o Plane.001
v -2.720872 1.758667 -0.855193
v -1.854128 1.758667 -0.925221
v -2.720872 0.889099 -0.855193
v -1.854128 0.889099 -0.925221
vt 0.539333 0.444000
vt 0.539333 0.693000
vt 0.375333 0.693000
vt 0.375333 0.444000
s 0
usemtl Material
f 495/629/240 496/630/240 498/631/240 497/632/240
o Plane.002
v 0.467044 1.809256 -1.035369
v 1.297512 2.059375 -0.972829
v 0.716365 0.976437 -1.015362
v 1.546833 1.226557 -0.952823
vt 0.177333 0.880000
vt 0.177333 0.614000
vt 0.354667 0.614000
vt 0.354667 0.880000
s 0
usemtl Material
f 499/633/241 500/634/241 502/635/241 501/636/241
o Plane.003
v 1.854128 1.758667 -0.925221
v 2.720872 1.758667 -0.855193
v 1.854128 0.889099 -0.925221
v 2.720872 0.889099 -0.855193
vt 0.380667 0.976000
vt 0.380667 0.697000
vt 0.526000 0.697000
vt 0.526000 0.976000
s 0
usemtl Material
f 503/637/242 504/638/242 506/639/242 505/640/242
o Plane.004
v -0.670434 4.041737 -1.023080
v -0.324580 3.244622 -1.056855
v -1.464042 3.694240 -0.948388
v -1.118188 2.897125 -0.982163
vt 0.738000 0.604000
vt 0.738000 0.706000
vt 0.858000 0.706000
vt 0.858000 0.604000
s 0
usemtl Material
f 507/641/243 508/642/243 510/643/243 509/644/243
o Plane.005
v -2.479827 1.858962 -0.677751
v -1.559932 3.098538 -0.612134
v -1.241560 0.934705 -0.577005
v -0.321665 2.174280 -0.511388
vt 0.562667 0.501000
vt 0.562667 0.718000
vt 0.679333 0.718000
vt 0.679333 0.501000
s 0
usemtl Material
f 511/645/244 512/646/244 514/647/244 513/648/244
o Plane.006
v 1.559930 3.098538 -0.612134
v 2.479825 1.858962 -0.677751
v 0.321663 2.174280 -0.511388
v 1.241559 0.934705 -0.577005
vt 0.640000 0.201000
vt 0.745333 0.201000
vt 0.745333 0.469000
vt 0.640000 0.469000
s 0
usemtl Material
f 515/649/245 517/650/245 518/651/245 516/652/245
o Plane.007
v -1.381930 1.758667 -0.965193
v -0.515187 1.758667 -1.035221
v -1.381930 0.889099 -0.965193
v -0.515187 0.889099 -1.035221
vt 0.656667 0.753000
vt 0.656667 0.968000
vt 0.542000 0.968000
vt 0.542000 0.753000
s 0
usemtl Material
f 519/653/240 520/654/240 522/655/240 521/656/240
o Plane.008
v 0.467044 2.977969 -1.035369
v 1.297512 2.727849 -0.972829
v 0.716365 3.810788 -1.015362
v 1.546833 3.560668 -0.952823
vt 0.804000 0.960000
vt 0.804000 0.768000
vt 0.995333 0.768000
vt 0.995333 0.960000
s 0
usemtl Material
f 523/657/246 525/660/246 526/659/246 524/658/246
o Plane
v 0.379506 7.283128 -0.888606
v 0.379506 7.283128 -0.671808
v 0.379506 5.552750 -0.888606
v 0.379506 5.552750 -0.671808
vt 0.183333 0.980000
vt 0.183333 0.883000
vt 0.352667 0.883000
vt 0.352667 0.980000
s 0
usemtl Material
f 527/661/144 528/662/144 530/663/144 529/664/144
o Plane.009
v 0.700562 3.952260 -0.522475
v 1.292605 3.958235 -0.601510
v 0.707336 3.353668 -0.516985
v 1.299379 3.359643 -0.596020
vt 0.480000 0.172000
vt 0.596000 0.172000
vt 0.596000 0.429000
vt 0.480000 0.429000
s 0
usemtl Material
f 531/665/247 533/666/247 534/667/247 532/668/247
o flag_whatever_who_cares_L.001
v 2.976630 0.942862 -0.705788
v 2.976630 0.942862 -0.297143
v 2.976630 0.398002 -0.705788
v 2.976630 0.398002 -0.297143
vt 0.873333 0.763000
vt 0.873333 0.603000
vt 0.952667 0.603000
vt 0.952667 0.763000
s 0
usemtl Material
f 535/669/144 536/670/144 538/671/144 537/672/144
o PLANE_WHATEVER
v 0.131915 2.020906 -0.247487
v 0.131915 3.565182 -0.247487
v 0.094333 2.020906 -0.156754
v 0.094333 3.565182 -0.156754
v 0.094333 2.020906 -0.338219
v 0.094333 3.565182 -0.338219
vt 0.438744 0.279100
vt 0.209658 0.279100
vt 0.209658 0.187577
vt 0.438744 0.187577
vt 0.438744 0.370621
vt 0.209658 0.370621
s 0
usemtl Material
f 539/673/144 540/674/144 542/675/248 541/676/248
f 543/677/249 544/678/249 540/674/144 539/673/144
o flag_whatever_who_cares_R.001
v -2.976630 0.420432 -0.678911
v -2.976630 0.420432 -0.303911
v -2.976630 0.920432 -0.678911
v -2.976630 0.920432 -0.303911
vt 0.047537 0.360358
vt 0.047537 0.129642
vt 0.174463 0.129642
vt 0.174463 0.360358
s 0
usemtl Material
f 545/679/143 546/680/143 548/681/143 547/682/143
o Plane.010
v -0.989740 3.952260 -0.564778
v -0.394076 3.958235 -0.520673
v -0.984236 3.353668 -0.558015
v -0.388572 3.359643 -0.513910
vt 0.008396 0.356270
vt 0.090129 0.356270
vt 0.090129 0.480135
vt 0.008396 0.480135
s 0
usemtl Material
f 549/683/250 551/684/250 552/685/250 550/686/250
