# shahed_body (reoriented Y-long, split from shahed.obj)
mtllib shahed_body.mtl
v 0.101191 7.183786 -0.377648
v 0.072066 0.740778 -0.268952
v -0.101190 7.183786 -0.377648
v -0.072065 0.740778 -0.268952
v -0.276457 7.183786 -0.276457
v -0.196886 0.740778 -0.196887
v -0.377647 7.183786 -0.101190
v -0.268952 0.740778 -0.072065
v -0.377647 7.183786 0.101190
v -0.268952 0.740778 0.072065
v -0.276457 7.183786 0.276457
v -0.196886 0.740778 0.196887
v -0.101190 7.183786 0.377648
v -0.072065 0.740778 0.268952
v 0.101191 7.183786 0.377648
v 0.072066 0.740778 0.268952
v 0.276458 7.183786 0.276457
v 0.196887 0.740778 0.196887
v 0.377648 7.183786 0.101190
v 0.268952 0.740778 0.072065
v 0.377648 7.183786 -0.101190
v 0.268952 0.740778 -0.072065
v 0.276458 7.183786 -0.276457
v 0.196887 0.740778 -0.196887
v 0.025612 7.897062 -0.095584
v -0.025611 7.897062 -0.095584
v -0.069972 7.897062 -0.069973
v -0.095584 7.897062 -0.025612
v -0.095584 7.897062 0.025612
v -0.069972 7.897062 0.069973
v -0.025611 7.897062 0.095584
v 0.025612 7.897062 0.095584
v 0.069973 7.897062 0.069973
v 0.095585 7.897062 0.025612
v 0.095585 7.897062 -0.025612
v 0.069973 7.897062 -0.069973
v -0.101190 0.740778 -0.377648
v 0.101190 0.740778 -0.377648
v -0.276457 0.740778 -0.276457
v -0.377647 0.740778 -0.101190
v -0.377647 0.740778 0.101190
v -0.276457 0.740778 0.276457
v -0.101190 0.740778 0.377648
v 0.101190 0.740778 0.377648
v 0.276457 0.740778 0.276457
v 0.377648 0.740778 0.101190
v 0.377648 0.740778 -0.101190
v 0.276457 0.740778 -0.276457
v -0.072065 0.638932 -0.268952
v 0.072066 0.638932 -0.268952
v -0.196887 0.638932 -0.196887
v -0.268952 0.638932 -0.072066
v -0.268952 0.638932 0.072065
v -0.196887 0.638932 0.196887
v -0.072065 0.638932 0.268952
v 0.072066 0.638932 0.268952
v 0.196887 0.638932 0.196887
v 0.268952 0.638932 0.072065
v 0.268952 0.638932 -0.072065
v 0.196887 0.638932 -0.196887
v -0.777260 4.657259 -0.230556
v -0.777260 4.657259 0.230556
v -0.777261 0.751879 -0.230556
v -0.777261 0.751879 0.230556
v 0.777261 4.657258 -0.230556
v 0.777261 4.657258 0.230556
v 0.777260 0.751879 -0.230556
v 0.777260 0.751879 0.230556
v 1.505865 3.584180 0.159459
v 1.505864 0.751879 0.159459
v -1.505864 3.584180 -0.159459
v -1.505864 3.584180 0.159459
v 1.505864 0.751879 -0.159459
v -1.505865 0.751879 -0.159459
v -1.505865 0.751879 0.159459
v 1.505865 3.584180 -0.159459
v 2.015887 2.828039 0.130104
v 2.015887 0.751878 0.130104
v -2.015887 2.828039 -0.130104
v -2.015887 2.828039 0.130104
v 2.015887 0.751878 -0.130104
v -2.015888 0.751879 -0.130104
v -2.015888 0.751879 0.130104
v 2.015887 2.828039 -0.130104
v 2.380190 2.302860 0.092165
v 2.380190 0.751878 0.092165
v -2.380190 2.302860 -0.092165
v -2.380190 2.302860 0.092165
v 2.380190 0.751878 -0.092165
v -2.380190 0.751879 -0.092165
v -2.380190 0.751879 0.092165
v 2.380190 2.302859 -0.092165
v 2.865926 1.613542 0.060487
v 2.865926 0.751878 0.060487
v -2.865927 1.613542 -0.060487
v -2.865927 1.613542 0.060487
v 2.865926 0.751878 -0.060487
v -2.865927 0.751879 -0.060487
v -2.865927 0.751879 0.060487
v 2.865926 1.613542 -0.060487
v -0.000000 0.751879 -0.308099
v -0.000000 0.751879 0.308099
v 0.777260 0.385819 0.000000
v -0.777261 0.385819 0.000000
v 1.505864 0.385819 0.000000
v -1.505865 0.385819 0.000000
v 2.015887 0.385818 0.000000
v -2.015888 0.385819 0.000000
v 2.380189 0.385818 0.000000
v -2.380190 0.385819 0.000000
v 2.865926 0.385818 0.000000
v -2.865927 0.385819 0.000000
v 0.589806 0.751879 0.230556
v 0.589806 0.751879 -0.230556
v -0.589807 0.751879 -0.230556
v -0.589807 0.751879 0.230556
v 0.589806 0.385819 0.000000
v -0.589807 0.385819 0.000000
v 0.269737 5.381656 0.230556
v -0.269736 5.381656 0.230556
v 0.000000 5.527299 0.237505
v -0.269736 5.381656 -0.230556
v 0.269737 5.381656 -0.230556
v 0.000000 5.527299 -0.237505
v 2.989492 0.385818 0.000000
v 2.989492 0.751878 0.060487
v 2.989492 1.563541 0.060487
v -2.989493 1.563542 -0.060487
v -2.989493 0.751879 -0.060487
v 2.989492 0.751878 -0.060487
v 2.989492 1.563541 -0.060487
v -2.989493 0.751879 0.060487
v -2.989493 1.563542 0.060487
v -2.989493 0.385819 0.000000
v 2.864369 0.982755 0.517292
v 2.864369 0.982755 -0.517292
v 2.864369 0.167757 0.517292
v 2.864369 0.167757 -0.517292
v 2.975630 0.982752 0.517292
v 2.975630 0.982752 -0.517292
v 2.975630 0.167754 0.517292
v 2.975630 0.167754 -0.517292
v 2.864369 1.233487 0.000000
v 2.975631 1.233487 0.000000
v -2.975631 0.982755 0.517292
v -2.975631 0.982755 -0.517292
v -2.975631 0.167757 0.517292
v -2.975631 0.167757 -0.517292
v -2.864369 0.982755 0.517292
v -2.864369 0.982755 -0.517292
v -2.864369 0.167757 0.517292
v -2.864369 0.167757 -0.517292
v -2.975631 1.233487 0.000000
v -2.864369 1.233487 0.000000
v 0.060960 7.736632 -0.227504
v 0.085344 7.526746 -0.318508
v -0.085343 7.526746 -0.318508
v -0.060959 7.736632 -0.227504
v -0.233163 7.526746 -0.233164
v -0.166544 7.736632 -0.166544
v -0.318507 7.526746 -0.085344
v -0.227503 7.736632 -0.060960
v -0.318507 7.526746 0.085344
v -0.227503 7.736632 0.060959
v -0.233163 7.526746 0.233164
v -0.166544 7.736632 0.166544
v -0.085343 7.526746 0.318508
v -0.060959 7.736632 0.227504
v 0.085344 7.526746 0.318508
v 0.060960 7.736632 0.227504
v 0.233164 7.526746 0.233164
v 0.166545 7.736632 0.166544
v 0.318508 7.526746 0.085344
v 0.227504 7.736632 0.060959
v 0.318508 7.526746 -0.085344
v 0.227504 7.736632 -0.060959
v 0.233164 7.526746 -0.233164
v 0.166545 7.736632 -0.166544
v 1.209048 2.453900 -0.144810
v 1.209048 2.453900 -0.194810
v 1.209048 2.145405 -0.144810
v 1.209048 2.145405 -0.194810
v 1.517543 2.453900 -0.144810
v 1.517543 2.453900 -0.194810
v 1.517543 2.145405 -0.144810
v 1.517543 2.145405 -0.194810
v 1.274956 2.328526 -0.110890
v 1.274956 2.328526 -0.210890
v 1.316646 2.345794 -0.110890
v 1.316646 2.345794 -0.210890
v 1.333914 2.387484 -0.110890
v 1.333914 2.387484 -0.210890
v 1.316646 2.429173 -0.110890
v 1.316646 2.429173 -0.210890
v 1.274956 2.446442 -0.110890
v 1.274956 2.446442 -0.210890
v 1.233267 2.429173 -0.110890
v 1.233267 2.429173 -0.210890
v 1.215999 2.387484 -0.110890
v 1.215999 2.387484 -0.210890
v 1.233267 2.345794 -0.110890
v 1.233267 2.345794 -0.210890
v 1.442799 2.328526 -0.110890
v 1.442799 2.328526 -0.210890
v 1.484489 2.345794 -0.110890
v 1.484489 2.345794 -0.210890
v 1.501757 2.387484 -0.110890
v 1.501757 2.387484 -0.210890
v 1.484489 2.429173 -0.110890
v 1.484489 2.429173 -0.210890
v 1.442799 2.446442 -0.110890
v 1.442799 2.446442 -0.210890
v 1.401110 2.429173 -0.110890
v 1.401110 2.429173 -0.210890
v 1.383841 2.387484 -0.110890
v 1.383841 2.387484 -0.210890
v 1.401110 2.345794 -0.110890
v 1.401110 2.345794 -0.210890
v 1.442799 2.152815 -0.110890
v 1.442799 2.152815 -0.210890
v 1.484489 2.170084 -0.110890
v 1.484489 2.170084 -0.210890
v 1.501757 2.211773 -0.110890
v 1.501757 2.211773 -0.210890
v 1.484489 2.253463 -0.110890
v 1.484489 2.253463 -0.210890
v 1.442799 2.270731 -0.110890
v 1.442799 2.270731 -0.210890
v 1.401110 2.253463 -0.110890
v 1.401110 2.253463 -0.210890
v 1.383841 2.211773 -0.110890
v 1.383841 2.211773 -0.210890
v 1.401110 2.170084 -0.110890
v 1.401110 2.170084 -0.210890
v 1.274956 2.152815 -0.110890
v 1.274956 2.152815 -0.210890
v 1.316646 2.170084 -0.110890
v 1.316646 2.170084 -0.210890
v 1.333915 2.211773 -0.110890
v 1.333915 2.211773 -0.210890
v 1.316646 2.253463 -0.110890
v 1.316646 2.253463 -0.210890
v 1.274956 2.270731 -0.110890
v 1.274956 2.270731 -0.210890
v 1.233267 2.253463 -0.110890
v 1.233267 2.253463 -0.210890
v 1.215999 2.211773 -0.110890
v 1.215999 2.211773 -0.210890
v 1.233267 2.170084 -0.110890
v 1.233267 2.170084 -0.210890
v 2.380190 2.466746 0.046114
v 2.380190 2.466746 -0.046114
v 1.505865 3.775098 0.066642
v 1.505865 3.775098 -0.066642
v -1.505864 3.775098 0.066642
v -1.505864 3.775098 -0.066642
v -2.865927 1.766722 0.032239
v -2.865927 1.766722 -0.032239
v -2.380190 2.466747 0.046114
v -2.380190 2.466746 -0.046114
v 2.865926 1.766721 0.032239
v 2.865926 1.766721 -0.032239
v 2.015887 3.006725 -0.059226
v 2.015887 3.006725 0.059226
v 0.777261 4.873278 -0.078711
v 0.777261 4.873278 0.078711
v -0.777260 4.873278 -0.078711
v -0.777260 4.873278 0.078711
v -2.015887 3.006725 -0.059226
v -2.015887 3.006725 0.059226
v -0.377647 5.437356 -0.101190
v -0.377647 5.437356 0.101190
v 0.377648 5.437356 0.101190
v 0.377648 5.437356 -0.101190
v -2.923428 1.673106 0.032340
v -2.923428 1.673106 -0.032340
v 2.923427 1.673105 -0.032340
v 2.923427 1.673105 0.032340
v 0.101191 5.437356 -0.377648
v -0.101190 5.437356 -0.377648
v -0.276457 5.437356 -0.276457
v -0.276457 5.437356 0.276457
v -0.101190 5.437356 0.377648
v 0.101191 5.437356 0.377648
v 0.276457 5.437356 0.276457
v 0.276457 5.437356 -0.276457
v 0.000000 0.000000 -0.176083
v 0.000000 0.165717 -0.176083
v 0.124510 0.000000 -0.124510
v 0.124510 0.165717 -0.124510
v 0.176083 0.000000 -0.000000
v 0.176083 0.165717 0.000000
v 0.124510 0.000000 0.124510
v 0.124510 0.165717 0.124510
v 0.000000 0.000000 0.176083
v 0.000000 0.165717 0.176083
v -0.124510 0.000000 0.124510
v -0.124510 0.165717 0.124510
v -0.176083 0.000000 -0.000000
v -0.176083 0.165717 0.000000
v -0.124510 0.000000 -0.124510
v -0.124510 0.165717 -0.124510
v 0.111746 0.369347 0.098364
v 0.111746 0.369347 -0.098364
v 0.111746 0.172619 0.098364
v 0.111746 0.172619 -0.098364
v 0.459457 0.369347 0.098364
v 0.459457 0.369347 -0.098364
v 0.459457 0.172619 0.098364
v 0.459457 0.172619 -0.098364
v -0.123042 0.647828 0.123042
v -0.123042 0.647828 -0.123042
v -0.123042 0.097760 0.123042
v -0.123042 0.097760 -0.123042
v 0.123042 0.647828 0.123042
v 0.123042 0.647828 -0.123042
v 0.123042 0.097760 0.123042
v 0.123042 0.097760 -0.123042
v -0.459457 0.619347 0.098364
v -0.459457 0.619347 -0.098364
v -0.459457 0.422619 0.098364
v -0.459457 0.422619 -0.098364
v -0.111746 0.619347 0.098364
v -0.111746 0.619347 -0.098364
v -0.111746 0.422619 0.098364
v -0.111746 0.422619 -0.098364
v -0.459457 0.369347 0.098364
v -0.459457 0.369347 -0.098364
v -0.459457 0.172619 0.098364
v -0.459457 0.172619 -0.098364
v -0.111746 0.369347 0.098364
v -0.111746 0.369347 -0.098364
v -0.111746 0.172619 0.098364
v -0.111746 0.172619 -0.098364
v 0.220000 0.209317 -0.056779
v 0.220000 0.209317 -0.243221
v 0.273404 0.240150 -0.056779
v 0.273404 0.240150 -0.243221
v 0.273404 0.301816 -0.056779
v 0.273404 0.301816 -0.243221
v 0.220000 0.332649 -0.056779
v 0.220000 0.332649 -0.243221
v 0.166596 0.301816 -0.056779
v 0.166596 0.301816 -0.243221
v 0.166596 0.240150 -0.056779
v 0.166596 0.240150 -0.243221
v -0.220000 0.459317 -0.056779
v -0.220000 0.459317 -0.243221
v -0.166596 0.490150 -0.056779
v -0.166596 0.490150 -0.243221
v -0.166596 0.551816 -0.056779
v -0.166596 0.551816 -0.243221
v -0.220000 0.582649 -0.056779
v -0.220000 0.582649 -0.243221
v -0.273404 0.551816 -0.056779
v -0.273404 0.551816 -0.243221
v -0.273404 0.490150 -0.056779
v -0.273404 0.490150 -0.243221
v 0.220000 0.459317 -0.056779
v 0.220000 0.459317 -0.243221
v 0.273404 0.490150 -0.056779
v 0.273404 0.490150 -0.243221
v 0.273404 0.551816 -0.056779
v 0.273404 0.551816 -0.243221
v 0.220000 0.582649 -0.056779
v 0.220000 0.582649 -0.243221
v 0.166596 0.551816 -0.056779
v 0.166596 0.551816 -0.243221
v 0.166596 0.490150 -0.056779
v 0.166596 0.490150 -0.243221
v -0.220000 0.209317 -0.056779
v -0.220000 0.209317 -0.243221
v -0.166596 0.240150 -0.056779
v -0.166596 0.240150 -0.243221
v -0.166596 0.301816 -0.056779
v -0.166596 0.301816 -0.243221
v -0.220000 0.332649 -0.056779
v -0.220000 0.332649 -0.243221
v -0.273404 0.301816 -0.056779
v -0.273404 0.301816 -0.243221
v -0.273404 0.240150 -0.056779
v -0.273404 0.240150 -0.243221
v 0.111746 0.619347 0.098364
v 0.111746 0.619347 -0.098364
v 0.111746 0.422619 0.098364
v 0.111746 0.422619 -0.098364
v 0.459457 0.619347 0.098364
v 0.459457 0.619347 -0.098364
v 0.459457 0.422619 0.098364
v 0.459457 0.422619 -0.098364
v 0.128315 1.925727 0.532720
v 0.128315 3.470003 0.532720
v 0.090733 1.925727 0.623453
v 0.090733 3.470003 0.623453
v 0.000000 1.925727 0.661036
v -0.000000 3.470003 0.661036
v -0.090733 1.925727 0.623453
v -0.090733 3.470003 0.623453
v -0.128315 1.925727 0.532720
v -0.128315 3.470003 0.532720
v -0.090733 1.925727 0.441988
v -0.090733 3.470003 0.441988
v 0.000000 1.925727 0.404405
v -0.000000 3.470003 0.404405
v 0.090733 1.925727 0.441988
v 0.090733 3.470003 0.441988
v 0.043314 3.535753 0.576035
v 0.061255 3.535753 0.532721
v -0.000000 3.535753 0.593976
v -0.043314 3.535753 0.576035
v -0.061255 3.535753 0.532721
v -0.043314 3.535753 0.489407
v -0.000000 3.535753 0.471465
v 0.043314 3.535753 0.489407
v 0.090299 1.729498 0.716148
v 0.050729 1.974571 0.544546
v 0.045150 1.774352 0.780207
v 0.025365 1.999769 0.580533
v -0.045149 1.774352 0.780207
v -0.025365 1.999769 0.580533
v -0.090299 1.729498 0.716148
v -0.050729 1.974571 0.544546
v -0.045149 1.684643 0.652089
v -0.025365 1.949372 0.508558
v 0.045150 1.684643 0.652089
v 0.025365 1.949372 0.508558
v -0.053968 3.152839 0.546125
v -0.053968 3.152839 0.354885
v 0.053968 3.152839 0.546125
v 0.053968 3.152839 0.354885
v -0.053968 3.114525 0.546125
v -0.053968 3.114525 0.354885
v 0.053968 3.114525 0.546125
v 0.053968 3.114525 0.354885
v -0.053968 1.966618 0.546125
v -0.053968 1.966618 0.354885
v 0.053968 1.966618 0.546125
v 0.053968 1.966618 0.354885
v -0.053968 1.928305 0.546125
v -0.053968 1.928305 0.354885
v 0.053968 1.928305 0.546125
v 0.053968 1.928305 0.354885
v 2.976630 0.825253 -0.500972
v 2.976630 0.825253 -0.125972
v 2.976630 0.325253 -0.500972
v 2.976630 0.325253 -0.125972
v -2.976630 0.825253 -0.500972
v -2.976630 0.825253 -0.125972
v -2.976630 0.325253 -0.500972
v -2.976630 0.325253 -0.125972
vt 0.025000 0.921667
vt 0.025000 0.796667
vt 0.028750 0.796667
vt 0.028750 0.921667
vt 0.032500 0.796667
vt 0.032500 0.921667
vt 0.036250 0.796667
vt 0.036250 0.921667
vt 0.040000 0.796667
vt 0.040000 0.921667
vt 0.043750 0.796667
vt 0.043750 0.921667
vt 0.047500 0.796667
vt 0.047500 0.921667
vt 0.051250 0.796667
vt 0.051250 0.921667
vt 0.055000 0.796667
vt 0.055000 0.921667
vt 0.058750 0.796667
vt 0.058750 0.921667
vt 0.062500 0.796667
vt 0.062500 0.921667
vt 0.098750 0.945000
vt 0.096250 0.945000
vt 0.096250 0.941667
vt 0.098750 0.941667
vt 0.017500 0.921667
vt 0.017500 0.796667
vt 0.021250 0.796667
vt 0.021250 0.921667
vt 0.121250 0.951667
vt 0.117500 0.951667
vt 0.117234 0.946819
vt 0.121092 0.946660
vt 0.113750 0.968333
vt 0.110000 0.968333
vt 0.110000 0.958333
vt 0.113750 0.958333
vt 0.080000 0.951667
vt 0.076250 0.951667
vt 0.076250 0.946667
vt 0.080000 0.946667
vt 0.083750 0.951667
vt 0.083750 0.946667
vt 0.087500 0.951667
vt 0.087500 0.946667
vt 0.091250 0.951667
vt 0.091250 0.946667
vt 0.095000 0.951667
vt 0.095000 0.946667
vt 0.106250 0.951667
vt 0.102500 0.951667
vt 0.102500 0.946667
vt 0.106250 0.946667
vt 0.119145 0.984528
vt 0.119853 0.984528
vt 0.120465 0.984882
vt 0.120819 0.985494
vt 0.120819 0.986202
vt 0.120465 0.986814
vt 0.119853 0.987168
vt 0.119145 0.987168
vt 0.118532 0.986814
vt 0.118179 0.986202
vt 0.118179 0.985494
vt 0.118532 0.984882
vt 0.098750 0.951667
vt 0.098750 0.946667
vt 0.117500 0.968333
vt 0.117500 0.958333
vt 0.106250 0.968333
vt 0.106250 0.958333
vt 0.102500 0.968333
vt 0.102500 0.958333
vt 0.098750 0.968333
vt 0.098750 0.958333
vt 0.095000 0.968333
vt 0.095000 0.958333
vt 0.091250 0.968333
vt 0.091250 0.958333
vt 0.087500 0.968333
vt 0.087500 0.958333
vt 0.083750 0.968333
vt 0.083750 0.958333
vt 0.080000 0.968333
vt 0.080000 0.958333
vt 0.076250 0.968333
vt 0.076250 0.958333
vt 0.121250 0.968333
vt 0.121250 0.958333
vt 0.113750 0.951667
vt 0.110000 0.951667
vt 0.110000 0.946728
vt 0.113600 0.946723
vt 0.110142 0.985994
vt 0.111560 0.983538
vt 0.113698 0.984111
vt 0.111708 0.987559
vt 0.111560 0.980702
vt 0.113698 0.980129
vt 0.110142 0.978247
vt 0.111708 0.976681
vt 0.107686 0.976829
vt 0.108259 0.974690
vt 0.104851 0.976829
vt 0.104278 0.974690
vt 0.102395 0.978247
vt 0.100829 0.976681
vt 0.100977 0.980702
vt 0.098838 0.980129
vt 0.100977 0.983538
vt 0.098838 0.984111
vt 0.102395 0.985994
vt 0.100829 0.987559
vt 0.104851 0.987412
vt 0.104278 0.989550
vt 0.107686 0.987412
vt 0.108259 0.989550
vt 0.085689 0.975337
vt 0.087047 0.977689
vt 0.087047 0.980404
vt 0.085689 0.982755
vt 0.083338 0.984113
vt 0.080623 0.984113
vt 0.078271 0.982755
vt 0.076914 0.980404
vt 0.076914 0.977689
vt 0.078271 0.975337
vt 0.080623 0.973980
vt 0.083338 0.973980
vt 0.091250 0.945000
vt 0.088750 0.945000
vt 0.088750 0.941667
vt 0.091250 0.941667
vt 0.078750 0.945000
vt 0.076250 0.945000
vt 0.076250 0.941667
vt 0.078750 0.941667
vt 0.083750 0.945000
vt 0.081250 0.945000
vt 0.081250 0.941667
vt 0.083750 0.941667
vt 0.101250 0.945000
vt 0.101250 0.941667
vt 0.093750 0.945000
vt 0.093750 0.941667
vt 0.086250 0.945000
vt 0.086250 0.941667
vt 0.103750 0.945000
vt 0.103750 0.941667
vt 0.106250 0.945000
vt 0.106250 0.941667
vt 0.180000 0.876667
vt 0.180000 0.860000
vt 0.195000 0.863333
vt 0.195000 0.875000
vt 0.168750 0.886667
vt 0.168750 0.890000
vt 0.166250 0.890000
vt 0.133750 0.756667
vt 0.123750 0.778333
vt 0.118750 0.780000
vt 0.118750 0.651667
vt 0.133750 0.651667
vt 0.132500 0.905000
vt 0.132500 0.900000
vt 0.151250 0.900000
vt 0.151250 0.905000
vt 0.148750 0.648333
vt 0.148750 0.568333
vt 0.158750 0.593333
vt 0.158750 0.648333
vt 0.086250 0.568333
vt 0.086250 0.648333
vt 0.076250 0.648333
vt 0.076250 0.593333
vt 0.133750 0.648333
vt 0.133750 0.543333
vt 0.101250 0.543333
vt 0.101250 0.648333
vt 0.101250 0.651667
vt 0.101250 0.756667
vt 0.086250 0.731667
vt 0.086250 0.651667
vt 0.148750 0.651667
vt 0.148750 0.730000
vt 0.083750 0.890000
vt 0.101250 0.890000
vt 0.101250 0.896667
vt 0.083750 0.896667
vt 0.223750 0.913333
vt 0.233750 0.913333
vt 0.233750 0.923333
vt 0.223750 0.923333
vt 0.127500 0.890000
vt 0.127500 0.896667
vt 0.076250 0.651667
vt 0.076250 0.706667
vt 0.068750 0.693333
vt 0.068750 0.651667
vt 0.158750 0.651667
vt 0.158750 0.706667
vt 0.165000 0.913333
vt 0.180000 0.913333
vt 0.180000 0.923333
vt 0.165000 0.923333
vt 0.127500 0.901667
vt 0.127500 0.908333
vt 0.101250 0.908333
vt 0.101250 0.901667
vt 0.155000 0.933333
vt 0.147500 0.933333
vt 0.147500 0.923333
vt 0.155000 0.923333
vt 0.058750 0.675000
vt 0.058750 0.651667
vt 0.250000 0.933333
vt 0.241250 0.933333
vt 0.241250 0.923333
vt 0.250000 0.923333
vt 0.068750 0.648333
vt 0.068750 0.606667
vt 0.166250 0.606667
vt 0.166250 0.648333
vt 0.166250 0.651667
vt 0.166250 0.693333
vt 0.241250 0.913333
vt 0.250000 0.913333
vt 0.155000 0.913333
vt 0.058750 0.648333
vt 0.058750 0.625000
vt 0.176250 0.625000
vt 0.176250 0.648333
vt 0.176250 0.651667
vt 0.176250 0.675000
vt 0.138750 0.913333
vt 0.147500 0.913333
vt 0.138750 0.923333
vt 0.165000 0.875000
vt 0.165000 0.863333
vt 0.116250 0.780000
vt 0.111250 0.778333
vt 0.116250 0.651667
vt 0.233750 0.933333
vt 0.223750 0.933333
vt 0.182500 0.923333
vt 0.182500 0.911667
vt 0.186250 0.911667
vt 0.186250 0.923333
vt 0.138750 0.933333
vt 0.180000 0.933333
vt 0.165000 0.933333
vt 0.208750 0.913333
vt 0.208750 0.923333
vt 0.208750 0.933333
vt 0.193750 0.928333
vt 0.186250 0.935000
vt 0.202500 0.935000
vt 0.195000 0.928333
vt 0.202500 0.923333
vt 0.206250 0.911667
vt 0.206250 0.923333
vt 0.202500 0.911667
vt 0.206250 0.935000
vt 0.182500 0.935000
vt 0.220000 0.895000
vt 0.212500 0.895000
vt 0.212500 0.891667
vt 0.220000 0.891667
vt 0.196250 0.885000
vt 0.212500 0.885000
vt 0.212500 0.888333
vt 0.196250 0.888333
vt 0.167500 0.905000
vt 0.185000 0.905000
vt 0.185000 0.910000
vt 0.167500 0.910000
vt 0.151250 0.891667
vt 0.151250 0.896667
vt 0.132500 0.896667
vt 0.132500 0.891667
vt 0.118750 0.520000
vt 0.123750 0.521667
vt 0.118750 0.648333
vt 0.168750 0.895000
vt 0.168750 0.891667
vt 0.166250 0.891667
vt 0.110000 0.521667
vt 0.116250 0.520000
vt 0.116250 0.648333
vt 0.171250 0.896667
vt 0.171250 0.893333
vt 0.173750 0.893333
vt 0.165000 0.898333
vt 0.152500 0.898333
vt 0.152500 0.893333
vt 0.165000 0.893333
vt 0.083750 0.901667
vt 0.083750 0.908333
vt 0.165000 0.905000
vt 0.152500 0.905000
vt 0.152500 0.900000
vt 0.165000 0.900000
vt 0.220000 0.890000
vt 0.171250 0.886667
vt 0.171250 0.890000
vt 0.173750 0.890000
vt 0.220000 0.885000
vt 0.220000 0.888333
vt 0.196250 0.895000
vt 0.196250 0.891667
vt 0.115000 0.851667
vt 0.115000 0.825000
vt 0.131250 0.825000
vt 0.131250 0.851667
vt 0.133750 0.825000
vt 0.133750 0.851667
vt 0.150000 0.825000
vt 0.150000 0.851667
vt 0.110000 0.838333
vt 0.133750 0.873333
vt 0.131250 0.873333
vt 0.131250 0.803333
vt 0.133750 0.803333
vt 0.133750 0.888333
vt 0.131250 0.888333
vt 0.131250 0.788333
vt 0.133750 0.788333
vt 0.155000 0.838333
vt 0.142500 0.978333
vt 0.142500 0.976667
vt 0.148750 0.976667
vt 0.148750 0.978333
vt 0.150000 0.976667
vt 0.148750 0.968333
vt 0.150000 0.968333
vt 0.148750 0.966667
vt 0.142500 0.968333
vt 0.142500 0.966667
vt 0.141250 0.968333
vt 0.141250 0.976667
vt 0.142500 0.983333
vt 0.142500 0.980000
vt 0.143750 0.980000
vt 0.143750 0.983333
vt 0.145000 0.980000
vt 0.145000 0.983333
vt 0.146250 0.980000
vt 0.146250 0.983333
vt 0.147500 0.980000
vt 0.147500 0.983333
vt 0.148750 0.980000
vt 0.148750 0.983333
vt 0.150000 0.980000
vt 0.150000 0.983333
vt 0.143762 0.986156
vt 0.144483 0.985435
vt 0.145501 0.985435
vt 0.146222 0.986156
vt 0.146222 0.987174
vt 0.145501 0.987895
vt 0.144483 0.987895
vt 0.143762 0.987174
vt 0.151250 0.980000
vt 0.151250 0.983333
vt 0.152500 0.980000
vt 0.152500 0.983333
vt 0.144501 0.985405
vt 0.145519 0.985405
vt 0.146240 0.986125
vt 0.146240 0.987144
vt 0.145519 0.987864
vt 0.144501 0.987864
vt 0.143780 0.987144
vt 0.143780 0.986125
vt 0.146231 0.986156
vt 0.146231 0.987174
vt 0.145510 0.987895
vt 0.144492 0.987895
vt 0.143771 0.987174
vt 0.143771 0.986156
vt 0.144492 0.985435
vt 0.145510 0.985435
vt 0.146231 0.986125
vt 0.146231 0.987144
vt 0.145510 0.987864
vt 0.144492 0.987864
vt 0.143771 0.987144
vt 0.143771 0.986125
vt 0.144492 0.985405
vt 0.145510 0.985405
vt 0.167500 0.898333
vt 0.185000 0.898333
vt 0.185000 0.903333
vt 0.167500 0.903333
vt 0.021250 0.968333
vt 0.025000 0.968333
vt 0.017500 0.968333
vt 0.058750 0.968333
vt 0.062500 0.968333
vt 0.055000 0.968333
vt 0.051250 0.968333
vt 0.047500 0.968333
vt 0.043750 0.968333
vt 0.040000 0.968333
vt 0.036250 0.968333
vt 0.032500 0.968333
vt 0.028750 0.968333
vt 0.097500 0.933333
vt 0.097500 0.938333
vt 0.095000 0.938333
vt 0.095000 0.933333
vt 0.092500 0.938333
vt 0.092500 0.933333
vt 0.090000 0.938333
vt 0.090000 0.933333
vt 0.087500 0.938333
vt 0.087500 0.933333
vt 0.085000 0.938333
vt 0.085000 0.933333
vt 0.082500 0.938333
vt 0.082500 0.933333
vt 0.115000 0.931667
vt 0.115000 0.935000
vt 0.112500 0.938333
vt 0.110000 0.938333
vt 0.107500 0.935000
vt 0.107500 0.931667
vt 0.110000 0.928333
vt 0.112500 0.928333
vt 0.080000 0.938333
vt 0.080000 0.933333
vt 0.077500 0.938333
vt 0.077500 0.933333
vt 0.223750 0.973333
vt 0.227500 0.973333
vt 0.227500 0.981667
vt 0.223750 0.981667
vt 0.227500 0.986667
vt 0.223750 0.986667
vt 0.220000 0.981667
vt 0.216250 0.981667
vt 0.216250 0.973333
vt 0.220000 0.973333
vt 0.212500 0.981667
vt 0.212500 0.973333
vt 0.193750 0.973333
vt 0.188750 0.973333
vt 0.188750 0.958333
vt 0.193750 0.958333
vt 0.198750 0.958333
vt 0.203750 0.958333
vt 0.203750 0.973333
vt 0.198750 0.973333
vt 0.208750 0.958333
vt 0.208750 0.973333
vt 0.077500 0.928333
vt 0.077500 0.923333
vt 0.078750 0.923333
vt 0.078750 0.928333
vt 0.080000 0.923333
vt 0.080000 0.928333
vt 0.081250 0.923333
vt 0.081250 0.928333
vt 0.082500 0.923333
vt 0.082500 0.928333
vt 0.091250 0.925000
vt 0.093750 0.923333
vt 0.096250 0.925000
vt 0.096250 0.928333
vt 0.093750 0.930000
vt 0.091250 0.928333
vt 0.083750 0.923333
vt 0.083750 0.928333
vt 0.085000 0.923333
vt 0.085000 0.928333
vt 0.165000 0.951667
vt 0.165000 0.993333
vt 0.162500 0.993333
vt 0.162500 0.951667
vt 0.160000 0.993333
vt 0.160000 0.951667
vt 0.180000 0.951667
vt 0.180000 0.993333
vt 0.177500 0.993333
vt 0.177500 0.951667
vt 0.175000 0.993333
vt 0.175000 0.951667
vt 0.172500 0.993333
vt 0.172500 0.951667
vt 0.170000 0.993333
vt 0.170000 0.951667
vt 0.187453 0.989587
vt 0.187453 0.992420
vt 0.185832 0.991674
vt 0.185834 0.990337
vt 0.167500 0.993333
vt 0.167500 0.951667
vt 0.193750 0.981667
vt 0.195000 0.983333
vt 0.195000 0.988333
vt 0.193750 0.990000
vt 0.190000 0.990000
vt 0.188750 0.988333
vt 0.188750 0.983333
vt 0.190000 0.981667
vt 0.187500 0.978333
vt 0.187500 0.983333
vt 0.186250 0.985000
vt 0.182500 0.985000
vt 0.181250 0.983333
vt 0.181250 0.978333
vt 0.182500 0.976667
vt 0.186250 0.976667
vt 0.181308 0.989592
vt 0.183104 0.987593
vt 0.183779 0.989389
vt 0.182926 0.990337
vt 0.185649 0.987588
vt 0.184984 0.989390
vt 0.181306 0.992416
vt 0.182926 0.991677
vt 0.185650 0.994423
vt 0.184983 0.992621
vt 0.183103 0.994419
vt 0.183779 0.992622
vt 0.198750 0.980000
vt 0.198750 0.988333
vt 0.197500 0.988333
vt 0.197500 0.980000
vt 0.196250 0.988333
vt 0.196250 0.980000
vt 0.203750 0.980000
vt 0.203750 0.988333
vt 0.202500 0.988333
vt 0.202500 0.980000
vt 0.201250 0.988333
vt 0.201250 0.980000
vt 0.200000 0.988333
vt 0.200000 0.980000
vt 0.210000 0.986667
vt 0.207500 0.988333
vt 0.205000 0.986667
vt 0.205000 0.983333
vt 0.207500 0.981667
vt 0.210000 0.983333
vt 0.193750 0.996667
vt 0.193750 0.991667
vt 0.196250 0.991667
vt 0.196250 0.996667
vt 0.188750 0.996667
vt 0.188750 0.991667
vt 0.190000 0.991667
vt 0.190000 0.996667
vt 0.192500 0.991667
vt 0.192500 0.996667
vt 0.268750 0.998333
vt 0.268750 0.978333
vt 0.288750 0.978333
vt 0.288750 0.998333
vt 0.247500 0.998333
vt 0.247500 0.978333
vt 0.267500 0.978333
vt 0.267500 0.998333
o chudhed-136
usemtl Material
vn 0.258821 -0.000000 -0.965925
vn -0.258821 0.000000 -0.965925
vn -0.707108 0.000000 -0.707106
vn -0.965926 0.000000 -0.258819
vn -0.960559 0.049388 -0.273657
vn -0.965926 0.000000 0.258819
vn -0.960559 0.049388 0.273657
vn -0.707108 0.000000 0.707106
vn -0.258821 0.000000 0.965925
vn 0.258821 -0.000000 0.965925
vn 0.707107 -0.000000 0.707106
vn 0.965925 0.000000 0.258821
vn 0.960558 0.049388 0.273659
vn 0.965925 0.000000 -0.258821
vn 0.960558 0.049388 -0.273659
vn 0.707107 -0.000000 -0.707106
vn 0.837654 0.497954 -0.224448
vn 0.613206 0.497954 -0.613205
vn 0.323164 0.889455 -0.323164
vn 0.441451 0.889455 -0.118286
vn 0.258724 0.027350 -0.965564
vn -0.258723 0.027350 -0.965564
vn -0.250110 0.257248 -0.933418
vn 0.250110 0.257248 -0.933418
vn 0.837654 0.497954 0.224448
vn 0.441451 0.889455 0.118286
vn 0.613206 0.497954 0.613205
vn 0.323164 0.889455 0.323164
vn 0.224449 0.497955 0.837653
vn 0.118286 0.889455 0.441450
vn -0.224449 0.497955 0.837653
vn -0.118286 0.889455 0.441450
vn -0.613206 0.497954 0.613205
vn -0.323164 0.889455 0.323164
vn -0.613205 0.497954 -0.613206
vn -0.837654 0.497954 -0.224448
vn -0.441450 0.889455 -0.118286
vn -0.323163 0.889455 -0.323164
vn 0.118286 0.889455 -0.441450
vn -0.118286 0.889455 -0.441450
vn -0.441451 0.889454 0.118286
vn -0.837654 0.497954 0.224448
vn 0.706843 0.027350 -0.706841
vn 0.683310 0.257247 -0.683309
vn -0.706843 0.027350 -0.706841
vn -0.683310 0.257247 -0.683309
vn -0.965565 0.027350 -0.258722
vn -0.933418 0.257247 -0.250108
vn -0.965565 0.027350 0.258722
vn -0.933418 0.257248 0.250108
vn -0.706843 0.027350 0.706841
vn -0.683310 0.257247 0.683309
vn -0.258723 0.027350 0.965564
vn -0.250110 0.257248 0.933418
vn 0.258724 0.027350 0.965564
vn 0.250110 0.257248 0.933418
vn 0.706843 0.027350 0.706841
vn 0.683310 0.257247 0.683309
vn 0.965564 0.027350 0.258723
vn 0.933418 0.257247 0.250108
vn 0.965564 0.027350 -0.258723
vn 0.933418 0.257247 -0.250108
vn 0.224449 0.497955 -0.837653
vn -0.224449 0.497955 -0.837653
vn 0.000000 -1.000000 0.000000
vn 0.000000 -0.989144 -0.146948
vn 0.000000 -0.989144 0.146948
vn 0.089380 0.026430 0.995647
vn 0.200578 0.253547 0.946299
vn 0.345163 0.211790 0.914334
vn -0.109203 0.029401 -0.993585
vn -0.082770 0.026062 -0.996228
vn -0.000000 0.008502 -0.999964
vn -0.072687 -0.025006 -0.997041
vn -0.130147 0.032843 0.990951
vn -0.767932 0.498777 0.401873
vn -0.745378 0.484307 0.458102
vn -0.116185 0.030249 0.992767
vn -0.078966 -0.051677 0.995537
vn -0.068359 -0.051025 0.996355
vn 0.130147 0.032843 0.990951
vn 0.078966 -0.051677 0.995537
vn 0.068358 -0.051025 0.996355
vn 0.116185 0.030249 0.992767
vn -0.072687 -0.025006 0.997041
vn -0.109203 0.029401 0.993585
vn 0.109203 0.029401 0.993585
vn 0.072687 -0.025006 0.997041
vn 0.072687 -0.025006 -0.997041
vn 0.109203 0.029401 -0.993585
vn 0.130147 0.032843 -0.990951
vn 0.078966 -0.051677 -0.995537
vn -0.078966 -0.051677 -0.995537
vn -0.130147 0.032843 -0.990951
vn -0.769143 0.513449 -0.380512
vn -0.036217 -0.336175 0.941103
vn -0.036586 -0.429670 0.902245
vn -0.767932 0.498777 -0.401873
vn 0.068358 -0.051025 -0.996355
vn 0.116185 0.030249 -0.992767
vn 0.123062 0.028158 -0.991999
vn 0.076557 -0.049581 -0.995832
vn -0.068359 -0.051025 -0.996355
vn -0.116185 0.030249 -0.992767
vn 0.033946 -0.483381 0.874752
vn 0.036585 -0.429670 0.902245
vn 0.767932 0.498776 -0.401874
vn 0.769143 0.513448 -0.380513
vn 0.039702 -0.241669 -0.969546
vn 0.036216 -0.336175 -0.941103
vn 0.089380 0.026430 -0.995647
vn 0.048125 -0.048712 -0.997653
vn -0.048125 -0.048712 -0.997653
vn -0.076557 -0.049581 -0.995832
vn -0.039702 -0.241669 -0.969546
vn -0.025484 -0.195800 -0.980313
vn 0.076557 -0.049581 0.995832
vn 0.123062 0.028158 0.991999
vn -0.123062 0.028158 0.991999
vn -0.076557 -0.049581 0.995832
vn -0.123062 0.028158 -0.991999
vn -0.048125 -0.048712 0.997653
vn -0.025484 -0.195800 0.980313
vn -0.039702 -0.241669 0.969546
vn 0.036216 -0.336175 0.941103
vn 0.048125 -0.048712 0.997653
vn -0.089379 0.026430 0.995647
vn -0.089379 0.026430 -0.995647
vn 0.039702 -0.241669 0.969546
vn 0.025484 -0.195800 0.980313
vn 0.082770 0.026062 0.996228
vn 0.769143 0.513448 0.380513
vn 0.082770 0.026062 -0.996228
vn -0.036586 -0.429670 -0.902245
vn -0.036217 -0.336175 -0.941103
vn 0.072403 -0.091713 0.993150
vn 0.000000 -0.532935 0.846156
vn 0.025484 -0.195800 -0.980313
vn 0.036585 -0.429670 -0.902245
vn 0.033946 -0.483381 -0.874752
vn -0.033946 -0.483381 0.874752
vn -0.033946 -0.483381 -0.874752
vn -1.000000 0.000000 0.000000
vn 1.000000 0.000000 0.000000
vn -0.072403 -0.091713 0.993150
vn -0.072403 -0.091713 -0.993150
vn 0.000000 -0.532935 -0.846156
vn 0.072403 -0.091713 -0.993150
vn 0.000000 -0.050228 -0.998738
vn 0.000000 -0.163027 -0.986622
vn 0.000000 -0.050228 0.998738
vn 0.000000 -0.163027 0.986622
vn -0.006484 0.016025 -0.999851
vn 0.409022 0.247855 -0.878219
vn 0.345162 0.211790 -0.914335
vn 0.745379 0.484306 0.458102
vn 0.767932 0.498776 0.401874
vn 0.000000 0.008502 0.999964
vn -0.082770 0.026062 0.996228
vn -0.769143 0.513449 0.380512
vn -0.200576 0.253546 -0.946300
vn -0.345161 0.211790 -0.914335
vn -0.200576 0.253546 0.946300
vn -0.006484 0.016025 0.999851
vn -0.409021 0.247855 0.878220
vn -0.345161 0.211789 0.914336
vn 0.745379 0.484306 -0.458102
vn 0.698047 0.457489 0.550848
vn 0.698047 0.457488 -0.550849
vn -0.745378 0.484307 -0.458103
vn -0.698046 0.457489 -0.550851
vn -0.698046 0.457489 0.550849
vn 0.200578 0.253547 -0.946299
vn 0.006485 0.016025 -0.999851
vn 0.006485 0.016025 0.999851
vn -0.998402 0.056504 0.000000
vn 0.000000 0.000000 1.000000
vn 0.000000 0.000000 -1.000000
vn 0.000012 0.899865 0.436168
vn 0.000013 1.000000 0.000000
vn 0.000012 0.899865 -0.436168
vn 0.707107 -0.707107 0.000000
vn 0.707107 0.707107 0.000000
vn -0.707113 0.707101 0.000000
vn -0.707113 -0.707101 0.000000
vn 0.998402 0.056504 0.000000
vn -0.409022 0.247855 -0.878219
vn -0.854777 0.518996 0.000000
vn 0.854777 0.518996 0.000000
vn -0.824628 0.565676 -0.000003
vn -0.785626 0.521477 0.332947
vn -0.785625 0.521476 -0.332950
vn 0.785626 0.521476 0.332948
vn 0.785626 0.521476 -0.332949
vn 0.824629 0.565675 0.000000
vn 0.409023 0.247856 0.878219
vn 0.500002 -0.866024 0.000000
vn 0.866027 -0.499998 0.000000
vn 0.866027 0.499998 0.000000
vn 0.500002 0.866024 0.000000
vn -0.500002 0.866024 0.000000
vn -0.866027 0.499998 0.000000
vn -0.866027 -0.499998 0.000000
vn -0.500002 -0.866024 0.000000
vn 0.999517 0.031084 0.000000
vn 0.706768 0.031084 0.706762
vn 0.000000 0.031084 0.999517
vn -0.706768 0.031084 0.706762
vn -0.999517 0.031084 0.000000
vn -0.706765 0.031085 -0.706765
vn 0.000000 0.031085 -0.999517
vn 0.000000 0.912049 0.410082
vn -0.289972 0.912049 0.289970
vn 0.706765 0.031085 -0.706765
vn 0.289972 0.912049 0.289970
vn 0.410080 0.912049 0.000000
vn 0.289971 0.912050 -0.289969
vn 0.000000 0.912049 -0.410080
vn -0.289971 0.912050 -0.289969
vn -0.410080 0.912049 0.000000
vn 0.991367 0.107407 -0.075207
vn 0.495680 0.599853 0.628074
vn -0.495679 0.599853 0.628076
vn -0.991367 0.107406 -0.075207
vn -0.495685 -0.385036 -0.778488
vn 0.495687 -0.385035 -0.778488
vn 0.000000 -0.819153 0.573576
f 279/1/1 38/2/1 37/3/2 280/4/2
f 280/4/2 37/3/2 39/5/3 281/6/3
f 281/6/3 39/5/3 40/7/4 271/8/5
f 271/8/5 40/7/4 41/9/6 272/10/7
f 272/10/7 41/9/6 42/11/8 282/12/8
f 282/12/8 42/11/8 43/13/9 283/14/9
f 283/14/9 43/13/9 44/15/10 284/16/10
f 284/16/10 44/15/10 45/17/11 285/18/11
f 285/18/11 45/17/11 46/19/12 273/20/13
f 273/20/13 46/19/12 47/21/14 274/22/15
f 16/23/10 14/24/9 55/25/9 56/26/10
f 274/27/15 47/28/14 48/29/16 286/30/16
f 286/30/16 48/29/16 38/2/1 279/1/1
f 176/31/17 178/32/18 36/33/19 35/34/20
f 1/35/21 3/36/22 157/37/23 156/38/24
f 174/39/25 176/40/17 35/41/20 34/42/26
f 172/43/27 174/39/25 34/42/26 33/44/28
f 170/45/29 172/43/27 33/44/28 32/46/30
f 168/47/31 170/45/29 32/46/30 31/48/32
f 166/49/33 168/47/31 31/48/32 30/50/34
f 160/51/35 162/52/36 28/53/37 27/54/38
f 25/55/39 26/56/40 27/57/38
f 25/55/39 27/57/38 28/58/37
f 25/55/39 28/58/37 29/59/41
f 25/55/39 29/59/41 30/60/34
f 25/55/39 30/60/34 31/61/32
f 25/55/39 31/61/32 32/62/30
f 25/55/39 32/62/30 33/63/28
f 25/55/39 33/63/28 34/64/26
f 25/55/39 34/64/26 35/65/20
f 25/55/39 35/65/20 36/66/19
f 164/67/42 166/49/33 30/50/34 29/68/41
f 162/52/36 164/67/42 29/68/41 28/53/37
f 23/69/43 1/35/21 156/38/24 177/70/44
f 3/36/22 5/71/45 159/72/46 157/37/23
f 5/71/45 7/73/47 161/74/48 159/72/46
f 7/73/47 9/75/49 163/76/50 161/74/48
f 9/75/49 11/77/51 165/78/52 163/76/50
f 11/77/51 13/79/53 167/80/54 165/78/52
f 13/79/53 15/81/55 169/82/56 167/80/54
f 15/81/55 17/83/57 171/84/58 169/82/56
f 17/83/57 19/85/59 173/86/60 171/84/58
f 19/85/59 21/87/61 175/88/62 173/86/60
f 21/89/61 23/69/43 177/70/44 175/90/62
f 155/91/63 158/92/64 26/93/40 25/94/39
f 158/92/64 160/51/35 27/54/38 26/93/40
f 2/95/65 4/96/65 37/97/65 38/98/65
f 4/96/65 6/99/65 39/100/65 37/97/65
f 6/99/65 8/101/65 40/102/65 39/100/65
f 8/101/65 10/103/65 41/104/65 40/102/65
f 10/103/65 12/105/65 42/106/65 41/104/65
f 12/105/65 14/107/65 43/108/65 42/106/65
f 14/107/65 16/109/65 44/110/65 43/108/65
f 16/109/65 18/111/65 45/112/65 44/110/65
f 18/111/65 20/113/65 46/114/65 45/112/65
f 20/113/65 22/115/65 47/116/65 46/114/65
f 22/115/65 24/117/65 48/118/65 47/116/65
f 24/117/65 2/95/65 38/98/65 48/118/65
f 49/119/65 50/120/65 60/121/65
f 49/119/65 60/121/65 59/122/65
f 49/119/65 59/122/65 58/123/65
f 49/119/65 58/123/65 57/124/65
f 49/119/65 57/124/65 56/125/65
f 49/119/65 56/125/65 55/126/65
f 49/119/65 55/126/65 54/127/65
f 49/119/65 54/127/65 53/128/65
f 49/119/65 53/128/65 52/129/65
f 49/119/65 52/129/65 51/130/65
f 10/131/6 8/132/4 52/133/4 53/134/6
f 24/135/16 22/136/14 59/137/14 60/138/16
f 4/139/2 2/140/1 50/141/1 49/142/2
f 18/143/11 16/23/10 56/26/10 57/144/11
f 12/145/8 10/131/6 53/134/6 54/146/8
f 2/140/1 24/135/16 60/138/16 50/141/1
f 6/147/3 4/139/2 49/142/2 51/148/3
f 20/149/12 18/143/11 57/144/11 58/150/12
f 14/24/9 12/145/8 54/146/8 55/25/9
f 8/132/4 6/147/3 51/148/3 52/133/4
f 22/151/14 20/149/12 58/150/12 59/152/14
f 102/153/65 101/154/65 67/155/66 68/156/67
f 93/157/68 278/158/69 261/159/70
f 61/160/71 122/161/72 124/162/73
f 61/160/71 124/162/73 101/163/73
f 61/160/71 101/163/73 63/164/74
f 72/165/75 255/166/76 270/167/77 80/168/78
f 75/169/79 72/170/75 80/171/78 83/172/80
f 69/173/81 70/174/82 78/175/83 77/176/84
f 64/177/85 62/178/86 72/170/75 75/169/79
f 66/179/87 68/180/88 70/174/82 69/173/81
f 67/181/89 65/182/90 76/183/91 73/184/92
f 61/160/71 63/164/74 74/185/93 71/186/94
f 122/187/72 61/188/71 267/189/95 271/190/5
f 75/191/79 83/192/80 108/193/96 106/194/97
f 61/188/71 71/195/94 256/196/98 267/189/95
f 81/197/99 84/198/100 92/199/101 89/200/102
f 71/186/94 74/185/93 82/201/103 79/202/104
f 70/203/82 68/204/88 103/205/105 105/206/106
f 254/207/107 76/208/91 65/209/90 265/210/108
f 73/184/92 76/183/91 84/198/100 81/197/99
f 81/211/99 89/212/102 109/213/109 107/214/110
f 89/200/102 92/199/101 100/215/111 97/216/112
f 98/217/113 90/218/114 110/219/115 112/220/116
f 77/176/84 78/175/83 86/221/117 85/222/118
f 83/172/80 80/171/78 88/223/119 91/224/120
f 79/202/104 82/201/103 90/225/114 87/226/121
f 91/227/120 99/228/122 112/220/123 110/219/124
f 78/229/83 70/203/82 105/206/106 107/214/125
f 85/222/118 86/221/117 94/230/126 93/231/68
f 91/224/120 88/223/119 96/232/127 99/233/122
f 87/226/121 90/225/114 98/234/113 95/235/128
f 94/236/126 86/237/117 109/213/129 111/238/130
f 119/187/131 66/188/87 266/189/132 273/190/13
f 64/239/67 63/240/66 101/154/65 102/153/65
f 124/241/73 123/242/133 65/182/90
f 124/241/73 65/182/90 67/181/89
f 124/241/73 67/181/89 101/243/73
f 82/244/103 74/245/93 106/194/134 108/193/135
f 86/237/117 78/229/83 107/214/125 109/213/129
f 103/246/105 68/247/136 113/248/137 117/249/137
f 89/212/102 97/250/112 111/238/138 109/213/109
f 67/251/89 73/252/92 105/206/139 103/205/140
f 64/253/85 75/191/79 106/194/97 104/254/141
f 83/192/80 91/227/120 110/219/124 108/193/96
f 73/252/92 81/211/99 107/214/110 105/206/139
f 90/218/114 82/244/103 108/193/135 110/219/115
f 74/245/93 63/255/74 104/254/142 106/194/134
f 113/256/143 114/257/143 117/249/143
f 115/258/144 116/259/144 118/260/144
f 64/261/145 104/262/141 118/260/137 116/263/137
f 104/262/142 63/264/146 115/258/147 118/260/147
f 67/265/148 103/246/140 117/249/147 114/257/147
f 111/266/138 97/267/112 130/268/149 125/269/150
f 112/266/123 99/267/122 132/268/151 134/269/152
f 95/270/128 98/271/113 129/272/149 128/273/153
f 252/274/154 262/275/155 100/276/111 92/277/101
f 77/278/84 264/279/156 253/280/157 69/281/81
f 121/282/158 120/283/159 62/178/86
f 121/282/158 62/178/86 64/177/85
f 121/282/158 64/177/85 102/284/158
f 268/210/160 255/207/76 72/208/75 62/209/86
f 95/285/128 276/286/161 258/287/162
f 66/179/87 119/288/131 121/289/158
f 66/179/87 121/289/158 102/290/158
f 66/179/87 102/290/158 68/180/88
f 96/291/127 275/292/163 133/293/164
f 259/274/165 257/275/166 96/276/127 88/277/119
f 96/157/127 257/159/166 275/158/163
f 263/167/167 84/168/100 76/165/91 254/166/107
f 251/294/168 264/295/156 77/296/84 85/297/118
f 272/298/7 268/210/160 62/209/86 120/299/159
f 92/300/101 84/301/100 263/302/167 252/303/169
f 69/195/81 253/196/157 266/189/132 66/188/87
f 256/280/98 71/281/94 79/278/104 269/279/170
f 269/295/170 79/296/104 87/297/121 260/294/171
f 80/301/78 270/302/77 259/303/172 88/300/119
f 126/272/144 125/304/144 130/268/144
f 100/305/111 277/306/173 131/307/174
f 134/304/143 132/268/143 129/272/143
f 95/305/128 128/307/153 276/306/161
f 100/285/111 262/287/155 277/286/173
f 94/271/126 111/308/130 125/309/152 126/272/151
f 97/267/112 100/310/111 131/311/174 130/268/149
f 93/270/68 94/271/126 126/272/151 127/273/175
f 99/267/122 96/310/127 133/311/164 132/268/151
f 98/271/113 112/308/116 134/309/150 129/272/149
f 128/273/176 129/272/143 132/268/143 133/311/176
f 135/312/143 136/313/143 138/314/143 137/315/143
f 137/315/65 138/314/65 142/316/65 141/317/65
f 141/317/144 142/316/144 140/318/144 139/319/144
f 136/313/143 135/312/143 143/320/143
f 137/315/177 141/317/177 139/321/177 135/322/177
f 142/316/178 138/314/178 136/323/178 140/324/178
f 135/322/179 139/321/179 144/325/180 143/326/180
f 140/324/181 136/323/181 143/327/180 144/328/180
f 139/319/144 140/318/144 144/329/144
f 145/312/143 146/313/143 148/314/143 147/315/143
f 147/315/65 148/314/65 152/316/65 151/317/65
f 151/317/144 152/316/144 150/318/144 149/319/144
f 146/313/143 145/312/143 153/320/143
f 147/315/177 151/317/177 149/321/177 145/322/177
f 152/316/178 148/314/178 146/323/178 150/324/178
f 145/322/179 149/321/179 154/325/180 153/326/180
f 150/324/181 146/323/181 153/327/180 154/328/180
f 149/319/144 150/318/144 154/329/144
f 156/38/24 157/37/23 158/92/64 155/91/63
f 157/37/23 159/72/46 160/51/35 158/92/64
f 159/72/46 161/74/48 162/52/36 160/51/35
f 161/74/48 163/76/50 164/67/42 162/52/36
f 163/76/50 165/78/52 166/49/33 164/67/42
f 165/78/52 167/80/54 168/47/31 166/49/33
f 167/80/54 169/82/56 170/45/29 168/47/31
f 169/82/56 171/84/58 172/43/27 170/45/29
f 171/84/58 173/86/60 174/39/25 172/43/27
f 173/86/60 175/88/62 176/40/17 174/39/25
f 175/90/62 177/70/44 178/32/18 176/31/17
f 177/70/44 156/38/24 155/91/63 178/32/18
f 178/32/18 155/91/63 25/94/39 36/33/19
f 179/330/143 180/331/143 182/332/143 181/333/143
f 181/334/65 182/332/65 186/335/65 185/336/65
f 185/337/144 186/335/144 184/338/144 183/339/144
f 183/340/180 184/338/180 180/331/180 179/341/180
f 186/335/178 182/332/178 180/331/178 184/338/178
f 187/342/65 188/343/65 190/344/182 189/345/182
f 189/345/182 190/344/182 192/346/144 191/347/144
f 191/347/144 192/346/144 194/348/183 193/349/183
f 193/349/183 194/348/183 196/350/180 195/351/180
f 195/351/180 196/350/180 198/352/184 197/353/184
f 197/353/184 198/352/184 200/354/143 199/355/143
f 190/356/178 188/357/178 202/358/178
f 190/356/178 202/358/178 200/359/178
f 190/356/178 200/359/178 198/360/178
f 190/356/178 198/360/178 196/361/178
f 190/356/178 196/361/178 194/362/178
f 190/356/178 194/362/178 192/363/178
f 199/355/143 200/354/143 202/364/185 201/365/185
f 201/365/185 202/364/185 188/366/65 187/367/65
f 203/342/65 204/343/65 206/344/182 205/345/182
f 205/345/182 206/344/182 208/346/144 207/347/144
f 207/347/144 208/346/144 210/348/183 209/349/183
f 209/349/183 210/348/183 212/350/180 211/351/180
f 211/351/180 212/350/180 214/352/184 213/353/184
f 213/353/184 214/352/184 216/354/143 215/355/143
f 206/368/178 204/369/178 218/370/178
f 206/368/178 218/370/178 216/371/178
f 206/368/178 216/371/178 214/372/178
f 206/368/178 214/372/178 212/373/178
f 206/368/178 212/373/178 210/374/178
f 206/368/178 210/374/178 208/375/178
f 215/355/143 216/354/143 218/364/185 217/365/185
f 217/365/185 218/364/185 204/366/65 203/367/65
f 219/342/65 220/343/65 222/344/182 221/345/182
f 221/345/182 222/344/182 224/346/144 223/347/144
f 223/347/144 224/346/144 226/348/183 225/349/183
f 225/349/183 226/348/183 228/350/180 227/351/180
f 227/351/180 228/350/180 230/352/184 229/353/184
f 229/353/184 230/352/184 232/354/143 231/355/143
f 222/376/178 220/377/178 234/378/178
f 222/376/178 234/378/178 232/379/178
f 222/376/178 232/379/178 230/380/178
f 222/376/178 230/380/178 228/381/178
f 222/376/178 228/381/178 226/382/178
f 222/376/178 226/382/178 224/383/178
f 231/355/143 232/354/143 234/364/185 233/365/185
f 233/365/185 234/364/185 220/366/65 219/367/65
f 235/342/65 236/343/65 238/344/182 237/345/182
f 237/345/182 238/344/182 240/346/144 239/347/144
f 239/347/144 240/346/144 242/348/183 241/349/183
f 241/349/183 242/348/183 244/350/180 243/351/180
f 243/351/180 244/350/180 246/352/184 245/353/184
f 245/353/184 246/352/184 248/354/143 247/355/143
f 238/384/178 236/385/178 250/386/178
f 238/384/178 250/386/178 248/387/178
f 238/384/178 248/387/178 246/388/178
f 238/384/178 246/388/178 244/389/178
f 238/384/178 244/389/178 242/390/178
f 238/384/178 242/390/178 240/391/178
f 247/355/143 248/354/143 250/364/185 249/365/185
f 249/365/185 250/364/185 236/366/65 235/367/65
f 274/298/15 265/210/108 65/209/90 123/299/133
f 127/273/186 126/272/144 130/268/144 131/311/186
f 93/291/68 127/293/175 278/292/69
f 87/392/121 95/393/128 258/394/162 260/395/187
f 275/292/188 276/306/188 128/307/176 133/293/176
f 277/306/189 278/292/189 127/293/186 131/307/186
f 275/158/188 257/159/190 258/287/190 276/286/188
f 257/275/190 259/274/191 260/395/192 258/394/190
f 256/280/98 269/279/170 270/167/77 255/166/76
f 254/207/107 265/210/108 266/189/132 253/196/157
f 264/295/156 251/294/193 252/303/194 263/302/167
f 265/210/108 274/298/15 273/190/13 266/189/132
f 262/275/195 252/274/194 251/395/193 261/394/195
f 263/167/167 254/166/107 253/280/157 264/279/156
f 268/210/160 272/298/7 271/190/5 267/189/95
f 255/207/76 268/210/160 267/189/95 256/196/98
f 269/295/170 260/294/192 259/303/191 270/302/77
f 277/286/189 262/287/195 261/159/195 278/158/189
f 85/392/118 93/393/68 261/394/70 251/395/196
f 23/396/43 286/30/16 279/1/1 1/397/21
f 21/398/61 274/27/15 286/30/16 23/396/43
f 19/399/59 273/20/13 274/22/15 21/400/61
f 17/401/57 285/18/11 273/20/13 19/399/59
f 15/402/55 284/16/10 285/18/11 17/401/57
f 13/403/53 283/14/9 284/16/10 15/402/55
f 11/404/51 282/12/8 283/14/9 13/403/53
f 9/405/49 272/10/7 282/12/8 11/404/51
f 7/406/47 271/8/5 272/10/7 9/405/49
f 5/407/45 281/6/3 271/8/5 7/406/47
f 3/408/22 280/4/2 281/6/3 5/407/45
f 1/397/21 279/1/1 280/4/2 3/408/22
o motor
f 287/409/178 288/410/178 290/411/16 289/412/16
f 289/412/16 290/411/16 292/413/144 291/414/144
f 291/414/144 292/413/144 294/415/11 293/416/11
f 293/416/11 294/415/11 296/417/177 295/418/177
f 295/418/177 296/417/177 298/419/8 297/420/8
f 297/420/8 298/419/8 300/421/143 299/422/143
f 290/423/180 288/424/180 302/425/180
f 290/423/180 302/425/180 300/426/180
f 290/423/180 300/426/180 298/427/180
f 290/423/180 298/427/180 296/428/180
f 290/423/180 296/428/180 294/429/180
f 290/423/180 294/429/180 292/430/180
f 299/422/143 300/421/143 302/431/3 301/432/3
f 301/432/3 302/431/3 288/433/178 287/434/178
f 287/423/65 289/424/65 291/425/65
f 287/423/65 291/425/65 293/426/65
f 287/423/65 293/426/65 295/427/65
f 287/423/65 295/427/65 297/428/65
f 287/423/65 297/428/65 299/429/65
f 287/423/65 299/429/65 301/430/65
f 305/435/65 306/436/65 310/437/65 309/438/65
f 309/438/144 310/437/144 308/439/144 307/440/144
f 307/441/180 308/442/180 304/443/180 303/444/180
f 305/435/177 309/438/177 307/441/177 303/444/177
f 310/445/178 306/446/178 304/443/178 308/442/178
f 311/447/143 312/448/143 314/449/143 313/450/143
f 317/451/144 318/452/144 316/453/144 315/454/144
f 313/450/177 317/451/177 315/454/177 311/447/177
f 318/452/178 314/455/178 312/456/178 316/453/178
f 319/440/143 320/439/143 322/437/143 321/438/143
f 321/438/65 322/437/65 326/436/65 325/435/65
f 323/444/180 324/443/180 320/442/180 319/441/180
f 321/438/177 325/435/177 323/444/177 319/441/177
f 326/446/178 322/445/178 320/442/178 324/443/178
f 327/440/143 328/439/143 330/437/143 329/438/143
f 329/438/65 330/437/65 334/436/65 333/435/65
f 331/444/180 332/443/180 328/442/180 327/441/180
f 329/438/177 333/435/177 331/444/177 327/441/177
f 334/446/178 330/445/178 328/442/178 332/443/178
f 335/457/197 336/458/197 338/459/198 337/460/198
f 337/460/198 338/459/198 340/461/199 339/462/199
f 339/462/199 340/461/199 342/463/200 341/464/200
f 341/464/201 342/463/201 344/465/202 343/466/202
f 338/467/178 336/468/178 346/469/178
f 338/467/178 346/469/178 344/470/178
f 338/467/178 344/470/178 342/471/178
f 338/467/178 342/471/178 340/472/178
f 343/466/202 344/465/202 346/473/203 345/474/203
f 345/474/203 346/473/203 336/475/204 335/476/204
f 347/457/197 348/458/197 350/459/198 349/460/198
f 349/460/198 350/459/198 352/461/199 351/462/199
f 351/462/199 352/461/199 354/463/200 353/464/200
f 353/464/201 354/463/201 356/465/202 355/466/202
f 350/467/178 348/468/178 358/469/178
f 350/467/178 358/469/178 356/470/178
f 350/467/178 356/470/178 354/471/178
f 350/467/178 354/471/178 352/472/178
f 355/466/202 356/465/202 358/473/203 357/474/203
f 357/474/203 358/473/203 348/475/204 347/476/204
f 359/457/197 360/458/197 362/459/198 361/460/198
f 361/460/198 362/459/198 364/461/199 363/462/199
f 363/462/199 364/461/199 366/463/200 365/464/200
f 365/464/201 366/463/201 368/465/202 367/466/202
f 362/467/178 360/468/178 370/469/178
f 362/467/178 370/469/178 368/470/178
f 362/467/178 368/470/178 366/471/178
f 362/467/178 366/471/178 364/472/178
f 367/466/202 368/465/202 370/473/203 369/474/203
f 369/474/203 370/473/203 360/475/204 359/476/204
f 371/457/197 372/458/197 374/459/198 373/460/198
f 373/460/198 374/459/198 376/461/199 375/462/199
f 375/462/199 376/461/199 378/463/200 377/464/200
f 377/464/201 378/463/201 380/465/202 379/466/202
f 374/467/178 372/468/178 382/469/178
f 374/467/178 382/469/178 380/470/178
f 374/467/178 380/470/178 378/471/178
f 374/467/178 378/471/178 376/472/178
f 379/466/202 380/465/202 382/473/203 381/474/203
f 381/474/203 382/473/203 372/475/204 371/476/204
f 385/435/65 386/436/65 390/437/65 389/438/65
f 389/438/144 390/437/144 388/439/144 387/440/144
f 387/441/180 388/442/180 384/443/180 383/444/180
f 385/435/177 389/438/177 387/441/177 383/444/177
f 390/445/178 386/446/178 384/443/178 388/442/178
o booster
f 391/477/144 392/478/205 394/479/206 393/480/11
f 393/480/11 394/479/206 396/481/207 395/482/177
f 395/483/177 396/484/207 398/485/208 397/486/8
f 397/486/8 398/485/208 400/487/209 399/488/143
f 399/488/143 400/487/209 402/489/210 401/490/3
f 401/490/3 402/489/210 404/491/211 403/492/178
f 398/493/208 396/494/207 409/495/212 410/496/213
f 403/492/178 404/491/211 406/497/214 405/498/16
f 405/498/16 406/497/214 392/478/205 391/477/144
f 391/499/65 393/500/65 395/501/65
f 391/499/65 395/501/65 397/502/65
f 391/499/65 397/502/65 399/503/65
f 391/499/65 399/503/65 401/504/65
f 391/499/65 401/504/65 403/505/65
f 391/499/65 403/505/65 405/506/65
f 407/507/215 408/508/216 414/509/217
f 407/507/215 414/509/217 413/510/218
f 407/507/215 413/510/218 412/511/219
f 407/507/215 412/511/219 411/512/220
f 407/507/215 411/512/220 410/513/213
f 407/507/215 410/513/213 409/514/212
f 404/515/211 402/516/210 412/517/219 413/518/218
f 400/519/209 398/493/208 410/496/213 411/520/220
f 406/521/214 404/515/211 413/518/218 414/522/217
f 396/494/207 394/523/206 407/524/215 409/495/212
f 402/516/210 400/519/209 411/520/220 412/517/219
f 392/525/205 406/521/214 414/522/217 408/526/216
f 394/523/206 392/525/205 408/526/216 407/524/215
f 415/527/221 416/528/221 418/529/222 417/530/222
f 417/530/222 418/529/222 420/531/223 419/532/223
f 419/533/223 420/534/223 422/535/224 421/536/224
f 421/536/224 422/535/224 424/537/225 423/538/225
f 423/538/225 424/537/225 426/539/226 425/540/226
f 425/540/226 426/539/226 416/528/221 415/527/221
f 415/541/227 417/542/227 419/543/227
f 415/541/227 419/543/227 421/544/227
f 415/541/227 421/544/227 423/545/227
f 415/541/227 423/545/227 425/546/227
f 427/547/65 428/548/65 430/549/65 429/550/65
f 429/551/143 430/552/143 434/553/143 433/554/143
f 433/554/180 434/553/180 432/555/180 431/556/180
f 431/556/144 432/555/144 428/548/144 427/547/144
f 435/547/65 436/548/65 438/549/65 437/550/65
f 437/551/143 438/552/143 442/553/143 441/554/143
f 441/554/180 442/553/180 440/555/180 439/556/180
f 439/556/144 440/555/144 436/548/144 435/547/144
o flag_whatever_who_cares_L
f 443/557/144 444/558/144 446/559/144 445/560/144
o flag_whatever_who_cares_R
f 447/561/144 448/562/144 450/563/144 449/564/144
