{"asset":{"generator":"Khronos glTF Blender I/O v4.5.48","version":"2.0"},"scene":0,"scenes":[{"extras":{"Asset":"Amazog eight-rotor delivery drone","Coordinates":"Blender: forward -X, left -Y, up +Z; 1 unit = 1 Minecraft block; ground Z=0","Branding":"Original Amazog parody wordmarks and parcel emblem. No Amazon wordmark, smile logo or PrimeAir label.","Description":"Eight-rotor Minecraft delivery drone with orange detachable parcel container"},"name":"AMAZOG \u2022 DELIVERY DRONE","nodes":[30]}],"nodes":[{"mesh":0,"name":"ARMS"},{"extras":{"Purpose":"Reference point at lower delivery container for mod effects"},"name":"ATTACH_DELIVERY","translation":[0,0.2199999988079071,0]},{"extras":{"Purpose":"Forward camera attachment reference; forward -X"},"name":"ATTACH_FORWARD_CAMERA","translation":[-0.7799999713897705,0.925000011920929,0]},{"mesh":1,"name":"CANOPY"},{"mesh":2,"name":"ELECTRONICS"},{"mesh":3,"name":"FRAME"},{"mesh":4,"name":"LANDING_GEAR"},{"mesh":5,"name":"MOTORS"},{"mesh":6,"name":"PAYLOAD"},{"mesh":7,"name":"PAYLOAD_PAYLOAD_LID_HINGE"},{"children":[9],"extras":{"Purpose":"Local Y +105 degrees opens orange lid"},"name":"PAYLOAD_LID_HINGE","translation":[0.4300000071525574,0.5349999666213989,0]},{"mesh":8,"name":"PAYLOAD_PAYLOAD_ROOT"},{"children":[10,11],"extras":{"Purpose":"Removable delivery container; translate or detach in mod"},"name":"PAYLOAD_ROOT","translation":[0,0.2199999988079071,0]},{"mesh":9,"name":"ROTORS_ROTOR_01_SPIN"},{"children":[13],"extras":{"Purpose":"Rotate local Z; cosmetic two-blade rotor, alternating display direction","spin_direction":1},"name":"ROTOR_01_SPIN","rotation":[0,0.1359274685382843,0,0.9907187819480896],"translation":[1.284192442893982,1.1829999685287476,-0.5319299697875977]},{"mesh":10,"name":"ROTORS_ROTOR_02_SPIN"},{"children":[15],"extras":{"Purpose":"Rotate local Z; cosmetic two-blade rotor, alternating display direction","spin_direction":-1},"name":"ROTOR_02_SPIN","rotation":[0,0.6280530095100403,0,0.778170645236969],"translation":[0.5319299697875977,1.1829999685287476,-1.284192442893982]},{"mesh":11,"name":"ROTORS_ROTOR_03_SPIN"},{"children":[17],"extras":{"Purpose":"Rotate local Z; cosmetic two-blade rotor, alternating display direction","spin_direction":1},"name":"ROTOR_03_SPIN","rotation":[0,0.7966591715812683,0,0.6044288873672485],"translation":[-0.5319299697875977,1.1829999685287476,-1.284192442893982]},{"mesh":12,"name":"ROTORS_ROTOR_04_SPIN"},{"children":[19],"extras":{"Purpose":"Rotate local Z; cosmetic two-blade rotor, alternating display direction","spin_direction":-1},"name":"ROTOR_04_SPIN","rotation":[0,0.994350254535675,0,0.10614919662475586],"translation":[-1.284192442893982,1.1829999685287476,-0.5319299697875977]},{"mesh":13,"name":"ROTORS_ROTOR_05_SPIN"},{"children":[21],"extras":{"Purpose":"Rotate local Z; cosmetic two-blade rotor, alternating display direction","spin_direction":1},"name":"ROTOR_05_SPIN","rotation":[0,-0.9907189011573792,0,0.13592740893363953],"translation":[-1.284192442893982,1.1829999685287476,0.5319299697875977]},{"mesh":14,"name":"ROTORS_ROTOR_06_SPIN"},{"children":[23],"extras":{"Purpose":"Rotate local Z; cosmetic two-blade rotor, alternating display direction","spin_direction":-1},"name":"ROTOR_06_SPIN","rotation":[0,-0.7781705260276794,0,0.6280530691146851],"translation":[-0.5319299697875977,1.1829999685287476,1.284192442893982]},{"mesh":15,"name":"ROTORS_ROTOR_07_SPIN"},{"children":[25],"extras":{"Purpose":"Rotate local Z; cosmetic two-blade rotor, alternating display direction","spin_direction":1},"name":"ROTOR_07_SPIN","rotation":[0,-0.6044288873672485,0,0.7966592311859131],"translation":[0.5319299697875977,1.1829999685287476,1.284192442893982]},{"mesh":16,"name":"ROTORS_ROTOR_08_SPIN"},{"children":[27],"extras":{"Purpose":"Rotate local Z; cosmetic two-blade rotor, alternating display direction","spin_direction":-1},"name":"ROTOR_08_SPIN","rotation":[0,-0.10614925622940063,0,0.9943501949310303],"translation":[1.284192442893982,1.1829999685287476,0.5319299697875977]},{"mesh":17,"name":"WIRING"},{"children":[0,1,2,3,4,5,6,7,8,12,14,16,18,20,22,24,26,28,29],"name":"AMAZOG_ROOT","rotation":[0.0,0.7071067811865475,0.0,0.7071067811865476]}],"materials":[{"doubleSided":true,"name":"AMAZOG_EMB4_inspired_painted","pbrMetallicRoughness":{"baseColorTexture":{"index":0},"metallicFactor":0.07999999821186066,"roughnessFactor":0.8500000238418579}}],"meshes":[{"name":"ARMS_MESH","primitives":[{"attributes":{"POSITION":0,"NORMAL":1,"TEXCOORD_0":2},"indices":3,"material":0}]},{"name":"CANOPY_MESH","primitives":[{"attributes":{"POSITION":4,"NORMAL":5,"TEXCOORD_0":6},"indices":7,"material":0}]},{"name":"ELECTRONICS_MESH","primitives":[{"attributes":{"POSITION":8,"NORMAL":9,"TEXCOORD_0":10},"indices":11,"material":0}]},{"name":"FRAME_MESH","primitives":[{"attributes":{"POSITION":12,"NORMAL":13,"TEXCOORD_0":14},"indices":15,"material":0}]},{"name":"LANDING_GEAR_MESH","primitives":[{"attributes":{"POSITION":16,"NORMAL":17,"TEXCOORD_0":18},"indices":19,"material":0}]},{"name":"MOTORS_MESH","primitives":[{"attributes":{"POSITION":20,"NORMAL":21,"TEXCOORD_0":22},"indices":23,"material":0}]},{"name":"PAYLOAD_MESH","primitives":[{"attributes":{"POSITION":24,"NORMAL":25,"TEXCOORD_0":26},"indices":27,"material":0}]},{"name":"PAYLOAD_MESH.002","primitives":[{"attributes":{"POSITION":28,"NORMAL":29,"TEXCOORD_0":30},"indices":31,"material":0}]},{"name":"PAYLOAD_MESH.001","primitives":[{"attributes":{"POSITION":32,"NORMAL":33,"TEXCOORD_0":34},"indices":35,"material":0}]},{"name":"ROTORS_MESH","primitives":[{"attributes":{"POSITION":36,"NORMAL":37,"TEXCOORD_0":38},"indices":39,"material":0}]},{"name":"ROTORS_MESH.001","primitives":[{"attributes":{"POSITION":40,"NORMAL":41,"TEXCOORD_0":42},"indices":39,"material":0}]},{"name":"ROTORS_MESH.002","primitives":[{"attributes":{"POSITION":43,"NORMAL":44,"TEXCOORD_0":45},"indices":39,"material":0}]},{"name":"ROTORS_MESH.003","primitives":[{"attributes":{"POSITION":46,"NORMAL":47,"TEXCOORD_0":48},"indices":39,"material":0}]},{"name":"ROTORS_MESH.004","primitives":[{"attributes":{"POSITION":49,"NORMAL":50,"TEXCOORD_0":51},"indices":39,"material":0}]},{"name":"ROTORS_MESH.005","primitives":[{"attributes":{"POSITION":52,"NORMAL":53,"TEXCOORD_0":54},"indices":39,"material":0}]},{"name":"ROTORS_MESH.006","primitives":[{"attributes":{"POSITION":55,"NORMAL":56,"TEXCOORD_0":57},"indices":39,"material":0}]},{"name":"ROTORS_MESH.007","primitives":[{"attributes":{"POSITION":58,"NORMAL":59,"TEXCOORD_0":60},"indices":39,"material":0}]},{"name":"WIRING_MESH","primitives":[{"attributes":{"POSITION":61,"NORMAL":62,"TEXCOORD_0":63},"indices":64,"material":0}]}],"textures":[{"sampler":0,"source":0}],"images":[{"mimeType":"image/png","name":"amazog_atlas","extras":{"resourceLocation":"wfballistics:textures/models/drones/amazog.png"}}],"accessors":[{"bufferView":0,"componentType":5126,"count":6912,"max":[1.3125110864639282,1.0649999380111694,1.3125110864639282],"min":[-1.3125110864639282,1.0049999952316284,-1.3125110864639282],"type":"VEC3"},{"bufferView":1,"componentType":5126,"count":6912,"type":"VEC3"},{"bufferView":2,"componentType":5126,"count":6912,"type":"VEC2"},{"bufferView":3,"componentType":5123,"count":9504,"type":"SCALAR"},{"bufferView":4,"componentType":5126,"count":1144,"max":[0.8025000095367432,1.6045000553131104,0.6525000333786011],"min":[-0.8025000095367432,1.1109999418258667,-0.6525000333786011],"type":"VEC3"},{"bufferView":5,"componentType":5126,"count":1144,"type":"VEC3"},{"bufferView":6,"componentType":5126,"count":1144,"type":"VEC2"},{"bufferView":7,"componentType":5123,"count":1626,"type":"SCALAR"},{"bufferView":8,"componentType":5126,"count":3072,"max":[0.6950000524520874,1.13100004196167,0.5735000371932983],"min":[-0.7680000066757202,0.8579999804496765,-0.5735000371932983],"type":"VEC3"},{"bufferView":9,"componentType":5126,"count":3072,"type":"VEC3"},{"bufferView":10,"componentType":5126,"count":3072,"type":"VEC2"},{"bufferView":11,"componentType":5123,"count":4320,"type":"SCALAR"},{"bufferView":12,"componentType":5126,"count":1344,"max":[0.7241000533103943,1.0674999952316284,0.5906000137329102],"min":[-0.7241000533103943,0.9584998488426208,-0.5906000137329102],"type":"VEC3"},{"bufferView":13,"componentType":5126,"count":1344,"type":"VEC3"},{"bufferView":14,"componentType":5126,"count":1344,"type":"VEC2"},{"bufferView":15,"componentType":5123,"count":1848,"type":"SCALAR"},{"bufferView":16,"componentType":5126,"count":3360,"max":[0.6324999928474426,1.0920000076293945,0.534000039100647],"min":[-0.6324999928474426,0,-0.534000039100647],"type":"VEC3"},{"bufferView":17,"componentType":5126,"count":3360,"type":"VEC3"},{"bufferView":18,"componentType":5126,"count":3360,"type":"VEC2"},{"bufferView":19,"componentType":5123,"count":5136,"type":"SCALAR"},{"bufferView":20,"componentType":5126,"count":12384,"max":[1.409192442893982,1.1630001068115234,1.409192442893982],"min":[-1.409192442893982,0.9539999961853027,-1.409192442893982],"type":"VEC3"},{"bufferView":21,"componentType":5126,"count":12384,"type":"VEC3"},{"bufferView":22,"componentType":5126,"count":12384,"type":"VEC2"},{"bufferView":23,"componentType":5123,"count":21792,"type":"SCALAR"},{"bufferView":24,"componentType":5126,"count":1056,"max":[0.4699999690055847,0.9730000495910645,0.4129999876022339],"min":[-0.3700000047683716,0.5740000009536743,-0.4129999876022339],"type":"VEC3"},{"bufferView":25,"componentType":5126,"count":1056,"type":"VEC3"},{"bufferView":26,"componentType":5126,"count":1056,"type":"VEC2"},{"bufferView":27,"componentType":5123,"count":1596,"type":"SCALAR"},{"bufferView":28,"componentType":5126,"count":480,"max":[0.019999980926513672,0.06549997627735138,0.38499999046325684],"min":[-0.8799999952316284,-0.04000001773238182,-0.38499999046325684],"type":"VEC3"},{"bufferView":29,"componentType":5126,"count":480,"type":"VEC3"},{"bufferView":30,"componentType":5126,"count":480,"type":"VEC2"},{"bufferView":31,"componentType":5123,"count":660,"type":"SCALAR"},{"bufferView":32,"componentType":5126,"count":1472,"max":[0.45662960410118103,0.562999963760376,0.35999998450279236],"min":[-0.4545000195503235,-0.032499998807907104,-0.35999998450279236],"type":"VEC3"},{"bufferView":33,"componentType":5126,"count":1472,"type":"VEC3"},{"bufferView":34,"componentType":5126,"count":1472,"type":"VEC2"},{"bufferView":35,"componentType":5123,"count":2076,"type":"SCALAR"},{"bufferView":36,"componentType":5126,"count":236,"max":[0.5150001645088196,0.04499995708465576,0.07399999350309372],"min":[-0.5149999260902405,-0.015000015497207642,-0.07400002330541611],"type":"VEC3"},{"bufferView":37,"componentType":5126,"count":236,"type":"VEC3"},{"bufferView":38,"componentType":5126,"count":236,"type":"VEC2"},{"bufferView":39,"componentType":5123,"count":420,"type":"SCALAR"},{"bufferView":40,"componentType":5126,"count":236,"max":[0.5150001645088196,0.04499995708465576,0.07400000095367432],"min":[-0.5149999260902405,-0.015000015497207642,-0.07400000095367432],"type":"VEC3"},{"bufferView":41,"componentType":5126,"count":236,"type":"VEC3"},{"bufferView":42,"componentType":5126,"count":236,"type":"VEC2"},{"bufferView":43,"componentType":5126,"count":236,"max":[0.5150001645088196,0.04499995708465576,0.07399999350309372],"min":[-0.5149999260902405,-0.015000015497207642,-0.07400002330541611],"type":"VEC3"},{"bufferView":44,"componentType":5126,"count":236,"type":"VEC3"},{"bufferView":45,"componentType":5126,"count":236,"type":"VEC2"},{"bufferView":46,"componentType":5126,"count":236,"max":[0.5150002837181091,0.04499995708465576,0.07400000840425491],"min":[-0.5149998068809509,-0.015000015497207642,-0.07400000840425491],"type":"VEC3"},{"bufferView":47,"componentType":5126,"count":236,"type":"VEC3"},{"bufferView":48,"componentType":5126,"count":236,"type":"VEC2"},{"bufferView":49,"componentType":5126,"count":236,"max":[0.5149999856948853,0.04499995708465576,0.07400000095367432],"min":[-0.5149999856948853,-0.015000015497207642,-0.07400000095367432],"type":"VEC3"},{"bufferView":50,"componentType":5126,"count":236,"type":"VEC3"},{"bufferView":51,"componentType":5126,"count":236,"type":"VEC2"},{"bufferView":52,"componentType":5126,"count":236,"max":[0.5149999856948853,0.04499995708465576,0.07400000095367432],"min":[-0.5149999856948853,-0.015000015497207642,-0.07400000095367432],"type":"VEC3"},{"bufferView":53,"componentType":5126,"count":236,"type":"VEC3"},{"bufferView":54,"componentType":5126,"count":236,"type":"VEC2"},{"bufferView":55,"componentType":5126,"count":236,"max":[0.5149999856948853,0.04499995708465576,0.07400000095367432],"min":[-0.5149999856948853,-0.015000015497207642,-0.07400000095367432],"type":"VEC3"},{"bufferView":56,"componentType":5126,"count":236,"type":"VEC3"},{"bufferView":57,"componentType":5126,"count":236,"type":"VEC2"},{"bufferView":58,"componentType":5126,"count":236,"max":[0.5149999856948853,0.04499995708465576,0.07400000095367432],"min":[-0.5149999856948853,-0.015000015497207642,-0.07400000095367432],"type":"VEC3"},{"bufferView":59,"componentType":5126,"count":236,"type":"VEC3"},{"bufferView":60,"componentType":5126,"count":236,"type":"VEC2"},{"bufferView":61,"componentType":5126,"count":1792,"max":[1.286336064338684,1.0811917781829834,1.286336064338684],"min":[-1.286336064338684,0.8720169067382812,-1.286336064338684],"type":"VEC3"},{"bufferView":62,"componentType":5126,"count":1792,"type":"VEC3"},{"bufferView":63,"componentType":5126,"count":1792,"type":"VEC2"},{"bufferView":64,"componentType":5123,"count":2832,"type":"SCALAR"}],"bufferViews":[{"buffer":0,"byteLength":82944,"byteOffset":0,"target":34962},{"buffer":0,"byteLength":82944,"byteOffset":82944,"target":34962},{"buffer":0,"byteLength":55296,"byteOffset":165888,"target":34962},{"buffer":0,"byteLength":19008,"byteOffset":221184,"target":34963},{"buffer":0,"byteLength":13728,"byteOffset":240192,"target":34962},{"buffer":0,"byteLength":13728,"byteOffset":253920,"target":34962},{"buffer":0,"byteLength":9152,"byteOffset":267648,"target":34962},{"buffer":0,"byteLength":3252,"byteOffset":276800,"target":34963},{"buffer":0,"byteLength":36864,"byteOffset":280052,"target":34962},{"buffer":0,"byteLength":36864,"byteOffset":316916,"target":34962},{"buffer":0,"byteLength":24576,"byteOffset":353780,"target":34962},{"buffer":0,"byteLength":8640,"byteOffset":378356,"target":34963},{"buffer":0,"byteLength":16128,"byteOffset":386996,"target":34962},{"buffer":0,"byteLength":16128,"byteOffset":403124,"target":34962},{"buffer":0,"byteLength":10752,"byteOffset":419252,"target":34962},{"buffer":0,"byteLength":3696,"byteOffset":430004,"target":34963},{"buffer":0,"byteLength":40320,"byteOffset":433700,"target":34962},{"buffer":0,"byteLength":40320,"byteOffset":474020,"target":34962},{"buffer":0,"byteLength":26880,"byteOffset":514340,"target":34962},{"buffer":0,"byteLength":10272,"byteOffset":541220,"target":34963},{"buffer":0,"byteLength":148608,"byteOffset":551492,"target":34962},{"buffer":0,"byteLength":148608,"byteOffset":700100,"target":34962},{"buffer":0,"byteLength":99072,"byteOffset":848708,"target":34962},{"buffer":0,"byteLength":43584,"byteOffset":947780,"target":34963},{"buffer":0,"byteLength":12672,"byteOffset":991364,"target":34962},{"buffer":0,"byteLength":12672,"byteOffset":1004036,"target":34962},{"buffer":0,"byteLength":8448,"byteOffset":1016708,"target":34962},{"buffer":0,"byteLength":3192,"byteOffset":1025156,"target":34963},{"buffer":0,"byteLength":5760,"byteOffset":1028348,"target":34962},{"buffer":0,"byteLength":5760,"byteOffset":1034108,"target":34962},{"buffer":0,"byteLength":3840,"byteOffset":1039868,"target":34962},{"buffer":0,"byteLength":1320,"byteOffset":1043708,"target":34963},{"buffer":0,"byteLength":17664,"byteOffset":1045028,"target":34962},{"buffer":0,"byteLength":17664,"byteOffset":1062692,"target":34962},{"buffer":0,"byteLength":11776,"byteOffset":1080356,"target":34962},{"buffer":0,"byteLength":4152,"byteOffset":1092132,"target":34963},{"buffer":0,"byteLength":2832,"byteOffset":1096284,"target":34962},{"buffer":0,"byteLength":2832,"byteOffset":1099116,"target":34962},{"buffer":0,"byteLength":1888,"byteOffset":1101948,"target":34962},{"buffer":0,"byteLength":840,"byteOffset":1103836,"target":34963},{"buffer":0,"byteLength":2832,"byteOffset":1104676,"target":34962},{"buffer":0,"byteLength":2832,"byteOffset":1107508,"target":34962},{"buffer":0,"byteLength":1888,"byteOffset":1110340,"target":34962},{"buffer":0,"byteLength":2832,"byteOffset":1112228,"target":34962},{"buffer":0,"byteLength":2832,"byteOffset":1115060,"target":34962},{"buffer":0,"byteLength":1888,"byteOffset":1117892,"target":34962},{"buffer":0,"byteLength":2832,"byteOffset":1119780,"target":34962},{"buffer":0,"byteLength":2832,"byteOffset":1122612,"target":34962},{"buffer":0,"byteLength":1888,"byteOffset":1125444,"target":34962},{"buffer":0,"byteLength":2832,"byteOffset":1127332,"target":34962},{"buffer":0,"byteLength":2832,"byteOffset":1130164,"target":34962},{"buffer":0,"byteLength":1888,"byteOffset":1132996,"target":34962},{"buffer":0,"byteLength":2832,"byteOffset":1134884,"target":34962},{"buffer":0,"byteLength":2832,"byteOffset":1137716,"target":34962},{"buffer":0,"byteLength":1888,"byteOffset":1140548,"target":34962},{"buffer":0,"byteLength":2832,"byteOffset":1142436,"target":34962},{"buffer":0,"byteLength":2832,"byteOffset":1145268,"target":34962},{"buffer":0,"byteLength":1888,"byteOffset":1148100,"target":34962},{"buffer":0,"byteLength":2832,"byteOffset":1149988,"target":34962},{"buffer":0,"byteLength":2832,"byteOffset":1152820,"target":34962},{"buffer":0,"byteLength":1888,"byteOffset":1155652,"target":34962},{"buffer":0,"byteLength":21504,"byteOffset":1157540,"target":34962},{"buffer":0,"byteLength":21504,"byteOffset":1179044,"target":34962},{"buffer":0,"byteLength":14336,"byteOffset":1200548,"target":34962},{"buffer":0,"byteLength":5664,"byteOffset":1214884,"target":34963}],"samplers":[{"magFilter":9729,"minFilter":9987}],"buffers":[{"byteLength":1220548,"extras":{"resourceLocation":"wfballistics:raw_models/drones/amazog.bin"}}]}