# drone_jaw_nz (split from drone.obj for WF-Ballistics)
mtllib drone_jaw_nz.mtl
v -0.11875 0.4157197419001537 -0.3472955559279117
v -0.11875 0.21093173082790578 -0.20390144684015024
v -0.11875 0.24678025809984616 -0.15270444407208825
v -0.11875 0.4515682691720941 -0.2960985531598498
v 0.11875 0.24678025809984616 -0.15270444407208825
v 0.11875 0.21093173082790578 -0.20390144684015024
v 0.11875 0.4157197419001537 -0.3472955559279117
v 0.11875 0.4515682691720941 -0.2960985531598498
v -0.125 0.5844697419001538 -0.15270444407208825
v -0.125 0.6203182691720942 -0.20390144684015024
v -0.125 0.41553025809984623 -0.3472955559279117
v -0.125 0.37968173082790585 -0.2960985531598498
v 0.125 0.41553025809984623 -0.3472955559279117
v 0.125 0.6203182691720942 -0.20390144684015024
v 0.125 0.5844697419001538 -0.15270444407208825
v 0.125 0.37968173082790585 -0.2960985531598498
vt 0.21875 0.75
vt 0.21875 0.6875
vt 0.234375 0.6875
vt 0.234375 0.75
vt 0.21875 0.625
vt 0.234375 0.625
vt 0.234375 0.6875
vt 0.21875 0.6875
vt 0.234375 0.796875
vt 0.234375 0.78125
vt 0.296875 0.78125
vt 0.296875 0.796875
vt 0.359375 0.90625
vt 0.296875 0.90625
vt 0.296875 0.890625
vt 0.359375 0.890625
vt 0.78125 0.25
vt 0.84375 0.25
vt 0.84375 0.3125
vt 0.78125 0.3125
vt 0.796875 0.703125
vt 0.796875 0.640625
vt 0.859375 0.640625
vt 0.859375 0.703125
vt 0.234375 0.625
vt 0.21875 0.625
vt 0.21875 0.5625
vt 0.234375 0.5625
vt 0.46875 0.9375
vt 0.46875 1
vt 0.453125 1
vt 0.453125 0.9375
vt 0.359375 0.796875
vt 0.296875 0.796875
vt 0.296875 0.78125
vt 0.359375 0.78125
vt 0.234375 0.6875
vt 0.234375 0.671875
vt 0.296875 0.671875
vt 0.296875 0.6875
vt 0.859375 0.578125
vt 0.859375 0.640625
vt 0.796875 0.640625
vt 0.796875 0.578125
vt 0.859375 0.53125
vt 0.796875 0.53125
vt 0.796875 0.46875
vt 0.859375 0.46875
vn -1 0 0
vn 1 0 0
vn 0 -0.8191520442889918 0.573576436351046
vn 0 0.8191520442889918 -0.573576436351046
vn 0 -0.573576436351046 -0.8191520442889918
vn 0 0.573576436351046 0.8191520442889918
vn -1 0 0
vn 1 0 0
vn 0 0.8191520442889918 0.573576436351046
vn 0 -0.8191520442889918 -0.573576436351046
vn 0 0.573576436351046 -0.8191520442889918
vn 0 -0.573576436351046 0.8191520442889918
usemtl Material
f 1/1/1 2/2/1 3/3/1 4/4/1
f 5/5/2 6/6/2 7/7/2 8/8/2
f 3/9/3 2/10/3 6/11/3 5/12/3
f 7/13/4 1/14/4 4/15/4 8/16/4
f 6/17/5 2/18/5 1/19/5 7/20/5
f 4/21/6 3/22/6 5/23/6 8/24/6
f 9/25/7 10/26/7 11/27/7 12/28/7
f 13/29/8 14/30/8 15/31/8 16/32/8
f 14/33/9 10/34/9 9/35/9 15/36/9
f 12/37/10 11/38/10 13/39/10 16/40/10
f 11/41/11 10/42/11 14/43/11 13/44/11
f 15/45/12 9/46/12 12/47/12 16/48/12
