# drone_jaw_pz (split from drone.obj for WF-Ballistics)
mtllib drone_jaw_pz.mtl
v 0.125 0.5844697419001538 0.15270444407208825
v 0.125 0.6203182691720942 0.20390144684015024
v 0.125 0.41553025809984623 0.3472955559279117
v 0.125 0.37968173082790585 0.2960985531598498
v -0.125 0.41553025809984623 0.3472955559279117
v -0.125 0.6203182691720942 0.20390144684015024
v -0.125 0.5844697419001538 0.15270444407208825
v -0.125 0.37968173082790585 0.2960985531598498
v 0.11875 0.4157197419001537 0.3472955559279117
v 0.11875 0.21093173082790578 0.20390144684015024
v 0.11875 0.24678025809984616 0.15270444407208825
v 0.11875 0.4515682691720941 0.2960985531598498
v -0.11875 0.24678025809984616 0.15270444407208825
v -0.11875 0.21093173082790578 0.20390144684015024
v -0.11875 0.4157197419001537 0.3472955559279117
v -0.11875 0.4515682691720941 0.2960985531598498
vt 0.234375 1
vt 0.21875 1
vt 0.21875 0.9375
vt 0.234375 0.9375
vt 0.234375 0.875
vt 0.234375 0.9375
vt 0.21875 0.9375
vt 0.21875 0.875
vt 0 0.765625
vt 0.0625 0.765625
vt 0.0625 0.78125
vt 0 0.78125
vt 0.125 0.765625
vt 0.125 0.78125
vt 0.0625 0.78125
vt 0.0625 0.765625
vt 0.578125 0.15625
vt 0.578125 0.21875
vt 0.515625 0.21875
vt 0.515625 0.15625
vt 0.640625 0.21875
vt 0.578125 0.21875
vt 0.578125 0.15625
vt 0.640625 0.15625
vt 0.21875 0.875
vt 0.21875 0.8125
vt 0.234375 0.8125
vt 0.234375 0.875
vt 0.21875 0.75
vt 0.234375 0.75
vt 0.234375 0.8125
vt 0.21875 0.8125
vt 0.1875 0.765625
vt 0.1875 0.78125
vt 0.125 0.78125
vt 0.125 0.765625
vt 0.234375 0.890625
vt 0.296875 0.890625
vt 0.296875 0.90625
vt 0.234375 0.90625
vt 0.78125 0.3125
vt 0.84375 0.3125
vt 0.84375 0.375
vt 0.78125 0.375
vt 0.640625 0.21875
vt 0.640625 0.15625
vt 0.703125 0.15625
vt 0.703125 0.21875
vn 1 0 0
vn -1 0 0
vn 0 0.8191520442889918 -0.573576436351046
vn 0 -0.8191520442889918 0.573576436351046
vn 0 0.573576436351046 0.8191520442889918
vn 0 -0.573576436351046 -0.8191520442889918
vn 1 0 0
vn -1 0 0
vn 0 -0.8191520442889918 -0.573576436351046
vn 0 0.8191520442889918 0.573576436351046
vn 0 -0.573576436351046 0.8191520442889918
vn 0 0.573576436351046 -0.8191520442889918
usemtl Material
f 1/1/1 2/2/1 3/3/1 4/4/1
f 5/5/2 6/6/2 7/7/2 8/8/2
f 6/9/3 2/10/3 1/11/3 7/12/3
f 4/13/4 3/14/4 5/15/4 8/16/4
f 3/17/5 2/18/5 6/19/5 5/20/5
f 7/21/6 1/22/6 4/23/6 8/24/6
f 9/25/7 10/26/7 11/27/7 12/28/7
f 13/29/8 14/30/8 15/31/8 16/32/8
f 11/33/9 10/34/9 14/35/9 13/36/9
f 15/37/10 9/38/10 12/39/10 16/40/10
f 14/41/11 10/42/11 9/43/11 15/44/11
f 12/45/12 11/46/12 13/47/12 16/48/12
