# drone_prop_nz (split from drone.obj for WF-Ballistics)
mtllib drone_prop_nz.mtl
v 0.319624670800898 1.2 -1.057190004928948
v 0.2908863983979067 1.2 -1.0016889986381476
v 0.2908863983979067 1.1875 -1.0016889986381476
v 0.319624670800898 1.1875 -1.057190004928948
v -0.319624670800898 1.1875 -1.317809995071052
v -0.319624670800898 1.2 -1.317809995071052
v -0.2908863983979067 1.2 -1.3733110013618524
v -0.2908863983979067 1.1875 -1.3733110013618524
v 0.13030999507105206 1.19996875 -1.507124670800898
v 0.18581100136185247 1.19996875 -1.4783863983979066
v 0.18581100136185247 1.18753125 -1.4783863983979066
v 0.13030999507105206 1.18753125 -1.507124670800898
v -0.13030999507105206 1.18753125 -0.867875329199102
v -0.13030999507105206 1.19996875 -0.867875329199102
v -0.18581100136185247 1.19996875 -0.8966136016020934
v -0.18581100136185247 1.18753125 -0.8966136016020934
vt 0.796875 0.625
vt 0.78125 0.625
vt 0.78125 0.609375
vt 0.796875 0.609375
vt 0.796875 0.46875
vt 0.796875 0.484375
vt 0.78125 0.484375
vt 0.78125 0.46875
vt 0.1875 0.390625
vt 0.359375 0.390625
vt 0.359375 0.40625
vt 0.1875 0.40625
vt 0.546875 0.390625
vt 0.546875 0.40625
vt 0.375 0.40625
vt 0.375 0.390625
vt 0.734375 0.390625
vt 0.734375 0.40625
vt 0.5625 0.40625
vt 0.5625 0.390625
vt 0.359375 0.375
vt 0.1875 0.375
vt 0.1875 0.359375
vt 0.359375 0.359375
vt 0.796875 0.453125
vt 0.78125 0.453125
vt 0.78125 0.4375
vt 0.796875 0.4375
vt 0.796875 0.40625
vt 0.796875 0.421875
vt 0.78125 0.421875
vt 0.78125 0.40625
vt 0.375 0.359375
vt 0.546875 0.359375
vt 0.546875 0.375
vt 0.375 0.375
vt 0.796875 0.5
vt 0.796875 0.515625
vt 0.625 0.515625
vt 0.625 0.5
vt 0.734375 0.359375
vt 0.734375 0.375
vt 0.5625 0.375
vt 0.5625 0.359375
vt 0.359375 0.34375
vt 0.1875 0.34375
vt 0.1875 0.328125
vt 0.359375 0.328125
vn 0.8880161006528068 0 0.45981235844786095
vn -0.8880161006528068 0 -0.45981235844786095
vn 0 1 0
vn 0 -1 0
vn -0.45981235844786095 0 0.8880161006528068
vn 0.45981235844786095 0 -0.8880161006528068
vn 0.45981235844786117 0 -0.8880161006528067
vn -0.45981235844786117 0 0.8880161006528067
vn 0 1 0
vn 0 -1 0
vn 0.8880161006528067 0 0.45981235844786117
vn -0.8880161006528067 0 -0.45981235844786117
usemtl Material
f 1/1/1 2/2/1 3/3/1 4/4/1
f 5/5/2 6/6/2 7/7/2 8/8/2
f 6/9/3 2/10/3 1/11/3 7/12/3
f 4/13/4 3/14/4 5/15/4 8/16/4
f 3/17/5 2/18/5 6/19/5 5/20/5
f 7/21/6 1/22/6 4/23/6 8/24/6
f 9/25/7 10/26/7 11/27/7 12/28/7
f 13/29/8 14/30/8 15/31/8 16/32/8
f 14/33/9 10/34/9 9/35/9 15/36/9
f 12/37/10 11/38/10 13/39/10 16/40/10
f 11/41/11 10/42/11 14/43/11 13/44/11
f 15/45/12 9/46/12 12/47/12 16/48/12
