# drone_body (split from drone.obj for WF-Ballistics)
mtllib drone_body.mtl
v 1.2296196393468959 1.1875 -0.013381366943904557
v 1.2008813669439045 1.1875 0.04211963934689587
v 1.2008813669439045 0.6875 0.04211963934689587
v 1.2296196393468959 0.6875 -0.013381366943904557
v 1.1453803606531041 0.6875 0.013381366943904557
v 1.1453803606531041 1.1875 0.013381366943904557
v 1.1741186330560955 1.1875 -0.04211963934689587
v 1.1741186330560955 0.6875 -0.04211963934689587
v 0.04211963934689587 1.1875 -1.2008813669439045
v 0.013381366943904557 1.1875 -1.1453803606531041
v 0.013381366943904557 0.6875 -1.1453803606531041
v 0.04211963934689587 0.6875 -1.2008813669439045
v -0.04211963934689587 0.6875 -1.1741186330560955
v -0.04211963934689587 1.1875 -1.1741186330560955
v -0.013381366943904557 1.1875 -1.2296196393468959
v -0.013381366943904557 0.6875 -1.2296196393468959
v -1.1453803606531041 1.1875 -0.013381366943904557
v -1.1741186330560955 1.1875 0.04211963934689587
v -1.1741186330560955 0.6875 0.04211963934689587
v -1.1453803606531041 0.6875 -0.013381366943904557
v -1.2296196393468959 0.6875 0.013381366943904557
v -1.2296196393468959 1.1875 0.013381366943904557
v -1.2008813669439045 1.1875 -0.04211963934689587
v -1.2008813669439045 0.6875 -0.04211963934689587
v 0.04211963934689587 1.1875 1.1741186330560955
v 0.013381366943904557 1.1875 1.2296196393468959
v 0.013381366943904557 0.6875 1.2296196393468959
v 0.04211963934689587 0.6875 1.1741186330560955
v -0.04211963934689587 0.6875 1.2008813669439045
v -0.04211963934689587 1.1875 1.2008813669439045
v -0.013381366943904557 1.1875 1.1453803606531041
v -0.013381366943904557 0.6875 1.1453803606531041
v 0.4375 0.9375 -0.4375
v 0.4375 0.9375 0.4375
v 0.4375 0.5625 0.4375
v 0.4375 0.5625 -0.4375
v -0.4375 0.5625 0.4375
v -0.4375 0.9375 0.4375
v -0.4375 0.9375 -0.4375
v -0.4375 0.5625 -0.4375
v 0.0625 0.75 0.25
v 0.0625 0.75 1.25
v 0.0625 0.625 1.25
v 0.0625 0.625 0.25
v -0.0625 0.625 1.25
v -0.0625 0.75 1.25
v -0.0625 0.75 0.25
v -0.0625 0.625 0.25
v 0.0625 0.625 -1.25
v 0.0625 0.75 -1.25
v 0.0625 0.75 -0.25
v 0.0625 0.625 -0.25
v -0.0625 0.75 -0.25
v -0.0625 0.75 -1.25
v -0.0625 0.625 -1.25
v -0.0625 0.625 -0.25
v -1.25 0.625 -0.0625
v -1.25 0.75 -0.0625
v -0.25 0.75 -0.0625
v -0.25 0.625 -0.0625
v -0.25 0.75 0.0625
v -1.25 0.75 0.0625
v -1.25 0.625 0.0625
v -0.25 0.625 0.0625
v 1.25 0.625 0.0625
v 1.25 0.75 0.0625
v 0.25 0.75 0.0625
v 0.25 0.625 0.0625
v 0.25 0.75 -0.0625
v 1.25 0.75 -0.0625
v 1.25 0.625 -0.0625
v 0.25 0.625 -0.0625
vt 0.015625 0.265625
vt 0 0.265625
vt 0 0.140625
vt 0.015625 0.140625
vt 0.046875 0.140625
vt 0.046875 0.265625
vt 0.03125 0.265625
vt 0.03125 0.140625
vt 0.71875 0.234375
vt 0.734375 0.234375
vt 0.734375 0.25
vt 0.71875 0.25
vt 0.765625 0.234375
vt 0.765625 0.25
vt 0.75 0.25
vt 0.75 0.234375
vt 0.078125 0.140625
vt 0.078125 0.265625
vt 0.0625 0.265625
vt 0.0625 0.140625
vt 0.75 0.8125
vt 0.734375 0.8125
vt 0.734375 0.6875
vt 0.75 0.6875
vt 0.203125 0.25
vt 0.1875 0.25
vt 0.1875 0.125
vt 0.203125 0.125
vt 0.234375 0.125
vt 0.234375 0.25
vt 0.21875 0.25
vt 0.21875 0.125
vt 0.78125 0.671875
vt 0.796875 0.671875
vt 0.796875 0.6875
vt 0.78125 0.6875
vt 0.796875 0.640625
vt 0.796875 0.65625
vt 0.78125 0.65625
vt 0.78125 0.640625
vt 0.265625 0.125
vt 0.265625 0.25
vt 0.25 0.25
vt 0.25 0.125
vt 0.296875 0.25
vt 0.28125 0.25
vt 0.28125 0.125
vt 0.296875 0.125
vt 0.328125 0.25
vt 0.3125 0.25
vt 0.3125 0.125
vt 0.328125 0.125
vt 0.359375 0.125
vt 0.359375 0.25
vt 0.34375 0.25
vt 0.34375 0.125
vt 0.78125 0.375
vt 0.796875 0.375
vt 0.796875 0.390625
vt 0.78125 0.390625
vt 0.734375 0.203125
vt 0.734375 0.21875
vt 0.71875 0.21875
vt 0.71875 0.203125
vt 0.390625 0.125
vt 0.390625 0.25
vt 0.375 0.25
vt 0.375 0.125
vt 0.421875 0.25
vt 0.40625 0.25
vt 0.40625 0.125
vt 0.421875 0.125
vt 0.453125 0.25
vt 0.4375 0.25
vt 0.4375 0.125
vt 0.453125 0.125
vt 0.484375 0.125
vt 0.484375 0.25
vt 0.46875 0.25
vt 0.46875 0.125
vt 0.125 0.1875
vt 0.140625 0.1875
vt 0.140625 0.203125
vt 0.125 0.203125
vt 0.171875 0.1875
vt 0.171875 0.203125
vt 0.15625 0.203125
vt 0.15625 0.1875
vt 0.515625 0.125
vt 0.515625 0.25
vt 0.5 0.25
vt 0.5 0.125
vt 0.765625 0.484375
vt 0.75 0.484375
vt 0.75 0.359375
vt 0.765625 0.359375
vt 0.453125 1
vt 0.234375 1
vt 0.234375 0.90625
vt 0.453125 0.90625
vt 0.453125 0.796875
vt 0.453125 0.890625
vt 0.234375 0.890625
vt 0.234375 0.796875
vt 0 0.78125
vt 0.21875 0.78125
vt 0.21875 1
vt 0 1
vt 0.21875 0.546875
vt 0.21875 0.765625
vt 0 0.765625
vt 0 0.546875
vt 0.453125 0.6875
vt 0.453125 0.78125
vt 0.234375 0.78125
vt 0.234375 0.6875
vt 0.453125 0.671875
vt 0.234375 0.671875
vt 0.234375 0.578125
vt 0.453125 0.578125
vt 0.34375 0.515625
vt 0.09375 0.515625
vt 0.09375 0.484375
vt 0.34375 0.484375
vt 0.609375 0.484375
vt 0.609375 0.515625
vt 0.359375 0.515625
vt 0.359375 0.484375
vt 0.09375 0.21875
vt 0.125 0.21875
vt 0.125 0.46875
vt 0.09375 0.46875
vt 0.171875 0.21875
vt 0.171875 0.46875
vt 0.140625 0.46875
vt 0.140625 0.21875
vt 0.703125 0.21875
vt 0.703125 0.25
vt 0.671875 0.25
vt 0.671875 0.21875
vt 0.78125 0.296875
vt 0.75 0.296875
vt 0.75 0.265625
vt 0.78125 0.265625
vt 0.71875 0.828125
vt 0.71875 0.859375
vt 0.46875 0.859375
vt 0.46875 0.828125
vt 0.71875 0.8125
vt 0.46875 0.8125
vt 0.46875 0.78125
vt 0.71875 0.78125
vt 0.03125 0.28125
vt 0.03125 0.53125
vt 0 0.53125
vt 0 0.28125
vt 0.046875 0.28125
vt 0.078125 0.28125
vt 0.078125 0.53125
vt 0.046875 0.53125
vt 0.5625 0.25
vt 0.53125 0.25
vt 0.53125 0.21875
vt 0.5625 0.21875
vt 0.609375 0.21875
vt 0.609375 0.25
vt 0.578125 0.25
vt 0.578125 0.21875
vt 0.71875 0.734375
vt 0.71875 0.765625
vt 0.46875 0.765625
vt 0.46875 0.734375
vt 0.71875 0.71875
vt 0.46875 0.71875
vt 0.46875 0.6875
vt 0.71875 0.6875
vt 0.71875 0.671875
vt 0.46875 0.671875
vt 0.46875 0.640625
vt 0.71875 0.640625
vt 0.46875 0.625
vt 0.46875 0.59375
vt 0.71875 0.59375
vt 0.71875 0.625
vt 0.65625 0.25
vt 0.625 0.25
vt 0.625 0.21875
vt 0.65625 0.21875
vt 0.78125 0.3125
vt 0.78125 0.34375
vt 0.75 0.34375
vt 0.75 0.3125
vt 0.484375 0.53125
vt 0.484375 0.5625
vt 0.234375 0.5625
vt 0.234375 0.53125
vt 0.71875 1
vt 0.46875 1
vt 0.46875 0.96875
vt 0.71875 0.96875
vt 0.46875 0.921875
vt 0.71875 0.921875
vt 0.71875 0.953125
vt 0.46875 0.953125
vt 0.71875 0.875
vt 0.71875 0.90625
vt 0.46875 0.90625
vt 0.46875 0.875
vt 0.765625 0.671875
vt 0.734375 0.671875
vt 0.734375 0.640625
vt 0.765625 0.640625
vt 0.765625 0.59375
vt 0.765625 0.625
vt 0.734375 0.625
vt 0.734375 0.59375
vn 0.8880161006528068 0 0.45981235844786095
vn -0.8880161006528068 0 -0.45981235844786095
vn 0 1 0
vn 0 -1 0
vn -0.45981235844786095 0 0.8880161006528068
vn 0.45981235844786095 0 -0.8880161006528068
vn 0.8880161006528068 0 0.45981235844786095
vn -0.8880161006528068 0 -0.45981235844786095
vn 0 1 0
vn 0 -1 0
vn -0.45981235844786095 0 0.8880161006528068
vn 0.45981235844786095 0 -0.8880161006528068
vn 0.8880161006528068 0 0.45981235844786095
vn -0.8880161006528068 0 -0.45981235844786095
vn 0 1 0
vn 0 -1 0
vn -0.45981235844786095 0 0.8880161006528068
vn 0.45981235844786095 0 -0.8880161006528068
vn 0.8880161006528068 0 0.45981235844786095
vn -0.8880161006528068 0 -0.45981235844786095
vn 0 1 0
vn 0 -1 0
vn -0.45981235844786095 0 0.8880161006528068
vn 0.45981235844786095 0 -0.8880161006528068
vn 1 0 0
vn -1 0 0
vn 0 1 0
vn 0 -1 0
vn 0 0 1
vn 0 0 -1
vn 1 0 0
vn -1 0 0
vn 0 1 0
vn 0 -1 0
vn 0 0 1
vn 0 0 -1
vn 1 0 0
vn -1 0 0
vn 0 1 0
vn 0 -1 0
vn 0 0 -1
vn 0 0 1
vn 0 0 -1
vn 0 0 1
vn 0 1 0
vn 0 -1 0
vn -1 0 0
vn 1 0 0
vn 0 0 1
vn 0 0 -1
vn 0 1 0
vn 0 -1 0
vn 1 0 0
vn -1 0 0
usemtl Material
f 1/1/1 2/2/1 3/3/1 4/4/1
f 5/5/2 6/6/2 7/7/2 8/8/2
f 6/9/3 2/10/3 1/11/3 7/12/3
f 4/13/4 3/14/4 5/15/4 8/16/4
f 3/17/5 2/18/5 6/19/5 5/20/5
f 7/21/6 1/22/6 4/23/6 8/24/6
f 9/25/7 10/26/7 11/27/7 12/28/7
f 13/29/8 14/30/8 15/31/8 16/32/8
f 14/33/9 10/34/9 9/35/9 15/36/9
f 12/37/10 11/38/10 13/39/10 16/40/10
f 11/41/11 10/42/11 14/43/11 13/44/11
f 15/45/12 9/46/12 12/47/12 16/48/12
f 17/49/13 18/50/13 19/51/13 20/52/13
f 21/53/14 22/54/14 23/55/14 24/56/14
f 22/57/15 18/58/15 17/59/15 23/60/15
f 20/61/16 19/62/16 21/63/16 24/64/16
f 19/65/17 18/66/17 22/67/17 21/68/17
f 23/69/18 17/70/18 20/71/18 24/72/18
f 25/73/19 26/74/19 27/75/19 28/76/19
f 29/77/20 30/78/20 31/79/20 32/80/20
f 30/81/21 26/82/21 25/83/21 31/84/21
f 28/85/22 27/86/22 29/87/22 32/88/22
f 27/89/23 26/90/23 30/91/23 29/92/23
f 31/93/24 25/94/24 28/95/24 32/96/24
f 33/97/25 34/98/25 35/99/25 36/100/25
f 37/101/26 38/102/26 39/103/26 40/104/26
f 38/105/27 34/106/27 33/107/27 39/108/27
f 36/109/28 35/110/28 37/111/28 40/112/28
f 35/113/29 34/114/29 38/115/29 37/116/29
f 39/117/30 33/118/30 36/119/30 40/120/30
f 41/121/31 42/122/31 43/123/31 44/124/31
f 45/125/32 46/126/32 47/127/32 48/128/32
f 46/129/33 42/130/33 41/131/33 47/132/33
f 44/133/34 43/134/34 45/135/34 48/136/34
f 43/137/35 42/138/35 46/139/35 45/140/35
f 47/141/36 41/142/36 44/143/36 48/144/36
f 49/145/37 50/146/37 51/147/37 52/148/37
f 53/149/38 54/150/38 55/151/38 56/152/38
f 51/153/39 50/154/39 54/155/39 53/156/39
f 55/157/40 49/158/40 52/159/40 56/160/40
f 54/161/41 50/162/41 49/163/41 55/164/41
f 52/165/42 51/166/42 53/167/42 56/168/42
f 57/169/43 58/170/43 59/171/43 60/172/43
f 61/173/44 62/174/44 63/175/44 64/176/44
f 59/177/45 58/178/45 62/179/45 61/180/45
f 63/181/46 57/182/46 60/183/46 64/184/46
f 62/185/47 58/186/47 57/187/47 63/188/47
f 60/189/48 59/190/48 61/191/48 64/192/48
f 65/193/49 66/194/49 67/195/49 68/196/49
f 69/197/50 70/198/50 71/199/50 72/200/50
f 67/201/51 66/202/51 70/203/51 69/204/51
f 71/205/52 65/206/52 68/207/52 72/208/52
f 70/209/53 66/210/53 65/211/53 71/212/53
f 68/213/54 67/214/54 69/215/54 72/216/54
