# Made in Blockbench 5.1.6
mtllib hypersonic_missile.mtl

o some_hypersonic_bullshit_made_by_glowker
v -0.308289 8.100329 -1.269162
v 0.308289 8.100329 -1.269162
v 0.308289 1.814617 -1.26916
v -0.308289 1.814617 -1.26916
v 0.621074 12.049337 -1.089854
v -0.621074 12.049337 -1.089854
v -0.487406 13.696512 -0.973509
v 0.487406 13.696512 -0.973509
v 1.15055 8.100329 -0.426901
v 1.15055 8.220052 0.189677
v 1.15055 1.814617 0.189679
v 1.15055 1.814617 -0.426899
v 1.213264 12.049337 -0.132507
v 1.038995 13.696512 -0.153671
v 0.768827 13.696512 0.287626
v 0.897781 12.049337 0.482807
v -0.768827 13.696512 0.287626
v -1.038995 13.696512 -0.153671
v -1.213264 12.049337 -0.132507
v -0.897781 12.049337 0.482807
v 1.213264 9.199534 0.067493
v 0.897781 9.199534 0.582807
v 0.842261 8.100329 0.723649
v 0.308289 8.100329 1.031938
v 0.308289 1.814617 1.03194
v 0.842261 1.814617 0.723651
v -0.380375 8.106224 0.219571
v 0.380375 8.106224 0.219571
v 0.380375 8.106224 0.980321
v -0.380375 8.106224 0.980321
v -1.15055 8.100329 -0.426901
v -0.842261 8.100329 -0.960873
v -0.842261 1.814617 -0.960871
v -1.15055 1.814617 -0.426899
v -1.017585 12.049337 -0.793978
v -1.00651 9.199534 -0.940924
v -1.213264 9.199534 0.067493
v 0.842261 8.100329 -0.960873
v 0.842261 1.814617 -0.960871
v -0.897781 9.199534 0.582807
v -0.842261 8.100329 0.723649
v -1.15055 8.100329 0.189677
v -1.15055 1.814617 0.189679
v -0.842261 1.814617 0.723651
v -0.621113 9.199534 -1.239854
v 0.621113 9.199534 -1.239854
v -0.583638 1.233483 0.465027
v -0.213626 1.233483 0.678653
v -0.308289 1.814617 1.03194
v -0.108881 16.904528 -0.581329
v 0.108881 16.904528 -0.581329
v -0.295434 11.353889 0.928185
v -0.422806 11.535371 1.022751
v 0.422806 11.535371 1.022751
v 0.295434 11.353889 0.928185
v -0.667993 0 -0.631179
v 0.109901 0 -0.953393
v 0.777894 0 -0.440824
v -0.109901 0 0.716173
v -0.797264 1.233483 0.095016
v 0.213626 1.233483 -0.915874
v -0.213626 1.233483 -0.915874
v 0.583638 1.233483 -0.702248
v 0.797264 1.233483 -0.332236
v -0.797264 1.233483 -0.332236
v 0.213626 1.233483 0.678653
v 0.583638 1.233483 0.465027
v 0.797264 1.233483 0.095016
v -0.583638 1.233483 -0.702248
v -0.422806 10.772378 0.177139
v -0.308289 8.100329 1.031938
v 0.422806 10.772378 0.177139
v 0.884002 13.696512 -0.677609
v 1.017585 12.049337 -0.793978
v 0.23987 1.884952 0.460487
v -0.081815 1.884952 0.502838
v 0.322214 0 0.659284
v -0.621448 1.884952 -0.200425
v -0.497282 1.884952 -0.500188
v -0.834783 0 -0.228511
v -0.23987 1.884952 -0.697707
v -0.322214 0 -0.896504
v 0.621448 1.884952 -0.036795
v 0.497282 1.884952 0.262968
v 0.667993 0 0.393959
v 0.834783 0 -0.008709
v 0.081815 1.884952 -0.740058
v 0.381578 1.884952 -0.615892
v 0.512569 0 -0.786603
v -0.512569 0 0.549383
v -0.381578 1.884952 0.378672
v -0.579097 1.884952 0.12126
v -0.777894 0 0.203604
v 0.579097 1.884952 -0.35848
v 1.00651 9.199534 -0.940924
v 0.642134 15.746606 -0.426968
v -0.642134 15.746606 -0.426967
v -0.884002 13.696512 -0.677609
v 0.295434 10.761551 0.271706
v -0.295434 10.761551 0.271706
vt 0.097524609375 0.7232808005900414
vt 0.078256640625 0.7232808005900414
vt 0.078256640625 0.5268522849650414
vt 0.097524609375 0.5268522849650414
vt 0.06848203124999999 0.8468225974650414
vt 0.10729921875000001 0.8468225974650414
vt 0.10312207031250001 0.8984249412150414
vt 0.07265917968749999 0.8984249412150414
vt 0.156118359375 0.7600659749704628
vt 0.13685039062499998 0.7638071859079628
vt 0.1368501953125 0.5636374593454627
vt 0.156118359375 0.5636374593454627
vt 0.287109375 0.8824705138992823
vt 0.28520776546931204 0.9342014121610204
vt 0.26903847043483003 0.9343195442645891
vt 0.26556172963679275 0.8824705138992823
vt 0.25250685295196273 0.6569755989573014
vt 0.23633755791748073 0.6568574668537328
vt 0.23443594838679274 0.6051265685919947
vt 0.25598359375 0.6051265685919947
vt 0.2815478515625 0.7933685607742823
vt 0.287109375 0.8824705138992823
vt 0.26550078125 0.8824705138992823
vt 0.262719921875 0.7934140685867823
vt 0.058198828125 0.7180843208328908
vt 0.038930859375 0.7180843208328908
vt 0.038930859375 0.5216558052078908
vt 0.058198828125 0.5216558052078908
vt 0.044921875 0.9765625
vt 0.068359375 0.9765625
vt 0.068359375 1
vt 0.044921875 1
vt 0.19544414062499998 0.7603061090992583
vt 0.1761759765625 0.7603061090992583
vt 0.17617617187500006 0.5638775934742584
vt 0.19544414062500004 0.5638775934742584
vt 0.1368501953125 0.5636374593454628
vt 0.13685039062499998 0.7638071859079628
vt 0.1175822265625 0.7600659749704628
vt 0.1175822265625 0.5636374593454628
vt 0.20394460306450038 0.8836744730429941
vt 0.18238940186789326 0.8834428788189925
vt 0.17884474899785963 0.7943379350384285
vt 0.2108939453125 0.7947121637867584
vt 0.078256640625 0.7232808005900414
vt 0.058988671875 0.7232808005900414
vt 0.058988671875 0.5268522849650414
vt 0.078256640625 0.5268522849650414
vt 0.0573525390625 0.7551913520828908
vt 0.0573525390625 0.8443024848953908
vt 0.0012412109375000008 0.8443024848953908
vt 0.0012412109375000008 0.7551913520828908
vt 0.2339802734375 0.7603061090992583
vt 0.21471210937500002 0.7603061090992583
vt 0.2147123046875 0.5638775934742584
vt 0.2339802734375 0.5638775934742584
vt 0.11679257812499999 0.7232808005900414
vt 0.097524609375 0.7232808005900414
vt 0.097524609375 0.5268522849650414
vt 0.11679257812499999 0.5268522849650414
vt 0.1753865234375 0.7600659749704628
vt 0.156118359375 0.7600659749704628
vt 0.156118359375 0.5636374593454628
vt 0.175386328125 0.5636374593454628
vt 0.10730039062499999 0.7576431052775414
vt 0.10729921875000001 0.8468225974650414
vt 0.06848203124999999 0.8468225974650414
vt 0.06848085937500001 0.7576431052775414
vt 0.21471210937500002 0.7603061090992583
vt 0.19544414062499998 0.7603061090992583
vt 0.19544414062499998 0.5638775934742584
vt 0.2147123046875 0.5638775934742584
vt 0.001127325974182504 0.5163939174452773
vt 0.009777043963580222 0.49675669858072147
vt 0.022621093750000005 0.5004028755203908
vt 0.019662890625 0.5216558052078908
vt 0.0258943359375 0.9999999458328908
vt 0.005271093750000001 0.8961368598953907
vt 0.053322656249999996 0.8961368598953907
vt 0.0326994140625 0.9999999458328908
vt 0.038930859375 0.7180843208328908
vt 0.058043787634713497 0.7205237045849933
vt 0.05735252026637631 0.755191314221612
vt 0.3422401021691624 0.6127455078124999
vt 0.3462205709191624 0.619140625
vt 0.31979518029416243 0.619140625
vt 0.3237756490441624 0.6127455078124999
vt 0.2828361328125 0.736631640625
vt 0.3071453125 0.7265625
vt 0.3280201171875 0.7425802734375
vt 0.3002765625 0.7787365234375
vt 0.2147123046875 0.5638775934742584
vt 0.2117541015625 0.5426246637867583
vt 0.22459815134891978 0.538978486847089
vt 0.2332478693383175 0.5586157057116449
vt 0.078256640625 0.5268522849650414
vt 0.08121484375 0.5055993552775414
vt 0.09456640625 0.5055993552775414
vt 0.097524609375 0.5268522849650414
vt 0.078256640625 0.5268522849650414
vt 0.059721075974182504 0.521590397202428
vt 0.06837079396358023 0.5019531783378721
vt 0.08121484375 0.5055993552775414
vt 0.156118359375 0.5636374593454628
vt 0.15316015624999998 0.5423845296579628
vt 0.16600420603641977 0.5387383527182935
vt 0.1746541119141994 0.5583755182449772
vt 0.2442879324435364 0.48168531443020146
vt 0.2635560621169938 0.48172171808727415
vt 0.25881205686725306 0.5160702383395259
vt 0.2399365234375 0.5160246154669947
vt 0.19544414062499998 0.5638775934742584
vt 0.19840234375 0.5426246637867583
vt 0.2117541015625 0.5426246637867583
vt 0.2147123046875 0.5638775934742584
vt 0.0574664240258175 0.5163939174452773
vt 0.038930859374999995 0.5216558052078908
vt 0.03597265625 0.5004028755203908
vt 0.048816706036419785 0.49675669858072147
vt 0.1368501953125 0.5636374593454627
vt 0.13980839843749998 0.5423845296579628
vt 0.15316015624999998 0.5423845296579628
vt 0.156118359375 0.5636374593454627
vt 0.097524609375 0.5268522849650414
vt 0.09456640625 0.5055993552775414
vt 0.10741064392480168 0.501953125
vt 0.11606036191419941 0.5215903438645558
vt 0.19544414062499998 0.5638775934742584
vt 0.1769085759741825 0.5586157057116449
vt 0.18555829396358023 0.538978486847089
vt 0.19840234375000002 0.5426246637867583
vt 0.1368501953125 0.5636374593454627
vt 0.11831463066168249 0.5583755715828493
vt 0.12696434865108022 0.5387383527182935
vt 0.1398083984375 0.5423845296579628
vt 0.2055362794694971 0.9700466796875
vt 0.23063566593709423 0.8867188416127414
vt 0.2319637205305029 0.9938877714871543
vt 0.019662890625 0.7180843208328908
vt 0.0003949218750000025 0.7180843208328908
vt 0.0003949218750000025 0.5216558052078908
vt 0.019662890625 0.5216558052078908
vt 0.10920807026545437 0.78515625
vt 0.13430745673305147 0.8684840880747586
vt 0.10788001567204564 0.892325179874413
vt 0.2628896484375 0.6366167696995648
vt 0.26171875 0.5848589571995648
vt 0.277179296875 0.5848589571995648
vt 0.278352734375 0.6366169650120648
vt 0.038930859375 0.7180843208328908
vt 0.019662890625 0.7180843208328908
vt 0.019662890625 0.5216558052078908
vt 0.038930859375 0.5216558052078908
vt 0.3420849953829434 0.6790924848580415
vt 0.33194554225794337 0.6790924848580415
vt 0.3302051125704434 0.6198307661080414
vt 0.3438252297579434 0.6198307661080414
vt 0.29854038645135267 0.8529205775060339
vt 0.2884184089689633 0.853515625
vt 0.283203125 0.7944581850129475
vt 0.29679996249493207 0.7936588585877208
vt 0.32291009926288433 0.9394530707792805
vt 0.31278811791936423 0.9388580889682117
vt 0.3145283522943642 0.8795963702182117
vt 0.328125 0.8803955969507864
vt 0.3024462489639058 0.9994049858368077
vt 0.292324269522133 1
vt 0.287109375 0.9409425313782663
vt 0.30070602015105813 0.9401432611877547
vt 0.3009082293757659 0.8795961750740253
vt 0.3026486647943642 0.9388580889682117
vt 0.2925268822878481 0.939453125
vt 0.28731158685670705 0.8803954900370743
vt 0.3240167217342713 0.794457888861352
vt 0.3188018267078432 0.8535153631941117
vt 0.30867984530679005 0.8529203823618092
vt 0.3104200739513527 0.7936586634435339
vt 0.3522069747671801 0.6796875
vt 0.3420849953829434 0.6790924848580415
vt 0.34382522992622905 0.6198307603772639
vt 0.357421875 0.6206300318825319
vt 0.24137328708149042 0.8467465523163815
vt 0.24204602338511286 0.7575694374892044
vt 0.2572757788342767 0.7581751774808043
vt 0.2568193687487308 0.8473487773997683
vt 0.31432613177640584 0.9401430717743077
vt 0.31258570208890585 0.9994049858368077
vt 0.3024462489639058 0.9994049858368077
vt 0.30070601458890583 0.9401430717743077
vt 0.3279229692713379 0.9409423981995344
vt 0.3227076853023746 0.9999998381865869
vt 0.31258570781998524 0.9994047906926208
vt 0.31432613177640584 0.9401430717743077
vt 0.33194554225794337 0.6790924848580415
vt 0.3218235628737067 0.6796875
vt 0.31660846766497697 0.6206300433440863
vt 0.33020511273874786 0.6198307718388184
vt 0.31278811791936423 0.9388580889682117
vt 0.3026486647943642 0.9388580889682117
vt 0.3009082351068642 0.8795963702182117
vt 0.3145283522943642 0.8795963702182117
vt 0.31331640625 0.67578125
vt 0.331555078125 0.6940199218750001
vt 0.324879296875 0.718934375
vt 0.29996484375 0.72561015625
vt 0.281726171875 0.7073716796875
vt 0.31331640625 0.67578125
vt 0.324879296875 0.718934375
vt 0.2689168582032879 0.46131067125756364
vt 0.2881820639016873 0.4609843751507282
vt 0.27984514625465445 0.49572389891412405
vt 0.2647423828125 0.4957347384495647
vt 0.097524609375 0.7232808005900414
vt 0.10730039062499999 0.7576431052775414
vt 0.06848085937500001 0.7576431052775414
vt 0.078256640625 0.7232808005900414
vt 0.277179296875 0.5848589571995648
vt 0.26171875 0.5848589571995648
vt 0.2647423828125 0.4957347384495647
vt 0.279981640625 0.4957238009495648
vt 0.2642630465719465 0.7015857323644847
vt 0.2783527343737665 0.6366169650120648
vt 0.2805035987012844 0.73828125
vt 0.14531448084969334 0.8833666512905543
vt 0.1668695025423568 0.8836143897405578
vt 0.16397233133694739 0.9353044294281826
vt 0.1468990448942476 0.9351082009307081
vt 0.3104200739513527 0.7936586634435339
vt 0.30867983957635264 0.8529205775060339
vt 0.29854038645135267 0.8529205775060339
vt 0.2967999567638527 0.7936586634435339
vt 0.238184549360711 0.8984195742614345
vt 0.24973236471271293 0.9638879482617233
vt 0.23207448993233826 0.9999228758493397
vt 0.2536359033316674 0.8990218094104581
vt 0.238184549360711 0.8984195742614345
vt 0.24137328708149042 0.8467465523163815
vt 0.2568219011452745 0.8473488761350174
vt 0.053322656249999996 0.8961368598953907
vt 0.05050914823522065 0.9640399907796797
vt 0.032699403306980825 1
vt 0.27719418993934086 0.7627684474484258
vt 0.2815478515625 0.7933685607742823
vt 0.26266607077926557 0.7934141987469012
vt 0.25792347255847314 0.7590687254898685
vt 0.1468990448942476 0.9351082009307081
vt 0.16397233133694739 0.9353044294281826
vt 0.1578618093736874 1
vt 0.019662890625 0.5216558052078908
vt 0.02262109375 0.5004028755203908
vt 0.03597265625 0.5004028755203908
vt 0.038930859375 0.5216558052078908
vt 0.25250685295196273 0.6569755989573014
vt 0.2350484151126274 0.72265625
vt 0.23633755791748073 0.6568574668537328
vt 0.18880705826875915 1
vt 0.1841365395354288 0.9351845575110522
vt 0.2012099681594862 0.9353679985013343
vt 0.0573525390625 0.8443024848953908
vt 0.053322656249999996 0.8961368598953907
vt 0.005271093749999997 0.8961368598953907
vt 0.0012412109375000008 0.8443024848953908
vt 0.17239450899563655 0.7946102894204168
vt 0.1668695025423568 0.8836143897405578
vt 0.14531448084969334 0.8833666512905543
vt 0.14034491509867267 0.7942718184318063
vt 0.25598359375 0.6051265685919947
vt 0.234375 0.6051265685919947
vt 0.2399365234375 0.5160246154669947
vt 0.258764453125 0.5160701232794946
vt 0.13102734375 0.892578125
vt 0.1323533203125 1
vt 0.1059279296875 1
vt 0.10725390625 0.892578125
vt 0.156118359375 0.7600659749704628
vt 0.17239450899563655 0.7946102894204168
vt 0.14022774806288926 0.7942705810481888
vt 0.13720312912266486 0.7637386955993754
vt 0.038930859375 0.7180843208328908
vt 0.0573525390625 0.7551913520828908
vt 0.0012412109375000008 0.7551913520828908
vt 0.019662890625 0.7180843208328908
vt 0.2541693359375 0.7235773528232802
vt 0.2734375 0.7235773528232802
vt 0.25727578125 0.7581752043857801
vt 0.1841365395354288 0.9351845575110522
vt 0.1823894018678933 0.8834428788189925
vt 0.20394460306450038 0.8836744730429941
vt 0.20120996815948616 0.9353679985013343
vt 0.156118359375 0.7600659749704628
vt 0.17538641798958457 0.7600022288776411
vt 0.172394451950676 0.7946101683488427
vt 0.195444140625 0.7603061090992583
vt 0.21471210937500002 0.7603061090992583
vt 0.2108939453125 0.7947121637867584
vt 0.179380859375 0.7943441950367583
vt 0.0726591796875 0.8984249412150414
vt 0.10312207031250001 0.8984249412150414
vt 0.0912931640625 0.9994218162150414
vt 0.0844880859375 0.9994218162150414
vt 0.3422401021691624 0.6127455078124999
vt 0.3495601695438937 0.5837052015517976
vt 0.34622044470583757 0.6191404222226253
vt 0.3237755228308376 0.6127457105898746
vt 0.31645542658332104 0.583705289784526
vt 0.3211828577445673 0.5852360570076923
vt 0.1811072265625 0.9970255859375
vt 0.1586623046875 1
vt 0.1626427734375 0.9970255859375
vt 0.0005499435691628043 0.720523742446272
vt 0.0196628718288763 0.7180843586941694
vt 0.0012412109375000008 0.7551913520828908
vt 0.2055362794694971 0.9700466796875
vt 0.2068622560319971 0.88671875
vt 0.2306356935319971 0.88671875
vt 0.10920807026545437 0.78515625
vt 0.13298150776545437 0.78515625
vt 0.13430748432795436 0.8684841796875
vt 0.324879296875 0.718934375
vt 0.31331640625 0.72561015625
vt 0.29996484375 0.72561015625
vt 0.29996484375 0.72561015625
vt 0.288401953125 0.718934375
vt 0.281726171875 0.7073716796875
vt 0.281726171875 0.7073716796875
vt 0.281726171875 0.6940199218750001
vt 0.288401953125 0.68245703125
vt 0.288401953125 0.68245703125
vt 0.29996484375 0.67578125
vt 0.281726171875 0.7073716796875
vt 0.29996484375 0.67578125
vt 0.31331640625 0.67578125
vt 0.281726171875 0.7073716796875
vt 0.31331640625 0.67578125
vt 0.324879296875 0.68245703125
vt 0.331555078125 0.6940199218750001
vt 0.331555078125 0.6940199218750001
vt 0.331555078125 0.7073716796875
vt 0.324879296875 0.718934375
vt 0.2349233963828843 0.72265625
vt 0.2541693359375 0.7235773528232802
vt 0.2572757788342767 0.7581751774808043
vt 0.2421864361877374 0.7575750221914779
vt 0.2828361328125 0.736631640625
vt 0.293641796875 0.7283402343750001
vt 0.3071453125 0.7265625
vt 0.3071453125 0.7265625
vt 0.3197287109375 0.7317748046875
vt 0.3280201171875 0.7425802734375
vt 0.3280201171875 0.7425802734375
vt 0.3297978515625 0.756083984375
vt 0.3245857421875 0.7686671875
vt 0.3245857421875 0.7686671875
vt 0.313780078125 0.77695859375
vt 0.3280201171875 0.7425802734375
vt 0.313780078125 0.77695859375
vt 0.3002765625 0.7787365234375
vt 0.3280201171875 0.7425802734375
vt 0.3002765625 0.7787365234375
vt 0.2876931640625 0.77352421875
vt 0.2794017578125 0.76271875
vt 0.2794017578125 0.76271875
vt 0.2776240234375 0.7492150390625
vt 0.3002765625 0.7787365234375
vt 0.2776240234375 0.7492150390625
vt 0.2828361328125 0.736631640625
vt 0.3002765625 0.7787365234375
vt 0.2642630465719465 0.7015857323644847
vt 0.2628896484375 0.6366167696995648
vt 0.2783527343737665 0.6366169650120648
vt 0.238184549360711 0.8984195742614345
vt 0.2536359033316674 0.8990218094104581
vt 0.24973239786904686 0.9638881362359163
vt 0.26903847043483003 0.9343195442645891
vt 0.28520776546931204 0.9342014121610204
vt 0.28649690684725954 1
vt 0.005271081109409964 0.896136796234659
vt 0.0258943359375 0.9999999458328908
vt 0.008084628756520624 0.9640397105812686
vt 0.3422401021691624 0.6127455078124999
vt 0.3448327672554327 0.5852358542303177
vt 0.34956019841667896 0.5837050870071513
vt 0.32377552283083755 0.6127457105898746
vt 0.31979518029416243 0.619140625
vt 0.3164554554561063 0.5837054043291722
vt 0.1811072265625 0.9970255859375
vt 0.1850876953125 1
vt 0.1586623046875 1
vt 0.3237756490441624 0.6127455078124999
vt 0.3237756490441624 0.5851138671875
vt 0.3422401021691624 0.5851138671875
vt 0.3422401021691624 0.6127455078124999
vn 0 -3.181819338581477e-7 -0.9999999999999494
vn 0 0.07045751496427702 -0.9975147811361288
vn 1 0 0
vn 0.8488838579138483 0.09648825026032073 0.5196981944696395
vn -0.8488838579138483 0.09648825026032075 0.5196981944696394
vn 0.8893984354860844 0.032002999368641455 0.4560112180487625
vn 0.5000001484730542 2.755536105040989e-7 0.8660253180634201
vn 0 -1 0
vn -0.866025318063442 -1.5909101418104803e-7 -0.5000001484730667
vn 0.8660253029065083 1.5611747671132302e-7 0.5000001747256356
vn -0.9588644168896552 0.010899897498720707 -0.28365511145998956
vn 0.5000001484730541 -2.755536104897758e-7 -0.8660253180634202
vn 0 0.03506856118964981 0.9993849088394761
vn -0.866025318063442 1.5909101418104803e-7 0.5000001484730667
vn -0.5000001484730541 -2.7555361046829113e-7 -0.8660253180634202
vn 0.866025318063442 -1.5909101418104803e-7 -0.5000001484730667
vn 0 0.05256245635030204 -0.9986176386297323
vn -1 0 0
vn -0.4272445023406724 -0.5194668756616331 0.7400110136410218
vn 0 0.2614483659202955 0.965217463558139
vn 0.4981736591643815 0.08539678460245101 0.862861747033865
vn 0 0.46210402081791824 -0.8868257291846652
vn 0 -1 0
vn -0.7400106331744345 -0.5194666486358531 0.4272454373586778
vn 0 -0.5194664969409626 -0.8544908182981753
vn 0.42724566517163154 -0.5194660720409869 -0.7400109063996005
vn 0.7400110705488674 -0.5194667675703357 -0.42724453519635136
vn -0.8658465262489852 0.02031894258301426 0.49989692292999127
vn -0.8544908182981752 -0.5194664969409624 0
vn 0.4272452094859555 -0.5194675711897467 0.7400101171291699
vn 0.8544908182981753 -0.5194664969409624 0
vn -0.42724453519635125 -0.5194667675703357 -0.7400110705488673
vn -0.7400109063996007 -0.519466072040987 -0.4272456651716315
vn 0.7400106237835998 -0.519466608845545 0.4272455020031427
vn -0.9998579980407508 -0.012511558380381352 0.011289139065342384
vn -0.5000001484730542 2.7555361049693736e-7 0.8660253180634201
vn 0.9998579980407508 -0.01251155838038135 0.011289139065342388
vn 0.5947711445905304 0.10454585804937129 -0.7970680329352013
vn 0 3.18181933893473e-7 0.9999999999999494
vn 0.12974096827928586 0.10960054037521992 0.9854719695148175
vn -0.918313676958239 0.10960086947068999 -0.38037828555624514
vn -0.6050937303508243 0.10960068122481344 -0.7885741995305078
vn 0.918313676958239 0.10960086947068999 0.38037828555624514
vn 0.38037829938627493 0.10960054171852114 -0.9183137103468577
vn -0.7885741878155476 0.109600815141983 0.6050937213616272
vn 0.6050937303508243 0.10960068122481344 0.7885741995305078
vn -0.6123588093784025 0.04156318222244601 -0.7894866626233841
vn 0.9854719406564031 0.10960080435247668 -0.12974096447997058
vn 0.7885741878155477 0.10960081514198305 -0.6050937213616272
vn -0.38037828555624514 0.10960086947068999 0.918313676958239
vn -0.12974096827928586 0.10960054037521996 -0.9854719695148175
vn 0 -1 0
vn 0 -1 0
vn 0.4964851147423373 -0.11836684049462379 -0.8599371034619967
vn 0 0.026653433952409013 -0.9996447341223506
vn 0.597594066180481 0.03897234714508667 -0.800851102405361
vn 0.5896737792710849 0.1661987149032258 -0.790356135678513
vn 0.9543673536293089 0.09734309081658978 -0.28232477219837226
vn -0.9854719406564031 0.10960080435247668 0.12974096447997058
vn -0.5896750560337758 0.16619874824332953 -0.7903551760910497
vn -0.5947191463670682 0.10456329596396889 -0.7971045440101175
vn 0.4503043432621546 0.3185707829883424 0.834109498006967
vn 0.8528153854499322 0.01052555203787887 0.5221064365569359
vn 0.9486145009693259 0.14622495753574052 -0.2806221487060276
vn 0 -0.5194675705481708 0.8544901656243806
vn -0.8303007918402187 0.2284949885624737 0.5083213897440683
vn -0.9486144819821828 0.14622509149152554 -0.2806221430891907
vn 0 0.11767116578730162 0.9930526152940021
vn 0.9588644168896552 0.010899897498720707 -0.2836551114599896
vn -0.8893984354860847 0.03200299936864147 0.45601121804876255
vn 0 -0.012372392424813106 0.9999234590235828
vn 0.9790413112598806 0.03442549928097927 -0.20073115315214363
vn 0 0.3782405197972007 0.9257073561247872
vn -0.8598226876151468 -0.11946993768775403 -0.49641905669620484
vn -0.9543673536293089 0.09734309081658978 -0.2823247721983722
vn 0.8598226876151468 -0.11946993768775407 -0.49641905669620484
vn -0.9983763854892583 -0.056961328086729324 0
vn 0 0.12134661001583134 -0.9926101955136597
vn 0.4889257361020168 0.6476541953391242 -0.5843763067037651
vn -0.4889220070921774 0.6476561885494228 -0.5843772175697743
vn 0 0.9935097274040892 0.11374718261764791
vn -0.4981736591643815 0.08539678460245102 0.862861747033865
vn -0.999873385457995 -0.01591266956761244 0
vn 0.999873385457995 -0.01591266956761244 0
vn 0 -1 0
vn 0 -1 0
vn 0 -1 0
vn 0 -1 0
vn 0 -1 0
vn 0 -1 0
vn 0 -1 0
vn -0.49913229472393794 -0.058893134463932004 -0.864522151871558
vn 0 -1 0
vn 0 -1 0
vn 0 -1 0
vn 0 -1 0
vn 0 -1 0
vn 0 -1 0
vn 0 -1 0
vn 0 -1 0
vn 0.5896806295583515 0.1661969351178921 -0.7903513989872388
vn -0.5896805917761911 0.1661973099888474 -0.7903513483476523
vn 0.8303007447991759 0.22849522356726346 0.5083213609449048
vn -0.4503021729031547 0.3185706659869776 0.834110714384674
vn 0.4889220070921774 0.6476561885494228 -0.5843772175697743
vn -0.4889257361020168 0.6476541953391242 -0.5843763067037651
vn 0 0.9935097274040892 0.11374718261764791
vn 0 0.742446142033074 -0.6699057591782628
usemtl missile_texture
f 1/1/1 2/2/1 3/3/1 4/4/1
f 5/5/2 6/6/2 7/7/2 8/8/2
f 9/9/3 10/10/3 11/11/3 12/12/3
f 13/13/4 14/14/4 15/15/4 16/16/4
f 17/17/5 18/18/5 19/19/5 20/20/5
f 21/21/6 13/22/6 16/23/6 22/24/6
f 23/25/7 24/26/7 25/27/7 26/28/7
f 27/29/8 28/30/8 29/31/8 30/32/8
f 31/33/9 32/34/9 33/35/9 34/36/9
f 11/37/10 10/38/10 23/39/10 26/40/10
f 19/41/11 35/42/11 36/43/11 37/44/11
f 2/45/12 38/46/12 39/47/12 3/48/12
f 22/49/13 16/50/13 20/51/13 40/52/13
f 41/53/14 42/54/14 43/55/14 44/56/14
f 32/57/15 1/58/15 4/59/15 33/60/15
f 38/61/16 9/62/16 12/63/16 39/64/16
f 45/65/17 6/66/17 5/67/17 46/68/17
f 42/69/18 31/70/18 34/71/18 43/72/18
f 44/73/19 47/74/19 48/75/19 49/76/19
f 50/77/20 17/78/20 15/79/20 51/80/20
f 24/81/21 23/82/21 22/83/21
f 52/84/22 53/85/22 54/86/22 55/87/22
f 56/88/23 57/89/23 58/90/23 59/91/23
f 43/92/24 60/93/24 47/94/24 44/95/24
f 3/96/25 61/97/25 62/98/25 4/99/25
f 3/100/26 39/101/26 63/102/26 61/103/26
f 12/104/27 64/105/27 63/106/27 39/107/27
f 42/108/28 41/109/28 40/110/28 37/111/28
f 34/112/29 65/113/29 60/114/29 43/115/29
f 26/116/30 25/117/30 66/118/30 67/119/30
f 11/120/31 68/121/31 64/122/31 12/123/31
f 4/124/32 62/125/32 69/126/32 33/127/32
f 34/128/33 33/129/33 69/130/33 65/131/33
f 11/132/34 26/133/34 67/134/34 68/135/34
f 70/136/35 30/137/35 53/138/35
f 71/139/36 41/140/36 44/141/36 49/142/36
f 29/143/37 72/144/37 54/145/37
f 73/146/38 74/147/38 5/148/38 8/149/38
f 24/150/39 71/151/39 49/152/39 25/153/39
f 75/154/40 76/155/40 59/156/40 77/157/40
f 78/158/41 79/159/41 56/160/41 80/161/41
f 79/162/42 81/163/42 82/164/42 56/165/42
f 83/166/43 84/167/43 85/168/43 86/169/43
f 57/170/44 87/171/44 88/172/44 89/173/44
f 90/174/45 91/175/45 92/176/45 93/177/45
f 84/178/46 75/179/46 77/180/46 85/181/46
f 6/182/47 45/183/47 36/184/47 35/185/47
f 58/186/48 94/187/48 83/188/48 86/189/48
f 89/190/49 88/191/49 94/192/49 58/193/49
f 76/194/50 91/195/50 90/196/50 59/197/50
f 81/198/51 87/199/51 57/200/51 82/201/51
f 61/202/52 64/203/52 67/204/52
f 48/205/53 60/206/53 61/207/53 67/208/53
f 38/209/54 2/210/54 46/211/54 95/212/54
f 1/213/55 45/214/55 46/215/55 2/216/55
f 5/217/56 74/218/56 95/219/56 46/220/56
f 96/221/57 8/222/57 51/223/57
f 13/224/58 74/225/58 73/226/58 14/227/58
f 93/228/59 92/229/59 78/230/59 80/231/59
f 7/232/60 97/233/60 50/234/60
f 98/235/61 7/236/61 6/237/61 35/238/61
f 15/239/62 96/240/62 51/241/62
f 10/242/63 21/243/63 22/244/63 23/245/63
f 14/246/64 73/247/64 96/248/64
f 49/249/65 48/250/65 66/251/65 25/252/65
f 17/253/66 97/254/66 18/255/66
f 97/256/67 98/257/67 18/258/67
f 16/259/68 15/260/68 17/261/68 20/262/68
f 95/263/69 74/264/69 13/265/69 21/266/69
f 20/267/70 19/268/70 37/269/70 40/270/70
f 29/271/71 54/272/71 53/273/71 30/274/71
f 9/275/72 95/276/72 21/277/72 10/278/72
f 24/279/73 22/280/73 40/281/73 71/282/73
f 32/283/74 31/284/74 36/285/74
f 98/286/75 35/287/75 19/288/75 18/289/75
f 9/290/76 38/291/76 95/292/76
f 31/293/77 42/294/77 37/295/77 36/296/77
f 8/297/78 7/298/78 50/299/78 51/300/78
f 52/301/79 70/302/79 53/303/79
f 55/304/80 72/305/80 99/306/80
f 99/307/81 70/308/81 100/309/81
f 41/310/82 71/311/82 40/312/82
f 70/313/83 27/314/83 30/315/83
f 29/316/84 28/317/84 72/318/84
f 67/319/85 66/320/85 48/321/85
f 48/322/86 47/323/86 60/324/86
f 60/325/87 65/326/87 69/327/87
f 69/328/88 62/329/88 60/330/88
f 62/331/89 61/332/89 60/333/89
f 61/334/90 63/335/90 64/336/90
f 64/337/91 68/338/91 67/339/91
f 1/340/92 32/341/92 36/342/92 45/343/92
f 56/344/93 82/345/93 57/346/93
f 57/347/94 89/348/94 58/349/94
f 58/350/95 86/351/95 85/352/95
f 85/353/96 77/354/96 58/355/96
f 77/356/97 59/357/97 58/358/97
f 59/359/98 90/360/98 93/361/98
f 93/362/99 80/363/99 59/364/99
f 80/365/100 56/366/100 59/367/100
f 96/368/101 73/369/101 8/370/101
f 7/371/102 98/372/102 97/373/102
f 15/374/103 14/375/103 96/376/103
f 17/377/104 50/378/104 97/379/104
f 52/380/105 100/381/105 70/382/105
f 55/383/106 54/384/106 72/385/106
f 99/386/107 72/387/107 70/388/107
f 55/389/108 99/390/108 100/391/108 52/392/108
o Cube.003
v 1.018999 2.374341 0.356556
v 0.989747 2.374341 0.419286
v 0.989747 3.625659 0.419286
v 1.018999 3.713733 0.356556
v 1.83815 2.669858 0.814904
v 1.83815 2.823465 0.814904
v 1.867402 2.669858 0.752173
v 1.896654 2.669858 0.689442
v 1.896654 2.823465 0.689442
v 1.867402 2.911538 0.752173
v 1.048251 2.374341 0.293825
v 1.048251 3.625659 0.293825
v 1.018999 2.081077 0.356556
v 1.867402 2.460825 0.752173
v -1.124341 2.374341 -0.118611
v -1.124341 2.374341 -0.049395
v -1.124341 3.625659 -0.049395
v -1.124341 3.713732 -0.118611
v -2.06045 2.669858 -0.049395
v -2.06045 2.823464 -0.049395
v -2.06045 2.669858 -0.118611
v -2.06045 2.669858 -0.187827
v -2.06045 2.823464 -0.187827
v -2.06045 2.911538 -0.118611
v -1.124341 2.374341 -0.187827
v -1.124341 3.625659 -0.187827
v -1.124341 2.081077 -0.118611
v -2.06045 2.460825 -0.118611
v 1.124341 2.374341 -0.118611
v 1.124341 2.374341 -0.049396
v 1.124341 3.625659 -0.049396
v 1.124341 3.713732 -0.118611
v 2.06045 2.669858 -0.049395
v 2.06045 2.823464 -0.049395
v 2.06045 2.669858 -0.118611
v 2.06045 2.669858 -0.187826
v 2.06045 2.823464 -0.187826
v 2.06045 2.911538 -0.118611
v 1.124341 2.374341 -0.187827
v 1.124341 3.625659 -0.187827
v 1.124341 2.081077 -0.118611
v 2.06045 2.460825 -0.118611
v -1.018999 2.374341 -0.593778
v -1.048251 2.374341 -0.531047
v -1.048251 3.625659 -0.531047
v -1.018999 3.713732 -0.593778
v -1.896653 2.669858 -0.926664
v -1.896653 2.823464 -0.926664
v -1.867402 2.669858 -0.989395
v -1.83815 2.669858 -1.052125
v -1.83815 2.823464 -1.052125
v -1.867402 2.911538 -0.989395
v -0.989747 2.374341 -0.656509
v -0.989747 3.625659 -0.656509
v -1.018999 2.081077 -0.593778
v -1.867402 2.460825 -0.989395
v 1.018999 2.374341 -0.593778
v 1.048251 2.374341 -0.531048
v 1.048251 3.625659 -0.531048
v 1.018999 3.713732 -0.593778
v 1.896654 2.669858 -0.926664
v 1.896654 2.823464 -0.926664
v 1.867402 2.669858 -0.989395
v 1.83815 2.669858 -1.052125
v 1.83815 2.823464 -1.052125
v 1.867402 2.911538 -0.989395
v 0.989747 2.374341 -0.656509
v 0.989747 3.625659 -0.656509
v 1.018999 2.081077 -0.593778
v 1.867402 2.460825 -0.989395
v -1.018999 2.374341 0.356556
v -0.989747 2.374341 0.419287
v -0.989747 3.625659 0.419287
v -1.018999 3.713732 0.356556
v -1.83815 2.669858 0.814903
v -1.83815 2.823464 0.814903
v -1.867402 2.669858 0.752173
v -1.896654 2.669858 0.689442
v -1.896654 2.823464 0.689442
v -1.867402 2.911538 0.752173
v -1.048251 2.374341 0.293825
v -1.048251 3.625659 0.293825
v -1.018999 2.081077 0.356556
v -1.867402 2.460825 0.752173
vt 0.0642431640625 0.883925390625
vt 0.06640625 0.883925390625
vt 0.06640625 0.92302890625
vt 0.0642431640625 0.92578125
vt 0.28125 0.646443359375
vt 0.310503515625 0.655678125
vt 0.310503515625 0.6604783203125
vt 0.28125 0.685546875
vt 0.126743359375 0.8850255859375
vt 0.12890625 0.8850255859375
vt 0.12890625 0.88982578125
vt 0.126743359375 0.892578125
vt 0.3516716766305719 0.72794375
vt 0.3809251922555719 0.718708984375
vt 0.3809251922555719 0.7578125
vt 0.3516716766305719 0.7327439453125
vt 0.28125 0.646443359375
vt 0.2813286859693619 0.6370273708551274
vt 0.310611238752469 0.6488225612613749
vt 0.31049769296128293 0.6556762868983704
vt 0.23811905215914106 0.99609375
vt 0.236328125 0.9921875
vt 0.27485336502119245 0.9921875
vt 0.27664429218033354 0.99609375
vt 0.0642431640625 0.883925390625
vt 0.0642431640625 0.8747607421875
vt 0.06640625 0.883925390625
vt 0.126743359375 0.8850255859375
vt 0.126743359375 0.878493359375
vt 0.12890625 0.8850255859375
vt 0.3516716766305719 0.72794375
vt 0.3515625 0.7210633877598455
vt 0.3808706955702996 0.7093318306736133
vt 0.38091463091000716 0.7187123183862767
vt 0.1245802734375 0.8850255859375
vt 0.126743359375 0.878493359375
vt 0.126743359375 0.8850255859375
vt 0.0620802734375 0.883925390625
vt 0.0642431640625 0.8747607421875
vt 0.0642431640625 0.883925390625
vt 0.140625 0.9186683308308808
vt 0.14453125 0.9204591349788075
vt 0.14453125 0.958984375
vt 0.140625 0.9571935708520733
vt 0.1245802734375 0.8850255859375
vt 0.126743359375 0.8850255859375
vt 0.126743359375 0.892578125
vt 0.1245802734375 0.88982578125
vt 0.0620802734375 0.883925390625
vt 0.0642431640625 0.883925390625
vt 0.0642431640625 0.92578125
vt 0.0620802734375 0.92302890625
vt 0.06152333984375 0.934706640625
vt 0.06368642578125 0.934706640625
vt 0.06368642578125 0.97381015625
vt 0.06152333984375 0.9765625
vt 0.32321000790385934 0.839802734375
vt 0.35246332821635934 0.8490375
vt 0.35246332821635934 0.8538376953125
vt 0.32321000790385934 0.87890625
vt 0.07910166015625 0.9924474609375
vt 0.08126455078125 0.9924474609375
vt 0.08126455078125 0.99724765625
vt 0.07910166015625 1
vt 0.3604278468061398 0.90763125
vt 0.38968116711863987 0.898396484375
vt 0.38968116711863987 0.9375
vt 0.3604278468061398 0.9124314453125
vt 0.32321000790385934 0.839802734375
vt 0.3232887119205196 0.8303867460059593
vt 0.35257124209614066 0.8421819925370383
vt 0.3524576831686566 0.849035717956392
vt 0.24077163497880752 0.9921875
vt 0.23898070781966646 0.98828125
vt 0.2775059478408589 0.98828125
vt 0.279296875 0.9921875
vt 0.06152333984375 0.934706640625
vt 0.06152333984375 0.9255419921875
vt 0.06368642578125 0.934706640625
vt 0.07910166015625 0.9924474609375
vt 0.07910166015625 0.985915234375
vt 0.08126455078125 0.9924474609375
vt 0.3604278468061398 0.90763125
vt 0.36031883288136013 0.9007510885210689
vt 0.3896267863806206 0.8890194093776949
vt 0.3896709594862308 0.8983997067474307
vt 0.07693857421875 0.9924474609375
vt 0.07910166015625 0.985915234375
vt 0.07910166015625 0.9924474609375
vt 0.05936044921875 0.934706640625
vt 0.06152333984375 0.9255419921875
vt 0.06152333984375 0.934706640625
vt 0.064453125 0.833984375
vt 0.068359375 0.8357753021591411
vt 0.068359375 0.8743005421803336
vt 0.064453125 0.8725094633135335
vt 0.07693857421875 0.9924474609375
vt 0.07910166015625 0.9924474609375
vt 0.07910166015625 1
vt 0.07693857421875 0.99724765625
vt 0.05936044921875 0.934706640625
vt 0.06152333984375 0.934706640625
vt 0.06152333984375 0.9765625
vt 0.05936044921875 0.97381015625
vt 0.06738271484375 0.934706640625
vt 0.06954580078125 0.934706640625
vt 0.06954580078125 0.97381015625
vt 0.06738271484375 0.9765625
vt 0.3290693852819536 0.912068359375
vt 0.3583227055944536 0.921303125
vt 0.3583227055944536 0.9261033203125
vt 0.3290693852819536 0.951171875
vt 0.10253916015625 0.9397130859375
vt 0.10470205078125 0.9397130859375
vt 0.10470205078125 0.94451328125
vt 0.10253916015625 0.947265625
vt 0.3721465968061398 0.858803125
vt 0.40139991711863987 0.849568359375
vt 0.40139991711863987 0.888671875
vt 0.3721465968061398 0.8636033203125
vt 0.3290693852819536 0.912068359375
vt 0.32914810812114637 0.9026523711633072
vt 0.3584306147180464 0.9144476762300529
vt 0.3583172373846247 0.9213013987810402
vt 0.2830407826996968 0.783203125
vt 0.28125 0.779296875
vt 0.31977521132572745 0.779296875
vt 0.321566145732206 0.783203125
vt 0.06738271484375 0.934706640625
vt 0.06738271484375 0.9255419921875
vt 0.06954580078125 0.934706640625
vt 0.10253916015625 0.9397130859375
vt 0.10253916015625 0.933180859375
vt 0.10470205078125 0.9397130859375
vt 0.3721465968061398 0.858803125
vt 0.37203758288136013 0.851922963521069
vt 0.4013455363806206 0.8401912843776949
vt 0.4013897094862308 0.8495715817474307
vt 0.10037607421875 0.9397130859375
vt 0.10253916015625 0.933180859375
vt 0.10253916015625 0.9397130859375
vt 0.06521982421875 0.934706640625
vt 0.06738271484375 0.9255419921875
vt 0.06738271484375 0.934706640625
vt 0.1328125 0.9069494578196664
vt 0.13671875 0.9087403849788075
vt 0.13671875 0.947265625
vt 0.1328125 0.9454745461331999
vt 0.10037607421875 0.9397130859375
vt 0.10253916015625 0.9397130859375
vt 0.10253916015625 0.947265625
vt 0.10037607421875 0.94451328125
vt 0.06521982421875 0.934706640625
vt 0.06738271484375 0.934706640625
vt 0.06738271484375 0.9765625
vt 0.06521982421875 0.97381015625
vt 0.0583837890625 0.883925390625
vt 0.060546875 0.883925390625
vt 0.060546875 0.92302890625
vt 0.0583837890625 0.92578125
vt 0.33203125 0.693318359375
vt 0.3612845703125 0.702553125
vt 0.3612845703125 0.7073533203125
vt 0.33203125 0.732421875
vt 0.0095556640625 0.9924474609375
vt 0.01171875 0.9924474609375
vt 0.01171875 0.99724765625
vt 0.0095556640625 1
vt 0.35362481481792335 0.679115625
vt 0.38287813513042335 0.669880859375
vt 0.38287813513042335 0.708984375
vt 0.35362481481792335 0.6839158203125
vt 0.33203125 0.693318359375
vt 0.3321101138456482 0.6839025633396008
vt 0.36139249646384725 0.6956976940015545
vt 0.36127916056922105 0.7025514172379156
vt 0.3403810386742726 0.99609375
vt 0.3385901329622796 0.9921875
vt 0.377115344288007 0.9921875
vt 0.37890625 0.99609375
vt 0.0583837890625 0.883925390625
vt 0.0583837890625 0.8747607421875
vt 0.060546875 0.883925390625
vt 0.0095556640625 0.9924474609375
vt 0.0095556640625 0.985915234375
vt 0.01171875 0.9924474609375
vt 0.35362481481792335 0.679115625
vt 0.353515625 0.6722352629691132
vt 0.3828237930054136 0.6605038449553418
vt 0.38286775140374013 0.6698841373373376
vt 0.007392578125 0.9924474609375
vt 0.0095556640625 0.985915234375
vt 0.0095556640625 0.9924474609375
vt 0.0562208984375 0.883925390625
vt 0.0583837890625 0.8747607421875
vt 0.0583837890625 0.883925390625
vt 0.138671875 0.873046875
vt 0.142578125 0.874837645855435
vt 0.142578125 0.9133629801937573
vt 0.138671875 0.9115720863254287
vt 0.007392578125 0.9924474609375
vt 0.0095556640625 0.9924474609375
vt 0.0095556640625 1
vt 0.007392578125 0.99724765625
vt 0.0562208984375 0.883925390625
vt 0.0583837890625 0.883925390625
vt 0.0583837890625 0.92578125
vt 0.0562208984375 0.92302890625
vt 0.134975390625 0.958144140625
vt 0.13713828125 0.958144140625
vt 0.13713828125 0.99724765625
vt 0.134975390625 1
vt 0.32610752056390724 0.790974609375
vt 0.35536084087640724 0.800209375
vt 0.35536084087640724 0.8050095703125
vt 0.32610752056390724 0.830078125
vt 0.131069140625 0.8850255859375
vt 0.1332322265625 0.8850255859375
vt 0.1332322265625 0.88982578125
vt 0.131069140625 0.892578125
vt 0.3574654296875 0.620521875
vt 0.38671875 0.611287109375
vt 0.38671875 0.650390625
vt 0.3574654296875 0.6253220703125
vt 0.32610752056390724 0.790974609375
vt 0.3261864386977387 0.7815586185219586
vt 0.35546875 0.7933539262300529
vt 0.35535537266657835 0.8002076487810403
vt 0.345540905711993 0.9921875
vt 0.34375 0.98828125
vt 0.38227521132572745 0.98828125
vt 0.3840661170377204 0.9921875
vt 0.134975390625 0.958144140625
vt 0.134975390625 0.9489794921875
vt 0.13713828125 0.958144140625
vt 0.131069140625 0.8850255859375
vt 0.131069140625 0.878493359375
vt 0.1332322265625 0.8850255859375
vt 0.3574654296875 0.620521875
vt 0.35735623986957665 0.6136415129691132
vt 0.38666440787499023 0.6019100949553418
vt 0.3867083662733168 0.6112903873373376
vt 0.12890625 0.8850255859375
vt 0.131069140625 0.878493359375
vt 0.131069140625 0.8850255859375
vt 0.1328125 0.958144140625
vt 0.134975390625 0.9489794921875
vt 0.134975390625 0.958144140625
vt 0.06640625 0.8835119578196664
vt 0.0703125 0.8853028849788075
vt 0.0703125 0.923828125
vt 0.06640625 0.9220370461331999
vt 0.12890625 0.8850255859375
vt 0.131069140625 0.8850255859375
vt 0.131069140625 0.892578125
vt 0.12890625 0.88982578125
vt 0.1328125 0.958144140625
vt 0.134975390625 0.958144140625
vt 0.134975390625 1
vt 0.1328125 0.99724765625
vt 0.072475390625 0.958144140625
vt 0.0746384765625 0.958144140625
vt 0.0746384765625 0.99724765625
vt 0.072475390625 1
vt 0.21087313624753098 0.847615234375
vt 0.240126651872531 0.85685
vt 0.240126651872531 0.8616501953125
vt 0.21087313624753098 0.88671875
vt 0.1447412109375 0.9924474609375
vt 0.1469041015625 0.9924474609375
vt 0.1469041015625 0.99724765625
vt 0.1447412109375 1
vt 0.287152734375 0.620521875
vt 0.31640625 0.611287109375
vt 0.31640625 0.650390625
vt 0.287152734375 0.6253220703125
vt 0.21087313624753098 0.847615234375
vt 0.21095182221689288 0.8381992458551274
vt 0.240234375 0.8499944362613749
vt 0.24012082920881392 0.8568481618983704
vt 0.2837403849791062 0.791015625
vt 0.28194946966363893 0.787109375
vt 0.3204748326963445 0.787109375
vt 0.322265625 0.791015625
vt 0.072475390625 0.958144140625
vt 0.072475390625 0.9489794921875
vt 0.0746384765625 0.958144140625
vt 0.1447412109375 0.9924474609375
vt 0.1447412109375 0.985915234375
vt 0.1469041015625 0.9924474609375
vt 0.287152734375 0.620521875
vt 0.2870435577444281 0.6136415127598455
vt 0.3163517533147277 0.6019099556736133
vt 0.31639568865443524 0.6112904433862767
vt 0.142578125 0.9924474609375
vt 0.1447412109375 0.985915234375
vt 0.1447412109375 0.9924474609375
vt 0.0703125 0.958144140625
vt 0.072475390625 0.9489794921875
vt 0.072475390625 0.958144140625
vt 0.138671875 0.958984375
vt 0.142578125 0.960775280711993
vt 0.142578125 0.9993004920377204
vt 0.138671875 0.9975095863257274
vt 0.142578125 0.9924474609375
vt 0.1447412109375 0.9924474609375
vt 0.1447412109375 1
vt 0.142578125 0.99724765625
vt 0.0703125 0.958144140625
vt 0.072475390625 0.958144140625
vt 0.072475390625 1
vt 0.0703125 0.99724765625
vn -0.9063049061004765 0 -0.4226244398732837
vn -0.4226193005575766 0 0.9063073026276601
vn 0.906307486575915 0 0.42261890608022706
vn 0.42261842310321573 0 -0.9063077117920554
vn -0.3254546762731871 -0.22871440383258024 0.9174796865170491
vn 0.7177699699838773 0.5460773925489049 -0.43197887857664186
vn -0.9063049061004763 0 -0.4226244398732837
vn 0.906307486575915 0 0.422618906080227
vn 0.5126150200595431 -0.311815350065303 -0.7999981429184739
vn 0.906307486575915 0 0.422618906080227
vn -0.906307486575915 0 -0.422618906080227
vn 0.13045856624923807 0.5460770542309447 0.8275146000734048
vn 0.9063074865759151 0 0.4226189060802271
vn -0.906307486575915 0 -0.42261890608022706
vn -1 0 0
vn 0 0 -1
vn 1 0 0
vn 0 0 1
vn 0.09278292353864744 0.22871728033021835 -0.9690612647185781
vn 0.4679560437929456 -0.5460740396025534 0.6948527069457265
vn -1 0 0
vn 1 0 0
vn 0.12649297511266247 0.3118152365245884 0.941685077676323
vn 1 0 0
vn -1 0 0
vn 0.4679555881907027 -0.5460741886695869 -0.6948528966262904
vn 1 0 0
vn -1 0 0
vn -1 0 0
vn -0.0000010682516672742488 0 0.9999999999994295
vn 1 0 0
vn 0.0000010682516672742486 0 -0.9999999999994295
vn 0.09278166471585704 -0.22871417723199663 0.9690621176300542
vn 0.4679533592392142 0.54607004070881 -0.6948576575220379
vn -1 0 0
vn 1 0 0
vn 0.12649135452565732 -0.31181124164882656 -0.9416866181547243
vn 1 0 0
vn -1 0 0
vn 0.4679555881907027 0.5460741886695869 0.6948528966262904
vn 1 0 0
vn -1 0 0
vn -0.906307486575915 0 -0.42261890608022706
vn 0.42261883226772434 0 -0.9063075209953105
vn 0.9063049061004756 0 0.4226244398732853
vn -0.4226175456476667 0 0.9063081209559707
vn 0.493633025280996 0.22871736367287818 -0.8390559003466098
vn 0.13044912766523703 -0.5460692982824472 0.8275212061117796
vn -0.906307486575915 0 -0.422618906080227
vn 0.9063049061004758 0 0.42262443987328535
vn -0.2833339339145546 0.31181146311185914 0.9069153727688954
vn 0.9063130202604861 0 0.42260703887455026
vn -0.9063074865759156 0 -0.4226189060802258
vn 0.7177685799654221 -0.5460704641567503 -0.4319899463992802
vn 0.9063130202604862 0 0.42260703887455026
vn -0.9063074865759158 0 -0.4226189060802258
vn -0.906304906100476 0 0.42262443987328463
vn 0.4226175456476667 0 0.9063081209559707
vn 0.9063049061004756 0 -0.4226244398732853
vn -0.4226175456476667 0 -0.9063081209559707
vn 0.49363234955528557 -0.22871467687272581 0.8390570302759718
vn 0.13044912766523703 0.5460692982824472 -0.8275212061117796
vn -0.906304906100476 0 0.42262443987328463
vn 0.9063049061004758 0 -0.42262443987328535
vn -0.2833339339145546 -0.31181146311185914 -0.9069153727688954
vn 0.906307486575915 0 -0.422618906080227
vn -0.9063074865759156 0 0.4226189060802258
vn 0.7177693694055802 0.5460743989691462 0.4319836607252656
vn 0.9063074865759151 0 -0.4226189060802271
vn -0.9063074865759158 0 0.4226189060802258
vn -0.9063074865759159 0 0.4226189060802255
vn -0.42261754564766657 0 -0.9063081209559707
vn 0.906307486575915 0 -0.42261890608022706
vn 0.42261842310321573 0 0.9063077117920554
vn -0.32545325485148047 0.22871734175496178 -0.9174794583461372
vn 0.7177697021589575 -0.5460742499021269 0.4319832962702042
vn -0.9063074865759159 0 0.4226189060802255
vn 0.906307486575915 0 -0.422618906080227
vn 0.5126150200595431 0.311815350065303 0.7999981429184739
vn 0.9063049061004759 0 -0.42262443987328463
vn -0.906307486575915 0 0.422618906080227
vn 0.13044788738005478 -0.546069673242135 -0.8275211541968631
vn 0.9063049061004761 0 -0.4226244398732847
vn -0.906307486575915 0 0.42261890608022706
usemtl missile_texture
f 101/393/109 102/394/109 103/395/109 104/396/109
f 102/397/110 105/398/110 106/399/110 103/400/110
f 107/401/111 108/402/111 109/403/111 110/404/111
f 108/405/112 111/406/112 112/407/112 109/408/112
f 102/409/113 113/410/113 114/411/113 105/412/113
f 110/413/114 109/414/114 112/415/114 104/416/114
f 101/417/115 113/418/115 102/419/115
f 107/420/116 114/421/116 108/422/116
f 108/423/117 114/424/117 113/425/117 111/426/117
f 105/427/118 114/428/118 107/429/118
f 111/430/119 113/431/119 101/432/119
f 106/433/120 110/434/120 104/435/120 103/436/120
f 105/437/121 107/438/121 110/439/121 106/440/121
f 111/441/122 101/442/122 104/443/122 112/444/122
f 115/445/123 116/446/123 117/447/123 118/448/123
f 116/449/124 119/450/124 120/451/124 117/452/124
f 121/453/125 122/454/125 123/455/125 124/456/125
f 122/457/126 125/458/126 126/459/126 123/460/126
f 116/461/127 127/462/127 128/463/127 119/464/127
f 124/465/128 123/466/128 126/467/128 118/468/128
f 115/469/129 127/470/129 116/471/129
f 121/472/130 128/473/130 122/474/130
f 122/475/131 128/476/131 127/477/131 125/478/131
f 119/479/132 128/480/132 121/481/132
f 125/482/133 127/483/133 115/484/133
f 120/485/134 124/486/134 118/487/134 117/488/134
f 119/489/135 121/490/135 124/491/135 120/492/135
f 125/493/136 115/494/136 118/495/136 126/496/136
f 129/497/137 130/498/137 131/499/137 132/500/137
f 130/501/138 133/502/138 134/503/138 131/504/138
f 135/505/139 136/506/139 137/507/139 138/508/139
f 136/509/140 139/510/140 140/511/140 137/512/140
f 130/513/141 141/514/141 142/515/141 133/516/141
f 138/517/142 137/518/142 140/519/142 132/520/142
f 129/521/143 141/522/143 130/523/143
f 135/524/144 142/525/144 136/526/144
f 136/527/145 142/528/145 141/529/145 139/530/145
f 133/531/146 142/532/146 135/533/146
f 139/534/147 141/535/147 129/536/147
f 134/537/148 138/538/148 132/539/148 131/540/148
f 133/541/149 135/542/149 138/543/149 134/544/149
f 139/545/150 129/546/150 132/547/150 140/548/150
f 143/549/151 144/550/151 145/551/151 146/552/151
f 144/553/152 147/554/152 148/555/152 145/556/152
f 149/557/153 150/558/153 151/559/153 152/560/153
f 150/561/154 153/562/154 154/563/154 151/564/154
f 144/565/155 155/566/155 156/567/155 147/568/155
f 152/569/156 151/570/156 154/571/156 146/572/156
f 143/573/157 155/574/157 144/575/157
f 149/576/158 156/577/158 150/578/158
f 150/579/159 156/580/159 155/581/159 153/582/159
f 147/583/160 156/584/160 149/585/160
f 153/586/161 155/587/161 143/588/161
f 148/589/162 152/590/162 146/591/162 145/592/162
f 147/593/163 149/594/163 152/595/163 148/596/163
f 153/597/164 143/598/164 146/599/164 154/600/164
f 157/601/165 158/602/165 159/603/165 160/604/165
f 158/605/166 161/606/166 162/607/166 159/608/166
f 163/609/167 164/610/167 165/611/167 166/612/167
f 164/613/168 167/614/168 168/615/168 165/616/168
f 158/617/169 169/618/169 170/619/169 161/620/169
f 166/621/170 165/622/170 168/623/170 160/624/170
f 157/625/171 169/626/171 158/627/171
f 163/628/172 170/629/172 164/630/172
f 164/631/173 170/632/173 169/633/173 167/634/173
f 161/635/174 170/636/174 163/637/174
f 167/638/175 169/639/175 157/640/175
f 162/641/176 166/642/176 160/643/176 159/644/176
f 161/645/177 163/646/177 166/647/177 162/648/177
f 167/649/178 157/650/178 160/651/178 168/652/178
f 171/653/179 172/654/179 173/655/179 174/656/179
f 172/657/180 175/658/180 176/659/180 173/660/180
f 177/661/181 178/662/181 179/663/181 180/664/181
f 178/665/182 181/666/182 182/667/182 179/668/182
f 172/669/183 183/670/183 184/671/183 175/672/183
f 180/673/184 179/674/184 182/675/184 174/676/184
f 171/677/185 183/678/185 172/679/185
f 177/680/186 184/681/186 178/682/186
f 178/683/187 184/684/187 183/685/187 181/686/187
f 175/687/188 184/688/188 177/689/188
f 181/690/189 183/691/189 171/692/189
f 176/693/190 180/694/190 174/695/190 173/696/190
f 175/697/191 177/698/191 180/699/191 176/700/191
f 181/701/192 171/702/192 174/703/192 182/704/192
o Cube.002
v 1.124341 10.374341 -0.3
v 1.124341 10.374341 -0.230785
v 1.124341 11.625659 -0.230785
v 1.124341 11.713733 -0.3
v 2.06045 10.669859 -0.230784
v 2.06045 10.823464 -0.230784
v 2.06045 10.669859 -0.3
v 2.06045 10.669859 -0.369216
v 2.06045 10.823464 -0.369216
v 2.06045 10.911538 -0.3
v 1.124341 10.374341 -0.369216
v 1.124341 11.625659 -0.369216
v 1.124341 10.081078 -0.3
v 2.06045 10.460826 -0.3
vt 0.10058603515625 0.958144140625
vt 0.10274892578125 0.958144140625
vt 0.10274892578125 0.99724765625
vt 0.10058603515625 1
vt 0.3310225102819536 0.742146484375
vt 0.3602758305944536 0.75138125
vt 0.3602758305944536 0.7561814453125
vt 0.3310225102819536 0.78125
vt 0.0087890625 0.9768224609375
vt 0.0109521484375 0.9768224609375
vt 0.0109521484375 0.98162265625
vt 0.0087890625 0.984375
vt 0.378005964669173 0.97013125
vt 0.4072592849816731 0.960896484375
vt 0.4072592849816731 1
vt 0.378005964669173 0.9749314453125
vt 0.3310225102819536 0.742146484375
vt 0.33110123312114637 0.7327304961633072
vt 0.3603837397180464 0.7445258012300529
vt 0.36027036238462473 0.7513795237810403
vt 0.24202517914792665 0.98828125
vt 0.240234375 0.984375
vt 0.2787596150211925 0.984375
vt 0.2805505421803335 0.98828125
vt 0.10058603515625 0.958144140625
vt 0.10058603515625 0.9489794921875
vt 0.10274892578125 0.958144140625
vt 0.0087890625 0.9768224609375
vt 0.0087890625 0.970290234375
vt 0.0109521484375 0.9768224609375
vt 0.378005964669173 0.97013125
vt 0.3778969650183269 0.9632510882949179
vt 0.4072049428566632 0.9515194699553418
vt 0.4072489012549898 0.9608997623373375
vt 0.0066259765625 0.9768224609375
vt 0.0087890625 0.970290234375
vt 0.0087890625 0.9768224609375
vt 0.09842294921875 0.958144140625
vt 0.10058603515625 0.9489794921875
vt 0.10058603515625 0.958144140625
vt 0 0.9069493466518271
vt 0.00390625 0.9087402619672944
vt 0.00390625 0.947265625
vt 0 0.9454747096845327
vt 0.0066259765625 0.9768224609375
vt 0.0087890625 0.9768224609375
vt 0.0087890625 0.984375
vt 0.0066259765625 0.98162265625
vt 0.09842294921875 0.958144140625
vt 0.10058603515625 0.958144140625
vt 0.10058603515625 1
vt 0.09842294921875 0.99724765625
vn -1 0 0
vn -0.0000010682516672742488 0 0.9999999999994295
vn 1 0 0
vn 0 0 -1
vn 0.09278196181950607 -0.22871490961610266 0.9690619163295098
vn 0.4679560437929449 0.546074039602552 -0.6948527069457282
vn -1 0 0
vn 1 0 0
vn 0.12649297511266316 -0.31181523652458903 -0.9416850776763228
vn 1 0 0
vn -1 0 0
vn 0.46795604379294403 0.5460740396025522 0.6948527069457285
vn 1 0 0
vn -1 0 0
usemtl missile_texture
f 185/705/193 186/706/193 187/707/193 188/708/193
f 186/709/194 189/710/194 190/711/194 187/712/194
f 191/713/195 192/714/195 193/715/195 194/716/195
f 192/717/196 195/718/196 196/719/196 193/720/196
f 186/721/197 197/722/197 198/723/197 189/724/197
f 194/725/198 193/726/198 196/727/198 188/728/198
f 185/729/199 197/730/199 186/731/199
f 191/732/200 198/733/200 192/734/200
f 192/735/201 198/736/201 197/737/201 195/738/201
f 189/739/202 198/740/202 191/741/202
f 195/742/203 197/743/203 185/744/203
f 190/745/204 194/746/204 188/747/204 187/748/204
f 189/749/205 191/750/205 194/751/205 190/752/205
f 195/753/206 185/754/206 188/755/206 196/756/206
o Cube.001
v -1.124341 10.374341 -0.3
v -1.124341 11.713733 -0.3
v -1.124341 11.625659 -0.230785
v -1.124341 10.374341 -0.230785
v -2.06045 10.823464 -0.230784
v -2.06045 10.669859 -0.230784
v -2.06045 10.669859 -0.3
v -2.06045 10.911538 -0.3
v -2.06045 10.823464 -0.369216
v -2.06045 10.669859 -0.369216
v -1.124341 11.625659 -0.369216
v -1.124341 10.374341 -0.369216
v -2.06045 10.460826 -0.3
v -1.124341 10.081078 -0.3
vt 0.06152333984375 0.831191015625
vt 0.06152333984375 0.873046875
vt 0.05936044921875 0.87029453125
vt 0.05936044921875 0.831191015625
vt 0.3760097365253721 0.769490234375
vt 0.3760097365253721 0.80859375
vt 0.3467564162128721 0.7835251953125
vt 0.3467564162128721 0.778725
vt 0.0419921875 0.9924474609375
vt 0.0419921875 1
vt 0.0398291015625 0.99724765625
vt 0.0398291015625 0.9924474609375
vt 0.38371656389342207 0.831459375
vt 0.38371656389342207 0.8362595703125
vt 0.35446324358092207 0.861328125
vt 0.35446324358092207 0.822224609375
vt 0.3760097365253721 0.769490234375
vt 0.3467564269252128 0.7787249966182999
vt 0.3466465134746279 0.7718446559588853
vt 0.37594184111864437 0.7601102468360967
vt 0.138671875 0.8267090119672944
vt 0.138671875 0.865234375
vt 0.134765625 0.8634434596845327
vt 0.134765625 0.824918219663639
vt 0.06152333984375 0.831191015625
vt 0.05936044921875 0.831191015625
vt 0.06152333984375 0.8220263671875
vt 0.0419921875 0.9924474609375
vt 0.0398291015625 0.9924474609375
vt 0.0419921875 0.985915234375
vt 0.38371656389342207 0.831459375
vt 0.3544631847980082 0.822224590818254
vt 0.35454253760554966 0.8128085140486446
vt 0.3838180652019918 0.8246055071905433
vt 0.0441552734375 0.9924474609375
vt 0.0419921875 0.9924474609375
vt 0.0419921875 0.985915234375
vt 0.06368642578125 0.831191015625
vt 0.06152333984375 0.831191015625
vt 0.06152333984375 0.8220263671875
vt 0.333984375 0.99609375
vt 0.3725095863257274 0.99609375
vt 0.3743004920377204 1
vt 0.33577528071199303 1
vt 0.0441552734375 0.9924474609375
vt 0.0441552734375 0.99724765625
vt 0.0419921875 1
vt 0.0419921875 0.9924474609375
vt 0.06368642578125 0.831191015625
vt 0.06368642578125 0.87029453125
vt 0.06152333984375 0.873046875
vt 0.06152333984375 0.831191015625
vn 1 0 0
vn 0.0000010682516672742486 0 0.9999999999994295
vn -1 0 0
vn 0 0 -1
vn -0.09874728601303862 -0.31280384894685276 0.9446706969040024
vn -0.46795604379294853 0.5460740396025574 -0.6948527069457215
vn 1 0 0
vn -1 0 0
vn -0.07232633208027678 -0.22910729768520197 -0.970710434596846
vn -1 0 0
vn 1 0 0
vn -0.4679521997630193 0.5460704200675645 0.6948581402446006
vn -1 0 0
vn 1 0 0
usemtl missile_texture
f 199/757/207 200/758/207 201/759/207 202/760/207
f 202/761/208 201/762/208 203/763/208 204/764/208
f 205/765/209 206/766/209 207/767/209 208/768/209
f 208/769/210 207/770/210 209/771/210 210/772/210
f 202/773/211 204/774/211 211/775/211 212/776/211
f 206/777/212 200/778/212 209/779/212 207/780/212
f 199/781/213 202/782/213 212/783/213
f 205/784/214 208/785/214 211/786/214
f 208/787/215 210/788/215 212/789/215 211/790/215
f 204/791/216 205/792/216 211/793/216
f 210/794/217 199/795/217 212/796/217
f 203/797/218 201/798/218 200/799/218 206/800/218
f 204/801/219 203/802/219 206/803/219 205/804/219
f 210/805/220 209/806/220 200/807/220 199/808/220
o Cube.005
v -0.921006 10.374341 0.344895
v -0.921006 11.713733 0.344895
v -0.881306 11.625659 0.401594
v -0.881306 10.374341 0.401594
v -1.648121 10.823464 0.938524
v -1.648121 10.669859 0.938524
v -1.687822 10.669859 0.881825
v -1.687822 10.911538 0.881825
v -1.727522 10.823464 0.825127
v -1.727522 10.669859 0.825127
v -0.960707 11.625659 0.288197
v -0.960707 10.374341 0.288197
v -1.687822 10.460826 0.881825
v -0.921006 10.081078 0.344895
vt 0.054897265625 0.934706640625
vt 0.054897265625 0.9765625
vt 0.052734375 0.97381015625
vt 0.052734375 0.934706640625
vt 0.376953125 0.937458984375
vt 0.376953125 0.9765625
vt 0.3476998046875 0.9514939453125
vt 0.3476998046875 0.94669375
vt 0.0138818359375 0.9924474609375
vt 0.0138818359375 1
vt 0.01171875 0.99724765625
vt 0.01171875 0.9924474609375
vt 0.3768516101956738 0.878334375
vt 0.3768516101956738 0.8831345703125
vt 0.3475982898831738 0.908203125
vt 0.3475982898831738 0.869099609375
vt 0.376953125 0.937458984375
vt 0.3476998153998407 0.9466937466182999
vt 0.34758990194925576 0.9398134059588854
vt 0.37688522959327225 0.9280789968360967
vt 0.140625 0.9165527619672944
vt 0.140625 0.955078125
vt 0.13671875 0.9532872096845327
vt 0.13671875 0.914761969663639
vt 0.054897265625 0.934706640625
vt 0.052734375 0.934706640625
vt 0.054897265625 0.9255419921875
vt 0.0138818359375 0.9924474609375
vt 0.01171875 0.9924474609375
vt 0.0138818359375 0.985915234375
vt 0.3768516101956738 0.878334375
vt 0.3475980539790617 0.8690995349041651
vt 0.34767742701542464 0.8596836535960318
vt 0.376953125 0.8714805073904199
vt 0.016044921875 0.9924474609375
vt 0.0138818359375 0.9924474609375
vt 0.0138818359375 0.985915234375
vt 0.0570603515625 0.934706640625
vt 0.054897265625 0.934706640625
vt 0.054897265625 0.9255419921875
vt 0.23472465305600376 0.99609375
vt 0.2732498930771962 0.99609375
vt 0.27504097194399624 1
vt 0.23651573192280373 1
vt 0.016044921875 0.9924474609375
vt 0.016044921875 0.99724765625
vt 0.0138818359375 1
vt 0.0138818359375 0.9924474609375
vt 0.0570603515625 0.934706640625
vt 0.0570603515625 0.97381015625
vt 0.054897265625000004 0.9765625
vt 0.054897265625000004 0.934706640625
vn 0.8191592885539211 0 -0.5735660903294701
vn 0.5735766919559614 0 0.8191518653124439
vn -0.8191545355562022 0 0.5735728784363
vn -0.5735766919559615 0 -0.8191518653124439
vn 0.46094988985703983 -0.31280650956087547 0.8304681129442146
vn -0.781878071203347 0.5460748534386098 -0.3007805449382235
vn 0.8191592885539211 0 -0.5735660903294703
vn -0.8191545355562023 0 0.5735728784363
vn -0.6160231195832074 -0.22910691565668798 -0.7536746893303853
vn -0.8191525005066197 0 0.5735757848041987
vn 0.8191477473876182 0 -0.5735825729132563
vn 0.015220134915679062 0.5460765987001314 0.8375969769795282
vn -0.8191525005066197 0 0.5735757848041988
vn 0.8191477473876183 0 -0.5735825729132563
usemtl missile_texture
f 213/809/221 214/810/221 215/811/221 216/812/221
f 216/813/222 215/814/222 217/815/222 218/816/222
f 219/817/223 220/818/223 221/819/223 222/820/223
f 222/821/224 221/822/224 223/823/224 224/824/224
f 216/825/225 218/826/225 225/827/225 226/828/225
f 220/829/226 214/830/226 223/831/226 221/832/226
f 213/833/227 216/834/227 226/835/227
f 219/836/228 222/837/228 225/838/228
f 222/839/229 224/840/229 226/841/229 225/842/229
f 218/843/230 219/844/230 225/845/230
f 224/846/231 213/847/231 226/848/231
f 217/849/232 215/850/232 214/851/232 220/852/232
f 218/853/233 217/854/233 220/855/233 219/856/233
f 224/857/234 223/858/234 214/859/234 213/860/234
o Cube.006
v 0.921006 10.374341 0.344895
v 0.881306 10.374341 0.401593
v 0.881306 11.625659 0.401593
v 0.921006 11.713733 0.344895
v 1.648121 10.669859 0.938524
v 1.648121 10.823464 0.938524
v 1.687822 10.669859 0.881826
v 1.727522 10.669859 0.825127
v 1.727522 10.823464 0.825127
v 1.687822 10.911538 0.881826
v 0.960707 10.374341 0.288197
v 0.960707 11.625659 0.288197
v 0.921006 10.081078 0.344895
v 1.687822 10.460826 0.881826
vt 0.0036962890624999993 0.958144140625
vt 0.005859375 0.958144140625
vt 0.005859375 0.99724765625
vt 0.0036962890624999993 1
vt 0.328125 0.960896484375
vt 0.3573783203125 0.97013125
vt 0.3573783203125 0.9749314453125
vt 0.328125 1
vt 0.0740087890625 0.9397130859375
vt 0.076171875 0.9397130859375
vt 0.076171875 0.94451328125
vt 0.0740087890625 0.947265625
vt 0.37706207813964565 0.809975
vt 0.4063153984521456 0.800740234375
vt 0.4063153984521456 0.83984375
vt 0.37706207813964565 0.8147751953125
vt 0.328125 0.960896484375
vt 0.3282039181338315 0.9514804935219586
vt 0.35748622943609276 0.9632758012300529
vt 0.35737285210267106 0.9701295237810403
vt 0.28304091531546727 0.787109375
vt 0.28125 0.783203125
vt 0.3197753630327056 0.783203125
vt 0.321566155336361 0.787109375
vt 0.0036962890624999993 0.958144140625
vt 0.0036962890624999993 0.9489794921875
vt 0.005859375 0.958144140625
vt 0.0740087890625 0.9397130859375
vt 0.0740087890625 0.933180859375
vt 0.076171875 0.9397130859375
vt 0.37706207813964565 0.809975
vt 0.376953125 0.8030946423922629
vt 0.40626117348275487 0.7913632005384079
vt 0.4063050753952433 0.8007434931849404
vt 0.07184570312500001 0.9397130859375
vt 0.0740087890625 0.933180859375
vt 0.0740087890625 0.9397130859375
vt 0.0015332031249999985 0.958144140625
vt 0.0036962890624999993 0.9489794921875
vt 0.0036962890624999993 0.958144140625
vt 0.134765625 0.865933844663639
vt 0.138671875 0.8677246369672944
vt 0.138671875 0.90625
vt 0.134765625 0.9044590846845327
vt 0.07184570312500001 0.9397130859375
vt 0.0740087890625 0.9397130859375
vt 0.0740087890625 0.947265625
vt 0.07184570312500001 0.94451328125
vt 0.0015332031249999985 0.958144140625
vt 0.0036962890624999993 0.958144140625
vt 0.0036962890624999993 1
vt 0.0015332031249999985 0.99724765625
vn -0.8191545355562033 0 -0.5735728784362986
vn -0.5735774087630225 0 0.8191513633979355
vn 0.81915928855392 0 0.5735660903294717
vn 0.5735766919559615 0 -0.819151865312444
vn -0.47982865161469423 -0.22871584149656005 0.8470262858602117
vn 0.7818786602961618 0.5460720026392244 -0.30078418925712513
vn -0.8191545355562033 0 -0.5735728784362985
vn 0.8191592885539201 0 0.5735660903294716
vn 0.6437456492786431 -0.3118150953658312 -0.6988296540193581
vn 0.8191477473876182 0 0.5735825729132562
vn -0.8191477473876182 0 -0.5735825729132563
vn -0.015227549947165969 0.5460723149444378 0.8375996350129513
vn 0.8191477473876182 0 0.5735825729132562
vn -0.8191477473876183 0 -0.5735825729132562
usemtl missile_texture
f 227/861/235 228/862/235 229/863/235 230/864/235
f 228/865/236 231/866/236 232/867/236 229/868/236
f 233/869/237 234/870/237 235/871/237 236/872/237
f 234/873/238 237/874/238 238/875/238 235/876/238
f 228/877/239 239/878/239 240/879/239 231/880/239
f 236/881/240 235/882/240 238/883/240 230/884/240
f 227/885/241 239/886/241 228/887/241
f 233/888/242 240/889/242 234/890/242
f 234/891/243 240/892/243 239/893/243 237/894/243
f 231/895/244 240/896/244 233/897/244
f 237/898/245 239/899/245 227/900/245
f 232/901/246 236/902/246 230/903/246 229/904/246
f 231/905/247 233/906/247 236/907/247 232/908/247
f 237/909/248 227/910/248 230/911/248 238/912/248