# Made in Blockbench 5.1.3
mtllib incendiary_missile.mtl

o Fins
v 0.324253 2.018301 0.044216
v 0.348960 0.284536 0.044216
v 0.948050 0.000000 0.044216
v 0.972758 1.045543 0.044216
v 0.324253 2.018301 -0.044216
v 0.348960 0.284536 -0.044216
v 0.948050 0.000000 -0.044216
v 0.972758 1.045543 -0.044216
vt 0.597194921875 0.9140625
vt 0.4670771875 1
vt 0.328586328125 0.994751796875
vt 0.3674192578125 0.9140625
vt 0.3290478125 0.45772433593749995
vt 0.4078915234375 0.41889140625
vt 0.4131396875 0.557382265625
vt 0.3290478125 0.6875
vt 0.67578125 0.34765625
vt 0.6640625 0.34765625
vt 0.6640625 0.19273007812499998
vt 0.67578125 0.19273007812499998
vt 0.67578125 0.19273007812499998
vt 0.6640625 0.19273007812499998
vt 0.6640625 0.05413984375000003
vt 0.67578125 0.05413984375000003
vt 0.484375 0.5546875
vt 0.49609375 0.5546875
vt 0.49609375 0.640625
vt 0.484375 0.640625
vt 0.046875 0.1015625
vt 0.05859375 0.1015625
vt 0.05859375 0.33203125
vt 0.046875 0.33203125
usemtl missile_texture
vn 0.000000 0.000000 1.000000
vn 0.000000 0.000000 -1.000000
vn 0.955408 0.295289 0.000000
vn 0.832050 0.554700 0.000000
vn 0.999721 -0.023625 0.000000
vn -0.429018 -0.903296 0.000000
vn -0.999898 -0.014249 0.000000
vn -0.999721 -0.023625 0.000000
vn -0.955408 0.295289 0.000000
vn 0.429018 -0.903296 0.000000
vn 0.999898 -0.014249 0.000000
vn -0.832050 0.554700 0.000000
vn 1.000000 0.000000 0.000000
vn -1.000000 0.000000 -0.000000
vn 0.000000 0.295289 0.955408
vn 0.000000 0.554700 0.832050
vn 0.000000 -0.023625 0.999721
vn 0.000000 -0.903296 -0.429018
vn 0.000000 -0.014249 -0.999898
vn 0.000000 0.295289 -0.955408
vn 0.000000 0.554700 -0.832050
vn 0.000000 -0.023625 -0.999721
vn 0.000000 -0.903296 0.429018
vn 0.000000 -0.014249 0.999898
vn 0.923881 0.000000 0.382681
vn 0.707107 0.000000 0.707107
vn 0.382681 0.000000 0.923881
vn -0.382681 0.000000 0.923881
vn -0.707107 0.000000 0.707107
vn -0.923881 0.000000 0.382681
vn -0.923881 0.000000 -0.382681
vn -0.707107 0.000000 -0.707107
vn -0.382681 0.000000 -0.923881
vn 0.382681 0.000000 -0.923881
vn 0.707107 0.000000 -0.707107
vn 0.923881 0.000000 -0.382681
vn 0.373779 0.214536 -0.902366
vn 0.690643 0.214535 -0.690643
vn 0.698335 0.157025 -0.698335
vn 0.377942 0.157025 -0.912416
vn 0.998702 0.050927 0.000000
vn 0.922678 0.050928 0.382192
vn 0.923577 0.025539 0.382561
vn 0.999674 0.025536 -0.000000
vn 0.706189 0.050930 0.706189
vn 0.706876 0.025542 0.706876
vn 0.382192 0.050928 0.922678
vn 0.382561 0.025539 0.923577
vn 0.000000 0.050927 0.998702
vn 0.000000 0.025536 0.999674
vn -0.382192 0.050928 0.922678
vn -0.382561 0.025539 0.923577
vn -0.706189 0.050930 0.706189
vn -0.706876 0.025542 0.706876
vn -0.922678 0.050928 0.382192
vn -0.923577 0.025539 0.382561
vn -0.998702 0.050927 -0.000000
vn -0.999674 0.025536 0.000000
vn -0.922678 0.050928 -0.382192
vn -0.923577 0.025539 -0.382561
vn -0.706189 0.050930 -0.706189
vn -0.706876 0.025542 -0.706876
vn -0.382192 0.050928 -0.922678
vn -0.382561 0.025539 -0.923577
vn 0.000000 0.050927 -0.998702
vn 0.000000 0.025536 -0.999674
vn 0.382192 0.050928 -0.922678
vn 0.382561 0.025539 -0.923577
vn 0.706189 0.050930 -0.706189
vn 0.706876 0.025542 -0.706876
vn 0.922678 0.050928 -0.382192
vn 0.923577 0.025539 -0.382561
vn 0.994692 0.102896 0.000000
vn 0.918973 0.102895 0.380659
vn 0.703354 0.102894 0.703354
vn 0.380659 0.102895 0.918973
vn 0.000000 0.102896 0.994692
vn -0.380659 0.102895 0.918973
vn -0.703354 0.102894 0.703354
vn -0.918973 0.102895 0.380659
vn -0.994692 0.102896 -0.000000
vn -0.918973 0.102895 -0.380659
vn -0.703354 0.102894 -0.703354
vn -0.380659 0.102895 -0.918973
vn 0.000000 0.102896 -0.994692
vn 0.380659 0.102895 -0.918973
vn 0.703354 0.102894 -0.703354
vn 0.918973 0.102895 -0.380659
vn 0.987595 0.157026 0.000000
vn 0.912416 0.157025 0.377942
vn 0.698335 0.157025 0.698335
vn 0.377942 0.157025 0.912416
vn 0.000000 0.157026 0.987595
vn -0.377942 0.157025 0.912416
vn -0.698335 0.157025 0.698335
vn -0.912416 0.157025 0.377942
vn -0.987595 0.157026 0.000000
vn -0.912416 0.157025 -0.377942
vn -0.698335 0.157025 -0.698335
vn -0.377942 0.157025 -0.912416
vn 0.000000 0.157026 -0.987595
vn 0.912416 0.157025 -0.377942
vn 0.976716 0.214536 0.000000
vn 0.902366 0.214536 0.373779
vn 0.690643 0.214535 0.690643
vn 0.373779 0.214536 0.902366
vn 0.000000 0.214536 0.976716
vn -0.373779 0.214536 0.902366
vn -0.690643 0.214535 0.690643
vn -0.902366 0.214536 0.373779
vn -0.976716 0.214536 0.000000
vn -0.902366 0.214536 -0.373779
vn -0.690643 0.214535 -0.690643
vn -0.373779 0.214536 -0.902366
vn 0.000000 0.214536 -0.976716
vn 0.902366 0.214536 -0.373779
vn 0.961041 0.276405 0.000000
vn 0.887886 0.276403 0.367777
vn 0.679560 0.276401 0.679560
vn 0.367777 0.276403 0.887886
vn 0.000000 0.276405 0.961041
vn -0.367777 0.276403 0.887886
vn -0.679560 0.276401 0.679560
vn -0.887886 0.276403 0.367777
vn -0.961041 0.276405 0.000000
vn -0.887886 0.276403 -0.367777
vn -0.679560 0.276401 -0.679560
vn -0.367777 0.276403 -0.887886
vn 0.000000 0.276405 -0.961041
vn 0.367777 0.276403 -0.887886
vn 0.679560 0.276401 -0.679560
vn 0.887886 0.276403 -0.367777
vn 0.940764 0.339062 0.000000
vn 0.869155 0.339060 0.360012
vn 0.665221 0.339061 0.665221
vn 0.360012 0.339060 0.869155
vn 0.000000 0.339062 0.940764
vn -0.360012 0.339060 0.869155
vn -0.665221 0.339061 0.665221
vn -0.869155 0.339060 0.360012
vn -0.940764 0.339062 0.000000
vn -0.869155 0.339060 -0.360012
vn -0.665221 0.339061 -0.665221
vn -0.360012 0.339060 -0.869155
vn 0.000000 0.339062 -0.940764
vn 0.360012 0.339060 -0.869155
vn 0.665221 0.339061 -0.665221
vn 0.869155 0.339060 -0.360012
vn 0.877948 0.445767 0.174638
vn 0.744291 0.445768 0.497315
vn 0.497315 0.445768 0.744291
vn 0.174638 0.445767 0.877948
vn -0.174638 0.445767 0.877948
vn -0.497315 0.445768 0.744291
vn -0.744291 0.445768 0.497315
vn -0.877948 0.445767 0.174638
vn -0.877948 0.445767 -0.174638
vn -0.744291 0.445768 -0.497315
vn -0.497315 0.445768 -0.744291
vn -0.174638 0.445767 -0.877948
vn 0.174638 0.445767 -0.877948
vn 0.497315 0.445768 -0.744291
vn 0.744291 0.445768 -0.497315
vn 0.877948 0.445767 -0.174638
vn 0.000000 -1.000000 0.000000
f 2/4/1 3/3/1 4/2/1 1/1/1
f 5/8/2 8/7/2 7/6/2 6/5/2
f 4/12/3 8/11/3 5/10/4 1/9/4
f 3/16/5 7/15/5 8/14/3 4/13/3
f 2/20/6 6/19/6 7/18/6 3/17/6
f 1/24/7 5/23/7 6/22/7 2/21/7
v -0.324253 2.018301 0.044216
v -0.348960 0.284536 0.044216
v -0.948050 0.000000 0.044216
v -0.972758 1.045543 0.044216
v -0.324253 2.018301 -0.044216
v -0.348960 0.284536 -0.044216
v -0.948050 0.000000 -0.044216
v -0.972758 1.045543 -0.044216
vt 0.4977352734375 0.37201640625
vt 0.5029834375 0.510507265625
vt 0.4188915625 0.640625
vt 0.4188915625 0.41084933593749995
vt 0.4670771875 0.91015625
vt 0.328586328125 0.904908046875
vt 0.3674192578125 0.82421875
vt 0.597194921875 0.82421875
vt 0.01171875 0.03851484375000003
vt 0.01171875 0.17710507812499998
vt 0 0.17710507812499998
vt 0 0.03851484375000003
vt 0.6015625 0.76171875
vt 0.6015625 0.67578125
vt 0.61328125 0.67578125
vt 0.61328125 0.76171875
vt 0.0625 0.33203125
vt 0.0625 0.1015625
vt 0.07421875 0.1015625
vt 0.07421875 0.33203125
vt 0.01171875 0.17710507812499998
vt 0.01171875 0.33203125
vt 0 0.33203125
vt 0 0.17710507812499998
usemtl missile_texture
f 10/28/1 9/27/1 12/26/1 11/25/1
f 13/32/2 14/31/2 15/30/2 16/29/2
f 11/36/8 12/35/9 16/34/9 15/33/8
f 10/40/10 11/39/10 15/38/10 14/37/10
f 9/44/11 10/43/11 14/42/11 13/41/11
f 12/48/9 9/47/12 13/46/12 16/45/9
v -0.014739 2.018301 0.324253
v -0.014739 0.284536 0.348960
v -0.014739 0.000000 0.948050
v -0.014739 1.045543 0.972758
v -0.103171 2.018301 0.324253
v -0.103171 0.284536 0.348960
v -0.103171 0.000000 0.948050
v -0.103171 1.045543 0.972758
vt 0.5875790234375 0.37201640625
vt 0.5928271875 0.510507265625
vt 0.5087353125 0.640625
vt 0.5087353125 0.41084933593749995
vt 0.4670771875 0.8203125
vt 0.328586328125 0.815064296875
vt 0.3674192578125 0.734375
vt 0.597194921875 0.734375
vt 0.02734375 0.17710507812499998
vt 0.02734375 0.33203125
vt 0.015625 0.33203125
vt 0.015625 0.17710507812499998
vt 0.02734375 0.03851484375000003
vt 0.02734375 0.17710507812499998
vt 0.015625 0.17710507812499998
vt 0.015625 0.03851484375000003
vt 0.6171875 0.76171875
vt 0.6171875 0.67578125
vt 0.62890625 0.67578125
vt 0.62890625 0.76171875
vt 0.078125 0.33203125
vt 0.078125 0.1015625
vt 0.08984375 0.1015625
vt 0.08984375 0.33203125
usemtl missile_texture
f 18/52/13 17/51/13 20/50/13 19/49/13
f 21/56/14 22/55/14 23/54/14 24/53/14
f 20/60/15 17/59/16 21/58/16 24/57/15
f 19/64/17 20/63/15 24/62/15 23/61/17
f 18/68/18 19/67/18 23/66/18 22/65/18
f 17/72/19 18/71/19 22/70/19 21/69/19
v -0.014739 2.018301 -0.324253
v -0.014739 0.284536 -0.348960
v -0.014739 0.000000 -0.948050
v -0.014739 1.045543 -0.972758
v -0.103171 2.018301 -0.324253
v -0.103171 0.284536 -0.348960
v -0.103171 0.000000 -0.948050
v -0.103171 1.045543 -0.972758
vt 0.597194921875 0.64453125
vt 0.4670771875 0.73046875
vt 0.328586328125 0.7252205468749999
vt 0.3674192578125 0.64453125
vt 0.3290478125 0.21944308593749995
vt 0.4078915234375 0.18061015625
vt 0.4131396875 0.31910101562500004
vt 0.3290478125 0.44921875
vt 0.04296875 0.33203125
vt 0.03125 0.33203125
vt 0.03125 0.17710507812499998
vt 0.04296875 0.17710507812499998
vt 0.04296875 0.17710507812499998
vt 0.03125 0.17710507812499998
vt 0.03125 0.03851484375000003
vt 0.04296875 0.03851484375000003
vt 0.62109375 0.45703125
vt 0.6328125 0.45703125
vt 0.6328125 0.54296875
vt 0.62109375 0.54296875
vt 0.09375 0.1015625
vt 0.10546875 0.1015625
vt 0.10546875 0.33203125
vt 0.09375 0.33203125
usemtl missile_texture
f 26/76/13 27/75/13 28/74/13 25/73/13
f 29/80/14 32/79/14 31/78/14 30/77/14
f 28/84/20 32/83/20 29/82/21 25/81/21
f 27/88/22 31/87/22 32/86/20 28/85/20
f 26/92/23 30/91/23 31/90/23 27/89/23
f 25/96/24 29/95/24 30/94/24 26/93/24
o Body
v 0.135367 5.290305 0.326805
v 0.353730 0.279128 0.000000
v 0.326805 0.279128 0.135367
v 0.250126 0.279128 0.250126
v 0.135367 0.279128 0.326805
v 0.000000 0.279128 0.353730
v -0.135367 0.279128 0.326805
v -0.250126 0.279128 0.250126
v -0.326805 0.279128 0.135367
v -0.353730 0.279128 0.000000
v -0.326805 0.279128 -0.135367
v -0.250126 0.279128 -0.250126
v -0.135367 0.279128 -0.326805
v 0.000000 0.279128 -0.353730
v 0.135367 0.279128 -0.326805
v 0.250126 0.279128 -0.250126
v 0.326805 0.279128 -0.135367
v 0.353730 5.290305 0.000000
v 0.326805 5.290305 0.135367
v 0.250126 5.290305 0.250126
v 0.000000 5.290305 0.353730
v -0.135367 5.290305 0.326805
v -0.250126 5.290305 0.250126
v -0.326805 5.290305 0.135367
v -0.353730 5.290305 0.000000
v -0.326805 5.290305 -0.135367
v -0.250126 5.290305 -0.250126
v -0.135367 5.290305 -0.326805
v 0.000000 5.290305 -0.353730
v 0.135367 5.290305 -0.326805
v 0.250126 5.290305 -0.250126
v 0.326805 5.290305 -0.135367
vt 0.0376390625 0.3359375
vt 0.05592890625 0.3359375
vt 0.05592890625 1
vt 0.0376390625 1
vt 0.05592890625 0.3359375
vt 0.07421875 0.3359375
vt 0.07421875 1
vt 0.05592890625 1
vt 0.1587328125 0.3359375
vt 0.17702265625 0.3359375
vt 0.17702265625 1
vt 0.1587328125 1
vt 0.17702265625 0.3359375
vt 0.1953125 0.3359375
vt 0.1953125 1
vt 0.17702265625 1
vt 0.19921875 0.3359375
vt 0.21750859375 0.3359375
vt 0.21750859375 1
vt 0.19921875 1
vt 0.21750859375 0.3359375
vt 0.2357984375 0.3359375
vt 0.2357984375 1
vt 0.21750859375 1
vt 0.078125 0.3359375
vt 0.09641484375 0.3359375
vt 0.09641484375 1
vt 0.078125 1
vt 0.09641484375 0.3359375
vt 0.1147046875 0.3359375
vt 0.1147046875 1
vt 0.09641484375 1
vt 0.1147046875 0.3359375
vt 0.13299453125 0.3359375
vt 0.13299453125 1
vt 0.1147046875 1
vt 0.13299453125 0.3359375
vt 0.151284375 0.3359375
vt 0.151284375 1
vt 0.13299453125 1
vt 0.2446703125 0.3359375
vt 0.26296015625 0.3359375
vt 0.26296015625 1
vt 0.2446703125 1
vt 0.26296015625 0.3359375
vt 0.28125 0.3359375
vt 0.28125 1
vt 0.26296015625 1
vt 0.28515625 0.3359375
vt 0.30344609375 0.3359375
vt 0.30344609375 1
vt 0.28515625 1
vt 0.30344609375 0.3359375
vt 0.3217359375 0.3359375
vt 0.3217359375 1
vt 0.30344609375 1
vt 0.001059375 0.3359375
vt 0.01934921875 0.3359375
vt 0.01934921875 1
vt 0.001059375 1
vt 0.01934921875 0.3359375
vt 0.0376390625 0.3359375
vt 0.0376390625 1
vt 0.01934921875 1
usemtl missile_texture
f 50/100/13 51/99/25 35/98/25 34/97/13
f 51/104/25 52/103/26 36/102/26 35/101/25
f 52/108/26 33/107/27 37/106/27 36/105/26
f 33/112/27 53/111/1 38/110/1 37/109/27
f 53/116/1 54/115/28 39/114/28 38/113/1
f 54/120/28 55/119/29 40/118/29 39/117/28
f 55/124/29 56/123/30 41/122/30 40/121/29
f 56/128/30 57/127/14 42/126/14 41/125/30
f 57/132/14 58/131/31 43/130/31 42/129/14
f 58/136/31 59/135/32 44/134/32 43/133/31
f 59/140/32 60/139/33 45/138/33 44/137/32
f 60/144/33 61/143/2 46/142/2 45/141/33
f 61/148/2 62/147/34 47/146/34 46/145/2
f 62/152/34 63/151/35 48/150/35 47/149/34
f 63/156/35 64/155/36 49/154/36 48/153/35
f 64/160/36 50/159/13 34/158/13 49/157/36
o Nose Cone
v 0.353730 5.290305 0.000000
v 0.326805 5.290305 0.135367
v 0.250126 5.290305 0.250126
v 0.135367 5.290305 0.326805
v 0.000000 5.290305 0.353730
v -0.135367 5.290305 0.326805
v -0.250126 5.290305 0.250126
v -0.326805 5.290305 0.135367
v -0.353730 5.290305 0.000000
v -0.326805 5.290305 -0.135367
v -0.250126 5.290305 -0.250126
v -0.135367 5.290305 -0.326805
v 0.000000 5.290305 -0.353730
v 0.135367 5.290305 -0.326805
v 0.250126 5.290305 -0.250126
v 0.326805 5.290305 -0.135367
v 0.347493 5.534546 0.000000
v 0.321040 5.534546 0.132979
v 0.245713 5.534546 0.245713
v 0.132979 5.534546 0.321040
v 0.000000 5.534546 0.347493
v -0.132979 5.534546 0.321040
v -0.245713 5.534546 0.245713
v -0.321040 5.534546 0.132979
v -0.347493 5.534546 0.000000
v -0.321040 5.534546 -0.132979
v -0.245713 5.534546 -0.245713
v -0.132979 5.534546 -0.321040
v 0.000000 5.534546 -0.347493
v 0.132979 5.534546 -0.321040
v 0.245713 5.534546 -0.245713
v 0.321040 5.534546 -0.132979
v 0.328592 5.778787 0.000000
v 0.303577 5.778787 0.125745
v 0.232348 5.778787 0.232348
v 0.125745 5.778787 0.303577
v 0.000000 5.778787 0.328592
v -0.125745 5.778787 0.303577
v -0.232348 5.778787 0.232348
v -0.303577 5.778787 0.125745
v -0.328592 5.778787 0.000000
v -0.303577 5.778787 -0.125745
v -0.232348 5.778787 -0.232348
v -0.125745 5.778787 -0.303577
v 0.000000 5.778787 -0.328592
v 0.125745 5.778787 -0.303577
v 0.232348 5.778787 -0.232348
v 0.303577 5.778787 -0.125745
v 0.296441 6.023029 0.000000
v 0.273876 6.023029 0.113444
v 0.209615 6.023029 0.209615
v 0.113444 6.023029 0.273876
v 0.000000 6.023029 0.296441
v -0.113444 6.023029 0.273876
v -0.209615 6.023029 0.209615
v -0.273876 6.023029 0.113444
v -0.296441 6.023029 0.000000
v -0.273876 6.023029 -0.113444
v -0.209615 6.023029 -0.209615
v -0.113444 6.023029 -0.273876
v 0.000000 6.023029 -0.296441
v 0.113444 6.023029 -0.273876
v 0.209615 6.023029 -0.209615
v 0.273876 6.023029 -0.113444
v 0.249960 6.267276 0.000000
v 0.230933 6.267276 0.095655
v 0.176747 6.267276 0.176747
v 0.095655 6.267276 0.230933
v 0.000000 6.267276 0.249960
v -0.095655 6.267276 0.230933
v -0.176747 6.267276 0.176747
v -0.230933 6.267276 0.095655
v -0.249960 6.267276 0.000000
v -0.230933 6.267276 -0.095655
v -0.176747 6.267276 -0.176747
v -0.095655 6.267276 -0.230933
v 0.000000 6.267276 -0.249960
v 0.095655 6.267276 -0.230933
v 0.176747 6.267276 -0.176747
v 0.230933 6.267276 -0.095655
v 0.187356 6.511517 0.000000
v 0.173095 6.511517 0.071698
v 0.132481 6.511517 0.132481
v 0.071698 6.511517 0.173095
v 0.000000 6.511517 0.187356
v -0.071698 6.511517 0.173095
v -0.132481 6.511517 0.132481
v -0.173095 6.511517 0.071698
v -0.187356 6.511517 0.000000
v -0.173095 6.511517 -0.071698
v -0.132481 6.511517 -0.132481
v -0.071698 6.511517 -0.173095
v 0.000000 6.511517 -0.187356
v 0.071698 6.511517 -0.173095
v 0.132481 6.511517 -0.132481
v 0.173095 6.511517 -0.071698
v 0.105706 6.755759 0.000000
v 0.097659 6.755759 0.040452
v 0.074746 6.755759 0.074746
v 0.040452 6.755759 0.097659
v 0.000000 6.755759 0.105706
v -0.040452 6.755759 0.097659
v -0.074746 6.755759 0.074746
v -0.097659 6.755759 0.040452
v -0.105706 6.755759 0.000000
v -0.097659 6.755759 -0.040452
v -0.074746 6.755759 -0.074746
v -0.040452 6.755759 -0.097659
v 0.000000 6.755759 -0.105706
v 0.040452 6.755759 -0.097659
v 0.074746 6.755759 -0.074746
v 0.097659 6.755759 -0.040452
v 0.000000 7.000000 0.000000
vt 0.544152734375 0.24981328125000002
vt 0.559439296875 0.2509306640625
vt 0.555840625 0.28368125
vt 0.54295078125 0.2827390625
vt 0.63689625 0.765625
vt 0.65518515625 0.765807265625
vt 0.6547012109375 0.798180234375
vt 0.636734921875 0.798001171875
vt 0.65518515625 0.765807265625
vt 0.6734713671875 0.766171796875
vt 0.67266484375 0.7985383203125
vt 0.6547012109375 0.798180234375
vt 0.4868587109375 0.164244765625
vt 0.50514765625 0.1640625
vt 0.505308984375 0.19643867187499997
vt 0.4873426953125 0.19661773437499996
vt 0.50514765625 0.1640625
vt 0.5234375 0.1640625
vt 0.523276171875 0.19643867187499997
vt 0.505308984375 0.19643867187499997
vt 0.640625 0.3203125
vt 0.65891484375 0.3203125
vt 0.658753515625 0.35268867187499997
vt 0.640786328125 0.35268867187499997
vt 0.56640625 0.22710929687500003
vt 0.5846924609375 0.226744765625
vt 0.5851764453125 0.25911773437499996
vt 0.5672128125 0.25947582031250005
vt 0.5846924609375 0.226744765625
vt 0.60298140625 0.2265625
vt 0.603142734375 0.25893867187499997
vt 0.5851764453125 0.25911773437499996
vt 0.60298140625 0.2265625
vt 0.62127125 0.2265625
vt 0.621109921875 0.25893867187499997
vt 0.603142734375 0.25893867187499997
vt 0.62127125 0.2265625
vt 0.63956015625 0.226744765625
vt 0.6390762109375 0.25911773437499996
vt 0.621109921875 0.25893867187499997
vt 0.63956015625 0.226744765625
vt 0.6578463671875 0.22710929687500003
vt 0.65703984375 0.25947582031250005
vt 0.6390762109375 0.25911773437499996
vt 0.4165462109375 0.156432265625
vt 0.43483515625 0.15625
vt 0.434996484375 0.18862617187499997
vt 0.4170301953125 0.18880523437499996
vt 0.43483515625 0.15625
vt 0.453125 0.15625
vt 0.452963671875 0.18862617187499997
vt 0.434996484375 0.18862617187499997
vt 0.52734375 0.15234375
vt 0.54563359375 0.15234375
vt 0.545472265625 0.18471992187499997
vt 0.527505078125 0.18471992187499997
vt 0.58203125 0.766171796875
vt 0.6003174609375 0.765807265625
vt 0.6008014453125 0.798180234375
vt 0.5828378125 0.7985383203125
vt 0.6003174609375 0.765807265625
vt 0.61860640625 0.765625
vt 0.618767734375 0.798001171875
vt 0.6008014453125 0.798180234375
vt 0.61860640625 0.765625
vt 0.63689625 0.765625
vt 0.636734921875 0.798001171875
vt 0.618767734375 0.798001171875
vt 0.636734921875 0.798001171875
vt 0.6546939453125 0.79854203125
vt 0.6532283984375 0.8309716015624999
vt 0.63624625 0.83046015625
vt 0.4585953125 0.17578125
vt 0.4765625 0.17578125
vt 0.476073828125 0.20824023437500006
vt 0.459083984375 0.20824023437500006
vt 0.487349921875 0.19697953125
vt 0.505308984375 0.19643867187499997
vt 0.50579765625 0.22889804687500004
vt 0.4888155078125 0.22940949218749995
vt 0.505308984375 0.19643867187499997
vt 0.523276171875 0.19643867187499997
vt 0.5227875 0.22889765625000003
vt 0.50579765625 0.22889765625000003
vt 0.640786328125 0.35268867187499997
vt 0.658753515625 0.35268867187499997
vt 0.65826484375 0.38514765625
vt 0.641275 0.38514765625
vt 0.658753515625 0.35268867187499997
vt 0.676712578125 0.35322953125
vt 0.6752469921875 0.38565910156250005
vt 0.65826484375 0.38514765625
vt 0.585183671875 0.25947953125
vt 0.603142734375 0.25893867187499997
vt 0.60363140625 0.29139804687500004
vt 0.5866492578125 0.29190949218749995
vt 0.603142734375 0.25893867187499997
vt 0.621109921875 0.25893867187499997
vt 0.62062125 0.29139765625
vt 0.60363140625 0.29139765625
vt 0.621109921875 0.25893867187499997
vt 0.6390689453125 0.25947953125
vt 0.6376033984375 0.29190910156250005
vt 0.62062125 0.29139765625
vt 0.6617203125 0.55859375
vt 0.6796875 0.55859375
vt 0.679198828125 0.591052734375
vt 0.662208984375 0.591052734375
vt 0.417037421875 0.18916703125
vt 0.434996484375 0.18862617187499997
vt 0.43548515625 0.22108554687500004
vt 0.4185030078125 0.22159699218749995
vt 0.434996484375 0.18862617187499997
vt 0.452963671875 0.18862617187499997
vt 0.452475 0.22108515625000003
vt 0.43548515625 0.22108515625000003
vt 0.527505078125 0.18471992187499997
vt 0.545472265625 0.18471992187499997
vt 0.54498359375 0.21717890625000003
vt 0.52799375 0.21717890625000003
vt 0.545472265625 0.18471992187499997
vt 0.563431328125 0.18526078125
vt 0.5619657421875 0.21769035156250005
vt 0.54498359375 0.21717890625000003
vt 0.600808671875 0.79854203125
vt 0.618767734375 0.798001171875
vt 0.61925640625 0.830460546875
vt 0.6022742578125 0.8309719921875001
vt 0.618767734375 0.798001171875
vt 0.636734921875 0.798001171875
vt 0.63624625 0.83046015625
vt 0.61925640625 0.83046015625
vt 0.63624625 0.83046015625
vt 0.6532140625 0.8313251171875
vt 0.6507228515625 0.8638748828125
vt 0.635415 0.86309453125
vt 0.459083984375 0.20824023437500006
vt 0.476073828125 0.20824023437500006
vt 0.475242578125 0.24087460937500005
vt 0.459915234375 0.24087460937500005
vt 0.48882984375 0.22976242187499996
vt 0.50579765625 0.22889765625000003
vt 0.506628515625 0.26153203125
vt 0.491321015625 0.26231218749999996
vt 0.50579765625 0.22889765625000003
vt 0.5227875 0.22889765625000003
vt 0.52195625 0.26153242187500003
vt 0.506628515625 0.26153242187500003
vt 0.641275 0.38514765625
vt 0.65826484375 0.38514765625
vt 0.657433984375 0.41778203125
vt 0.64210625 0.41778203125
vt 0.65826484375 0.38514765625
vt 0.67523265625 0.38601242187499996
vt 0.6727414453125 0.41856218749999996
vt 0.657433984375 0.41778203125
vt 0.5866635546875 0.29226242187499996
vt 0.60363140625 0.29139765625
vt 0.604462265625 0.32403203125
vt 0.589154765625 0.32481218749999996
vt 0.60363140625 0.29139765625
vt 0.62062125 0.29139765625
vt 0.61979 0.32403242187500003
vt 0.604462265625 0.32403242187500003
vt 0.62062125 0.29139765625
vt 0.6375890625 0.2922626171875
vt 0.6350978515625 0.3248123828125
vt 0.61979 0.32403203125
vt 0.662208984375 0.591052734375
vt 0.679198828125 0.591052734375
vt 0.678367578125 0.623687109375
vt 0.663040234375 0.623687109375
vt 0.41851734375 0.22194992187499996
vt 0.43548515625 0.22108515625000003
vt 0.436316015625 0.25371953125
vt 0.421008515625 0.25449968749999996
vt 0.43548515625 0.22108515625000003
vt 0.452475 0.22108515625000003
vt 0.45164375 0.25371992187500003
vt 0.436316015625 0.25371992187500003
vt 0.52799375 0.21717890625000003
vt 0.54498359375 0.21717890625000003
vt 0.544152734375 0.24981328125000002
vt 0.528825 0.24981328125000002
vt 0.54498359375 0.21717890625000003
vt 0.56195140625 0.21804367187499996
vt 0.5594601953125 0.25059343749999996
vt 0.544152734375 0.24981328125000002
vt 0.6022885546875 0.8313249218750001
vt 0.61925640625 0.83046015625
vt 0.620087265625 0.86309453125
vt 0.604779765625 0.8638746875
vt 0.61925640625 0.83046015625
vt 0.63624625 0.83046015625
vt 0.635415 0.863094921875
vt 0.620087265625 0.863094921875
vt 0.635415 0.863094921875
vt 0.650701953125 0.8642121484375
vt 0.64710328125 0.896962734375
vt 0.6342134375 0.896020703125
vt 0.459915234375 0.24087460937500005
vt 0.475242578125 0.24087460937500005
vt 0.474041015625 0.27380039062499995
vt 0.461116796875 0.27380039062499995
vt 0.491341953125 0.2626498046875
vt 0.506628515625 0.26153242187500003
vt 0.50783046875 0.29445820312500004
vt 0.494940625 0.295400390625
vt 0.506628515625 0.26153242187500003
vt 0.52195625 0.26153242187500003
vt 0.5207546875 0.29445820312500004
vt 0.50783046875 0.29445820312500004
vt 0.64210625 0.41778203125
vt 0.657433984375 0.41778203125
vt 0.65623203125 0.4507078125
vt 0.6433078125 0.4507078125
vt 0.657433984375 0.41778203125
vt 0.672720546875 0.4188994140625
vt 0.669121875 0.45165
vt 0.65623203125 0.4507078125
vt 0.589175703125 0.3251498046875
vt 0.604462265625 0.32403242187500003
vt 0.60566421875 0.35695820312500004
vt 0.592774375 0.357900390625
vt 0.604462265625 0.32403242187500003
vt 0.61979 0.32403242187500003
vt 0.6185884375 0.35695820312500004
vt 0.60566421875 0.35695820312500004
vt 0.61979 0.32403242187500003
vt 0.635076953125 0.32514964843750005
vt 0.63147828125 0.35790023437499996
vt 0.6185884375 0.35695820312500004
vt 0.663040234375 0.623687109375
vt 0.678367578125 0.623687109375
vt 0.677166015625 0.656612890625
vt 0.664241796875 0.656612890625
vt 0.421029453125 0.2548373046875
vt 0.436316015625 0.25371992187500003
vt 0.43751796875 0.28664570312500004
vt 0.424628125 0.287587890625
vt 0.436316015625 0.25371992187500003
vt 0.45164375 0.25371992187500003
vt 0.4504421875 0.28664570312500004
vt 0.43751796875 0.28664570312500004
vt 0.528825 0.24981328125000002
vt 0.544152734375 0.24981328125000002
vt 0.54295078125 0.2827390625
vt 0.5300265625 0.2827390625
vt 0.604800703125 0.8642123046875
vt 0.620087265625 0.863094921875
vt 0.62128921875 0.896020703125
vt 0.608399375 0.896962890625
vt 0.620087265625 0.863094921875
vt 0.635415 0.863094921875
vt 0.6342134375 0.896020703125
vt 0.62128921875 0.896020703125
vt 0.6342134375 0.896020703125
vt 0.6470769921875 0.8972715234374999
vt 0.642236328125 0.9303312890625
vt 0.6325946875 0.92939375
vt 0.461116796875 0.27380039062499995
vt 0.474041015625 0.27380039062499995
vt 0.47242265625 0.30717343750000003
vt 0.462735546875 0.30717343750000003
vt 0.4949669140625 0.2957088671875
vt 0.50783046875 0.29445820312500004
vt 0.509448828125 0.32783125
vt 0.4998071875 0.32876871093750004
vt 0.50783046875 0.29445820312500004
vt 0.5207546875 0.29445820312500004
vt 0.5191359375 0.32783125
vt 0.509448828125 0.32783125
vt 0.6433078125 0.4507078125
vt 0.65623203125 0.4507078125
vt 0.654613671875 0.484080859375
vt 0.6449265625 0.484080859375
vt 0.65623203125 0.4507078125
vt 0.6690955859375 0.4519584765625
vt 0.6642553125 0.48501832031250003
vt 0.654613671875 0.484080859375
vt 0.5928006640625 0.3582088671875
vt 0.60566421875 0.35695820312500004
vt 0.607282578125 0.39033125
vt 0.5976409375 0.39126871093750004
vt 0.60566421875 0.35695820312500004
vt 0.6185884375 0.35695820312500004
vt 0.6169696875 0.39033125
vt 0.607282578125 0.39033125
vt 0.6185884375 0.35695820312500004
vt 0.6314519921875 0.35820902343750005
vt 0.626611328125 0.39126878906249996
vt 0.6169696875 0.39033125
vt 0.664241796875 0.656612890625
vt 0.677166015625 0.656612890625
vt 0.67554765625 0.6899859374999999
vt 0.665860546875 0.6899859374999999
vt 0.4246544140625 0.2878963671875
vt 0.43751796875 0.28664570312500004
vt 0.439136328125 0.32001875
vt 0.4294946875 0.32095621093750004
vt 0.43751796875 0.28664570312500004
vt 0.4504421875 0.28664570312500004
vt 0.4488234375 0.32001875
vt 0.439136328125 0.32001875
vt 0.5300265625 0.2827390625
vt 0.54295078125 0.2827390625
vt 0.541332421875 0.316112109375
vt 0.5316453125 0.316112109375
vt 0.54295078125 0.2827390625
vt 0.555840625 0.28368125
vt 0.5517936328125 0.31684749999999995
vt 0.5421323046875 0.31614128906250005
vt 0.6084256640625 0.8972713671875
vt 0.62128921875 0.896020703125
vt 0.622907578125 0.92939375
vt 0.6132659375 0.9303312109375
vt 0.62128921875 0.896020703125
vt 0.6342134375 0.896020703125
vt 0.6325946875 0.92939375
vt 0.622907578125 0.92939375
vt 0.6325946875 0.92939375
vt 0.6422076953125 0.9305896484375
vt 0.6359079296875 0.9641298046875
vt 0.630484140625 0.963455078125
vt 0.462735546875 0.30717343750000003
vt 0.47242265625 0.30717343750000003
vt 0.470312109375 0.341234765625
vt 0.464846484375 0.341234765625
vt 0.499835859375 0.3290273828125
vt 0.509448828125 0.32783125
vt 0.511559765625 0.361892578125
vt 0.5061358984375 0.3625670703125
vt 0.509448828125 0.32783125
vt 0.5191359375 0.32783125
vt 0.517025390625 0.361892578125
vt 0.511559765625 0.361892578125
vt 0.6449265625 0.484080859375
vt 0.654613671875 0.484080859375
vt 0.652502734375 0.5181421875000001
vt 0.647037109375 0.5181421875000001
vt 0.654613671875 0.484080859375
vt 0.664226640625 0.4852769921875
vt 0.6579265234375 0.5188170703125
vt 0.652502734375 0.5181421875000001
vt 0.5976695703125 0.3915273828125
vt 0.607282578125 0.39033125
vt 0.609393515625 0.424392578125
vt 0.6039696484375 0.4250670703125
vt 0.607282578125 0.39033125
vt 0.6169696875 0.39033125
vt 0.614859140625 0.424392578125
vt 0.609393515625 0.424392578125
vt 0.6169696875 0.39033125
vt 0.6265826953125 0.3915271484375
vt 0.6202829296875 0.4250673046875
vt 0.614859140625 0.424392578125
vt 0.665860546875 0.6899859374999999
vt 0.67554765625 0.6899859374999999
vt 0.673437109375 0.724047265625
vt 0.667971484375 0.724047265625
vt 0.429523359375 0.3212148828125
vt 0.439136328125 0.32001875
vt 0.441247265625 0.354080078125
vt 0.4358233984375 0.3547545703125
vt 0.439136328125 0.32001875
vt 0.4488234375 0.32001875
vt 0.446712890625 0.354080078125
vt 0.441247265625 0.354080078125
vt 0.5316453125 0.316112109375
vt 0.541332421875 0.316112109375
vt 0.539221484375 0.35017343749999996
vt 0.533755859375 0.35017343749999996
vt 0.5421323046875 0.31614128906250005
vt 0.5517936328125 0.31684749999999995
vt 0.5472055859375 0.3506643359375
vt 0.54175453125 0.3502658984375
vt 0.6132945703125 0.9305898828125
vt 0.622907578125 0.92939375
vt 0.625018515625 0.963455078125
vt 0.6195946484375 0.9641295703125
vt 0.622907578125 0.92939375
vt 0.6325946875 0.92939375
vt 0.630484140625 0.963455078125
vt 0.625018515625 0.963455078125
vt 0.630484140625 0.963455078125
vt 0.6358841015625 0.9642996875000001
vt 0.6277509375 0.998616015625
vt 0.464846484375 0.341234765625
vt 0.470312109375 0.341234765625
vt 0.46757890625 0.37639570312500004
vt 0.506159765625 0.362736953125
vt 0.511559765625 0.361892578125
vt 0.5142921875 0.397053515625
vt 0.511559765625 0.361892578125
vt 0.517025390625 0.361892578125
vt 0.5142921875 0.397053515625
vt 0.647037109375 0.5181421875000001
vt 0.652502734375 0.5181421875000001
vt 0.6497703125 0.553303125
vt 0.652502734375 0.5181421875000001
vt 0.657902734375 0.5189865625000001
vt 0.6497703125 0.553303125
vt 0.603993515625 0.425236953125
vt 0.609393515625 0.424392578125
vt 0.6121259375 0.459553515625
vt 0.609393515625 0.424392578125
vt 0.614859140625 0.424392578125
vt 0.6121259375 0.459553515625
vt 0.614859140625 0.424392578125
vt 0.6202591015625 0.42523718749999995
vt 0.6121259375 0.459553515625
vt 0.667971484375 0.724047265625
vt 0.673437109375 0.724047265625
vt 0.67070390625 0.759208203125
vt 0.435847265625 0.354924453125
vt 0.441247265625 0.354080078125
vt 0.4439796875 0.389241015625
vt 0.441247265625 0.354080078125
vt 0.446712890625 0.354080078125
vt 0.4439796875 0.389241015625
vt 0.533755859375 0.35017343749999996
vt 0.539221484375 0.35017343749999996
vt 0.5364890625 0.385334375
vt 0.54175453125 0.3502658984375
vt 0.5472055859375 0.3506643359375
vt 0.54191640625 0.38553246093750004
vt 0.619618515625 0.964299453125
vt 0.625018515625 0.963455078125
vt 0.6277509375 0.998616015625
vt 0.625018515625 0.963455078125
vt 0.630484140625 0.963455078125
vt 0.6277509375 0.998616015625
usemtl missile_texture
f 142/164/37 143/163/38 127/162/39 126/161/40
f 81/168/41 82/167/42 66/166/43 65/165/44
f 82/172/42 83/171/45 67/170/46 66/169/43
f 83/176/45 84/175/47 68/174/48 67/173/46
f 84/180/47 85/179/49 69/178/50 68/177/48
f 85/184/49 86/183/51 70/182/52 69/181/50
f 86/188/51 87/187/53 71/186/54 70/185/52
f 87/192/53 88/191/55 72/190/56 71/189/54
f 88/196/55 89/195/57 73/194/58 72/193/56
f 89/200/57 90/199/59 74/198/60 73/197/58
f 90/204/59 91/203/61 75/202/62 74/201/60
f 91/208/61 92/207/63 76/206/64 75/205/62
f 92/212/63 93/211/65 77/210/66 76/209/64
f 93/216/65 94/215/67 78/214/68 77/213/66
f 94/220/67 95/219/69 79/218/70 78/217/68
f 95/224/69 96/223/71 80/222/72 79/221/70
f 96/228/71 81/227/41 65/226/44 80/225/72
f 97/232/73 98/231/74 82/230/42 81/229/41
f 98/236/74 99/235/75 83/234/45 82/233/42
f 99/240/75 100/239/76 84/238/47 83/237/45
f 100/244/76 101/243/77 85/242/49 84/241/47
f 101/248/77 102/247/78 86/246/51 85/245/49
f 102/252/78 103/251/79 87/250/53 86/249/51
f 103/256/79 104/255/80 88/254/55 87/253/53
f 104/260/80 105/259/81 89/258/57 88/257/55
f 105/264/81 106/263/82 90/262/59 89/261/57
f 106/268/82 107/267/83 91/266/61 90/265/59
f 107/272/83 108/271/84 92/270/63 91/269/61
f 108/276/84 109/275/85 93/274/65 92/273/63
f 109/280/85 110/279/86 94/278/67 93/277/65
f 110/284/86 111/283/87 95/282/69 94/281/67
f 111/288/87 112/287/88 96/286/71 95/285/69
f 112/292/88 97/291/73 81/290/41 96/289/71
f 113/296/89 114/295/90 98/294/74 97/293/73
f 114/300/90 115/299/91 99/298/75 98/297/74
f 115/304/91 116/303/92 100/302/76 99/301/75
f 116/308/92 117/307/93 101/306/77 100/305/76
f 117/312/93 118/311/94 102/310/78 101/309/77
f 118/316/94 119/315/95 103/314/79 102/313/78
f 119/320/95 120/319/96 104/318/80 103/317/79
f 120/324/96 121/323/97 105/322/81 104/321/80
f 121/328/97 122/327/98 106/326/82 105/325/81
f 122/332/98 123/331/99 107/330/83 106/329/82
f 123/336/99 124/335/100 108/334/84 107/333/83
f 124/340/100 125/339/101 109/338/85 108/337/84
f 125/344/101 126/343/40 110/342/86 109/341/85
f 126/348/40 127/347/39 111/346/87 110/345/86
f 127/352/39 128/351/102 112/350/88 111/349/87
f 128/356/102 113/355/89 97/354/73 112/353/88
f 129/360/103 130/359/104 114/358/90 113/357/89
f 130/364/104 131/363/105 115/362/91 114/361/90
f 131/368/105 132/367/106 116/366/92 115/365/91
f 132/372/106 133/371/107 117/370/93 116/369/92
f 133/376/107 134/375/108 118/374/94 117/373/93
f 134/380/108 135/379/109 119/378/95 118/377/94
f 135/384/109 136/383/110 120/382/96 119/381/95
f 136/388/110 137/387/111 121/386/97 120/385/96
f 137/392/111 138/391/112 122/390/98 121/389/97
f 138/396/112 139/395/113 123/394/99 122/393/98
f 139/400/113 140/399/114 124/398/100 123/397/99
f 140/404/114 141/403/115 125/402/101 124/401/100
f 141/408/115 142/407/37 126/406/40 125/405/101
f 143/412/38 144/411/116 128/410/102 127/409/39
f 144/416/116 129/415/103 113/414/89 128/413/102
f 145/420/117 146/419/118 130/418/104 129/417/103
f 146/424/118 147/423/119 131/422/105 130/421/104
f 147/428/119 148/427/120 132/426/106 131/425/105
f 148/432/120 149/431/121 133/430/107 132/429/106
f 149/436/121 150/435/122 134/434/108 133/433/107
f 150/440/122 151/439/123 135/438/109 134/437/108
f 151/444/123 152/443/124 136/442/110 135/441/109
f 152/448/124 153/447/125 137/446/111 136/445/110
f 153/452/125 154/451/126 138/450/112 137/449/111
f 154/456/126 155/455/127 139/454/113 138/453/112
f 155/460/127 156/459/128 140/458/114 139/457/113
f 156/464/128 157/463/129 141/462/115 140/461/114
f 157/468/129 158/467/130 142/466/37 141/465/115
f 158/472/130 159/471/131 143/470/38 142/469/37
f 159/476/131 160/475/132 144/474/116 143/473/38
f 160/480/132 145/479/117 129/478/103 144/477/116
f 161/484/133 162/483/134 146/482/118 145/481/117
f 162/488/134 163/487/135 147/486/119 146/485/118
f 163/492/135 164/491/136 148/490/120 147/489/119
f 164/496/136 165/495/137 149/494/121 148/493/120
f 165/500/137 166/499/138 150/498/122 149/497/121
f 166/504/138 167/503/139 151/502/123 150/501/122
f 167/508/139 168/507/140 152/506/124 151/505/123
f 168/512/140 169/511/141 153/510/125 152/509/124
f 169/516/141 170/515/142 154/514/126 153/513/125
f 170/520/142 171/519/143 155/518/127 154/517/126
f 171/524/143 172/523/144 156/522/128 155/521/127
f 172/528/144 173/527/145 157/526/129 156/525/128
f 173/532/145 174/531/146 158/530/130 157/529/129
f 174/536/146 175/535/147 159/534/131 158/533/130
f 175/540/147 176/539/148 160/538/132 159/537/131
f 176/544/148 161/543/133 145/542/117 160/541/132
f 177/547/149 162/546/134 161/545/133
f 177/550/150 163/549/135 162/548/134
f 177/553/151 164/552/136 163/551/135
f 177/556/152 165/555/137 164/554/136
f 177/559/153 166/558/138 165/557/137
f 177/562/154 167/561/139 166/560/138
f 177/565/155 168/564/140 167/563/139
f 177/568/156 169/567/141 168/566/140
f 177/571/157 170/570/142 169/569/141
f 177/574/158 171/573/143 170/572/142
f 177/577/159 172/576/144 171/575/143
f 177/580/160 173/579/145 172/578/144
f 177/583/161 174/582/146 173/581/145
f 177/586/162 175/585/147 174/584/146
f 177/589/163 176/588/148 175/587/147
f 177/592/164 161/591/133 176/590/148
o circle
v 0.000000 0.279128 0.000000
v 0.094782 0.279128 0.353730
v 0.258948 0.279128 0.258948
v 0.353730 0.279128 0.094782
v 0.353730 0.279128 -0.094782
v 0.258948 0.279128 -0.258948
v 0.094782 0.279128 -0.353730
v -0.094782 0.279128 -0.353730
v -0.258948 0.279128 -0.258948
v -0.353730 0.279128 -0.094782
v -0.353730 0.279128 0.094782
v -0.258948 0.279128 0.258948
v -0.094782 0.279128 0.353730
vt 0.64368984375 0.55943515625
vt 0.65625 0.58118984375
vt 0.609375 0.59375
vt 0.65625 0.58118984375
vt 0.65625 0.60631015625
vt 0.609375 0.59375
vt 0.65625 0.60631015625
vt 0.64368984375 0.62806484375
vt 0.609375 0.59375
vt 0.64368984375 0.62806484375
vt 0.62193515625 0.640625
vt 0.609375 0.59375
vt 0.62193515625 0.640625
vt 0.59681484375 0.640625
vt 0.609375 0.59375
vt 0.59681484375 0.640625
vt 0.57506015625 0.62806484375
vt 0.609375 0.59375
vt 0.57506015625 0.62806484375
vt 0.5625 0.60631015625
vt 0.609375 0.59375
vt 0.5625 0.60631015625
vt 0.5625 0.58118984375
vt 0.609375 0.59375
vt 0.5625 0.58118984375
vt 0.57506015625 0.55943515625
vt 0.609375 0.59375
vt 0.57506015625 0.55943515625
vt 0.59681484375 0.546875
vt 0.609375 0.59375
vt 0.59681484375 0.546875
vt 0.62193515625 0.546875
vt 0.609375 0.59375
vt 0.62193515625 0.546875
vt 0.64368984375 0.55943515625
vt 0.609375 0.59375
usemtl missile_texture
f 178/595/165 181/594/165 180/593/165
f 178/598/165 182/597/165 181/596/165
f 178/601/165 183/600/165 182/599/165
f 178/604/165 184/603/165 183/602/165
f 178/607/165 185/606/165 184/605/165
f 178/610/165 186/609/165 185/608/165
f 178/613/165 187/612/165 186/611/165
f 178/616/165 188/615/165 187/614/165
f 178/619/165 189/618/165 188/617/165
f 178/622/165 190/621/165 189/620/165
f 178/625/165 179/624/165 190/623/165
f 178/628/165 180/627/165 179/626/165
