mtllib missile_huge.mtl
# Blender v2.79 (sub 0) OBJ File: 'missile_huge.blend'
# www.blender.org
o Circle
usemtl missile_texture
v 1.154849 0.500000 -0.478354
v 1.250000 0.500000 0.000000
v 1.154849 0.500000 0.478354
v 0.883883 0.500000 0.883884
v 0.478354 0.500000 1.154850
v -0.000000 0.500000 1.250000
v -0.478354 0.500000 1.154850
v -0.883883 0.500000 0.883883
v -1.154849 0.500000 0.478354
v -1.250000 0.500000 0.000000
v -1.154849 0.500000 -0.478354
v -0.883883 0.500000 -0.883883
v -0.478354 0.500000 -1.154850
v 0.000000 0.500000 -1.250000
v 0.000000 9.500000 -1.000000
v -0.382683 9.500000 -0.923880
v -0.707107 9.500000 -0.707107
v -0.923880 9.500000 -0.382683
v -1.000000 9.500000 0.000000
v -0.923880 9.500000 0.382684
v -0.707107 9.500000 0.707107
v -0.382683 9.500000 0.923880
v -0.000000 9.500000 1.000000
v 0.382683 9.500000 0.923880
v 0.707107 9.500000 0.707107
v 0.923880 9.500000 0.382684
v 1.000000 9.500000 0.000000
v 0.923879 9.500000 -0.382684
v 0.707107 9.500000 -0.707107
v 0.382683 9.500000 -0.923880
v -0.000000 11.000000 -0.875000
v -0.334848 11.000000 -0.808394
v -0.618718 11.000000 -0.618719
v -0.808395 11.000000 -0.334848
v -0.875000 11.000000 0.000000
v -0.808395 11.000000 0.334848
v -0.618718 11.000000 0.618719
v -0.334848 11.000000 0.808394
v -0.000000 11.000000 0.875000
v 0.334848 11.000000 0.808394
v 0.618718 11.000000 0.618719
v 0.808395 11.000000 0.334848
v 0.875000 11.000000 0.000000
v 0.808394 11.000000 -0.334848
v 0.618718 11.000000 -0.618719
v 0.334848 11.000000 -0.808395
v 0.000000 13.499999 0.000000
v 0.095671 0.500000 -0.855970
v 0.176777 0.500000 -0.801777
v 0.230970 0.500000 -0.720671
v 0.250000 0.500000 -0.625000
v 0.230970 0.500000 -0.529329
v 0.176777 0.500000 -0.448223
v 0.095671 0.500000 -0.394030
v -0.000000 0.500000 -0.375000
v -0.095671 0.500000 -0.394030
v -0.176777 0.500000 -0.448223
v -0.230970 0.500000 -0.529329
v -0.250000 0.500000 -0.625000
v -0.230970 0.500000 -0.720671
v -0.176777 0.500000 -0.801777
v -0.095671 0.500000 -0.855970
v -0.000000 0.500000 -0.875000
v 0.143506 0.250000 -0.971455
v 0.265165 0.250000 -0.890165
v 0.346455 0.250000 -0.768507
v 0.375000 0.250000 -0.625000
v 0.346455 0.250000 -0.481493
v 0.265165 0.250000 -0.359835
v 0.143506 0.250000 -0.278545
v -0.000000 0.250000 -0.250000
v -0.143506 0.250000 -0.278545
v -0.265165 0.250000 -0.359835
v -0.346455 0.250000 -0.481494
v -0.375000 0.250000 -0.625000
v -0.346455 0.250000 -0.768506
v -0.265165 0.250000 -0.890165
v -0.000000 0.250000 -1.000000
v -0.143506 0.250000 -0.971455
v 0.143506 0.000000 -0.971455
v 0.265165 0.000000 -0.890165
v 0.346455 0.000000 -0.768507
v 0.375000 0.000000 -0.625000
v 0.346455 0.000000 -0.481493
v 0.265165 0.000000 -0.359835
v 0.143506 0.000000 -0.278545
v -0.000000 0.000000 -0.250000
v -0.143506 0.000000 -0.278545
v -0.265165 0.000000 -0.359835
v -0.346455 0.000000 -0.481494
v -0.375000 0.000000 -0.625000
v -0.346455 0.000000 -0.768506
v -0.265165 0.000000 -0.890165
v -0.143506 0.000000 -0.971455
v -0.000000 0.000000 -1.000000
v 0.000000 5.250000 -1.250000
v -0.478354 5.250000 -1.154850
v -0.883883 5.250000 -0.883883
v -1.154849 5.250000 -0.478354
v -1.250000 5.250000 0.000000
v -1.154849 5.250000 0.478354
v -0.883883 5.250000 0.883883
v -0.478354 5.250000 1.154850
v -0.000000 5.250000 1.250000
v 0.478354 5.250000 1.154850
v 0.883883 5.250000 0.883884
v 1.154849 5.250000 0.478354
v 1.250000 5.250000 0.000000
v 1.154849 5.250000 -0.478354
v 0.883883 5.250000 -0.883884
v 0.478354 5.250000 -1.154850
v 0.883883 0.500000 -0.883884
v 0.478354 0.500000 -1.154850
v 0.000000 6.250000 -1.000000
v -0.382683 6.250000 -0.923880
v -0.707107 6.250000 -0.707107
v -0.923880 6.250000 -0.382683
v -1.000000 6.250000 0.000000
v -0.923880 6.250000 0.382684
v -0.707107 6.250000 0.707107
v -0.382683 6.250000 0.923880
v -0.000000 6.250000 1.000000
v 0.382683 6.250000 0.923880
v 0.707107 6.250000 0.707107
v 0.923880 6.250000 0.382684
v 1.000000 6.250000 0.000000
v 0.923879 6.250000 -0.382684
v 0.707107 6.250000 -0.707107
v 0.382683 6.250000 -0.923880
v 0.000000 6.500000 -1.000000
v -0.382683 6.500000 -0.923880
v -0.707107 6.500000 -0.707107
v -0.923880 6.500000 -0.382683
v -1.000000 6.500000 0.000000
v -0.923880 6.500000 0.382684
v -0.707107 6.500000 0.707107
v -0.382683 6.500000 0.923880
v -0.000000 6.500000 1.000000
v 0.382683 6.500000 0.923880
v 0.707107 6.500000 0.707107
v 0.923880 6.500000 0.382684
v 1.000000 6.500000 0.000000
v 0.923879 6.500000 -0.382684
v 0.707107 6.500000 -0.707107
v 0.382683 6.500000 -0.923880
v -0.000000 6.500000 -0.875000
v -0.334848 6.500000 -0.808394
v -0.618718 6.500000 -0.618719
v -0.808395 6.500000 -0.334848
v -0.875000 6.500000 0.000000
v -0.808395 6.500000 0.334848
v -0.618718 6.500000 0.618719
v -0.334848 6.500000 0.808394
v -0.000000 6.500000 0.875000
v 0.334848 6.500000 0.808394
v 0.618718 6.500000 0.618719
v 0.808395 6.500000 0.334848
v 0.875000 6.500000 0.000000
v 0.808394 6.500000 -0.334848
v 0.618718 6.500000 -0.618719
v 0.334848 6.500000 -0.808395
v -0.000000 6.250000 -0.875000
v -0.334848 6.250000 -0.808394
v -0.618718 6.250000 -0.618719
v -0.808395 6.250000 -0.334848
v -0.875000 6.250000 0.000000
v -0.808395 6.250000 0.334848
v -0.618718 6.250000 0.618719
v -0.334848 6.250000 0.808394
v -0.000000 6.250000 0.875000
v 0.334848 6.250000 0.808394
v 0.618718 6.250000 0.618719
v 0.808395 6.250000 0.334848
v 0.875000 6.250000 0.000000
v 0.808394 6.250000 -0.334848
v 0.618718 6.250000 -0.618719
v 0.334848 6.250000 -0.808395
v 1.010000 7.313000 -0.010000
v 0.933879 7.313000 -0.392684
v 0.717107 7.313000 -0.717107
v 0.392683 7.313000 -0.933880
v 0.392683 8.500000 -0.933880
v 0.717107 8.500000 -0.717107
v 0.933879 8.500000 -0.392684
v 1.010000 8.500000 -0.010000
v 0.839689 3.375000 -0.751301
v 0.751301 3.375000 -0.839689
v 1.502602 0.375000 -1.502602
v 0.839689 0.375000 -0.751301
v 0.751301 0.375000 -0.839689
v 1.502602 1.375000 -1.502602
v 0.095671 0.500000 0.394030
v 0.176777 0.500000 0.448223
v 0.230970 0.500000 0.529329
v 0.250000 0.500000 0.625000
v 0.230970 0.500000 0.720671
v 0.176777 0.500000 0.801777
v 0.095671 0.500000 0.855970
v -0.000000 0.500000 0.875000
v -0.095671 0.500000 0.855970
v -0.176777 0.500000 0.801777
v -0.230970 0.500000 0.720671
v -0.250000 0.500000 0.625000
v -0.230970 0.500000 0.529329
v -0.176777 0.500000 0.448223
v -0.095671 0.500000 0.394030
v -0.000000 0.500000 0.375000
v 0.143506 0.250000 0.278545
v 0.265165 0.250000 0.359835
v 0.346455 0.250000 0.481493
v 0.375000 0.250000 0.625000
v 0.346455 0.250000 0.768507
v 0.265165 0.250000 0.890165
v 0.143506 0.250000 0.971455
v -0.000000 0.250000 1.000000
v -0.143506 0.250000 0.971455
v -0.265165 0.250000 0.890165
v -0.346455 0.250000 0.768506
v -0.375000 0.250000 0.625000
v -0.346455 0.250000 0.481494
v -0.265165 0.250000 0.359835
v -0.000000 0.250000 0.250000
v -0.143506 0.250000 0.278545
v 0.143506 0.000000 0.278545
v 0.265165 0.000000 0.359835
v 0.346455 0.000000 0.481493
v 0.375000 0.000000 0.625000
v 0.346455 0.000000 0.768507
v 0.265165 0.000000 0.890165
v 0.143506 0.000000 0.971455
v -0.000000 0.000000 1.000000
v -0.143506 0.000000 0.971455
v -0.265165 0.000000 0.890165
v -0.346455 0.000000 0.768506
v -0.375000 0.000000 0.625000
v -0.346455 0.000000 0.481494
v -0.265165 0.000000 0.359835
v -0.143506 0.000000 0.278545
v -0.000000 0.000000 0.250000
v 0.720671 0.500000 -0.230970
v 0.801777 0.500000 -0.176777
v 0.855970 0.500000 -0.095671
v 0.875000 0.500000 0.000000
v 0.855970 0.500000 0.095671
v 0.801777 0.500000 0.176777
v 0.720671 0.500000 0.230970
v 0.625000 0.500000 0.250000
v 0.529329 0.500000 0.230970
v 0.448223 0.500000 0.176777
v 0.394030 0.500000 0.095671
v 0.375000 0.500000 0.000000
v 0.394030 0.500000 -0.095671
v 0.448223 0.500000 -0.176777
v 0.529329 0.500000 -0.230970
v 0.625000 0.500000 -0.250000
v 0.768506 0.250000 -0.346455
v 0.890165 0.250000 -0.265165
v 0.971455 0.250000 -0.143507
v 1.000000 0.250000 0.000000
v 0.971455 0.250000 0.143507
v 0.890165 0.250000 0.265165
v 0.768506 0.250000 0.346455
v 0.625000 0.250000 0.375000
v 0.481494 0.250000 0.346455
v 0.359835 0.250000 0.265165
v 0.278545 0.250000 0.143506
v 0.250000 0.250000 0.000000
v 0.278545 0.250000 -0.143506
v 0.359835 0.250000 -0.265165
v 0.625000 0.250000 -0.375000
v 0.481494 0.250000 -0.346455
v 0.768506 0.000000 -0.346455
v 0.890165 0.000000 -0.265165
v 0.971455 0.000000 -0.143507
v 1.000000 0.000000 0.000000
v 0.971455 0.000000 0.143507
v 0.890165 0.000000 0.265165
v 0.768506 0.000000 0.346455
v 0.625000 0.000000 0.375000
v 0.481494 0.000000 0.346455
v 0.359835 0.000000 0.265165
v 0.278545 0.000000 0.143506
v 0.250000 0.000000 0.000000
v 0.278545 0.000000 -0.143506
v 0.359835 0.000000 -0.265165
v 0.481494 0.000000 -0.346455
v 0.625000 0.000000 -0.375000
v -0.529329 0.500000 -0.230970
v -0.448223 0.500000 -0.176777
v -0.394030 0.500000 -0.095671
v -0.375000 0.500000 0.000000
v -0.394030 0.500000 0.095671
v -0.448223 0.500000 0.176777
v -0.529329 0.500000 0.230970
v -0.625000 0.500000 0.250000
v -0.720671 0.500000 0.230970
v -0.801777 0.500000 0.176777
v -0.855970 0.500000 0.095671
v -0.875000 0.500000 0.000000
v -0.855970 0.500000 -0.095671
v -0.801777 0.500000 -0.176777
v -0.720671 0.500000 -0.230970
v -0.625000 0.500000 -0.250000
v -0.481494 0.250000 -0.346455
v -0.359835 0.250000 -0.265165
v -0.278545 0.250000 -0.143507
v -0.250000 0.250000 0.000000
v -0.278545 0.250000 0.143507
v -0.359835 0.250000 0.265165
v -0.481494 0.250000 0.346455
v -0.625000 0.250000 0.375000
v -0.768506 0.250000 0.346455
v -0.890165 0.250000 0.265165
v -0.971455 0.250000 0.143506
v -1.000000 0.250000 0.000000
v -0.971455 0.250000 -0.143506
v -0.890165 0.250000 -0.265165
v -0.625000 0.250000 -0.375000
v -0.768506 0.250000 -0.346455
v -0.481494 0.000000 -0.346455
v -0.359835 0.000000 -0.265165
v -0.278545 0.000000 -0.143507
v -0.250000 0.000000 0.000000
v -0.278545 0.000000 0.143507
v -0.359835 0.000000 0.265165
v -0.481494 0.000000 0.346455
v -0.625000 0.000000 0.375000
v -0.768506 0.000000 0.346455
v -0.890165 0.000000 0.265165
v -0.971455 0.000000 0.143506
v -1.000000 0.000000 0.000000
v -0.971455 0.000000 -0.143506
v -0.890165 0.000000 -0.265165
v -0.768506 0.000000 -0.346455
v -0.625000 0.000000 -0.375000
v -0.839689 3.375000 0.751301
v -0.751301 3.375000 0.839689
v -1.502602 0.375000 1.502602
v -0.839689 0.375000 0.751301
v -0.751301 0.375000 0.839689
v -1.502602 1.375000 1.502602
v -0.751301 3.375000 -0.839689
v -0.839689 3.375000 -0.751301
v -1.502602 0.375000 -1.502602
v -0.751301 0.375000 -0.839689
v -0.839689 0.375000 -0.751301
v -1.502602 1.375000 -1.502602
v 0.751301 3.375000 0.839689
v 0.839689 3.375000 0.751301
v 1.502602 0.375000 1.502601
v 0.751301 0.375000 0.839689
v 0.839689 0.375000 0.751301
v 1.502602 1.375000 1.502601
v -1.010000 7.313000 0.010000
v -0.933879 7.313000 0.392684
v -0.717106 7.313000 0.717107
v -0.392683 7.313000 0.933880
v -0.392683 8.500000 0.933880
v -0.717106 8.500000 0.717107
v -0.933879 8.500000 0.392684
v -1.010000 8.500000 0.010000
vt 0.291667 0.471698
vt 0.250000 0.462264
vt 0.291667 0.462264
vt 0.583333 0.471698
vt 0.625000 0.462264
vt 0.625000 0.471698
vt 0.208333 0.471698
vt 0.250000 0.471698
vt 0.541667 0.471698
vt 0.583333 0.462264
vt 0.166667 0.462264
vt 0.208333 0.462264
vt 0.500000 0.471698
vt 0.458333 0.462264
vt 0.500000 0.462264
vt 0.541667 0.462264
vt 0.125000 0.471698
vt 0.166667 0.471698
vt 0.416667 0.471698
vt 0.458333 0.471698
vt 0.083333 0.471698
vt 0.125000 0.462264
vt 0.375000 0.462264
vt 0.416667 0.462264
vt 0.041667 0.471698
vt 0.083333 0.462264
vt 0.375000 0.471698
vt 0.333333 0.462264
vt -0.000000 0.471698
vt 0.041667 0.462264
vt 0.333333 0.471698
vt 0.678877 0.708687
vt 0.678877 0.668671
vt 0.737790 0.668671
vt 0.666667 0.462264
vt 0.666667 0.471698
vt 0.333333 0.433962
vt 0.291667 0.443396
vt 0.291667 0.433962
vt 0.375000 0.433962
vt 0.333333 0.443396
vt 0.416667 0.433962
vt 0.375000 0.443396
vt 0.458333 0.433962
vt 0.416667 0.443396
vt 0.500000 0.433962
vt 0.458333 0.443396
vt 0.541667 0.433962
vt 0.500000 0.443396
vt 0.583333 0.443396
vt 0.541667 0.443396
vt 0.583333 0.433962
vt 0.625000 0.443396
vt 0.625000 0.433962
vt 0.666667 0.443396
vt 0.000000 0.433962
vt 0.041667 0.443396
vt 0.000000 0.443396
vt 0.041667 0.433962
vt 0.083333 0.443396
vt 0.125000 0.433962
vt 0.083333 0.433962
vt 0.166667 0.443396
vt 0.125000 0.443396
vt 0.208333 0.433962
vt 0.166667 0.433962
vt 0.250000 0.433962
vt 0.208333 0.443396
vt 0.250000 0.443396
vt 0.903652 0.461671
vt 0.903652 0.594933
vt 0.707459 0.594933
vt 1.000000 0.004717
vt 0.888889 0.004717
vt 0.888889 -0.000000
vt 0.888889 0.231132
vt 1.000000 0.231132
vt 0.888889 0.235849
vt 1.000000 0.080189
vt 0.888889 0.004717
vt 0.678877 0.708687
vt 0.678877 0.668671
vt 0.737790 0.668671
vt 0.678877 0.708687
vt 0.678877 0.668671
vt 0.737790 0.668671
vt 0.678877 0.708687
vt 0.678877 0.668671
vt 0.737790 0.668671
vt 1.000000 0.004717
vt 0.888889 0.004717
vt 0.888889 -0.000000
vt 0.888889 0.231132
vt 1.000000 0.231132
vt 0.888889 0.235849
vt 1.000000 0.080189
vt 0.888889 0.004717
vt 1.000000 0.004717
vt 0.888889 0.004717
vt 0.888889 -0.000000
vt 0.888889 0.231132
vt 1.000000 0.231132
vt 0.888889 0.235849
vt 1.000000 0.080189
vt 0.888889 0.004717
vt 1.000000 0.004717
vt 0.888889 0.004717
vt 0.888889 -0.000000
vt 0.888889 0.231132
vt 1.000000 0.231132
vt 0.888889 0.235849
vt 1.000000 0.080189
vt 0.888889 0.004717
vt 0.000000 0.462264
vt 0.746820 0.677851
vt 0.737790 0.708687
vt 0.749991 0.688679
vt 0.746820 0.699508
vt 0.724275 0.714821
vt 0.708333 0.716975
vt 0.692392 0.714821
vt 0.669847 0.699508
vt 0.666676 0.688679
vt 0.669847 0.677851
vt 0.692392 0.662537
vt 0.708333 0.660383
vt 0.724275 0.662537
vt 0.666667 0.433962
vt 0.933724 0.492241
vt 0.944284 0.528302
vt 0.933724 0.564363
vt 0.858645 0.615360
vt 0.805556 0.622533
vt 0.752466 0.615360
vt 0.677387 0.564362
vt 0.666827 0.528302
vt 0.677387 0.492241
vt 0.707459 0.461671
vt 0.752466 0.441244
vt 0.805556 0.434071
vt 0.858645 0.441244
vt 0.888889 0.231132
vt 0.746820 0.677851
vt 0.737790 0.708687
vt 0.749991 0.688679
vt 0.746820 0.699508
vt 0.724275 0.714821
vt 0.708333 0.716975
vt 0.692392 0.714821
vt 0.669847 0.699508
vt 0.666676 0.688679
vt 0.669847 0.677851
vt 0.692392 0.662537
vt 0.708333 0.660383
vt 0.724275 0.662537
vt 0.746820 0.677851
vt 0.737790 0.708687
vt 0.749991 0.688679
vt 0.746820 0.699508
vt 0.724275 0.714821
vt 0.708333 0.716975
vt 0.692392 0.714821
vt 0.669847 0.699508
vt 0.666676 0.688679
vt 0.669847 0.677851
vt 0.692392 0.662537
vt 0.708333 0.660383
vt 0.724275 0.662537
vt 0.746820 0.677851
vt 0.737790 0.708687
vt 0.749991 0.688679
vt 0.746820 0.699508
vt 0.724275 0.714821
vt 0.708333 0.716975
vt 0.692392 0.714821
vt 0.669847 0.699508
vt 0.666676 0.688679
vt 0.669847 0.677851
vt 0.692392 0.662537
vt 0.708333 0.660383
vt 0.724275 0.662537
vt 0.888889 0.231132
vt 0.888889 0.231132
vt 0.888889 0.231132
vt -0.000000 0.358491
vt 0.055556 0.000000
vt 0.055556 0.358491
vt 0.583333 0.698113
vt 0.541667 0.811321
vt 0.541667 0.698113
vt 0.250000 0.698113
vt 0.208333 0.811321
vt 0.208333 0.698113
vt 0.625000 0.698113
vt 0.583333 0.811321
vt 0.291667 0.698113
vt 0.250000 0.811321
vt 0.666667 0.698113
vt 0.625000 0.811321
vt 0.326389 0.811321
vt 0.291667 0.811321
vt 0.041667 0.698113
vt 0.000000 0.811321
vt -0.000000 0.698113
vt 0.375000 0.698113
vt 0.333333 0.811321
vt 0.333333 0.698113
vt 0.083333 0.698113
vt 0.041667 0.811321
vt 0.416667 0.698113
vt 0.375000 0.811321
vt 0.125000 0.698113
vt 0.083333 0.811321
vt 0.458333 0.698113
vt 0.416667 0.811321
vt 0.166667 0.698113
vt 0.125000 0.811321
vt 0.500000 0.811321
vt 0.500000 0.698113
vt 0.458333 0.811321
vt 0.166667 0.811321
vt 0.388889 0.358491
vt 0.444444 0.000000
vt 0.444444 0.358491
vt 0.576389 0.811321
vt 0.562500 1.000000
vt 0.618056 0.811321
vt 0.604167 1.000000
vt 0.659722 0.811321
vt 0.645833 1.000000
vt 0.034722 0.811321
vt 0.020833 1.000000
vt 0.076389 0.811321
vt 0.062500 1.000000
vt 0.118056 0.811321
vt 0.104167 1.000000
vt 0.159722 0.811321
vt 0.145833 1.000000
vt 0.194444 0.811321
vt 0.187500 1.000000
vt 0.243056 0.811321
vt 0.229167 1.000000
vt 0.284722 0.811321
vt 0.270833 1.000000
vt 0.312500 1.000000
vt 0.368056 0.811321
vt 0.354167 1.000000
vt 0.409722 0.811321
vt 0.395833 1.000000
vt 0.451389 0.811321
vt 0.437500 1.000000
vt 0.493056 0.811321
vt 0.479167 1.000000
vt 0.534722 0.811321
vt 0.520833 1.000000
vt 0.833333 0.358491
vt 0.888889 0.000000
vt 0.888889 0.358491
vt 0.333333 0.358491
vt 0.388889 -0.000000
vt 0.777778 0.358491
vt 0.833333 0.000000
vt 0.277778 0.358491
vt 0.333333 -0.000000
vt 0.722222 0.358491
vt 0.777778 0.000000
vt 0.222222 0.358491
vt 0.277778 0.000000
vt 0.611111 0.358491
vt 0.666667 0.000000
vt 0.666667 0.358491
vt 0.729167 0.000000
vt 0.166667 0.358491
vt 0.222222 -0.000000
vt 0.555556 0.358491
vt 0.611111 0.000000
vt 0.708333 0.641509
vt 0.694444 0.660377
vt 0.694444 0.641509
vt 0.680556 0.641509
vt 0.680556 0.660377
vt 0.666667 0.660377
vt 0.666667 0.641509
vt 0.875000 0.641509
vt 0.888889 0.660377
vt 0.875000 0.660377
vt 0.861111 0.660377
vt 0.861111 0.641509
vt 0.847222 0.660377
vt 0.847222 0.641509
vt 0.833333 0.660377
vt 0.833333 0.641509
vt 0.819444 0.660377
vt 0.819444 0.641509
vt 0.805556 0.660377
vt 0.805556 0.641509
vt 0.791667 0.641509
vt 0.791667 0.660377
vt 0.777778 0.660377
vt 0.777778 0.641509
vt 0.763889 0.660377
vt 0.763889 0.641509
vt 0.750000 0.660377
vt 0.750000 0.641509
vt 0.736111 0.641509
vt 0.736111 0.660377
vt 0.722222 0.641509
vt 0.722222 0.660377
vt 0.819444 0.622642
vt 0.805556 0.622642
vt 0.694444 0.622642
vt 0.680556 0.622642
vt 0.791667 0.622642
vt 0.666667 0.622642
vt 0.777778 0.622642
vt 0.763889 0.622642
vt 0.888889 0.622642
vt 0.875000 0.622642
vt 0.750000 0.622642
vt 0.861111 0.622642
vt 0.736111 0.622642
vt 0.847222 0.622642
vt 0.722222 0.622642
vt 0.833333 0.622642
vt 0.708333 0.622642
vt 0.708333 0.660377
vt 0.555556 0.433962
vt 0.611111 0.433962
vt 0.500000 0.000000
vt 0.500000 0.358491
vt 0.166667 0.433962
vt 0.111111 0.358491
vt 0.500000 0.433962
vt 0.055556 0.433962
vt 0.111111 0.433962
vt 0.444444 0.433962
vt 0.833333 0.433962
vt 0.888889 0.433962
vt 0.333333 0.433962
vt 0.388889 0.433962
vt 0.777778 0.433962
vt 0.722222 0.433962
vt 0.222222 0.433962
vt 0.277778 0.433962
vt 0.666667 0.433962
vt 0.166667 -0.000000
vt 0.555556 -0.000000
vt 0.111111 -0.000000
vt 0.847222 0.716981
vt 0.937500 0.900943
vt 0.847222 0.900943
vt 0.756944 0.716981
vt 0.756944 0.900943
vt 0.666667 0.716981
vt 0.666667 0.900943
vt 0.708333 0.641509
vt 0.694444 0.660377
vt 0.694444 0.641509
vt 0.680556 0.641509
vt 0.680556 0.660377
vt 0.666667 0.660377
vt 0.666667 0.641509
vt 0.875000 0.641509
vt 0.888889 0.660377
vt 0.875000 0.660377
vt 0.861111 0.660377
vt 0.861111 0.641509
vt 0.847222 0.660377
vt 0.847222 0.641509
vt 0.833333 0.660377
vt 0.833333 0.641509
vt 0.819444 0.641509
vt 0.819444 0.660377
vt 0.805556 0.660377
vt 0.805556 0.641509
vt 0.791667 0.641509
vt 0.791667 0.660377
vt 0.777778 0.641509
vt 0.777778 0.660377
vt 0.763889 0.660377
vt 0.763889 0.641509
vt 0.750000 0.641509
vt 0.750000 0.660377
vt 0.736111 0.641509
vt 0.736111 0.660377
vt 0.722222 0.641509
vt 0.722222 0.660377
vt 0.819444 0.622642
vt 0.805556 0.622642
vt 0.694444 0.622642
vt 0.680556 0.622642
vt 0.791667 0.622642
vt 0.666667 0.622642
vt 0.777778 0.622642
vt 0.763889 0.622642
vt 0.888889 0.622642
vt 0.875000 0.622642
vt 0.750000 0.622642
vt 0.861111 0.622642
vt 0.736111 0.622642
vt 0.847222 0.622642
vt 0.722222 0.622642
vt 0.833333 0.622642
vt 0.708333 0.622642
vt 0.708333 0.660377
vt 0.708333 0.641509
vt 0.694444 0.660377
vt 0.694444 0.641509
vt 0.680556 0.641509
vt 0.680556 0.660377
vt 0.666667 0.660377
vt 0.666667 0.641509
vt 0.875000 0.641509
vt 0.888889 0.660377
vt 0.875000 0.660377
vt 0.861111 0.660377
vt 0.861111 0.641509
vt 0.847222 0.660377
vt 0.847222 0.641509
vt 0.833333 0.660377
vt 0.833333 0.641509
vt 0.819444 0.641509
vt 0.819444 0.660377
vt 0.805556 0.660377
vt 0.805556 0.641509
vt 0.791667 0.641509
vt 0.791667 0.660377
vt 0.777778 0.660377
vt 0.777778 0.641509
vt 0.763889 0.660377
vt 0.763889 0.641509
vt 0.750000 0.660377
vt 0.750000 0.641509
vt 0.736111 0.641509
vt 0.736111 0.660377
vt 0.722222 0.641509
vt 0.722222 0.660377
vt 0.819444 0.622642
vt 0.805556 0.622642
vt 0.694444 0.622642
vt 0.680556 0.622642
vt 0.791667 0.622642
vt 0.666667 0.622642
vt 0.777778 0.622642
vt 0.763889 0.622642
vt 0.888889 0.622642
vt 0.875000 0.622642
vt 0.750000 0.622642
vt 0.861111 0.622642
vt 0.736111 0.622642
vt 0.847222 0.622642
vt 0.722222 0.622642
vt 0.833333 0.622642
vt 0.708333 0.622642
vt 0.708333 0.660377
vt 0.708333 0.641509
vt 0.694444 0.660377
vt 0.694444 0.641509
vt 0.680556 0.641509
vt 0.680556 0.660377
vt 0.666667 0.660377
vt 0.666667 0.641509
vt 0.875000 0.641509
vt 0.888889 0.660377
vt 0.875000 0.660377
vt 0.861111 0.660377
vt 0.861111 0.641509
vt 0.847222 0.660377
vt 0.847222 0.641509
vt 0.833333 0.660377
vt 0.833333 0.641509
vt 0.819444 0.641509
vt 0.819444 0.660377
vt 0.805556 0.660377
vt 0.805556 0.641509
vt 0.791667 0.641509
vt 0.791667 0.660377
vt 0.777778 0.660377
vt 0.777778 0.641509
vt 0.763889 0.660377
vt 0.763889 0.641509
vt 0.750000 0.660377
vt 0.750000 0.641509
vt 0.736111 0.641509
vt 0.736111 0.660377
vt 0.722222 0.641509
vt 0.722222 0.660377
vt 0.819444 0.622642
vt 0.805556 0.622642
vt 0.694444 0.622642
vt 0.680556 0.622642
vt 0.791667 0.622642
vt 0.666667 0.622642
vt 0.777778 0.622642
vt 0.763889 0.622642
vt 0.888889 0.622642
vt 0.875000 0.622642
vt 0.750000 0.622642
vt 0.861111 0.622642
vt 0.736111 0.622642
vt 0.847222 0.622642
vt 0.722222 0.622642
vt 0.833333 0.622642
vt 0.708333 0.622642
vt 0.708333 0.660377
vt 0.847222 0.716981
vt 0.937500 0.900943
vt 0.847222 0.900943
vt 0.756944 0.716981
vt 0.756944 0.900943
vt 0.666667 0.716981
vt 0.666667 0.900943
vt 0.000000 0.000000
vt 0.888889 0.641509
vt 0.937500 0.716981
vt 0.888889 0.641509
vt 0.888889 0.641509
vt 0.888889 0.641509
vt 0.937500 0.716981
s off
vn 0.000000 -1.000000 -0.000000
vn 0.000000 1.000000 0.000000
vn 0.632455 0.447214 -0.632455
vn 0.749838 0.000000 0.661622
vn -0.661622 0.000000 -0.749838
vn -0.632455 0.447214 0.632455
vn -0.749838 0.000000 -0.661622
vn 0.661622 0.000000 0.749838
vn -0.632455 0.447214 -0.632455
vn 0.661622 0.000000 -0.749838
vn -0.749838 0.000000 0.661622
vn 0.632456 0.447213 0.632456
vn -0.661621 0.000000 0.749838
vn 0.749837 0.000000 -0.661622
vn -0.997339 0.050286 0.052791
vn -0.947173 0.000000 0.320723
vn -0.899684 0.030703 0.435460
vn -0.659935 0.026930 -0.750840
vn -0.405130 0.215283 -0.888551
vn -0.322366 0.026930 -0.946232
vn 0.659934 0.026930 0.750841
vn 0.405130 0.215283 0.888551
vn 0.322366 0.026930 0.946232
vn -0.897034 0.026930 -0.441140
vn -0.714325 0.215283 -0.665878
vn 0.907045 0.032008 0.419815
vn 0.714325 0.215283 0.665878
vn -0.997569 0.026930 -0.064279
vn -0.914771 0.215283 -0.341830
vn 0.980581 0.196116 -0.000001
vn 0.896295 0.242536 0.371258
vn -0.946232 0.026930 0.322366
vn -0.975951 0.215283 0.034258
vn 0.946232 0.026930 -0.322366
vn 0.998550 0.020803 0.049655
vn -0.750839 0.026930 0.659936
vn -0.888551 0.215283 0.405131
vn 0.750840 0.026930 -0.659935
vn 0.888551 0.215283 -0.405130
vn -0.441139 0.026930 0.897035
vn -0.665876 0.215283 0.714326
vn 0.441139 0.026930 -0.897034
vn 0.665878 0.215283 -0.714325
vn -0.064280 0.026930 0.997568
vn -0.341829 0.215283 0.914771
vn -0.034259 0.215283 -0.975951
vn 0.064279 0.026930 -0.997569
vn 0.341829 0.215283 -0.914771
vn 0.034258 0.215283 0.975951
vn 0.941623 0.050286 0.332893
vn 0.997809 0.000000 0.066159
vn 0.997843 0.030703 -0.058019
vn -0.515350 0.373563 -0.771275
vn -0.771275 0.373563 -0.515350
vn -0.909781 0.373564 -0.180966
vn -0.909781 0.373564 0.180966
vn -0.771275 0.373563 0.515350
vn -0.515349 0.373564 0.771275
vn -0.180967 0.373563 0.909781
vn 0.180967 0.373563 0.909781
vn 0.515349 0.373564 0.771275
vn 0.771275 0.373564 0.515349
vn 0.909781 0.373564 0.180966
vn 0.909781 0.373563 -0.180966
vn 0.771275 0.373563 -0.515350
vn 0.515349 0.373564 -0.771275
vn 0.180967 0.373563 -0.909781
vn -0.180967 0.373563 -0.909781
vn -0.939726 0.040978 -0.339464
vn -0.997809 0.000000 -0.066159
vn 0.746607 0.030703 0.664556
vn 0.896538 0.000000 0.442968
vn -0.738287 0.040978 -0.673240
vn -0.896537 0.000000 -0.442968
vn 0.430437 0.050286 0.901219
vn 0.658777 0.000000 0.752339
vn -0.424451 0.040978 -0.904523
vn -0.658777 0.000000 -0.752338
vn 0.045995 0.040978 0.998101
vn 0.320722 0.000000 0.947173
vn 0.332892 0.050286 -0.941623
vn 0.066158 0.000000 -0.997809
vn -0.058018 0.030703 -0.997843
vn -0.320722 0.000000 -0.947173
vn -0.328256 0.030703 0.944090
vn -0.066158 0.000000 0.997809
vn 0.673241 0.040978 -0.738287
vn 0.442968 0.000000 -0.896538
vn 0.903620 0.229024 0.361964
vn 0.720410 0.195966 0.665287
vn 0.397961 0.254376 0.881431
vn 0.342281 0.447213 0.826344
vn 0.000000 0.447213 0.894427
vn 0.038980 0.195967 0.979835
vn -0.341864 0.254376 0.904667
vn -0.342281 0.447213 0.826344
vn -0.576866 0.445918 0.684385
vn -0.680212 0.229024 0.696318
vn -0.794858 0.445918 0.411532
vn -0.894904 0.229024 0.383009
vn -0.891839 0.445919 0.076027
vn -0.973354 0.229025 0.011389
vn -0.853046 0.445919 -0.271050
vn -0.903620 0.229024 -0.361964
vn -0.720412 0.195966 -0.665285
vn -0.397961 0.254376 -0.881431
vn -0.342281 0.447213 -0.826344
vn -0.076027 0.445919 -0.891839
vn -0.011389 0.229025 -0.973354
vn 0.271050 0.445919 -0.853046
vn 0.361964 0.229024 -0.903620
vn 0.665284 0.195966 -0.720413
vn 0.876107 0.228669 -0.424437
vn 0.853046 0.445920 -0.271049
vn 0.966629 0.254376 -0.030359
vn 0.894427 0.447214 0.000000
vn -0.442968 0.000000 0.896537
vn 0.752337 0.000000 -0.658779
vn -0.752339 0.000000 0.658776
vn 0.947174 0.000000 -0.320721
vn 0.853046 0.445920 0.271049
vn 0.631775 0.241870 -0.736450
vn 0.371257 0.242536 -0.896295
vn 0.904523 0.040978 -0.424450
vn -0.442967 0.000000 -0.896538
vn -0.752338 0.000000 -0.658777
vn 0.442967 0.000000 0.896538
vn 0.752338 0.000000 0.658777
vn -0.947173 0.000000 -0.320722
vn 0.947173 0.000000 0.320722
vn -0.997809 0.000000 0.066158
vn 0.997809 0.000000 -0.066160
vn -0.896537 0.000000 0.442968
vn 0.896538 0.000000 -0.442968
vn -0.658775 0.000000 0.752340
vn 0.658777 0.000000 -0.752338
vn -0.320722 0.000000 0.947173
vn 0.320721 0.000000 -0.947174
vn 0.066159 0.000000 0.997809
vn -0.066160 0.000000 -0.997809
vn -0.371258 0.242536 0.896295
vn -0.667897 0.050286 0.742553
vn 0.865511 0.241870 -0.438621
vn -0.896295 0.242535 0.371258
vn -0.685994 0.242535 0.685995
vn 0.970143 0.242535 -0.000001
vn -0.922161 0.241870 -0.301857
vn -0.970143 0.242536 -0.000000
vn 0.685994 0.242535 0.685994
vn -0.736451 0.241870 -0.631775
vn -0.438622 0.241870 -0.865511
vn 0.074017 0.241870 0.967481
vn 0.371257 0.242536 0.896295
vn 0.000000 0.242536 -0.970142
vn 0.555570 0.000000 -0.831470
vn 0.980785 0.000000 -0.195091
vn -0.894427 0.447213 0.000000
vn -0.979835 0.195967 0.038980
vn -0.904667 0.254376 -0.341864
vn -0.826344 0.447213 -0.342281
vn -0.424436 0.228668 -0.876108
vn -0.271050 0.445919 -0.853046
vn -0.030359 0.254376 -0.966629
vn 0.000000 0.447214 -0.894427
vn 0.342282 0.447213 -0.826343
vn 0.338954 0.195967 -0.920167
vn 0.646992 0.228668 -0.727401
vn 0.684384 0.445919 -0.576867
vn -0.555571 0.000000 0.831469
vn -0.980785 0.000000 0.195091
f 141/1/1 156/2/1 157/3/1
f 132/4/1 149/5/1 133/6/1
f 139/7/1 156/2/1 140/8/1
f 131/9/1 148/10/1 132/4/1
f 139/7/1 154/11/1 155/12/1
f 130/13/1 161/14/1 146/15/1
f 131/9/1 146/15/1 147/16/1
f 137/17/1 154/11/1 138/18/1
f 144/19/1 161/14/1 145/20/1
f 136/21/1 153/22/1 137/17/1
f 144/19/1 159/23/1 160/24/1
f 135/25/1 152/26/1 136/21/1
f 143/27/1 158/28/1 159/23/1
f 134/29/1 151/30/1 135/25/1
f 142/31/1 157/3/1 158/28/1
f 85/32/1 89/33/1 93/34/1
f 133/6/1 150/35/1 134/36/1
f 126/37/2 173/38/2 125/39/2
f 127/40/2 174/41/2 126/37/2
f 128/42/2 175/43/2 127/40/2
f 129/44/2 176/45/2 128/42/2
f 114/46/2 177/47/2 129/44/2
f 115/48/2 162/49/2 114/46/2
f 115/48/2 164/50/2 163/51/2
f 116/52/2 165/53/2 164/50/2
f 117/54/2 166/55/2 165/53/2
f 118/56/2 167/57/2 166/58/2
f 119/59/2 168/60/2 167/57/2
f 121/61/2 168/60/2 120/62/2
f 121/61/2 170/63/2 169/64/2
f 123/65/2 170/63/2 122/66/2
f 124/67/2 171/68/2 123/65/2
f 125/39/2 172/69/2 124/67/2
f 12/70/1 112/71/1 4/72/1
f 188/73/1 189/74/1 190/75/1
f 186/76/3 191/77/3 187/78/3
f 189/74/4 191/79/4 186/76/4
f 190/80/5 191/79/5 188/73/5
f 229/81/1 233/82/1 237/83/1
f 277/84/1 281/85/1 285/86/1
f 325/87/1 329/88/1 333/89/1
f 338/90/1 339/91/1 340/92/1
f 336/93/6 341/94/6 337/95/6
f 339/91/7 341/96/7 336/93/7
f 340/97/8 341/96/8 338/90/8
f 344/98/1 345/99/1 346/100/1
f 342/101/9 347/102/9 343/103/9
f 345/99/10 347/104/10 342/101/10
f 346/105/11 347/104/11 344/98/11
f 350/106/1 351/107/1 352/108/1
f 348/109/12 353/110/12 349/111/12
f 351/107/13 353/112/13 348/109/13
f 352/113/14 353/112/14 350/106/14
f 141/1/1 140/8/1 156/2/1
f 132/4/1 148/10/1 149/5/1
f 139/7/1 155/12/1 156/2/1
f 131/9/1 147/16/1 148/10/1
f 139/7/1 138/18/1 154/11/1
f 130/13/1 145/20/1 161/14/1
f 131/9/1 130/13/1 146/15/1
f 137/17/1 153/22/1 154/11/1
f 144/19/1 160/24/1 161/14/1
f 136/21/1 152/26/1 153/22/1
f 144/19/1 143/27/1 159/23/1
f 135/25/1 151/30/1 152/26/1
f 143/27/1 142/31/1 158/28/1
f 134/29/1 150/114/1 151/30/1
f 142/31/1 141/1/1 157/3/1
f 93/34/1 94/115/1 81/116/1
f 94/115/1 95/117/1 81/116/1
f 95/117/1 80/118/1 81/116/1
f 81/116/1 82/119/1 83/120/1
f 83/120/1 84/121/1 85/32/1
f 85/32/1 86/122/1 89/33/1
f 86/122/1 87/123/1 89/33/1
f 87/123/1 88/124/1 89/33/1
f 89/33/1 90/125/1 91/126/1
f 91/126/1 92/127/1 89/33/1
f 92/127/1 93/34/1 89/33/1
f 81/116/1 83/120/1 93/34/1
f 83/120/1 85/32/1 93/34/1
f 133/6/1 149/5/1 150/35/1
f 126/37/2 174/41/2 173/38/2
f 127/40/2 175/43/2 174/41/2
f 128/42/2 176/45/2 175/43/2
f 129/44/2 177/47/2 176/45/2
f 114/46/2 162/49/2 177/47/2
f 115/48/2 163/51/2 162/49/2
f 115/48/2 116/52/2 164/50/2
f 116/52/2 117/54/2 165/53/2
f 117/54/2 118/128/2 166/55/2
f 118/56/2 119/59/2 167/57/2
f 119/59/2 120/62/2 168/60/2
f 121/61/2 169/64/2 168/60/2
f 121/61/2 122/66/2 170/63/2
f 123/65/2 171/68/2 170/63/2
f 124/67/2 172/69/2 171/68/2
f 125/39/2 173/38/2 172/69/2
f 12/70/1 13/129/1 14/130/1
f 14/130/1 113/131/1 12/70/1
f 113/131/1 112/71/1 12/70/1
f 112/71/1 1/132/1 2/133/1
f 2/133/1 3/134/1 4/72/1
f 4/72/1 5/135/1 6/136/1
f 6/136/1 7/137/1 8/138/1
f 8/138/1 9/139/1 10/140/1
f 10/140/1 11/141/1 12/70/1
f 112/71/1 2/133/1 4/72/1
f 4/72/1 6/136/1 12/70/1
f 6/136/1 8/138/1 12/70/1
f 8/138/1 10/140/1 12/70/1
f 189/74/4 188/73/4 191/79/4
f 190/80/5 187/142/5 191/79/5
f 237/83/1 238/143/1 225/144/1
f 238/143/1 239/145/1 225/144/1
f 239/145/1 224/146/1 225/144/1
f 225/144/1 226/147/1 227/148/1
f 227/148/1 228/149/1 229/81/1
f 229/81/1 230/150/1 233/82/1
f 230/150/1 231/151/1 233/82/1
f 231/151/1 232/152/1 233/82/1
f 233/82/1 234/153/1 235/154/1
f 235/154/1 236/155/1 233/82/1
f 236/155/1 237/83/1 233/82/1
f 225/144/1 227/148/1 237/83/1
f 227/148/1 229/81/1 237/83/1
f 285/86/1 286/156/1 273/157/1
f 286/156/1 287/158/1 273/157/1
f 287/158/1 272/159/1 273/157/1
f 273/157/1 274/160/1 275/161/1
f 275/161/1 276/162/1 277/84/1
f 277/84/1 278/163/1 281/85/1
f 278/163/1 279/164/1 281/85/1
f 279/164/1 280/165/1 281/85/1
f 281/85/1 282/166/1 283/167/1
f 283/167/1 284/168/1 281/85/1
f 284/168/1 285/86/1 281/85/1
f 273/157/1 275/161/1 285/86/1
f 275/161/1 277/84/1 285/86/1
f 333/89/1 334/169/1 321/170/1
f 334/169/1 335/171/1 321/170/1
f 335/171/1 320/172/1 321/170/1
f 321/170/1 322/173/1 323/174/1
f 323/174/1 324/175/1 325/87/1
f 325/87/1 326/176/1 329/88/1
f 326/176/1 327/177/1 329/88/1
f 327/177/1 328/178/1 329/88/1
f 329/88/1 330/179/1 331/180/1
f 331/180/1 332/181/1 329/88/1
f 332/181/1 333/89/1 329/88/1
f 321/170/1 323/174/1 333/89/1
f 323/174/1 325/87/1 333/89/1
f 339/91/7 338/90/7 341/96/7
f 340/97/8 337/182/8 341/96/8
f 345/99/10 344/98/10 347/104/10
f 346/105/11 343/183/11 347/104/11
f 351/107/13 350/106/13 353/112/13
f 352/113/14 349/184/14 353/112/14
s 1
f 100/185/15 9/186/16 101/187/17
f 17/188/18 32/189/19 16/190/20
f 25/191/21 40/192/22 24/193/23
f 18/194/24 33/195/25 17/188/18
f 26/196/26 41/197/27 25/191/21
f 19/198/28 34/199/29 18/194/24
f 26/196/26 43/200/30 42/201/31
f 20/202/32 35/203/33 19/204/28
f 28/205/34 43/206/30 27/207/35
f 21/208/36 36/209/37 20/202/32
f 29/210/38 44/211/39 28/205/34
f 22/212/40 37/213/41 21/208/36
f 30/214/42 45/215/43 29/210/38
f 23/216/44 38/217/45 22/212/40
f 16/190/20 31/218/46 15/219/47
f 15/219/47 46/220/48 30/214/42
f 24/193/23 39/221/49 23/216/44
f 107/222/50 2/223/51 108/224/52
f 32/189/19 33/225/25 47/226/53
f 33/195/25 34/227/29 47/228/54
f 34/199/29 35/229/33 47/230/55
f 35/203/33 36/231/37 47/232/56
f 36/209/37 37/233/41 47/234/57
f 37/213/41 38/235/45 47/236/58
f 38/217/45 39/237/49 47/238/59
f 39/221/49 40/239/22 47/240/60
f 40/192/22 41/241/27 47/242/61
f 41/197/27 42/243/31 47/244/62
f 42/201/31 43/200/30 47/245/63
f 43/206/30 44/246/39 47/247/64
f 44/211/39 45/248/43 47/249/65
f 45/215/43 46/250/48 47/251/66
f 46/220/48 31/252/46 47/253/67
f 31/218/46 32/254/19 47/255/68
f 99/256/69 10/257/70 100/258/15
f 106/259/71 3/260/72 107/222/50
f 98/261/73 11/262/74 99/256/69
f 105/263/75 4/264/76 106/259/71
f 97/265/77 12/266/78 98/261/73
f 104/267/79 5/268/80 105/263/75
f 111/269/81 14/270/82 96/271/83
f 96/271/83 13/272/84 97/265/77
f 103/273/85 6/274/86 104/267/79
f 110/275/87 113/276/88 111/269/81
f 68/277/89 53/278/12 69/279/90
f 70/280/91 53/278/12 54/281/92
f 70/280/91 55/282/93 71/283/94
f 72/284/95 55/285/93 56/286/96
f 72/284/95 57/287/97 73/288/98
f 73/288/98 58/289/99 74/290/100
f 74/290/100 59/291/101 75/292/102
f 75/292/102 60/293/103 76/294/104
f 76/294/104 61/295/9 77/296/105
f 79/297/106 61/295/9 62/298/107
f 79/297/106 63/299/108 78/300/109
f 78/300/109 48/301/110 64/302/111
f 64/302/111 49/303/3 65/304/112
f 66/305/113 49/303/3 50/306/114
f 67/307/115 50/306/114 51/308/116
f 92/309/74 77/296/105 93/310/78
f 85/311/76 70/280/91 86/312/80
f 93/310/78 79/297/106 94/313/84
f 86/312/80 71/283/94 87/314/86
f 95/315/82 64/302/111 80/316/88
f 94/313/84 78/300/109 95/315/82
f 87/317/86 72/284/95 88/318/117
f 80/316/88 65/304/112 81/319/118
f 88/318/117 73/288/98 89/320/119
f 81/319/118 66/305/113 82/321/120
f 89/320/119 74/290/100 90/322/16
f 82/321/120 67/307/115 83/323/51
f 90/322/16 75/292/102 91/324/70
f 83/323/51 68/277/89 84/325/72
f 91/324/70 76/294/104 92/309/74
f 84/325/72 69/279/90 85/311/76
f 67/307/115 52/326/121 68/277/89
f 128/327/122 111/269/81 129/328/123
f 108/224/52 1/329/120 109/330/124
f 147/16/125 164/50/78 148/10/126
f 155/12/127 172/69/76 156/2/128
f 148/10/126 165/53/74 149/5/129
f 156/2/128 173/38/72 157/3/130
f 149/5/129 166/55/70 150/35/131
f 157/3/130 174/41/51 158/28/132
f 150/114/131 167/57/16 151/30/133
f 158/28/132 175/43/120 159/23/134
f 151/30/133 168/60/119 152/26/135
f 159/23/134 176/45/118 160/24/136
f 152/26/135 169/64/117 153/22/137
f 160/24/136 177/47/88 161/14/138
f 153/22/137 170/63/86 154/11/139
f 146/15/140 163/51/84 147/16/125
f 161/14/138 162/49/82 146/15/140
f 154/11/139 171/68/80 155/12/127
f 121/331/141 102/332/142 103/273/85
f 127/333/143 110/275/87 128/327/122
f 119/334/144 102/332/142 120/335/145
f 126/336/146 109/330/124 127/333/143
f 119/334/144 100/185/15 101/187/17
f 126/336/146 107/222/50 108/224/52
f 117/337/147 100/258/15 118/338/148
f 124/339/149 107/222/50 125/340/31
f 116/341/150 99/256/69 117/337/147
f 124/339/149 105/263/75 106/259/71
f 115/342/151 98/261/73 116/341/150
f 122/343/152 105/263/75 123/344/153
f 114/345/154 111/269/81 96/271/83
f 114/345/154 97/265/77 115/342/151
f 121/331/141 104/267/79 122/343/152
f 102/332/142 7/346/117 103/273/85
f 109/330/124 112/347/118 110/275/87
f 101/187/17 8/348/119 102/332/142
f 141/1/130 27/207/35 26/196/26
f 142/31/132 28/205/34 27/207/35
f 143/27/134 29/210/38 28/205/34
f 144/19/136 30/214/42 29/210/38
f 145/20/138 15/219/47 30/214/42
f 130/13/140 16/190/20 15/219/47
f 131/9/125 17/188/18 16/190/20
f 132/4/126 18/194/24 17/188/18
f 133/6/129 19/198/28 18/194/24
f 134/29/131 20/202/32 19/204/28
f 135/25/133 21/208/36 20/202/32
f 136/21/135 22/212/40 21/208/36
f 137/17/137 23/216/44 22/212/40
f 138/18/139 24/193/23 23/216/44
f 139/7/127 25/191/21 24/193/23
f 140/8/128 26/196/26 25/191/21
f 180/349/136 182/350/155 183/351/118
f 179/352/134 183/351/118 184/353/120
f 178/354/156 184/353/120 185/355/156
f 212/356/89 197/357/12 213/358/90
f 214/359/91 197/357/12 198/360/92
f 214/359/91 199/361/93 215/362/94
f 216/363/95 199/364/93 200/365/96
f 216/363/95 201/366/97 217/367/98
f 217/367/98 202/368/99 218/369/100
f 218/369/100 203/370/157 219/371/158
f 220/372/159 203/370/157 204/373/160
f 220/372/159 205/374/9 221/375/105
f 223/376/161 205/374/9 206/377/162
f 222/378/163 206/377/162 207/379/164
f 222/378/163 192/380/165 208/381/166
f 209/382/167 192/380/165 193/383/168
f 210/384/113 193/383/168 194/385/114
f 211/386/115 194/385/114 195/387/116
f 236/388/74 221/375/105 237/389/78
f 229/390/76 214/359/91 230/391/80
f 237/389/78 223/376/161 238/392/84
f 230/391/80 215/362/94 231/393/86
f 239/394/82 208/381/166 224/395/88
f 238/392/84 222/378/163 239/394/82
f 231/396/86 216/363/95 232/397/117
f 224/395/88 209/382/167 225/398/118
f 232/397/117 217/367/98 233/399/119
f 225/398/118 210/384/113 226/400/120
f 233/399/119 218/369/100 234/401/16
f 226/400/120 211/386/115 227/402/51
f 234/401/16 219/371/158 235/403/70
f 227/402/51 212/356/89 228/404/72
f 235/403/70 220/372/159 236/388/74
f 228/404/72 213/358/90 229/390/76
f 211/386/115 196/405/121 212/356/89
f 260/406/89 245/407/12 261/408/90
f 262/409/91 245/407/12 246/410/92
f 262/409/91 247/411/93 263/412/94
f 264/413/95 247/414/93 248/415/96
f 264/413/95 249/416/97 265/417/98
f 265/417/98 250/418/99 266/419/100
f 266/419/100 251/420/157 267/421/158
f 268/422/159 251/420/157 252/423/160
f 268/422/159 253/424/9 269/425/105
f 271/426/106 253/424/9 254/427/107
f 271/426/106 255/428/108 270/429/109
f 270/429/109 240/430/110 256/431/111
f 256/431/111 241/432/3 257/433/112
f 258/434/113 241/432/3 242/435/114
f 259/436/115 242/435/114 243/437/116
f 284/438/74 269/425/105 285/439/78
f 277/440/76 262/409/91 278/441/80
f 285/439/78 271/426/106 286/442/84
f 278/441/80 263/412/94 279/443/86
f 287/444/82 256/431/111 272/445/88
f 286/442/84 270/429/109 287/444/82
f 279/446/86 264/413/95 280/447/117
f 272/445/88 257/433/112 273/448/118
f 280/447/117 265/417/98 281/449/119
f 273/448/118 258/434/113 274/450/120
f 281/449/119 266/419/100 282/451/16
f 274/450/120 259/436/115 275/452/51
f 282/451/16 267/421/158 283/453/70
f 275/452/51 260/406/89 276/454/72
f 283/453/70 268/422/159 284/438/74
f 276/454/72 261/408/90 277/440/76
f 259/436/115 244/455/121 260/406/89
f 308/456/89 293/457/12 309/458/90
f 310/459/91 293/457/12 294/460/92
f 310/459/91 295/461/93 311/462/94
f 312/463/95 295/464/93 296/465/96
f 312/463/95 297/466/97 313/467/98
f 313/467/98 298/468/99 314/469/100
f 314/469/100 299/470/157 315/471/158
f 316/472/159 299/470/157 300/473/160
f 316/472/159 301/474/9 317/475/105
f 319/476/106 301/474/9 302/477/107
f 319/476/106 303/478/108 318/479/109
f 318/479/109 288/480/110 304/481/111
f 304/481/111 289/482/3 305/483/112
f 306/484/113 289/482/3 290/485/114
f 307/486/115 290/485/114 291/487/116
f 332/488/74 317/475/105 333/489/78
f 325/490/76 310/459/91 326/491/80
f 333/489/78 319/476/106 334/492/84
f 326/491/80 311/462/94 327/493/86
f 335/494/82 304/481/111 320/495/88
f 334/492/84 318/479/109 335/494/82
f 327/496/86 312/463/95 328/497/117
f 320/495/88 305/483/112 321/498/118
f 328/497/117 313/467/98 329/499/119
f 321/498/118 306/484/113 322/500/120
f 329/499/119 314/469/100 330/501/16
f 322/500/120 307/486/115 323/502/51
f 330/501/16 315/471/158 331/503/70
f 323/502/51 308/456/89 324/504/72
f 331/503/70 316/472/159 332/488/74
f 324/504/72 309/458/90 325/490/76
f 307/486/115 292/505/121 308/456/89
f 356/506/135 358/507/169 359/508/119
f 355/509/133 359/508/119 360/510/16
f 354/511/170 360/510/16 361/512/170
f 100/185/15 10/513/70 9/186/16
f 17/188/18 33/225/25 32/189/19
f 25/191/21 41/241/27 40/192/22
f 18/194/24 34/227/29 33/195/25
f 26/196/26 42/243/31 41/197/27
f 19/198/28 35/229/33 34/199/29
f 26/196/26 27/207/35 43/200/30
f 20/202/32 36/231/37 35/203/33
f 28/205/34 44/246/39 43/206/30
f 21/208/36 37/233/41 36/209/37
f 29/210/38 45/248/43 44/211/39
f 22/212/40 38/235/45 37/213/41
f 30/214/42 46/250/48 45/215/43
f 23/216/44 39/237/49 38/217/45
f 16/190/20 32/254/19 31/218/46
f 15/219/47 31/252/46 46/220/48
f 24/193/23 40/239/22 39/221/49
f 107/222/50 3/260/72 2/223/51
f 99/256/69 11/262/74 10/257/70
f 106/259/71 4/264/76 3/260/72
f 98/261/73 12/266/78 11/262/74
f 105/263/75 5/268/80 4/264/76
f 97/265/77 13/272/84 12/266/78
f 104/267/79 6/274/86 5/268/80
f 111/269/81 113/276/88 14/270/82
f 96/271/83 14/270/82 13/272/84
f 103/273/85 7/346/117 6/274/86
f 110/275/87 112/347/118 113/276/88
f 68/277/89 52/326/121 53/278/12
f 70/280/91 69/279/90 53/278/12
f 70/280/91 54/281/92 55/282/93
f 72/284/95 71/514/94 55/285/93
f 72/284/95 56/286/96 57/287/97
f 73/288/98 57/287/97 58/289/99
f 74/290/100 58/289/99 59/291/101
f 75/292/102 59/291/101 60/293/103
f 76/294/104 60/293/103 61/295/9
f 79/297/106 77/296/105 61/295/9
f 79/297/106 62/298/107 63/299/108
f 78/300/109 63/299/108 48/301/110
f 64/302/111 48/301/110 49/303/3
f 66/305/113 65/304/112 49/303/3
f 67/307/115 66/305/113 50/306/114
f 92/309/74 76/294/104 77/296/105
f 85/311/76 69/279/90 70/280/91
f 93/310/78 77/296/105 79/297/106
f 86/312/80 70/280/91 71/283/94
f 95/315/82 78/300/109 64/302/111
f 94/313/84 79/297/106 78/300/109
f 87/317/86 71/514/94 72/284/95
f 80/316/88 64/302/111 65/304/112
f 88/318/117 72/284/95 73/288/98
f 81/319/118 65/304/112 66/305/113
f 89/320/119 73/288/98 74/290/100
f 82/321/120 66/305/113 67/307/115
f 90/322/16 74/290/100 75/292/102
f 83/323/51 67/307/115 68/277/89
f 91/324/70 75/292/102 76/294/104
f 84/325/72 68/277/89 69/279/90
f 67/307/115 51/308/116 52/326/121
f 128/327/122 110/275/87 111/269/81
f 108/224/52 2/223/51 1/329/120
f 147/16/125 163/51/84 164/50/78
f 155/12/127 171/68/80 172/69/76
f 148/10/126 164/50/78 165/53/74
f 156/2/128 172/69/76 173/38/72
f 149/5/129 165/53/74 166/55/70
f 157/3/130 173/38/72 174/41/51
f 150/114/131 166/58/70 167/57/16
f 158/28/132 174/41/51 175/43/120
f 151/30/133 167/57/16 168/60/119
f 159/23/134 175/43/120 176/45/118
f 152/26/135 168/60/119 169/64/117
f 160/24/136 176/45/118 177/47/88
f 153/22/137 169/64/117 170/63/86
f 146/15/140 162/49/82 163/51/84
f 161/14/138 177/47/88 162/49/82
f 154/11/139 170/63/86 171/68/80
f 121/331/141 120/335/145 102/332/142
f 127/333/143 109/330/124 110/275/87
f 119/334/144 101/187/17 102/332/142
f 126/336/146 108/224/52 109/330/124
f 119/334/144 118/56/148 100/185/15
f 126/336/146 125/340/31 107/222/50
f 117/337/147 99/256/69 100/258/15
f 124/339/149 106/259/71 107/222/50
f 116/341/150 98/261/73 99/256/69
f 124/339/149 123/344/153 105/263/75
f 115/342/151 97/265/77 98/261/73
f 122/343/152 104/267/79 105/263/75
f 114/345/154 129/328/123 111/269/81
f 114/345/154 96/271/83 97/265/77
f 121/331/141 103/273/85 104/267/79
f 102/332/142 8/348/119 7/346/117
f 109/330/124 1/329/120 112/347/118
f 101/187/17 9/186/16 8/348/119
f 141/1/130 142/31/132 27/207/35
f 142/31/132 143/27/134 28/205/34
f 143/27/134 144/19/136 29/210/38
f 144/19/136 145/20/138 30/214/42
f 145/20/138 130/13/140 15/219/47
f 130/13/140 131/9/125 16/190/20
f 131/9/125 132/4/126 17/188/18
f 132/4/126 133/6/129 18/194/24
f 133/6/129 134/36/131 19/198/28
f 134/29/131 135/25/133 20/202/32
f 135/25/133 136/21/135 21/208/36
f 136/21/135 137/17/137 22/212/40
f 137/17/137 138/18/139 23/216/44
f 138/18/139 139/7/127 24/193/23
f 139/7/127 140/8/128 25/191/21
f 140/8/128 141/1/130 26/196/26
f 180/349/136 181/515/155 182/350/155
f 179/352/134 180/349/136 183/351/118
f 178/354/156 179/352/134 184/353/120
f 212/356/89 196/405/121 197/357/12
f 214/359/91 213/358/90 197/357/12
f 214/359/91 198/360/92 199/361/93
f 216/363/95 215/516/94 199/364/93
f 216/363/95 200/365/96 201/366/97
f 217/367/98 201/366/97 202/368/99
f 218/369/100 202/368/99 203/370/157
f 220/372/159 219/371/158 203/370/157
f 220/372/159 204/373/160 205/374/9
f 223/376/161 221/375/105 205/374/9
f 222/378/163 223/376/161 206/377/162
f 222/378/163 207/379/164 192/380/165
f 209/382/167 208/381/166 192/380/165
f 210/384/113 209/382/167 193/383/168
f 211/386/115 210/384/113 194/385/114
f 236/388/74 220/372/159 221/375/105
f 229/390/76 213/358/90 214/359/91
f 237/389/78 221/375/105 223/376/161
f 230/391/80 214/359/91 215/362/94
f 239/394/82 222/378/163 208/381/166
f 238/392/84 223/376/161 222/378/163
f 231/396/86 215/516/94 216/363/95
f 224/395/88 208/381/166 209/382/167
f 232/397/117 216/363/95 217/367/98
f 225/398/118 209/382/167 210/384/113
f 233/399/119 217/367/98 218/369/100
f 226/400/120 210/384/113 211/386/115
f 234/401/16 218/369/100 219/371/158
f 227/402/51 211/386/115 212/356/89
f 235/403/70 219/371/158 220/372/159
f 228/404/72 212/356/89 213/358/90
f 211/386/115 195/387/116 196/405/121
f 260/406/89 244/455/121 245/407/12
f 262/409/91 261/408/90 245/407/12
f 262/409/91 246/410/92 247/411/93
f 264/413/95 263/517/94 247/414/93
f 264/413/95 248/415/96 249/416/97
f 265/417/98 249/416/97 250/418/99
f 266/419/100 250/418/99 251/420/157
f 268/422/159 267/421/158 251/420/157
f 268/422/159 252/423/160 253/424/9
f 271/426/106 269/425/105 253/424/9
f 271/426/106 254/427/107 255/428/108
f 270/429/109 255/428/108 240/430/110
f 256/431/111 240/430/110 241/432/3
f 258/434/113 257/433/112 241/432/3
f 259/436/115 258/434/113 242/435/114
f 284/438/74 268/422/159 269/425/105
f 277/440/76 261/408/90 262/409/91
f 285/439/78 269/425/105 271/426/106
f 278/441/80 262/409/91 263/412/94
f 287/444/82 270/429/109 256/431/111
f 286/442/84 271/426/106 270/429/109
f 279/446/86 263/517/94 264/413/95
f 272/445/88 256/431/111 257/433/112
f 280/447/117 264/413/95 265/417/98
f 273/448/118 257/433/112 258/434/113
f 281/449/119 265/417/98 266/419/100
f 274/450/120 258/434/113 259/436/115
f 282/451/16 266/419/100 267/421/158
f 275/452/51 259/436/115 260/406/89
f 283/453/70 267/421/158 268/422/159
f 276/454/72 260/406/89 261/408/90
f 259/436/115 243/437/116 244/455/121
f 308/456/89 292/505/121 293/457/12
f 310/459/91 309/458/90 293/457/12
f 310/459/91 294/460/92 295/461/93
f 312/463/95 311/518/94 295/464/93
f 312/463/95 296/465/96 297/466/97
f 313/467/98 297/466/97 298/468/99
f 314/469/100 298/468/99 299/470/157
f 316/472/159 315/471/158 299/470/157
f 316/472/159 300/473/160 301/474/9
f 319/476/106 317/475/105 301/474/9
f 319/476/106 302/477/107 303/478/108
f 318/479/109 303/478/108 288/480/110
f 304/481/111 288/480/110 289/482/3
f 306/484/113 305/483/112 289/482/3
f 307/486/115 306/484/113 290/485/114
f 332/488/74 316/472/159 317/475/105
f 325/490/76 309/458/90 310/459/91
f 333/489/78 317/475/105 319/476/106
f 326/491/80 310/459/91 311/462/94
f 335/494/82 318/479/109 304/481/111
f 334/492/84 319/476/106 318/479/109
f 327/496/86 311/518/94 312/463/95
f 320/495/88 304/481/111 305/483/112
f 328/497/117 312/463/95 313/467/98
f 321/498/118 305/483/112 306/484/113
f 329/499/119 313/467/98 314/469/100
f 322/500/120 306/484/113 307/486/115
f 330/501/16 314/469/100 315/471/158
f 323/502/51 307/486/115 308/456/89
f 331/503/70 315/471/158 316/472/159
f 324/504/72 308/456/89 309/458/90
f 307/486/115 291/487/116 292/505/121
f 356/506/135 357/519/169 358/507/169
f 355/509/133 356/506/135 359/508/119
f 354/511/170 355/509/133 360/510/16
