# Made in Blockbench 5.1.6
mtllib missile_cluster_part.mtl

o cone
v 0.000000 0.000000 0.000000
v 0.000000 0.699762 0.000000
v 0.019276 0.000000 0.084454
v 0.054010 0.000000 0.067727
v 0.078047 0.000000 0.037586
v 0.086626 0.000000 0.000000
v 0.078047 0.000000 -0.037586
v 0.054010 0.000000 -0.067727
v 0.019276 0.000000 -0.084454
v -0.019276 0.000000 -0.084454
v -0.054010 0.000000 -0.067727
v -0.078047 0.000000 -0.037586
v -0.086626 0.000000 -0.000000
v -0.078047 0.000000 0.037586
v -0.054010 0.000000 0.067727
v -0.019276 0.000000 0.084454
vt 0.30059843750000004 0.98916875
vt 0.2781078125 1
vt 0.265625 0.9453125
vt 0.1296703125 0.5435859375000001
vt 0.15459861638894987 0.5449505241996245
vt 0.1171875 1
vt 0.3161640625 0.96965
vt 0.30059843750000004 0.98916875
vt 0.265625 0.9453125
vt 0.22205276722210027 0.37307552419962453
vt 0.24698107111105014 0.37171093750000006
vt 0.25946388361105016 0.828125
vt 0.32171875 0.9453125
vt 0.3161640625 0.96965
vt 0.265625 0.9453125
vt 0.24698107111105014 0.37171093750000006
vt 0.27194669611105016 0.37171093750000006
vt 0.25946388361105016 0.828125
vt 0.3161640625 0.920975
vt 0.32171875 0.9453125
vt 0.265625 0.9453125
vt 0.27194669611105016 0.37171093750000006
vt 0.296875 0.37307552419962453
vt 0.25946388361105016 0.828125
vt 0.30059843750000004 0.90145625
vt 0.3161640625 0.920975
vt 0.265625 0.9453125
vt 0.296875 0.43421093750000006
vt 0.321840625 0.43421093750000006
vt 0.3093578125 0.890625
vt 0.2781078125 0.890625
vt 0.30059843750000004 0.90145625
vt 0.265625 0.9453125
vt 0.0016513836110501404 0.5449505241996245
vt 0.026579687499999997 0.5435859375000001
vt 0.0390625 1
vt 0.2531421875 0.890625
vt 0.2781078125 0.890625
vt 0.265625 0.9453125
vt 0.026579687499999997 0.5435859375000001
vt 0.0515453125 0.5435859375000001
vt 0.0390625 1
vt 0.2306515625 0.90145625
vt 0.2531421875 0.890625
vt 0.265625 0.9453125
vt 0.0515453125 0.5435859375000001
vt 0.07647361638894987 0.5449505241996245
vt 0.0390625 1
vt 0.2150859375 0.920975
vt 0.2306515625 0.90145625
vt 0.265625 0.9453125
vt 0.334409375 0.5435859375000001
vt 0.359375 0.5435859375000001
vt 0.3468921875 1
vt 0.20953125 0.9453125
vt 0.2150859375 0.920975
vt 0.265625 0.9453125
vt 0.15625 0.5449505241996245
vt 0.18117830388894984 0.5435859375000001
vt 0.19366111638894987 1
vt 0.2150859375 0.96965
vt 0.20953125 0.9453125
vt 0.265625 0.9453125
vt 0.18117830388894984 0.5435859375000001
vt 0.20614392888894986 0.5435859375000001
vt 0.19366111638894987 1
vt 0.2306515625 0.98916875
vt 0.2150859375 0.96965
vt 0.265625 0.9453125
vt 0.20614392888894986 0.5435859375000001
vt 0.23107223277789973 0.5449505241996245
vt 0.19366111638894987 1
vt 0.2531421875 1
vt 0.2306515625 0.98916875
vt 0.265625 0.9453125
vt 0.07977638361105013 0.5449505241996245
vt 0.1047046875 0.5435859375000001
vt 0.1171875 1
vt 0.2781078125 1
vt 0.2531421875 1
vt 0.265625 0.9453125
vt 0.1047046875 0.5435859375000001
vt 0.1296703125 0.5435859375000001
vt 0.1171875 1
usemtl missile_texture
vn 0.000000 -1.000000 0.000000
vn 0.220835 0.122856 0.967543
vn 0.618764 0.122855 0.775911
vn 0.429145 0.147411 0.891125
vn 0.894142 0.122856 0.430601
vn 0.773292 0.147411 0.616676
vn 0.992425 0.122856 0.000000
vn 0.964278 0.147411 0.220088
vn 0.894142 0.122856 -0.430601
vn 0.964278 0.147411 -0.220088
vn 0.618764 0.122855 -0.775911
vn 0.773292 0.147411 -0.616676
vn 0.220835 0.122856 -0.967543
vn 0.429145 0.147411 -0.891125
vn -0.220835 0.122856 -0.967543
vn 0.000000 0.147411 -0.989075
vn -0.618764 0.122855 -0.775911
vn -0.429145 0.147411 -0.891125
vn -0.894142 0.122856 -0.430601
vn -0.773292 0.147411 -0.616676
vn -0.992425 0.122856 0.000000
vn -0.964278 0.147411 -0.220088
vn -0.894142 0.122856 0.430601
vn -0.964278 0.147411 0.220088
vn -0.618764 0.122855 0.775911
vn -0.773292 0.147411 0.616676
vn -0.220835 0.122856 0.967543
vn -0.429145 0.147411 0.891125
vn 0.000000 0.147411 0.989075
f 4/1/1 3/2/1 1/3/1
f 3/4/2 4/5/3 2/6/4
f 5/7/1 4/8/1 1/9/1
f 4/10/3 5/11/5 2/12/6
f 6/13/1 5/14/1 1/15/1
f 5/16/5 6/17/7 2/18/8
f 7/19/1 6/20/1 1/21/1
f 6/22/7 7/23/9 2/24/10
f 8/25/1 7/26/1 1/27/1
f 7/28/9 8/29/11 2/30/12
f 9/31/1 8/32/1 1/33/1
f 8/34/11 9/35/13 2/36/14
f 10/37/1 9/38/1 1/39/1
f 9/40/13 10/41/15 2/42/16
f 11/43/1 10/44/1 1/45/1
f 10/46/15 11/47/17 2/48/18
f 12/49/1 11/50/1 1/51/1
f 11/52/17 12/53/19 2/54/20
f 13/55/1 12/56/1 1/57/1
f 12/58/19 13/59/21 2/60/22
f 14/61/1 13/62/1 1/63/1
f 13/64/21 14/65/23 2/66/24
f 15/67/1 14/68/1 1/69/1
f 14/70/23 15/71/25 2/72/26
f 16/73/1 15/74/1 1/75/1
f 15/76/25 16/77/27 2/78/28
f 3/79/1 16/80/1 1/81/1
f 16/82/27 3/83/2 2/84/29
