# Made in Blockbench 5.1.4
mtllib missile_v2.mtl

o Body
v 0.135367 5.290305 0.326805
v 0.353730 0.279128 0.000000
v 0.326805 0.279128 0.135367
v 0.250126 0.279128 0.250126
v 0.135367 0.279128 0.326805
v 0.000000 0.279128 0.353730
v -0.135367 0.279128 0.326805
v -0.250126 0.279128 0.250126
v -0.326805 0.279128 0.135367
v -0.353730 0.279128 0.000000
v -0.326805 0.279128 -0.135367
v -0.250126 0.279128 -0.250126
v -0.135367 0.279128 -0.326805
v 0.000000 0.279128 -0.353730
v 0.135367 0.279128 -0.326805
v 0.250126 0.279128 -0.250126
v 0.326805 0.279128 -0.135367
v 0.353730 5.290305 0.000000
v 0.326805 5.290305 0.135367
v 0.250126 5.290305 0.250126
v 0.000000 5.290305 0.353730
v -0.135367 5.290305 0.326805
v -0.250126 5.290305 0.250126
v -0.326805 5.290305 0.135367
v -0.353730 5.290305 0.000000
v -0.326805 5.290305 -0.135367
v -0.250126 5.290305 -0.250126
v -0.135367 5.290305 -0.326805
v 0.000000 5.290305 -0.353730
v 0.135367 5.290305 -0.326805
v 0.250126 5.290305 -0.250126
v 0.326805 5.290305 -0.135367
vt 0.0376390625 0.3359375
vt 0.05592890625 0.3359375
vt 0.05592890625 1
vt 0.0376390625 1
vt 0.05592890625 0.3359375
vt 0.07421875 0.3359375
vt 0.07421875 1
vt 0.05592890625 1
vt 0.1587328125 0.3359375
vt 0.17702265625 0.3359375
vt 0.17702265625 1
vt 0.1587328125 1
vt 0.17702265625 0.3359375
vt 0.1953125 0.3359375
vt 0.1953125 1
vt 0.17702265625 1
vt 0.19921875 0.3359375
vt 0.21750859375 0.3359375
vt 0.21750859375 1
vt 0.19921875 1
vt 0.21750859375 0.3359375
vt 0.2357984375 0.3359375
vt 0.2357984375 1
vt 0.21750859375 1
vt 0.078125 0.3359375
vt 0.09641484375 0.3359375
vt 0.09641484375 1
vt 0.078125 1
vt 0.09641484375 0.3359375
vt 0.1147046875 0.3359375
vt 0.1147046875 1
vt 0.09641484375 1
vt 0.1147046875 0.3359375
vt 0.13299453125 0.3359375
vt 0.13299453125 1
vt 0.1147046875 1
vt 0.13299453125 0.3359375
vt 0.151284375 0.3359375
vt 0.151284375 1
vt 0.13299453125 1
vt 0.2446703125 0.3359375
vt 0.26296015625 0.3359375
vt 0.26296015625 1
vt 0.2446703125 1
vt 0.26296015625 0.3359375
vt 0.28125 0.3359375
vt 0.28125 1
vt 0.26296015625 1
vt 0.28515625 0.3359375
vt 0.30344609375 0.3359375
vt 0.30344609375 1
vt 0.28515625 1
vt 0.30344609375 0.3359375
vt 0.3217359375 0.3359375
vt 0.3217359375 1
vt 0.30344609375 1
vt 0.001059375 0.3359375
vt 0.01934921875 0.3359375
vt 0.01934921875 1
vt 0.001059375 1
vt 0.01934921875 0.3359375
vt 0.0376390625 0.3359375
vt 0.0376390625 1
vt 0.01934921875 1
usemtl missile_texture
vn 1.000000 0.000000 0.000000
vn 0.923881 0.000000 0.382681
vn 0.707107 0.000000 0.707107
vn 0.382681 0.000000 0.923881
vn 0.000000 0.000000 1.000000
vn -0.382681 0.000000 0.923881
vn -0.707107 0.000000 0.707107
vn -0.923881 0.000000 0.382681
vn -1.000000 0.000000 0.000000
vn -0.923881 0.000000 -0.382681
vn -0.707107 0.000000 -0.707107
vn -0.382681 0.000000 -0.923881
vn 0.000000 0.000000 -1.000000
vn 0.382681 0.000000 -0.923881
vn 0.707107 0.000000 -0.707107
vn 0.923881 0.000000 -0.382681
vn 0.373779 0.214536 -0.902366
vn 0.690643 0.214535 -0.690643
vn 0.698335 0.157025 -0.698335
vn 0.377942 0.157025 -0.912416
vn 0.998702 0.050927 0.000000
vn 0.922678 0.050928 0.382192
vn 0.923577 0.025539 0.382561
vn 0.999674 0.025536 -0.000000
vn 0.706189 0.050930 0.706189
vn 0.706876 0.025542 0.706876
vn 0.382192 0.050928 0.922678
vn 0.382561 0.025539 0.923577
vn 0.000000 0.050927 0.998702
vn 0.000000 0.025536 0.999674
vn -0.382192 0.050928 0.922678
vn -0.382561 0.025539 0.923577
vn -0.706189 0.050930 0.706189
vn -0.706876 0.025542 0.706876
vn -0.922678 0.050928 0.382192
vn -0.923577 0.025539 0.382561
vn -0.998702 0.050927 -0.000000
vn -0.999674 0.025536 0.000000
vn -0.922678 0.050928 -0.382192
vn -0.923577 0.025539 -0.382561
vn -0.706189 0.050930 -0.706189
vn -0.706876 0.025542 -0.706876
vn -0.382192 0.050928 -0.922678
vn -0.382561 0.025539 -0.923577
vn 0.000000 0.050927 -0.998702
vn 0.000000 0.025536 -0.999674
vn 0.382192 0.050928 -0.922678
vn 0.382561 0.025539 -0.923577
vn 0.706189 0.050930 -0.706189
vn 0.706876 0.025542 -0.706876
vn 0.922678 0.050928 -0.382192
vn 0.923577 0.025539 -0.382561
vn 0.994692 0.102896 0.000000
vn 0.918973 0.102895 0.380659
vn 0.703354 0.102894 0.703354
vn 0.380659 0.102895 0.918973
vn 0.000000 0.102896 0.994692
vn -0.380659 0.102895 0.918973
vn -0.703354 0.102894 0.703354
vn -0.918973 0.102895 0.380659
vn -0.994692 0.102896 -0.000000
vn -0.918973 0.102895 -0.380659
vn -0.703354 0.102894 -0.703354
vn -0.380659 0.102895 -0.918973
vn 0.000000 0.102896 -0.994692
vn 0.380659 0.102895 -0.918973
vn 0.703354 0.102894 -0.703354
vn 0.918973 0.102895 -0.380659
vn 0.987595 0.157026 0.000000
vn 0.912416 0.157025 0.377942
vn 0.698335 0.157025 0.698335
vn 0.377942 0.157025 0.912416
vn 0.000000 0.157026 0.987595
vn -0.377942 0.157025 0.912416
vn -0.698335 0.157025 0.698335
vn -0.912416 0.157025 0.377942
vn -0.987595 0.157026 0.000000
vn -0.912416 0.157025 -0.377942
vn -0.698335 0.157025 -0.698335
vn -0.377942 0.157025 -0.912416
vn 0.000000 0.157026 -0.987595
vn 0.912416 0.157025 -0.377942
vn 0.976716 0.214536 0.000000
vn 0.902366 0.214536 0.373779
vn 0.690643 0.214535 0.690643
vn 0.373779 0.214536 0.902366
vn 0.000000 0.214536 0.976716
vn -0.373779 0.214536 0.902366
vn -0.690643 0.214535 0.690643
vn -0.902366 0.214536 0.373779
vn -0.976716 0.214536 0.000000
vn -0.902366 0.214536 -0.373779
vn -0.690643 0.214535 -0.690643
vn -0.373779 0.214536 -0.902366
vn 0.000000 0.214536 -0.976716
vn 0.902366 0.214536 -0.373779
vn 0.961041 0.276405 0.000000
vn 0.887886 0.276403 0.367777
vn 0.679560 0.276401 0.679560
vn 0.367777 0.276403 0.887886
vn 0.000000 0.276405 0.961041
vn -0.367777 0.276403 0.887886
vn -0.679560 0.276401 0.679560
vn -0.887886 0.276403 0.367777
vn -0.961041 0.276405 0.000000
vn -0.887886 0.276403 -0.367777
vn -0.679560 0.276401 -0.679560
vn -0.367777 0.276403 -0.887886
vn 0.000000 0.276405 -0.961041
vn 0.367777 0.276403 -0.887886
vn 0.679560 0.276401 -0.679560
vn 0.887886 0.276403 -0.367777
vn 0.940764 0.339062 0.000000
vn 0.869155 0.339060 0.360012
vn 0.665221 0.339061 0.665221
vn 0.360012 0.339060 0.869155
vn 0.000000 0.339062 0.940764
vn -0.360012 0.339060 0.869155
vn -0.665221 0.339061 0.665221
vn -0.869155 0.339060 0.360012
vn -0.940764 0.339062 0.000000
vn -0.869155 0.339060 -0.360012
vn -0.665221 0.339061 -0.665221
vn -0.360012 0.339060 -0.869155
vn 0.000000 0.339062 -0.940764
vn 0.360012 0.339060 -0.869155
vn 0.665221 0.339061 -0.665221
vn 0.869155 0.339060 -0.360012
vn 0.877948 0.445767 0.174638
vn 0.744291 0.445768 0.497315
vn 0.497315 0.445768 0.744291
vn 0.174638 0.445767 0.877948
vn -0.174638 0.445767 0.877948
vn -0.497315 0.445768 0.744291
vn -0.744291 0.445768 0.497315
vn -0.877948 0.445767 0.174638
vn -0.877948 0.445767 -0.174638
vn -0.744291 0.445768 -0.497315
vn -0.497315 0.445768 -0.744291
vn -0.174638 0.445767 -0.877948
vn 0.174638 0.445767 -0.877948
vn 0.497315 0.445768 -0.744291
vn 0.744291 0.445768 -0.497315
vn 0.877948 0.445767 -0.174638
vn 0.000000 -1.000000 0.000000
vn 0.955408 0.295289 0.000000
vn 0.832050 0.554700 0.000000
vn 0.999721 -0.023625 0.000000
vn -0.429018 -0.903296 0.000000
vn -0.999898 -0.014249 0.000000
vn 0.000000 0.295289 0.955408
vn 0.000000 0.554700 0.832050
vn 0.000000 -0.023625 0.999721
vn 0.000000 -0.903296 -0.429018
vn 0.000000 -0.014249 -0.999898
vn 0.000000 0.295289 -0.955408
vn 0.000000 0.554700 -0.832050
vn 0.000000 -0.023625 -0.999721
vn 0.000000 -0.903296 0.429018
vn 0.000000 -0.014249 0.999898
vn -0.999721 -0.023625 0.000000
vn -0.955408 0.295289 0.000000
vn 0.429018 -0.903296 0.000000
vn 0.999898 -0.014249 0.000000
vn -0.832050 0.554700 0.000000
f 18/4/1 19/3/2 3/2/2 2/1/1
f 19/8/2 20/7/3 4/6/3 3/5/2
f 20/12/3 1/11/4 5/10/4 4/9/3
f 1/16/4 21/15/5 6/14/5 5/13/4
f 21/20/5 22/19/6 7/18/6 6/17/5
f 22/24/6 23/23/7 8/22/7 7/21/6
f 23/28/7 24/27/8 9/26/8 8/25/7
f 24/32/8 25/31/9 10/30/9 9/29/8
f 25/36/9 26/35/10 11/34/10 10/33/9
f 26/40/10 27/39/11 12/38/11 11/37/10
f 27/44/11 28/43/12 13/42/12 12/41/11
f 28/48/12 29/47/13 14/46/13 13/45/12
f 29/52/13 30/51/14 15/50/14 14/49/13
f 30/56/14 31/55/15 16/54/15 15/53/14
f 31/60/15 32/59/16 17/58/16 16/57/15
f 32/64/16 18/63/1 2/62/1 17/61/16
o Nose Cone
v 0.353730 5.290305 0.000000
v 0.326805 5.290305 0.135367
v 0.250126 5.290305 0.250126
v 0.135367 5.290305 0.326805
v 0.000000 5.290305 0.353730
v -0.135367 5.290305 0.326805
v -0.250126 5.290305 0.250126
v -0.326805 5.290305 0.135367
v -0.353730 5.290305 0.000000
v -0.326805 5.290305 -0.135367
v -0.250126 5.290305 -0.250126
v -0.135367 5.290305 -0.326805
v 0.000000 5.290305 -0.353730
v 0.135367 5.290305 -0.326805
v 0.250126 5.290305 -0.250126
v 0.326805 5.290305 -0.135367
v 0.347493 5.534546 0.000000
v 0.321040 5.534546 0.132979
v 0.245713 5.534546 0.245713
v 0.132979 5.534546 0.321040
v 0.000000 5.534546 0.347493
v -0.132979 5.534546 0.321040
v -0.245713 5.534546 0.245713
v -0.321040 5.534546 0.132979
v -0.347493 5.534546 0.000000
v -0.321040 5.534546 -0.132979
v -0.245713 5.534546 -0.245713
v -0.132979 5.534546 -0.321040
v 0.000000 5.534546 -0.347493
v 0.132979 5.534546 -0.321040
v 0.245713 5.534546 -0.245713
v 0.321040 5.534546 -0.132979
v 0.328592 5.778787 0.000000
v 0.303577 5.778787 0.125745
v 0.232348 5.778787 0.232348
v 0.125745 5.778787 0.303577
v 0.000000 5.778787 0.328592
v -0.125745 5.778787 0.303577
v -0.232348 5.778787 0.232348
v -0.303577 5.778787 0.125745
v -0.328592 5.778787 0.000000
v -0.303577 5.778787 -0.125745
v -0.232348 5.778787 -0.232348
v -0.125745 5.778787 -0.303577
v 0.000000 5.778787 -0.328592
v 0.125745 5.778787 -0.303577
v 0.232348 5.778787 -0.232348
v 0.303577 5.778787 -0.125745
v 0.296441 6.023029 0.000000
v 0.273876 6.023029 0.113444
v 0.209615 6.023029 0.209615
v 0.113444 6.023029 0.273876
v 0.000000 6.023029 0.296441
v -0.113444 6.023029 0.273876
v -0.209615 6.023029 0.209615
v -0.273876 6.023029 0.113444
v -0.296441 6.023029 0.000000
v -0.273876 6.023029 -0.113444
v -0.209615 6.023029 -0.209615
v -0.113444 6.023029 -0.273876
v 0.000000 6.023029 -0.296441
v 0.113444 6.023029 -0.273876
v 0.209615 6.023029 -0.209615
v 0.273876 6.023029 -0.113444
v 0.249960 6.267276 0.000000
v 0.230933 6.267276 0.095655
v 0.176747 6.267276 0.176747
v 0.095655 6.267276 0.230933
v 0.000000 6.267276 0.249960
v -0.095655 6.267276 0.230933
v -0.176747 6.267276 0.176747
v -0.230933 6.267276 0.095655
v -0.249960 6.267276 0.000000
v -0.230933 6.267276 -0.095655
v -0.176747 6.267276 -0.176747
v -0.095655 6.267276 -0.230933
v 0.000000 6.267276 -0.249960
v 0.095655 6.267276 -0.230933
v 0.176747 6.267276 -0.176747
v 0.230933 6.267276 -0.095655
v 0.187356 6.511517 0.000000
v 0.173095 6.511517 0.071698
v 0.132481 6.511517 0.132481
v 0.071698 6.511517 0.173095
v 0.000000 6.511517 0.187356
v -0.071698 6.511517 0.173095
v -0.132481 6.511517 0.132481
v -0.173095 6.511517 0.071698
v -0.187356 6.511517 0.000000
v -0.173095 6.511517 -0.071698
v -0.132481 6.511517 -0.132481
v -0.071698 6.511517 -0.173095
v 0.000000 6.511517 -0.187356
v 0.071698 6.511517 -0.173095
v 0.132481 6.511517 -0.132481
v 0.173095 6.511517 -0.071698
v 0.105706 6.755759 0.000000
v 0.097659 6.755759 0.040452
v 0.074746 6.755759 0.074746
v 0.040452 6.755759 0.097659
v 0.000000 6.755759 0.105706
v -0.040452 6.755759 0.097659
v -0.074746 6.755759 0.074746
v -0.097659 6.755759 0.040452
v -0.105706 6.755759 0.000000
v -0.097659 6.755759 -0.040452
v -0.074746 6.755759 -0.074746
v -0.040452 6.755759 -0.097659
v 0.000000 6.755759 -0.105706
v 0.040452 6.755759 -0.097659
v 0.074746 6.755759 -0.074746
v 0.097659 6.755759 -0.040452
v 0.000000 7.000000 0.000000
vt 0.544152734375 0.24981328125000002
vt 0.559439296875 0.2509306640625
vt 0.555840625 0.28368125
vt 0.54295078125 0.2827390625
vt 0.63689625 0.765625
vt 0.65518515625 0.765807265625
vt 0.6547012109375 0.798180234375
vt 0.636734921875 0.798001171875
vt 0.65518515625 0.765807265625
vt 0.6734713671875 0.766171796875
vt 0.67266484375 0.7985383203125
vt 0.6547012109375 0.798180234375
vt 0.4868587109375 0.164244765625
vt 0.50514765625 0.1640625
vt 0.505308984375 0.19643867187499997
vt 0.4873426953125 0.19661773437499996
vt 0.50514765625 0.1640625
vt 0.5234375 0.1640625
vt 0.523276171875 0.19643867187499997
vt 0.505308984375 0.19643867187499997
vt 0.640625 0.3203125
vt 0.65891484375 0.3203125
vt 0.658753515625 0.35268867187499997
vt 0.640786328125 0.35268867187499997
vt 0.56640625 0.22710929687500003
vt 0.5846924609375 0.226744765625
vt 0.5851764453125 0.25911773437499996
vt 0.5672128125 0.25947582031250005
vt 0.5846924609375 0.226744765625
vt 0.60298140625 0.2265625
vt 0.603142734375 0.25893867187499997
vt 0.5851764453125 0.25911773437499996
vt 0.60298140625 0.2265625
vt 0.62127125 0.2265625
vt 0.621109921875 0.25893867187499997
vt 0.603142734375 0.25893867187499997
vt 0.62127125 0.2265625
vt 0.63956015625 0.226744765625
vt 0.6390762109375 0.25911773437499996
vt 0.621109921875 0.25893867187499997
vt 0.63956015625 0.226744765625
vt 0.6578463671875 0.22710929687500003
vt 0.65703984375 0.25947582031250005
vt 0.6390762109375 0.25911773437499996
vt 0.4165462109375 0.156432265625
vt 0.43483515625 0.15625
vt 0.434996484375 0.18862617187499997
vt 0.4170301953125 0.18880523437499996
vt 0.43483515625 0.15625
vt 0.453125 0.15625
vt 0.452963671875 0.18862617187499997
vt 0.434996484375 0.18862617187499997
vt 0.52734375 0.15234375
vt 0.54563359375 0.15234375
vt 0.545472265625 0.18471992187499997
vt 0.527505078125 0.18471992187499997
vt 0.58203125 0.766171796875
vt 0.6003174609375 0.765807265625
vt 0.6008014453125 0.798180234375
vt 0.5828378125 0.7985383203125
vt 0.6003174609375 0.765807265625
vt 0.61860640625 0.765625
vt 0.618767734375 0.798001171875
vt 0.6008014453125 0.798180234375
vt 0.61860640625 0.765625
vt 0.63689625 0.765625
vt 0.636734921875 0.798001171875
vt 0.618767734375 0.798001171875
vt 0.636734921875 0.798001171875
vt 0.6546939453125 0.79854203125
vt 0.6532283984375 0.8309716015624999
vt 0.63624625 0.83046015625
vt 0.4585953125 0.17578125
vt 0.4765625 0.17578125
vt 0.476073828125 0.20824023437500006
vt 0.459083984375 0.20824023437500006
vt 0.487349921875 0.19697953125
vt 0.505308984375 0.19643867187499997
vt 0.50579765625 0.22889804687500004
vt 0.4888155078125 0.22940949218749995
vt 0.505308984375 0.19643867187499997
vt 0.523276171875 0.19643867187499997
vt 0.5227875 0.22889765625000003
vt 0.50579765625 0.22889765625000003
vt 0.640786328125 0.35268867187499997
vt 0.658753515625 0.35268867187499997
vt 0.65826484375 0.38514765625
vt 0.641275 0.38514765625
vt 0.658753515625 0.35268867187499997
vt 0.676712578125 0.35322953125
vt 0.6752469921875 0.38565910156250005
vt 0.65826484375 0.38514765625
vt 0.585183671875 0.25947953125
vt 0.603142734375 0.25893867187499997
vt 0.60363140625 0.29139804687500004
vt 0.5866492578125 0.29190949218749995
vt 0.603142734375 0.25893867187499997
vt 0.621109921875 0.25893867187499997
vt 0.62062125 0.29139765625
vt 0.60363140625 0.29139765625
vt 0.621109921875 0.25893867187499997
vt 0.6390689453125 0.25947953125
vt 0.6376033984375 0.29190910156250005
vt 0.62062125 0.29139765625
vt 0.6617203125 0.55859375
vt 0.6796875 0.55859375
vt 0.679198828125 0.591052734375
vt 0.662208984375 0.591052734375
vt 0.417037421875 0.18916703125
vt 0.434996484375 0.18862617187499997
vt 0.43548515625 0.22108554687500004
vt 0.4185030078125 0.22159699218749995
vt 0.434996484375 0.18862617187499997
vt 0.452963671875 0.18862617187499997
vt 0.452475 0.22108515625000003
vt 0.43548515625 0.22108515625000003
vt 0.527505078125 0.18471992187499997
vt 0.545472265625 0.18471992187499997
vt 0.54498359375 0.21717890625000003
vt 0.52799375 0.21717890625000003
vt 0.545472265625 0.18471992187499997
vt 0.563431328125 0.18526078125
vt 0.5619657421875 0.21769035156250005
vt 0.54498359375 0.21717890625000003
vt 0.600808671875 0.79854203125
vt 0.618767734375 0.798001171875
vt 0.61925640625 0.830460546875
vt 0.6022742578125 0.8309719921875001
vt 0.618767734375 0.798001171875
vt 0.636734921875 0.798001171875
vt 0.63624625 0.83046015625
vt 0.61925640625 0.83046015625
vt 0.63624625 0.83046015625
vt 0.6532140625 0.8313251171875
vt 0.6507228515625 0.8638748828125
vt 0.635415 0.86309453125
vt 0.459083984375 0.20824023437500006
vt 0.476073828125 0.20824023437500006
vt 0.475242578125 0.24087460937500005
vt 0.459915234375 0.24087460937500005
vt 0.48882984375 0.22976242187499996
vt 0.50579765625 0.22889765625000003
vt 0.506628515625 0.26153203125
vt 0.491321015625 0.26231218749999996
vt 0.50579765625 0.22889765625000003
vt 0.5227875 0.22889765625000003
vt 0.52195625 0.26153242187500003
vt 0.506628515625 0.26153242187500003
vt 0.641275 0.38514765625
vt 0.65826484375 0.38514765625
vt 0.657433984375 0.41778203125
vt 0.64210625 0.41778203125
vt 0.65826484375 0.38514765625
vt 0.67523265625 0.38601242187499996
vt 0.6727414453125 0.41856218749999996
vt 0.657433984375 0.41778203125
vt 0.5866635546875 0.29226242187499996
vt 0.60363140625 0.29139765625
vt 0.604462265625 0.32403203125
vt 0.589154765625 0.32481218749999996
vt 0.60363140625 0.29139765625
vt 0.62062125 0.29139765625
vt 0.61979 0.32403242187500003
vt 0.604462265625 0.32403242187500003
vt 0.62062125 0.29139765625
vt 0.6375890625 0.2922626171875
vt 0.6350978515625 0.3248123828125
vt 0.61979 0.32403203125
vt 0.662208984375 0.591052734375
vt 0.679198828125 0.591052734375
vt 0.678367578125 0.623687109375
vt 0.663040234375 0.623687109375
vt 0.41851734375 0.22194992187499996
vt 0.43548515625 0.22108515625000003
vt 0.436316015625 0.25371953125
vt 0.421008515625 0.25449968749999996
vt 0.43548515625 0.22108515625000003
vt 0.452475 0.22108515625000003
vt 0.45164375 0.25371992187500003
vt 0.436316015625 0.25371992187500003
vt 0.52799375 0.21717890625000003
vt 0.54498359375 0.21717890625000003
vt 0.544152734375 0.24981328125000002
vt 0.528825 0.24981328125000002
vt 0.54498359375 0.21717890625000003
vt 0.56195140625 0.21804367187499996
vt 0.5594601953125 0.25059343749999996
vt 0.544152734375 0.24981328125000002
vt 0.6022885546875 0.8313249218750001
vt 0.61925640625 0.83046015625
vt 0.620087265625 0.86309453125
vt 0.604779765625 0.8638746875
vt 0.61925640625 0.83046015625
vt 0.63624625 0.83046015625
vt 0.635415 0.863094921875
vt 0.620087265625 0.863094921875
vt 0.635415 0.863094921875
vt 0.650701953125 0.8642121484375
vt 0.64710328125 0.896962734375
vt 0.6342134375 0.896020703125
vt 0.459915234375 0.24087460937500005
vt 0.475242578125 0.24087460937500005
vt 0.474041015625 0.27380039062499995
vt 0.461116796875 0.27380039062499995
vt 0.491341953125 0.2626498046875
vt 0.506628515625 0.26153242187500003
vt 0.50783046875 0.29445820312500004
vt 0.494940625 0.295400390625
vt 0.506628515625 0.26153242187500003
vt 0.52195625 0.26153242187500003
vt 0.5207546875 0.29445820312500004
vt 0.50783046875 0.29445820312500004
vt 0.64210625 0.41778203125
vt 0.657433984375 0.41778203125
vt 0.65623203125 0.4507078125
vt 0.6433078125 0.4507078125
vt 0.657433984375 0.41778203125
vt 0.672720546875 0.4188994140625
vt 0.669121875 0.45165
vt 0.65623203125 0.4507078125
vt 0.589175703125 0.3251498046875
vt 0.604462265625 0.32403242187500003
vt 0.60566421875 0.35695820312500004
vt 0.592774375 0.357900390625
vt 0.604462265625 0.32403242187500003
vt 0.61979 0.32403242187500003
vt 0.6185884375 0.35695820312500004
vt 0.60566421875 0.35695820312500004
vt 0.61979 0.32403242187500003
vt 0.635076953125 0.32514964843750005
vt 0.63147828125 0.35790023437499996
vt 0.6185884375 0.35695820312500004
vt 0.663040234375 0.623687109375
vt 0.678367578125 0.623687109375
vt 0.677166015625 0.656612890625
vt 0.664241796875 0.656612890625
vt 0.421029453125 0.2548373046875
vt 0.436316015625 0.25371992187500003
vt 0.43751796875 0.28664570312500004
vt 0.424628125 0.287587890625
vt 0.436316015625 0.25371992187500003
vt 0.45164375 0.25371992187500003
vt 0.4504421875 0.28664570312500004
vt 0.43751796875 0.28664570312500004
vt 0.528825 0.24981328125000002
vt 0.544152734375 0.24981328125000002
vt 0.54295078125 0.2827390625
vt 0.5300265625 0.2827390625
vt 0.604800703125 0.8642123046875
vt 0.620087265625 0.863094921875
vt 0.62128921875 0.896020703125
vt 0.608399375 0.896962890625
vt 0.620087265625 0.863094921875
vt 0.635415 0.863094921875
vt 0.6342134375 0.896020703125
vt 0.62128921875 0.896020703125
vt 0.6342134375 0.896020703125
vt 0.6470769921875 0.8972715234374999
vt 0.642236328125 0.9303312890625
vt 0.6325946875 0.92939375
vt 0.461116796875 0.27380039062499995
vt 0.474041015625 0.27380039062499995
vt 0.47242265625 0.30717343750000003
vt 0.462735546875 0.30717343750000003
vt 0.4949669140625 0.2957088671875
vt 0.50783046875 0.29445820312500004
vt 0.509448828125 0.32783125
vt 0.4998071875 0.32876871093750004
vt 0.50783046875 0.29445820312500004
vt 0.5207546875 0.29445820312500004
vt 0.5191359375 0.32783125
vt 0.509448828125 0.32783125
vt 0.6433078125 0.4507078125
vt 0.65623203125 0.4507078125
vt 0.654613671875 0.484080859375
vt 0.6449265625 0.484080859375
vt 0.65623203125 0.4507078125
vt 0.6690955859375 0.4519584765625
vt 0.6642553125 0.48501832031250003
vt 0.654613671875 0.484080859375
vt 0.5928006640625 0.3582088671875
vt 0.60566421875 0.35695820312500004
vt 0.607282578125 0.39033125
vt 0.5976409375 0.39126871093750004
vt 0.60566421875 0.35695820312500004
vt 0.6185884375 0.35695820312500004
vt 0.6169696875 0.39033125
vt 0.607282578125 0.39033125
vt 0.6185884375 0.35695820312500004
vt 0.6314519921875 0.35820902343750005
vt 0.626611328125 0.39126878906249996
vt 0.6169696875 0.39033125
vt 0.664241796875 0.656612890625
vt 0.677166015625 0.656612890625
vt 0.67554765625 0.6899859374999999
vt 0.665860546875 0.6899859374999999
vt 0.4246544140625 0.2878963671875
vt 0.43751796875 0.28664570312500004
vt 0.439136328125 0.32001875
vt 0.4294946875 0.32095621093750004
vt 0.43751796875 0.28664570312500004
vt 0.4504421875 0.28664570312500004
vt 0.4488234375 0.32001875
vt 0.439136328125 0.32001875
vt 0.5300265625 0.2827390625
vt 0.54295078125 0.2827390625
vt 0.541332421875 0.316112109375
vt 0.5316453125 0.316112109375
vt 0.54295078125 0.2827390625
vt 0.555840625 0.28368125
vt 0.5517936328125 0.31684749999999995
vt 0.5421323046875 0.31614128906250005
vt 0.6084256640625 0.8972713671875
vt 0.62128921875 0.896020703125
vt 0.622907578125 0.92939375
vt 0.6132659375 0.9303312109375
vt 0.62128921875 0.896020703125
vt 0.6342134375 0.896020703125
vt 0.6325946875 0.92939375
vt 0.622907578125 0.92939375
vt 0.6325946875 0.92939375
vt 0.6422076953125 0.9305896484375
vt 0.6359079296875 0.9641298046875
vt 0.630484140625 0.963455078125
vt 0.462735546875 0.30717343750000003
vt 0.47242265625 0.30717343750000003
vt 0.470312109375 0.341234765625
vt 0.464846484375 0.341234765625
vt 0.499835859375 0.3290273828125
vt 0.509448828125 0.32783125
vt 0.511559765625 0.361892578125
vt 0.5061358984375 0.3625670703125
vt 0.509448828125 0.32783125
vt 0.5191359375 0.32783125
vt 0.517025390625 0.361892578125
vt 0.511559765625 0.361892578125
vt 0.6449265625 0.484080859375
vt 0.654613671875 0.484080859375
vt 0.652502734375 0.5181421875000001
vt 0.647037109375 0.5181421875000001
vt 0.654613671875 0.484080859375
vt 0.664226640625 0.4852769921875
vt 0.6579265234375 0.5188170703125
vt 0.652502734375 0.5181421875000001
vt 0.5976695703125 0.3915273828125
vt 0.607282578125 0.39033125
vt 0.609393515625 0.424392578125
vt 0.6039696484375 0.4250670703125
vt 0.607282578125 0.39033125
vt 0.6169696875 0.39033125
vt 0.614859140625 0.424392578125
vt 0.609393515625 0.424392578125
vt 0.6169696875 0.39033125
vt 0.6265826953125 0.3915271484375
vt 0.6202829296875 0.4250673046875
vt 0.614859140625 0.424392578125
vt 0.665860546875 0.6899859374999999
vt 0.67554765625 0.6899859374999999
vt 0.673437109375 0.724047265625
vt 0.667971484375 0.724047265625
vt 0.429523359375 0.3212148828125
vt 0.439136328125 0.32001875
vt 0.441247265625 0.354080078125
vt 0.4358233984375 0.3547545703125
vt 0.439136328125 0.32001875
vt 0.4488234375 0.32001875
vt 0.446712890625 0.354080078125
vt 0.441247265625 0.354080078125
vt 0.5316453125 0.316112109375
vt 0.541332421875 0.316112109375
vt 0.539221484375 0.35017343749999996
vt 0.533755859375 0.35017343749999996
vt 0.5421323046875 0.31614128906250005
vt 0.5517936328125 0.31684749999999995
vt 0.5472055859375 0.3506643359375
vt 0.54175453125 0.3502658984375
vt 0.6132945703125 0.9305898828125
vt 0.622907578125 0.92939375
vt 0.625018515625 0.963455078125
vt 0.6195946484375 0.9641295703125
vt 0.622907578125 0.92939375
vt 0.6325946875 0.92939375
vt 0.630484140625 0.963455078125
vt 0.625018515625 0.963455078125
vt 0.630484140625 0.963455078125
vt 0.6358841015625 0.9642996875000001
vt 0.6277509375 0.998616015625
vt 0.464846484375 0.341234765625
vt 0.470312109375 0.341234765625
vt 0.46757890625 0.37639570312500004
vt 0.506159765625 0.362736953125
vt 0.511559765625 0.361892578125
vt 0.5142921875 0.397053515625
vt 0.511559765625 0.361892578125
vt 0.517025390625 0.361892578125
vt 0.5142921875 0.397053515625
vt 0.647037109375 0.5181421875000001
vt 0.652502734375 0.5181421875000001
vt 0.6497703125 0.553303125
vt 0.652502734375 0.5181421875000001
vt 0.657902734375 0.5189865625000001
vt 0.6497703125 0.553303125
vt 0.603993515625 0.425236953125
vt 0.609393515625 0.424392578125
vt 0.6121259375 0.459553515625
vt 0.609393515625 0.424392578125
vt 0.614859140625 0.424392578125
vt 0.6121259375 0.459553515625
vt 0.614859140625 0.424392578125
vt 0.6202591015625 0.42523718749999995
vt 0.6121259375 0.459553515625
vt 0.667971484375 0.724047265625
vt 0.673437109375 0.724047265625
vt 0.67070390625 0.759208203125
vt 0.435847265625 0.354924453125
vt 0.441247265625 0.354080078125
vt 0.4439796875 0.389241015625
vt 0.441247265625 0.354080078125
vt 0.446712890625 0.354080078125
vt 0.4439796875 0.389241015625
vt 0.533755859375 0.35017343749999996
vt 0.539221484375 0.35017343749999996
vt 0.5364890625 0.385334375
vt 0.54175453125 0.3502658984375
vt 0.5472055859375 0.3506643359375
vt 0.54191640625 0.38553246093750004
vt 0.619618515625 0.964299453125
vt 0.625018515625 0.963455078125
vt 0.6277509375 0.998616015625
vt 0.625018515625 0.963455078125
vt 0.630484140625 0.963455078125
vt 0.6277509375 0.998616015625
usemtl missile_texture
f 110/68/17 111/67/18 95/66/19 94/65/20
f 49/72/21 50/71/22 34/70/23 33/69/24
f 50/76/22 51/75/25 35/74/26 34/73/23
f 51/80/25 52/79/27 36/78/28 35/77/26
f 52/84/27 53/83/29 37/82/30 36/81/28
f 53/88/29 54/87/31 38/86/32 37/85/30
f 54/92/31 55/91/33 39/90/34 38/89/32
f 55/96/33 56/95/35 40/94/36 39/93/34
f 56/100/35 57/99/37 41/98/38 40/97/36
f 57/104/37 58/103/39 42/102/40 41/101/38
f 58/108/39 59/107/41 43/106/42 42/105/40
f 59/112/41 60/111/43 44/110/44 43/109/42
f 60/116/43 61/115/45 45/114/46 44/113/44
f 61/120/45 62/119/47 46/118/48 45/117/46
f 62/124/47 63/123/49 47/122/50 46/121/48
f 63/128/49 64/127/51 48/126/52 47/125/50
f 64/132/51 49/131/21 33/130/24 48/129/52
f 65/136/53 66/135/54 50/134/22 49/133/21
f 66/140/54 67/139/55 51/138/25 50/137/22
f 67/144/55 68/143/56 52/142/27 51/141/25
f 68/148/56 69/147/57 53/146/29 52/145/27
f 69/152/57 70/151/58 54/150/31 53/149/29
f 70/156/58 71/155/59 55/154/33 54/153/31
f 71/160/59 72/159/60 56/158/35 55/157/33
f 72/164/60 73/163/61 57/162/37 56/161/35
f 73/168/61 74/167/62 58/166/39 57/165/37
f 74/172/62 75/171/63 59/170/41 58/169/39
f 75/176/63 76/175/64 60/174/43 59/173/41
f 76/180/64 77/179/65 61/178/45 60/177/43
f 77/184/65 78/183/66 62/182/47 61/181/45
f 78/188/66 79/187/67 63/186/49 62/185/47
f 79/192/67 80/191/68 64/190/51 63/189/49
f 80/196/68 65/195/53 49/194/21 64/193/51
f 81/200/69 82/199/70 66/198/54 65/197/53
f 82/204/70 83/203/71 67/202/55 66/201/54
f 83/208/71 84/207/72 68/206/56 67/205/55
f 84/212/72 85/211/73 69/210/57 68/209/56
f 85/216/73 86/215/74 70/214/58 69/213/57
f 86/220/74 87/219/75 71/218/59 70/217/58
f 87/224/75 88/223/76 72/222/60 71/221/59
f 88/228/76 89/227/77 73/226/61 72/225/60
f 89/232/77 90/231/78 74/230/62 73/229/61
f 90/236/78 91/235/79 75/234/63 74/233/62
f 91/240/79 92/239/80 76/238/64 75/237/63
f 92/244/80 93/243/81 77/242/65 76/241/64
f 93/248/81 94/247/20 78/246/66 77/245/65
f 94/252/20 95/251/19 79/250/67 78/249/66
f 95/256/19 96/255/82 80/254/68 79/253/67
f 96/260/82 81/259/69 65/258/53 80/257/68
f 97/264/83 98/263/84 82/262/70 81/261/69
f 98/268/84 99/267/85 83/266/71 82/265/70
f 99/272/85 100/271/86 84/270/72 83/269/71
f 100/276/86 101/275/87 85/274/73 84/273/72
f 101/280/87 102/279/88 86/278/74 85/277/73
f 102/284/88 103/283/89 87/282/75 86/281/74
f 103/288/89 104/287/90 88/286/76 87/285/75
f 104/292/90 105/291/91 89/290/77 88/289/76
f 105/296/91 106/295/92 90/294/78 89/293/77
f 106/300/92 107/299/93 91/298/79 90/297/78
f 107/304/93 108/303/94 92/302/80 91/301/79
f 108/308/94 109/307/95 93/306/81 92/305/80
f 109/312/95 110/311/17 94/310/20 93/309/81
f 111/316/18 112/315/96 96/314/82 95/313/19
f 112/320/96 97/319/83 81/318/69 96/317/82
f 113/324/97 114/323/98 98/322/84 97/321/83
f 114/328/98 115/327/99 99/326/85 98/325/84
f 115/332/99 116/331/100 100/330/86 99/329/85
f 116/336/100 117/335/101 101/334/87 100/333/86
f 117/340/101 118/339/102 102/338/88 101/337/87
f 118/344/102 119/343/103 103/342/89 102/341/88
f 119/348/103 120/347/104 104/346/90 103/345/89
f 120/352/104 121/351/105 105/350/91 104/349/90
f 121/356/105 122/355/106 106/354/92 105/353/91
f 122/360/106 123/359/107 107/358/93 106/357/92
f 123/364/107 124/363/108 108/362/94 107/361/93
f 124/368/108 125/367/109 109/366/95 108/365/94
f 125/372/109 126/371/110 110/370/17 109/369/95
f 126/376/110 127/375/111 111/374/18 110/373/17
f 127/380/111 128/379/112 112/378/96 111/377/18
f 128/384/112 113/383/97 97/382/83 112/381/96
f 129/388/113 130/387/114 114/386/98 113/385/97
f 130/392/114 131/391/115 115/390/99 114/389/98
f 131/396/115 132/395/116 116/394/100 115/393/99
f 132/400/116 133/399/117 117/398/101 116/397/100
f 133/404/117 134/403/118 118/402/102 117/401/101
f 134/408/118 135/407/119 119/406/103 118/405/102
f 135/412/119 136/411/120 120/410/104 119/409/103
f 136/416/120 137/415/121 121/414/105 120/413/104
f 137/420/121 138/419/122 122/418/106 121/417/105
f 138/424/122 139/423/123 123/422/107 122/421/106
f 139/428/123 140/427/124 124/426/108 123/425/107
f 140/432/124 141/431/125 125/430/109 124/429/108
f 141/436/125 142/435/126 126/434/110 125/433/109
f 142/440/126 143/439/127 127/438/111 126/437/110
f 143/444/127 144/443/128 128/442/112 127/441/111
f 144/448/128 129/447/113 113/446/97 128/445/112
f 145/451/129 130/450/114 129/449/113
f 145/454/130 131/453/115 130/452/114
f 145/457/131 132/456/116 131/455/115
f 145/460/132 133/459/117 132/458/116
f 145/463/133 134/462/118 133/461/117
f 145/466/134 135/465/119 134/464/118
f 145/469/135 136/468/120 135/467/119
f 145/472/136 137/471/121 136/470/120
f 145/475/137 138/474/122 137/473/121
f 145/478/138 139/477/123 138/476/122
f 145/481/139 140/480/124 139/479/123
f 145/484/140 141/483/125 140/482/124
f 145/487/141 142/486/126 141/485/125
f 145/490/142 143/489/127 142/488/126
f 145/493/143 144/492/128 143/491/127
f 145/496/144 129/495/113 144/494/128
o circle
v 0.000000 0.279128 0.000000
v 0.094782 0.279128 0.353730
v 0.258948 0.279128 0.258948
v 0.353730 0.279128 0.094782
v 0.353730 0.279128 -0.094782
v 0.258948 0.279128 -0.258948
v 0.094782 0.279128 -0.353730
v -0.094782 0.279128 -0.353730
v -0.258948 0.279128 -0.258948
v -0.353730 0.279128 -0.094782
v -0.353730 0.279128 0.094782
v -0.258948 0.279128 0.258948
v -0.094782 0.279128 0.353730
vt 0.64368984375 0.55943515625
vt 0.65625 0.58118984375
vt 0.609375 0.59375
vt 0.65625 0.58118984375
vt 0.65625 0.60631015625
vt 0.609375 0.59375
vt 0.65625 0.60631015625
vt 0.64368984375 0.62806484375
vt 0.609375 0.59375
vt 0.64368984375 0.62806484375
vt 0.62193515625 0.640625
vt 0.609375 0.59375
vt 0.62193515625 0.640625
vt 0.59681484375 0.640625
vt 0.609375 0.59375
vt 0.59681484375 0.640625
vt 0.57506015625 0.62806484375
vt 0.609375 0.59375
vt 0.57506015625 0.62806484375
vt 0.5625 0.60631015625
vt 0.609375 0.59375
vt 0.5625 0.60631015625
vt 0.5625 0.58118984375
vt 0.609375 0.59375
vt 0.5625 0.58118984375
vt 0.57506015625 0.55943515625
vt 0.609375 0.59375
vt 0.57506015625 0.55943515625
vt 0.59681484375 0.546875
vt 0.609375 0.59375
vt 0.59681484375 0.546875
vt 0.62193515625 0.546875
vt 0.609375 0.59375
vt 0.62193515625 0.546875
vt 0.64368984375 0.55943515625
vt 0.609375 0.59375
usemtl missile_texture
f 146/499/145 149/498/145 148/497/145
f 146/502/145 150/501/145 149/500/145
f 146/505/145 151/504/145 150/503/145
f 146/508/145 152/507/145 151/506/145
f 146/511/145 153/510/145 152/509/145
f 146/514/145 154/513/145 153/512/145
f 146/517/145 155/516/145 154/515/145
f 146/520/145 156/519/145 155/518/145
f 146/523/145 157/522/145 156/521/145
f 146/526/145 158/525/145 157/524/145
f 146/529/145 147/528/145 158/527/145
f 146/532/145 148/531/145 147/530/145
o Fins
v 0.324253 2.018301 0.044216
v 0.348960 0.284536 0.044216
v 0.948050 0.000000 0.044216
v 0.972758 1.045543 0.044216
v 0.324253 2.018301 -0.044216
v 0.348960 0.284536 -0.044216
v 0.948050 0.000000 -0.044216
v 0.972758 1.045543 -0.044216
vt 0.597194921875 0.9140625
vt 0.4670771875 1
vt 0.328586328125 0.994751796875
vt 0.3674192578125 0.9140625
vt 0.3290478125 0.45772433593749995
vt 0.4078915234375 0.41889140625
vt 0.4131396875 0.557382265625
vt 0.3290478125 0.6875
vt 0.67578125 0.34765625
vt 0.6640625 0.34765625
vt 0.6640625 0.19273007812499998
vt 0.67578125 0.19273007812499998
vt 0.67578125 0.19273007812499998
vt 0.6640625 0.19273007812499998
vt 0.6640625 0.05413984375000003
vt 0.67578125 0.05413984375000003
vt 0.484375 0.5546875
vt 0.49609375 0.5546875
vt 0.49609375 0.640625
vt 0.484375 0.640625
vt 0.046875 0.1015625
vt 0.05859375 0.1015625
vt 0.05859375 0.33203125
vt 0.046875 0.33203125
usemtl missile_texture
f 160/536/5 161/535/5 162/534/5 159/533/5
f 163/540/13 166/539/13 165/538/13 164/537/13
f 162/544/146 166/543/146 163/542/147 159/541/147
f 161/548/148 165/547/148 166/546/146 162/545/146
f 160/552/149 164/551/149 165/550/149 161/549/149
f 159/556/150 163/555/150 164/554/150 160/553/150
v -0.014739 2.018301 0.324253
v -0.014739 0.284536 0.348960
v -0.014739 0.000000 0.948050
v -0.014739 1.045543 0.972758
v -0.103171 2.018301 0.324253
v -0.103171 0.284536 0.348960
v -0.103171 0.000000 0.948050
v -0.103171 1.045543 0.972758
vt 0.5875790234375 0.37201640625
vt 0.5928271875 0.510507265625
vt 0.5087353125 0.640625
vt 0.5087353125 0.41084933593749995
vt 0.4670771875 0.8203125
vt 0.328586328125 0.815064296875
vt 0.3674192578125 0.734375
vt 0.597194921875 0.734375
vt 0.02734375 0.17710507812499998
vt 0.02734375 0.33203125
vt 0.015625 0.33203125
vt 0.015625 0.17710507812499998
vt 0.02734375 0.03851484375000003
vt 0.02734375 0.17710507812499998
vt 0.015625 0.17710507812499998
vt 0.015625 0.03851484375000003
vt 0.6171875 0.76171875
vt 0.6171875 0.67578125
vt 0.62890625 0.67578125
vt 0.62890625 0.76171875
vt 0.078125 0.33203125
vt 0.078125 0.1015625
vt 0.08984375 0.1015625
vt 0.08984375 0.33203125
usemtl missile_texture
f 168/560/1 167/559/1 170/558/1 169/557/1
f 171/564/9 172/563/9 173/562/9 174/561/9
f 170/568/151 167/567/152 171/566/152 174/565/151
f 169/572/153 170/571/151 174/570/151 173/569/153
f 168/576/154 169/575/154 173/574/154 172/573/154
f 167/580/155 168/579/155 172/578/155 171/577/155
v -0.014739 2.018301 -0.324253
v -0.014739 0.284536 -0.348960
v -0.014739 0.000000 -0.948050
v -0.014739 1.045543 -0.972758
v -0.103171 2.018301 -0.324253
v -0.103171 0.284536 -0.348960
v -0.103171 0.000000 -0.948050
v -0.103171 1.045543 -0.972758
vt 0.597194921875 0.64453125
vt 0.4670771875 0.73046875
vt 0.328586328125 0.7252205468749999
vt 0.3674192578125 0.64453125
vt 0.3290478125 0.21944308593749995
vt 0.4078915234375 0.18061015625
vt 0.4131396875 0.31910101562500004
vt 0.3290478125 0.44921875
vt 0.04296875 0.33203125
vt 0.03125 0.33203125
vt 0.03125 0.17710507812499998
vt 0.04296875 0.17710507812499998
vt 0.04296875 0.17710507812499998
vt 0.03125 0.17710507812499998
vt 0.03125 0.03851484375000003
vt 0.04296875 0.03851484375000003
vt 0.62109375 0.45703125
vt 0.6328125 0.45703125
vt 0.6328125 0.54296875
vt 0.62109375 0.54296875
vt 0.09375 0.1015625
vt 0.10546875 0.1015625
vt 0.10546875 0.33203125
vt 0.09375 0.33203125
usemtl missile_texture
f 176/584/1 177/583/1 178/582/1 175/581/1
f 179/588/9 182/587/9 181/586/9 180/585/9
f 178/592/156 182/591/156 179/590/157 175/589/157
f 177/596/158 181/595/158 182/594/156 178/593/156
f 176/600/159 180/599/159 181/598/159 177/597/159
f 175/604/160 179/603/160 180/602/160 176/601/160
v -0.324253 2.018301 0.044216
v -0.348960 0.284536 0.044216
v -0.948050 0.000000 0.044216
v -0.972758 1.045543 0.044216
v -0.324253 2.018301 -0.044216
v -0.348960 0.284536 -0.044216
v -0.948050 0.000000 -0.044216
v -0.972758 1.045543 -0.044216
vt 0.4977352734375 0.37201640625
vt 0.5029834375 0.510507265625
vt 0.4188915625 0.640625
vt 0.4188915625 0.41084933593749995
vt 0.4670771875 0.91015625
vt 0.328586328125 0.904908046875
vt 0.3674192578125 0.82421875
vt 0.597194921875 0.82421875
vt 0.01171875 0.03851484375000003
vt 0.01171875 0.17710507812499998
vt 0 0.17710507812499998
vt 0 0.03851484375000003
vt 0.6015625 0.76171875
vt 0.6015625 0.67578125
vt 0.61328125 0.67578125
vt 0.61328125 0.76171875
vt 0.0625 0.33203125
vt 0.0625 0.1015625
vt 0.07421875 0.1015625
vt 0.07421875 0.33203125
vt 0.01171875 0.17710507812499998
vt 0.01171875 0.33203125
vt 0 0.33203125
vt 0 0.17710507812499998
usemtl missile_texture
f 184/608/5 183/607/5 186/606/5 185/605/5
f 187/612/13 188/611/13 189/610/13 190/609/13
f 185/616/161 186/615/162 190/614/162 189/613/161
f 184/620/163 185/619/163 189/618/163 188/617/163
f 183/624/164 184/623/164 188/622/164 187/621/164
f 186/628/162 183/627/165 187/626/165 190/625/162
