mtllib missile_guided_rocket.mtl
# generated by tools/small_airframes.py
o missile_guided_rocket
v 0.03000 0.00000 0.00000
v 0.02772 0.00000 0.01148
v 0.02121 0.00000 0.02121
v 0.01148 0.00000 0.02772
v 0.00000 0.00000 0.03000
v -0.01148 0.00000 0.02772
v -0.02121 0.00000 0.02121
v -0.02772 0.00000 0.01148
v -0.03000 0.00000 0.00000
v -0.02772 0.00000 -0.01148
v -0.02121 0.00000 -0.02121
v -0.01148 0.00000 -0.02772
v -0.00000 0.00000 -0.03000
v 0.01148 0.00000 -0.02772
v 0.02121 0.00000 -0.02121
v 0.02772 0.00000 -0.01148
v 0.03000 0.00000 -0.00000
v 0.03500 0.02000 0.00000
v 0.03234 0.02000 0.01339
v 0.02475 0.02000 0.02475
v 0.01339 0.02000 0.03234
v 0.00000 0.02000 0.03500
v -0.01339 0.02000 0.03234
v -0.02475 0.02000 0.02475
v -0.03234 0.02000 0.01339
v -0.03500 0.02000 0.00000
v -0.03234 0.02000 -0.01339
v -0.02475 0.02000 -0.02475
v -0.01339 0.02000 -0.03234
v -0.00000 0.02000 -0.03500
v 0.01339 0.02000 -0.03234
v 0.02475 0.02000 -0.02475
v 0.03234 0.02000 -0.01339
v 0.03500 0.02000 -0.00000
v 0.03500 1.60000 0.00000
v 0.03234 1.60000 0.01339
v 0.02475 1.60000 0.02475
v 0.01339 1.60000 0.03234
v 0.00000 1.60000 0.03500
v -0.01339 1.60000 0.03234
v -0.02475 1.60000 0.02475
v -0.03234 1.60000 0.01339
v -0.03500 1.60000 0.00000
v -0.03234 1.60000 -0.01339
v -0.02475 1.60000 -0.02475
v -0.01339 1.60000 -0.03234
v -0.00000 1.60000 -0.03500
v 0.01339 1.60000 -0.03234
v 0.02475 1.60000 -0.02475
v 0.03234 1.60000 -0.01339
v 0.03500 1.60000 -0.00000
v 0.03400 1.66000 0.00000
v 0.03141 1.66000 0.01301
v 0.02404 1.66000 0.02404
v 0.01301 1.66000 0.03141
v 0.00000 1.66000 0.03400
v -0.01301 1.66000 0.03141
v -0.02404 1.66000 0.02404
v -0.03141 1.66000 0.01301
v -0.03400 1.66000 0.00000
v -0.03141 1.66000 -0.01301
v -0.02404 1.66000 -0.02404
v -0.01301 1.66000 -0.03141
v -0.00000 1.66000 -0.03400
v 0.01301 1.66000 -0.03141
v 0.02404 1.66000 -0.02404
v 0.03141 1.66000 -0.01301
v 0.03400 1.66000 -0.00000
v 0.03000 1.72000 0.00000
v 0.02772 1.72000 0.01148
v 0.02121 1.72000 0.02121
v 0.01148 1.72000 0.02772
v 0.00000 1.72000 0.03000
v -0.01148 1.72000 0.02772
v -0.02121 1.72000 0.02121
v -0.02772 1.72000 0.01148
v -0.03000 1.72000 0.00000
v -0.02772 1.72000 -0.01148
v -0.02121 1.72000 -0.02121
v -0.01148 1.72000 -0.02772
v -0.00000 1.72000 -0.03000
v 0.01148 1.72000 -0.02772
v 0.02121 1.72000 -0.02121
v 0.02772 1.72000 -0.01148
v 0.03000 1.72000 -0.00000
v 0.02400 1.77000 0.00000
v 0.02217 1.77000 0.00918
v 0.01697 1.77000 0.01697
v 0.00918 1.77000 0.02217
v 0.00000 1.77000 0.02400
v -0.00918 1.77000 0.02217
v -0.01697 1.77000 0.01697
v -0.02217 1.77000 0.00918
v -0.02400 1.77000 0.00000
v -0.02217 1.77000 -0.00918
v -0.01697 1.77000 -0.01697
v -0.00918 1.77000 -0.02217
v -0.00000 1.77000 -0.02400
v 0.00918 1.77000 -0.02217
v 0.01697 1.77000 -0.01697
v 0.02217 1.77000 -0.00918
v 0.02400 1.77000 -0.00000
v 0.01700 1.81000 0.00000
v 0.01571 1.81000 0.00651
v 0.01202 1.81000 0.01202
v 0.00651 1.81000 0.01571
v 0.00000 1.81000 0.01700
v -0.00651 1.81000 0.01571
v -0.01202 1.81000 0.01202
v -0.01571 1.81000 0.00651
v -0.01700 1.81000 0.00000
v -0.01571 1.81000 -0.00651
v -0.01202 1.81000 -0.01202
v -0.00651 1.81000 -0.01571
v -0.00000 1.81000 -0.01700
v 0.00651 1.81000 -0.01571
v 0.01202 1.81000 -0.01202
v 0.01571 1.81000 -0.00651
v 0.01700 1.81000 -0.00000
v 0.01000 1.84000 0.00000
v 0.00924 1.84000 0.00383
v 0.00707 1.84000 0.00707
v 0.00383 1.84000 0.00924
v 0.00000 1.84000 0.01000
v -0.00383 1.84000 0.00924
v -0.00707 1.84000 0.00707
v -0.00924 1.84000 0.00383
v -0.01000 1.84000 0.00000
v -0.00924 1.84000 -0.00383
v -0.00707 1.84000 -0.00707
v -0.00383 1.84000 -0.00924
v -0.00000 1.84000 -0.01000
v 0.00383 1.84000 -0.00924
v 0.00707 1.84000 -0.00707
v 0.00924 1.84000 -0.00383
v 0.01000 1.84000 -0.00000
v 0.00000 1.87000 0.00000
v 0.00000 1.87000 0.00000
v 0.00000 1.87000 0.00000
v 0.00000 1.87000 0.00000
v 0.00000 1.87000 0.00000
v -0.00000 1.87000 0.00000
v -0.00000 1.87000 0.00000
v -0.00000 1.87000 0.00000
v -0.00000 1.87000 0.00000
v -0.00000 1.87000 -0.00000
v -0.00000 1.87000 -0.00000
v -0.00000 1.87000 -0.00000
v -0.00000 1.87000 -0.00000
v 0.00000 1.87000 -0.00000
v 0.00000 1.87000 -0.00000
v 0.00000 1.87000 -0.00000
v 0.00000 1.87000 -0.00000
v 0.00000 0.00000 0.00000
v 0.03325 0.00000 0.00600
v 0.09500 0.02000 0.00600
v 0.09500 0.10000 0.00600
v 0.03325 0.12000 0.00600
v 0.03325 0.00000 -0.00600
v 0.09500 0.02000 -0.00600
v 0.09500 0.10000 -0.00600
v 0.03325 0.12000 -0.00600
v 0.03325 0.00000 0.00600
v 0.09500 0.02000 0.00600
v 0.09500 0.02000 -0.00600
v 0.03325 0.00000 -0.00600
v 0.09500 0.02000 0.00600
v 0.09500 0.10000 0.00600
v 0.09500 0.10000 -0.00600
v 0.09500 0.02000 -0.00600
v 0.09500 0.10000 0.00600
v 0.03325 0.12000 0.00600
v 0.03325 0.12000 -0.00600
v 0.09500 0.10000 -0.00600
v 0.03325 0.12000 0.00600
v 0.03325 0.00000 0.00600
v 0.03325 0.00000 -0.00600
v 0.03325 0.12000 -0.00600
v -0.00600 0.00000 0.03325
v -0.00600 0.02000 0.09500
v -0.00600 0.10000 0.09500
v -0.00600 0.12000 0.03325
v 0.00600 0.00000 0.03325
v 0.00600 0.02000 0.09500
v 0.00600 0.10000 0.09500
v 0.00600 0.12000 0.03325
v -0.00600 0.00000 0.03325
v -0.00600 0.02000 0.09500
v 0.00600 0.02000 0.09500
v 0.00600 0.00000 0.03325
v -0.00600 0.02000 0.09500
v -0.00600 0.10000 0.09500
v 0.00600 0.10000 0.09500
v 0.00600 0.02000 0.09500
v -0.00600 0.10000 0.09500
v -0.00600 0.12000 0.03325
v 0.00600 0.12000 0.03325
v 0.00600 0.10000 0.09500
v -0.00600 0.12000 0.03325
v -0.00600 0.00000 0.03325
v 0.00600 0.00000 0.03325
v 0.00600 0.12000 0.03325
v -0.03325 0.00000 -0.00600
v -0.09500 0.02000 -0.00600
v -0.09500 0.10000 -0.00600
v -0.03325 0.12000 -0.00600
v -0.03325 0.00000 0.00600
v -0.09500 0.02000 0.00600
v -0.09500 0.10000 0.00600
v -0.03325 0.12000 0.00600
v -0.03325 0.00000 -0.00600
v -0.09500 0.02000 -0.00600
v -0.09500 0.02000 0.00600
v -0.03325 0.00000 0.00600
v -0.09500 0.02000 -0.00600
v -0.09500 0.10000 -0.00600
v -0.09500 0.10000 0.00600
v -0.09500 0.02000 0.00600
v -0.09500 0.10000 -0.00600
v -0.03325 0.12000 -0.00600
v -0.03325 0.12000 0.00600
v -0.09500 0.10000 0.00600
v -0.03325 0.12000 -0.00600
v -0.03325 0.00000 -0.00600
v -0.03325 0.00000 0.00600
v -0.03325 0.12000 0.00600
v 0.00600 0.00000 -0.03325
v 0.00600 0.02000 -0.09500
v 0.00600 0.10000 -0.09500
v 0.00600 0.12000 -0.03325
v -0.00600 0.00000 -0.03325
v -0.00600 0.02000 -0.09500
v -0.00600 0.10000 -0.09500
v -0.00600 0.12000 -0.03325
v 0.00600 0.00000 -0.03325
v 0.00600 0.02000 -0.09500
v -0.00600 0.02000 -0.09500
v -0.00600 0.00000 -0.03325
v 0.00600 0.02000 -0.09500
v 0.00600 0.10000 -0.09500
v -0.00600 0.10000 -0.09500
v -0.00600 0.02000 -0.09500
v 0.00600 0.10000 -0.09500
v 0.00600 0.12000 -0.03325
v -0.00600 0.12000 -0.03325
v -0.00600 0.10000 -0.09500
v 0.00600 0.12000 -0.03325
v 0.00600 0.00000 -0.03325
v -0.00600 0.00000 -0.03325
v -0.00600 0.12000 -0.03325
v 0.01927 1.10000 0.02775
v 0.05586 1.12000 0.06435
v 0.05586 1.17000 0.06435
v 0.01927 1.20000 0.02775
v 0.02775 1.10000 0.01927
v 0.06435 1.12000 0.05586
v 0.06435 1.17000 0.05586
v 0.02775 1.20000 0.01927
v 0.01927 1.10000 0.02775
v 0.05586 1.12000 0.06435
v 0.06435 1.12000 0.05586
v 0.02775 1.10000 0.01927
v 0.05586 1.12000 0.06435
v 0.05586 1.17000 0.06435
v 0.06435 1.17000 0.05586
v 0.06435 1.12000 0.05586
v 0.05586 1.17000 0.06435
v 0.01927 1.20000 0.02775
v 0.02775 1.20000 0.01927
v 0.06435 1.17000 0.05586
v 0.01927 1.20000 0.02775
v 0.01927 1.10000 0.02775
v 0.02775 1.10000 0.01927
v 0.02775 1.20000 0.01927
v -0.02775 1.10000 0.01927
v -0.06435 1.12000 0.05586
v -0.06435 1.17000 0.05586
v -0.02775 1.20000 0.01927
v -0.01927 1.10000 0.02775
v -0.05586 1.12000 0.06435
v -0.05586 1.17000 0.06435
v -0.01927 1.20000 0.02775
v -0.02775 1.10000 0.01927
v -0.06435 1.12000 0.05586
v -0.05586 1.12000 0.06435
v -0.01927 1.10000 0.02775
v -0.06435 1.12000 0.05586
v -0.06435 1.17000 0.05586
v -0.05586 1.17000 0.06435
v -0.05586 1.12000 0.06435
v -0.06435 1.17000 0.05586
v -0.02775 1.20000 0.01927
v -0.01927 1.20000 0.02775
v -0.05586 1.17000 0.06435
v -0.02775 1.20000 0.01927
v -0.02775 1.10000 0.01927
v -0.01927 1.10000 0.02775
v -0.01927 1.20000 0.02775
v -0.01927 1.10000 -0.02775
v -0.05586 1.12000 -0.06435
v -0.05586 1.17000 -0.06435
v -0.01927 1.20000 -0.02775
v -0.02775 1.10000 -0.01927
v -0.06435 1.12000 -0.05586
v -0.06435 1.17000 -0.05586
v -0.02775 1.20000 -0.01927
v -0.01927 1.10000 -0.02775
v -0.05586 1.12000 -0.06435
v -0.06435 1.12000 -0.05586
v -0.02775 1.10000 -0.01927
v -0.05586 1.12000 -0.06435
v -0.05586 1.17000 -0.06435
v -0.06435 1.17000 -0.05586
v -0.06435 1.12000 -0.05586
v -0.05586 1.17000 -0.06435
v -0.01927 1.20000 -0.02775
v -0.02775 1.20000 -0.01927
v -0.06435 1.17000 -0.05586
v -0.01927 1.20000 -0.02775
v -0.01927 1.10000 -0.02775
v -0.02775 1.10000 -0.01927
v -0.02775 1.20000 -0.01927
v 0.02775 1.10000 -0.01927
v 0.06435 1.12000 -0.05586
v 0.06435 1.17000 -0.05586
v 0.02775 1.20000 -0.01927
v 0.01927 1.10000 -0.02775
v 0.05586 1.12000 -0.06435
v 0.05586 1.17000 -0.06435
v 0.01927 1.20000 -0.02775
v 0.02775 1.10000 -0.01927
v 0.06435 1.12000 -0.05586
v 0.05586 1.12000 -0.06435
v 0.01927 1.10000 -0.02775
v 0.06435 1.12000 -0.05586
v 0.06435 1.17000 -0.05586
v 0.05586 1.17000 -0.06435
v 0.05586 1.12000 -0.06435
v 0.06435 1.17000 -0.05586
v 0.02775 1.20000 -0.01927
v 0.01927 1.20000 -0.02775
v 0.05586 1.17000 -0.06435
v 0.02775 1.20000 -0.01927
v 0.02775 1.10000 -0.01927
v 0.01927 1.10000 -0.02775
v 0.01927 1.20000 -0.02775
vt 0.00000 0.00000
vt 0.04688 0.00000
vt 0.09375 0.00000
vt 0.14062 0.00000
vt 0.18750 0.00000
vt 0.23438 0.00000
vt 0.28125 0.00000
vt 0.32812 0.00000
vt 0.37500 0.00000
vt 0.42188 0.00000
vt 0.46875 0.00000
vt 0.51562 0.00000
vt 0.56250 0.00000
vt 0.60938 0.00000
vt 0.65625 0.00000
vt 0.70312 0.00000
vt 0.75000 0.00000
vt 0.00000 0.01070
vt 0.04688 0.01070
vt 0.09375 0.01070
vt 0.14062 0.01070
vt 0.18750 0.01070
vt 0.23438 0.01070
vt 0.28125 0.01070
vt 0.32812 0.01070
vt 0.37500 0.01070
vt 0.42188 0.01070
vt 0.46875 0.01070
vt 0.51562 0.01070
vt 0.56250 0.01070
vt 0.60938 0.01070
vt 0.65625 0.01070
vt 0.70312 0.01070
vt 0.75000 0.01070
vt 0.00000 0.85561
vt 0.04688 0.85561
vt 0.09375 0.85561
vt 0.14062 0.85561
vt 0.18750 0.85561
vt 0.23438 0.85561
vt 0.28125 0.85561
vt 0.32812 0.85561
vt 0.37500 0.85561
vt 0.42188 0.85561
vt 0.46875 0.85561
vt 0.51562 0.85561
vt 0.56250 0.85561
vt 0.60938 0.85561
vt 0.65625 0.85561
vt 0.70312 0.85561
vt 0.75000 0.85561
vt 0.00000 0.88770
vt 0.04688 0.88770
vt 0.09375 0.88770
vt 0.14062 0.88770
vt 0.18750 0.88770
vt 0.23438 0.88770
vt 0.28125 0.88770
vt 0.32812 0.88770
vt 0.37500 0.88770
vt 0.42188 0.88770
vt 0.46875 0.88770
vt 0.51562 0.88770
vt 0.56250 0.88770
vt 0.60938 0.88770
vt 0.65625 0.88770
vt 0.70312 0.88770
vt 0.75000 0.88770
vt 0.00000 0.91979
vt 0.04688 0.91979
vt 0.09375 0.91979
vt 0.14062 0.91979
vt 0.18750 0.91979
vt 0.23438 0.91979
vt 0.28125 0.91979
vt 0.32812 0.91979
vt 0.37500 0.91979
vt 0.42188 0.91979
vt 0.46875 0.91979
vt 0.51562 0.91979
vt 0.56250 0.91979
vt 0.60938 0.91979
vt 0.65625 0.91979
vt 0.70312 0.91979
vt 0.75000 0.91979
vt 0.00000 0.94652
vt 0.04688 0.94652
vt 0.09375 0.94652
vt 0.14062 0.94652
vt 0.18750 0.94652
vt 0.23438 0.94652
vt 0.28125 0.94652
vt 0.32812 0.94652
vt 0.37500 0.94652
vt 0.42188 0.94652
vt 0.46875 0.94652
vt 0.51562 0.94652
vt 0.56250 0.94652
vt 0.60938 0.94652
vt 0.65625 0.94652
vt 0.70312 0.94652
vt 0.75000 0.94652
vt 0.00000 0.96791
vt 0.04688 0.96791
vt 0.09375 0.96791
vt 0.14062 0.96791
vt 0.18750 0.96791
vt 0.23438 0.96791
vt 0.28125 0.96791
vt 0.32812 0.96791
vt 0.37500 0.96791
vt 0.42188 0.96791
vt 0.46875 0.96791
vt 0.51562 0.96791
vt 0.56250 0.96791
vt 0.60938 0.96791
vt 0.65625 0.96791
vt 0.70312 0.96791
vt 0.75000 0.96791
vt 0.00000 0.98396
vt 0.04688 0.98396
vt 0.09375 0.98396
vt 0.14062 0.98396
vt 0.18750 0.98396
vt 0.23438 0.98396
vt 0.28125 0.98396
vt 0.32812 0.98396
vt 0.37500 0.98396
vt 0.42188 0.98396
vt 0.46875 0.98396
vt 0.51562 0.98396
vt 0.56250 0.98396
vt 0.60938 0.98396
vt 0.65625 0.98396
vt 0.70312 0.98396
vt 0.75000 0.98396
vt 0.00000 1.00000
vt 0.04688 1.00000
vt 0.09375 1.00000
vt 0.14062 1.00000
vt 0.18750 1.00000
vt 0.23438 1.00000
vt 0.28125 1.00000
vt 0.32812 1.00000
vt 0.37500 1.00000
vt 0.42188 1.00000
vt 0.46875 1.00000
vt 0.51562 1.00000
vt 0.56250 1.00000
vt 0.60938 1.00000
vt 0.65625 1.00000
vt 0.70312 1.00000
vt 0.75000 1.00000
vt 0.37500 0.00000
vt 0.75000 0.00000
vt 1.00000 0.16667
vt 1.00000 0.83333
vt 0.75000 1.00000
vt 0.75000 0.00000
vt 1.00000 0.16667
vt 1.00000 0.83333
vt 0.75000 1.00000
vt 0.75000 0.00000
vt 1.00000 0.16667
vt 1.00000 0.16667
vt 0.75000 0.00000
vt 1.00000 0.16667
vt 1.00000 0.83333
vt 1.00000 0.83333
vt 1.00000 0.16667
vt 1.00000 0.83333
vt 0.75000 1.00000
vt 0.75000 1.00000
vt 1.00000 0.83333
vt 0.75000 1.00000
vt 0.75000 0.00000
vt 0.75000 0.00000
vt 0.75000 1.00000
vt 0.75000 0.00000
vt 1.00000 0.16667
vt 1.00000 0.83333
vt 0.75000 1.00000
vt 0.75000 0.00000
vt 1.00000 0.16667
vt 1.00000 0.83333
vt 0.75000 1.00000
vt 0.75000 0.00000
vt 1.00000 0.16667
vt 1.00000 0.16667
vt 0.75000 0.00000
vt 1.00000 0.16667
vt 1.00000 0.83333
vt 1.00000 0.83333
vt 1.00000 0.16667
vt 1.00000 0.83333
vt 0.75000 1.00000
vt 0.75000 1.00000
vt 1.00000 0.83333
vt 0.75000 1.00000
vt 0.75000 0.00000
vt 0.75000 0.00000
vt 0.75000 1.00000
vt 0.75000 0.00000
vt 1.00000 0.16667
vt 1.00000 0.83333
vt 0.75000 1.00000
vt 0.75000 0.00000
vt 1.00000 0.16667
vt 1.00000 0.83333
vt 0.75000 1.00000
vt 0.75000 0.00000
vt 1.00000 0.16667
vt 1.00000 0.16667
vt 0.75000 0.00000
vt 1.00000 0.16667
vt 1.00000 0.83333
vt 1.00000 0.83333
vt 1.00000 0.16667
vt 1.00000 0.83333
vt 0.75000 1.00000
vt 0.75000 1.00000
vt 1.00000 0.83333
vt 0.75000 1.00000
vt 0.75000 0.00000
vt 0.75000 0.00000
vt 0.75000 1.00000
vt 0.75000 0.00000
vt 1.00000 0.16667
vt 1.00000 0.83333
vt 0.75000 1.00000
vt 0.75000 0.00000
vt 1.00000 0.16667
vt 1.00000 0.83333
vt 0.75000 1.00000
vt 0.75000 0.00000
vt 1.00000 0.16667
vt 1.00000 0.16667
vt 0.75000 0.00000
vt 1.00000 0.16667
vt 1.00000 0.83333
vt 1.00000 0.83333
vt 1.00000 0.16667
vt 1.00000 0.83333
vt 0.75000 1.00000
vt 0.75000 1.00000
vt 1.00000 0.83333
vt 0.75000 1.00000
vt 0.75000 0.00000
vt 0.75000 0.00000
vt 0.75000 1.00000
vt 0.75000 0.00000
vt 1.00000 0.20000
vt 1.00000 0.70000
vt 0.75000 1.00000
vt 0.75000 0.00000
vt 1.00000 0.20000
vt 1.00000 0.70000
vt 0.75000 1.00000
vt 0.75000 0.00000
vt 1.00000 0.20000
vt 1.00000 0.20000
vt 0.75000 0.00000
vt 1.00000 0.20000
vt 1.00000 0.70000
vt 1.00000 0.70000
vt 1.00000 0.20000
vt 1.00000 0.70000
vt 0.75000 1.00000
vt 0.75000 1.00000
vt 1.00000 0.70000
vt 0.75000 1.00000
vt 0.75000 0.00000
vt 0.75000 0.00000
vt 0.75000 1.00000
vt 0.75000 0.00000
vt 1.00000 0.20000
vt 1.00000 0.70000
vt 0.75000 1.00000
vt 0.75000 0.00000
vt 1.00000 0.20000
vt 1.00000 0.70000
vt 0.75000 1.00000
vt 0.75000 0.00000
vt 1.00000 0.20000
vt 1.00000 0.20000
vt 0.75000 0.00000
vt 1.00000 0.20000
vt 1.00000 0.70000
vt 1.00000 0.70000
vt 1.00000 0.20000
vt 1.00000 0.70000
vt 0.75000 1.00000
vt 0.75000 1.00000
vt 1.00000 0.70000
vt 0.75000 1.00000
vt 0.75000 0.00000
vt 0.75000 0.00000
vt 0.75000 1.00000
vt 0.75000 0.00000
vt 1.00000 0.20000
vt 1.00000 0.70000
vt 0.75000 1.00000
vt 0.75000 0.00000
vt 1.00000 0.20000
vt 1.00000 0.70000
vt 0.75000 1.00000
vt 0.75000 0.00000
vt 1.00000 0.20000
vt 1.00000 0.20000
vt 0.75000 0.00000
vt 1.00000 0.20000
vt 1.00000 0.70000
vt 1.00000 0.70000
vt 1.00000 0.20000
vt 1.00000 0.70000
vt 0.75000 1.00000
vt 0.75000 1.00000
vt 1.00000 0.70000
vt 0.75000 1.00000
vt 0.75000 0.00000
vt 0.75000 0.00000
vt 0.75000 1.00000
vt 0.75000 0.00000
vt 1.00000 0.20000
vt 1.00000 0.70000
vt 0.75000 1.00000
vt 0.75000 0.00000
vt 1.00000 0.20000
vt 1.00000 0.70000
vt 0.75000 1.00000
vt 0.75000 0.00000
vt 1.00000 0.20000
vt 1.00000 0.20000
vt 0.75000 0.00000
vt 1.00000 0.20000
vt 1.00000 0.70000
vt 1.00000 0.70000
vt 1.00000 0.20000
vt 1.00000 0.70000
vt 0.75000 1.00000
vt 0.75000 1.00000
vt 1.00000 0.70000
vt 0.75000 1.00000
vt 0.75000 0.00000
vt 0.75000 0.00000
vt 0.75000 1.00000
vn 0.9701 -0.2425 0.0000
vn 0.8963 -0.2425 0.3713
vn 0.6860 -0.2425 0.6860
vn 0.3713 -0.2425 0.8963
vn 0.0000 -0.2425 0.9701
vn -0.3713 -0.2425 0.8963
vn -0.6860 -0.2425 0.6860
vn -0.8963 -0.2425 0.3713
vn -0.9701 -0.2425 0.0000
vn -0.8963 -0.2425 -0.3713
vn -0.6860 -0.2425 -0.6860
vn -0.3713 -0.2425 -0.8963
vn -0.0000 -0.2425 -0.9701
vn 0.3713 -0.2425 -0.8963
vn 0.6860 -0.2425 -0.6860
vn 0.8963 -0.2425 -0.3713
vn 0.9701 -0.2425 -0.0000
vn 1.0000 -0.0031 0.0000
vn 0.9239 -0.0031 0.3827
vn 0.7071 -0.0031 0.7071
vn 0.3827 -0.0031 0.9239
vn 0.0000 -0.0031 1.0000
vn -0.3827 -0.0031 0.9239
vn -0.7071 -0.0031 0.7071
vn -0.9239 -0.0031 0.3827
vn -1.0000 -0.0031 0.0000
vn -0.9239 -0.0031 -0.3827
vn -0.7071 -0.0031 -0.7071
vn -0.3827 -0.0031 -0.9239
vn -0.0000 -0.0031 -1.0000
vn 0.3827 -0.0031 -0.9239
vn 0.7071 -0.0031 -0.7071
vn 0.9239 -0.0031 -0.3827
vn 1.0000 -0.0031 -0.0000
vn 1.0000 0.0006 0.0000
vn 0.9239 0.0006 0.3827
vn 0.7071 0.0006 0.7071
vn 0.3827 0.0006 0.9239
vn 0.0000 0.0006 1.0000
vn -0.3827 0.0006 0.9239
vn -0.7071 0.0006 0.7071
vn -0.9239 0.0006 0.3827
vn -1.0000 0.0006 0.0000
vn -0.9239 0.0006 -0.3827
vn -0.7071 0.0006 -0.7071
vn -0.3827 0.0006 -0.9239
vn -0.0000 0.0006 -1.0000
vn 0.3827 0.0006 -0.9239
vn 0.7071 0.0006 -0.7071
vn 0.9239 0.0006 -0.3827
vn 1.0000 0.0006 -0.0000
vn 0.9991 0.0416 0.0000
vn 0.9231 0.0416 0.3824
vn 0.7065 0.0416 0.7065
vn 0.3824 0.0416 0.9231
vn 0.0000 0.0416 0.9991
vn -0.3824 0.0416 0.9231
vn -0.7065 0.0416 0.7065
vn -0.9231 0.0416 0.3824
vn -0.9991 0.0416 0.0000
vn -0.9231 0.0416 -0.3824
vn -0.7065 0.0416 -0.7065
vn -0.3824 0.0416 -0.9231
vn -0.0000 0.0416 -0.9991
vn 0.3824 0.0416 -0.9231
vn 0.7065 0.0416 -0.7065
vn 0.9231 0.0416 -0.3824
vn 0.9991 0.0416 -0.0000
vn 0.9959 0.0905 0.0000
vn 0.9201 0.0905 0.3811
vn 0.7042 0.0905 0.7042
vn 0.3811 0.0905 0.9201
vn 0.0000 0.0905 0.9959
vn -0.3811 0.0905 0.9201
vn -0.7042 0.0905 0.7042
vn -0.9201 0.0905 0.3811
vn -0.9959 0.0905 0.0000
vn -0.9201 0.0905 -0.3811
vn -0.7042 0.0905 -0.7042
vn -0.3811 0.0905 -0.9201
vn -0.0000 0.0905 -0.9959
vn 0.3811 0.0905 -0.9201
vn 0.7042 0.0905 -0.7042
vn 0.9201 0.0905 -0.3811
vn 0.9959 0.0905 -0.0000
vn 0.9897 0.1430 0.0000
vn 0.9144 0.1430 0.3788
vn 0.6998 0.1430 0.6998
vn 0.3788 0.1430 0.9144
vn 0.0000 0.1430 0.9897
vn -0.3788 0.1430 0.9144
vn -0.6998 0.1430 0.6998
vn -0.9144 0.1430 0.3788
vn -0.9897 0.1430 0.0000
vn -0.9144 0.1430 -0.3788
vn -0.6998 0.1430 -0.6998
vn -0.3788 0.1430 -0.9144
vn -0.0000 0.1430 -0.9897
vn 0.3788 0.1430 -0.9144
vn 0.6998 0.1430 -0.6998
vn 0.9144 0.1430 -0.3788
vn 0.9897 0.1430 -0.0000
vn 0.9806 0.1961 0.0000
vn 0.9059 0.1961 0.3753
vn 0.6934 0.1961 0.6934
vn 0.3753 0.1961 0.9059
vn 0.0000 0.1961 0.9806
vn -0.3753 0.1961 0.9059
vn -0.6934 0.1961 0.6934
vn -0.9059 0.1961 0.3753
vn -0.9806 0.1961 0.0000
vn -0.9059 0.1961 -0.3753
vn -0.6934 0.1961 -0.6934
vn -0.3753 0.1961 -0.9059
vn -0.0000 0.1961 -0.9806
vn 0.3753 0.1961 -0.9059
vn 0.6934 0.1961 -0.6934
vn 0.9059 0.1961 -0.3753
vn 0.9806 0.1961 -0.0000
vn 0.9621 0.2726 0.0000
vn 0.8889 0.2726 0.3682
vn 0.6803 0.2726 0.6803
vn 0.3682 0.2726 0.8889
vn 0.0000 0.2726 0.9621
vn -0.3682 0.2726 0.8889
vn -0.6803 0.2726 0.6803
vn -0.8889 0.2726 0.3682
vn -0.9621 0.2726 0.0000
vn -0.8889 0.2726 -0.3682
vn -0.6803 0.2726 -0.6803
vn -0.3682 0.2726 -0.8889
vn -0.0000 0.2726 -0.9621
vn 0.3682 0.2726 -0.8889
vn 0.6803 0.2726 -0.6803
vn 0.8889 0.2726 -0.3682
vn 0.9621 0.2726 -0.0000
vn 0.9487 0.3162 0.0000
vn 0.8765 0.3162 0.3630
vn 0.6708 0.3162 0.6708
vn 0.3630 0.3162 0.8765
vn 0.0000 0.3162 0.9487
vn -0.3630 0.3162 0.8765
vn -0.6708 0.3162 0.6708
vn -0.8765 0.3162 0.3630
vn -0.9487 0.3162 0.0000
vn -0.8765 0.3162 -0.3630
vn -0.6708 0.3162 -0.6708
vn -0.3630 0.3162 -0.8765
vn -0.0000 0.3162 -0.9487
vn 0.3630 0.3162 -0.8765
vn 0.6708 0.3162 -0.6708
vn 0.8765 0.3162 -0.3630
vn 0.9487 0.3162 -0.0000
vn 0.0000 -1.0000 0.0000
vn 0.0000 -1.0000 0.0000
vn -0.0000 0.0000 1.0000
vn 0.0000 -0.0000 -1.0000
vn 0.3081 -0.9513 0.0000
vn 1.0000 -0.0000 0.0000
vn 0.3081 0.9513 0.0000
vn -1.0000 -0.0000 -0.0000
vn -1.0000 0.0000 0.0000
vn 1.0000 -0.0000 -0.0000
vn 0.0000 -0.9513 0.3081
vn 0.0000 -0.0000 1.0000
vn 0.0000 0.9513 0.3081
vn -0.0000 -0.0000 -1.0000
vn -0.0000 0.0000 -1.0000
vn 0.0000 -0.0000 1.0000
vn -0.3081 -0.9513 0.0000
vn -1.0000 -0.0000 0.0000
vn -0.3081 0.9513 0.0000
vn 1.0000 -0.0000 -0.0000
vn 1.0000 0.0000 -0.0000
vn -1.0000 -0.0000 0.0000
vn -0.0000 -0.9513 -0.3081
vn -0.0000 -0.0000 -1.0000
vn -0.0000 0.9513 -0.3081
vn 0.0000 -0.0000 1.0000
vn -0.7071 0.0000 0.7071
vn 0.7071 -0.0000 -0.7071
vn 0.2549 -0.9328 0.2549
vn 0.7071 -0.0000 0.7071
vn 0.3546 0.8651 0.3546
vn -0.7071 -0.0000 -0.7071
vn -0.7071 0.0000 -0.7071
vn 0.7071 -0.0000 0.7071
vn -0.2549 -0.9328 0.2549
vn -0.7071 -0.0000 0.7071
vn -0.3546 0.8651 0.3546
vn 0.7071 -0.0000 -0.7071
vn 0.7071 0.0000 -0.7071
vn -0.7071 -0.0000 0.7071
vn -0.2549 -0.9328 -0.2549
vn -0.7071 -0.0000 -0.7071
vn -0.3546 0.8651 -0.3546
vn 0.7071 -0.0000 0.7071
vn 0.7071 0.0000 0.7071
vn -0.7071 -0.0000 -0.7071
vn 0.2549 -0.9328 -0.2549
vn 0.7071 -0.0000 -0.7071
vn 0.3546 0.8651 -0.3546
vn -0.7071 -0.0000 0.7071
usemtl missile_texture
s off
f 1/1/1 18/18/18 19/19/19 2/2/2
f 2/2/2 19/19/19 20/20/20 3/3/3
f 3/3/3 20/20/20 21/21/21 4/4/4
f 4/4/4 21/21/21 22/22/22 5/5/5
f 5/5/5 22/22/22 23/23/23 6/6/6
f 6/6/6 23/23/23 24/24/24 7/7/7
f 7/7/7 24/24/24 25/25/25 8/8/8
f 8/8/8 25/25/25 26/26/26 9/9/9
f 9/9/9 26/26/26 27/27/27 10/10/10
f 10/10/10 27/27/27 28/28/28 11/11/11
f 11/11/11 28/28/28 29/29/29 12/12/12
f 12/12/12 29/29/29 30/30/30 13/13/13
f 13/13/13 30/30/30 31/31/31 14/14/14
f 14/14/14 31/31/31 32/32/32 15/15/15
f 15/15/15 32/32/32 33/33/33 16/16/16
f 16/16/16 33/33/33 34/34/34 17/17/17
f 18/18/18 35/35/35 36/36/36 19/19/19
f 19/19/19 36/36/36 37/37/37 20/20/20
f 20/20/20 37/37/37 38/38/38 21/21/21
f 21/21/21 38/38/38 39/39/39 22/22/22
f 22/22/22 39/39/39 40/40/40 23/23/23
f 23/23/23 40/40/40 41/41/41 24/24/24
f 24/24/24 41/41/41 42/42/42 25/25/25
f 25/25/25 42/42/42 43/43/43 26/26/26
f 26/26/26 43/43/43 44/44/44 27/27/27
f 27/27/27 44/44/44 45/45/45 28/28/28
f 28/28/28 45/45/45 46/46/46 29/29/29
f 29/29/29 46/46/46 47/47/47 30/30/30
f 30/30/30 47/47/47 48/48/48 31/31/31
f 31/31/31 48/48/48 49/49/49 32/32/32
f 32/32/32 49/49/49 50/50/50 33/33/33
f 33/33/33 50/50/50 51/51/51 34/34/34
f 35/35/35 52/52/52 53/53/53 36/36/36
f 36/36/36 53/53/53 54/54/54 37/37/37
f 37/37/37 54/54/54 55/55/55 38/38/38
f 38/38/38 55/55/55 56/56/56 39/39/39
f 39/39/39 56/56/56 57/57/57 40/40/40
f 40/40/40 57/57/57 58/58/58 41/41/41
f 41/41/41 58/58/58 59/59/59 42/42/42
f 42/42/42 59/59/59 60/60/60 43/43/43
f 43/43/43 60/60/60 61/61/61 44/44/44
f 44/44/44 61/61/61 62/62/62 45/45/45
f 45/45/45 62/62/62 63/63/63 46/46/46
f 46/46/46 63/63/63 64/64/64 47/47/47
f 47/47/47 64/64/64 65/65/65 48/48/48
f 48/48/48 65/65/65 66/66/66 49/49/49
f 49/49/49 66/66/66 67/67/67 50/50/50
f 50/50/50 67/67/67 68/68/68 51/51/51
f 52/52/52 69/69/69 70/70/70 53/53/53
f 53/53/53 70/70/70 71/71/71 54/54/54
f 54/54/54 71/71/71 72/72/72 55/55/55
f 55/55/55 72/72/72 73/73/73 56/56/56
f 56/56/56 73/73/73 74/74/74 57/57/57
f 57/57/57 74/74/74 75/75/75 58/58/58
f 58/58/58 75/75/75 76/76/76 59/59/59
f 59/59/59 76/76/76 77/77/77 60/60/60
f 60/60/60 77/77/77 78/78/78 61/61/61
f 61/61/61 78/78/78 79/79/79 62/62/62
f 62/62/62 79/79/79 80/80/80 63/63/63
f 63/63/63 80/80/80 81/81/81 64/64/64
f 64/64/64 81/81/81 82/82/82 65/65/65
f 65/65/65 82/82/82 83/83/83 66/66/66
f 66/66/66 83/83/83 84/84/84 67/67/67
f 67/67/67 84/84/84 85/85/85 68/68/68
f 69/69/69 86/86/86 87/87/87 70/70/70
f 70/70/70 87/87/87 88/88/88 71/71/71
f 71/71/71 88/88/88 89/89/89 72/72/72
f 72/72/72 89/89/89 90/90/90 73/73/73
f 73/73/73 90/90/90 91/91/91 74/74/74
f 74/74/74 91/91/91 92/92/92 75/75/75
f 75/75/75 92/92/92 93/93/93 76/76/76
f 76/76/76 93/93/93 94/94/94 77/77/77
f 77/77/77 94/94/94 95/95/95 78/78/78
f 78/78/78 95/95/95 96/96/96 79/79/79
f 79/79/79 96/96/96 97/97/97 80/80/80
f 80/80/80 97/97/97 98/98/98 81/81/81
f 81/81/81 98/98/98 99/99/99 82/82/82
f 82/82/82 99/99/99 100/100/100 83/83/83
f 83/83/83 100/100/100 101/101/101 84/84/84
f 84/84/84 101/101/101 102/102/102 85/85/85
f 86/86/86 103/103/103 104/104/104 87/87/87
f 87/87/87 104/104/104 105/105/105 88/88/88
f 88/88/88 105/105/105 106/106/106 89/89/89
f 89/89/89 106/106/106 107/107/107 90/90/90
f 90/90/90 107/107/107 108/108/108 91/91/91
f 91/91/91 108/108/108 109/109/109 92/92/92
f 92/92/92 109/109/109 110/110/110 93/93/93
f 93/93/93 110/110/110 111/111/111 94/94/94
f 94/94/94 111/111/111 112/112/112 95/95/95
f 95/95/95 112/112/112 113/113/113 96/96/96
f 96/96/96 113/113/113 114/114/114 97/97/97
f 97/97/97 114/114/114 115/115/115 98/98/98
f 98/98/98 115/115/115 116/116/116 99/99/99
f 99/99/99 116/116/116 117/117/117 100/100/100
f 100/100/100 117/117/117 118/118/118 101/101/101
f 101/101/101 118/118/118 119/119/119 102/102/102
f 103/103/103 120/120/120 121/121/121 104/104/104
f 104/104/104 121/121/121 122/122/122 105/105/105
f 105/105/105 122/122/122 123/123/123 106/106/106
f 106/106/106 123/123/123 124/124/124 107/107/107
f 107/107/107 124/124/124 125/125/125 108/108/108
f 108/108/108 125/125/125 126/126/126 109/109/109
f 109/109/109 126/126/126 127/127/127 110/110/110
f 110/110/110 127/127/127 128/128/128 111/111/111
f 111/111/111 128/128/128 129/129/129 112/112/112
f 112/112/112 129/129/129 130/130/130 113/113/113
f 113/113/113 130/130/130 131/131/131 114/114/114
f 114/114/114 131/131/131 132/132/132 115/115/115
f 115/115/115 132/132/132 133/133/133 116/116/116
f 116/116/116 133/133/133 134/134/134 117/117/117
f 117/117/117 134/134/134 135/135/135 118/118/118
f 118/118/118 135/135/135 136/136/136 119/119/119
f 120/120/120 137/137/137 138/138/138 121/121/121
f 121/121/121 138/138/138 139/139/139 122/122/122
f 122/122/122 139/139/139 140/140/140 123/123/123
f 123/123/123 140/140/140 141/141/141 124/124/124
f 124/124/124 141/141/141 142/142/142 125/125/125
f 125/125/125 142/142/142 143/143/143 126/126/126
f 126/126/126 143/143/143 144/144/144 127/127/127
f 127/127/127 144/144/144 145/145/145 128/128/128
f 128/128/128 145/145/145 146/146/146 129/129/129
f 129/129/129 146/146/146 147/147/147 130/130/130
f 130/130/130 147/147/147 148/148/148 131/131/131
f 131/131/131 148/148/148 149/149/149 132/132/132
f 132/132/132 149/149/149 150/150/150 133/133/133
f 133/133/133 150/150/150 151/151/151 134/134/134
f 134/134/134 151/151/151 152/152/152 135/135/135
f 135/135/135 152/152/152 153/153/153 136/136/136
f 154/154/154 1/1/155 2/2/155
f 154/154/154 2/2/155 3/3/155
f 154/154/154 3/3/155 4/4/155
f 154/154/154 4/4/155 5/5/155
f 154/154/154 5/5/155 6/6/155
f 154/154/154 6/6/155 7/7/155
f 154/154/154 7/7/155 8/8/155
f 154/154/154 8/8/155 9/9/155
f 154/154/154 9/9/155 10/10/155
f 154/154/154 10/10/155 11/11/155
f 154/154/154 11/11/155 12/12/155
f 154/154/154 12/12/155 13/13/155
f 154/154/154 13/13/155 14/14/155
f 154/154/154 14/14/155 15/15/155
f 154/154/154 15/15/155 16/16/155
f 154/154/154 16/16/155 17/17/155
f 155/155/156 156/156/156 157/157/156 158/158/156
f 162/162/157 161/161/157 160/160/157 159/159/157
f 166/166/158 165/165/158 164/164/158 163/163/158
f 170/170/159 169/169/159 168/168/159 167/167/159
f 174/174/160 173/173/160 172/172/160 171/171/160
f 178/178/161 177/177/161 176/176/161 175/175/161
f 179/179/162 180/180/162 181/181/162 182/182/162
f 186/186/163 185/185/163 184/184/163 183/183/163
f 190/190/164 189/189/164 188/188/164 187/187/164
f 194/194/165 193/193/165 192/192/165 191/191/165
f 198/198/166 197/197/166 196/196/166 195/195/166
f 202/202/167 201/201/167 200/200/167 199/199/167
f 203/203/168 204/204/168 205/205/168 206/206/168
f 210/210/169 209/209/169 208/208/169 207/207/169
f 214/214/170 213/213/170 212/212/170 211/211/170
f 218/218/171 217/217/171 216/216/171 215/215/171
f 222/222/172 221/221/172 220/220/172 219/219/172
f 226/226/173 225/225/173 224/224/173 223/223/173
f 227/227/174 228/228/174 229/229/174 230/230/174
f 234/234/175 233/233/175 232/232/175 231/231/175
f 238/238/176 237/237/176 236/236/176 235/235/176
f 242/242/177 241/241/177 240/240/177 239/239/177
f 246/246/178 245/245/178 244/244/178 243/243/178
f 250/250/179 249/249/179 248/248/179 247/247/179
f 251/251/180 252/252/180 253/253/180 254/254/180
f 258/258/181 257/257/181 256/256/181 255/255/181
f 262/262/182 261/261/182 260/260/182 259/259/182
f 266/266/183 265/265/183 264/264/183 263/263/183
f 270/270/184 269/269/184 268/268/184 267/267/184
f 274/274/185 273/273/185 272/272/185 271/271/185
f 275/275/186 276/276/186 277/277/186 278/278/186
f 282/282/187 281/281/187 280/280/187 279/279/187
f 286/286/188 285/285/188 284/284/188 283/283/188
f 290/290/189 289/289/189 288/288/189 287/287/189
f 294/294/190 293/293/190 292/292/190 291/291/190
f 298/298/191 297/297/191 296/296/191 295/295/191
f 299/299/192 300/300/192 301/301/192 302/302/192
f 306/306/193 305/305/193 304/304/193 303/303/193
f 310/310/194 309/309/194 308/308/194 307/307/194
f 314/314/195 313/313/195 312/312/195 311/311/195
f 318/318/196 317/317/196 316/316/196 315/315/196
f 322/322/197 321/321/197 320/320/197 319/319/197
f 323/323/198 324/324/198 325/325/198 326/326/198
f 330/330/199 329/329/199 328/328/199 327/327/199
f 334/334/200 333/333/200 332/332/200 331/331/200
f 338/338/201 337/337/201 336/336/201 335/335/201
f 342/342/202 341/341/202 340/340/202 339/339/202
f 346/346/203 345/345/203 344/344/203 343/343/203
