mtllib missileneon.mtl
# Blender v2.76 (sub 0) OBJ File: 'missileNeon.blend'
# www.blender.org
o Cylinder
usemtl missile_texture
v 0.000000 1.000000 -0.500000
v 0.000000 4.000000 -0.500000
v 0.250000 1.000000 -0.433013
v 0.250000 4.000000 -0.433013
v 0.433013 1.000000 -0.250000
v 0.433013 4.000000 -0.250000
v 0.500000 1.000000 0.000000
v 0.500000 4.000000 0.000000
v 0.433013 1.000000 0.250000
v 0.433013 4.000000 0.250000
v 0.250000 1.000000 0.433013
v 0.250000 4.000000 0.433013
v 0.000000 1.000000 0.500000
v 0.000000 4.000000 0.500000
v -0.250000 1.000000 0.433013
v -0.250000 4.000000 0.433013
v -0.433013 1.000000 0.250000
v -0.433013 4.000000 0.250000
v -0.500000 1.000000 0.000000
v -0.500000 4.000000 0.000000
v -0.433013 1.000000 -0.250000
v -0.433013 4.000000 -0.250000
v -0.250000 1.000000 -0.433013
v -0.250000 4.000000 -0.433013
v 0.187500 4.500000 -0.324760
v -0.000000 4.500000 -0.375000
v 0.324759 4.500000 -0.187500
v 0.375000 4.500000 0.000000
v 0.324759 4.500000 0.187500
v 0.187500 4.500000 0.324760
v -0.000000 4.500000 0.375000
v -0.187500 4.500000 0.324760
v -0.324760 4.500000 0.187500
v -0.375000 4.500000 0.000000
v -0.324760 4.500000 -0.187500
v -0.187500 4.500000 -0.324759
v 0.187499 7.000000 -0.324760
v -0.000001 7.000000 -0.375000
v 0.324759 7.000000 -0.187500
v 0.374999 7.000000 0.000000
v 0.324759 7.000000 0.187500
v 0.187499 7.000000 0.324760
v -0.000001 7.000000 0.375000
v -0.187501 7.000000 0.324760
v -0.324760 7.000000 0.187500
v -0.375001 7.000000 0.000000
v -0.324760 7.000000 -0.187500
v -0.187501 7.000000 -0.324759
v 0.140624 7.500000 -0.243570
v -0.000001 7.500000 -0.281250
v 0.243569 7.500000 -0.140625
v 0.281249 7.500000 0.000000
v 0.243569 7.500000 0.140625
v 0.140624 7.500000 0.243570
v -0.000001 7.500000 0.281250
v -0.140626 7.500000 0.243570
v -0.243570 7.500000 0.140625
v -0.281251 7.500000 0.000000
v -0.243570 7.500000 -0.140625
v -0.140626 7.500000 -0.243570
v 0.049218 7.700000 -0.085249
v -0.000001 7.700000 -0.098437
v 0.085249 7.700000 -0.049219
v 0.098437 7.700000 0.000000
v 0.085249 7.700000 0.049219
v 0.049218 7.700000 0.085249
v -0.000001 7.700000 0.098438
v -0.049219 7.700000 0.085249
v -0.085250 7.700000 0.049219
v -0.098438 7.700000 0.000000
v -0.085250 7.700000 -0.049219
v -0.049220 7.700000 -0.085249
v -0.000001 7.750000 0.000000
v 0.000000 0.850000 -0.425000
v 0.212500 0.850000 -0.368061
v 0.368061 0.850000 -0.212500
v 0.425000 0.850000 0.000000
v 0.368061 0.850000 0.212500
v 0.212500 0.850000 0.368061
v 0.000000 0.850000 0.425000
v -0.212500 0.850000 0.368061
v -0.368061 0.850000 0.212500
v -0.425000 0.850000 0.000000
v -0.368061 0.850000 -0.212500
v -0.212500 0.850000 -0.368061
v 0.000000 0.850000 -0.212500
v 0.106250 0.850000 -0.184030
v 0.184030 0.850000 -0.106250
v 0.212500 0.850000 0.000000
v 0.184030 0.850000 0.106250
v 0.106250 0.850000 0.184030
v 0.000000 0.850000 0.212500
v -0.106250 0.850000 0.184030
v -0.184030 0.850000 0.106250
v -0.212500 0.850000 0.000000
v -0.184030 0.850000 -0.106250
v -0.106250 0.850000 -0.184030
v 0.000000 0.500000 -0.371875
v 0.185938 0.500000 -0.322053
v 0.322053 0.500000 -0.185937
v 0.371875 0.500000 0.000000
v 0.322053 0.500000 0.185938
v 0.185938 0.500000 0.322053
v 0.000000 0.500000 0.371875
v -0.185937 0.500000 0.322053
v -0.322053 0.500000 0.185938
v -0.371875 0.500000 0.000000
v -0.322053 0.500000 -0.185937
v -0.185938 0.500000 -0.322053
v 0.000000 0.000000 -0.464844
v 0.232422 0.000000 -0.402566
v 0.402567 0.000000 -0.232422
v 0.464844 0.000000 0.000000
v 0.402567 0.000000 0.232422
v 0.232422 0.000000 0.402566
v 0.000000 0.000000 0.464844
v -0.232422 0.000000 0.402567
v -0.402566 0.000000 0.232422
v -0.464844 0.000000 0.000000
v -0.402567 0.000000 -0.232422
v -0.232422 0.000000 -0.402566
v 0.000000 0.000000 -0.371875
v 0.185938 0.000000 -0.322053
v 0.322053 0.000000 -0.185937
v 0.371875 0.000000 0.000000
v 0.322053 0.000000 0.185938
v 0.185938 0.000000 0.322053
v 0.000000 0.000000 0.371875
v -0.185937 0.000000 0.322053
v -0.322053 0.000000 0.185938
v -0.371875 0.000000 0.000000
v -0.322053 0.000000 -0.185937
v -0.185938 0.000000 -0.322053
v 0.000000 0.750000 -0.130156
v 0.065078 0.750000 -0.112719
v 0.112719 0.750000 -0.065078
v 0.130156 0.750000 0.000000
v 0.112719 0.750000 0.065078
v 0.065078 0.750000 0.112719
v 0.000000 0.750000 0.130156
v -0.065078 0.750000 0.112719
v -0.112719 0.750000 0.065078
v -0.130156 0.750000 0.000000
v -0.112719 0.750000 -0.065078
v -0.065078 0.750000 -0.112719
v 0.295753 2.750000 -0.387259
v 0.387259 2.750000 -0.295753
v -0.295753 2.750000 0.387260
v -0.387260 2.750000 0.295754
v 0.295753 1.250000 -0.387259
v 0.387259 1.250000 -0.295753
v -0.295753 1.250000 0.387260
v -0.387260 1.250000 0.295754
v 0.543240 2.000000 -0.634747
v 0.634747 2.000000 -0.543240
v 0.634747 1.250000 -0.543240
v 0.543240 1.250000 -0.634747
v -0.543240 2.000000 0.634747
v -0.634747 2.000000 0.543241
v -0.634747 1.250000 0.543241
v -0.543240 1.250000 0.634747
v -0.387260 2.750000 -0.295753
v -0.295753 2.750000 -0.387259
v 0.387259 2.750000 0.295753
v 0.295753 2.750000 0.387260
v -0.387260 1.250000 -0.295753
v -0.295753 1.250000 -0.387259
v 0.387259 1.250000 0.295753
v 0.295753 1.250000 0.387260
v -0.634747 2.000000 -0.543240
v -0.543241 2.000000 -0.634747
v -0.543241 1.250000 -0.634747
v -0.634747 1.250000 -0.543240
v 0.634747 2.000000 0.543241
v 0.543241 2.000000 0.634747
v 0.543241 1.250000 0.634747
v 0.634747 1.250000 0.543241
vt 0.406849 0.497453
vt 0.370386 0.497453
vt 0.370385 0.074804
vt 0.333922 0.497453
vt 0.333922 0.074804
vt 0.297459 0.497453
vt 0.297459 0.074805
vt 0.260996 0.497453
vt 0.260996 0.074804
vt 0.224533 0.497453
vt 0.224533 0.074804
vt 0.188070 0.497453
vt 0.188070 0.074804
vt 0.151607 0.497453
vt 0.151607 0.074804
vt 0.115143 0.497453
vt 0.115144 0.074804
vt 0.078680 0.497453
vt 0.078681 0.074804
vt 0.516238 0.497453
vt 0.479775 0.497453
vt 0.479775 0.074804
vt 0.183512 0.569919
vt 0.156164 0.569919
vt 0.443312 0.497453
vt 0.406849 0.074804
vt 0.443312 0.074804
vt 0.263731 0.051337
vt 0.294725 0.051337
vt 0.835738 0.029853
vt 0.835737 0.382060
vt 0.808389 0.382060
vt 0.219975 0.569919
vt 0.192628 0.569919
vt 0.256438 0.569919
vt 0.229091 0.569919
vt 0.292901 0.569919
vt 0.438754 0.569919
vt 0.411407 0.569919
vt 0.402291 0.569919
vt 0.329365 0.569919
vt 0.475217 0.569919
vt 0.447870 0.569919
vt 0.365828 0.569919
vt 0.511680 0.569919
vt 0.484333 0.569919
vt 0.110585 0.569919
vt 0.083238 0.569919
vt 0.147049 0.569919
vt 0.890431 0.382060
vt 0.887013 0.453647
vt 0.866502 0.453647
vt 0.616959 0.029852
vt 0.644306 0.029852
vt 0.644305 0.382059
vt 0.726348 0.029852
vt 0.726347 0.382060
vt 0.699000 0.382059
vt 0.808391 0.029853
vt 0.781042 0.382060
vt 0.945128 0.029853
vt 0.945126 0.382060
vt 0.917779 0.382060
vt 0.699001 0.029852
vt 0.671653 0.382059
vt 0.781043 0.029853
vt 0.753695 0.382060
vt 0.917780 0.029853
vt 0.863085 0.029853
vt 0.863084 0.382060
vt 0.671654 0.029852
vt 0.753696 0.029852
vt 0.890433 0.029853
vt 0.729766 0.453647
vt 0.750276 0.453647
vt 0.743610 0.491234
vt 0.832318 0.453647
vt 0.640887 0.453646
vt 0.620376 0.453646
vt 0.722929 0.453647
vt 0.804971 0.453647
vt 0.784460 0.453647
vt 0.941707 0.453647
vt 0.695581 0.453647
vt 0.675071 0.453647
vt 0.777623 0.453647
vt 0.914360 0.453647
vt 0.893849 0.453647
vt 0.859665 0.453647
vt 0.839155 0.453647
vt 0.668234 0.453647
vt 0.880347 0.491234
vt 0.873168 0.491234
vt 0.825652 0.491234
vt 0.818473 0.491234
vt 0.634221 0.491234
vt 0.716262 0.491234
vt 0.709084 0.491234
vt 0.798305 0.491234
vt 0.791126 0.491234
vt 0.921197 0.453647
vt 0.935041 0.491235
vt 0.688915 0.491234
vt 0.770957 0.491234
vt 0.763779 0.491234
vt 0.907694 0.491235
vt 0.900515 0.491235
vt 0.852999 0.491234
vt 0.845820 0.491234
vt 0.661568 0.491234
vt 0.654389 0.491234
vt 0.740021 0.506369
vt 0.736431 0.491234
vt 0.712673 0.506369
vt 0.767368 0.506369
vt 0.685326 0.506369
vt 0.681737 0.491234
vt 0.657979 0.506369
vt 0.630631 0.506368
vt 0.627042 0.491234
vt 0.931452 0.506369
vt 0.927862 0.491235
vt 0.904104 0.506369
vt 0.876757 0.506369
vt 0.849410 0.506369
vt 0.822062 0.506369
vt 0.794715 0.506369
vt 0.190572 0.847732
vt 0.169403 0.868901
vt 0.155982 0.861153
vt 0.409583 0.051337
vt 0.440577 0.051337
vt 0.373120 0.051337
vt 0.404114 0.051337
vt 0.300194 0.051337
vt 0.446046 0.051337
vt 0.336657 0.051337
vt 0.516238 0.074804
vt 0.482509 0.051336
vt 0.081416 0.051336
vt 0.112409 0.051336
vt 0.117879 0.051336
vt 0.148872 0.051337
vt 0.154342 0.051337
vt 0.185335 0.051337
vt 0.190805 0.051337
vt 0.221798 0.051337
vt 0.227268 0.051337
vt 0.258262 0.051337
vt 0.309583 0.784747
vt 0.326550 0.733292
vt 0.351246 0.744498
vt 0.105896 0.932408
vt 0.090399 0.905567
vt 0.119316 0.897818
vt 0.163731 0.947905
vt 0.155982 0.918988
vt 0.169403 0.911239
vt 0.132737 0.832235
vt 0.163731 0.832235
vt 0.206069 0.874573
vt 0.177151 0.882322
vt 0.090399 0.874573
vt 0.119316 0.882322
vt 0.132737 0.947905
vt 0.140485 0.918988
vt 0.206069 0.905567
vt 0.177151 0.897818
vt 0.105896 0.847732
vt 0.127065 0.868901
vt 0.127065 0.911239
vt 0.190572 0.932408
vt 0.140485 0.861153
vt 0.193517 0.714274
vt 0.186745 0.642946
vt 0.220606 0.641342
vt 0.267562 0.771841
vt 0.274542 0.718112
vt 0.300905 0.724470
vt 0.117517 0.791150
vt 0.089966 0.744497
vt 0.114662 0.733291
vt 0.195387 0.768422
vt 0.180047 0.770615
vt 0.166671 0.718112
vt 0.288878 0.777299
vt 0.245825 0.768422
vt 0.247695 0.714274
vt 0.098277 0.801827
vt 0.066440 0.757988
vt 0.173651 0.771841
vt 0.158586 0.775474
vt 0.140307 0.724470
vt 0.223862 0.767073
vt 0.220606 0.712991
vt 0.342935 0.801828
vt 0.329491 0.794119
vt 0.137680 0.782340
vt 0.217350 0.767073
vt 0.201871 0.767807
vt 0.660851 0.892064
vt 0.648200 0.888674
vt 0.648200 0.861554
vt 0.353036 0.666718
vt 0.383906 0.680726
vt 0.288026 0.647743
vt 0.320980 0.655691
vt 0.057307 0.680725
vt 0.088177 0.666718
vt 0.153187 0.647743
vt 0.254468 0.642946
vt 0.027899 0.697588
vt 0.120232 0.655691
vt 0.413314 0.697589
vt 0.727405 0.643467
vt 0.661481 0.732788
vt 0.653421 0.727775
vt 0.534337 0.858164
vt 0.551287 0.828807
vt 0.560548 0.838068
vt 0.614544 0.811857
vt 0.611154 0.824508
vt 0.584034 0.824508
vt 0.580644 0.938371
vt 0.551287 0.921421
vt 0.560548 0.912160
vt 0.643901 0.921421
vt 0.634640 0.912160
vt 0.580644 0.811857
vt 0.643901 0.828807
vt 0.634640 0.838068
vt 0.534337 0.892064
vt 0.546988 0.888674
vt 0.614544 0.938371
vt 0.611154 0.925720
vt 0.660851 0.858164
vt 0.546988 0.861554
vt 0.584034 0.925720
vt 0.291431 0.888170
vt 0.268974 0.910628
vt 0.278465 0.875204
vt 0.653017 0.612245
vt 0.635445 0.721860
vt 0.625983 0.721106
vt 0.524561 0.643467
vt 0.590485 0.732788
vt 0.583320 0.739013
vt 0.572597 0.618650
vt 0.607298 0.724102
vt 0.598546 0.727775
vt 0.747878 0.661253
vt 0.668646 0.739013
vt 0.679369 0.618650
vt 0.644668 0.724102
vt 0.547591 0.629146
vt 0.598949 0.612245
vt 0.616521 0.721860
vt 0.765277 0.682055
vt 0.674736 0.746293
vt 0.704375 0.629146
vt 0.625983 0.610092
vt 0.504089 0.661253
vt 0.577231 0.746293
vt 0.856252 0.824927
vt 0.856252 0.719265
vt 0.874484 0.719265
vt 0.874484 0.824927
vt 0.874484 0.941528
vt 0.806943 0.719265
vt 0.856252 0.669956
vt 0.923793 0.719264
vt 0.856252 0.941528
vt 0.265554 0.569919
vt 0.374943 0.569919
vt 0.302017 0.569919
vt 0.338480 0.569919
vt 0.119701 0.569919
vt 0.616958 0.382059
vt 0.811807 0.453647
vt 0.702418 0.453647
vt 0.757113 0.453647
vt 0.647724 0.453647
vt 0.331188 0.051337
vt 0.477040 0.051336
vt 0.367651 0.051337
vt 0.513503 0.051336
vt 0.323695 0.791151
vt 0.282627 0.775474
vt 0.131629 0.784747
vt 0.303532 0.782340
vt 0.261166 0.770615
vt 0.111721 0.794119
vt 0.239342 0.767807
vt 0.374772 0.757988
vt 0.152334 0.777299
vt 0.260753 0.879950
vt 0.268973 0.875204
vt 0.286685 0.879950
vt 0.291431 0.897662
vt 0.286685 0.905882
vt 0.278465 0.910628
vt 0.260753 0.905882
vt 0.256007 0.897662
vt 0.256007 0.888170
vt 0.486690 0.682056
vt 0.806943 0.930589
vt 0.874484 0.669956
vt 0.923793 0.930589
s off
vn 0.080101 0.024912 -0.996475
vn 0.557128 0.033039 -0.829769
vn 0.425460 -0.028928 -0.904515
vn 0.897372 0.033039 -0.440037
vn 0.822258 -0.022592 -0.568667
vn 0.997165 0.033039 0.067602
vn 0.996157 -0.016067 -0.086103
vn 0.825651 0.040551 0.562723
vn 0.906664 -0.022578 0.421250
vn 0.422679 0.032989 0.905679
vn 0.574568 -0.022578 0.818145
vn -0.086787 0.032989 0.995681
vn 0.088518 -0.022578 0.995819
vn -0.567607 0.024912 0.822922
vn -0.421250 -0.022578 0.906664
vn -0.900158 0.040551 0.433672
vn -0.818145 -0.022578 0.574568
vn -0.995681 0.032989 -0.086787
vn -0.996063 -0.028928 0.083797
vn -0.818891 0.032989 -0.573001
vn -0.903609 -0.022592 -0.427762
vn -0.053457 0.045343 0.997540
vn -0.556730 0.059081 0.828590
vn -0.422680 0.032990 -0.905679
vn -0.088518 -0.022578 -0.995819
vn -0.572646 -0.016067 -0.819646
vn 0.727355 -0.445463 0.522032
vn 0.894427 -0.447214 -0.000000
vn 0.577103 0.045215 -0.815419
vn 0.430310 0.021986 -0.902413
vn 0.827132 0.035358 -0.560894
vn 0.452474 0.045343 0.890624
vn 0.823712 0.029308 0.566250
vn 0.994725 0.045215 0.092075
vn -0.452474 0.045343 -0.890624
vn 0.067844 0.059082 -0.995945
vn 0.907495 0.045215 -0.417621
vn -0.837166 0.045343 -0.545066
vn -0.999246 0.035687 0.015300
vn -0.865275 0.041630 0.499566
vn -0.554188 0.028977 -0.831887
vn -0.532208 0.327279 -0.780796
vn -0.070508 0.327279 -0.942294
vn -0.865688 0.027914 0.499805
vn 0.566357 0.021985 0.823867
vn 0.072184 0.035358 0.996764
vn 0.996668 0.021986 -0.078547
vn -0.999512 0.031234 -0.000000
vn -0.899316 0.035358 -0.435868
vn -0.430311 0.021985 0.902413
vn 0.899315 0.035358 0.435869
vn -0.064001 0.028977 -0.997529
vn 0.475650 0.308266 0.823851
vn 0.805441 0.367450 0.465021
vn 0.619064 0.699294 0.357417
vn 0.483196 0.295495 -0.824139
vn -0.805441 0.367450 0.465021
vn -0.955323 0.295495 0.006392
vn 0.804344 0.387050 -0.450803
vn 0.955323 0.295494 0.006392
vn 0.000000 0.367450 0.930043
vn -0.475651 0.308266 0.823850
vn -0.792023 0.404476 -0.457274
vn -0.436124 0.707925 -0.555552
vn -0.099917 0.707925 -0.699184
vn 0.263057 0.707925 -0.655472
vn 0.555552 0.707925 -0.436125
vn -0.619064 0.699294 0.357417
vn 0.332181 0.747410 0.575356
vn 0.000000 0.699295 0.714833
vn 0.699185 0.707924 -0.099917
vn -0.699184 0.707925 -0.099919
vn -0.575358 0.747409 -0.332180
vn -0.332184 0.747410 0.575354
vn 0.000000 1.000000 0.000000
vn 0.000000 -1.000000 -0.000000
vn 0.088415 -0.445462 -0.890924
vn -0.447213 -0.447214 -0.774597
vn 0.447213 -0.447214 -0.774597
vn 0.727355 -0.445463 -0.522032
vn -0.815771 -0.445462 -0.368891
vn -0.894427 -0.447214 -0.000000
vn -0.815771 -0.445462 0.368891
vn -0.522032 -0.445463 0.727355
vn -0.088415 -0.445462 0.890924
vn 0.368891 -0.445462 0.815771
vn -0.550049 0.411758 -0.726568
vn -0.518340 0.271131 -0.811056
vn -0.858689 0.282186 -0.427812
vn 0.845673 0.254239 0.469254
vn 0.851432 0.182805 0.491575
vn 0.980376 0.182289 0.075055
vn 0.354204 0.411758 -0.839640
vn 0.443227 0.271131 -0.854423
vn -0.043367 0.271131 -0.961565
vn -0.726568 0.411758 0.550049
vn -0.811056 0.271131 0.518340
vn -0.500222 0.299087 0.812604
vn 0.726569 0.411758 0.550047
vn 0.354204 0.411758 0.839640
vn 0.500222 0.299086 0.812604
vn -0.113071 0.411758 -0.904251
vn 0.726570 0.411758 -0.550047
vn 0.811056 0.271131 -0.518340
vn -0.910088 0.414415 0.000000
vn -0.963811 0.257389 0.069423
vn 0.000000 0.414415 0.910088
vn 0.000001 0.264622 0.964352
vn 0.910088 0.414415 0.000000
vn 0.963811 0.257389 -0.069422
vn -0.788159 0.414415 -0.455045
vn -0.354205 0.411757 0.839640
vn -0.425189 0.182288 -0.886558
vn -0.811504 0.182290 -0.555187
vn 0.555188 0.182289 -0.811503
vn 0.075055 0.182289 -0.980376
vn -0.886558 0.182288 0.425189
vn -0.491575 0.182805 0.851432
vn 0.491574 0.182804 0.851433
vn 0.886557 0.182290 -0.425190
vn -0.980376 0.182290 -0.075053
vn 0.000002 0.182805 0.983149
vn 0.442679 -0.306532 -0.842658
vn 0.599108 -0.303359 -0.740975
vn 0.148359 -0.303359 -0.941256
vn -0.824274 -0.306754 -0.475893
vn -0.941256 -0.303359 -0.148359
vn 0.508424 -0.306532 0.804701
vn 0.342145 -0.303359 0.889331
vn 0.740975 -0.303359 0.599108
vn -0.442681 -0.306533 0.842657
vn -0.599111 -0.303359 0.740972
vn -0.148359 -0.303359 0.941256
vn 0.804701 -0.306532 -0.508424
vn 0.889331 -0.303359 -0.342145
vn -0.475894 -0.306753 -0.824274
vn 0.037955 -0.306533 0.951103
vn -0.804702 -0.306532 0.508422
vn -0.889331 -0.303359 0.342147
vn 0.951103 -0.306533 -0.037955
vn 0.941256 -0.303359 0.148359
vn -0.037955 -0.306533 -0.951103
vn -0.951103 -0.306533 0.037955
vn 0.842658 -0.306532 0.442679
vn 0.688610 0.227229 -0.688610
vn 0.707107 0.000000 -0.707107
vn 0.640768 0.422886 -0.640768
vn 0.707105 0.000000 0.707108
vn -0.707108 0.000000 -0.707105
vn -0.698700 0.153707 0.698708
vn -0.707103 0.000000 0.707111
vn -0.640765 0.422885 0.640772
vn -0.675182 0.297066 0.675189
vn -0.688612 0.227230 -0.688608
vn -0.640768 0.422886 -0.640768
vn 0.698704 0.153707 0.698704
vn 0.640770 0.422886 0.640766
vn 0.675187 0.297067 0.675184
f 2/1/1 4/2/2 3/3/3
f 4/2/2 6/4/4 5/5/5
f 6/4/4 8/6/6 7/7/7
f 8/6/6 10/8/8 9/9/9
f 10/8/8 12/10/10 11/11/11
f 12/10/10 14/12/12 13/13/13
f 14/12/12 16/14/14 15/15/15
f 16/14/14 18/16/16 17/17/17
f 18/16/16 20/18/18 19/19/19
f 20/20/18 22/21/20 21/22/21
f 14/12/12 31/23/22 32/24/23
f 24/25/24 2/1/1 1/26/25
f 22/21/20 24/25/24 23/27/26
f 9/9/9 78/28/27 77/29/28
f 25/30/29 37/31/30 39/32/31
f 12/10/10 30/33/32 31/34/22
f 10/8/8 29/35/33 30/36/32
f 10/8/8 8/6/6 28/37/34
f 24/25/24 36/38/35 26/39/36
f 4/2/2 2/1/1 26/40/36
f 8/6/6 6/4/4 27/41/37
f 22/21/20 35/42/38 36/43/35
f 6/4/4 4/2/2 25/44/29
f 20/20/18 34/45/39 35/46/38
f 18/16/16 33/47/40 34/48/39
f 18/16/16 16/14/14 32/49/23
f 48/50/41 60/51/42 50/52/43
f 34/53/39 33/54/40 45/55/44
f 30/56/32 42/57/45 43/58/46
f 27/59/37 39/32/31 40/60/47
f 34/61/39 46/62/48 47/63/49
f 31/64/22 43/58/46 44/65/50
f 28/66/34 40/60/47 41/67/51
f 35/68/38 47/63/49 48/50/41
f 26/69/36 38/70/52 37/31/30
f 32/71/23 44/65/50 45/55/44
f 29/72/33 41/67/51 42/57/45
f 36/73/35 48/50/41 38/70/52
f 54/74/53 53/75/54 65/76/55
f 39/32/31 37/31/30 49/77/56
f 45/55/44 57/78/57 58/79/58
f 43/58/46 42/57/45 54/80/53
f 39/32/31 51/81/59 52/82/60
f 47/63/49 46/62/48 58/83/58
f 43/58/46 55/84/61 56/85/62
f 41/67/51 40/60/47 52/86/60
f 47/63/49 59/87/63 60/88/42
f 38/70/52 50/89/43 49/90/56
f 45/55/44 44/65/50 56/91/62
f 41/67/51 53/75/54 54/74/53
f 60/51/42 72/92/64 62/93/65
f 49/77/56 61/94/66 63/95/67
f 58/79/58 57/78/57 69/96/68
f 54/80/53 66/97/69 67/98/70
f 51/81/59 63/99/67 64/100/71
f 59/101/63 58/83/58 70/102/72
f 56/85/62 55/84/61 67/103/70
f 52/86/60 64/104/71 65/105/55
f 59/87/63 71/106/73 72/107/64
f 50/89/43 62/108/65 61/109/66
f 56/91/62 68/110/74 69/111/68
f 65/76/55 73/112/75 66/113/69
f 67/98/70 66/97/69 73/114/75
f 64/104/71 73/115/75 65/105/55
f 67/103/70 73/116/75 68/117/74
f 68/110/74 73/118/75 69/111/68
f 69/96/68 73/119/75 70/120/72
f 70/102/72 73/121/75 71/122/73
f 71/106/73 73/123/75 72/107/64
f 72/92/64 73/124/75 62/93/65
f 62/108/65 73/125/75 61/109/66
f 61/94/66 73/126/75 63/95/67
f 63/99/67 73/127/75 64/100/71
f 75/128/76 87/129/76 86/130/76
f 1/26/25 74/131/77 85/132/78
f 3/3/3 75/133/79 74/134/77
f 5/5/5 7/7/7 77/135/28
f 21/22/21 23/27/26 85/136/78
f 3/3/3 5/5/5 76/137/80
f 19/138/19 21/22/21 84/139/81
f 19/19/19 83/140/82 82/141/83
f 17/17/17 82/142/83 81/143/84
f 15/15/15 81/144/84 80/145/85
f 13/13/13 80/146/85 79/147/86
f 11/11/11 79/148/86 78/149/27
f 97/150/87 109/151/88 108/152/89
f 81/153/76 82/154/76 94/155/76
f 79/156/76 91/157/76 90/158/76
f 85/159/76 74/160/76 86/130/76
f 76/161/76 88/162/76 87/129/76
f 83/163/76 95/164/76 94/155/76
f 80/165/76 92/166/76 91/157/76
f 77/167/76 89/168/76 88/162/76
f 84/169/76 96/170/76 95/164/76
f 80/165/76 81/153/76 93/171/76
f 78/172/76 90/158/76 89/168/76
f 85/159/76 97/173/76 96/170/76
f 102/174/90 114/175/91 113/176/92
f 87/177/93 99/178/94 98/179/95
f 94/180/96 106/181/97 105/182/98
f 90/183/99 91/184/100 103/185/101
f 86/186/102 98/179/95 109/151/88
f 88/187/103 100/188/104 99/178/94
f 95/189/105 107/190/106 106/181/97
f 91/191/100 92/192/107 104/193/108
f 89/194/109 101/195/110 100/188/104
f 95/196/105 96/197/111 108/152/89
f 93/198/112 105/182/98 104/193/108
f 89/199/109 90/200/99 102/174/90
f 114/201/76 126/202/76 125/203/76
f 109/151/88 121/204/113 120/205/114
f 99/178/94 111/206/115 110/207/116
f 106/181/97 118/208/117 117/209/118
f 102/174/90 103/185/101 115/210/119
f 98/179/95 110/207/116 121/204/113
f 100/188/104 112/211/120 111/206/115
f 107/190/106 119/212/121 118/208/117
f 104/193/108 116/213/122 115/210/119
f 101/195/110 113/176/92 112/211/120
f 108/152/89 120/205/114 119/214/121
f 104/193/108 105/182/98 117/209/118
f 129/215/123 141/216/124 140/217/125
f 120/218/76 121/219/76 133/220/76
f 111/221/76 123/222/76 122/223/76
f 117/224/76 118/225/76 130/226/76
f 115/227/76 127/228/76 126/202/76
f 110/229/76 122/223/76 133/220/76
f 111/221/76 112/230/76 124/231/76
f 119/232/76 131/233/76 130/226/76
f 116/234/76 128/235/76 127/228/76
f 113/236/76 125/203/76 124/231/76
f 120/218/76 132/237/76 131/233/76
f 117/224/76 129/238/76 128/235/76
f 137/239/76 141/240/76 135/241/76
f 126/242/126 138/243/126 137/244/127
f 133/245/128 145/246/129 144/247/130
f 123/248/131 135/249/132 134/250/133
f 130/251/134 142/252/135 141/216/124
f 126/242/126 127/253/136 139/254/136
f 122/255/137 134/250/133 145/246/129
f 124/256/138 136/257/139 135/249/132
f 131/258/140 143/259/141 142/252/135
f 128/260/142 140/217/125 139/254/136
f 125/261/143 137/244/127 136/257/139
f 132/262/144 144/247/130 143/263/141
f 155/264/145 156/265/146 157/266/146
f 155/264/145 154/267/145 146/268/147
f 151/269/148 156/265/148 155/264/148
f 157/266/76 156/265/76 151/270/76
f 154/267/149 157/266/149 150/271/149
f 159/264/150 160/265/151 161/266/151
f 149/272/152 159/264/150 158/267/153
f 153/269/149 160/265/149 159/264/149
f 161/266/76 160/265/76 153/270/76
f 158/267/148 161/266/148 152/271/148
f 171/264/154 172/265/149 173/266/149
f 171/264/154 170/267/154 162/268/155
f 167/269/146 172/265/146 171/264/146
f 173/266/76 172/265/76 167/270/76
f 170/267/151 173/266/151 166/271/151
f 175/264/156 176/265/148 177/266/148
f 165/272/157 175/264/156 174/267/158
f 169/269/151 176/265/151 175/264/151
f 177/266/76 176/265/76 169/270/76
f 174/267/146 177/266/146 168/271/146
f 1/26/25 2/1/1 3/3/3
f 3/3/3 4/2/2 5/5/5
f 5/5/5 6/4/4 7/7/7
f 7/7/7 8/6/6 9/9/9
f 9/9/9 10/8/8 11/11/11
f 11/11/11 12/10/10 13/13/13
f 13/13/13 14/12/12 15/15/15
f 15/15/15 16/14/14 17/17/17
f 17/17/17 18/16/16 19/19/19
f 19/138/19 20/20/18 21/22/21
f 16/14/14 14/12/12 32/24/23
f 23/27/26 24/25/24 1/26/25
f 21/22/21 22/21/20 23/27/26
f 7/7/7 9/9/9 77/29/28
f 27/59/37 25/30/29 39/32/31
f 14/12/12 12/10/10 31/34/22
f 12/10/10 10/8/8 30/36/32
f 29/273/33 10/8/8 28/37/34
f 2/1/1 24/25/24 26/39/36
f 25/274/29 4/2/2 26/40/36
f 28/275/34 8/6/6 27/41/37
f 24/25/24 22/21/20 36/43/35
f 27/276/37 6/4/4 25/44/29
f 22/21/20 20/20/18 35/46/38
f 20/18/18 18/16/16 34/48/39
f 33/277/40 18/16/16 32/49/23
f 38/70/52 48/50/41 50/52/43
f 46/278/48 34/53/39 45/55/44
f 31/64/22 30/56/32 43/58/46
f 28/66/34 27/59/37 40/60/47
f 35/68/38 34/61/39 47/63/49
f 32/71/23 31/64/22 44/65/50
f 29/72/33 28/66/34 41/67/51
f 36/73/35 35/68/38 48/50/41
f 25/30/29 26/69/36 37/31/30
f 33/54/40 32/71/23 45/55/44
f 30/56/32 29/72/33 42/57/45
f 26/69/36 36/73/35 38/70/52
f 66/113/69 54/74/53 65/76/55
f 51/279/59 39/32/31 49/77/56
f 46/278/48 45/55/44 58/79/58
f 55/280/61 43/58/46 54/80/53
f 40/60/47 39/32/31 52/82/60
f 59/101/63 47/63/49 58/83/58
f 44/65/50 43/58/46 56/85/62
f 53/281/54 41/67/51 52/86/60
f 48/50/41 47/63/49 60/88/42
f 37/31/30 38/70/52 49/90/56
f 57/282/57 45/55/44 56/91/62
f 42/57/45 41/67/51 54/74/53
f 50/52/43 60/51/42 62/93/65
f 51/279/59 49/77/56 63/95/67
f 70/120/72 58/79/58 69/96/68
f 55/280/61 54/80/53 67/98/70
f 52/82/60 51/81/59 64/100/71
f 71/122/73 59/101/63 70/102/72
f 68/117/74 56/85/62 67/103/70
f 53/281/54 52/86/60 65/105/55
f 60/88/42 59/87/63 72/107/64
f 49/90/56 50/89/43 61/109/66
f 57/282/57 56/91/62 69/111/68
f 74/160/76 75/128/76 86/130/76
f 23/27/26 1/26/25 85/132/78
f 1/26/25 3/3/3 74/134/77
f 76/283/80 5/5/5 77/135/28
f 84/284/81 21/22/21 85/136/78
f 75/285/79 3/3/3 76/137/80
f 83/286/82 19/138/19 84/139/81
f 17/17/17 19/19/19 82/141/83
f 15/15/15 17/17/17 81/143/84
f 13/13/13 15/15/15 80/145/85
f 11/11/11 13/13/13 79/147/86
f 9/9/9 11/11/11 78/149/27
f 96/287/111 97/150/87 108/152/89
f 93/171/76 81/153/76 94/155/76
f 78/172/76 79/156/76 90/158/76
f 97/173/76 85/159/76 86/130/76
f 75/128/76 76/161/76 87/129/76
f 82/154/76 83/163/76 94/155/76
f 79/156/76 80/165/76 91/157/76
f 76/161/76 77/167/76 88/162/76
f 83/163/76 84/169/76 95/164/76
f 92/166/76 80/165/76 93/171/76
f 77/167/76 78/172/76 89/168/76
f 84/169/76 85/159/76 96/170/76
f 101/195/110 102/174/90 113/176/92
f 86/288/102 87/177/93 98/179/95
f 93/289/112 94/180/96 105/182/98
f 102/174/90 90/183/99 103/185/101
f 97/290/87 86/186/102 109/151/88
f 87/291/93 88/187/103 99/178/94
f 94/292/96 95/189/105 106/181/97
f 103/185/101 91/191/100 104/193/108
f 88/293/103 89/194/109 100/188/104
f 107/294/106 95/196/105 108/152/89
f 92/295/107 93/198/112 104/193/108
f 101/195/110 89/199/109 102/174/90
f 113/236/76 114/201/76 125/203/76
f 108/152/89 109/151/88 120/205/114
f 98/179/95 99/178/94 110/207/116
f 105/182/98 106/181/97 117/209/118
f 114/175/91 102/174/90 115/210/119
f 109/151/88 98/179/95 121/204/113
f 99/178/94 100/188/104 111/206/115
f 106/181/97 107/190/106 118/208/117
f 103/185/101 104/193/108 115/210/119
f 100/188/104 101/195/110 112/211/120
f 107/294/106 108/152/89 119/214/121
f 116/213/122 104/193/108 117/209/118
f 128/260/142 129/215/123 140/217/125
f 132/237/76 120/218/76 133/220/76
f 110/229/76 111/221/76 122/223/76
f 129/238/76 117/224/76 130/226/76
f 114/201/76 115/227/76 126/202/76
f 121/219/76 110/229/76 133/220/76
f 123/222/76 111/221/76 124/231/76
f 118/225/76 119/232/76 130/226/76
f 115/227/76 116/234/76 127/228/76
f 112/230/76 113/236/76 124/231/76
f 119/232/76 120/218/76 131/233/76
f 116/234/76 117/224/76 128/235/76
f 145/296/76 134/297/76 135/241/76
f 135/241/76 136/298/76 137/239/76
f 137/239/76 138/299/76 139/300/76
f 139/300/76 140/301/76 137/239/76
f 141/240/76 142/302/76 143/303/76
f 143/303/76 144/304/76 145/296/76
f 145/296/76 135/241/76 141/240/76
f 137/239/76 140/301/76 141/240/76
f 141/240/76 143/303/76 145/296/76
f 125/261/143 126/242/126 137/244/127
f 132/262/144 133/245/128 144/247/130
f 122/255/137 123/248/131 134/250/133
f 129/215/123 130/251/134 141/216/124
f 138/243/126 126/242/126 139/254/136
f 133/245/128 122/255/137 145/246/129
f 123/248/131 124/256/138 135/249/132
f 130/251/134 131/258/140 142/252/135
f 127/253/136 128/260/142 139/254/136
f 124/256/138 125/261/143 136/257/139
f 131/305/140 132/262/144 143/263/141
f 154/267/145 155/264/145 157/266/146
f 147/272/147 155/264/145 146/268/147
f 147/306/148 151/269/148 155/264/148
f 150/307/76 157/266/76 151/270/76
f 146/308/149 154/267/149 150/271/149
f 158/267/153 159/264/150 161/266/151
f 148/268/152 149/272/152 158/267/153
f 149/306/149 153/269/149 159/264/149
f 152/307/76 161/266/76 153/270/76
f 148/308/148 158/267/148 152/271/148
f 170/267/154 171/264/154 173/266/149
f 163/272/155 171/264/154 162/268/155
f 163/306/146 167/269/146 171/264/146
f 166/307/76 173/266/76 167/270/76
f 162/308/151 170/267/151 166/271/151
f 174/267/158 175/264/156 177/266/148
f 164/268/157 165/272/157 174/267/158
f 165/306/151 169/269/151 175/264/151
f 168/307/76 177/266/76 169/270/76
f 164/308/146 174/267/146 168/271/146
