mtllib missile_atgm.mtl
# generated by tools/small_airframes.py
o missile_atgm
v 0.05500 0.00000 0.00000
v 0.05081 0.00000 0.02105
v 0.03889 0.00000 0.03889
v 0.02105 0.00000 0.05081
v 0.00000 0.00000 0.05500
v -0.02105 0.00000 0.05081
v -0.03889 0.00000 0.03889
v -0.05081 0.00000 0.02105
v -0.05500 0.00000 0.00000
v -0.05081 0.00000 -0.02105
v -0.03889 0.00000 -0.03889
v -0.02105 0.00000 -0.05081
v -0.00000 0.00000 -0.05500
v 0.02105 0.00000 -0.05081
v 0.03889 0.00000 -0.03889
v 0.05081 0.00000 -0.02105
v 0.05500 0.00000 -0.00000
v 0.07000 0.03000 0.00000
v 0.06467 0.03000 0.02679
v 0.04950 0.03000 0.04950
v 0.02679 0.03000 0.06467
v 0.00000 0.03000 0.07000
v -0.02679 0.03000 0.06467
v -0.04950 0.03000 0.04950
v -0.06467 0.03000 0.02679
v -0.07000 0.03000 0.00000
v -0.06467 0.03000 -0.02679
v -0.04950 0.03000 -0.04950
v -0.02679 0.03000 -0.06467
v -0.00000 0.03000 -0.07000
v 0.02679 0.03000 -0.06467
v 0.04950 0.03000 -0.04950
v 0.06467 0.03000 -0.02679
v 0.07000 0.03000 -0.00000
v 0.08900 0.03500 0.00000
v 0.08223 0.03500 0.03406
v 0.06293 0.03500 0.06293
v 0.03406 0.03500 0.08223
v 0.00000 0.03500 0.08900
v -0.03406 0.03500 0.08223
v -0.06293 0.03500 0.06293
v -0.08223 0.03500 0.03406
v -0.08900 0.03500 0.00000
v -0.08223 0.03500 -0.03406
v -0.06293 0.03500 -0.06293
v -0.03406 0.03500 -0.08223
v -0.00000 0.03500 -0.08900
v 0.03406 0.03500 -0.08223
v 0.06293 0.03500 -0.06293
v 0.08223 0.03500 -0.03406
v 0.08900 0.03500 -0.00000
v 0.08900 1.30000 0.00000
v 0.08223 1.30000 0.03406
v 0.06293 1.30000 0.06293
v 0.03406 1.30000 0.08223
v 0.00000 1.30000 0.08900
v -0.03406 1.30000 0.08223
v -0.06293 1.30000 0.06293
v -0.08223 1.30000 0.03406
v -0.08900 1.30000 0.00000
v -0.08223 1.30000 -0.03406
v -0.06293 1.30000 -0.06293
v -0.03406 1.30000 -0.08223
v -0.00000 1.30000 -0.08900
v 0.03406 1.30000 -0.08223
v 0.06293 1.30000 -0.06293
v 0.08223 1.30000 -0.03406
v 0.08900 1.30000 -0.00000
v 0.08700 1.36000 0.00000
v 0.08038 1.36000 0.03329
v 0.06152 1.36000 0.06152
v 0.03329 1.36000 0.08038
v 0.00000 1.36000 0.08700
v -0.03329 1.36000 0.08038
v -0.06152 1.36000 0.06152
v -0.08038 1.36000 0.03329
v -0.08700 1.36000 0.00000
v -0.08038 1.36000 -0.03329
v -0.06152 1.36000 -0.06152
v -0.03329 1.36000 -0.08038
v -0.00000 1.36000 -0.08700
v 0.03329 1.36000 -0.08038
v 0.06152 1.36000 -0.06152
v 0.08038 1.36000 -0.03329
v 0.08700 1.36000 -0.00000
v 0.08000 1.42000 0.00000
v 0.07391 1.42000 0.03061
v 0.05657 1.42000 0.05657
v 0.03061 1.42000 0.07391
v 0.00000 1.42000 0.08000
v -0.03061 1.42000 0.07391
v -0.05657 1.42000 0.05657
v -0.07391 1.42000 0.03061
v -0.08000 1.42000 0.00000
v -0.07391 1.42000 -0.03061
v -0.05657 1.42000 -0.05657
v -0.03061 1.42000 -0.07391
v -0.00000 1.42000 -0.08000
v 0.03061 1.42000 -0.07391
v 0.05657 1.42000 -0.05657
v 0.07391 1.42000 -0.03061
v 0.08000 1.42000 -0.00000
v 0.06800 1.48000 0.00000
v 0.06282 1.48000 0.02602
v 0.04808 1.48000 0.04808
v 0.02602 1.48000 0.06282
v 0.00000 1.48000 0.06800
v -0.02602 1.48000 0.06282
v -0.04808 1.48000 0.04808
v -0.06282 1.48000 0.02602
v -0.06800 1.48000 0.00000
v -0.06282 1.48000 -0.02602
v -0.04808 1.48000 -0.04808
v -0.02602 1.48000 -0.06282
v -0.00000 1.48000 -0.06800
v 0.02602 1.48000 -0.06282
v 0.04808 1.48000 -0.04808
v 0.06282 1.48000 -0.02602
v 0.06800 1.48000 -0.00000
v 0.05400 1.53000 0.00000
v 0.04989 1.53000 0.02066
v 0.03818 1.53000 0.03818
v 0.02066 1.53000 0.04989
v 0.00000 1.53000 0.05400
v -0.02066 1.53000 0.04989
v -0.03818 1.53000 0.03818
v -0.04989 1.53000 0.02066
v -0.05400 1.53000 0.00000
v -0.04989 1.53000 -0.02066
v -0.03818 1.53000 -0.03818
v -0.02066 1.53000 -0.04989
v -0.00000 1.53000 -0.05400
v 0.02066 1.53000 -0.04989
v 0.03818 1.53000 -0.03818
v 0.04989 1.53000 -0.02066
v 0.05400 1.53000 -0.00000
v 0.04000 1.57000 0.00000
v 0.03696 1.57000 0.01531
v 0.02828 1.57000 0.02828
v 0.01531 1.57000 0.03696
v 0.00000 1.57000 0.04000
v -0.01531 1.57000 0.03696
v -0.02828 1.57000 0.02828
v -0.03696 1.57000 0.01531
v -0.04000 1.57000 0.00000
v -0.03696 1.57000 -0.01531
v -0.02828 1.57000 -0.02828
v -0.01531 1.57000 -0.03696
v -0.00000 1.57000 -0.04000
v 0.01531 1.57000 -0.03696
v 0.02828 1.57000 -0.02828
v 0.03696 1.57000 -0.01531
v 0.04000 1.57000 -0.00000
v 0.02600 1.60000 0.00000
v 0.02402 1.60000 0.00995
v 0.01838 1.60000 0.01838
v 0.00995 1.60000 0.02402
v 0.00000 1.60000 0.02600
v -0.00995 1.60000 0.02402
v -0.01838 1.60000 0.01838
v -0.02402 1.60000 0.00995
v -0.02600 1.60000 0.00000
v -0.02402 1.60000 -0.00995
v -0.01838 1.60000 -0.01838
v -0.00995 1.60000 -0.02402
v -0.00000 1.60000 -0.02600
v 0.00995 1.60000 -0.02402
v 0.01838 1.60000 -0.01838
v 0.02402 1.60000 -0.00995
v 0.02600 1.60000 -0.00000
v 0.01200 1.62000 0.00000
v 0.01109 1.62000 0.00459
v 0.00849 1.62000 0.00849
v 0.00459 1.62000 0.01109
v 0.00000 1.62000 0.01200
v -0.00459 1.62000 0.01109
v -0.00849 1.62000 0.00849
v -0.01109 1.62000 0.00459
v -0.01200 1.62000 0.00000
v -0.01109 1.62000 -0.00459
v -0.00849 1.62000 -0.00849
v -0.00459 1.62000 -0.01109
v -0.00000 1.62000 -0.01200
v 0.00459 1.62000 -0.01109
v 0.00849 1.62000 -0.00849
v 0.01109 1.62000 -0.00459
v 0.01200 1.62000 -0.00000
v 0.00000 1.63000 0.00000
v 0.00000 1.63000 0.00000
v 0.00000 1.63000 0.00000
v 0.00000 1.63000 0.00000
v 0.00000 1.63000 0.00000
v -0.00000 1.63000 0.00000
v -0.00000 1.63000 0.00000
v -0.00000 1.63000 0.00000
v -0.00000 1.63000 0.00000
v -0.00000 1.63000 -0.00000
v -0.00000 1.63000 -0.00000
v -0.00000 1.63000 -0.00000
v -0.00000 1.63000 -0.00000
v 0.00000 1.63000 -0.00000
v 0.00000 1.63000 -0.00000
v 0.00000 1.63000 -0.00000
v 0.00000 1.63000 -0.00000
v 0.00000 0.00000 0.00000
v 0.05554 0.10000 0.06403
v 0.11243 0.14000 0.12092
v 0.11243 0.30000 0.12092
v 0.05554 0.42000 0.06403
v 0.06403 0.10000 0.05554
v 0.12092 0.14000 0.11243
v 0.12092 0.30000 0.11243
v 0.06403 0.42000 0.05554
v 0.05554 0.10000 0.06403
v 0.11243 0.14000 0.12092
v 0.12092 0.14000 0.11243
v 0.06403 0.10000 0.05554
v 0.11243 0.14000 0.12092
v 0.11243 0.30000 0.12092
v 0.12092 0.30000 0.11243
v 0.12092 0.14000 0.11243
v 0.11243 0.30000 0.12092
v 0.05554 0.42000 0.06403
v 0.06403 0.42000 0.05554
v 0.12092 0.30000 0.11243
v 0.05554 0.42000 0.06403
v 0.05554 0.10000 0.06403
v 0.06403 0.10000 0.05554
v 0.06403 0.42000 0.05554
v -0.06403 0.10000 0.05554
v -0.12092 0.14000 0.11243
v -0.12092 0.30000 0.11243
v -0.06403 0.42000 0.05554
v -0.05554 0.10000 0.06403
v -0.11243 0.14000 0.12092
v -0.11243 0.30000 0.12092
v -0.05554 0.42000 0.06403
v -0.06403 0.10000 0.05554
v -0.12092 0.14000 0.11243
v -0.11243 0.14000 0.12092
v -0.05554 0.10000 0.06403
v -0.12092 0.14000 0.11243
v -0.12092 0.30000 0.11243
v -0.11243 0.30000 0.12092
v -0.11243 0.14000 0.12092
v -0.12092 0.30000 0.11243
v -0.06403 0.42000 0.05554
v -0.05554 0.42000 0.06403
v -0.11243 0.30000 0.12092
v -0.06403 0.42000 0.05554
v -0.06403 0.10000 0.05554
v -0.05554 0.10000 0.06403
v -0.05554 0.42000 0.06403
v -0.05554 0.10000 -0.06403
v -0.11243 0.14000 -0.12092
v -0.11243 0.30000 -0.12092
v -0.05554 0.42000 -0.06403
v -0.06403 0.10000 -0.05554
v -0.12092 0.14000 -0.11243
v -0.12092 0.30000 -0.11243
v -0.06403 0.42000 -0.05554
v -0.05554 0.10000 -0.06403
v -0.11243 0.14000 -0.12092
v -0.12092 0.14000 -0.11243
v -0.06403 0.10000 -0.05554
v -0.11243 0.14000 -0.12092
v -0.11243 0.30000 -0.12092
v -0.12092 0.30000 -0.11243
v -0.12092 0.14000 -0.11243
v -0.11243 0.30000 -0.12092
v -0.05554 0.42000 -0.06403
v -0.06403 0.42000 -0.05554
v -0.12092 0.30000 -0.11243
v -0.05554 0.42000 -0.06403
v -0.05554 0.10000 -0.06403
v -0.06403 0.10000 -0.05554
v -0.06403 0.42000 -0.05554
v 0.06403 0.10000 -0.05554
v 0.12092 0.14000 -0.11243
v 0.12092 0.30000 -0.11243
v 0.06403 0.42000 -0.05554
v 0.05554 0.10000 -0.06403
v 0.11243 0.14000 -0.12092
v 0.11243 0.30000 -0.12092
v 0.05554 0.42000 -0.06403
v 0.06403 0.10000 -0.05554
v 0.12092 0.14000 -0.11243
v 0.11243 0.14000 -0.12092
v 0.05554 0.10000 -0.06403
v 0.12092 0.14000 -0.11243
v 0.12092 0.30000 -0.11243
v 0.11243 0.30000 -0.12092
v 0.11243 0.14000 -0.12092
v 0.12092 0.30000 -0.11243
v 0.06403 0.42000 -0.05554
v 0.05554 0.42000 -0.06403
v 0.11243 0.30000 -0.12092
v 0.06403 0.42000 -0.05554
v 0.06403 0.10000 -0.05554
v 0.05554 0.10000 -0.06403
v 0.05554 0.42000 -0.06403
v 0.05554 1.18000 0.06403
v 0.09122 1.21000 0.09970
v 0.09122 1.27000 0.09970
v 0.05554 1.30000 0.06403
v 0.06403 1.18000 0.05554
v 0.09970 1.21000 0.09122
v 0.09970 1.27000 0.09122
v 0.06403 1.30000 0.05554
v 0.05554 1.18000 0.06403
v 0.09122 1.21000 0.09970
v 0.09970 1.21000 0.09122
v 0.06403 1.18000 0.05554
v 0.09122 1.21000 0.09970
v 0.09122 1.27000 0.09970
v 0.09970 1.27000 0.09122
v 0.09970 1.21000 0.09122
v 0.09122 1.27000 0.09970
v 0.05554 1.30000 0.06403
v 0.06403 1.30000 0.05554
v 0.09970 1.27000 0.09122
v 0.05554 1.30000 0.06403
v 0.05554 1.18000 0.06403
v 0.06403 1.18000 0.05554
v 0.06403 1.30000 0.05554
v -0.06403 1.18000 0.05554
v -0.09970 1.21000 0.09122
v -0.09970 1.27000 0.09122
v -0.06403 1.30000 0.05554
v -0.05554 1.18000 0.06403
v -0.09122 1.21000 0.09970
v -0.09122 1.27000 0.09970
v -0.05554 1.30000 0.06403
v -0.06403 1.18000 0.05554
v -0.09970 1.21000 0.09122
v -0.09122 1.21000 0.09970
v -0.05554 1.18000 0.06403
v -0.09970 1.21000 0.09122
v -0.09970 1.27000 0.09122
v -0.09122 1.27000 0.09970
v -0.09122 1.21000 0.09970
v -0.09970 1.27000 0.09122
v -0.06403 1.30000 0.05554
v -0.05554 1.30000 0.06403
v -0.09122 1.27000 0.09970
v -0.06403 1.30000 0.05554
v -0.06403 1.18000 0.05554
v -0.05554 1.18000 0.06403
v -0.05554 1.30000 0.06403
v -0.05554 1.18000 -0.06403
v -0.09122 1.21000 -0.09970
v -0.09122 1.27000 -0.09970
v -0.05554 1.30000 -0.06403
v -0.06403 1.18000 -0.05554
v -0.09970 1.21000 -0.09122
v -0.09970 1.27000 -0.09122
v -0.06403 1.30000 -0.05554
v -0.05554 1.18000 -0.06403
v -0.09122 1.21000 -0.09970
v -0.09970 1.21000 -0.09122
v -0.06403 1.18000 -0.05554
v -0.09122 1.21000 -0.09970
v -0.09122 1.27000 -0.09970
v -0.09970 1.27000 -0.09122
v -0.09970 1.21000 -0.09122
v -0.09122 1.27000 -0.09970
v -0.05554 1.30000 -0.06403
v -0.06403 1.30000 -0.05554
v -0.09970 1.27000 -0.09122
v -0.05554 1.30000 -0.06403
v -0.05554 1.18000 -0.06403
v -0.06403 1.18000 -0.05554
v -0.06403 1.30000 -0.05554
v 0.06403 1.18000 -0.05554
v 0.09970 1.21000 -0.09122
v 0.09970 1.27000 -0.09122
v 0.06403 1.30000 -0.05554
v 0.05554 1.18000 -0.06403
v 0.09122 1.21000 -0.09970
v 0.09122 1.27000 -0.09970
v 0.05554 1.30000 -0.06403
v 0.06403 1.18000 -0.05554
v 0.09970 1.21000 -0.09122
v 0.09122 1.21000 -0.09970
v 0.05554 1.18000 -0.06403
v 0.09970 1.21000 -0.09122
v 0.09970 1.27000 -0.09122
v 0.09122 1.27000 -0.09970
v 0.09122 1.21000 -0.09970
v 0.09970 1.27000 -0.09122
v 0.06403 1.30000 -0.05554
v 0.05554 1.30000 -0.06403
v 0.09122 1.27000 -0.09970
v 0.06403 1.30000 -0.05554
v 0.06403 1.18000 -0.05554
v 0.05554 1.18000 -0.06403
v 0.05554 1.30000 -0.06403
vt 0.00000 0.00000
vt 0.04688 0.00000
vt 0.09375 0.00000
vt 0.14062 0.00000
vt 0.18750 0.00000
vt 0.23438 0.00000
vt 0.28125 0.00000
vt 0.32812 0.00000
vt 0.37500 0.00000
vt 0.42188 0.00000
vt 0.46875 0.00000
vt 0.51562 0.00000
vt 0.56250 0.00000
vt 0.60938 0.00000
vt 0.65625 0.00000
vt 0.70312 0.00000
vt 0.75000 0.00000
vt 0.00000 0.01840
vt 0.04688 0.01840
vt 0.09375 0.01840
vt 0.14062 0.01840
vt 0.18750 0.01840
vt 0.23438 0.01840
vt 0.28125 0.01840
vt 0.32812 0.01840
vt 0.37500 0.01840
vt 0.42188 0.01840
vt 0.46875 0.01840
vt 0.51562 0.01840
vt 0.56250 0.01840
vt 0.60938 0.01840
vt 0.65625 0.01840
vt 0.70312 0.01840
vt 0.75000 0.01840
vt 0.00000 0.02147
vt 0.04688 0.02147
vt 0.09375 0.02147
vt 0.14062 0.02147
vt 0.18750 0.02147
vt 0.23438 0.02147
vt 0.28125 0.02147
vt 0.32812 0.02147
vt 0.37500 0.02147
vt 0.42188 0.02147
vt 0.46875 0.02147
vt 0.51562 0.02147
vt 0.56250 0.02147
vt 0.60938 0.02147
vt 0.65625 0.02147
vt 0.70312 0.02147
vt 0.75000 0.02147
vt 0.00000 0.79755
vt 0.04688 0.79755
vt 0.09375 0.79755
vt 0.14062 0.79755
vt 0.18750 0.79755
vt 0.23438 0.79755
vt 0.28125 0.79755
vt 0.32812 0.79755
vt 0.37500 0.79755
vt 0.42188 0.79755
vt 0.46875 0.79755
vt 0.51562 0.79755
vt 0.56250 0.79755
vt 0.60938 0.79755
vt 0.65625 0.79755
vt 0.70312 0.79755
vt 0.75000 0.79755
vt 0.00000 0.83436
vt 0.04688 0.83436
vt 0.09375 0.83436
vt 0.14062 0.83436
vt 0.18750 0.83436
vt 0.23438 0.83436
vt 0.28125 0.83436
vt 0.32812 0.83436
vt 0.37500 0.83436
vt 0.42188 0.83436
vt 0.46875 0.83436
vt 0.51562 0.83436
vt 0.56250 0.83436
vt 0.60938 0.83436
vt 0.65625 0.83436
vt 0.70312 0.83436
vt 0.75000 0.83436
vt 0.00000 0.87117
vt 0.04688 0.87117
vt 0.09375 0.87117
vt 0.14062 0.87117
vt 0.18750 0.87117
vt 0.23438 0.87117
vt 0.28125 0.87117
vt 0.32812 0.87117
vt 0.37500 0.87117
vt 0.42188 0.87117
vt 0.46875 0.87117
vt 0.51562 0.87117
vt 0.56250 0.87117
vt 0.60938 0.87117
vt 0.65625 0.87117
vt 0.70312 0.87117
vt 0.75000 0.87117
vt 0.00000 0.90798
vt 0.04688 0.90798
vt 0.09375 0.90798
vt 0.14062 0.90798
vt 0.18750 0.90798
vt 0.23438 0.90798
vt 0.28125 0.90798
vt 0.32812 0.90798
vt 0.37500 0.90798
vt 0.42188 0.90798
vt 0.46875 0.90798
vt 0.51562 0.90798
vt 0.56250 0.90798
vt 0.60938 0.90798
vt 0.65625 0.90798
vt 0.70312 0.90798
vt 0.75000 0.90798
vt 0.00000 0.93865
vt 0.04688 0.93865
vt 0.09375 0.93865
vt 0.14062 0.93865
vt 0.18750 0.93865
vt 0.23438 0.93865
vt 0.28125 0.93865
vt 0.32812 0.93865
vt 0.37500 0.93865
vt 0.42188 0.93865
vt 0.46875 0.93865
vt 0.51562 0.93865
vt 0.56250 0.93865
vt 0.60938 0.93865
vt 0.65625 0.93865
vt 0.70312 0.93865
vt 0.75000 0.93865
vt 0.00000 0.96319
vt 0.04688 0.96319
vt 0.09375 0.96319
vt 0.14062 0.96319
vt 0.18750 0.96319
vt 0.23438 0.96319
vt 0.28125 0.96319
vt 0.32812 0.96319
vt 0.37500 0.96319
vt 0.42188 0.96319
vt 0.46875 0.96319
vt 0.51562 0.96319
vt 0.56250 0.96319
vt 0.60938 0.96319
vt 0.65625 0.96319
vt 0.70312 0.96319
vt 0.75000 0.96319
vt 0.00000 0.98160
vt 0.04688 0.98160
vt 0.09375 0.98160
vt 0.14062 0.98160
vt 0.18750 0.98160
vt 0.23438 0.98160
vt 0.28125 0.98160
vt 0.32812 0.98160
vt 0.37500 0.98160
vt 0.42188 0.98160
vt 0.46875 0.98160
vt 0.51562 0.98160
vt 0.56250 0.98160
vt 0.60938 0.98160
vt 0.65625 0.98160
vt 0.70312 0.98160
vt 0.75000 0.98160
vt 0.00000 0.99387
vt 0.04688 0.99387
vt 0.09375 0.99387
vt 0.14062 0.99387
vt 0.18750 0.99387
vt 0.23438 0.99387
vt 0.28125 0.99387
vt 0.32812 0.99387
vt 0.37500 0.99387
vt 0.42188 0.99387
vt 0.46875 0.99387
vt 0.51562 0.99387
vt 0.56250 0.99387
vt 0.60938 0.99387
vt 0.65625 0.99387
vt 0.70312 0.99387
vt 0.75000 0.99387
vt 0.00000 1.00000
vt 0.04688 1.00000
vt 0.09375 1.00000
vt 0.14062 1.00000
vt 0.18750 1.00000
vt 0.23438 1.00000
vt 0.28125 1.00000
vt 0.32812 1.00000
vt 0.37500 1.00000
vt 0.42188 1.00000
vt 0.46875 1.00000
vt 0.51562 1.00000
vt 0.56250 1.00000
vt 0.60938 1.00000
vt 0.65625 1.00000
vt 0.70312 1.00000
vt 0.75000 1.00000
vt 0.37500 0.00000
vt 0.75000 0.00000
vt 1.00000 0.12500
vt 1.00000 0.62500
vt 0.75000 1.00000
vt 0.75000 0.00000
vt 1.00000 0.12500
vt 1.00000 0.62500
vt 0.75000 1.00000
vt 0.75000 0.00000
vt 1.00000 0.12500
vt 1.00000 0.12500
vt 0.75000 0.00000
vt 1.00000 0.12500
vt 1.00000 0.62500
vt 1.00000 0.62500
vt 1.00000 0.12500
vt 1.00000 0.62500
vt 0.75000 1.00000
vt 0.75000 1.00000
vt 1.00000 0.62500
vt 0.75000 1.00000
vt 0.75000 0.00000
vt 0.75000 0.00000
vt 0.75000 1.00000
vt 0.75000 0.00000
vt 1.00000 0.12500
vt 1.00000 0.62500
vt 0.75000 1.00000
vt 0.75000 0.00000
vt 1.00000 0.12500
vt 1.00000 0.62500
vt 0.75000 1.00000
vt 0.75000 0.00000
vt 1.00000 0.12500
vt 1.00000 0.12500
vt 0.75000 0.00000
vt 1.00000 0.12500
vt 1.00000 0.62500
vt 1.00000 0.62500
vt 1.00000 0.12500
vt 1.00000 0.62500
vt 0.75000 1.00000
vt 0.75000 1.00000
vt 1.00000 0.62500
vt 0.75000 1.00000
vt 0.75000 0.00000
vt 0.75000 0.00000
vt 0.75000 1.00000
vt 0.75000 0.00000
vt 1.00000 0.12500
vt 1.00000 0.62500
vt 0.75000 1.00000
vt 0.75000 0.00000
vt 1.00000 0.12500
vt 1.00000 0.62500
vt 0.75000 1.00000
vt 0.75000 0.00000
vt 1.00000 0.12500
vt 1.00000 0.12500
vt 0.75000 0.00000
vt 1.00000 0.12500
vt 1.00000 0.62500
vt 1.00000 0.62500
vt 1.00000 0.12500
vt 1.00000 0.62500
vt 0.75000 1.00000
vt 0.75000 1.00000
vt 1.00000 0.62500
vt 0.75000 1.00000
vt 0.75000 0.00000
vt 0.75000 0.00000
vt 0.75000 1.00000
vt 0.75000 0.00000
vt 1.00000 0.12500
vt 1.00000 0.62500
vt 0.75000 1.00000
vt 0.75000 0.00000
vt 1.00000 0.12500
vt 1.00000 0.62500
vt 0.75000 1.00000
vt 0.75000 0.00000
vt 1.00000 0.12500
vt 1.00000 0.12500
vt 0.75000 0.00000
vt 1.00000 0.12500
vt 1.00000 0.62500
vt 1.00000 0.62500
vt 1.00000 0.12500
vt 1.00000 0.62500
vt 0.75000 1.00000
vt 0.75000 1.00000
vt 1.00000 0.62500
vt 0.75000 1.00000
vt 0.75000 0.00000
vt 0.75000 0.00000
vt 0.75000 1.00000
vt 0.75000 0.00000
vt 1.00000 0.25000
vt 1.00000 0.75000
vt 0.75000 1.00000
vt 0.75000 0.00000
vt 1.00000 0.25000
vt 1.00000 0.75000
vt 0.75000 1.00000
vt 0.75000 0.00000
vt 1.00000 0.25000
vt 1.00000 0.25000
vt 0.75000 0.00000
vt 1.00000 0.25000
vt 1.00000 0.75000
vt 1.00000 0.75000
vt 1.00000 0.25000
vt 1.00000 0.75000
vt 0.75000 1.00000
vt 0.75000 1.00000
vt 1.00000 0.75000
vt 0.75000 1.00000
vt 0.75000 0.00000
vt 0.75000 0.00000
vt 0.75000 1.00000
vt 0.75000 0.00000
vt 1.00000 0.25000
vt 1.00000 0.75000
vt 0.75000 1.00000
vt 0.75000 0.00000
vt 1.00000 0.25000
vt 1.00000 0.75000
vt 0.75000 1.00000
vt 0.75000 0.00000
vt 1.00000 0.25000
vt 1.00000 0.25000
vt 0.75000 0.00000
vt 1.00000 0.25000
vt 1.00000 0.75000
vt 1.00000 0.75000
vt 1.00000 0.25000
vt 1.00000 0.75000
vt 0.75000 1.00000
vt 0.75000 1.00000
vt 1.00000 0.75000
vt 0.75000 1.00000
vt 0.75000 0.00000
vt 0.75000 0.00000
vt 0.75000 1.00000
vt 0.75000 0.00000
vt 1.00000 0.25000
vt 1.00000 0.75000
vt 0.75000 1.00000
vt 0.75000 0.00000
vt 1.00000 0.25000
vt 1.00000 0.75000
vt 0.75000 1.00000
vt 0.75000 0.00000
vt 1.00000 0.25000
vt 1.00000 0.25000
vt 0.75000 0.00000
vt 1.00000 0.25000
vt 1.00000 0.75000
vt 1.00000 0.75000
vt 1.00000 0.25000
vt 1.00000 0.75000
vt 0.75000 1.00000
vt 0.75000 1.00000
vt 1.00000 0.75000
vt 0.75000 1.00000
vt 0.75000 0.00000
vt 0.75000 0.00000
vt 0.75000 1.00000
vt 0.75000 0.00000
vt 1.00000 0.25000
vt 1.00000 0.75000
vt 0.75000 1.00000
vt 0.75000 0.00000
vt 1.00000 0.25000
vt 1.00000 0.75000
vt 0.75000 1.00000
vt 0.75000 0.00000
vt 1.00000 0.25000
vt 1.00000 0.25000
vt 0.75000 0.00000
vt 1.00000 0.25000
vt 1.00000 0.75000
vt 1.00000 0.75000
vt 1.00000 0.25000
vt 1.00000 0.75000
vt 0.75000 1.00000
vt 0.75000 1.00000
vt 1.00000 0.75000
vt 0.75000 1.00000
vt 0.75000 0.00000
vt 0.75000 0.00000
vt 0.75000 1.00000
vn 0.8944 -0.4472 0.0000
vn 0.8263 -0.4472 0.3423
vn 0.6325 -0.4472 0.6325
vn 0.3423 -0.4472 0.8263
vn 0.0000 -0.4472 0.8944
vn -0.3423 -0.4472 0.8263
vn -0.6325 -0.4472 0.6325
vn -0.8263 -0.4472 0.3423
vn -0.8944 -0.4472 0.0000
vn -0.8263 -0.4472 -0.3423
vn -0.6325 -0.4472 -0.6325
vn -0.3423 -0.4472 -0.8263
vn -0.0000 -0.4472 -0.8944
vn 0.3423 -0.4472 -0.8263
vn 0.6325 -0.4472 -0.6325
vn 0.8263 -0.4472 -0.3423
vn 0.8944 -0.4472 -0.0000
vn 0.7173 -0.6968 0.0000
vn 0.6627 -0.6968 0.2745
vn 0.5072 -0.6968 0.5072
vn 0.2745 -0.6968 0.6627
vn 0.0000 -0.6968 0.7173
vn -0.2745 -0.6968 0.6627
vn -0.5072 -0.6968 0.5072
vn -0.6627 -0.6968 0.2745
vn -0.7173 -0.6968 0.0000
vn -0.6627 -0.6968 -0.2745
vn -0.5072 -0.6968 -0.5072
vn -0.2745 -0.6968 -0.6627
vn -0.0000 -0.6968 -0.7173
vn 0.2745 -0.6968 -0.6627
vn 0.5072 -0.6968 -0.5072
vn 0.6627 -0.6968 -0.2745
vn 0.7173 -0.6968 -0.0000
vn 0.9999 -0.0150 0.0000
vn 0.9238 -0.0150 0.3826
vn 0.7070 -0.0150 0.7070
vn 0.3826 -0.0150 0.9238
vn 0.0000 -0.0150 0.9999
vn -0.3826 -0.0150 0.9238
vn -0.7070 -0.0150 0.7070
vn -0.9238 -0.0150 0.3826
vn -0.9999 -0.0150 0.0000
vn -0.9238 -0.0150 -0.3826
vn -0.7070 -0.0150 -0.7070
vn -0.3826 -0.0150 -0.9238
vn -0.0000 -0.0150 -0.9999
vn 0.3826 -0.0150 -0.9238
vn 0.7070 -0.0150 -0.7070
vn 0.9238 -0.0150 -0.3826
vn 0.9999 -0.0150 -0.0000
vn 1.0000 0.0015 0.0000
vn 0.9239 0.0015 0.3827
vn 0.7071 0.0015 0.7071
vn 0.3827 0.0015 0.9239
vn 0.0000 0.0015 1.0000
vn -0.3827 0.0015 0.9239
vn -0.7071 0.0015 0.7071
vn -0.9239 0.0015 0.3827
vn -1.0000 0.0015 0.0000
vn -0.9239 0.0015 -0.3827
vn -0.7071 0.0015 -0.7071
vn -0.3827 0.0015 -0.9239
vn -0.0000 0.0015 -1.0000
vn 0.3827 0.0015 -0.9239
vn 0.7071 0.0015 -0.7071
vn 0.9239 0.0015 -0.3827
vn 1.0000 0.0015 -0.0000
vn 0.9972 0.0748 0.0000
vn 0.9213 0.0748 0.3816
vn 0.7051 0.0748 0.7051
vn 0.3816 0.0748 0.9213
vn 0.0000 0.0748 0.9972
vn -0.3816 0.0748 0.9213
vn -0.7051 0.0748 0.7051
vn -0.9213 0.0748 0.3816
vn -0.9972 0.0748 0.0000
vn -0.9213 0.0748 -0.3816
vn -0.7051 0.0748 -0.7051
vn -0.3816 0.0748 -0.9213
vn -0.0000 0.0748 -0.9972
vn 0.3816 0.0748 -0.9213
vn 0.7051 0.0748 -0.7051
vn 0.9213 0.0748 -0.3816
vn 0.9972 0.0748 -0.0000
vn 0.9877 0.1564 0.0000
vn 0.9125 0.1564 0.3780
vn 0.6984 0.1564 0.6984
vn 0.3780 0.1564 0.9125
vn 0.0000 0.1564 0.9877
vn -0.3780 0.1564 0.9125
vn -0.6984 0.1564 0.6984
vn -0.9125 0.1564 0.3780
vn -0.9877 0.1564 0.0000
vn -0.9125 0.1564 -0.3780
vn -0.6984 0.1564 -0.6984
vn -0.3780 0.1564 -0.9125
vn -0.0000 0.1564 -0.9877
vn 0.3780 0.1564 -0.9125
vn 0.6984 0.1564 -0.6984
vn 0.9125 0.1564 -0.3780
vn 0.9877 0.1564 -0.0000
vn 0.9732 0.2300 0.0000
vn 0.8991 0.2300 0.3724
vn 0.6881 0.2300 0.6881
vn 0.3724 0.2300 0.8991
vn 0.0000 0.2300 0.9732
vn -0.3724 0.2300 0.8991
vn -0.6881 0.2300 0.6881
vn -0.8991 0.2300 0.3724
vn -0.9732 0.2300 0.0000
vn -0.8991 0.2300 -0.3724
vn -0.6881 0.2300 -0.6881
vn -0.3724 0.2300 -0.8991
vn -0.0000 0.2300 -0.9732
vn 0.3724 0.2300 -0.8991
vn 0.6881 0.2300 -0.6881
vn 0.8991 0.2300 -0.3724
vn 0.9732 0.2300 -0.0000
vn 0.9549 0.2971 0.0000
vn 0.8822 0.2971 0.3654
vn 0.6752 0.2971 0.6752
vn 0.3654 0.2971 0.8822
vn 0.0000 0.2971 0.9549
vn -0.3654 0.2971 0.8822
vn -0.6752 0.2971 0.6752
vn -0.8822 0.2971 0.3654
vn -0.9549 0.2971 0.0000
vn -0.8822 0.2971 -0.3654
vn -0.6752 0.2971 -0.6752
vn -0.3654 0.2971 -0.8822
vn -0.0000 0.2971 -0.9549
vn 0.3654 0.2971 -0.8822
vn 0.6752 0.2971 -0.6752
vn 0.8822 0.2971 -0.3654
vn 0.9549 0.2971 -0.0000
vn 0.9285 0.3714 0.0000
vn 0.8578 0.3714 0.3553
vn 0.6565 0.3714 0.6565
vn 0.3553 0.3714 0.8578
vn 0.0000 0.3714 0.9285
vn -0.3553 0.3714 0.8578
vn -0.6565 0.3714 0.6565
vn -0.8578 0.3714 0.3553
vn -0.9285 0.3714 0.0000
vn -0.8578 0.3714 -0.3553
vn -0.6565 0.3714 -0.6565
vn -0.3553 0.3714 -0.8578
vn -0.0000 0.3714 -0.9285
vn 0.3553 0.3714 -0.8578
vn 0.6565 0.3714 -0.6565
vn 0.8578 0.3714 -0.3553
vn 0.9285 0.3714 -0.0000
vn 0.8725 0.4886 0.0000
vn 0.8061 0.4886 0.3339
vn 0.6170 0.4886 0.6170
vn 0.3339 0.4886 0.8061
vn 0.0000 0.4886 0.8725
vn -0.3339 0.4886 0.8061
vn -0.6170 0.4886 0.6170
vn -0.8061 0.4886 0.3339
vn -0.8725 0.4886 0.0000
vn -0.8061 0.4886 -0.3339
vn -0.6170 0.4886 -0.6170
vn -0.3339 0.4886 -0.8061
vn -0.0000 0.4886 -0.8725
vn 0.3339 0.4886 -0.8061
vn 0.6170 0.4886 -0.6170
vn 0.8061 0.4886 -0.3339
vn 0.8725 0.4886 -0.0000
vn 0.7557 0.6549 0.0000
vn 0.6982 0.6549 0.2892
vn 0.5344 0.6549 0.5344
vn 0.2892 0.6549 0.6982
vn 0.0000 0.6549 0.7557
vn -0.2892 0.6549 0.6982
vn -0.5344 0.6549 0.5344
vn -0.6982 0.6549 0.2892
vn -0.7557 0.6549 0.0000
vn -0.6982 0.6549 -0.2892
vn -0.5344 0.6549 -0.5344
vn -0.2892 0.6549 -0.6982
vn -0.0000 0.6549 -0.7557
vn 0.2892 0.6549 -0.6982
vn 0.5344 0.6549 -0.5344
vn 0.6982 0.6549 -0.2892
vn 0.7557 0.6549 -0.0000
vn 0.6402 0.7682 0.0000
vn 0.5915 0.7682 0.2450
vn 0.4527 0.7682 0.4527
vn 0.2450 0.7682 0.5915
vn 0.0000 0.7682 0.6402
vn -0.2450 0.7682 0.5915
vn -0.4527 0.7682 0.4527
vn -0.5915 0.7682 0.2450
vn -0.6402 0.7682 0.0000
vn -0.5915 0.7682 -0.2450
vn -0.4527 0.7682 -0.4527
vn -0.2450 0.7682 -0.5915
vn -0.0000 0.7682 -0.6402
vn 0.2450 0.7682 -0.5915
vn 0.4527 0.7682 -0.4527
vn 0.5915 0.7682 -0.2450
vn 0.6402 0.7682 -0.0000
vn 0.0000 -1.0000 0.0000
vn 0.0000 -1.0000 0.0000
vn -0.7071 0.0000 0.7071
vn 0.7071 -0.0000 -0.7071
vn 0.3148 -0.8954 0.3148
vn 0.7071 -0.0000 0.7071
vn 0.5873 0.5569 0.5873
vn -0.7071 -0.0000 -0.7071
vn -0.7071 0.0000 -0.7071
vn 0.7071 -0.0000 0.7071
vn -0.3148 -0.8954 0.3148
vn -0.7071 -0.0000 0.7071
vn -0.5873 0.5569 0.5873
vn 0.7071 -0.0000 -0.7071
vn 0.7071 0.0000 -0.7071
vn -0.7071 -0.0000 0.7071
vn -0.3148 -0.8954 -0.3148
vn -0.7071 -0.0000 -0.7071
vn -0.5873 0.5569 -0.5873
vn 0.7071 -0.0000 0.7071
vn 0.7071 0.0000 0.7071
vn -0.7071 -0.0000 -0.7071
vn 0.3148 -0.8954 -0.3148
vn 0.7071 -0.0000 -0.7071
vn 0.5873 0.5569 -0.5873
vn -0.7071 -0.0000 0.7071
vn -0.7071 0.0000 0.7071
vn 0.7071 -0.0000 -0.7071
vn 0.3614 -0.8595 0.3614
vn 0.7071 -0.0000 0.7071
vn 0.3614 0.8595 0.3614
vn -0.7071 -0.0000 -0.7071
vn -0.7071 0.0000 -0.7071
vn 0.7071 -0.0000 0.7071
vn -0.3614 -0.8595 0.3614
vn -0.7071 -0.0000 0.7071
vn -0.3614 0.8595 0.3614
vn 0.7071 -0.0000 -0.7071
vn 0.7071 0.0000 -0.7071
vn -0.7071 -0.0000 0.7071
vn -0.3614 -0.8595 -0.3614
vn -0.7071 -0.0000 -0.7071
vn -0.3614 0.8595 -0.3614
vn 0.7071 -0.0000 0.7071
vn 0.7071 0.0000 0.7071
vn -0.7071 -0.0000 -0.7071
vn 0.3614 -0.8595 -0.3614
vn 0.7071 -0.0000 -0.7071
vn 0.3614 0.8595 -0.3614
vn -0.7071 -0.0000 0.7071
usemtl missile_texture
s off
f 1/1/1 18/18/18 19/19/19 2/2/2
f 2/2/2 19/19/19 20/20/20 3/3/3
f 3/3/3 20/20/20 21/21/21 4/4/4
f 4/4/4 21/21/21 22/22/22 5/5/5
f 5/5/5 22/22/22 23/23/23 6/6/6
f 6/6/6 23/23/23 24/24/24 7/7/7
f 7/7/7 24/24/24 25/25/25 8/8/8
f 8/8/8 25/25/25 26/26/26 9/9/9
f 9/9/9 26/26/26 27/27/27 10/10/10
f 10/10/10 27/27/27 28/28/28 11/11/11
f 11/11/11 28/28/28 29/29/29 12/12/12
f 12/12/12 29/29/29 30/30/30 13/13/13
f 13/13/13 30/30/30 31/31/31 14/14/14
f 14/14/14 31/31/31 32/32/32 15/15/15
f 15/15/15 32/32/32 33/33/33 16/16/16
f 16/16/16 33/33/33 34/34/34 17/17/17
f 18/18/18 35/35/35 36/36/36 19/19/19
f 19/19/19 36/36/36 37/37/37 20/20/20
f 20/20/20 37/37/37 38/38/38 21/21/21
f 21/21/21 38/38/38 39/39/39 22/22/22
f 22/22/22 39/39/39 40/40/40 23/23/23
f 23/23/23 40/40/40 41/41/41 24/24/24
f 24/24/24 41/41/41 42/42/42 25/25/25
f 25/25/25 42/42/42 43/43/43 26/26/26
f 26/26/26 43/43/43 44/44/44 27/27/27
f 27/27/27 44/44/44 45/45/45 28/28/28
f 28/28/28 45/45/45 46/46/46 29/29/29
f 29/29/29 46/46/46 47/47/47 30/30/30
f 30/30/30 47/47/47 48/48/48 31/31/31
f 31/31/31 48/48/48 49/49/49 32/32/32
f 32/32/32 49/49/49 50/50/50 33/33/33
f 33/33/33 50/50/50 51/51/51 34/34/34
f 35/35/35 52/52/52 53/53/53 36/36/36
f 36/36/36 53/53/53 54/54/54 37/37/37
f 37/37/37 54/54/54 55/55/55 38/38/38
f 38/38/38 55/55/55 56/56/56 39/39/39
f 39/39/39 56/56/56 57/57/57 40/40/40
f 40/40/40 57/57/57 58/58/58 41/41/41
f 41/41/41 58/58/58 59/59/59 42/42/42
f 42/42/42 59/59/59 60/60/60 43/43/43
f 43/43/43 60/60/60 61/61/61 44/44/44
f 44/44/44 61/61/61 62/62/62 45/45/45
f 45/45/45 62/62/62 63/63/63 46/46/46
f 46/46/46 63/63/63 64/64/64 47/47/47
f 47/47/47 64/64/64 65/65/65 48/48/48
f 48/48/48 65/65/65 66/66/66 49/49/49
f 49/49/49 66/66/66 67/67/67 50/50/50
f 50/50/50 67/67/67 68/68/68 51/51/51
f 52/52/52 69/69/69 70/70/70 53/53/53
f 53/53/53 70/70/70 71/71/71 54/54/54
f 54/54/54 71/71/71 72/72/72 55/55/55
f 55/55/55 72/72/72 73/73/73 56/56/56
f 56/56/56 73/73/73 74/74/74 57/57/57
f 57/57/57 74/74/74 75/75/75 58/58/58
f 58/58/58 75/75/75 76/76/76 59/59/59
f 59/59/59 76/76/76 77/77/77 60/60/60
f 60/60/60 77/77/77 78/78/78 61/61/61
f 61/61/61 78/78/78 79/79/79 62/62/62
f 62/62/62 79/79/79 80/80/80 63/63/63
f 63/63/63 80/80/80 81/81/81 64/64/64
f 64/64/64 81/81/81 82/82/82 65/65/65
f 65/65/65 82/82/82 83/83/83 66/66/66
f 66/66/66 83/83/83 84/84/84 67/67/67
f 67/67/67 84/84/84 85/85/85 68/68/68
f 69/69/69 86/86/86 87/87/87 70/70/70
f 70/70/70 87/87/87 88/88/88 71/71/71
f 71/71/71 88/88/88 89/89/89 72/72/72
f 72/72/72 89/89/89 90/90/90 73/73/73
f 73/73/73 90/90/90 91/91/91 74/74/74
f 74/74/74 91/91/91 92/92/92 75/75/75
f 75/75/75 92/92/92 93/93/93 76/76/76
f 76/76/76 93/93/93 94/94/94 77/77/77
f 77/77/77 94/94/94 95/95/95 78/78/78
f 78/78/78 95/95/95 96/96/96 79/79/79
f 79/79/79 96/96/96 97/97/97 80/80/80
f 80/80/80 97/97/97 98/98/98 81/81/81
f 81/81/81 98/98/98 99/99/99 82/82/82
f 82/82/82 99/99/99 100/100/100 83/83/83
f 83/83/83 100/100/100 101/101/101 84/84/84
f 84/84/84 101/101/101 102/102/102 85/85/85
f 86/86/86 103/103/103 104/104/104 87/87/87
f 87/87/87 104/104/104 105/105/105 88/88/88
f 88/88/88 105/105/105 106/106/106 89/89/89
f 89/89/89 106/106/106 107/107/107 90/90/90
f 90/90/90 107/107/107 108/108/108 91/91/91
f 91/91/91 108/108/108 109/109/109 92/92/92
f 92/92/92 109/109/109 110/110/110 93/93/93
f 93/93/93 110/110/110 111/111/111 94/94/94
f 94/94/94 111/111/111 112/112/112 95/95/95
f 95/95/95 112/112/112 113/113/113 96/96/96
f 96/96/96 113/113/113 114/114/114 97/97/97
f 97/97/97 114/114/114 115/115/115 98/98/98
f 98/98/98 115/115/115 116/116/116 99/99/99
f 99/99/99 116/116/116 117/117/117 100/100/100
f 100/100/100 117/117/117 118/118/118 101/101/101
f 101/101/101 118/118/118 119/119/119 102/102/102
f 103/103/103 120/120/120 121/121/121 104/104/104
f 104/104/104 121/121/121 122/122/122 105/105/105
f 105/105/105 122/122/122 123/123/123 106/106/106
f 106/106/106 123/123/123 124/124/124 107/107/107
f 107/107/107 124/124/124 125/125/125 108/108/108
f 108/108/108 125/125/125 126/126/126 109/109/109
f 109/109/109 126/126/126 127/127/127 110/110/110
f 110/110/110 127/127/127 128/128/128 111/111/111
f 111/111/111 128/128/128 129/129/129 112/112/112
f 112/112/112 129/129/129 130/130/130 113/113/113
f 113/113/113 130/130/130 131/131/131 114/114/114
f 114/114/114 131/131/131 132/132/132 115/115/115
f 115/115/115 132/132/132 133/133/133 116/116/116
f 116/116/116 133/133/133 134/134/134 117/117/117
f 117/117/117 134/134/134 135/135/135 118/118/118
f 118/118/118 135/135/135 136/136/136 119/119/119
f 120/120/120 137/137/137 138/138/138 121/121/121
f 121/121/121 138/138/138 139/139/139 122/122/122
f 122/122/122 139/139/139 140/140/140 123/123/123
f 123/123/123 140/140/140 141/141/141 124/124/124
f 124/124/124 141/141/141 142/142/142 125/125/125
f 125/125/125 142/142/142 143/143/143 126/126/126
f 126/126/126 143/143/143 144/144/144 127/127/127
f 127/127/127 144/144/144 145/145/145 128/128/128
f 128/128/128 145/145/145 146/146/146 129/129/129
f 129/129/129 146/146/146 147/147/147 130/130/130
f 130/130/130 147/147/147 148/148/148 131/131/131
f 131/131/131 148/148/148 149/149/149 132/132/132
f 132/132/132 149/149/149 150/150/150 133/133/133
f 133/133/133 150/150/150 151/151/151 134/134/134
f 134/134/134 151/151/151 152/152/152 135/135/135
f 135/135/135 152/152/152 153/153/153 136/136/136
f 137/137/137 154/154/154 155/155/155 138/138/138
f 138/138/138 155/155/155 156/156/156 139/139/139
f 139/139/139 156/156/156 157/157/157 140/140/140
f 140/140/140 157/157/157 158/158/158 141/141/141
f 141/141/141 158/158/158 159/159/159 142/142/142
f 142/142/142 159/159/159 160/160/160 143/143/143
f 143/143/143 160/160/160 161/161/161 144/144/144
f 144/144/144 161/161/161 162/162/162 145/145/145
f 145/145/145 162/162/162 163/163/163 146/146/146
f 146/146/146 163/163/163 164/164/164 147/147/147
f 147/147/147 164/164/164 165/165/165 148/148/148
f 148/148/148 165/165/165 166/166/166 149/149/149
f 149/149/149 166/166/166 167/167/167 150/150/150
f 150/150/150 167/167/167 168/168/168 151/151/151
f 151/151/151 168/168/168 169/169/169 152/152/152
f 152/152/152 169/169/169 170/170/170 153/153/153
f 154/154/154 171/171/171 172/172/172 155/155/155
f 155/155/155 172/172/172 173/173/173 156/156/156
f 156/156/156 173/173/173 174/174/174 157/157/157
f 157/157/157 174/174/174 175/175/175 158/158/158
f 158/158/158 175/175/175 176/176/176 159/159/159
f 159/159/159 176/176/176 177/177/177 160/160/160
f 160/160/160 177/177/177 178/178/178 161/161/161
f 161/161/161 178/178/178 179/179/179 162/162/162
f 162/162/162 179/179/179 180/180/180 163/163/163
f 163/163/163 180/180/180 181/181/181 164/164/164
f 164/164/164 181/181/181 182/182/182 165/165/165
f 165/165/165 182/182/182 183/183/183 166/166/166
f 166/166/166 183/183/183 184/184/184 167/167/167
f 167/167/167 184/184/184 185/185/185 168/168/168
f 168/168/168 185/185/185 186/186/186 169/169/169
f 169/169/169 186/186/186 187/187/187 170/170/170
f 171/171/171 188/188/188 189/189/189 172/172/172
f 172/172/172 189/189/189 190/190/190 173/173/173
f 173/173/173 190/190/190 191/191/191 174/174/174
f 174/174/174 191/191/191 192/192/192 175/175/175
f 175/175/175 192/192/192 193/193/193 176/176/176
f 176/176/176 193/193/193 194/194/194 177/177/177
f 177/177/177 194/194/194 195/195/195 178/178/178
f 178/178/178 195/195/195 196/196/196 179/179/179
f 179/179/179 196/196/196 197/197/197 180/180/180
f 180/180/180 197/197/197 198/198/198 181/181/181
f 181/181/181 198/198/198 199/199/199 182/182/182
f 182/182/182 199/199/199 200/200/200 183/183/183
f 183/183/183 200/200/200 201/201/201 184/184/184
f 184/184/184 201/201/201 202/202/202 185/185/185
f 185/185/185 202/202/202 203/203/203 186/186/186
f 186/186/186 203/203/203 204/204/204 187/187/187
f 205/205/205 1/1/206 2/2/206
f 205/205/205 2/2/206 3/3/206
f 205/205/205 3/3/206 4/4/206
f 205/205/205 4/4/206 5/5/206
f 205/205/205 5/5/206 6/6/206
f 205/205/205 6/6/206 7/7/206
f 205/205/205 7/7/206 8/8/206
f 205/205/205 8/8/206 9/9/206
f 205/205/205 9/9/206 10/10/206
f 205/205/205 10/10/206 11/11/206
f 205/205/205 11/11/206 12/12/206
f 205/205/205 12/12/206 13/13/206
f 205/205/205 13/13/206 14/14/206
f 205/205/205 14/14/206 15/15/206
f 205/205/205 15/15/206 16/16/206
f 205/205/205 16/16/206 17/17/206
f 206/206/207 207/207/207 208/208/207 209/209/207
f 213/213/208 212/212/208 211/211/208 210/210/208
f 217/217/209 216/216/209 215/215/209 214/214/209
f 221/221/210 220/220/210 219/219/210 218/218/210
f 225/225/211 224/224/211 223/223/211 222/222/211
f 229/229/212 228/228/212 227/227/212 226/226/212
f 230/230/213 231/231/213 232/232/213 233/233/213
f 237/237/214 236/236/214 235/235/214 234/234/214
f 241/241/215 240/240/215 239/239/215 238/238/215
f 245/245/216 244/244/216 243/243/216 242/242/216
f 249/249/217 248/248/217 247/247/217 246/246/217
f 253/253/218 252/252/218 251/251/218 250/250/218
f 254/254/219 255/255/219 256/256/219 257/257/219
f 261/261/220 260/260/220 259/259/220 258/258/220
f 265/265/221 264/264/221 263/263/221 262/262/221
f 269/269/222 268/268/222 267/267/222 266/266/222
f 273/273/223 272/272/223 271/271/223 270/270/223
f 277/277/224 276/276/224 275/275/224 274/274/224
f 278/278/225 279/279/225 280/280/225 281/281/225
f 285/285/226 284/284/226 283/283/226 282/282/226
f 289/289/227 288/288/227 287/287/227 286/286/227
f 293/293/228 292/292/228 291/291/228 290/290/228
f 297/297/229 296/296/229 295/295/229 294/294/229
f 301/301/230 300/300/230 299/299/230 298/298/230
f 302/302/231 303/303/231 304/304/231 305/305/231
f 309/309/232 308/308/232 307/307/232 306/306/232
f 313/313/233 312/312/233 311/311/233 310/310/233
f 317/317/234 316/316/234 315/315/234 314/314/234
f 321/321/235 320/320/235 319/319/235 318/318/235
f 325/325/236 324/324/236 323/323/236 322/322/236
f 326/326/237 327/327/237 328/328/237 329/329/237
f 333/333/238 332/332/238 331/331/238 330/330/238
f 337/337/239 336/336/239 335/335/239 334/334/239
f 341/341/240 340/340/240 339/339/240 338/338/240
f 345/345/241 344/344/241 343/343/241 342/342/241
f 349/349/242 348/348/242 347/347/242 346/346/242
f 350/350/243 351/351/243 352/352/243 353/353/243
f 357/357/244 356/356/244 355/355/244 354/354/244
f 361/361/245 360/360/245 359/359/245 358/358/245
f 365/365/246 364/364/246 363/363/246 362/362/246
f 369/369/247 368/368/247 367/367/247 366/366/247
f 373/373/248 372/372/248 371/371/248 370/370/248
f 374/374/249 375/375/249 376/376/249 377/377/249
f 381/381/250 380/380/250 379/379/250 378/378/250
f 385/385/251 384/384/251 383/383/251 382/382/251
f 389/389/252 388/388/252 387/387/252 386/386/252
f 393/393/253 392/392/253 391/391/253 390/390/253
f 397/397/254 396/396/254 395/395/254 394/394/254
