mtllib missilecarrier.mtl
# Blender v2.76 (sub 0) OBJ File: 'carrier_main.blend'
# www.blender.org
o Cylinder
usemtl missile_texture
v 0.000000 1.500000 -0.750000
v 0.000000 5.000000 -0.750000
v 0.375000 1.500000 -0.649519
v 0.375000 5.000000 -0.649519
v 0.649519 1.500000 -0.375000
v 0.649519 5.000000 -0.375000
v 0.750000 1.500000 0.000000
v 0.750000 5.000000 0.000000
v 0.649519 1.500000 0.375000
v 0.649519 5.000000 0.375000
v 0.375000 1.500000 0.649519
v 0.375000 5.000000 0.649519
v 0.000000 1.500000 0.750000
v 0.000000 5.000000 0.750000
v -0.375000 1.500000 0.649519
v -0.375000 5.000000 0.649519
v -0.649519 1.500000 0.375000
v -0.649519 5.000000 0.375000
v -0.750000 1.500000 0.000000
v -0.750000 5.000000 0.000000
v -0.649519 1.500000 -0.375000
v -0.649519 5.000000 -0.375000
v -0.375000 1.500000 -0.649519
v -0.375000 5.000000 -0.649519
v -0.000000 1.250000 -0.562500
v 0.281250 1.250000 -0.487139
v 0.487139 1.250000 -0.281250
v 0.562500 1.250000 0.000000
v 0.487139 1.250000 0.281250
v 0.281250 1.250000 0.487139
v 0.000000 1.250000 0.562500
v -0.281250 1.250000 0.487139
v -0.487139 1.250000 0.281250
v -0.562500 1.250000 0.000000
v -0.487140 1.250000 -0.281250
v -0.281250 1.250000 -0.487139
v -0.000000 1.000000 -0.562500
v 0.281250 1.000000 -0.487139
v 0.487139 1.000000 -0.281250
v 0.562500 1.000000 0.000000
v 0.487139 1.000000 0.281250
v 0.281250 1.000000 0.487139
v -0.000000 1.000000 0.562500
v -0.281250 1.000000 0.487139
v -0.487139 1.000000 0.281250
v -0.562500 1.000000 0.000000
v -0.487140 1.000000 -0.281250
v -0.281250 1.000000 -0.487139
v -0.000000 0.750000 -0.262500
v 0.131250 0.750000 -0.227332
v 0.227332 0.750000 -0.131250
v 0.262500 0.750000 0.000000
v 0.227332 0.750000 0.131250
v 0.131250 0.750000 0.227332
v -0.000000 0.750000 0.262500
v -0.131250 0.750000 0.227332
v -0.227332 0.750000 0.131250
v -0.262500 0.750000 0.000000
v -0.227332 0.750000 -0.131250
v -0.131250 0.750000 -0.227332
v 0.000000 0.500000 -0.450000
v 0.225000 0.500000 -0.389711
v 0.389711 0.500000 -0.225000
v 0.450000 0.500000 0.000000
v 0.389711 0.500000 0.225000
v 0.225000 0.500000 0.389711
v 0.000000 0.500000 0.450000
v -0.225000 0.500000 0.389712
v -0.389711 0.500000 0.225000
v -0.450000 0.500000 0.000000
v -0.389712 0.500000 -0.225000
v -0.225000 0.500000 -0.389711
v -0.318750 0.000000 -0.552091
v -0.552091 0.000000 -0.318750
v -0.637500 0.000000 0.000000
v -0.552091 0.000000 0.318750
v -0.318750 0.000000 0.552091
v 0.000000 0.000000 0.637500
v 0.318750 0.000000 0.552091
v 0.552091 0.000000 0.318750
v 0.637500 0.000000 0.000000
v 0.552091 0.000000 -0.318750
v 0.318750 0.000000 -0.552091
v 0.000000 0.000000 -0.637500
v -0.270938 0.000000 -0.469277
v 0.000000 0.000000 -0.541875
v -0.469278 0.000000 -0.270937
v -0.541875 0.000000 0.000000
v -0.469277 0.000000 0.270938
v -0.270937 0.000000 0.469278
v 0.000000 0.000000 0.541875
v 0.270938 0.000000 0.469278
v 0.469278 0.000000 0.270938
v 0.541875 0.000000 0.000000
v 0.469278 0.000000 -0.270938
v 0.270938 0.000000 -0.469278
v -0.054187 0.750000 -0.093855
v 0.000000 0.750000 -0.108375
v -0.093855 0.750000 -0.054187
v -0.108375 0.750000 0.000000
v -0.093855 0.750000 0.054188
v -0.054187 0.750000 0.093856
v 0.000000 0.750000 0.108375
v 0.054188 0.750000 0.093856
v 0.093856 0.750000 0.054188
v 0.108375 0.750000 0.000000
v 0.093856 0.750000 -0.054187
v 0.054188 0.750000 -0.093855
v 0.375000 7.000000 -0.649519
v 0.000000 7.000000 -0.750000
v 0.649519 7.000000 -0.375000
v 0.750000 7.000000 0.000000
v 0.649519 7.000000 0.375000
v 0.375000 7.000000 0.649519
v 0.000000 7.000000 0.750000
v -0.375000 7.000000 0.649519
v -0.649519 7.000000 0.375000
v -0.750000 7.000000 0.000000
v -0.649519 7.000000 -0.375000
v -0.375000 7.000000 -0.649519
v 0.375000 10.500000 -0.649519
v 0.000000 10.500000 -0.750000
v 0.649519 10.500000 -0.375000
v 0.750000 10.500000 0.000000
v 0.649519 10.500000 0.375000
v 0.375000 10.500000 0.649519
v 0.000000 10.500000 0.750000
v -0.374999 10.500000 0.649519
v -0.649519 10.500000 0.375000
v -0.750000 10.500000 0.000000
v -0.649519 10.500000 -0.375000
v -0.375000 10.500000 -0.649519
v -0.000000 5.000000 -0.787500
v 0.393750 5.000000 -0.681995
v 0.681995 5.000000 -0.393750
v 0.787500 5.000000 0.000000
v 0.681995 5.000000 0.393750
v 0.393750 5.000000 0.681995
v 0.000000 5.000000 0.787500
v -0.393750 5.000000 0.681995
v -0.681995 5.000000 0.393750
v -0.787500 5.000000 0.000000
v -0.681995 5.000000 -0.393750
v -0.393750 5.000000 -0.681995
v 0.393750 7.000000 -0.681995
v 0.000000 7.000000 -0.787500
v 0.681995 7.000000 -0.393750
v 0.787500 7.000000 0.000000
v 0.681995 7.000000 0.393750
v 0.393750 7.000000 0.681995
v 0.000000 7.000000 0.787500
v -0.393750 7.000000 0.681995
v -0.681995 7.000000 0.393750
v -0.787500 7.000000 0.000000
v -0.681995 7.000000 -0.393750
v -0.393750 7.000000 -0.681995
v 0.562501 12.000000 -0.974279
v 0.000001 12.000000 -1.125000
v 0.974279 12.000000 -0.562500
v 1.125000 12.000000 -0.000000
v 0.974279 12.000000 0.562500
v 0.562501 12.000000 0.974278
v 0.000001 12.000000 1.125000
v -0.562499 12.000000 0.974279
v -0.974278 12.000000 0.562500
v -1.125000 12.000000 0.000000
v -0.974278 12.000000 -0.562499
v -0.562500 12.000000 -0.974278
v 0.562500 13.500000 -0.974279
v 0.000000 13.500000 -1.125000
v 0.974279 13.500000 -0.562500
v 1.125000 13.500000 -0.000000
v 0.974279 13.500000 0.562500
v 0.562500 13.500000 0.974278
v 0.000000 13.500000 1.125000
v -0.562499 13.500000 0.974279
v -0.974278 13.500000 0.562500
v -1.125000 13.500000 0.000000
v -0.974279 13.500000 -0.562499
v -0.562500 13.500000 -0.974278
v 0.140625 15.500000 -0.243570
v 0.000000 15.500000 -0.281250
v 0.243570 15.500000 -0.140625
v 0.281250 15.500000 0.000000
v 0.243570 15.500000 0.140625
v 0.140625 15.500000 0.243570
v 0.000000 15.500000 0.281250
v -0.140625 15.500000 0.243570
v -0.243569 15.500000 0.140625
v -0.281250 15.500000 0.000000
v -0.243569 15.500000 -0.140625
v -0.140625 15.500000 -0.243569
v 0.021094 15.750000 -0.036535
v 0.000000 15.750000 -0.042187
v 0.036536 15.750000 -0.021094
v 0.042188 15.750000 0.000000
v 0.036536 15.750000 0.021094
v 0.021094 15.750000 0.036536
v 0.000001 15.750000 0.042188
v -0.021093 15.750000 0.036536
v -0.036535 15.750000 0.021094
v -0.042187 15.750000 0.000000
v -0.036535 15.750000 -0.021094
v -0.021093 15.750000 -0.036535
vt 0.301507 0.312696
vt 0.272488 0.312697
vt 0.272481 0.051083
vt 0.271037 0.312697
vt 0.242019 0.312697
vt 0.242011 0.051084
vt 0.240568 0.312697
vt 0.211549 0.312698
vt 0.211542 0.051085
vt 0.210098 0.312698
vt 0.181079 0.312699
vt 0.181072 0.051086
vt 0.179628 0.312699
vt 0.150609 0.312700
vt 0.150602 0.051086
vt 0.149158 0.312700
vt 0.120140 0.312701
vt 0.120133 0.051087
vt 0.118689 0.312701
vt 0.089670 0.312702
vt 0.089662 0.051088
vt 0.088219 0.312702
vt 0.059200 0.312702
vt 0.059193 0.051089
vt 0.057749 0.312702
vt 0.028730 0.312703
vt 0.028723 0.051090
vt 0.392917 0.312693
vt 0.363898 0.312694
vt 0.363890 0.051081
vt 0.331977 0.312695
vt 0.302958 0.312696
vt 0.302951 0.051082
vt 0.362447 0.312694
vt 0.333428 0.312695
vt 0.333420 0.051081
vt 0.240560 0.051084
vt 0.215168 0.028010
vt 0.614773 0.847825
vt 0.614773 0.866512
vt 0.593009 0.866512
vt 0.362439 0.051081
vt 0.337047 0.028006
vt 0.245638 0.028009
vt 0.267402 0.028008
vt 0.367517 0.028006
vt 0.389281 0.028005
vt 0.032349 0.028015
vt 0.054113 0.028014
vt 0.062820 0.028014
vt 0.084584 0.028013
vt 0.093289 0.028013
vt 0.115053 0.028012
vt 0.123759 0.028012
vt 0.145523 0.028012
vt 0.154229 0.028011
vt 0.175993 0.028011
vt 0.210091 0.051085
vt 0.184699 0.028010
vt 0.306577 0.028007
vt 0.328341 0.028006
vt 0.301500 0.051082
vt 0.276108 0.028008
vt 0.608970 0.895119
vt 0.549481 0.847825
vt 0.549481 0.866512
vt 0.527717 0.866512
vt 0.440661 0.847825
vt 0.440661 0.866512
vt 0.418896 0.866512
vt 0.636537 0.847825
vt 0.636537 0.866512
vt 0.571245 0.847825
vt 0.571245 0.866512
vt 0.462425 0.847825
vt 0.462425 0.866512
vt 0.505953 0.847825
vt 0.505953 0.866512
vt 0.484189 0.866512
vt 0.658302 0.847825
vt 0.658302 0.866512
vt 0.593009 0.847825
vt 0.484189 0.847825
vt 0.527717 0.847825
vt 0.680066 0.847825
vt 0.680066 0.866512
vt 0.253796 0.824518
vt 0.275183 0.833911
vt 0.265791 0.848572
vt 0.543677 0.895119
vt 0.533521 0.895119
vt 0.434857 0.895119
vt 0.630734 0.895119
vt 0.620577 0.895119
vt 0.565441 0.895119
vt 0.555285 0.895119
vt 0.456621 0.895119
vt 0.446464 0.895119
vt 0.500149 0.895119
vt 0.652498 0.895119
vt 0.642341 0.895119
vt 0.587206 0.895119
vt 0.577049 0.895119
vt 0.478385 0.895119
vt 0.468228 0.895119
vt 0.521913 0.895119
vt 0.674262 0.895119
vt 0.664105 0.895119
vt 0.224264 0.879299
vt 0.238474 0.916598
vt 0.214722 0.923249
vt 0.217381 0.856977
vt 0.226504 0.852514
vt 0.239903 0.871647
vt 0.178528 0.861344
vt 0.188643 0.862267
vt 0.190158 0.885576
vt 0.131998 0.833070
vt 0.114525 0.848572
vt 0.105133 0.833911
vt 0.229094 0.850940
vt 0.237259 0.844899
vt 0.253900 0.861291
vt 0.201788 0.861344
vt 0.207497 0.883993
vt 0.140795 0.842882
vt 0.126416 0.861291
vt 0.162935 0.856977
vt 0.156052 0.879299
vt 0.140413 0.871647
vt 0.239521 0.842882
vt 0.246458 0.835463
vt 0.214549 0.858057
vt 0.151222 0.850940
vt 0.175547 0.860795
vt 0.172819 0.883993
vt 0.119685 0.905758
vt 0.099857 0.891087
vt 0.297304 0.873069
vt 0.280459 0.891087
vt 0.141842 0.916598
vt 0.083012 0.873069
vt 0.190158 0.925490
vt 0.165594 0.923249
vt 0.260631 0.905758
vt 0.310610 0.852299
vt 0.262003 0.912773
vt 0.243170 0.921987
vt 0.792469 0.894307
vt 0.854840 0.876912
vt 0.856480 0.880772
vt 0.315425 0.857581
vt 0.161951 0.929398
vt 0.141761 0.923745
vt 0.114092 0.910208
vt 0.097238 0.897737
vt 0.238554 0.923745
vt 0.218365 0.929398
vt 0.301084 0.879135
vt 0.137146 0.921987
vt 0.118313 0.912773
vt 0.093550 0.894450
vt 0.079232 0.879135
vt 0.213507 0.930293
vt 0.192628 0.932198
vt 0.283078 0.897737
vt 0.266224 0.910208
vt 0.076200 0.875235
vt 0.064891 0.857581
vt 0.187688 0.932198
vt 0.166809 0.930293
vt 0.828610 0.623227
vt 0.832242 0.609674
vt 0.842163 0.619596
vt 0.910617 0.942823
vt 0.878470 0.886616
vt 0.881809 0.884080
vt 0.940197 0.913601
vt 0.884386 0.880772
vt 0.886026 0.876912
vt 0.849644 0.950787
vt 0.866275 0.888209
vt 0.870433 0.888752
vt 0.800670 0.913603
vt 0.859056 0.884080
vt 0.951365 0.873551
vt 0.948397 0.894305
vt 0.870433 0.953503
vt 0.874591 0.888209
vt 0.813551 0.930145
vt 0.862396 0.886616
vt 0.789500 0.873552
vt 0.854246 0.872761
vt 0.891223 0.950787
vt 0.927315 0.930144
vt 0.830249 0.942823
vt 0.088223 0.467610
vt 0.088231 0.729223
vt 0.059212 0.729224
vt 0.059205 0.467611
vt 0.058479 0.464903
vt 0.088949 0.464902
vt 0.028735 0.467612
vt 0.028009 0.464904
vt 0.363902 0.467602
vt 0.363177 0.464895
vt 0.393646 0.464894
vt 0.529458 0.028005
vt 0.536713 0.143348
vt 0.493184 0.143348
vt 0.179632 0.467607
vt 0.179640 0.729221
vt 0.150621 0.729221
vt 0.331981 0.467603
vt 0.331988 0.729216
vt 0.302969 0.729217
vt 0.271042 0.467605
vt 0.271049 0.729219
vt 0.242030 0.729220
vt 0.057754 0.467611
vt 0.057762 0.729224
vt 0.028743 0.729225
vt 0.149163 0.467608
vt 0.149170 0.729221
vt 0.120151 0.729222
vt 0.240572 0.467606
vt 0.240579 0.729219
vt 0.211560 0.729220
vt 0.392921 0.467601
vt 0.392928 0.729214
vt 0.363909 0.729215
vt 0.118693 0.467609
vt 0.118700 0.729222
vt 0.089681 0.729223
vt 0.210102 0.467607
vt 0.210109 0.729219
vt 0.181090 0.729220
vt 0.362451 0.467602
vt 0.362459 0.729216
vt 0.333440 0.729217
vt 0.301511 0.467604
vt 0.301519 0.729218
vt 0.272500 0.729219
vt 0.180354 0.315407
vt 0.180358 0.464900
vt 0.149888 0.464901
vt 0.210823 0.315406
vt 0.210828 0.464899
vt 0.332703 0.315402
vt 0.332707 0.464896
vt 0.302237 0.464897
vt 0.302233 0.315403
vt 0.271767 0.464897
vt 0.241293 0.315405
vt 0.241297 0.464898
vt 0.363172 0.315401
vt 0.271763 0.315404
vt 0.393642 0.315401
vt 0.058475 0.315410
vt 0.088944 0.315409
vt 0.119414 0.315408
vt 0.119418 0.464902
vt 0.149884 0.315407
vt 0.089674 0.467610
vt 0.120144 0.467609
vt 0.150614 0.467608
vt 0.181083 0.467607
vt 0.211553 0.467607
vt 0.242023 0.467606
vt 0.272493 0.467605
vt 0.302962 0.467604
vt 0.333432 0.467603
vt 0.028005 0.315411
vt 0.754354 0.143348
vt 0.754354 0.255468
vt 0.710826 0.255468
vt 0.660042 0.028005
vt 0.667297 0.143348
vt 0.623769 0.143348
vt 0.877684 0.028005
vt 0.884939 0.143348
vt 0.841410 0.143348
vt 0.790627 0.028005
vt 0.797882 0.143348
vt 0.485930 0.028006
vt 0.449656 0.143348
vt 0.587495 0.028005
vt 0.616514 0.028005
vt 0.747099 0.028005
vt 0.710826 0.143348
vt 0.935722 0.028005
vt 0.964740 0.028005
vt 0.971995 0.143348
vt 0.572986 0.028005
vt 0.580241 0.143348
vt 0.703571 0.028005
vt 0.892193 0.028005
vt 0.921212 0.028005
vt 0.928467 0.143348
vt 0.834155 0.028005
vt 0.580241 0.255468
vt 0.623769 0.255468
vt 0.607446 0.416897
vt 0.971995 0.255468
vt 0.928467 0.255468
vt 0.536713 0.255468
vt 0.667297 0.255468
vt 0.884939 0.255468
vt 0.841410 0.255468
vt 0.797882 0.255468
vt 0.493185 0.255468
vt 0.449656 0.255468
vt 0.602821 0.442335
vt 0.601189 0.442335
vt 0.738030 0.416897
vt 0.727149 0.416897
vt 0.955672 0.416897
vt 0.563918 0.416897
vt 0.553036 0.416897
vt 0.694502 0.416897
vt 0.683621 0.416897
vt 0.912144 0.416897
vt 0.825087 0.416897
vt 0.814205 0.416897
vt 0.520390 0.416897
vt 0.509508 0.416897
vt 0.650974 0.416897
vt 0.640092 0.416897
vt 0.868616 0.416897
vt 0.781559 0.416897
vt 0.476861 0.416897
vt 0.465980 0.416897
vt 0.919680 0.621180
vt 0.914404 0.619766
vt 0.918266 0.615904
vt 0.733406 0.442335
vt 0.731774 0.442335
vt 0.951047 0.442335
vt 0.949415 0.442335
vt 0.559293 0.442335
vt 0.557661 0.442335
vt 0.689878 0.442335
vt 0.901262 0.416897
vt 0.907519 0.442335
vt 0.820462 0.442336
vt 0.515765 0.442335
vt 0.514133 0.442335
vt 0.646349 0.442335
vt 0.857733 0.416897
vt 0.863991 0.442336
vt 0.776934 0.442335
vt 0.775302 0.442335
vt 0.472237 0.442335
vt 0.271030 0.051083
vt 0.179621 0.051086
vt 0.149151 0.051087
vt 0.118681 0.051087
vt 0.088212 0.051088
vt 0.057741 0.051089
vt 0.392909 0.051080
vt 0.331969 0.051081
vt 0.236932 0.028009
vt 0.358811 0.028006
vt 0.206463 0.028010
vt 0.297872 0.028007
vt 0.598813 0.895119
vt 0.418896 0.847825
vt 0.248318 0.833070
vt 0.424700 0.895119
vt 0.489993 0.895119
vt 0.511757 0.895119
vt 0.126520 0.824518
vt 0.191673 0.862267
vt 0.133858 0.835463
vt 0.153812 0.852514
vt 0.204769 0.860795
vt 0.143057 0.844899
vt 0.165767 0.858056
vt 0.069706 0.852299
vt 0.304116 0.875235
vt 0.286766 0.894450
vt 0.840066 0.623227
vt 0.836435 0.625324
vt 0.832242 0.625324
vt 0.826513 0.619596
vt 0.826513 0.615403
vt 0.828610 0.611771
vt 0.836435 0.609674
vt 0.840066 0.611771
vt 0.842163 0.615403
vt 0.886619 0.872761
vt 0.500439 0.028005
vt 0.631024 0.028005
vt 0.848665 0.028005
vt 0.761608 0.028005
vt 0.456911 0.028006
vt 0.718080 0.028005
vt 0.543967 0.028005
vt 0.674552 0.028005
vt 0.805137 0.028005
vt 0.596564 0.416897
vt 0.944790 0.416897
vt 0.770677 0.416897
vt 0.919680 0.616720
vt 0.920496 0.618134
vt 0.920496 0.619766
vt 0.918266 0.621996
vt 0.916634 0.621996
vt 0.915220 0.621180
vt 0.914404 0.618134
vt 0.915220 0.616720
vt 0.916634 0.615904
vt 0.688245 0.442335
vt 0.905886 0.442335
vt 0.818830 0.442336
vt 0.644717 0.442335
vt 0.862359 0.442336
vt 0.470604 0.442335
s off
vn 0.088962 0.000000 -0.996035
vn 0.575061 0.000000 -0.818110
vn 0.424381 -0.033948 -0.904847
vn 0.907073 0.000000 -0.420974
vn 0.820658 -0.057402 -0.568529
vn 0.996035 0.000000 0.088962
vn 0.995817 -0.045897 -0.079005
vn 0.818110 0.000000 0.575061
vn 0.904847 -0.033948 0.424381
vn 0.420974 0.000000 0.907073
vn 0.573647 -0.045862 0.817818
vn -0.088962 0.000000 0.996035
vn 0.087883 -0.045862 0.995074
vn -0.575061 0.000000 0.818110
vn -0.421428 -0.045862 0.905701
vn -0.907073 0.000000 0.420974
vn -0.817818 -0.045862 0.573647
vn -0.996035 0.000000 -0.088962
vn -0.995074 -0.045862 0.087883
vn -0.818110 0.000000 -0.575061
vn -0.902690 -0.057402 -0.426446
vn -0.420974 0.000000 -0.907073
vn -0.082032 -0.057402 -0.994975
vn -0.571431 -0.033948 -0.819948
vn 0.926258 -0.365629 -0.091439
vn -0.013116 -0.367135 0.930075
vn -0.048256 -0.432227 0.900473
vn 0.396086 -0.509841 0.763661
vn -0.427094 -0.415082 -0.803304
vn 0.810885 -0.351124 -0.468165
vn 0.463621 -0.374463 -0.803015
vn -0.840168 -0.242535 -0.485072
vn -0.930075 -0.367134 -0.013115
vn -0.812027 -0.367135 0.453678
vn -0.476397 -0.367135 0.798910
vn 0.453678 -0.367135 0.812027
vn 0.803304 -0.415083 0.427094
vn 0.000000 -0.351123 -0.936329
vn 0.000000 -0.768221 0.640185
vn 0.879135 -0.476019 0.022982
vn 0.804084 -0.371390 -0.464239
vn -0.742610 -0.514496 -0.428747
vn -0.859392 -0.509842 -0.038809
vn -0.459470 -0.476019 0.749862
vn 0.749862 -0.476019 0.459470
vn -0.493445 -0.475196 -0.728492
vn 0.436880 -0.552250 -0.710039
vn 0.000000 -0.452692 -0.891667
vn -0.772844 -0.476019 0.419665
vn -0.796114 0.597084 0.098455
vn -0.898818 0.429523 -0.087382
vn -0.784517 0.423529 0.452941
vn 0.637680 -0.765215 0.088379
vn 0.554416 -0.768221 -0.320092
vn -0.554416 -0.768222 -0.320092
vn -0.395378 -0.765215 0.508058
vn 0.508058 -0.765215 0.395378
vn -0.242302 -0.765215 -0.596436
vn 0.242302 -0.765215 -0.596436
vn -0.596436 -0.765215 0.242302
vn 0.320092 -0.768221 0.554417
vn 0.000000 -0.768221 -0.640184
vn -0.640184 -0.768221 -0.000000
vn 0.457778 0.402190 0.792895
vn 0.468165 0.351124 0.810885
vn 0.810885 0.351124 0.468165
vn 0.400000 0.599999 0.692821
vn -0.098453 0.597085 0.796113
vn -0.057669 0.430455 0.900768
vn 0.692821 0.599999 -0.400000
vn 0.800000 0.600000 0.000000
vn 0.905882 0.423529 0.000000
vn -0.738682 0.597085 -0.312792
vn -0.756984 0.462751 -0.461342
vn -0.483321 0.597085 0.640227
vn -0.424897 0.462751 0.778026
vn 0.738682 0.597084 0.312793
vn 0.756984 0.462751 0.461342
vn -0.483320 0.597084 -0.640228
vn -0.500327 0.430455 -0.751253
vn 0.312793 0.597084 -0.738682
vn 0.400441 0.430455 -0.808923
vn -0.057670 0.430455 -0.900768
vn -0.692821 0.599999 0.400000
vn -0.098455 0.597084 -0.796114
vn 0.745493 0.416567 -0.520301
vn 0.065310 0.350374 -0.934330
vn -0.410606 0.350374 -0.841808
vn -0.810885 0.351124 0.468165
vn -0.468165 0.351123 0.810885
vn 0.523725 0.350374 -0.776499
vn -0.810885 0.351123 -0.468165
vn 0.936329 0.351123 0.000000
vn 0.841808 0.350374 -0.410606
vn 0.065310 0.350374 0.934330
vn -0.934330 0.350374 0.065310
vn 0.000000 -1.000000 0.000000
vn 0.749789 -0.500422 -0.432891
vn 0.568641 -0.493690 -0.657965
vn -0.414534 -0.500311 0.760165
vn -0.568641 -0.493691 0.657965
vn -0.163474 -0.493690 0.854135
vn 0.451055 -0.500311 0.739079
vn 0.285496 -0.493690 0.821439
vn 0.749788 -0.500422 0.432891
vn -0.760166 -0.500311 -0.414533
vn -0.657966 -0.493690 -0.568639
vn -0.854135 -0.493690 -0.163474
vn 0.414534 -0.500311 -0.760165
vn 0.163474 -0.493690 -0.854135
vn 0.865589 -0.500311 0.021084
vn -0.865589 -0.500310 0.021084
vn -0.821440 -0.493690 0.285492
vn -0.021084 -0.500310 -0.865589
vn -0.285491 -0.493690 -0.821441
vn 0.854135 -0.493690 -0.163476
vn -0.739080 -0.500311 0.451054
vn 0.021087 -0.500311 0.865589
vn -0.451054 -0.500311 -0.739080
vn -0.479812 -0.083027 0.873434
vn -0.852246 -0.083027 0.516511
vn 0.000000 1.000000 -0.000000
vn -0.510069 -0.116827 0.852162
vn -0.867814 -0.116827 0.482960
vn 0.873434 -0.083027 0.479812
vn 0.557958 -0.055337 0.828022
vn -0.541461 -0.103467 -0.834335
vn -0.021188 -0.083027 -0.996322
vn 0.479812 -0.083027 -0.873434
vn 0.852246 -0.083027 -0.516510
vn -0.996067 -0.055337 0.069195
vn 0.051752 -0.103467 0.993286
vn 0.996322 -0.083027 -0.021188
vn -0.907474 -0.082653 -0.411896
vn 0.907073 0.000000 0.420974
vn 0.575061 0.000000 0.818110
vn 0.996035 0.000000 -0.088962
vn -0.575061 0.000000 -0.818110
vn -0.088962 0.000000 -0.996035
vn 0.420974 0.000000 -0.907073
vn 0.818110 0.000000 -0.575061
vn -0.907073 0.000000 -0.420974
vn -0.996035 0.000000 0.088962
vn -0.818110 0.000000 0.575061
vn -0.420974 0.000000 0.907073
vn 0.088962 0.000000 0.996035
vn 0.867815 -0.116827 -0.482959
vn 0.824082 0.216576 -0.523434
vn 0.978054 0.206308 -0.029119
vn 0.852162 -0.116827 0.510069
vn 0.458997 -0.130340 0.878825
vn -0.450699 -0.099362 -0.887129
vn 0.015651 -0.116827 -0.993029
vn 0.510070 -0.116827 -0.852162
vn -0.990583 -0.130340 -0.041909
vn 0.993029 -0.116827 0.015652
vn -0.053247 -0.099363 0.993626
vn -0.818456 -0.116485 -0.562638
vn 0.041268 0.216576 0.975393
vn 0.530025 0.194520 0.825370
vn 0.458195 0.400287 0.793617
vn -0.979804 0.194520 0.046331
vn -0.875026 0.206046 -0.438036
vn -0.463810 0.206308 0.861579
vn 0.861579 0.206308 0.463809
vn -0.538778 0.206046 -0.816862
vn -0.041268 0.216576 -0.975393
vn 0.449779 0.194520 -0.871700
vn -0.832460 0.206308 0.514245
vn 0.357317 0.699512 0.618876
vn 0.134646 0.745063 0.653262
vn 0.780157 0.436511 -0.448122
vn 0.903184 0.400336 -0.154884
vn -0.916390 0.400287 0.000001
vn -0.001992 0.436511 0.899697
vn -0.318368 0.401573 0.858709
vn 0.859241 0.401483 0.317043
vn -0.704738 0.400336 -0.585727
vn -0.001995 0.436511 -0.899697
vn 0.458195 0.400287 -0.793617
vn -0.704738 0.400336 0.585726
vn -0.318368 0.401572 -0.858709
vn -0.594163 0.727525 -0.343042
vn 0.506678 0.735016 -0.450587
vn 0.714835 0.699293 0.000000
vn -0.714620 0.699513 0.000000
vn -0.229238 0.685556 0.690987
vn 0.145944 0.690888 -0.708078
vn -0.618153 0.700369 0.356890
vn 0.540242 0.690887 0.480432
vn -0.229239 0.685556 -0.690986
vn 0.332170 0.747408 -0.575364
f 2/1/1 4/2/2 3/3/3
f 4/4/2 6/5/4 5/6/5
f 6/7/4 8/8/6 7/9/7
f 8/10/6 10/11/8 9/12/9
f 10/13/8 12/14/10 11/15/11
f 12/16/10 14/17/12 13/18/13
f 14/19/12 16/20/14 15/21/15
f 16/22/14 18/23/16 17/24/17
f 18/25/16 20/26/18 19/27/19
f 20/28/18 22/29/20 21/30/21
f 24/31/22 2/32/1 1/33/23
f 22/34/20 24/35/22 23/36/24
f 5/37/5 7/9/7 28/38/25
f 31/39/26 43/40/27 42/41/28
f 21/42/21 23/36/24 36/43/29
f 5/6/5 27/44/30 26/45/31
f 21/30/21 35/46/32 34/47/33
f 19/27/19 34/48/33 33/49/34
f 17/24/17 33/50/34 32/51/35
f 15/21/15 32/52/35 31/53/26
f 13/18/13 31/54/26 30/55/36
f 11/15/11 30/56/36 29/57/37
f 7/58/7 9/12/9 29/59/37
f 1/33/23 25/60/38 36/61/29
f 1/62/23 3/3/3 26/63/31
f 42/41/28 43/40/27 55/64/39
f 28/65/25 40/66/40 39/67/41
f 35/68/32 47/69/42 46/70/43
f 32/71/35 44/72/44 43/40/27
f 29/73/37 41/74/45 40/66/40
f 35/68/32 36/75/29 48/76/46
f 26/77/31 38/78/47 37/79/48
f 33/80/34 45/81/49 44/72/44
f 30/82/36 42/41/28 41/74/45
f 36/75/29 25/83/38 37/79/48
f 26/77/31 27/84/30 39/67/41
f 34/85/33 46/86/43 45/81/49
f 58/87/50 70/88/51 69/89/52
f 40/66/40 52/90/53 51/91/54
f 46/70/43 47/69/42 59/92/55
f 44/72/44 56/93/56 55/94/39
f 41/74/45 53/95/57 52/96/53
f 48/76/46 60/97/58 59/98/55
f 37/79/48 38/78/47 50/99/59
f 45/81/49 57/100/60 56/101/56
f 42/41/28 54/102/61 53/103/57
f 37/79/48 49/104/62 60/105/58
f 38/78/47 39/67/41 51/106/54
f 46/86/43 58/107/63 57/108/60
f 66/109/64 79/110/65 80/111/66
f 54/112/67 55/113/68 67/114/69
f 51/115/70 52/116/71 64/117/72
f 59/118/73 71/119/74 70/120/51
f 55/121/68 56/122/75 68/123/76
f 53/124/77 65/125/78 64/117/72
f 60/126/79 72/127/80 71/119/74
f 50/128/81 62/129/82 61/130/83
f 56/131/75 57/132/84 69/89/52
f 54/133/67 66/109/64 65/125/78
f 49/134/85 61/130/83 72/127/80
f 51/135/70 63/136/86 62/129/82
f 61/130/83 84/137/87 73/138/88
f 69/89/52 76/139/89 77/140/90
f 62/129/82 83/141/91 84/137/87
f 72/127/80 73/138/88 74/142/92
f 64/117/72 65/125/78 80/111/66
f 67/114/69 68/123/76 77/140/90
f 70/120/51 71/119/74 74/142/92
f 64/117/72 81/143/93 82/144/94
f 66/109/64 67/114/69 78/145/95
f 69/89/52 70/88/51 75/146/96
f 78/145/97 91/147/97 92/148/97
f 63/136/86 82/144/94 83/141/91
f 89/149/98 101/150/98 102/151/99
f 76/139/97 75/146/97 88/152/97
f 82/144/97 95/153/97 96/154/97
f 84/137/97 86/155/97 85/156/97
f 79/110/97 92/157/97 93/158/97
f 77/140/97 76/139/97 89/159/97
f 83/141/97 96/160/97 86/161/97
f 73/138/97 85/162/97 87/163/97
f 80/111/97 93/164/97 94/165/97
f 77/140/97 90/166/97 91/167/97
f 74/142/97 87/168/97 88/169/97
f 81/143/97 94/170/97 95/171/97
f 106/172/97 102/173/97 97/174/97
f 96/175/100 108/176/101 98/177/102
f 85/178/103 97/179/104 99/180/105
f 93/181/106 105/182/107 106/183/108
f 90/184/109 102/151/99 103/185/110
f 88/186/111 87/187/105 99/180/105
f 94/188/112 106/183/108 107/189/113
f 91/190/114 103/185/110 104/191/115
f 89/149/98 88/192/111 100/193/116
f 95/194/117 107/189/113 108/176/101
f 86/195/118 98/177/102 97/179/104
f 92/196/119 104/191/115 105/182/107
f 116/197/14 128/198/120 129/199/121
f 117/200/122 153/201/122 152/202/122
f 118/203/122 154/204/122 153/201/122
f 119/205/122 155/206/122 154/207/122
f 128/208/120 164/209/123 165/210/124
f 113/211/8 125/212/125 126/213/126
f 120/214/22 132/215/127 122/216/128
f 109/217/2 121/218/129 123/219/130
f 117/220/16 129/221/121 130/222/131
f 114/223/10 126/224/126 127/225/132
f 111/226/4 123/227/130 124/228/133
f 118/229/18 130/230/131 131/231/134
f 115/232/12 127/233/132 128/234/120
f 112/235/6 124/236/133 125/237/125
f 119/238/20 131/239/134 132/240/127
f 110/241/1 122/242/128 121/243/129
f 137/244/8 149/245/135 150/246/136
f 136/247/6 148/248/137 149/245/135
f 144/249/22 156/250/138 146/251/139
f 133/252/1 146/251/139 145/253/140
f 135/254/4 147/255/141 148/248/137
f 143/256/20 155/206/142 156/250/138
f 134/257/2 145/253/140 147/255/141
f 142/258/18 154/207/143 155/206/142
f 141/259/16 153/201/144 154/204/143
f 140/260/14 152/202/145 153/201/144
f 139/261/12 151/262/146 152/202/145
f 138/263/10 150/246/136 151/262/146
f 116/264/122 152/202/122 151/262/122
f 115/265/122 151/262/122 150/246/122
f 114/266/122 150/246/122 149/245/122
f 112/235/122 113/267/122 149/245/122
f 112/268/122 148/248/122 147/255/122
f 111/269/122 147/255/122 145/253/122
f 109/270/122 145/253/122 146/251/122
f 120/214/122 110/271/122 146/251/122
f 120/272/122 156/250/122 155/206/122
f 143/256/97 144/249/97 24/35/97
f 144/249/97 133/252/97 2/32/97
f 133/252/97 134/257/97 4/2/97
f 134/257/97 135/254/97 6/5/97
f 135/254/97 136/247/97 8/8/97
f 136/247/97 137/244/97 10/11/97
f 137/244/97 138/263/97 12/14/97
f 138/263/97 139/261/97 14/17/97
f 139/261/97 140/260/97 16/20/97
f 140/260/97 141/259/97 18/23/97
f 141/259/97 142/273/97 20/26/97
f 142/258/97 143/256/97 22/29/97
f 159/274/147 171/275/148 172/276/149
f 125/277/125 161/278/150 162/279/151
f 132/280/127 168/281/152 158/282/153
f 121/283/129 157/284/154 159/274/147
f 129/285/121 165/210/124 166/286/155
f 127/287/132 126/288/126 162/279/151
f 123/289/130 159/274/147 160/290/156
f 131/291/134 130/292/131 166/293/155
f 127/294/132 163/295/157 164/209/123
f 124/296/133 160/290/156 161/278/150
f 132/297/127 131/298/134 167/299/158
f 122/300/128 158/282/153 157/284/154
f 175/301/159 174/302/160 186/303/161
f 166/293/155 178/304/162 179/305/163
f 163/295/157 175/301/159 176/306/164
f 160/290/156 172/276/149 173/307/165
f 167/299/158 179/305/163 180/308/166
f 158/282/153 170/309/167 169/310/168
f 164/209/123 176/306/164 177/311/169
f 161/278/150 173/307/165 174/302/160
f 168/281/152 180/308/166 170/309/167
f 157/284/154 169/310/168 171/275/148
f 165/210/124 177/311/169 178/312/162
f 162/279/151 174/302/160 175/301/159
f 186/303/161 198/313/170 199/314/171
f 171/275/148 183/315/172 184/316/173
f 179/305/163 178/304/162 190/317/174
f 175/301/159 187/318/175 188/319/176
f 172/276/149 184/320/173 185/321/177
f 180/308/166 179/305/163 191/322/178
f 170/309/167 182/323/179 181/324/180
f 176/306/164 188/325/176 189/326/181
f 173/307/165 185/327/177 186/328/161
f 170/309/167 180/308/166 192/329/182
f 171/275/148 169/310/168 181/330/180
f 177/311/169 189/331/181 190/332/174
f 203/333/183 199/334/171 195/335/184
f 183/315/172 195/336/184 196/337/185
f 190/317/174 202/338/186 203/339/183
f 187/318/175 199/340/171 200/341/187
f 185/321/177 184/320/173 196/342/185
f 192/343/182 191/322/178 203/344/183
f 181/324/180 182/323/179 194/345/188
f 188/325/176 200/346/187 201/347/189
f 186/328/161 185/327/177 197/348/190
f 182/349/179 192/329/182 204/350/191
f 181/330/180 193/351/192 195/352/184
f 190/332/174 189/331/181 201/353/189
f 1/62/23 2/1/1 3/3/3
f 3/354/3 4/4/2 5/6/5
f 5/37/5 6/7/4 7/9/7
f 7/58/7 8/10/6 9/12/9
f 9/355/9 10/13/8 11/15/11
f 11/356/11 12/16/10 13/18/13
f 13/357/13 14/19/12 15/21/15
f 15/358/15 16/22/14 17/24/17
f 17/359/17 18/25/16 19/27/19
f 19/360/19 20/28/18 21/30/21
f 23/361/24 24/31/22 1/33/23
f 21/42/21 22/34/20 23/36/24
f 27/362/30 5/37/5 28/38/25
f 30/82/36 31/39/26 42/41/28
f 35/363/32 21/42/21 36/43/29
f 3/354/3 5/6/5 26/45/31
f 19/360/19 21/30/21 34/47/33
f 17/359/17 19/27/19 33/49/34
f 15/358/15 17/24/17 32/51/35
f 13/357/13 15/21/15 31/53/26
f 11/356/11 13/18/13 30/55/36
f 9/355/9 11/15/11 29/57/37
f 28/364/25 7/58/7 29/59/37
f 23/361/24 1/33/23 36/61/29
f 25/365/38 1/62/23 26/63/31
f 54/366/61 42/41/28 55/64/39
f 27/84/30 28/65/25 39/67/41
f 34/367/33 35/68/32 46/70/43
f 31/39/26 32/71/35 43/40/27
f 28/65/25 29/73/37 40/66/40
f 47/69/42 35/68/32 48/76/46
f 25/83/38 26/77/31 37/79/48
f 32/71/35 33/80/34 44/72/44
f 29/73/37 30/82/36 41/74/45
f 48/76/46 36/75/29 37/79/48
f 38/78/47 26/77/31 39/67/41
f 33/80/34 34/85/33 45/81/49
f 57/368/84 58/87/50 69/89/52
f 39/67/41 40/66/40 51/91/54
f 58/369/63 46/70/43 59/92/55
f 43/40/27 44/72/44 55/94/39
f 40/66/40 41/74/45 52/96/53
f 47/69/42 48/76/46 59/98/55
f 49/370/62 37/79/48 50/99/59
f 44/72/44 45/81/49 56/101/56
f 41/74/45 42/41/28 53/103/57
f 48/76/46 37/79/48 60/105/58
f 50/371/59 38/78/47 51/106/54
f 45/81/49 46/86/43 57/108/60
f 65/125/78 66/109/64 80/111/66
f 66/109/64 54/112/67 67/114/69
f 63/136/86 51/115/70 64/117/72
f 58/372/50 59/118/73 70/120/51
f 67/114/69 55/121/68 68/123/76
f 52/373/71 53/124/77 64/117/72
f 59/374/73 60/126/79 71/119/74
f 49/375/85 50/128/81 61/130/83
f 68/123/76 56/131/75 69/89/52
f 53/376/77 54/133/67 65/125/78
f 60/377/79 49/134/85 72/127/80
f 50/378/81 51/135/70 62/129/82
f 72/127/80 61/130/83 73/138/88
f 68/123/76 69/89/52 77/140/90
f 61/130/83 62/129/82 84/137/87
f 71/119/74 72/127/80 74/142/92
f 81/143/93 64/117/72 80/111/66
f 78/145/95 67/114/69 77/140/90
f 75/379/96 70/120/51 74/142/92
f 63/136/86 64/117/72 82/144/94
f 79/110/65 66/109/64 78/145/95
f 76/139/89 69/89/52 75/146/96
f 79/110/97 78/145/97 92/148/97
f 62/129/82 63/136/86 83/141/91
f 90/184/109 89/149/98 102/151/99
f 89/380/97 76/139/97 88/152/97
f 83/141/97 82/144/97 96/154/97
f 73/138/97 84/137/97 85/156/97
f 80/111/97 79/110/97 93/158/97
f 90/381/97 77/140/97 89/159/97
f 84/137/97 83/141/97 86/161/97
f 74/142/97 73/138/97 87/163/97
f 81/143/97 80/111/97 94/165/97
f 78/145/97 77/140/97 91/167/97
f 75/379/97 74/142/97 88/169/97
f 82/144/97 81/143/97 95/171/97
f 97/174/97 98/382/97 108/383/97
f 108/383/97 107/384/97 106/172/97
f 106/172/97 105/385/97 104/386/97
f 104/386/97 103/387/97 102/173/97
f 102/173/97 101/388/97 97/174/97
f 100/389/97 99/390/97 97/174/97
f 97/174/97 108/383/97 106/172/97
f 106/172/97 104/386/97 102/173/97
f 101/388/97 100/389/97 97/174/97
f 86/195/118 96/175/100 98/177/102
f 87/187/105 85/178/103 99/180/105
f 94/188/112 93/181/106 106/183/108
f 91/190/114 90/184/109 103/185/110
f 100/391/116 88/186/111 99/180/105
f 95/194/117 94/188/112 107/189/113
f 92/196/119 91/190/114 104/191/115
f 101/150/98 89/149/98 100/193/116
f 96/175/100 95/194/117 108/176/101
f 85/178/103 86/195/118 97/179/104
f 93/181/106 92/196/119 105/182/107
f 117/200/16 116/197/14 129/199/121
f 116/197/122 117/200/122 152/202/122
f 117/220/122 118/203/122 153/201/122
f 118/229/122 119/205/122 154/207/122
f 129/392/121 128/208/120 165/210/124
f 114/266/10 113/211/8 126/213/126
f 110/271/1 120/214/22 122/216/128
f 111/269/4 109/217/2 123/219/130
f 118/203/18 117/220/16 130/222/131
f 115/265/12 114/223/10 127/225/132
f 112/268/6 111/226/4 124/228/133
f 119/205/20 118/229/18 131/231/134
f 116/264/14 115/232/12 128/234/120
f 113/267/8 112/235/6 125/237/125
f 120/272/22 119/238/20 132/240/127
f 109/270/2 110/241/1 121/243/129
f 138/263/10 137/244/8 150/246/136
f 137/244/8 136/247/6 149/245/135
f 133/252/1 144/249/22 146/251/139
f 134/257/2 133/252/1 145/253/140
f 136/247/6 135/254/4 148/248/137
f 144/249/22 143/256/20 156/250/138
f 135/254/4 134/257/2 147/255/141
f 143/256/20 142/258/18 155/206/142
f 142/273/18 141/259/16 154/204/143
f 141/259/16 140/260/14 153/201/144
f 140/260/14 139/261/12 152/202/145
f 139/261/12 138/263/10 151/262/146
f 115/232/122 116/264/122 151/262/122
f 114/223/122 115/265/122 150/246/122
f 113/211/122 114/266/122 149/245/122
f 148/248/122 112/235/122 149/245/122
f 111/226/122 112/268/122 147/255/122
f 109/217/122 111/269/122 145/253/122
f 110/241/122 109/270/122 146/251/122
f 156/250/122 120/214/122 146/251/122
f 119/238/122 120/272/122 155/206/122
f 22/34/97 143/256/97 24/35/97
f 24/31/97 144/249/97 2/32/97
f 2/1/97 133/252/97 4/2/97
f 4/4/97 134/257/97 6/5/97
f 6/7/97 135/254/97 8/8/97
f 8/10/97 136/247/97 10/11/97
f 10/13/97 137/244/97 12/14/97
f 12/16/97 138/263/97 14/17/97
f 14/19/97 139/261/97 16/20/97
f 16/22/97 140/260/97 18/23/97
f 18/25/97 141/259/97 20/26/97
f 20/28/97 142/258/97 22/29/97
f 160/290/156 159/274/147 172/276/149
f 126/393/126 125/277/125 162/279/151
f 122/394/128 132/280/127 158/282/153
f 123/395/130 121/283/129 159/274/147
f 130/396/131 129/285/121 166/286/155
f 163/295/157 127/287/132 162/279/151
f 124/397/133 123/289/130 160/290/156
f 167/299/158 131/291/134 166/293/155
f 128/398/120 127/294/132 164/209/123
f 125/399/125 124/296/133 161/278/150
f 168/281/152 132/297/127 167/299/158
f 121/400/129 122/300/128 157/284/154
f 187/401/175 175/301/159 186/303/161
f 167/299/158 166/293/155 179/305/163
f 164/209/123 163/295/157 176/306/164
f 161/278/150 160/290/156 173/307/165
f 168/281/152 167/299/158 180/308/166
f 157/284/154 158/282/153 169/310/168
f 165/210/124 164/209/123 177/311/169
f 162/279/151 161/278/150 174/302/160
f 158/282/153 168/281/152 170/309/167
f 159/274/147 157/284/154 171/275/148
f 166/286/155 165/210/124 178/312/162
f 163/295/157 162/279/151 175/301/159
f 187/401/175 186/303/161 199/314/171
f 172/276/149 171/275/148 184/316/173
f 191/402/178 179/305/163 190/317/174
f 176/306/164 175/301/159 188/319/176
f 173/307/165 172/276/149 185/321/177
f 192/343/182 180/308/166 191/322/178
f 169/310/168 170/309/167 181/324/180
f 177/311/169 176/306/164 189/326/181
f 174/302/160 173/307/165 186/328/161
f 182/349/179 170/309/167 192/329/182
f 183/403/172 171/275/148 181/330/180
f 178/312/162 177/311/169 190/332/174
f 195/335/184 193/404/192 203/333/183
f 194/405/188 204/406/191 203/333/183
f 203/333/183 202/407/186 201/408/189
f 201/408/189 200/409/187 199/334/171
f 199/334/171 198/410/170 197/411/190
f 197/411/190 196/412/185 199/334/171
f 193/404/192 194/405/188 203/333/183
f 203/333/183 201/408/189 199/334/171
f 199/334/171 196/412/185 195/335/184
f 184/316/173 183/315/172 196/337/185
f 191/402/178 190/317/174 203/339/183
f 188/319/176 187/318/175 200/341/187
f 197/413/190 185/321/177 196/342/185
f 204/414/191 192/343/182 203/344/183
f 193/415/192 181/324/180 194/345/188
f 189/326/181 188/325/176 201/347/189
f 198/416/170 186/328/161 197/348/190
f 194/417/188 182/349/179 204/350/191
f 183/403/172 181/330/180 195/352/184
f 202/418/186 190/332/174 201/353/189
