# Made in Blockbench 5.1.3
mtllib missile_cluster.mtl

o OTR21_type_thing,_by_glowker
v -0.089533 0.343899 -0.450112
v -0.089533 4.262412 -0.450112
v 0.089533 4.262412 -0.450112
v 0.089533 0.343899 -0.450112
v 0.254968 4.262412 -0.381586
v 0.254968 0.343899 -0.381586
v 0.381586 4.262412 -0.254968
v 0.381586 0.343899 -0.254968
v 0.450112 4.262412 -0.089533
v 0.450112 0.343899 -0.089533
v 0.450112 4.262412 0.089533
v 0.450112 0.343899 0.089533
v 0.381586 4.262412 0.254968
v 0.381586 0.343899 0.254968
v 0.254968 4.262412 0.381586
v 0.254968 0.343899 0.381586
v 0.089533 4.262412 0.450112
v 0.089533 0.343899 0.450112
v -0.089533 4.262412 0.450112
v -0.089533 0.343899 0.450112
v -0.254968 4.262412 0.381586
v -0.254968 0.343899 0.381586
v -0.381586 4.262412 0.254968
v -0.381586 0.343899 0.254968
v -0.450112 4.262412 0.089533
v -0.450112 0.343899 0.089533
v -0.450112 4.262412 -0.089533
v -0.450112 0.343899 -0.089533
v -0.381586 4.262412 -0.254968
v -0.381586 0.343899 -0.254968
v 0.065788 5.398585 0.330738
v -0.065788 5.398585 0.330738
v -0.254968 4.262412 -0.381586
v -0.254968 0.343899 -0.381586
v 0.370466 0.308590 -0.073690
v 0.370466 0.308590 0.073690
v 0.412873 0.000000 0.082126
v 0.412873 0.000000 -0.082126
v -0.065788 5.398585 -0.330738
v -0.187348 5.398585 -0.280386
v -0.000000 7.000000 0.000000
v -0.330738 5.398585 -0.065788
v -0.280386 5.398585 -0.187348
v 0.065788 5.398585 -0.330738
v 0.187347 5.398585 -0.280386
v 0.280386 5.398585 0.187348
v 0.187347 5.398585 0.280386
v -0.280386 5.398585 0.187348
v -0.330738 5.398585 0.065788
v 0.330738 5.398585 -0.065788
v 0.330738 5.398585 0.065788
v -0.187348 5.398585 0.280386
v 0.280386 5.398585 -0.187348
v 0.073690 0.308590 -0.370466
v -0.073690 0.308590 -0.370466
v 0.209852 0.308590 -0.314066
v 0.314066 0.308590 -0.209852
v 0.314066 0.308590 0.209852
v 0.209852 0.308590 0.314066
v 0.073690 0.308590 0.370466
v -0.073690 0.308590 0.370466
v -0.209852 0.308590 0.314066
v -0.314066 0.308590 0.209852
v -0.370466 0.308590 0.073690
v -0.370466 0.308590 -0.073690
v -0.314066 0.308590 -0.209852
v -0.209852 0.308590 -0.314066
v -0.082126 0.000000 -0.412874
v 0.082126 0.000000 -0.412873
v 0.233874 0.000000 -0.350017
v 0.350017 0.000000 -0.233874
v -0.412874 0.000000 -0.082126
v -0.412874 0.000000 0.082126
v 0.350017 0.000000 0.233874
v -0.350017 0.000000 -0.233874
v 0.233874 0.000000 0.350017
v -0.233874 0.000000 -0.350017
v 0.082126 0.000000 0.412874
v -0.082126 0.000000 0.412874
v -0.233874 0.000000 0.350017
v -0.350017 0.000000 0.233874
v 0.000000 2.098678 0.421010
v -0.041034 2.714105 0.421010
v -0.041034 2.714105 0.775411
v 0.000000 2.098678 0.775411
v 0.000000 2.760372 0.775411
v 0.041034 2.714105 0.775411
v 0.041034 2.714105 0.421010
v 0.000000 2.760372 0.421010
v -0.041034 3.154684 0.421010
v 0.000000 3.200952 0.421010
v 0.041034 3.154684 0.421010
v 0.000000 2.098678 -0.421010
v -0.041034 2.714105 -0.421010
v -0.041034 2.714105 -0.775411
v 0.000000 2.098678 -0.775411
v 0.000000 2.760372 -0.775411
v 0.041034 2.714105 -0.775411
v 0.041034 2.714105 -0.421010
v 0.000000 2.760372 -0.421010
v -0.041034 3.154684 -0.421010
v 0.000000 3.200952 -0.421010
v 0.041034 3.154684 -0.421010
v -0.421010 2.098678 0.000000
v -0.421010 2.714105 0.041034
v -0.775411 2.714105 0.041034
v -0.775411 2.098678 0.000000
v -0.775411 2.760372 0.000000
v -0.775411 2.714105 -0.041034
v -0.421010 2.714105 -0.041034
v -0.421010 2.760372 0.000000
v -0.421010 3.154684 0.041034
v -0.421010 3.200952 0.000000
v -0.421010 3.154684 -0.041034
v 0.421010 2.098678 0.000000
v 0.421010 2.714105 0.041034
v 0.775411 2.714105 0.041034
v 0.775411 2.098678 0.000000
v 0.775411 2.760372 0.000000
v 0.775411 2.714105 -0.041034
v 0.421010 2.714105 -0.041034
v 0.421010 2.760372 0.000000
v 0.421010 3.154684 0.041034
v 0.421010 3.200952 0.000000
v 0.421010 3.154684 -0.041034
v 0.462158 0.531767 -0.176137
v 0.462158 0.531767 0.176137
v 0.509598 0.512116 0.176137
v 0.509598 0.512116 -0.176137
v 0.529248 0.464677 0.176137
v 0.529248 0.464677 -0.176137
v 0.509598 0.417238 0.176137
v 0.509598 0.417238 -0.176137
v 0.462158 0.397588 0.176137
v 0.462158 0.397588 -0.176137
v 0.414719 0.417238 0.176137
v 0.414719 0.417238 -0.176137
v 0.395069 0.464677 0.176137
v 0.395069 0.464677 -0.176137
v 0.414719 0.512116 0.176137
v 0.414719 0.512116 -0.176137
v 0.480391 0.404932 -0.170732
v 0.480391 0.524422 -0.170732
v 0.951038 0.524422 -0.170732
v 0.951038 0.404932 -0.170732
v 0.951038 0.524422 0.170732
v 0.951038 0.404932 0.170732
v 0.480391 0.524422 0.170732
v 0.480391 0.404932 0.170732
v 0.537225 0.404932 -0.145786
v 0.537225 0.524422 -0.145786
v 0.537225 0.524422 0.145786
v 0.537225 0.404932 0.145786
v 0.918424 0.404932 -0.145786
v 0.918424 0.524422 -0.145786
v 0.918424 0.404932 0.145786
v 0.918424 0.524422 0.145786
v 0.526614 0.413375 0.000000
v 0.929034 0.413375 0.000000
v 0.929034 0.515980 0.000000
v 0.526614 0.515980 0.000000
v 0.526614 0.413375 -0.057911
v 0.929034 0.413375 -0.057911
v 0.929034 0.515980 -0.057911
v 0.526614 0.515980 -0.057911
v 0.526614 0.413375 -0.115823
v 0.929034 0.413375 -0.115823
v 0.929034 0.515980 -0.115823
v 0.526614 0.515980 -0.115823
v 0.526614 0.413375 0.057911
v 0.929034 0.413375 0.057911
v 0.929034 0.515980 0.057911
v 0.526614 0.515980 0.057911
v 0.526614 0.413375 0.115823
v 0.929034 0.413375 0.115823
v 0.929034 0.515980 0.115823
v 0.526614 0.515980 0.115823
v 0.727824 0.413375 0.168465
v 0.727824 0.413375 -0.168465
v 0.727824 0.515980 -0.168465
v 0.727824 0.515980 0.168465
v 0.785735 0.413375 0.168465
v 0.785735 0.413375 -0.168465
v 0.785735 0.515980 -0.168465
v 0.785735 0.515980 0.168465
v 0.669913 0.413375 0.168465
v 0.669913 0.413375 -0.168465
v 0.669913 0.515980 -0.168465
v 0.669913 0.515980 0.168465
v 0.612001 0.413375 0.168465
v 0.612001 0.413375 -0.168465
v 0.612001 0.515980 -0.168465
v 0.612001 0.515980 0.168465
v 0.554090 0.413375 0.168465
v 0.554090 0.413375 -0.168465
v 0.554090 0.515980 -0.168465
v 0.554090 0.515980 0.168465
v 0.843647 0.413375 0.168465
v 0.843647 0.413375 -0.168465
v 0.843647 0.515980 -0.168465
v 0.843647 0.515980 0.168465
v 0.901558 0.413375 0.168465
v 0.901558 0.413375 -0.168465
v 0.901558 0.515980 -0.168465
v 0.901558 0.515980 0.168465
v -0.462160 0.531767 -0.176137
v -0.462160 0.531767 0.176137
v -0.509599 0.512116 0.176137
v -0.509599 0.512116 -0.176137
v -0.529249 0.464677 0.176137
v -0.529249 0.464677 -0.176137
v -0.509599 0.417238 0.176137
v -0.509599 0.417238 -0.176137
v -0.462160 0.397588 0.176137
v -0.462160 0.397588 -0.176137
v -0.414720 0.417238 0.176137
v -0.414720 0.417238 -0.176137
v -0.395070 0.464677 0.176137
v -0.395070 0.464677 -0.176137
v -0.414720 0.512116 0.176137
v -0.414720 0.512116 -0.176137
v -0.480392 0.404932 -0.170732
v -0.480392 0.524422 -0.170732
v -0.951039 0.524422 -0.170732
v -0.951039 0.404932 -0.170732
v -0.951039 0.524422 0.170732
v -0.951039 0.404932 0.170732
v -0.480392 0.524422 0.170732
v -0.480392 0.404932 0.170732
v -0.537225 0.404932 -0.145786
v -0.537225 0.524422 -0.145786
v -0.537225 0.524422 0.145786
v -0.537225 0.404932 0.145786
v -0.918425 0.404932 -0.145786
v -0.918425 0.524422 -0.145786
v -0.918425 0.404932 0.145786
v -0.918425 0.524422 0.145786
v -0.526615 0.413375 0.000000
v -0.929035 0.413375 0.000000
v -0.929035 0.515980 0.000000
v -0.526615 0.515980 0.000000
v -0.526615 0.413375 -0.057911
v -0.929035 0.413375 -0.057911
v -0.929035 0.515980 -0.057911
v -0.526615 0.515980 -0.057911
v -0.526615 0.413375 -0.115823
v -0.929035 0.413375 -0.115823
v -0.929035 0.515980 -0.115823
v -0.526615 0.515980 -0.115823
v -0.526615 0.413375 0.057911
v -0.929035 0.413375 0.057911
v -0.929035 0.515980 0.057911
v -0.526615 0.515980 0.057911
v -0.526615 0.413375 0.115823
v -0.929035 0.413375 0.115823
v -0.929035 0.515980 0.115823
v -0.526615 0.515980 0.115823
v -0.727825 0.413375 0.168465
v -0.727825 0.413375 -0.168465
v -0.727825 0.515980 -0.168465
v -0.727825 0.515980 0.168465
v -0.785737 0.413375 0.168465
v -0.785737 0.413375 -0.168465
v -0.785737 0.515980 -0.168465
v -0.785737 0.515980 0.168465
v -0.669914 0.413375 0.168465
v -0.669914 0.413375 -0.168465
v -0.669914 0.515980 -0.168465
v -0.669914 0.515980 0.168465
v -0.612003 0.413375 0.168465
v -0.612003 0.413375 -0.168465
v -0.612003 0.515980 -0.168465
v -0.612003 0.515980 0.168465
v -0.554091 0.413375 0.168465
v -0.554091 0.413375 -0.168465
v -0.554091 0.515980 -0.168465
v -0.554091 0.515980 0.168465
v -0.843648 0.413375 0.168465
v -0.843648 0.413375 -0.168465
v -0.843648 0.515980 -0.168465
v -0.843648 0.515980 0.168465
v -0.901559 0.413375 0.168465
v -0.901559 0.413375 -0.168465
v -0.901559 0.515980 -0.168465
v -0.901559 0.515980 0.168465
v -0.176137 0.531767 0.462159
v 0.176136 0.531767 0.462159
v 0.176136 0.512116 0.509599
v -0.176137 0.512116 0.509599
v 0.176136 0.464677 0.529249
v -0.176137 0.464677 0.529249
v 0.176136 0.417238 0.509599
v -0.176137 0.417238 0.509599
v 0.176136 0.397588 0.462159
v -0.176137 0.397588 0.462159
v 0.176136 0.417238 0.414719
v -0.176137 0.417238 0.414719
v 0.176136 0.464677 0.395069
v -0.176137 0.464677 0.395069
v 0.176136 0.512116 0.414719
v -0.176137 0.512116 0.414719
v -0.170732 0.404932 0.480392
v -0.170732 0.524422 0.480392
v -0.170732 0.524422 0.951039
v -0.170732 0.404932 0.951039
v 0.170732 0.524422 0.951039
v 0.170732 0.404932 0.951039
v 0.170731 0.524422 0.480392
v 0.170731 0.404932 0.480392
v -0.145786 0.404932 0.537225
v -0.145786 0.524422 0.537225
v 0.145785 0.524422 0.537225
v 0.145785 0.404932 0.537225
v -0.145786 0.404932 0.918424
v -0.145786 0.524422 0.918424
v 0.145785 0.404932 0.918424
v 0.145785 0.524422 0.918424
v -0.000000 0.413375 0.526615
v -0.000000 0.413375 0.929035
v -0.000000 0.515980 0.929035
v -0.000000 0.515980 0.526615
v -0.057912 0.413375 0.526615
v -0.057912 0.413375 0.929035
v -0.057912 0.515980 0.929035
v -0.057912 0.515980 0.526615
v -0.115823 0.413375 0.526615
v -0.115823 0.413375 0.929035
v -0.115823 0.515980 0.929035
v -0.115823 0.515980 0.526615
v 0.057911 0.413375 0.526615
v 0.057911 0.413375 0.929035
v 0.057911 0.515980 0.929035
v 0.057911 0.515980 0.526615
v 0.115822 0.413375 0.526615
v 0.115822 0.413375 0.929035
v 0.115822 0.515980 0.929035
v 0.115822 0.515980 0.526615
v 0.168465 0.413375 0.727825
v -0.168466 0.413375 0.727825
v -0.168466 0.515980 0.727825
v 0.168465 0.515980 0.727825
v 0.168465 0.413375 0.785736
v -0.168466 0.413375 0.785736
v -0.168466 0.515980 0.785736
v 0.168465 0.515980 0.785736
v 0.168465 0.413375 0.669913
v -0.168466 0.413375 0.669913
v -0.168466 0.515980 0.669913
v 0.168465 0.515980 0.669913
v 0.168465 0.413375 0.612002
v -0.168466 0.413375 0.612002
v -0.168466 0.515980 0.612002
v 0.168465 0.515980 0.612002
v 0.168465 0.413375 0.554091
v -0.168466 0.413375 0.554091
v -0.168466 0.515980 0.554091
v 0.168465 0.515980 0.554091
v 0.168465 0.413375 0.843648
v -0.168466 0.413375 0.843648
v -0.168466 0.515980 0.843648
v 0.168465 0.515980 0.843648
v 0.168465 0.413375 0.901559
v -0.168466 0.413375 0.901559
v -0.168466 0.515980 0.901559
v 0.168465 0.515980 0.901559
v -0.176137 0.531767 -0.462159
v 0.176136 0.531767 -0.462159
v 0.176136 0.512116 -0.509599
v -0.176137 0.512116 -0.509599
v 0.176136 0.464677 -0.529249
v -0.176137 0.464677 -0.529249
v 0.176136 0.417238 -0.509599
v -0.176137 0.417238 -0.509599
v 0.176136 0.397588 -0.462159
v -0.176137 0.397588 -0.462159
v 0.176136 0.417238 -0.414719
v -0.176137 0.417238 -0.414719
v 0.176136 0.464677 -0.395069
v -0.176137 0.464677 -0.395069
v 0.176136 0.512116 -0.414719
v -0.176137 0.512116 -0.414719
v -0.170732 0.404932 -0.480392
v -0.170732 0.524422 -0.480392
v -0.170732 0.524422 -0.951039
v -0.170732 0.404932 -0.951039
v 0.170731 0.524422 -0.951039
v 0.170731 0.404932 -0.951039
v 0.170731 0.524422 -0.480392
v 0.170731 0.404932 -0.480392
v -0.145786 0.404932 -0.537225
v -0.145786 0.524422 -0.537225
v 0.145785 0.524422 -0.537225
v 0.145785 0.404932 -0.537225
v -0.145786 0.404932 -0.918424
v -0.145786 0.524422 -0.918424
v 0.145785 0.404932 -0.918424
v 0.145785 0.524422 -0.918424
v -0.000000 0.413375 -0.526615
v -0.000000 0.413375 -0.929035
v -0.000000 0.515980 -0.929035
v -0.000000 0.515980 -0.526615
v -0.057912 0.413375 -0.526615
v -0.057912 0.413375 -0.929035
v -0.057912 0.515980 -0.929035
v -0.057912 0.515980 -0.526615
v -0.115823 0.413375 -0.526615
v -0.115823 0.413375 -0.929035
v -0.115823 0.515980 -0.929035
v -0.115823 0.515980 -0.526615
v 0.057911 0.413375 -0.526615
v 0.057911 0.413375 -0.929035
v 0.057911 0.515980 -0.929035
v 0.057911 0.515980 -0.526615
v 0.115822 0.413375 -0.526615
v 0.115822 0.413375 -0.929035
v 0.115822 0.515980 -0.929035
v 0.115822 0.515980 -0.526615
v 0.168465 0.413375 -0.727825
v -0.168466 0.413375 -0.727825
v -0.168466 0.515980 -0.727825
v 0.168465 0.515980 -0.727825
v 0.168465 0.413375 -0.785736
v -0.168466 0.413375 -0.785736
v -0.168466 0.515980 -0.785736
v 0.168465 0.515980 -0.785736
v 0.168465 0.413375 -0.669913
v -0.168466 0.413375 -0.669913
v -0.168466 0.515980 -0.669913
v 0.168465 0.515980 -0.669913
v 0.168465 0.413375 -0.612002
v -0.168466 0.413375 -0.612002
v -0.168466 0.515980 -0.612002
v 0.168465 0.515980 -0.612002
v 0.168465 0.413375 -0.554091
v -0.168466 0.413375 -0.554091
v -0.168466 0.515980 -0.554091
v 0.168465 0.515980 -0.554091
v 0.168465 0.413375 -0.843648
v -0.168466 0.413375 -0.843648
v -0.168466 0.515980 -0.843648
v 0.168465 0.515980 -0.843648
v 0.168465 0.413375 -0.901559
v -0.168466 0.413375 -0.901559
v -0.168466 0.515980 -0.901559
v 0.168465 0.515980 -0.901559
vt 0.0297080078125 0.4579955078125
vt 0.0297080078125 0.7751705078125
vt 0.0152138671875 0.7751705078125
vt 0.0152138671875 0.4579955078125
vt 0.0152138671875 0.4579955078125
vt 0.0152138671875 0.7751705078125
vt 0.0007197265624999984 0.7751705078125
vt 0.0007197265624999984 0.4579955078125
vt 0.194181640625 0.4579955078125
vt 0.194181640625 0.7751705078125
vt 0.1796875 0.7751705078125
vt 0.1796875 0.4579955078125
vt 0.0891240234375 0.4579955078125
vt 0.0891240234375 0.7751705078125
vt 0.07462988281249999 0.7751705078125
vt 0.07462988281249999 0.4579955078125
vt 0.07462988281249999 0.4579955078125
vt 0.07462988281249999 0.7751705078125
vt 0.0601357421875 0.7751705078125
vt 0.0601357421875 0.4579955078125
vt 0.0601357421875 0.4579955078125
vt 0.0601357421875 0.7751705078125
vt 0.045641601562499995 0.7751705078125
vt 0.045641601562499995 0.4579955078125
vt 0.2109375 0.4579955078125
vt 0.2109375 0.7751705078125
vt 0.196443359375 0.7751705078125
vt 0.196443359375 0.4579955078125
vt 0.1340458984375 0.4579955078125
vt 0.1340458984375 0.7751705078125
vt 0.11955175781249999 0.7751705078125
vt 0.11955175781249999 0.4579955078125
vt 0.11955175781249999 0.4579955078125
vt 0.11955175781249999 0.7751705078125
vt 0.10505761718750001 0.7751705078125
vt 0.10505761718750001 0.4579955078125
vt 0.10505761718750001 0.4579955078125
vt 0.10505761718750001 0.7751705078125
vt 0.0905634765625 0.7751705078125
vt 0.0905634765625 0.4579955078125
vt 0.225431640625 0.4579955078125
vt 0.225431640625 0.7751705078125
vt 0.2109375 0.7751705078125
vt 0.2109375 0.4579955078125
vt 0.1789677734375 0.4579955078125
vt 0.1789677734375 0.7751705078125
vt 0.1644736328125 0.7751705078125
vt 0.1644736328125 0.4579955078125
vt 0.1644736328125 0.4579955078125
vt 0.1644736328125 0.7751705078125
vt 0.1499794921875 0.7751705078125
vt 0.1499794921875 0.4579955078125
vt 0.1499794921875 0.4579955078125
vt 0.1499794921875 0.7751705078125
vt 0.1354853515625 0.7751705078125
vt 0.1354853515625 0.4579955078125
vt 0.10505761718750001 0.7751705078125
vt 0.11955175781249999 0.7751705078125
vt 0.1176296875 0.8676416015624999
vt 0.1069796875 0.8676416015624999
vt 0.2421875 0.4579955078125
vt 0.2421875 0.7751705078125
vt 0.227693359375 0.7751705078125
vt 0.227693359375 0.4579955078125
vt 0.044202148437500005 0.4579955078125
vt 0.044202148437500005 0.7751705078125
vt 0.0297080078125 0.7751705078125
vt 0.0297080078125 0.4579955078125
vt 0.32725371365572287 0.669276207959064
vt 0.31532441678072287 0.669276207959064
vt 0.3146416042807229 0.6440635126465639
vt 0.3279365261557229 0.6440635126465639
vt 0.031630078125 0.8676416015624999
vt 0.042280078124999995 0.8676416015624999
vt 0.036955078125 1
vt 0.1354853515625 0.7751705078125
vt 0.1499794921875 0.7751705078125
vt 0.148057421875 0.8676416015624999
vt 0.137407421875 0.8676416015624999
vt 0.0007197265624999984 0.7751705078125
vt 0.0152138671875 0.7751705078125
vt 0.013291796875 0.8676416015624999
vt 0.002641796874999998 0.8676416015624999
vt 0.196443359375 0.7751705078125
vt 0.2109375 0.7751705078125
vt 0.2090154296875 0.8676416015624999
vt 0.1983654296875 0.8676416015624999
vt 0.1644736328125 0.7751705078125
vt 0.1789677734375 0.7751705078125
vt 0.177045703125 0.8676416015624999
vt 0.16639570312500002 0.8676416015624999
vt 0.0601357421875 0.7751705078125
vt 0.07462988281249999 0.7751705078125
vt 0.0727078125 0.8676416015624999
vt 0.062057812500000004 0.8676416015624999
vt 0.0905634765625 0.7751705078125
vt 0.10505761718750001 0.7751705078125
vt 0.103135546875 0.8676416015624999
vt 0.09248554687499999 0.8676416015624999
vt 0.227693359375 0.7751705078125
vt 0.2421875 0.7751705078125
vt 0.2402654296875 0.8676416015624999
vt 0.2296154296875 0.8676416015624999
vt 0.1796875 0.7751705078125
vt 0.194181640625 0.7751705078125
vt 0.1922595703125 0.8676416015624999
vt 0.1816095703125 0.8676416015624999
vt 0.1195517578125 0.7751705078125
vt 0.1340458984375 0.7751705078125
vt 0.132123828125 0.8676416015624999
vt 0.121473828125 0.8676416015624999
vt 0.0152138671875 0.7751705078125
vt 0.0297080078125 0.7751705078125
vt 0.0277859375 0.8676416015624999
vt 0.0171359375 0.8676416015624999
vt 0.1499794921875 0.7751705078125
vt 0.1644736328125 0.7751705078125
vt 0.1625515625 0.8676416015624999
vt 0.1519015625 0.8676416015624999
vt 0.045641601562499995 0.7751705078125
vt 0.0601357421875 0.7751705078125
vt 0.058213671875 0.8676416015624999
vt 0.047563671875 0.8676416015624999
vt 0.2109375 0.7751705078125
vt 0.225431640625 0.7751705078125
vt 0.2235095703125 0.8676416015624999
vt 0.2128595703125 0.8676416015624999
vt 0.029708007812500003 0.7751705078125
vt 0.044202148437500005 0.7751705078125
vt 0.042280078124999995 0.8676416015624999
vt 0.031630078125 0.8676416015624999
vt 0.0746298828125 0.7751705078125
vt 0.0891240234375 0.7751705078125
vt 0.087201953125 0.8676416015624999
vt 0.076551953125 0.8676416015624999
vt 0.1069796875 0.8676416015624999
vt 0.1176296875 0.8676416015624999
vt 0.1123046875 1
vt 0.002641796874999998 0.8676416015624999
vt 0.013291796875 0.8676416015624999
vt 0.007966796875 1
vt 0.09248554687499999 0.8676416015624999
vt 0.103135546875 0.8676416015624999
vt 0.097810546875 1
vt 0.1816095703125 0.8676416015624999
vt 0.1922595703125 0.8676416015624999
vt 0.1869345703125 1
vt 0.2128595703125 0.8676416015624999
vt 0.2235095703125 0.8676416015624999
vt 0.2181845703125 1
vt 0.076551953125 0.8676416015624999
vt 0.087201953125 0.8676416015624999
vt 0.081876953125 1
vt 0.16639570312500002 0.8676416015624999
vt 0.177045703125 0.8676416015624999
vt 0.17172070312499998 1
vt 0.062057812500000004 0.8676416015624999
vt 0.0727078125 0.8676416015624999
vt 0.0673828125 1
vt 0.1519015625 0.8676416015624999
vt 0.1625515625 0.8676416015624999
vt 0.1572265625 1
vt 0.047563671875 0.8676416015624999
vt 0.058213671875 0.8676416015624999
vt 0.052888671875 1
vt 0.137407421875 0.8676416015624999
vt 0.148057421875 0.8676416015624999
vt 0.142732421875 1
vt 0.1983654296875 0.8676416015624999
vt 0.2090154296875 0.8676416015624999
vt 0.2036904296875 1
vt 0.2296154296875 0.8676416015624999
vt 0.2402654296875 0.8676416015624999
vt 0.2349404296875 1
vt 0.121473828125 0.8676416015624999
vt 0.132123828125 0.8676416015624999
vt 0.12679882812499998 1
vt 0.0171359375 0.8676416015624999
vt 0.0277859375 0.8676416015624999
vt 0.0224609375 1
vt 0.2733320563842843 0.9925711329609966
vt 0.2852613532592843 0.9925711329609966
vt 0.2865437751342843 0.9996228907734966
vt 0.2720496345092843 0.9996228907734966
vt 0.2621665620496005 0.9883711496045977
vt 0.2733320563842843 0.9925711329609966
vt 0.2720496345092843 0.9996228907734966
vt 0.2584835168470019 0.9945198951796925
vt 0.25319462833540596 0.9805090551406533
vt 0.2621665620496005 0.9883711496045977
vt 0.2584834181033715 0.9945200600295455
vt 0.24758248485522366 0.9849675856497474
vt 0.2475650733586336 0.9699916298523338
vt 0.25319462833540596 0.9805090551406533
vt 0.24758248485522366 0.9849675856497474
vt 0.24074255435936134 0.9721888743192162
vt 0.245998808300677 0.9581656018758699
vt 0.2475650733586336 0.9699916298523338
vt 0.24074273726839343 0.9721888154119622
vt 0.23883971932492837 0.9578201468875608
vt 0.248696452376387 0.9465453247547049
vt 0.245998808300677 0.9581656018758699
vt 0.23883971932492837 0.9578201468875608
vt 0.2421173670353714 0.9437014664271388
vt 0.25531251060952265 0.9366187998145435
vt 0.248696452376387 0.9465453247547049
vt 0.24211719064797038 0.9437013901823793
vt 0.25015572631516636 0.931640625
vt 0.35752711880654997 0.8752937333563989
vt 0.3686926336183356 0.8710938044379908
vt 0.37237571760573246 0.8772427507773612
vt 0.35880957506369426 0.8823456802288014
vt 0.34559782193155 0.8752937333563989
vt 0.35752711880654997 0.8752937333563989
vt 0.35880954068154997 0.8823454911688989
vt 0.34431540005655 0.8823454911688989
vt 0.33443232759686614 0.87109375
vt 0.34559782193155 0.8752937333563989
vt 0.34431540005655 0.8823454911688989
vt 0.33074928239426754 0.8772424955750948
vt 0.3098971623414172 0.9465454809742616
vt 0.30328120090316013 0.9366188915207091
vt 0.30843803373996503 0.9316407669907354
vt 0.3164764518010191 0.9437016105571281
vt 0.31259474976183743 0.9581657712477907
vt 0.3098971623414172 0.9465454809742616
vt 0.3164764518010191 0.9437016105571281
vt 0.31975403067507163 0.957820306997722
vt 0.3110284847038808 0.9699917992242547
vt 0.31259474976183743 0.9581657712477907
vt 0.319753838737586 0.9578203162594817
vt 0.31785082079412097 0.9721889847838832
vt 0.3053988784489283 0.9805091970652648
vt 0.3110284847038808 0.9699917992242547
vt 0.31785082079412097 0.9721889847838832
vt 0.3110108279950768 0.9849676627658303
vt 0.29642686807106994 0.9883712040425885
vt 0.3053988784489284 0.9805091970652648
vt 0.31101097845325504 0.9849677822987344
vt 0.3001099520584668 0.9945201503819588
vt 0.2852613532592843 0.9925711329609966
vt 0.29642686807106994 0.9883712040425885
vt 0.3001099520584668 0.9945201503819588
vt 0.2865438095164286 0.9996230798333992
vt 0.3643630859375 0.7591199629534139
vt 0.3524337890625 0.7591199629534139
vt 0.3517509765625 0.7339070723284139
vt 0.3650458984375 0.7339070723284139
vt 0.31532441678072287 0.669276207959064
vt 0.3034126057836992 0.6699218725028251
vt 0.30136616472145566 0.6447828954839181
vt 0.31464159899512867 0.6440633174772084
vt 0.3524337890625 0.7591199629534139
vt 0.3405219779301204 0.759765625
vt 0.3384755421379759 0.7346266475520806
vt 0.3517509765625 0.7339070723284139
vt 0.3637202475358514 0.8671875
vt 0.3518608426410918 0.8658980662196003
vt 0.3539072625920714 0.8407592833688864
vt 0.36712429149259673 0.842196327106923
vt 0.3559077312580505 0.7265624975138114
vt 0.3440483263632908 0.7252730637334117
vt 0.34609476742553436 0.7001340867145047
vt 0.35931179632605975 0.7015711304525415
vt 0.3518608426410918 0.8658980662196003
vt 0.33994903150871214 0.8652524041730143
vt 0.34063184400871216 0.8400395135480143
vt 0.3539072784332362 0.8407590887716809
vt 0.33213651536626715 0.7246273991896507
vt 0.32020721849126715 0.7246273991896507
vt 0.31952440599126714 0.6994147038771508
vt 0.3328193278662671 0.6994147038771508
vt 0.3440483263632908 0.7252730637334117
vt 0.33213651536626715 0.7246273991896507
vt 0.3328193331518613 0.6994145087077951
vt 0.34609476742553436 0.7001340867145047
vt 0.33994903150871214 0.8652524041730143
vt 0.32801973463371215 0.8652524041730143
vt 0.3273369221337122 0.8400395135480143
vt 0.34063184400871216 0.8400395135480143
vt 0.32020721849126715 0.7246273991896507
vt 0.30829540749424345 0.7252730637334117
vt 0.3062489664319999 0.7001340867145047
vt 0.31952440070567295 0.6994145087077951
vt 0.32801973463371215 0.8652524041730143
vt 0.31610792350133254 0.8658980662196003
vt 0.3140614877091881 0.8407590887716809
vt 0.3273369221337122 0.8400395135480143
vt 0.30829540749424345 0.7252730637334117
vt 0.2964360028697991 0.7265625
vt 0.29303195367394025 0.7015713278205425
vt 0.3062489822732055 0.7001342813117069
vt 0.31610792350133254 0.8658980662196003
vt 0.3042485183362581 0.8671874975138114
vt 0.30084445850740327 0.8421961297389187
vt 0.3140614877091881 0.8407590887716809
vt 0.3391655245173901 0.669921875
vt 0.32725371365572287 0.669276207959064
vt 0.3279365261557229 0.6440635126465639
vt 0.34121196027854434 0.6447830934363167
vt 0.3762748970698796 0.759765625
vt 0.3643630859375 0.7591199629534139
vt 0.3650458984375 0.7339070723284139
vt 0.3783213328620241 0.7346266475520806
vt 0.27117900390625 0.7659759765625
vt 0.27117900390625 0.8159009765625
vt 0.24249287109375 0.8159009765625
vt 0.24249287109375 0.7659759765625
vt 0.07090481850586389 0.9465592737401952
vt 0.07753268149413611 0.9960424237347963
vt 0.07446788280716944 1
vt 0.07090481850586389 0.9964843245782214
vt 0.27117900390625 0.8519134765625
vt 0.27117900390625 0.9018384765625
vt 0.24249287109375 0.9018384765625
vt 0.24249287109375 0.8519134765625
vt 0.015625 0.91077890625
vt 0.0189462890625 0.960593359375
vt 0.015625 0.9643382812500001
vt 0.0123037109375 0.960593359375
vt 0.3818243488680902 0.8203125
vt 0.37890625 0.81640625
vt 0.4246736150460929 0.81640625
vt 0.42759171391418316 0.8203125
vt 0.24249287109375 0.9018384765625
vt 0.27117900390625 0.9018384765625
vt 0.24249287109375 0.9375
vt 0.24249287109375 0.8159009765625
vt 0.27117900390625 0.8159009765625
vt 0.27117900390625 0.8515625
vt 0.015625 0.9643382812500001
vt 0.0189462890625 0.960593359375
vt 0.0189462890625 0.9962548828125
vt 0.015625 1
vt 0.0123037109375 0.960593359375
vt 0.015625 0.9643382812500001
vt 0.015625 1
vt 0.0123037109375 0.9962548828125
vt 0.072265625 0.90625
vt 0.076171875 0.9091681219190676
vt 0.076171875 0.9549355818745598
vt 0.072265625 0.9520172828026883
vt 0.30047587890625 0.8987884765625
vt 0.30047587890625 0.9487134765625
vt 0.27178974609375 0.9487134765625
vt 0.27178974609375 0.8987884765625
vt 0.08652981850586389 0.9465592737401952
vt 0.09315768149413611 0.9960424237347963
vt 0.09009288280716944 1
vt 0.08652981850586389 0.9964843245782214
vt 0.27117900390625 0.6800384765625
vt 0.27117900390625 0.7299634765625
vt 0.24249287109375 0.7299634765625
vt 0.24249287109375 0.6800384765625
vt 0.029296875 0.91077890625
vt 0.032618164062499996 0.960593359375
vt 0.029296875 0.9643382812500001
vt 0.0259755859375 0.960593359375
vt 0.38196700995390703 0.81640625
vt 0.37904891108581684 0.8125
vt 0.42481627613190975 0.8125
vt 0.427734375 0.81640625
vt 0.24249287109375 0.7299634765625
vt 0.27117900390625 0.7299634765625
vt 0.24249287109375 0.765625
vt 0.27178974609375 0.9487134765625
vt 0.30047587890625 0.9487134765625
vt 0.30047587890625 0.984375
vt 0.029296875 0.9643382812500001
vt 0.032618164062499996 0.960593359375
vt 0.032618164062499996 0.9962548828125
vt 0.029296875 1
vt 0.0259755859375 0.960593359375
vt 0.029296875 0.9643382812500001
vt 0.029296875 1
vt 0.0259755859375 0.9962548828125
vt 0.087890625 0.9063925431254402
vt 0.091796875 0.9093106650445077
vt 0.091796875 0.955078125
vt 0.087890625 0.9521598259281284
vt 0.30047587890625 0.7269134765625
vt 0.30047587890625 0.7768384765625
vt 0.27178974609375 0.7768384765625
vt 0.27178974609375 0.7269134765625
vt 0.10215481850586389 0.9465592737401952
vt 0.10878268149413611 0.9960424237347963
vt 0.10571788280716944 1
vt 0.10215481850586389 0.9964843245782214
vt 0.30047587890625 0.8128509765625
vt 0.30047587890625 0.8627759765625
vt 0.27178974609375 0.8627759765625
vt 0.27178974609375 0.8128509765625
vt 0.044921875 0.91077890625
vt 0.048243164062499996 0.960593359375
vt 0.044921875 0.9643382812500001
vt 0.041600585937500004 0.960593359375
vt 0.3740118488680902 0.875
vt 0.37109375 0.87109375
vt 0.4168611150460929 0.87109375
vt 0.41977921391418316 0.875
vt 0.27178974609375 0.8627759765625
vt 0.30047587890625 0.8627759765625
vt 0.27178974609375 0.8984375
vt 0.27178974609375 0.7768384765625
vt 0.30047587890625 0.7768384765625
vt 0.30047587890625 0.8125
vt 0.044921875 0.9643382812500001
vt 0.048243164062499996 0.960593359375
vt 0.048243164062499996 0.9962548828125
vt 0.044921875 1
vt 0.041600585937500004 0.960593359375
vt 0.044921875 0.9643382812500001
vt 0.044921875 1
vt 0.041600585937500004 0.9962548828125
vt 0 0.9513144181254402
vt 0.00390625 0.9542325400445077
vt 0.00390625 1
vt 0 0.9970817009281284
vt 0.32977275390625 0.8675384765625
vt 0.32977275390625 0.9174634765625
vt 0.30108662109375 0.9174634765625
vt 0.30108662109375 0.8675384765625
vt 0.11582669350586389 0.9465592737401952
vt 0.12245455649413611 0.9960424237347963
vt 0.11938975780716944 1
vt 0.11582669350586389 0.9964843245782214
vt 0.30047587890625 0.6409759765625
vt 0.30047587890625 0.6909009765625
vt 0.27178974609375 0.6909009765625
vt 0.27178974609375 0.6409759765625
vt 0.060546875 0.91077890625
vt 0.0638681640625 0.960593359375
vt 0.060546875 0.9643382812500001
vt 0.057225585937500004 0.960593359375
vt 0.38196700995390703 0.82421875
vt 0.37904891108581684 0.8203125
vt 0.42481627613190975 0.8203125
vt 0.427734375 0.82421875
vt 0.27178974609375 0.6909009765625
vt 0.30047587890625 0.6909009765625
vt 0.27178974609375 0.7265625
vt 0.30108662109375 0.9174634765625
vt 0.32977275390625 0.9174634765625
vt 0.32977275390625 0.953125
vt 0.060546875 0.9643382812500001
vt 0.0638681640625 0.960593359375
vt 0.0638681640625 0.9962548828125
vt 0.060546875 1
vt 0.057225585937500004 0.960593359375
vt 0.060546875 0.9643382812500001
vt 0.060546875 1
vt 0.057225585937500004 0.9962548828125
vt 0 0.90234375
vt 0.00390625 0.9052618719190676
vt 0.00390625 0.9510293318745598
vt 0 0.9481110328026883
vt 0.412109375 0.96875
vt 0.3828125 0.96875
vt 0.3828125 0.96484375
vt 0.412109375 0.96484375
vt 0.412109375 0.99609375
vt 0.3828125 0.99609375
vt 0.3828125 0.9921875
vt 0.412109375 0.9921875
vt 0.412109375 1
vt 0.3828125 1
vt 0.3828125 0.99609375
vt 0.412109375 0.99609375
vt 0.412109375 0.984375
vt 0.3828125 0.984375
vt 0.3828125 0.98046875
vt 0.412109375 0.98046875
vt 0.3828125 0.98828125
vt 0.412109375 0.98828125
vt 0.412109375 0.9921875
vt 0.3828125 0.9921875
vt 0.37890625 0.7421875
vt 0.408203125 0.7421875
vt 0.408203125 0.74609375
vt 0.37890625 0.74609375
vt 0.13978267328036326 0.98046875
vt 0.1368438976955889 0.984375
vt 0.13268763881108248 0.984375
vt 0.12974857671963674 0.98046875
vt 0.37890625 0.734375
vt 0.408203125 0.734375
vt 0.408203125 0.73828125
vt 0.37890625 0.73828125
vt 0.3828125 0.984375
vt 0.412109375 0.984375
vt 0.412109375 0.98828125
vt 0.3828125 0.98828125
vt 0.13978267328036328 0.99609375
vt 0.13684361118891755 1
vt 0.13268735230441106 1
vt 0.12974857671963672 0.99609375
vt 0.37890625 0.830078125
vt 0.37890625 0.83984375
vt 0.33984375 0.83984375
vt 0.33984375 0.830078125
vt 0.33203125 0.767578125
vt 0.33203125 0.77734375
vt 0.3046875 0.77734375
vt 0.3046875 0.767578125
vt 0.37890625 0.8203125
vt 0.37890625 0.830078125
vt 0.33984375 0.830078125
vt 0.33984375 0.8203125
vt 0.271484375 0.951171875
vt 0.271484375 0.9609375
vt 0.248046875 0.9609375
vt 0.248046875 0.951171875
vt 0.279296875 0.9609375
vt 0.279296875 0.970703125
vt 0.248046875 0.970703125
vt 0.248046875 0.9609375
vt 0.30586494140625 0.8125662109375
vt 0.30586494140625 0.8361666015625
vt 0.30126474609375 0.8381859375
vt 0.30126474609375 0.810546875
vt 0.30586494140625 0.7849271484375
vt 0.30586494140625 0.8085275390625
vt 0.30126474609375 0.810546875
vt 0.30126474609375 0.7829078125
vt 0.33672021484375003 0.8125662109375
vt 0.30586494140625 0.8125662109375
vt 0.30126474609375 0.810546875
vt 0.33936025390625 0.810546875
vt 0.30586494140625 0.8085275390625
vt 0.33672021484375003 0.8085275390625
vt 0.33936025390625 0.810546875
vt 0.30126474609375 0.810546875
vt 0.33672021484375003 0.8361666015625
vt 0.33672021484375003 0.8125662109375
vt 0.33936025390625 0.810546875
vt 0.33936025390625 0.8381859375
vt 0.33672021484375003 0.8085275390625
vt 0.33672021484375003 0.7849271484375
vt 0.33936025390625 0.7829078125
vt 0.33936025390625 0.810546875
vt 0.30586494140625 0.8361666015625
vt 0.33672021484375003 0.8361666015625
vt 0.33936025390625 0.8381859375
vt 0.30126474609375 0.8381859375
vt 0.33672021484375003 0.7849271484375
vt 0.30586494140625 0.7849271484375
vt 0.30126474609375 0.7829078125
vt 0.33936025390625 0.7829078125
vt 0.28515625 0.970703125
vt 0.28515625 0.98046875
vt 0.25390625 0.98046875
vt 0.25390625 0.970703125
vt 0.291015625 0.98046875
vt 0.291015625 0.990234375
vt 0.267578125 0.990234375
vt 0.267578125 0.98046875
vt 0.341796875 0.65234375
vt 0.375 0.65234375
vt 0.375 0.66015625
vt 0.341796875 0.66015625
vt 0.341796875 0.64453125
vt 0.375 0.64453125
vt 0.375 0.65234375
vt 0.341796875 0.65234375
vt 0.349609375 0.9921875
vt 0.3828125 0.9921875
vt 0.3828125 1
vt 0.349609375 1
vt 0.349609375 0.984375
vt 0.3828125 0.984375
vt 0.3828125 0.9921875
vt 0.349609375 0.9921875
vt 0.349609375 0.9765625
vt 0.3828125 0.9765625
vt 0.3828125 0.984375
vt 0.349609375 0.984375
vt 0.359375 0.8828125
vt 0.38671875 0.8828125
vt 0.38671875 0.890625
vt 0.359375 0.890625
vt 0.359375 0.708984375
vt 0.38671875 0.708984375
vt 0.38671875 0.716796875
vt 0.359375 0.716796875
vt 0.359375 0.701171875
vt 0.38671875 0.701171875
vt 0.38671875 0.708984375
vt 0.359375 0.708984375
vt 0.333984375 0.62890625
vt 0.361328125 0.62890625
vt 0.361328125 0.63671875
vt 0.333984375 0.63671875
vt 0.361328125 0.62890625
vt 0.388671875 0.62890625
vt 0.388671875 0.63671875
vt 0.361328125 0.63671875
vt 0.365234375 0.86328125
vt 0.392578125 0.86328125
vt 0.392578125 0.87109375
vt 0.365234375 0.87109375
vt 0.2890625 0.626953125
vt 0.31640625 0.626953125
vt 0.31640625 0.634765625
vt 0.2890625 0.634765625
vt 0.412109375 0.96484375
vt 0.3828125 0.96484375
vt 0.3828125 0.9609375
vt 0.412109375 0.9609375
vt 0.326171875 0.62109375
vt 0.296875 0.62109375
vt 0.296875 0.6171875
vt 0.326171875 0.6171875
vt 0.408203125 0.7421875
vt 0.37890625 0.7421875
vt 0.37890625 0.73828125
vt 0.408203125 0.73828125
vt 0.412109375 0.98046875
vt 0.3828125 0.98046875
vt 0.3828125 0.9765625
vt 0.412109375 0.9765625
vt 0.3828125 0.97265625
vt 0.412109375 0.97265625
vt 0.412109375 0.9765625
vt 0.3828125 0.9765625
vt 0.326171875 0.6171875
vt 0.35546875 0.6171875
vt 0.35546875 0.62109375
vt 0.326171875 0.62109375
vt 0.1397825830586635 0.96875
vt 0.13684380747388916 0.97265625
vt 0.1326875485893827 0.97265625
vt 0.1297486669413365 0.96875
vt 0.35546875 0.6171875
vt 0.384765625 0.6171875
vt 0.384765625 0.62109375
vt 0.35546875 0.62109375
vt 0.3828125 0.96875
vt 0.412109375 0.96875
vt 0.412109375 0.97265625
vt 0.3828125 0.97265625
vt 0.13978267328036328 0.9921875
vt 0.13684361118891755 0.99609375
vt 0.13268735230441106 0.99609375
vt 0.12974857671963672 0.9921875
vt 0.37890625 0.810546875
vt 0.37890625 0.8203125
vt 0.33984375 0.8203125
vt 0.33984375 0.810546875
vt 0.33203125 0.7578125
vt 0.33203125 0.767578125
vt 0.3046875 0.767578125
vt 0.3046875 0.7578125
vt 0.37890625 0.80078125
vt 0.37890625 0.810546875
vt 0.33984375 0.810546875
vt 0.33984375 0.80078125
vt 0.330078125 0.81640625
vt 0.330078125 0.826171875
vt 0.306640625 0.826171875
vt 0.306640625 0.81640625
vt 0.33203125 0.7421875
vt 0.33203125 0.751953125
vt 0.30078125 0.751953125
vt 0.30078125 0.7421875
vt 0.33476005859375 0.7792306640625
vt 0.33476005859375 0.7556302734375
vt 0.33936025390625 0.7536109375
vt 0.33936025390625 0.78125
vt 0.33476005859375 0.6955416015625
vt 0.33476005859375 0.6719412109375
vt 0.33936025390625 0.669921875
vt 0.33936025390625 0.6975609375
vt 0.30390458984375 0.7792306640625
vt 0.33476005859375 0.7792306640625
vt 0.33936025390625 0.78125
vt 0.30126474609375 0.78125
vt 0.33476005859375 0.6719412109375
vt 0.30390458984375 0.6719412109375
vt 0.30126474609375 0.669921875
vt 0.33936025390625 0.669921875
vt 0.30390458984375 0.7556302734375
vt 0.30390458984375 0.7792306640625
vt 0.30126474609375 0.78125
vt 0.30126474609375 0.7536109375
vt 0.30390458984375 0.6719412109375
vt 0.30390458984375 0.6955416015625
vt 0.30126474609375 0.6975609375
vt 0.30126474609375 0.669921875
vt 0.33476005859375 0.7556302734375
vt 0.30390458984375 0.7556302734375
vt 0.30126474609375 0.7536109375
vt 0.33936025390625 0.7536109375
vt 0.30390458984375 0.6955416015625
vt 0.33476005859375 0.6955416015625
vt 0.33936025390625 0.6975609375
vt 0.30126474609375 0.6975609375
vt 0.33203125 0.732421875
vt 0.33203125 0.7421875
vt 0.30078125 0.7421875
vt 0.30078125 0.732421875
vt 0.330078125 0.796875
vt 0.330078125 0.806640625
vt 0.306640625 0.806640625
vt 0.306640625 0.796875
vt 0.349609375 0.96875
vt 0.3828125 0.96875
vt 0.3828125 0.9765625
vt 0.349609375 0.9765625
vt 0.349609375 0.9609375
vt 0.3828125 0.9609375
vt 0.3828125 0.96875
vt 0.349609375 0.96875
vt 0.337890625 0.63671875
vt 0.37109375 0.63671875
vt 0.37109375 0.64453125
vt 0.337890625 0.64453125
vt 0.357421875 0.724609375
vt 0.390625 0.724609375
vt 0.390625 0.732421875
vt 0.357421875 0.732421875
vt 0.357421875 0.716796875
vt 0.390625 0.716796875
vt 0.390625 0.724609375
vt 0.357421875 0.724609375
vt 0.3671875 0.85546875
vt 0.39453125 0.85546875
vt 0.39453125 0.86328125
vt 0.3671875 0.86328125
vt 0.3671875 0.84765625
vt 0.39453125 0.84765625
vt 0.39453125 0.85546875
vt 0.3671875 0.85546875
vt 0.3671875 0.83984375
vt 0.39453125 0.83984375
vt 0.39453125 0.84765625
vt 0.3671875 0.84765625
vt 0.2421875 0.623046875
vt 0.26953125 0.623046875
vt 0.26953125 0.630859375
vt 0.2421875 0.630859375
vt 0.37109375 0.693359375
vt 0.3984375 0.693359375
vt 0.3984375 0.701171875
vt 0.37109375 0.701171875
vt 0.37109375 0.685546875
vt 0.3984375 0.685546875
vt 0.3984375 0.693359375
vt 0.37109375 0.693359375
vt 0.37109375 0.677734375
vt 0.3984375 0.677734375
vt 0.3984375 0.685546875
vt 0.37109375 0.685546875
vt 0.408203125 0.75390625
vt 0.37890625 0.75390625
vt 0.37890625 0.75
vt 0.408203125 0.75
vt 0.408203125 0.77734375
vt 0.37890625 0.77734375
vt 0.37890625 0.7734375
vt 0.408203125 0.7734375
vt 0.408203125 0.80078125
vt 0.37890625 0.80078125
vt 0.37890625 0.796875
vt 0.408203125 0.796875
vt 0.408203125 0.78515625
vt 0.37890625 0.78515625
vt 0.37890625 0.78125
vt 0.408203125 0.78125
vt 0.330078125 0.8671875
vt 0.359375 0.8671875
vt 0.359375 0.87109375
vt 0.330078125 0.87109375
vt 0.37890625 0.79296875
vt 0.408203125 0.79296875
vt 0.408203125 0.796875
vt 0.37890625 0.796875
vt 0.13978267328036326 0.9765625
vt 0.1368438976955889 0.98046875
vt 0.13268763881108248 0.98046875
vt 0.12974857671963674 0.9765625
vt 0.37890625 0.76953125
vt 0.408203125 0.76953125
vt 0.408203125 0.7734375
vt 0.37890625 0.7734375
vt 0.37890625 0.80859375
vt 0.408203125 0.80859375
vt 0.408203125 0.8125
vt 0.37890625 0.8125
vt 0.13978267328036328 0.98828125
vt 0.13684361118891755 0.9921875
vt 0.13268735230441106 0.9921875
vt 0.12974857671963672 0.98828125
vt 0.37890625 0.791015625
vt 0.37890625 0.80078125
vt 0.33984375 0.80078125
vt 0.33984375 0.791015625
vt 0.33203125 0.685546875
vt 0.33203125 0.6953125
vt 0.3046875 0.6953125
vt 0.3046875 0.685546875
vt 0.37890625 0.76171875
vt 0.37890625 0.771484375
vt 0.33984375 0.771484375
vt 0.33984375 0.76171875
vt 0.330078125 0.787109375
vt 0.330078125 0.796875
vt 0.306640625 0.796875
vt 0.306640625 0.787109375
vt 0.373046875 0.66015625
vt 0.373046875 0.669921875
vt 0.341796875 0.669921875
vt 0.341796875 0.66015625
vt 0.323160546875 0.9953998046875
vt 0.3467611328125 0.9953998046875
vt 0.34878046875 1
vt 0.32114140625 1
vt 0.2686361328125 0.6452251953125
vt 0.245035546875 0.6452251953125
vt 0.24301640625 0.640625
vt 0.27065546875 0.640625
vt 0.323160546875 0.96454453125
vt 0.323160546875 0.9953998046875
vt 0.32114140625 1
vt 0.32114140625 0.9619044921875
vt 0.245035546875 0.6452251953125
vt 0.245035546875 0.6760804687499999
vt 0.24301640625 0.6787205078125
vt 0.24301640625 0.640625
vt 0.3467611328125 0.96454453125
vt 0.323160546875 0.96454453125
vt 0.32114140625 0.9619044921875
vt 0.34878046875 0.9619044921875
vt 0.245035546875 0.6760804687499999
vt 0.2686361328125 0.6760804687499999
vt 0.27065546875 0.6787205078125
vt 0.24301640625 0.6787205078125
vt 0.3467611328125 0.9953998046875
vt 0.3467611328125 0.96454453125
vt 0.34878046875 0.9619044921875
vt 0.34878046875 1
vt 0.2686361328125 0.6760804687499999
vt 0.2686361328125 0.6452251953125
vt 0.27065546875 0.640625
vt 0.27065546875 0.6787205078125
vt 0.37109375 0.689453125
vt 0.37109375 0.69921875
vt 0.33984375 0.69921875
vt 0.33984375 0.689453125
vt 0.328125 0.67578125
vt 0.328125 0.685546875
vt 0.3046875 0.685546875
vt 0.3046875 0.67578125
vt 0.30078125 0.634765625
vt 0.333984375 0.634765625
vt 0.333984375 0.642578125
vt 0.30078125 0.642578125
vt 0.359375 0.953125
vt 0.392578125 0.953125
vt 0.392578125 0.9609375
vt 0.359375 0.9609375
vt 0.359375 0.9453125
vt 0.392578125 0.9453125
vt 0.392578125 0.953125
vt 0.359375 0.953125
vt 0.359375 0.9375
vt 0.392578125 0.9375
vt 0.392578125 0.9453125
vt 0.359375 0.9453125
vt 0.359375 0.9296875
vt 0.392578125 0.9296875
vt 0.392578125 0.9375
vt 0.359375 0.9375
vt 0.31640625 0.62109375
vt 0.34375 0.62109375
vt 0.34375 0.62890625
vt 0.31640625 0.62890625
vt 0.37109375 0.669921875
vt 0.3984375 0.669921875
vt 0.3984375 0.677734375
vt 0.37109375 0.677734375
vt 0.34375 0.62109375
vt 0.37109375 0.62109375
vt 0.37109375 0.62890625
vt 0.34375 0.62890625
vt 0.37109375 0.63671875
vt 0.3984375 0.63671875
vt 0.3984375 0.64453125
vt 0.37109375 0.64453125
vt 0.37109375 0.62109375
vt 0.3984375 0.62109375
vt 0.3984375 0.62890625
vt 0.37109375 0.62890625
vt 0.373046875 0.875
vt 0.400390625 0.875
vt 0.400390625 0.8828125
vt 0.373046875 0.8828125
vt 0.26953125 0.619140625
vt 0.296875 0.619140625
vt 0.296875 0.626953125
vt 0.26953125 0.626953125
vt 0.408203125 0.75
vt 0.37890625 0.75
vt 0.37890625 0.74609375
vt 0.408203125 0.74609375
vt 0.408203125 0.76953125
vt 0.37890625 0.76953125
vt 0.37890625 0.765625
vt 0.408203125 0.765625
vt 0.408203125 0.79296875
vt 0.37890625 0.79296875
vt 0.37890625 0.7890625
vt 0.408203125 0.7890625
vt 0.408203125 0.78125
vt 0.37890625 0.78125
vt 0.37890625 0.77734375
vt 0.408203125 0.77734375
vt 0.37890625 0.8046875
vt 0.408203125 0.8046875
vt 0.408203125 0.80859375
vt 0.37890625 0.80859375
vt 0.37890625 0.78515625
vt 0.408203125 0.78515625
vt 0.408203125 0.7890625
vt 0.37890625 0.7890625
vt 0.13978267328036326 0.97265625
vt 0.1368438976955889 0.9765625
vt 0.13268763881108248 0.9765625
vt 0.12974857671963674 0.97265625
vt 0.37890625 0.76171875
vt 0.408203125 0.76171875
vt 0.408203125 0.765625
vt 0.37890625 0.765625
vt 0.37890625 0.80078125
vt 0.408203125 0.80078125
vt 0.408203125 0.8046875
vt 0.37890625 0.8046875
vt 0.13978267328036328 0.984375
vt 0.13684361118891755 0.98828125
vt 0.13268735230441106 0.98828125
vt 0.12974857671963672 0.984375
vt 0.37890625 0.78125
vt 0.37890625 0.791015625
vt 0.33984375 0.791015625
vt 0.33984375 0.78125
vt 0.333984375 0.826171875
vt 0.333984375 0.8359375
vt 0.306640625 0.8359375
vt 0.306640625 0.826171875
vt 0.37890625 0.771484375
vt 0.37890625 0.78125
vt 0.33984375 0.78125
vt 0.33984375 0.771484375
vt 0.265625 0.630859375
vt 0.265625 0.640625
vt 0.2421875 0.640625
vt 0.2421875 0.630859375
vt 0.37109375 0.6796875
vt 0.37109375 0.689453125
vt 0.33984375 0.689453125
vt 0.33984375 0.6796875
vt 0.332926171875 0.9553703125
vt 0.3565267578125 0.9553703125
vt 0.35854609375 0.9599705078125
vt 0.33090703125 0.9599705078125
vt 0.3565267578125 0.8883796875
vt 0.332926171875 0.8883796875
vt 0.33090703125 0.8837794921875
vt 0.35854609375 0.8837794921875
vt 0.332926171875 0.9245150390625
vt 0.332926171875 0.9553703125
vt 0.33090703125 0.9599705078125
vt 0.33090703125 0.921875
vt 0.332926171875 0.8883796875
vt 0.332926171875 0.9192349609375
vt 0.33090703125 0.921875
vt 0.33090703125 0.8837794921875
vt 0.3565267578125 0.9245150390625
vt 0.332926171875 0.9245150390625
vt 0.33090703125 0.921875
vt 0.35854609375 0.921875
vt 0.332926171875 0.9192349609375
vt 0.3565267578125 0.9192349609375
vt 0.35854609375 0.921875
vt 0.33090703125 0.921875
vt 0.3565267578125 0.9553703125
vt 0.3565267578125 0.9245150390625
vt 0.35854609375 0.921875
vt 0.35854609375 0.9599705078125
vt 0.3565267578125 0.9192349609375
vt 0.3565267578125 0.8883796875
vt 0.35854609375 0.8837794921875
vt 0.35854609375 0.921875
vt 0.37109375 0.669921875
vt 0.37109375 0.6796875
vt 0.33984375 0.6796875
vt 0.33984375 0.669921875
vt 0.2890625 0.630859375
vt 0.2890625 0.640625
vt 0.265625 0.640625
vt 0.265625 0.630859375
vt 0.359375 0.921875
vt 0.392578125 0.921875
vt 0.392578125 0.9296875
vt 0.359375 0.9296875
vt 0.359375 0.890625
vt 0.392578125 0.890625
vt 0.392578125 0.8984375
vt 0.359375 0.8984375
vt 0.359375 0.8984375
vt 0.392578125 0.8984375
vt 0.392578125 0.90625
vt 0.359375 0.90625
vt 0.359375 0.9140625
vt 0.392578125 0.9140625
vt 0.392578125 0.921875
vt 0.359375 0.921875
vt 0.359375 0.90625
vt 0.392578125 0.90625
vt 0.392578125 0.9140625
vt 0.359375 0.9140625
vt 0.373046875 0.662109375
vt 0.400390625 0.662109375
vt 0.400390625 0.669921875
vt 0.373046875 0.669921875
vt 0.375 0.654296875
vt 0.40234375 0.654296875
vt 0.40234375 0.662109375
vt 0.375 0.662109375
vt 0.375 0.646484375
vt 0.40234375 0.646484375
vt 0.40234375 0.654296875
vt 0.375 0.654296875
vt 0.376953125 0.75390625
vt 0.404296875 0.75390625
vt 0.404296875 0.76171875
vt 0.376953125 0.76171875
vt 0.2421875 0.615234375
vt 0.26953125 0.615234375
vt 0.26953125 0.623046875
vt 0.2421875 0.623046875
vt 0.37890625 0.83203125
vt 0.40625 0.83203125
vt 0.40625 0.83984375
vt 0.37890625 0.83984375
vt 0.37890625 0.82421875
vt 0.40625 0.82421875
vt 0.40625 0.83203125
vt 0.37890625 0.83203125
usemtl missile_texture
vn -0.195092 0.000000 -0.980785
vn -0.195046 0.021523 -0.980558
vn 0.195046 0.021523 -0.980558
vn 0.195092 0.000000 -0.980785
vn 0.555442 0.021523 -0.831276
vn 0.555571 0.000000 -0.831469
vn 0.831276 0.021523 -0.555443
vn 0.831469 0.000000 -0.555571
vn 0.980558 0.021523 -0.195046
vn 0.980785 0.000000 -0.195092
vn 0.980558 0.021523 0.195046
vn 0.980785 0.000000 0.195092
vn 0.831276 0.021523 0.555443
vn 0.831469 0.000000 0.555571
vn 0.555442 0.021523 0.831276
vn 0.555571 0.000000 0.831469
vn 0.195046 0.021523 0.980558
vn 0.195092 0.000000 0.980785
vn -0.195046 0.021523 0.980558
vn -0.195092 0.000000 0.980785
vn -0.555442 0.021523 0.831276
vn -0.555571 0.000000 0.831469
vn -0.831276 0.021523 0.555442
vn -0.831469 0.000000 0.555571
vn -0.980558 0.021523 0.195046
vn -0.980785 0.000000 0.195092
vn -0.980558 0.021523 -0.195046
vn -0.980785 0.000000 -0.195092
vn -0.831276 0.021523 -0.555442
vn -0.831469 0.000000 -0.555571
vn 0.193051 0.144272 0.970524
vn -0.193050 0.144272 0.970524
vn -0.555442 0.021523 -0.831276
vn -0.555571 0.000000 -0.831469
vn 0.971297 0.138759 -0.193203
vn 0.971297 0.138759 0.193203
vn -0.193050 0.144272 -0.970524
vn -0.549759 0.144272 -0.822770
vn -0.371922 0.235479 -0.897899
vn -0.970524 0.144272 -0.193050
vn -0.822770 0.144272 -0.549759
vn 0.193051 0.144272 -0.970524
vn 0.549759 0.144272 -0.822770
vn 0.822769 0.144272 0.549760
vn 0.549759 0.144272 0.822770
vn -0.822770 0.144272 0.549759
vn -0.970524 0.144272 0.193050
vn 0.970524 0.144272 -0.193050
vn 0.970524 0.144272 0.193050
vn -0.549759 0.144272 0.822770
vn 0.822769 0.144272 -0.549760
vn 0.000000 0.235479 0.971880
vn 0.371922 0.235479 -0.897900
vn -0.371922 0.235479 0.897899
vn 0.687223 0.235479 -0.687223
vn -0.687223 0.235479 0.687223
vn 0.897900 0.235479 -0.371922
vn -0.897900 0.235479 0.371922
vn 0.971879 0.235479 0.000000
vn -0.971879 0.235479 -0.000000
vn 0.897900 0.235479 0.371922
vn -0.897900 0.235479 -0.371922
vn 0.687223 0.235479 0.687223
vn -0.687223 0.235479 -0.687223
vn 0.371922 0.235479 0.897900
vn 0.000000 0.235479 -0.971880
vn 0.077791 -0.917062 -0.391083
vn -0.077791 -0.917062 -0.391083
vn 0.221531 -0.917062 -0.331544
vn 0.331544 -0.917062 -0.221531
vn 0.391083 -0.917062 -0.077791
vn 0.391083 -0.917062 0.077791
vn 0.331544 -0.917062 0.221531
vn 0.221531 -0.917062 0.331544
vn 0.077791 -0.917062 0.391083
vn -0.077791 -0.917062 0.391083
vn -0.221531 -0.917062 0.331544
vn -0.331544 -0.917062 0.221531
vn -0.391083 -0.917062 0.077791
vn -0.391083 -0.917062 -0.077791
vn -0.331544 -0.917062 -0.221531
vn -0.221531 -0.917062 -0.331544
vn -0.971297 0.138761 0.193204
vn -0.971297 0.138761 -0.193204
vn 0.823426 0.138760 0.550196
vn -0.823425 0.138760 -0.550197
vn 0.550197 0.138760 0.823425
vn -0.550197 0.138760 -0.823425
vn 0.193204 0.138761 0.971297
vn -0.193203 0.138761 -0.971297
vn 0.193204 0.138760 -0.971297
vn -0.193204 0.138761 0.971297
vn 0.550196 0.138760 -0.823426
vn -0.550197 0.138760 0.823425
vn 0.823426 0.138760 -0.550196
vn -0.823425 0.138760 0.550197
vn 0.997785 0.066528 0.000000
vn 0.998797 0.049041 0.000000
vn 0.998332 0.000000 -0.057741
vn 0.000000 0.000000 -1.000000
vn 0.326242 -0.289339 -0.899916
vn -0.000000 -0.417463 -0.908694
vn -0.326242 -0.289339 -0.899916
vn -0.997785 0.066528 0.000000
vn -0.998332 0.000000 -0.057741
vn -0.998797 0.049041 0.000000
vn 0.000000 0.000000 1.000000
vn 0.989692 0.000000 -0.143211
vn 0.971138 -0.149498 -0.185851
vn 0.577141 -0.511858 -0.636325
vn -0.971138 -0.149498 -0.185851
vn -0.989692 0.000000 -0.143211
vn -0.577141 -0.511858 -0.636325
vn -0.997785 -0.066528 0.000000
vn -0.998797 -0.049041 0.000000
vn -0.326242 0.289339 -0.899916
vn 0.000000 0.417463 -0.908694
vn 0.326242 0.289339 -0.899916
vn 0.997785 -0.066528 0.000000
vn 0.998797 -0.049041 0.000000
vn -0.971138 0.149498 -0.185851
vn -0.577141 0.511858 -0.636325
vn 0.971138 0.149498 -0.185851
vn 0.577141 0.511858 -0.636325
vn 0.000000 -0.066528 0.997785
vn 0.000000 -0.049041 0.998797
vn -0.057741 0.000000 0.998332
vn -1.000000 0.000000 0.000000
vn -0.899916 0.289339 0.326242
vn -0.908694 0.417463 0.000000
vn -0.899916 0.289339 -0.326242
vn 0.000000 -0.066528 -0.997785
vn -0.057741 0.000000 -0.998332
vn 0.000000 -0.049041 -0.998797
vn 1.000000 0.000000 0.000000
vn -0.143211 0.000000 0.989692
vn -0.185851 0.149498 0.971138
vn -0.636325 0.511858 0.577141
vn -0.185851 0.149498 -0.971138
vn -0.143211 0.000000 -0.989692
vn -0.636325 0.511858 -0.577141
vn 0.000000 0.066528 -0.997785
vn 0.000000 0.049041 -0.998797
vn -0.899916 -0.289339 -0.326242
vn -0.908694 -0.417463 0.000000
vn -0.899916 -0.289339 0.326242
vn 0.000000 0.066528 0.997785
vn 0.000000 0.049041 0.998797
vn -0.185851 -0.149498 -0.971138
vn -0.636325 -0.511858 -0.577141
vn -0.185851 -0.149498 0.971138
vn -0.636325 -0.511858 0.577141
vn 0.000000 1.000000 0.000000
vn 0.707107 0.707107 0.000000
vn 0.707102 -0.707112 0.000000
vn 0.000000 -1.000000 0.000000
vn -0.707107 -0.707107 0.000000
vn -0.707112 0.707102 0.000000
vn 0.000000 -0.707107 -0.707107
vn 0.000000 0.707112 -0.707102
vn 0.000000 0.707112 0.707102
vn 0.000000 -0.707107 0.707107
f 1/1/1 2/2/2 3/3/3 4/4/4
f 4/5/4 3/6/3 5/7/5 6/8/6
f 6/9/6 5/10/5 7/11/7 8/12/8
f 8/13/8 7/14/7 9/15/9 10/16/10
f 10/17/10 9/18/9 11/19/11 12/20/12
f 12/21/12 11/22/11 13/23/13 14/24/14
f 14/25/14 13/26/13 15/27/15 16/28/16
f 16/29/16 15/30/15 17/31/17 18/32/18
f 18/33/18 17/34/17 19/35/19 20/36/20
f 20/37/20 19/38/19 21/39/21 22/40/22
f 22/41/22 21/42/21 23/43/23 24/44/24
f 24/45/24 23/46/23 25/47/25 26/48/26
f 26/49/26 25/50/25 27/51/27 28/52/28
f 28/53/28 27/54/27 29/55/29 30/56/30
f 19/57/19 17/58/17 31/59/31 32/60/32
f 30/61/30 29/62/29 33/63/33 34/64/34
f 34/65/34 33/66/33 2/67/2 1/68/1
f 35/69/35 36/70/36 37/71/36 38/72/35
f 39/73/37 40/74/38 41/75/39
f 29/76/29 27/77/27 42/78/40 43/79/41
f 5/80/5 3/81/3 44/82/42 45/83/43
f 15/84/15 13/85/13 46/86/44 47/87/45
f 25/88/25 23/89/23 48/90/46 49/91/47
f 11/92/11 9/93/9 50/94/48 51/95/49
f 21/96/21 19/97/19 32/98/32 52/99/50
f 33/100/33 29/101/29 43/102/41 40/103/38
f 7/104/7 5/105/5 45/106/43 53/107/51
f 17/108/17 15/109/15 47/110/45 31/111/31
f 3/112/3 2/113/2 39/114/37 44/115/42
f 27/116/27 25/117/25 49/118/47 42/119/40
f 13/120/13 11/121/11 51/122/49 46/123/44
f 23/124/23 21/125/21 52/126/50 48/127/46
f 2/128/2 33/129/33 40/130/38 39/131/37
f 9/132/9 7/133/7 53/134/51 50/135/48
f 32/136/32 31/137/31 41/138/52
f 45/139/43 44/140/42 41/141/53
f 52/142/50 32/143/32 41/144/54
f 53/145/51 45/146/43 41/147/55
f 48/148/46 52/149/50 41/150/56
f 50/151/48 53/152/51 41/153/57
f 49/154/47 48/155/46 41/156/58
f 51/157/49 50/158/48 41/159/59
f 42/160/40 49/161/47 41/162/60
f 46/163/44 51/164/49 41/165/61
f 43/166/41 42/167/40 41/168/62
f 47/169/45 46/170/44 41/171/63
f 40/172/38 43/173/41 41/174/64
f 31/175/31 47/176/45 41/177/65
f 44/178/42 39/179/37 41/180/66
f 54/181/67 55/182/68 1/183/68 4/184/67
f 56/185/69 54/186/67 4/187/67 6/188/69
f 57/189/70 56/190/69 6/191/69 8/192/70
f 35/193/71 57/194/70 8/195/70 10/196/71
f 36/197/72 35/198/71 10/199/71 12/200/72
f 58/201/73 36/202/72 12/203/72 14/204/73
f 59/205/74 58/206/73 14/207/73 16/208/74
f 60/209/75 59/210/74 16/211/74 18/212/75
f 61/213/76 60/214/75 18/215/75 20/216/76
f 62/217/77 61/218/76 20/219/76 22/220/77
f 63/221/78 62/222/77 22/223/77 24/224/78
f 64/225/79 63/226/78 24/227/78 26/228/79
f 65/229/80 64/230/79 26/231/79 28/232/80
f 66/233/81 65/234/80 28/235/80 30/236/81
f 67/237/82 66/238/81 30/239/81 34/240/82
f 55/241/68 67/242/82 34/243/82 1/244/68
f 64/245/83 65/246/84 72/247/84 73/248/83
f 36/249/36 58/250/85 74/251/85 37/252/36
f 65/253/84 66/254/86 75/255/86 72/256/84
f 58/257/85 59/258/87 76/259/87 74/260/85
f 66/261/86 67/262/88 77/263/88 75/264/86
f 59/265/87 60/266/89 78/267/89 76/268/87
f 55/269/90 54/270/91 69/271/91 68/272/90
f 67/273/88 55/274/90 68/275/90 77/276/88
f 60/277/89 61/278/92 79/279/92 78/280/89
f 54/281/91 56/282/93 70/283/93 69/284/91
f 61/285/92 62/286/94 80/287/94 79/288/92
f 56/289/93 57/290/95 71/291/95 70/292/93
f 62/293/94 63/294/96 81/295/96 80/296/94
f 57/297/95 35/298/35 38/299/35 71/300/95
f 63/301/96 64/302/83 73/303/83 81/304/96
f 82/305/97 83/306/98 84/307/99 85/308/97
f 85/309/100 84/310/101 86/311/102 87/312/103
f 85/313/104 87/314/105 88/315/106 82/316/104
f 82/317/107 88/318/107 89/319/107 83/320/107
f 86/321/101 84/322/108 90/323/109 91/324/110
f 88/325/106 87/326/105 92/327/111
f 84/328/99 83/329/98 90/330/109
f 89/331/107 88/332/107 92/333/107 91/334/107
f 83/335/107 89/336/107 91/337/107 90/338/107
f 87/339/112 86/340/103 91/341/113 92/342/111
f 93/343/114 94/344/115 95/345/105 96/346/114
f 96/347/100 95/348/116 97/349/117 98/350/118
f 96/351/119 98/352/99 99/353/120 93/354/119
f 93/355/107 99/356/107 100/357/107 94/358/107
f 97/359/116 95/360/112 101/361/121 102/362/122
f 99/363/120 98/364/99 103/365/123
f 95/366/105 94/367/115 101/368/121
f 100/369/107 99/370/107 103/371/107 102/372/107
f 94/373/107 100/374/107 102/375/107 101/376/107
f 98/377/108 97/378/118 102/379/124 103/380/123
f 104/381/125 105/382/126 106/383/127 107/384/125
f 107/385/128 106/386/129 108/387/130 109/388/131
f 107/389/132 109/390/133 110/391/134 104/392/132
f 104/393/135 110/394/135 111/395/135 105/396/135
f 108/397/129 106/398/136 112/399/137 113/400/138
f 110/401/134 109/402/133 114/403/139
f 106/404/127 105/405/126 112/406/137
f 111/407/135 110/408/135 114/409/135 113/410/135
f 105/411/135 111/412/135 113/413/135 112/414/135
f 109/415/140 108/416/131 113/417/141 114/418/139
f 115/419/142 116/420/143 117/421/133 118/422/142
f 118/423/128 117/424/144 119/425/145 120/426/146
f 118/427/147 120/428/127 121/429/148 115/430/147
f 115/431/135 121/432/135 122/433/135 116/434/135
f 119/435/144 117/436/140 123/437/149 124/438/150
f 121/439/148 120/440/127 125/441/151
f 117/442/133 116/443/143 123/444/149
f 122/445/135 121/446/135 125/447/135 124/448/135
f 116/449/135 122/450/135 124/451/135 123/452/135
f 120/453/136 119/454/146 124/455/152 125/456/151
f 126/457/153 127/458/153 128/459/154 129/460/154
f 129/461/154 128/462/154 130/463/135 131/464/135
f 131/465/135 130/466/135 132/467/155 133/468/155
f 133/469/155 132/470/155 134/471/156 135/472/156
f 135/473/156 134/474/156 136/475/157 137/476/157
f 137/477/157 136/478/157 138/479/128 139/480/128
f 128/481/107 127/482/107 140/483/107 138/484/107
f 139/485/128 138/486/128 140/487/158 141/488/158
f 141/489/158 140/490/158 127/491/153 126/492/153
f 126/493/100 129/494/100 131/495/100 133/496/100
f 142/497/100 143/498/100 144/499/100 145/500/100
f 145/501/135 144/502/135 146/503/135 147/504/135
f 147/505/107 146/506/107 148/507/107 149/508/107
f 150/509/135 151/510/135 152/511/135 153/512/135
f 154/513/107 155/514/107 151/515/107 150/516/107
f 150/517/156 153/518/156 149/519/156 142/520/156
f 152/521/153 151/522/153 143/523/153 148/524/153
f 154/525/156 150/526/156 142/527/156 145/528/156
f 151/529/153 155/530/153 144/531/153 143/532/153
f 156/533/156 154/534/156 145/535/156 147/536/156
f 155/537/153 157/538/153 146/539/153 144/540/153
f 153/541/156 156/542/156 147/543/156 149/544/156
f 157/545/153 152/546/153 148/547/153 146/548/153
f 153/549/100 152/550/100 157/551/100 156/552/100
f 156/553/128 157/554/128 155/555/128 154/556/128
f 158/557/107 159/558/107 160/559/107 161/560/107
f 162/561/107 163/562/107 164/563/107 165/564/107
f 166/565/107 167/566/107 168/567/107 169/568/107
f 170/569/107 171/570/107 172/571/107 173/572/107
f 174/573/107 175/574/107 176/575/107 177/576/107
f 178/577/135 179/578/135 180/579/135 181/580/135
f 182/581/135 183/582/135 184/583/135 185/584/135
f 186/585/135 187/586/135 188/587/135 189/588/135
f 190/589/135 191/590/135 192/591/135 193/592/135
f 194/593/135 195/594/135 196/595/135 197/596/135
f 198/597/135 199/598/135 200/599/135 201/600/135
f 202/601/135 203/602/135 204/603/135 205/604/135
f 206/605/156 207/606/156 208/607/155 209/608/155
f 209/609/155 208/610/155 210/611/135 211/612/135
f 211/613/135 210/614/135 212/615/154 213/616/154
f 213/617/154 212/618/154 214/619/153 215/620/153
f 215/621/153 214/622/153 216/623/158 217/624/158
f 217/625/158 216/626/158 218/627/128 219/628/128
f 208/629/100 207/630/100 220/631/100 218/632/100
f 219/633/128 218/634/128 220/635/157 221/636/157
f 221/637/157 220/638/157 207/639/156 206/640/156
f 206/641/107 209/642/107 211/643/107 213/644/107
f 222/645/107 223/646/107 224/647/107 225/648/107
f 225/649/135 224/650/135 226/651/135 227/652/135
f 227/653/100 226/654/100 228/655/100 229/656/100
f 230/657/135 231/658/135 232/659/135 233/660/135
f 234/661/100 235/662/100 231/663/100 230/664/100
f 230/665/153 233/666/153 229/667/153 222/668/153
f 232/669/156 231/670/156 223/671/156 228/672/156
f 234/673/153 230/674/153 222/675/153 225/676/153
f 231/677/156 235/678/156 224/679/156 223/680/156
f 236/681/153 234/682/153 225/683/153 227/684/153
f 235/685/156 237/686/156 226/687/156 224/688/156
f 233/689/153 236/690/153 227/691/153 229/692/153
f 237/693/156 232/694/156 228/695/156 226/696/156
f 233/697/107 232/698/107 237/699/107 236/700/107
f 236/701/128 237/702/128 235/703/128 234/704/128
f 238/705/100 239/706/100 240/707/100 241/708/100
f 242/709/100 243/710/100 244/711/100 245/712/100
f 246/713/100 247/714/100 248/715/100 249/716/100
f 250/717/100 251/718/100 252/719/100 253/720/100
f 254/721/100 255/722/100 256/723/100 257/724/100
f 258/725/135 259/726/135 260/727/135 261/728/135
f 262/729/135 263/730/135 264/731/135 265/732/135
f 266/733/135 267/734/135 268/735/135 269/736/135
f 270/737/135 271/738/135 272/739/135 273/740/135
f 274/741/135 275/742/135 276/743/135 277/744/135
f 278/745/135 279/746/135 280/747/135 281/748/135
f 282/749/135 283/750/135 284/751/135 285/752/135
f 286/753/156 287/754/156 288/755/159 289/756/159
f 289/757/159 288/758/159 290/759/100 291/760/100
f 291/761/100 290/762/100 292/763/160 293/764/160
f 293/765/160 292/766/160 294/767/153 295/768/153
f 295/769/153 294/770/153 296/771/161 297/772/161
f 297/773/161 296/774/161 298/775/107 299/776/107
f 288/777/128 287/778/128 300/779/128 298/780/128
f 299/781/107 298/782/107 300/783/162 301/784/162
f 301/785/162 300/786/162 287/787/156 286/788/156
f 286/789/135 289/790/135 291/791/135 293/792/135
f 302/793/135 303/794/135 304/795/135 305/796/135
f 305/797/100 304/798/100 306/799/100 307/800/100
f 307/801/128 306/802/128 308/803/128 309/804/128
f 310/805/100 311/806/100 312/807/100 313/808/100
f 314/809/128 315/810/128 311/811/128 310/812/128
f 310/813/153 313/814/153 309/815/153 302/816/153
f 312/817/156 311/818/156 303/819/156 308/820/156
f 314/821/153 310/822/153 302/823/153 305/824/153
f 311/825/156 315/826/156 304/827/156 303/828/156
f 316/829/153 314/830/153 305/831/153 307/832/153
f 315/833/156 317/834/156 306/835/156 304/836/156
f 313/837/153 316/838/153 307/839/153 309/840/153
f 317/841/156 312/842/156 308/843/156 306/844/156
f 313/845/135 312/846/135 317/847/135 316/848/135
f 316/849/107 317/850/107 315/851/107 314/852/107
f 318/853/128 319/854/128 320/855/128 321/856/128
f 322/857/128 323/858/128 324/859/128 325/860/128
f 326/861/128 327/862/128 328/863/128 329/864/128
f 330/865/128 331/866/128 332/867/128 333/868/128
f 334/869/128 335/870/128 336/871/128 337/872/128
f 338/873/100 339/874/100 340/875/100 341/876/100
f 342/877/100 343/878/100 344/879/100 345/880/100
f 346/881/100 347/882/100 348/883/100 349/884/100
f 350/885/100 351/886/100 352/887/100 353/888/100
f 354/889/100 355/890/100 356/891/100 357/892/100
f 358/893/100 359/894/100 360/895/100 361/896/100
f 362/897/100 363/898/100 364/899/100 365/900/100
f 366/901/153 367/902/153 368/903/160 369/904/160
f 369/905/160 368/906/160 370/907/100 371/908/100
f 371/909/100 370/910/100 372/911/159 373/912/159
f 373/913/159 372/914/159 374/915/156 375/916/156
f 375/917/156 374/918/156 376/919/162 377/920/162
f 377/921/162 376/922/162 378/923/107 379/924/107
f 368/925/135 367/926/135 380/927/135 378/928/135
f 379/929/107 378/930/107 380/931/161 381/932/161
f 381/933/161 380/934/161 367/935/153 366/936/153
f 366/937/128 369/938/128 371/939/128 373/940/128
f 382/941/128 383/942/128 384/943/128 385/944/128
f 385/945/100 384/946/100 386/947/100 387/948/100
f 387/949/135 386/950/135 388/951/135 389/952/135
f 390/953/100 391/954/100 392/955/100 393/956/100
f 394/957/135 395/958/135 391/959/135 390/960/135
f 390/961/156 393/962/156 389/963/156 382/964/156
f 392/965/153 391/966/153 383/967/153 388/968/153
f 394/969/156 390/970/156 382/971/156 385/972/156
f 391/973/153 395/974/153 384/975/153 383/976/153
f 396/977/156 394/978/156 385/979/156 387/980/156
f 395/981/153 397/982/153 386/983/153 384/984/153
f 393/985/156 396/986/156 387/987/156 389/988/156
f 397/989/153 392/990/153 388/991/153 386/992/153
f 393/993/128 392/994/128 397/995/128 396/996/128
f 396/997/107 397/998/107 395/999/107 394/1000/107
f 398/1001/135 399/1002/135 400/1003/135 401/1004/135
f 402/1005/135 403/1006/135 404/1007/135 405/1008/135
f 406/1009/135 407/1010/135 408/1011/135 409/1012/135
f 410/1013/135 411/1014/135 412/1015/135 413/1016/135
f 414/1017/135 415/1018/135 416/1019/135 417/1020/135
f 418/1021/100 419/1022/100 420/1023/100 421/1024/100
f 422/1025/100 423/1026/100 424/1027/100 425/1028/100
f 426/1029/100 427/1030/100 428/1031/100 429/1032/100
f 430/1033/100 431/1034/100 432/1035/100 433/1036/100
f 434/1037/100 435/1038/100 436/1039/100 437/1040/100
f 438/1041/100 439/1042/100 440/1043/100 441/1044/100
f 442/1045/100 443/1046/100 444/1047/100 445/1048/100
