# Blender 5.2.0 LTS
# www.blender.org
mtllib missile_strong.mtl
o the_body
v 0.000000 1.059479 -0.563158
v 0.000000 3.910539 -0.563158
v 0.215511 3.910539 -0.520290
v 0.215511 1.059479 -0.520290
v 0.398212 3.910539 -0.398212
v 0.398212 1.059479 -0.398212
v 0.520290 3.910539 -0.215511
v 0.520290 1.059479 -0.215511
v 0.563158 3.910539 -0.000000
v 0.563158 1.059479 -0.000000
v 0.520290 3.910539 0.215511
v 0.520290 1.059479 0.215511
v 0.398212 3.910539 0.398212
v 0.398212 1.059479 0.398212
v 0.215511 3.910539 0.520290
v 0.215511 1.059479 0.520290
v 0.000000 3.910539 0.563158
v 0.000000 1.059479 0.563158
v -0.215511 3.910539 0.520290
v -0.215511 1.059479 0.520290
v -0.398212 3.910539 0.398212
v -0.398212 1.059479 0.398212
v -0.520290 3.910539 0.215511
v -0.520290 1.059479 0.215511
v -0.563158 3.910539 -0.000000
v -0.563158 1.059479 -0.000000
v -0.520290 3.910539 -0.215511
v -0.520290 1.059479 -0.215511
v -0.398212 3.910539 -0.398212
v -0.398212 1.059479 -0.398212
v 0.356427 4.420384 0.147637
v 0.272797 4.420384 0.272797
v -0.215511 3.910539 -0.520290
v -0.215511 1.059479 -0.520290
v 0.398212 0.802411 -0.398212
v 0.215511 0.802411 -0.520290
v 0.147637 4.420384 -0.356427
v 0.272797 4.420384 -0.272797
v -0.272797 4.420384 0.272797
v -0.356427 4.420384 0.147637
v 0.356427 4.420384 -0.147637
v 0.385794 4.420384 -0.000000
v 0.000000 4.420384 0.385794
v -0.147637 4.420384 0.356427
v 0.000000 6.000000 -0.000000
v -0.356427 4.420384 -0.147637
v -0.272797 4.420384 -0.272797
v 0.147637 4.420384 0.356427
v -0.385794 4.420384 -0.000000
v -0.147637 4.420384 -0.356427
v 0.000000 4.420384 -0.385794
v 0.000000 0.802411 -0.563158
v -0.215511 0.802411 -0.520290
v 0.520290 0.802411 0.215511
v 0.563158 0.802411 -0.000000
v -0.398212 0.802411 0.398212
v -0.215511 0.802411 0.520290
v -0.398212 0.802411 -0.398212
v 0.520290 0.802411 -0.215511
v 0.000000 0.802411 0.563158
v 0.215511 0.802411 0.520290
v -0.520290 0.802411 -0.215511
v -0.563158 0.802411 -0.000000
v 0.398212 0.802411 0.398212
v -0.520290 0.802411 0.215511
v 0.000000 0.433811 -0.357929
v 0.136973 0.433811 -0.330683
v 0.173339 -0.000000 -0.418477
v 0.000000 -0.000000 -0.452956
v 0.164074 0.433811 -0.396109
v 0.000000 0.433811 -0.428745
v 0.303168 0.433811 -0.303168
v 0.396109 0.433811 -0.164074
v 0.428745 0.433811 -0.000000
v 0.396109 0.433811 0.164074
v 0.303168 0.433811 0.303168
v 0.164074 0.433811 0.396109
v 0.000000 0.433811 0.428745
v -0.164073 0.433811 0.396109
v -0.303168 0.433811 0.303168
v -0.396109 0.433811 0.164074
v -0.428745 0.433811 -0.000000
v -0.396109 0.433811 -0.164074
v -0.303168 0.433811 -0.303168
v -0.164073 0.433811 -0.396109
v 0.253094 0.433811 -0.253094
v 0.330683 0.433811 -0.136973
v 0.357929 0.433811 -0.000000
v 0.330683 0.433811 0.136973
v 0.253094 0.433811 0.253094
v 0.136973 0.433811 0.330683
v 0.000000 0.433811 0.357929
v -0.136973 0.433811 0.330683
v -0.253094 0.433811 0.253094
v -0.330683 0.433811 0.136973
v -0.357929 0.433811 -0.000000
v -0.330683 0.433811 -0.136973
v -0.253094 0.433811 -0.253094
v -0.136973 0.433811 -0.330683
v 0.320289 -0.000000 -0.320289
v 0.418477 -0.000000 -0.173339
v -0.173339 -0.000000 -0.418477
v -0.173339 0.000000 0.418477
v 0.000000 0.000000 0.452956
v -0.320289 0.000000 0.320289
v -0.418477 0.000000 0.173339
v 0.452956 0.000000 0.000000
v -0.452956 0.000000 0.000000
v 0.418477 0.000000 0.173339
v -0.418477 -0.000000 -0.173339
v 0.320289 0.000000 0.320289
v -0.320289 -0.000000 -0.320289
v 0.173339 0.000000 0.418477
vn -0.0000 -0.0000 -1.0000
vn -0.0000 0.0456 -0.9990
vn 0.3823 0.0456 -0.9229
vn 0.3827 -0.0000 -0.9239
vn 0.7064 0.0456 -0.7064
vn 0.7071 -0.0000 -0.7071
vn 0.9229 0.0456 -0.3823
vn 0.9239 -0.0000 -0.3827
vn 0.9990 0.0456 -0.0000
vn 1.0000 -0.0000 -0.0000
vn 0.9229 0.0456 0.3823
vn 0.9239 -0.0000 0.3827
vn 0.7064 0.0456 0.7064
vn 0.7071 -0.0000 0.7071
vn 0.3823 0.0456 0.9229
vn 0.3827 -0.0000 0.9239
vn -0.0000 0.0456 0.9990
vn -0.0000 -0.0000 1.0000
vn -0.3823 0.0456 0.9229
vn -0.3827 -0.0000 0.9239
vn -0.7064 0.0456 0.7064
vn -0.7071 -0.0000 0.7071
vn -0.9229 0.0456 0.3823
vn -0.9239 -0.0000 0.3827
vn -0.9990 0.0456 -0.0000
vn -1.0000 -0.0000 -0.0000
vn -0.9229 0.0456 -0.3823
vn -0.9239 -0.0000 -0.3827
vn -0.7064 0.0456 -0.7064
vn -0.7071 -0.0000 -0.7071
vn 0.8873 0.2787 0.3675
vn 0.6791 0.2786 0.6791
vn -0.3823 0.0456 -0.9229
vn -0.3827 -0.0000 -0.9239
vn 0.6929 -0.1994 -0.6929
vn 0.3750 -0.1994 -0.9053
vn 0.3675 0.2786 -0.8873
vn 0.6791 0.2786 -0.6791
vn -0.6791 0.2786 0.6791
vn -0.8873 0.2786 0.3675
vn 0.8873 0.2786 -0.3675
vn 0.9604 0.2786 -0.0000
vn -0.0000 0.2786 0.9604
vn -0.3675 0.2786 0.8873
vn 0.9442 0.2705 -0.1878
vn -0.8873 0.2787 -0.3675
vn -0.6791 0.2786 -0.6791
vn 0.3675 0.2787 0.8873
vn -0.9604 0.2786 -0.0000
vn -0.3675 0.2787 -0.8873
vn -0.0000 0.2786 -0.9604
vn 0.1878 0.2705 -0.9442
vn -0.1878 0.2705 0.9442
vn -0.8005 0.2705 -0.5349
vn 0.5349 0.2705 -0.8005
vn 0.5349 0.2705 0.8005
vn -0.9442 0.2705 0.1878
vn 0.9442 0.2705 0.1878
vn -0.5349 0.2705 0.8005
vn -0.5349 0.2705 -0.8005
vn 0.8005 0.2705 -0.5349
vn 0.1878 0.2705 0.9442
vn -0.9442 0.2705 -0.1878
vn 0.8005 0.2705 0.5349
vn -0.8005 0.2705 0.5349
vn -0.1878 0.2705 -0.9442
vn -0.0000 -0.1994 -0.9799
vn -0.3750 -0.1994 -0.9053
vn 0.9053 -0.1994 0.3750
vn 0.9799 -0.1994 -0.0000
vn -0.6929 -0.1994 0.6929
vn -0.3750 -0.1994 0.9053
vn -0.6929 -0.1994 -0.6929
vn 0.9053 -0.1994 -0.3750
vn -0.0000 -0.1994 0.9799
vn 0.3750 -0.1994 0.9053
vn -0.9053 -0.1994 -0.3750
vn -0.9799 -0.1994 -0.0000
vn 0.6929 -0.1994 0.6929
vn -0.9053 -0.1994 0.3750
vn -0.0000 0.2140 -0.9768
vn 0.3738 0.2140 -0.9025
vn 0.3595 -0.3426 -0.8680
vn -0.0000 -0.3426 -0.9395
vn 0.6643 -0.3426 -0.6643
vn 0.8680 -0.3426 -0.3595
vn 0.9395 -0.3426 -0.0000
vn 0.8680 -0.3426 0.3595
vn 0.6643 -0.3426 0.6643
vn 0.3595 -0.3426 0.8680
vn -0.0000 -0.3426 0.9395
vn -0.3595 -0.3426 0.8680
vn -0.6643 -0.3426 0.6643
vn -0.8680 -0.3426 0.3595
vn -0.9395 -0.3426 -0.0000
vn -0.8680 -0.3426 -0.3595
vn -0.6643 -0.3426 -0.6643
vn -0.3595 -0.3426 -0.8680
vn -0.0000 -1.0000 -0.0000
vn 0.1581 -0.9817 -0.1064
vn -0.3738 0.2140 -0.9025
vn -0.0000 0.2140 0.9768
vn -0.3738 0.2140 0.9025
vn 0.6907 0.2140 -0.6907
vn -0.6907 0.2140 0.6907
vn 0.9024 0.2140 -0.3739
vn 0.9070 0.1175 -0.4044
vn -0.9025 0.2140 0.3738
vn 0.9025 0.2140 -0.3737
vn 0.9768 0.2140 -0.0000
vn 0.9560 0.0461 -0.2897
vn -0.9768 0.2140 -0.0000
vn 0.9025 0.2140 0.3738
vn -0.9025 0.2140 -0.3738
vn 0.6907 0.2140 0.6907
vn -0.6907 0.2140 -0.6907
vn 0.3738 0.2140 0.9025
vt 0.223701 0.546370
vt 0.223701 0.804310
vt 0.203821 0.804310
vt 0.203821 0.546370
vt 0.183942 0.804310
vt 0.183942 0.546370
vt 0.164062 0.804310
vt 0.164062 0.546370
vt 0.080078 0.546370
vt 0.080078 0.804310
vt 0.060198 0.804310
vt 0.060198 0.546370
vt 0.040319 0.804310
vt 0.040319 0.546370
vt 0.020439 0.804310
vt 0.020439 0.546370
vt 0.000560 0.804310
vt 0.000560 0.546370
vt 0.310362 0.546370
vt 0.310362 0.804310
vt 0.290482 0.804310
vt 0.290482 0.546370
vt 0.286201 0.546370
vt 0.286201 0.804310
vt 0.266321 0.804310
vt 0.266321 0.546370
vt 0.246442 0.804310
vt 0.246442 0.546370
vt 0.226562 0.804310
vt 0.226562 0.546370
vt 0.162109 0.546370
vt 0.162109 0.804310
vt 0.142230 0.804310
vt 0.142230 0.546370
vt 0.122350 0.804310
vt 0.122350 0.546370
vt 0.102471 0.804310
vt 0.102471 0.546370
vt 0.037188 0.853047
vt 0.023570 0.853047
vt 0.082591 0.804310
vt 0.082591 0.546370
vt 0.351378 0.239729
vt 0.351378 0.497669
vt 0.331498 0.497669
vt 0.331498 0.239729
vt 0.183942 0.523113
vt 0.203821 0.523113
vt 0.200691 0.853047
vt 0.187072 0.853047
vt 0.406250 0.603138
vt 0.426129 0.603138
vt 0.422999 0.651875
vt 0.409380 0.651875
vt 0.076948 0.853047
vt 0.063329 0.853047
vt 0.283071 0.853047
vt 0.269452 0.853047
vt 0.063329 0.853047
vt 0.070138 1.000000
vt 0.119220 0.853047
vt 0.105601 0.853047
vt 0.330078 0.806853
vt 0.320738 0.854789
vt 0.307232 0.853047
vt 0.158979 0.853047
vt 0.145360 0.853047
vt 0.423828 0.704700
vt 0.443708 0.704700
vt 0.440577 0.753438
vt 0.426959 0.753438
vt 0.057068 0.853047
vt 0.043449 0.853047
vt 0.263191 0.853047
vt 0.249572 0.853047
vt 0.371094 0.500212
vt 0.361754 0.548149
vt 0.348247 0.546406
vt 0.334628 0.546406
vt 0.293613 0.853047
vt 0.139099 0.853047
vt 0.125480 0.853047
vt 0.206952 0.853047
vt 0.220571 0.853047
vt 0.213762 1.000000
vt 0.206952 0.853047
vt 0.269452 0.853047
vt 0.276262 1.000000
vt 0.105601 0.853047
vt 0.112410 1.000000
vt 0.193882 1.000000
vt 0.407577 0.986328
vt 0.408207 0.972724
vt 0.554688 0.986328
vt 0.145360 0.853047
vt 0.152170 1.000000
vt 0.043449 0.853047
vt 0.050259 1.000000
vt 0.256382 1.000000
vt 0.380233 1.000000
vt 0.380864 0.986396
vt 0.527344 1.000000
vt 0.440577 0.753438
vt 0.433768 0.900391
vt 0.293613 0.853047
vt 0.300422 1.000000
vt 0.125481 0.853047
vt 0.132290 1.000000
vt 0.023570 0.853047
vt 0.030379 1.000000
vt 0.422999 0.651875
vt 0.416190 0.798828
vt 0.334629 0.546406
vt 0.341438 0.693359
vt 0.331498 0.216472
vt 0.351378 0.216472
vt 0.040319 0.523113
vt 0.060198 0.523113
vt 0.246442 0.523113
vt 0.266321 0.523113
vt 0.082591 0.523113
vt 0.102471 0.523113
vt 0.164062 0.523113
vt 0.290482 0.523113
vt 0.310362 0.523113
vt 0.122350 0.523113
vt 0.142230 0.523113
vt 0.020439 0.523113
vt 0.226562 0.523113
vt 0.080078 0.523113
vt 0.286201 0.523113
vt 0.359065 0.958079
vt 0.358538 0.970703
vt 0.318359 0.970703
vt 0.319027 0.954728
vt 0.000560 0.523113
vt 0.162109 0.523113
vt 0.223701 0.523113
vt 0.206194 0.487696
vt 0.221329 0.487696
vt 0.184120 0.520461
vt 0.191194 0.485678
vt 0.349007 0.724609
vt 0.347679 0.744141
vt 0.312500 0.739407
vt 0.313511 0.724609
vt 0.079901 0.520461
vt 0.057826 0.487696
vt 0.072826 0.485678
vt 0.042691 0.487696
vt 0.020617 0.520461
vt 0.027692 0.485678
vt 0.330064 0.520461
vt 0.307990 0.487696
vt 0.322989 0.485678
vt 0.292855 0.487696
vt 0.268694 0.487696
vt 0.283829 0.487696
vt 0.246620 0.520461
vt 0.253694 0.485678
vt 0.268694 0.487696
vt 0.019835 0.998069
vt 0.000000 0.999398
vt 0.000000 0.963902
vt 0.015101 0.962891
vt 0.161932 0.520461
vt 0.139857 0.487696
vt 0.154857 0.485678
vt 0.124722 0.487696
vt 0.102648 0.520461
vt 0.109723 0.485678
vt 0.371080 0.213821
vt 0.349005 0.181056
vt 0.364005 0.179037
vt 0.333870 0.181056
vt 0.349005 0.181056
vt 0.358095 0.930747
vt 0.345703 0.928282
vt 0.345703 0.921875
vt 0.360547 0.924828
vt 0.368601 0.937766
vt 0.373131 0.933236
vt 0.375621 0.948272
vt 0.381540 0.945820
vt 0.378086 0.960664
vt 0.384492 0.960664
vt 0.375621 0.973056
vt 0.381540 0.975508
vt 0.368601 0.983562
vt 0.373131 0.988092
vt 0.358095 0.990582
vt 0.360547 0.996501
vt 0.345703 0.993047
vt 0.345703 0.999454
vt 0.333311 0.990582
vt 0.330859 0.996501
vt 0.322805 0.983562
vt 0.318275 0.988092
vt 0.315786 0.973056
vt 0.309867 0.975508
vt 0.313321 0.960664
vt 0.306914 0.960664
vt 0.315786 0.948272
vt 0.309867 0.945820
vt 0.322805 0.937766
vt 0.318275 0.933236
vt 0.333311 0.930747
vt 0.330859 0.924828
vt 0.505172 0.661866
vt 0.489405 0.659208
vt 0.473471 0.657874
vt 0.457482 0.657874
vt 0.441548 0.659208
vt 0.425781 0.661866
vt 0.091488 0.958803
vt 0.075499 0.958803
vt 0.172184 0.958803
vt 0.156250 0.960137
vt 0.447124 0.930692
vt 0.431190 0.929358
vt 0.415201 0.929358
vt 0.399267 0.930692
vt 0.383500 0.933351
vt 0.000000 0.920899
vt 0.015625 0.960410
vt 0.003352 0.960938
vt 0.015625 0.920232
vt 0.186496 0.998946
vt 0.173861 0.998946
vt 0.188173 0.958803
vt 0.496844 0.701172
vt 0.484385 0.699071
vt 0.161270 1.000000
vt 0.471794 0.698017
vt 0.454563 0.972656
vt 0.442104 0.970556
vt 0.462891 0.933350
vt 0.459159 0.698017
vt 0.429513 0.969502
vt 0.446568 0.699071
vt 0.416878 0.969502
vt 0.434109 0.701172
vt 0.404287 0.970556
vt 0.102402 1.000000
vt 0.089811 0.998946
vt 0.107422 0.960137
vt 0.391828 0.972656
vt 0.077176 0.998946
s 1
usemtl missile_texture
f 1/1/1 2/2/2 3/3/3 4/4/4
f 4/4/4 3/3/3 5/5/5 6/6/6
f 6/6/6 5/5/5 7/7/7 8/8/8
f 8/9/8 7/10/7 9/11/9 10/12/10
f 10/12/10 9/11/9 11/13/11 12/14/12
f 12/14/12 11/13/11 13/15/13 14/16/14
f 14/16/14 13/15/13 15/17/15 16/18/16
f 16/19/16 15/20/15 17/21/17 18/22/18
f 18/23/18 17/24/17 19/25/19 20/26/20
f 20/26/20 19/25/19 21/27/21 22/28/22
f 22/28/22 21/27/21 23/29/23 24/30/24
f 24/31/24 23/32/23 25/33/25 26/34/26
f 26/34/26 25/33/25 27/35/27 28/36/28
f 28/36/28 27/35/27 29/37/29 30/38/30
f 13/15/13 11/13/11 31/39/31 32/40/32
f 30/38/30 29/37/29 33/41/33 34/42/34
f 34/43/34 33/44/33 2/45/2 1/46/1
f 4/4/4 6/6/6 35/47/35 36/48/36
f 5/5/5 3/3/3 37/49/37 38/50/38
f 23/51/23 21/52/21 39/53/39 40/54/40
f 9/11/9 7/10/7 41/55/41 42/56/42
f 19/25/19 17/24/17 43/57/43 44/58/44
f 42/59/42 41/55/41 45/60/45
f 29/37/29 27/35/27 46/61/46 47/62/47
f 15/20/15 13/63/13 32/64/32 48/65/48
f 25/33/25 23/32/23 40/66/40 49/67/49
f 7/68/7 5/69/5 38/70/38 41/71/41
f 11/13/11 9/11/9 42/72/42 31/73/31
f 21/27/21 19/25/19 44/74/44 39/75/39
f 33/44/33 29/76/29 47/77/47 50/78/50
f 2/45/2 33/44/33 50/78/50 51/79/51
f 17/21/17 15/20/15 48/65/48 43/80/43
f 27/35/27 25/33/25 49/81/49 46/82/46
f 37/83/37 51/84/51 45/85/52
f 3/3/3 2/2/2 51/84/51 37/86/37
f 44/87/44 43/57/43 45/88/53
f 47/89/47 46/61/46 45/90/54
f 38/50/38 37/49/37 45/91/55
f 48/92/48 32/93/32 45/94/56
f 49/95/49 40/66/40 45/96/57
f 31/97/31 42/72/42 45/98/58
f 39/75/39 44/74/44 45/99/59
f 50/100/50 47/101/47 45/102/60
f 41/71/41 38/103/38 45/104/61
f 43/105/43 48/65/48 45/106/62
f 46/107/46 49/81/49 45/108/63
f 32/109/32 31/39/31 45/110/64
f 40/54/40 39/111/39 45/112/65
f 51/113/51 50/78/50 45/114/66
f 34/43/34 1/46/1 52/115/67 53/116/68
f 10/12/10 12/14/12 54/117/69 55/118/70
f 20/26/20 22/28/22 56/119/71 57/120/72
f 30/38/30 34/42/34 53/121/68 58/122/73
f 6/6/6 8/8/8 59/123/74 35/47/35
f 16/19/16 18/22/18 60/124/75 61/125/76
f 26/34/26 28/36/28 62/126/77 63/127/78
f 12/14/12 14/16/14 64/128/79 54/117/69
f 22/28/22 24/30/24 65/129/80 56/119/71
f 8/9/8 10/12/10 55/118/70 59/130/74
f 18/23/18 20/26/20 57/120/72 60/131/75
f 66/132/81 67/133/82 68/134/82 69/135/81
f 28/36/28 30/38/30 58/122/73 62/126/77
f 14/16/14 16/18/16 61/136/76 64/128/79
f 24/31/24 26/34/26 63/127/78 65/137/80
f 52/138/67 36/48/36 70/139/83 71/140/84
f 36/48/36 35/141/35 72/142/85 70/139/83
f 35/143/35 59/144/74 73/145/86 72/146/85
f 59/147/74 55/118/70 74/148/87 73/149/86
f 55/118/70 54/117/69 75/150/88 74/148/87
f 54/117/69 64/151/79 76/152/89 75/150/88
f 64/153/79 61/125/76 77/154/90 76/155/89
f 61/125/76 60/124/75 78/156/91 77/154/90
f 60/131/75 57/120/72 79/157/92 78/158/91
f 57/120/72 56/159/71 80/160/93 79/161/92
f 56/162/71 65/163/80 81/164/94 80/165/93
f 65/166/80 63/127/78 82/167/95 81/168/94
f 63/127/78 62/126/77 83/169/96 82/167/95
f 62/126/77 58/170/73 84/171/97 83/169/96
f 58/172/73 53/116/68 85/173/98 84/174/97
f 53/116/68 52/115/67 71/175/84 85/176/98
f 1/1/1 4/4/4 36/48/36 52/138/67
f 67/177/99 66/178/99 71/179/99 70/180/99
f 86/181/99 67/177/99 70/180/99 72/182/99
f 87/183/99 86/181/99 72/182/99 73/184/99
f 88/185/99 87/183/99 73/184/99 74/186/99
f 89/187/99 88/185/99 74/186/99 75/188/99
f 90/189/99 89/187/99 75/188/99 76/190/99
f 91/191/99 90/189/99 76/190/99 77/192/99
f 92/193/99 91/191/99 77/192/99 78/194/99
f 93/195/99 92/193/99 78/194/99 79/196/99
f 94/197/99 93/195/99 79/196/99 80/198/99
f 95/199/99 94/197/99 80/198/99 81/200/99
f 96/201/99 95/199/99 81/200/99 82/202/99
f 97/203/99 96/201/99 82/202/99 83/204/99
f 98/205/99 97/203/99 83/204/99 84/206/99
f 99/207/99 98/205/99 84/206/99 85/208/99
f 66/178/99 99/207/99 85/208/99 71/179/99
f 68/209/99 100/210/99 101/211/100 107/212/99 109/213/99 111/214/99 113/215/99 104/216/99 103/217/99 105/218/99 106/219/99 108/220/99 110/221/99 112/222/99 102/223/99 69/224/99
f 99/225/101 66/226/81 69/224/81 102/227/101
f 92/228/102 93/229/103 103/217/103 104/230/102
f 67/231/82 86/232/104 100/210/104 68/209/82
f 93/229/103 94/233/105 105/218/105 103/217/103
f 86/232/104 87/234/106 101/211/107 100/210/104
f 94/235/105 95/236/108 106/219/108 105/237/105
f 87/234/109 88/238/110 107/212/110 101/211/111
f 95/236/108 96/239/112 108/220/112 106/219/108
f 88/238/110 89/240/113 109/213/113 107/212/110
f 96/239/112 97/241/114 110/221/114 108/220/112
f 89/240/113 90/242/115 111/214/115 109/213/113
f 97/241/114 98/243/116 112/222/116 110/221/114
f 90/244/115 91/245/117 113/215/117 111/246/115
f 98/243/116 99/247/101 102/223/101 112/222/116
f 91/245/117 92/248/102 104/216/102 113/215/117
o the_fins
v -0.083867 5.376837 -0.096256
v -0.121281 4.898267 -0.210065
v -0.041427 5.376837 -0.120759
v -0.062647 5.393539 -0.108507
v -0.296058 5.160941 -0.463782
v -0.274838 5.177643 -0.476033
v -0.274838 4.787900 -0.476033
v -0.253618 5.160941 -0.488285
v 0.125293 5.376837 0.024503
v 0.242562 4.898267 -0.000000
v 0.125294 5.376837 -0.024503
v 0.125293 5.393539 -0.000000
v 0.549676 5.160941 0.024503
v 0.549676 5.177643 -0.000000
v 0.549676 4.787900 -0.000000
v 0.549676 5.160941 -0.024503
v -0.038050 5.376837 0.121865
v -0.115389 4.898267 0.213358
v -0.081156 5.376837 0.098553
v -0.059603 5.393539 0.110208
v -0.239932 5.160941 0.495153
v -0.261485 5.177643 0.483496
v -0.261485 4.787900 0.483496
v -0.283038 5.160941 0.471840
v 0.526371 1.543762 0.043982
v 0.381278 0.448296 -0.001309
v 0.526371 1.543762 -0.046980
v 0.526371 1.574763 -0.001499
v 0.993034 1.143025 0.043982
v 0.993034 1.174027 -0.001499
v 0.993034 0.450600 -0.001499
v 0.993034 1.143025 -0.046980
v -0.223798 1.543762 0.477092
v -0.190474 0.448296 0.328793
v -0.302573 1.543762 0.431611
v -0.263186 1.574763 0.454352
v -0.457129 1.143025 0.881234
v -0.496517 1.174026 0.858493
v -0.496517 0.450600 0.858493
v -0.535905 1.143025 0.835753
v -0.302573 1.543762 -0.434609
v -0.190804 0.448296 -0.331600
v -0.223798 1.543762 -0.480091
v -0.263186 1.574763 -0.457350
v -0.535905 1.143025 -0.838751
v -0.496517 1.174027 -0.861491
v -0.496517 0.450600 -0.861491
v -0.457129 1.143025 -0.884232
vn 0.4865 -0.2304 0.8427
vn -0.6434 0.7617 -0.0760
vn -0.5000 -0.0000 -0.8660
vn 0.2559 0.7617 -0.5952
vn -0.8504 -0.0612 0.5225
vn 0.8777 -0.0612 -0.4752
vn 0.9731 0.2304 -0.0000
vn -0.3875 -0.7617 -0.5192
vn -1.0000 -0.0000 -0.0000
vn -0.3875 -0.7617 0.5192
vn 0.0273 0.0612 -0.9978
vn 0.0273 0.0612 0.9978
vn 0.4629 -0.2304 -0.8559
vn 0.2724 0.7617 0.5879
vn -0.4757 -0.0000 0.8796
vn -0.6411 0.7617 0.0939
vn 0.8906 -0.0612 0.4506
vn -0.8646 -0.0612 -0.4986
vn 0.9918 -0.1277 -0.0000
vn -0.8936 -0.3709 -0.2528
vn -0.5787 -0.6739 -0.4593
vn -0.6515 -0.7587 -0.0000
vn -0.8529 -0.5220 -0.0000
vn -0.8936 -0.3709 0.2528
vn -0.5787 -0.6739 0.4593
vn 0.0180 0.0492 -0.9986
vn 0.0184 0.0494 0.9986
vn 0.4959 0.1277 -0.8589
vn -0.2278 0.3709 0.9003
vn 0.1085 0.6739 0.7308
vn -0.3257 0.7587 0.5642
vn -0.4265 0.5220 0.7387
vn -0.5000 -0.0000 0.8660
vn -0.6658 0.3709 0.6474
vn -0.6871 0.6739 0.2715
vn 0.8738 -0.0492 0.4837
vn -0.8556 -0.0494 -0.5153
vn 0.4959 0.1277 0.8589
vn -0.6658 0.3709 -0.6475
vn -0.6871 0.6739 -0.2715
vn -0.3257 0.7587 -0.5642
vn -0.4265 0.5220 -0.7386
vn -0.2278 0.3709 -0.9003
vn 0.1085 0.6739 -0.7308
vn -0.8558 -0.0492 0.5149
vn 0.8740 -0.0494 -0.4833
vt 0.087369 0.923539
vt 0.087369 0.878906
vt 0.091797 0.923319
vt 0.089656 0.924895
vt 0.346863 0.652344
vt 0.389940 0.652344
vt 0.390625 0.654297
vt 0.347548 0.654297
vt 0.095185 0.880831
vt 0.099609 0.914362
vt 0.097496 0.916016
vt 0.095185 0.914653
vt 0.021484 0.874892
vt 0.021484 0.917969
vt 0.019531 0.917284
vt 0.019531 0.874206
vt 0.453791 0.859375
vt 0.498424 0.859375
vt 0.470350 0.892578
vt 0.437500 0.884528
vt 0.467980 0.750000
vt 0.476031 0.782850
vt 0.443359 0.810925
vt 0.443359 0.766293
vt 0.012434 0.916613
vt 0.012434 0.871980
vt 0.016863 0.916393
vt 0.014721 0.917969
vt 0.346863 0.656250
vt 0.389940 0.656250
vt 0.390625 0.658203
vt 0.347548 0.658203
vt 0.094468 0.919893
vt 0.098892 0.953425
vt 0.096779 0.955078
vt 0.094468 0.953716
vt 0.042969 0.891310
vt 0.042969 0.934387
vt 0.041016 0.933702
vt 0.041016 0.890625
vt 0.442860 0.894531
vt 0.487493 0.894531
vt 0.459419 0.927734
vt 0.426569 0.919685
vt 0.466293 0.802357
vt 0.474344 0.835207
vt 0.441672 0.863281
vt 0.441672 0.818649
vt 0.058594 0.929398
vt 0.058594 0.884766
vt 0.063022 0.929178
vt 0.060881 0.930754
vt 0.321472 0.972656
vt 0.364549 0.972656
vt 0.365234 0.974609
vt 0.322157 0.974609
vt 0.312500 0.718750
vt 0.346322 0.718750
vt 0.347685 0.720544
vt 0.346032 0.722656
vt 0.103516 0.913954
vt 0.103516 0.957031
vt 0.101562 0.956346
vt 0.101562 0.913269
vt 0.443648 0.621094
vt 0.488281 0.621094
vt 0.460207 0.654297
vt 0.427358 0.646247
vt 0.243902 0.937500
vt 0.251953 0.970350
vt 0.219281 0.998425
vt 0.219281 0.953793
vt 0.545456 0.996094
vt 0.445737 0.988281
vt 0.545796 0.988281
vt 0.548404 0.992097
vt 0.366351 0.921875
vt 0.422001 0.921875
vt 0.423828 0.925781
vt 0.368178 0.925781
vt 0.078902 0.889769
vt 0.087114 0.952010
vt 0.083192 0.955078
vt 0.078902 0.952549
vt 0.009766 0.861202
vt 0.009766 0.916852
vt 0.005859 0.915025
vt 0.005859 0.859375
vt 0.400391 0.659708
vt 0.400391 0.759766
vt 0.353884 0.729393
vt 0.345703 0.667175
vt 0.320651 0.746016
vt 0.382900 0.754160
vt 0.413287 0.800781
vt 0.313276 0.800781
vt 0.527454 0.621094
vt 0.427734 0.613281
vt 0.527794 0.613281
vt 0.530402 0.617097
vt 0.368304 0.802734
vt 0.423954 0.802734
vt 0.425781 0.806641
vt 0.370131 0.806641
vt 0.056641 0.934691
vt 0.064852 0.996931
vt 0.060930 1.000000
vt 0.056641 0.997471
vt 0.003906 0.862319
vt 0.003906 0.917969
vt 0.000000 0.916142
vt 0.000000 0.860491
vt 0.455078 0.501953
vt 0.455078 0.602011
vt 0.408571 0.571639
vt 0.400391 0.509420
vt 0.315567 0.863281
vt 0.377816 0.871425
vt 0.408203 0.918046
vt 0.308192 0.918046
vt 0.543927 0.751953
vt 0.444207 0.744141
vt 0.544267 0.744141
vt 0.546875 0.747957
vt 0.362444 0.863281
vt 0.418095 0.863281
vt 0.419922 0.867188
vt 0.364272 0.867188
vt 0.038663 0.934691
vt 0.046875 0.996931
vt 0.042953 1.000000
vt 0.038663 0.997471
vt 0.023438 0.922865
vt 0.023438 0.978516
vt 0.019531 0.976688
vt 0.019531 0.921038
vt 0.404297 0.556641
vt 0.404297 0.656698
vt 0.357790 0.626326
vt 0.349609 0.564108
vt 0.335500 0.804688
vt 0.397749 0.812831
vt 0.428136 0.859453
vt 0.328125 0.859453
s 1
usemtl missile_texture
f 114/249/118 115/250/118 116/251/118 117/252/118
f 118/253/119 114/254/119 117/255/119 119/256/119
f 120/257/120 118/258/120 119/259/120 121/260/120
f 119/261/121 117/262/121 116/263/121 121/264/121
f 115/265/122 114/266/122 118/267/122 120/268/122
f 120/269/123 121/270/123 116/271/123 115/272/123
f 122/273/124 123/274/124 124/275/124 125/276/124
f 126/277/125 122/278/125 125/279/125 127/280/125
f 128/281/126 126/282/126 127/283/126 129/284/126
f 127/285/127 125/286/127 124/287/127 129/288/127
f 123/289/128 122/290/128 126/291/128 128/292/128
f 128/293/129 129/294/129 124/295/129 123/296/129
f 130/297/130 131/298/130 132/299/130 133/300/130
f 134/301/131 130/302/131 133/303/131 135/304/131
f 136/305/132 134/306/132 135/307/132 137/308/132
f 135/309/133 133/310/133 132/311/133 137/312/133
f 131/313/134 130/314/134 134/315/134 136/316/134
f 136/317/135 137/318/135 132/319/135 131/320/135
f 138/321/136 139/322/136 140/323/136 141/324/136
f 142/325/137 138/326/138 141/327/139 143/328/140
f 144/329/126 142/330/137 143/331/140 145/332/141
f 143/333/140 141/334/139 140/335/142 145/336/141
f 139/337/143 138/338/143 142/339/143 144/340/143
f 144/341/144 145/342/144 140/343/144 139/344/144
f 146/345/145 147/346/145 148/347/145 149/348/145
f 150/349/146 146/350/147 149/351/148 151/352/149
f 152/353/150 150/354/146 151/355/149 153/356/151
f 151/357/149 149/358/148 148/359/152 153/360/151
f 147/361/153 146/362/153 150/363/153 152/364/153
f 152/365/154 153/366/154 148/367/154 147/368/154
f 154/369/155 155/370/155 156/371/155 157/372/155
f 158/373/156 154/374/157 157/375/158 159/376/159
f 160/377/120 158/378/156 159/379/159 161/380/160
f 159/381/159 157/382/158 156/383/161 161/384/160
f 155/385/162 154/386/162 158/387/162 160/388/162
f 160/389/163 161/390/163 156/391/163 155/392/163
