# Blender 5.2.0 LTS
# www.blender.org
mtllib missile_abm.mtl
o Cylinder
v 0.000000 0.525910 -0.485192
v 0.000000 5.562353 -0.485192
v 0.185675 5.562353 -0.448259
v 0.185675 0.525910 -0.448259
v 0.343083 5.562353 -0.343083
v 0.343083 0.525910 -0.343083
v 0.448259 5.562353 -0.185675
v 0.448259 0.525910 -0.185675
v 0.485192 5.562353 -0.000000
v 0.485192 0.525910 -0.000000
v 0.448259 5.562353 0.185675
v 0.448259 0.525910 0.185675
v 0.343083 5.562353 0.343083
v 0.343083 0.525910 0.343083
v 0.185675 5.562353 0.448259
v 0.185675 0.525910 0.448259
v 0.000000 5.562353 0.485192
v 0.000000 0.525910 0.485192
v -0.185675 5.562353 0.448259
v -0.185675 0.525910 0.448259
v -0.343083 5.562353 0.343083
v -0.343083 0.525910 0.343083
v -0.448259 5.562353 0.185675
v -0.448259 0.525910 0.185675
v -0.485192 5.562353 -0.000000
v -0.485192 0.525910 -0.000000
v -0.448259 5.562353 -0.185675
v -0.448259 0.525910 -0.185675
v -0.343083 5.562353 -0.343083
v -0.343083 0.525910 -0.343083
v 0.000000 8.500000 -0.000001
v -0.185675 5.562353 -0.448259
v -0.185675 0.525910 -0.448259
v 0.568889 0.001355 -0.235641
v 0.435409 0.001355 -0.435409
v 0.568889 0.001355 0.235641
v 0.615761 0.001355 -0.000000
v -0.615761 0.001355 -0.000000
v -0.568889 0.001355 0.235641
v 0.235641 0.001355 0.568889
v 0.435409 0.001355 0.435409
v 0.235641 0.001355 -0.568889
v -0.435409 0.001355 -0.435409
v -0.568889 0.001355 -0.235641
v -0.235641 0.001355 0.568889
v 0.000000 0.001355 0.615761
v 0.000000 0.001355 -0.615761
v -0.235641 0.001355 -0.568889
v -0.435409 0.001355 0.435409
v 0.000000 0.308928 -0.449094
v 0.171861 0.308928 -0.414909
v 0.317558 0.308928 -0.317558
v 0.414909 0.308928 -0.171861
v -0.171861 0.308928 -0.414909
v -0.317558 0.308928 -0.317558
v -0.414909 0.308928 -0.171861
v -0.449094 0.308928 -0.000000
v -0.414909 0.308928 0.171861
v -0.317558 0.308928 0.317558
v -0.171861 0.308928 0.414909
v 0.000000 0.308928 0.449094
v 0.171861 0.308928 0.414909
v 0.317558 0.308928 0.317558
v 0.414909 0.308928 0.171861
v 0.449094 0.308928 -0.000000
v -0.153379 4.751742 -0.359101
v -0.153379 5.272320 -0.359101
v -0.234301 4.751742 -0.312381
v -0.234301 5.272320 -0.312381
v -0.469316 4.693506 -0.906320
v -0.550238 4.693506 -0.859599
v -0.193840 4.503833 -0.335741
v -0.509777 4.503833 -0.882959
v -0.193840 5.331769 -0.335741
v -0.509777 4.790288 -0.882959
v -0.387680 4.751742 -0.046721
v -0.387680 5.272320 -0.046721
v -0.387680 4.751742 0.046721
v -0.387680 5.272320 0.046721
v -1.019554 4.693506 -0.046721
v -1.019554 4.693506 0.046721
v -0.387680 4.503833 -0.000000
v -1.019554 4.503833 0.000000
v -0.387680 5.331769 -0.000000
v -1.019554 4.790288 -0.000000
v 0.387680 4.751742 -0.046721
v 0.387680 5.272320 -0.046721
v 0.387680 4.751742 0.046720
v 0.387680 5.272320 0.046720
v 1.019553 4.693506 -0.046720
v 1.019553 4.693506 0.046721
v 0.387680 4.503833 -0.000000
v 1.019553 4.503833 0.000000
v 0.387680 5.331769 -0.000000
v 1.019553 4.790288 0.000000
v 0.153379 4.751742 -0.359101
v 0.153379 5.272320 -0.359101
v 0.234301 4.751742 -0.312381
v 0.234301 5.272320 -0.312381
v 0.469315 4.693506 -0.906320
v 0.550238 4.693506 -0.859599
v 0.193840 4.503833 -0.335741
v 0.509777 4.503833 -0.882959
v 0.193840 5.331769 -0.335741
v 0.509777 4.790288 -0.882959
v -0.234301 4.751742 0.312381
v -0.234301 5.272320 0.312381
v -0.153379 4.751742 0.359101
v -0.153379 5.272320 0.359101
v -0.550238 4.693506 0.859599
v -0.469315 4.693506 0.906320
v -0.193840 4.503833 0.335741
v -0.509777 4.503833 0.882959
v -0.193840 5.331769 0.335741
v -0.509777 4.790288 0.882959
v 0.234301 4.751742 0.312380
v 0.234301 5.272320 0.312380
v 0.153379 4.751742 0.359101
v 0.153379 5.272320 0.359101
v 0.550238 4.693506 0.859599
v 0.469315 4.693506 0.906320
v 0.193840 4.503833 0.335741
v 0.509777 4.503833 0.882959
v 0.193840 5.331769 0.335741
v 0.509777 4.790288 0.882959
vn -0.0000 0.0264 -0.9997
vn -0.0000 0.0373 -0.9993
vn 0.3824 0.0373 -0.9232
vn 0.3826 0.0264 -0.9236
vn 0.7066 0.0373 -0.7066
vn 0.7069 0.0264 -0.7069
vn 0.9232 0.0373 -0.3824
vn 0.9236 0.0264 -0.3825
vn 0.9993 0.0373 -0.0000
vn 0.9997 0.0264 -0.0000
vn 0.9232 0.0373 0.3824
vn 0.9236 0.0264 0.3826
vn 0.7066 0.0373 0.7066
vn 0.7069 0.0264 0.7069
vn 0.3824 0.0373 0.9232
vn 0.3825 0.0264 0.9236
vn -0.0000 0.0373 0.9993
vn -0.0000 0.0264 0.9997
vn -0.3824 0.0373 0.9232
vn -0.3826 0.0264 0.9236
vn -0.7066 0.0373 0.7066
vn -0.7069 0.0264 0.7069
vn -0.9232 0.0373 0.3824
vn -0.9236 0.0264 0.3825
vn -0.9993 0.0373 -0.0000
vn -0.9997 0.0264 -0.0000
vn -0.9232 0.0373 -0.3824
vn -0.9236 0.0264 -0.3826
vn -0.7066 0.0373 -0.7066
vn -0.7069 0.0264 -0.7069
vn 0.9635 0.1867 0.1917
vn -0.3824 0.0373 -0.9232
vn -0.3825 0.0264 -0.9236
vn 0.8965 0.2415 -0.3714
vn 0.6862 0.2415 -0.6862
vn 0.8965 0.2415 0.3714
vn 0.9704 0.2415 -0.0000
vn -0.5458 0.1867 0.8169
vn -0.5458 0.1867 -0.8169
vn 0.8169 0.1867 -0.5458
vn 0.1917 0.1867 0.9635
vn 0.1917 0.1867 -0.9635
vn -0.9635 0.1867 -0.1917
vn 0.8169 0.1867 0.5458
vn -0.8169 0.1867 0.5458
vn -0.1917 0.1867 -0.9635
vn 0.9635 0.1867 -0.1917
vn -0.1917 0.1867 0.9635
vn -0.8169 0.1867 -0.5458
vn 0.5458 0.1867 -0.8169
vn 0.5458 0.1867 0.8169
vn -0.9635 0.1867 0.1917
vn -0.9704 0.2415 -0.0000
vn -0.8965 0.2415 0.3714
vn 0.3714 0.2415 0.8965
vn 0.6862 0.2415 0.6862
vn 0.3714 0.2415 -0.8965
vn -0.6862 0.2415 -0.6862
vn -0.8965 0.2415 -0.3714
vn -0.3714 0.2415 0.8965
vn -0.0000 0.2415 0.9704
vn -0.0000 0.2415 -0.9704
vn -0.3714 0.2415 -0.8965
vn -0.6862 0.2415 0.6862
vn -0.0000 -1.0000 -0.0000
vn -0.0000 -0.4764 0.8792
vn 0.3365 -0.4764 0.8123
vn 0.6217 -0.4764 0.6217
vn 0.8123 -0.4764 0.3365
vn 0.8792 -0.4764 -0.0000
vn 0.8123 -0.4764 -0.3365
vn 0.6217 -0.4764 -0.6217
vn 0.3365 -0.4764 -0.8123
vn -0.0000 -0.4764 -0.8792
vn -0.3365 -0.4764 -0.8123
vn -0.6217 -0.4764 -0.6217
vn -0.8123 -0.4764 -0.3365
vn -0.8792 -0.4764 -0.0000
vn -0.8123 -0.4764 0.3364
vn -0.8123 -0.4764 0.3365
vn -0.6217 -0.4764 0.6217
vn -0.3365 -0.4764 0.8123
vn -0.8660 -0.0000 0.5000
vn 0.8660 -0.0000 -0.5000
vn -0.8421 -0.2088 0.4973
vn 0.4694 0.4672 -0.7493
vn -0.5000 -0.0000 -0.8660
vn 0.8517 -0.2088 -0.4806
vn -0.8836 0.4672 0.0319
vn -0.0000 -0.0000 1.0000
vn -0.0000 -0.0000 -1.0000
vn 0.0096 -0.2088 0.9779
vn -0.4142 0.4672 -0.7811
vn -1.0000 -0.0000 -0.0000
vn 0.0096 -0.2088 -0.9779
vn -0.4142 0.4672 0.7811
vn 0.0096 0.2088 -0.9779
vn -0.4142 -0.4672 0.7812
vn 0.0096 0.2088 0.9779
vn -0.4142 -0.4672 -0.7811
vn -0.8660 -0.0000 -0.5000
vn 0.8660 -0.0000 0.5000
vn -0.8421 0.2088 -0.4973
vn 0.4694 -0.4672 0.7493
vn -0.5000 -0.0000 0.8660
vn 0.8517 0.2088 0.4806
vn -0.8836 -0.4672 -0.0319
vn 0.8517 -0.2088 0.4806
vn -0.8836 0.4672 -0.0319
vn -0.8421 -0.2088 -0.4973
vn 0.4694 0.4672 0.7493
vn 0.8517 0.2088 -0.4806
vn -0.8836 -0.4672 0.0319
vn -0.8421 0.2088 0.4973
vn 0.4694 -0.4672 -0.7493
vn -0.0000 1.0000 -0.0000
vt 0.137653 0.250757
vt 0.137653 0.755208
vt 0.120941 0.755208
vt 0.120941 0.250757
vt 0.104229 0.755208
vt 0.104229 0.250757
vt 0.087517 0.755208
vt 0.087517 0.250757
vt 0.070805 0.755208
vt 0.070805 0.250757
vt 0.054093 0.755208
vt 0.054093 0.250757
vt 0.037380 0.755208
vt 0.037380 0.250757
vt 0.020669 0.755208
vt 0.020669 0.250757
vt 0.003956 0.755208
vt 0.003956 0.250757
vt 0.271350 0.250757
vt 0.271350 0.755208
vt 0.254638 0.755208
vt 0.254638 0.250757
vt 0.237926 0.755208
vt 0.237926 0.250757
vt 0.221214 0.755208
vt 0.221214 0.250757
vt 0.204502 0.755208
vt 0.204502 0.250757
vt 0.187790 0.755208
vt 0.187790 0.250757
vt 0.171077 0.755208
vt 0.171077 0.250757
vt 0.062449 0.995843
vt 0.154365 0.755208
vt 0.154365 0.250757
vt 0.748272 0.304575
vt 0.758343 0.269972
vt 0.767901 0.301762
vt 0.755119 0.345677
vt 0.765478 0.225602
vt 0.769087 0.175135
vt 0.781536 0.181404
vt 0.776956 0.245453
vt 0.246282 0.995842
vt 0.162722 0.995842
vt 0.095873 0.995843
vt 0.012312 0.995842
vt 0.129297 0.995843
vt 0.196146 0.995842
vt 0.045737 0.995843
vt 0.229570 0.995842
vt 0.146009 0.995842
vt 0.079161 0.995843
vt 0.262994 0.995843
vt 0.179434 0.995842
vt 0.112585 0.995843
vt 0.029025 0.995843
vt 0.212858 0.995842
vt 0.676562 0.175135
vt 0.680171 0.225602
vt 0.668692 0.245453
vt 0.664113 0.181404
vt 0.768871 0.122741
vt 0.764848 0.072754
vt 0.776157 0.051472
vt 0.781262 0.114911
vt 0.736097 0.326552
vt 0.739668 0.373568
vt 0.687306 0.269972
vt 0.697377 0.304575
vt 0.690529 0.345677
vt 0.677748 0.301762
vt 0.688297 0.029304
vt 0.680800 0.072754
vt 0.669491 0.051472
vt 0.679005 0.000000
vt 0.709552 0.326552
vt 0.722824 0.334084
vt 0.722824 0.383128
vt 0.705980 0.373568
vt 0.676778 0.122741
vt 0.664386 0.114911
vt 0.757352 0.029304
vt 0.766644 0.000000
vt 1.000000 0.261680
vt 0.963495 0.224937
vt 0.943739 0.176929
vt 0.943739 0.124966
vt 0.828611 0.069007
vt 0.816400 0.077727
vt 0.811868 0.030902
vt 0.828611 0.018947
vt 0.805767 0.102758
vt 0.797289 0.065224
vt 0.798088 0.140866
vt 0.786760 0.117473
vt 0.794355 0.187122
vt 0.781641 0.180895
vt 0.795050 0.235547
vt 0.782595 0.247292
vt 0.800085 0.279881
vt 0.789498 0.308079
vt 0.808807 0.314391
vt 0.801458 0.355397
vt 0.820090 0.334617
vt 0.816928 0.383128
vt 0.837132 0.334617
vt 0.848415 0.314391
vt 0.855764 0.355397
vt 0.840294 0.383128
vt 0.857138 0.279881
vt 0.867724 0.308079
vt 0.862172 0.235547
vt 0.874627 0.247292
vt 0.862868 0.187123
vt 0.875581 0.180897
vt 0.859135 0.140866
vt 0.870462 0.117473
vt 0.851455 0.102758
vt 0.859933 0.065224
vt 0.840823 0.077727
vt 0.845355 0.030902
vt 0.375000 0.250000
vt 0.625000 0.250000
vt 0.375000 0.500000
vt 0.625000 0.750000
vt 0.625000 1.000000
vt 0.375000 1.000000
vt 0.625000 0.625000
vt 0.875000 0.625000
vt 0.875000 0.750000
vt 0.625000 0.500000
vt 0.375000 0.750000
vt 0.875000 0.500000
vt 0.000000 0.000000
s 1
usemtl missile_texture
f 1/1/1 2/2/2 3/3/3 4/4/4
f 4/4/4 3/3/3 5/5/5 6/6/6
f 6/6/6 5/5/5 7/7/7 8/8/8
f 8/8/8 7/7/7 9/9/9 10/10/10
f 10/10/10 9/9/9 11/11/11 12/12/12
f 12/12/12 11/11/11 13/13/13 14/14/14
f 14/14/14 13/13/13 15/15/15 16/16/16
f 16/16/16 15/15/15 17/17/17 18/18/18
f 18/19/18 17/20/17 19/21/19 20/22/20
f 20/22/20 19/21/19 21/23/21 22/24/22
f 22/24/22 21/23/21 23/25/23 24/26/24
f 24/26/24 23/25/23 25/27/25 26/28/26
f 26/28/26 25/27/25 27/29/27 28/30/28
f 28/30/28 27/29/27 29/31/29 30/32/30
f 11/11/11 9/9/9 31/33/31
f 30/32/30 29/31/29 32/34/32 33/35/33
f 33/35/33 32/34/32 2/2/2 1/1/1
f 6/36/6 8/37/8 34/38/34 35/39/35
f 10/40/10 12/41/12 36/42/36 37/43/37
f 21/23/21 19/21/19 31/44/38
f 32/34/32 29/31/29 31/45/39
f 7/7/7 5/5/5 31/46/40
f 17/17/17 15/15/15 31/47/41
f 3/3/3 2/2/2 31/48/42
f 27/29/27 25/27/25 31/49/43
f 13/13/13 11/11/11 31/50/44
f 23/25/23 21/23/21 31/51/45
f 2/2/2 32/34/32 31/52/46
f 9/9/9 7/7/7 31/53/47
f 19/21/19 17/20/17 31/54/48
f 29/31/29 27/29/27 31/55/49
f 5/5/5 3/3/3 31/56/50
f 15/15/15 13/13/13 31/57/51
f 25/27/25 23/25/23 31/58/52
f 24/59/24 26/60/26 38/61/53 39/62/54
f 14/63/14 16/64/16 40/65/55 41/66/56
f 4/67/4 6/36/6 35/39/35 42/68/57
f 28/69/28 30/70/30 43/71/58 44/72/59
f 18/73/18 20/74/20 45/75/60 46/76/61
f 8/37/8 10/40/10 37/43/37 34/38/34
f 33/77/33 1/78/1 47/79/62 48/80/63
f 22/81/22 24/59/24 39/62/54 49/82/64
f 12/41/12 14/63/14 41/66/56 36/42/36
f 26/60/26 28/69/28 44/72/59 38/61/53
f 1/78/1 4/67/4 42/68/57 47/79/62
f 16/64/16 18/83/18 46/84/61 40/65/55
f 50/85/65 51/86/65 52/87/65 53/88/65
f 20/74/20 22/81/22 49/82/64 45/75/60
f 30/70/30 33/77/33 48/80/63 43/71/58
f 50/89/66 54/90/67 48/91/67 47/92/66
f 54/90/67 55/93/68 43/94/68 48/91/67
f 55/93/68 56/95/69 44/96/69 43/94/68
f 56/95/69 57/97/70 38/98/70 44/96/69
f 57/97/70 58/99/71 39/100/71 38/98/70
f 58/99/71 59/101/72 49/102/72 39/100/71
f 59/101/72 60/103/73 45/104/73 49/102/72
f 60/103/73 61/105/74 46/106/74 45/104/73
f 61/107/74 62/108/75 40/109/75 46/110/74
f 62/108/75 63/111/76 41/112/76 40/109/75
f 63/111/76 64/113/77 36/114/77 41/112/76
f 64/113/77 65/115/78 37/116/78 36/114/77
f 65/115/78 53/117/79 34/118/79 37/116/78
f 53/117/80 52/119/81 35/120/81 34/118/80
f 52/119/81 51/121/82 42/122/82 35/120/81
f 51/121/82 50/89/66 47/92/66 42/122/82
s 0
f 37/135/116 34/135/116 35/135/116 42/135/116 47/135/116 48/135/116 43/135/116 44/135/116 38/135/116 39/135/116 49/135/116 45/135/116 46/135/116 40/135/116 41/135/116 36/135/116
usemtl missile_texture
f 68/123/83 69/124/83 71/125/83
f 70/126/84 67/127/84 66/128/84
f 68/123/85 71/125/85 73/125/85 72/123/85
f 75/129/86 74/130/86 67/131/86 70/126/86
f 75/129/87 70/126/87 71/132/87
f 70/133/88 66/128/88 72/128/88 73/133/88
f 71/132/89 69/134/89 74/130/89 75/129/89
f 71/132/87 70/126/87 73/133/87
f 78/123/90 79/124/90 81/125/90
f 80/126/91 77/127/91 76/128/91
f 78/123/92 81/125/92 83/125/92 82/123/92
f 85/129/93 84/130/93 77/131/93 80/126/93
f 85/129/94 80/126/94 81/132/94
f 80/133/95 76/128/95 82/128/95 83/133/95
f 81/132/96 79/134/96 84/130/96 85/129/96
f 81/132/94 80/126/94 83/133/94
f 88/123/91 89/124/91 91/125/91
f 90/126/90 87/127/90 86/128/90
f 88/123/97 91/125/97 93/125/97 92/123/97
f 95/129/98 94/130/98 87/131/98 90/126/98
f 95/129/94 90/126/94 91/132/94
f 90/133/99 86/128/99 92/128/99 93/133/99
f 91/132/100 89/134/100 94/130/100 95/129/100
f 91/132/94 90/126/94 93/133/94
f 98/123/101 99/124/101 101/125/101
f 100/126/102 97/127/102 96/128/102
f 98/123/103 101/125/103 103/125/103 102/123/103
f 105/129/104 104/130/104 97/131/104 100/126/104
f 105/129/105 100/126/105 101/132/105
f 100/133/106 96/128/106 102/128/106 103/133/106
f 101/132/107 99/134/107 104/130/107 105/129/107
f 101/132/105 100/126/105 103/133/105
f 108/123/102 109/124/102 111/125/102
f 110/126/101 107/127/101 106/128/101
f 108/123/108 111/125/108 113/125/108 112/123/108
f 115/129/109 114/130/109 107/131/109 110/126/109
f 115/129/105 110/126/105 111/132/105
f 110/133/110 106/128/110 112/128/110 113/133/110
f 111/132/111 109/134/111 114/130/111 115/129/111
f 111/132/105 110/126/105 113/133/105
f 118/123/84 119/124/84 121/125/84
f 120/126/83 117/127/83 116/128/83
f 118/123/112 121/125/112 123/125/112 122/123/112
f 125/129/113 124/130/113 117/131/113 120/126/113
f 125/129/87 120/126/87 121/132/87
f 120/133/114 116/128/114 122/128/114 123/133/114
f 121/132/115 119/134/115 124/130/115 125/129/115
f 121/132/87 120/126/87 123/133/87
