# shahedjarty_prop (reoriented Y-long, split from shahedjarty.obj)
mtllib shahedjarty_prop.mtl
v 0.000000 0.000000 -0.906720
v 0.000000 0.083660 -0.885346
v 0.089458 0.000000 -0.869665
v 0.074344 0.083660 -0.854551
v 0.126513 0.000000 -0.780207
v 0.105139 0.083660 -0.780207
v 0.089458 0.000000 -0.690749
v 0.074344 0.083660 -0.705863
v 0.000000 0.000000 -0.653694
v 0.000000 0.083660 -0.675068
v -0.089458 0.000000 -0.690749
v -0.074344 0.083660 -0.705863
v -0.126513 0.000000 -0.780207
v -0.105139 0.083660 -0.780207
v -0.089458 0.000000 -0.869665
v -0.074344 0.083660 -0.854551
v 0.646929 0.000000 -1.055948
v 0.646929 0.083660 -1.055948
v -0.646929 0.000000 -0.504466
v -0.646929 0.083660 -0.504466
v 0.638307 0.083660 -1.072846
v 0.534149 0.083660 -1.105696
v 0.534149 0.000000 -1.105696
v 0.638307 0.000000 -1.072846
v -0.638307 0.083660 -0.487568
v -0.534149 0.083660 -0.454718
v -0.534149 0.000000 -0.454718
v -0.638307 0.000000 -0.487568
v 0.089458 0.083660 -0.869665
v 0.000000 0.083660 -0.906720
v 0.126513 0.083660 -0.780207
v 0.089458 0.083660 -0.690749
v 0.000000 0.083660 -0.653694
v -0.089458 0.083660 -0.690749
v -0.126513 0.083660 -0.780207
v -0.089458 0.083660 -0.869665
v 0.074344 0.131256 -0.854551
v 0.000000 0.131256 -0.885346
v 0.105139 0.131256 -0.780207
v 0.074344 0.131256 -0.705863
v 0.000000 0.131256 -0.675068
v -0.074344 0.131256 -0.705863
v -0.105139 0.131256 -0.780207
v -0.074344 0.131256 -0.854551
vt 0.213750 0.871667
vt 0.213750 0.875000
vt 0.212500 0.875000
vt 0.212500 0.871667
vt 0.235000 0.880000
vt 0.237500 0.880000
vt 0.237500 0.896667
vt 0.235000 0.896667
vt 0.215000 0.871667
vt 0.215000 0.875000
vt 0.216250 0.871667
vt 0.216250 0.875000
vt 0.215000 0.876667
vt 0.216250 0.876667
vt 0.216250 0.878333
vt 0.215000 0.878333
vt 0.235000 0.870000
vt 0.235000 0.871667
vt 0.232500 0.875000
vt 0.231250 0.875000
vt 0.228750 0.871667
vt 0.228750 0.870000
vt 0.231250 0.866667
vt 0.232500 0.866667
vt 0.230000 0.880000
vt 0.232500 0.880000
vt 0.232500 0.896667
vt 0.230000 0.893333
vt 0.228750 0.896667
vt 0.230000 0.896667
vt 0.230000 0.898333
vt 0.228750 0.898333
vt 0.228750 0.880000
vt 0.228750 0.893333
vt 0.226857 0.872325
vt 0.226857 0.869519
vt 0.227373 0.869234
vt 0.227373 0.872611
vt 0.225368 0.867535
vt 0.225582 0.866846
vt 0.223264 0.867535
vt 0.223050 0.866846
vt 0.221775 0.869519
vt 0.221259 0.869234
vt 0.221775 0.872325
vt 0.221259 0.872611
vt 0.223264 0.874310
vt 0.223050 0.874999
vt 0.225368 0.874310
vt 0.225582 0.874999
vt 0.217500 0.876667
vt 0.218750 0.876667
vt 0.218750 0.878333
vt 0.217500 0.878333
vt 0.221250 0.876667
vt 0.222500 0.876667
vt 0.222500 0.878333
vt 0.221250 0.878333
vt 0.213750 0.876667
vt 0.213750 0.878333
vt 0.220000 0.876667
vt 0.220000 0.878333
vt 0.212500 0.876667
vt 0.212500 0.878333
o prop
usemtl Material
vn 0.000000 0.000000 -1.000000
vn -0.349077 0.000000 -0.937094
vn 0.000000 -1.000000 0.000000
vn 0.547984 0.000000 0.836489
vn 0.707107 0.000000 0.707107
vn 0.000000 0.000000 1.000000
vn 0.349077 0.000000 0.937094
vn -0.547984 0.000000 -0.836489
vn -0.707107 0.000000 -0.707107
vn 0.000000 1.000000 0.000000
vn 0.468188 0.000000 0.883629
vn -0.403587 0.000000 0.914941
vn -0.890750 0.000000 0.454494
vn 0.347169 0.000000 0.937802
vn -0.468188 0.000000 -0.883629
vn -0.347169 0.000000 -0.937802
vn 0.403587 0.000000 -0.914941
vn 0.890750 0.000000 -0.454494
vn 1.000000 0.000000 0.000000
vn 0.707107 0.000000 -0.707107
vn -1.000000 0.000000 0.000000
vn -0.707107 0.000000 0.707107
f 1/1/1 30/2/1 29/3/2 3/4/2
f 13/5/3 11/6/3 27/7/3
f 13/5/3 27/7/3 28/8/3
f 13/5/3 28/8/3 19/8/3
f 5/3/4 31/4/4 32/1/5 7/2/5
f 7/2/5 32/1/5 33/9/6 9/10/6
f 9/10/6 33/9/6 34/11/7 11/12/7
f 5/5/3 3/6/3 23/7/3
f 5/5/3 23/7/3 24/8/3
f 5/5/3 24/8/3 17/8/3
f 10/13/6 8/14/5 40/15/5 41/16/6
f 13/11/8 35/12/8 36/10/9 15/9/9
f 15/9/9 36/10/9 30/2/1 1/1/1
f 1/17/3 3/18/3 5/19/3
f 1/17/3 5/19/3 7/20/3
f 1/17/3 7/20/3 9/21/3
f 1/17/3 9/21/3 11/22/3
f 1/17/3 11/22/3 13/23/3
f 1/17/3 13/23/3 15/24/3
f 29/25/10 31/26/10 18/27/10
f 29/25/10 18/27/10 21/27/10
f 29/25/10 21/27/10 22/28/10
f 34/25/10 35/26/10 20/27/10
f 34/25/10 20/27/10 25/27/10
f 34/25/10 25/27/10 26/28/10
f 31/26/4 5/5/4 17/8/11 18/27/11
f 28/29/12 25/30/12 20/31/13 19/32/13
f 11/33/7 34/25/7 26/28/14 27/34/14
f 35/26/8 13/5/8 19/8/15 20/27/15
f 3/33/2 29/25/2 22/28/16 23/34/16
f 21/30/17 24/29/17 23/34/16 22/28/16
f 25/30/12 28/29/12 27/34/14 26/28/14
f 24/29/17 21/30/17 18/31/18 17/32/18
f 2/35/10 4/36/10 29/37/10 30/38/10
f 4/36/10 6/39/10 31/40/10 29/37/10
f 6/39/10 8/41/10 32/42/10 31/40/10
f 8/41/10 10/43/10 33/44/10 32/42/10
f 10/43/10 12/45/10 34/46/10 33/44/10
f 12/45/10 14/47/10 35/48/10 34/46/10
f 14/47/10 16/49/10 36/50/10 35/48/10
f 16/49/10 2/35/10 30/38/10 36/50/10
f 6/51/19 4/52/20 37/53/20 39/54/19
f 16/55/9 14/56/21 43/57/21 44/58/9
f 12/59/22 10/13/6 41/16/6 42/60/22
f 8/14/5 6/51/19 39/54/19 40/15/5
f 4/52/20 2/61/1 38/62/1 37/53/20
f 2/61/1 16/55/9 44/58/9 38/62/1
f 14/63/21 12/59/22 42/60/22 43/64/21
