{"asset":{"generator":"Khronos glTF Blender I/O v5.2.39","version":"2.0"},"scene":0,"scenes":[{"name":"Scene","nodes":[78]}],"nodes":[{"extras":{"surface":"lower"},"mesh":0,"name":"01_LOWER_fuselage_mesh"},{"children":[0],"extras":{"removable_module":true,"module_name":"01_LOWER_fuselage"},"name":"01_LOWER_fuselage"},{"extras":{"surface":"shell"},"mesh":1,"name":"02_UPPER_shell_mesh"},{"children":[2],"extras":{"removable_module":true,"module_name":"02_UPPER_shell"},"name":"02_UPPER_shell"},{"extras":{"surface":"battery"},"mesh":2,"name":"03_BATTERY_pack_mesh"},{"children":[4],"extras":{"removable_module":true,"module_name":"03_BATTERY_pack"},"name":"03_BATTERY_pack","translation":[0,0.0860000029206276,-0.04899999871850014]},{"extras":{"surface":"black"},"mesh":3,"name":"04_COOLING_inlets_mesh"},{"children":[6],"extras":{"removable_module":true,"module_name":"04_COOLING_inlets"},"name":"04_COOLING_inlets"},{"extras":{"surface":"shell"},"mesh":4,"name":"05_OBSTACLE_sensors_L_mesh"},{"children":[8],"extras":{"removable_module":true,"module_name":"05_OBSTACLE_sensors_L"},"name":"05_OBSTACLE_sensors_L"},{"extras":{"surface":"shell"},"mesh":5,"name":"05_OBSTACLE_sensors_R_mesh"},{"children":[10],"extras":{"removable_module":true,"module_name":"05_OBSTACLE_sensors_R"},"name":"05_OBSTACLE_sensors_R"},{"extras":{"surface":"lower"},"mesh":6,"name":"06_UNDERSIDE_sensors_mesh"},{"children":[12],"extras":{"removable_module":true,"module_name":"06_UNDERSIDE_sensors"},"name":"06_UNDERSIDE_sensors"},{"extras":{"surface":"lower"},"mesh":7,"name":"07_REAR_ports_mesh"},{"children":[14],"extras":{"removable_module":true,"module_name":"07_REAR_ports"},"name":"07_REAR_ports"},{"extras":{"surface":"subtle"},"mesh":8,"name":"08_BODY_markings_mesh"},{"children":[16],"extras":{"removable_module":true,"module_name":"08_BODY_markings"},"name":"08_BODY_markings"},{"extras":{"surface":"lower"},"mesh":9,"name":"10_ARM_FL_mesh"},{"extras":{"surface":"shell"},"mesh":10,"name":"11_LEG_FL_mesh"},{"children":[19],"extras":{"removable_module":true,"module_name":"11_LEG_FL"},"name":"11_LEG_FL","translation":[-0.08540000021457672,-0.013500001281499863,0.09600000083446503]},{"extras":{"surface":"motor"},"mesh":11,"name":"12_MOTOR_FL_mesh"},{"extras":{"surface":"prop"},"mesh":12,"name":"13_ROTOR_FL_mesh"},{"extras":{"surface":"prop","blade_center":[-0.1304,-0.157,0.078],"blade_tip_start":0.11},"mesh":13,"name":"14_BLADE_FL_1_mesh"},{"children":[23],"extras":{"removable_module":true,"module_name":"14_BLADE_FL_1"},"name":"14_BLADE_FL_1","translation":[-0.0019208788871765137,0,0.0062096863985061646]},{"extras":{"surface":"prop","blade_center":[-0.1304,-0.157,0.078],"blade_tip_start":0.11},"mesh":14,"name":"14_BLADE_FL_2_mesh"},{"children":[25],"extras":{"removable_module":true,"module_name":"14_BLADE_FL_2"},"name":"14_BLADE_FL_2","translation":[0.0019208788871765137,0,-0.0062096863985061646]},{"children":[22,24,26],"extras":{"removable_module":true,"spin_axis":"local Z","spin_direction":"CW","module_name":"13_ROTOR_FL"},"name":"13_ROTOR_FL","translation":[0,0.016499999910593033,0]},{"children":[21,27],"extras":{"removable_module":true,"module_name":"12_MOTOR_FL"},"name":"12_MOTOR_FL","translation":[-0.08540000021457672,-0.0025000013411045074,0.09600000083446503]},{"children":[18,20,28],"extras":{"removable_module":true,"fold_axis":"Z for front arms; local hinge approximation for rear arms","module_name":"10_ARM_FL"},"name":"10_ARM_FL","translation":[-0.04500000178813934,0.06400000303983688,0.061000000685453415]},{"extras":{"surface":"lower"},"mesh":15,"name":"10_ARM_FR_mesh"},{"extras":{"surface":"shell"},"mesh":16,"name":"11_LEG_FR_mesh"},{"children":[31],"extras":{"removable_module":true,"module_name":"11_LEG_FR"},"name":"11_LEG_FR","translation":[0.08540000021457672,-0.013500001281499863,0.09600000083446503]},{"extras":{"surface":"motor"},"mesh":17,"name":"12_MOTOR_FR_mesh"},{"extras":{"surface":"prop"},"mesh":18,"name":"13_ROTOR_FR_mesh"},{"extras":{"surface":"prop","blade_center":[0.1304,-0.157,0.078],"blade_tip_start":0.11},"mesh":19,"name":"14_BLADE_FR_1_mesh"},{"children":[35],"extras":{"removable_module":true,"module_name":"14_BLADE_FR_1"},"name":"14_BLADE_FR_1","translation":[0.0016081184148788452,0,0.00629793107509613]},{"extras":{"surface":"prop","blade_center":[0.1304,-0.157,0.078],"blade_tip_start":0.11},"mesh":20,"name":"14_BLADE_FR_2_mesh"},{"children":[37],"extras":{"removable_module":true,"module_name":"14_BLADE_FR_2"},"name":"14_BLADE_FR_2","translation":[-0.001608133316040039,0,-0.00629793107509613]},{"children":[34,36,38],"extras":{"removable_module":true,"spin_axis":"local Z","spin_direction":"CCW","module_name":"13_ROTOR_FR"},"name":"13_ROTOR_FR","translation":[0,0.016499999910593033,0]},{"children":[33,39],"extras":{"removable_module":true,"module_name":"12_MOTOR_FR"},"name":"12_MOTOR_FR","translation":[0.08540000021457672,-0.0025000013411045074,0.09600000083446503]},{"children":[30,32,40],"extras":{"removable_module":true,"fold_axis":"Z for front arms; local hinge approximation for rear arms","module_name":"10_ARM_FR"},"name":"10_ARM_FR","translation":[0.04500000178813934,0.06400000303983688,0.061000000685453415]},{"extras":{"surface":"lower"},"mesh":21,"name":"10_ARM_RL_mesh"},{"extras":{"surface":"shell"},"mesh":22,"name":"11_LEG_RL_mesh"},{"children":[43],"extras":{"removable_module":true,"module_name":"11_LEG_RL"},"name":"11_LEG_RL","translation":[-0.08840000629425049,0.009999997913837433,-0.10849998891353607]},{"extras":{"surface":"motor"},"mesh":23,"name":"12_MOTOR_RL_mesh"},{"extras":{"surface":"prop"},"mesh":24,"name":"13_ROTOR_RL_mesh"},{"extras":{"surface":"prop","blade_center":[-0.1304,0.1625,0.1065],"blade_tip_start":0.11},"mesh":25,"name":"14_BLADE_RL_1_mesh"},{"children":[47],"extras":{"removable_module":true,"module_name":"14_BLADE_RL_1"},"name":"14_BLADE_RL_1","translation":[0.0036701709032058716,0,0.005364671349525452]},{"extras":{"surface":"prop","blade_center":[-0.1304,0.1625,0.1065],"blade_tip_start":0.11},"mesh":26,"name":"14_BLADE_RL_2_mesh"},{"children":[49],"extras":{"removable_module":true,"module_name":"14_BLADE_RL_2"},"name":"14_BLADE_RL_2","translation":[-0.0036701709032058716,0,-0.0053646862506866455]},{"children":[46,48,50],"extras":{"removable_module":true,"spin_axis":"local Z","spin_direction":"CCW","module_name":"13_ROTOR_RL"},"name":"13_ROTOR_RL","translation":[0,0.016499996185302734,0]},{"children":[45,51],"extras":{"removable_module":true,"module_name":"12_MOTOR_RL"},"name":"12_MOTOR_RL","translation":[-0.08840000629425049,0.02199999988079071,-0.10849998891353607]},{"children":[42,44,52],"extras":{"removable_module":true,"fold_axis":"Z for front arms; local hinge approximation for rear arms","module_name":"10_ARM_RL"},"name":"10_ARM_RL","translation":[-0.041999999433755875,0.06800000369548798,-0.05400000140070915]},{"extras":{"surface":"lower"},"mesh":27,"name":"10_ARM_RR_mesh"},{"extras":{"surface":"shell"},"mesh":28,"name":"11_LEG_RR_mesh"},{"children":[55],"extras":{"removable_module":true,"module_name":"11_LEG_RR"},"name":"11_LEG_RR","translation":[0.08840000629425049,0.009999997913837433,-0.10849998891353607]},{"extras":{"surface":"motor"},"mesh":29,"name":"12_MOTOR_RR_mesh"},{"extras":{"surface":"prop"},"mesh":30,"name":"13_ROTOR_RR_mesh"},{"extras":{"surface":"prop","blade_center":[0.1304,0.1625,0.1065],"blade_tip_start":0.11},"mesh":31,"name":"14_BLADE_RR_1_mesh"},{"children":[59],"extras":{"removable_module":true,"module_name":"14_BLADE_RR_1"},"name":"14_BLADE_RR_1","translation":[-0.0033974647521972656,0,0.005541399121284485]},{"extras":{"surface":"prop","blade_center":[0.1304,0.1625,0.1065],"blade_tip_start":0.11},"mesh":32,"name":"14_BLADE_RR_2_mesh"},{"children":[61],"extras":{"removable_module":true,"module_name":"14_BLADE_RR_2"},"name":"14_BLADE_RR_2","translation":[0.0033974647521972656,0,-0.005541414022445679]},{"children":[58,60,62],"extras":{"removable_module":true,"spin_axis":"local Z","spin_direction":"CW","module_name":"13_ROTOR_RR"},"name":"13_ROTOR_RR","translation":[0,0.016499996185302734,0]},{"children":[57,63],"extras":{"removable_module":true,"module_name":"12_MOTOR_RR"},"name":"12_MOTOR_RR","translation":[0.08840000629425049,0.02199999988079071,-0.10849998891353607]},{"children":[54,56,64],"extras":{"removable_module":true,"fold_axis":"Z for front arms; local hinge approximation for rear arms","module_name":"10_ARM_RR"},"name":"10_ARM_RR","translation":[0.041999999433755875,0.06800000369548798,-0.05400000140070915]},{"extras":{"surface":"lower"},"mesh":33,"name":"15_REAR_body_foot_L_mesh"},{"children":[66],"extras":{"removable_module":true,"module_name":"15_REAR_body_foot_L"},"name":"15_REAR_body_foot_L"},{"extras":{"surface":"lower"},"mesh":34,"name":"15_REAR_body_foot_R_mesh"},{"children":[68],"extras":{"removable_module":true,"module_name":"15_REAR_body_foot_R"},"name":"15_REAR_body_foot_R"},{"extras":{"surface":"motor"},"mesh":35,"name":"20_GIMBAL_yaw_mesh"},{"extras":{"surface":"motor"},"mesh":36,"name":"21_GIMBAL_roll_mesh"},{"extras":{"surface":"camera"},"mesh":37,"name":"22_GIMBAL_pitch_mesh"},{"children":[72],"extras":{"removable_module":true,"rotation_axis":"X","module_name":"22_GIMBAL_pitch"},"name":"22_GIMBAL_pitch","translation":[0,-0.006999999284744263,0.010999999940395355]},{"extras":{"surface":"black"},"mesh":38,"name":"23_GIMBAL_flex_cable_mesh"},{"children":[74],"extras":{"removable_module":true,"module_name":"23_GIMBAL_flex_cable"},"name":"23_GIMBAL_flex_cable","translation":[0,0,-0.006999999284744263]},{"children":[71,73,75],"extras":{"removable_module":true,"rotation_axis":"Y","module_name":"21_GIMBAL_roll"},"name":"21_GIMBAL_roll","translation":[0,-0.01599999889731407,0.012000001966953278]},{"children":[70,76],"extras":{"removable_module":true,"rotation_axis":"Z","module_name":"20_GIMBAL_yaw"},"name":"20_GIMBAL_yaw","translation":[0,0.05999999865889549,0.0729999989271164]},{"children":[1,3,5,7,9,11,13,15,17,29,41,53,65,67,69,77],"extras":{"description":"DJI Mavic 3 Pro; triple camera; modular EMB4-inspired game asset","axes":"Blender: +Z up, -Y front, +X right. 1 unit = 1 meter."},"name":"MAVIC_3_PRO_ROOT","scale":[2.0,2.0,2.0]}],"materials":[{"doubleSided":true,"name":"Mavic 3 Pro | painted gray polymer and optics","pbrMetallicRoughness":{"baseColorTexture":{"index":0},"metallicRoughnessTexture":{"index":1}}}],"meshes":[{"name":"Lower_molded_shell","primitives":[{"attributes":{"POSITION":0,"NORMAL":1,"TEXCOORD_0":2},"indices":3,"material":0}]},{"name":"Upper_molded_shell","primitives":[{"attributes":{"POSITION":4,"NORMAL":5,"TEXCOORD_0":6},"indices":7,"material":0}]},{"name":"Battery_cartridge","primitives":[{"attributes":{"POSITION":8,"NORMAL":9,"TEXCOORD_0":10,"TEXCOORD_1":11},"indices":12,"material":0}]},{"name":"Cube.013","primitives":[{"attributes":{"POSITION":13,"NORMAL":14,"TEXCOORD_0":15,"TEXCOORD_1":16},"indices":17,"material":0}]},{"name":"Cylinder.002","primitives":[{"attributes":{"POSITION":18,"NORMAL":19,"TEXCOORD_0":20,"TEXCOORD_1":21},"indices":22,"material":0}]},{"name":"Cylinder.014","primitives":[{"attributes":{"POSITION":23,"NORMAL":24,"TEXCOORD_0":25,"TEXCOORD_1":26},"indices":27,"material":0}]},{"name":"Cube.044","primitives":[{"attributes":{"POSITION":28,"NORMAL":29,"TEXCOORD_0":30,"TEXCOORD_1":31},"indices":32,"material":0}]},{"name":"Cube.046","primitives":[{"attributes":{"POSITION":33,"NORMAL":34,"TEXCOORD_0":35,"TEXCOORD_1":36},"indices":37,"material":0}]},{"name":"Nose_brand","primitives":[{"attributes":{"POSITION":38,"NORMAL":39,"TEXCOORD_0":40,"TEXCOORD_1":41},"indices":42,"material":0}]},{"name":"Cylinder.031","primitives":[{"attributes":{"POSITION":43,"NORMAL":44,"TEXCOORD_0":45,"TEXCOORD_1":46},"indices":47,"material":0}]},{"name":"Front_landing_leg_FL","primitives":[{"attributes":{"POSITION":48,"NORMAL":49,"TEXCOORD_0":50,"TEXCOORD_1":51},"indices":52,"material":0}]},{"name":"Cylinder.038","primitives":[{"attributes":{"POSITION":53,"NORMAL":54,"TEXCOORD_0":55,"TEXCOORD_1":56},"indices":57,"material":0}]},{"name":"Cube.061","primitives":[{"attributes":{"POSITION":58,"NORMAL":59,"TEXCOORD_0":60,"TEXCOORD_1":61},"indices":62,"material":0}]},{"name":"Aerodynamic_blade_FL_0","primitives":[{"attributes":{"POSITION":63,"NORMAL":64,"TEXCOORD_0":65},"indices":66,"material":0}]},{"name":"Aerodynamic_blade_FL_1","primitives":[{"attributes":{"POSITION":67,"NORMAL":68,"TEXCOORD_0":69},"indices":70,"material":0}]},{"name":"Cylinder.061","primitives":[{"attributes":{"POSITION":71,"NORMAL":72,"TEXCOORD_0":73,"TEXCOORD_1":74},"indices":75,"material":0}]},{"name":"Front_landing_leg_FR","primitives":[{"attributes":{"POSITION":76,"NORMAL":77,"TEXCOORD_0":78,"TEXCOORD_1":79},"indices":80,"material":0}]},{"name":"Cylinder.068","primitives":[{"attributes":{"POSITION":81,"NORMAL":82,"TEXCOORD_0":83,"TEXCOORD_1":84},"indices":85,"material":0}]},{"name":"Cube.086","primitives":[{"attributes":{"POSITION":86,"NORMAL":87,"TEXCOORD_0":88,"TEXCOORD_1":89},"indices":90,"material":0}]},{"name":"Aerodynamic_blade_FR_0","primitives":[{"attributes":{"POSITION":91,"NORMAL":92,"TEXCOORD_0":93},"indices":94,"material":0}]},{"name":"Aerodynamic_blade_FR_1","primitives":[{"attributes":{"POSITION":95,"NORMAL":96,"TEXCOORD_0":97},"indices":98,"material":0}]},{"name":"Cylinder.046","primitives":[{"attributes":{"POSITION":99,"NORMAL":100,"TEXCOORD_0":101,"TEXCOORD_1":102},"indices":103,"material":0}]},{"name":"Rear_motor_spur_RL","primitives":[{"attributes":{"POSITION":104,"NORMAL":105,"TEXCOORD_0":106,"TEXCOORD_1":107},"indices":108,"material":0}]},{"name":"Cylinder.053","primitives":[{"attributes":{"POSITION":109,"NORMAL":110,"TEXCOORD_0":111,"TEXCOORD_1":112},"indices":113,"material":0}]},{"name":"Cube.073","primitives":[{"attributes":{"POSITION":114,"NORMAL":115,"TEXCOORD_0":116,"TEXCOORD_1":117},"indices":118,"material":0}]},{"name":"Aerodynamic_blade_RL_0","primitives":[{"attributes":{"POSITION":119,"NORMAL":120,"TEXCOORD_0":121},"indices":122,"material":0}]},{"name":"Aerodynamic_blade_RL_1","primitives":[{"attributes":{"POSITION":123,"NORMAL":124,"TEXCOORD_0":125},"indices":126,"material":0}]},{"name":"Cylinder.076","primitives":[{"attributes":{"POSITION":127,"NORMAL":128,"TEXCOORD_0":129,"TEXCOORD_1":130},"indices":131,"material":0}]},{"name":"Rear_motor_spur_RR","primitives":[{"attributes":{"POSITION":132,"NORMAL":133,"TEXCOORD_0":134,"TEXCOORD_1":135},"indices":108,"material":0}]},{"name":"Cylinder.083","primitives":[{"attributes":{"POSITION":136,"NORMAL":137,"TEXCOORD_0":138,"TEXCOORD_1":139},"indices":140,"material":0}]},{"name":"Cube.098","primitives":[{"attributes":{"POSITION":141,"NORMAL":142,"TEXCOORD_0":143,"TEXCOORD_1":144},"indices":145,"material":0}]},{"name":"Aerodynamic_blade_RR_0","primitives":[{"attributes":{"POSITION":146,"NORMAL":147,"TEXCOORD_0":148},"indices":149,"material":0}]},{"name":"Aerodynamic_blade_RR_1","primitives":[{"attributes":{"POSITION":150,"NORMAL":151,"TEXCOORD_0":152},"indices":153,"material":0}]},{"name":"Rear_body_foot","primitives":[{"attributes":{"POSITION":154,"NORMAL":155,"TEXCOORD_0":156,"TEXCOORD_1":157},"indices":158,"material":0}]},{"name":"Rear_body_foot.001","primitives":[{"attributes":{"POSITION":159,"NORMAL":160,"TEXCOORD_0":161,"TEXCOORD_1":162},"indices":163,"material":0}]},{"name":"Cylinder.091","primitives":[{"attributes":{"POSITION":164,"NORMAL":165,"TEXCOORD_0":166,"TEXCOORD_1":167},"indices":168,"material":0}]},{"name":"Cylinder.092","primitives":[{"attributes":{"POSITION":169,"NORMAL":170,"TEXCOORD_0":171,"TEXCOORD_1":172},"indices":173,"material":0}]},{"name":"Cube.102","primitives":[{"attributes":{"POSITION":174,"NORMAL":175,"TEXCOORD_0":176,"TEXCOORD_1":177},"indices":178,"material":0}]},{"name":"Gimbal_ribbon_cable","primitives":[{"attributes":{"POSITION":179,"NORMAL":180,"TEXCOORD_0":181},"indices":182,"material":0}]}],"textures":[{"sampler":0,"source":0},{"sampler":1,"source":1}],"images":[{"mimeType":"image/png","name":"Mavic3Pro_basecolor_2k","extras":{"resourceLocation":"wflib:textures/models/drones/mavic_basecolor.png"}},{"mimeType":"image/png","name":"Mavic3Pro_ORM_2k","extras":{"resourceLocation":"wflib:textures/models/drones/mavic_orm.png"}}],"accessors":[{"bufferView":0,"componentType":5126,"count":736,"max":[0.04899999871850014,0.07199999690055847,0.09799999743700027],"min":[-0.04899999871850014,0.039000000804662704,-0.10000000149011612],"type":"VEC3"},{"bufferView":1,"componentType":5126,"count":736,"type":"VEC3"},{"bufferView":2,"componentType":5126,"count":736,"type":"VEC2"},{"bufferView":3,"componentType":5123,"count":1116,"type":"SCALAR"},{"bufferView":4,"componentType":5126,"count":688,"max":[0.04899999871850014,0.10400000214576721,0.09799999743700027],"min":[-0.04899999871850014,0.07199999690055847,-0.10000000149011612],"type":"VEC3"},{"bufferView":5,"componentType":5126,"count":688,"type":"VEC3"},{"bufferView":6,"componentType":5126,"count":688,"type":"VEC2"},{"bufferView":7,"componentType":5123,"count":1044,"type":"SCALAR"},{"bufferView":8,"componentType":5126,"count":1597,"max":[0.04090000316500664,0.018999993801116943,0.04800000041723251],"min":[-0.04090000316500664,-0.017000004649162292,-0.052000004798173904],"type":"VEC3"},{"bufferView":9,"componentType":5126,"count":1597,"type":"VEC3"},{"bufferView":10,"componentType":5126,"count":1597,"type":"VEC2"},{"bufferView":11,"componentType":5126,"count":1597,"type":"VEC2"},{"bufferView":12,"componentType":5123,"count":2217,"type":"SCALAR"},{"bufferView":13,"componentType":5126,"count":860,"max":[0.04278656095266342,0.09860000014305115,0.06700000166893005],"min":[-0.04278656095266342,0.0838521420955658,-0.09349999576807022],"type":"VEC3"},{"bufferView":14,"componentType":5126,"count":860,"type":"VEC3"},{"bufferView":15,"componentType":5126,"count":860,"type":"VEC2"},{"bufferView":16,"componentType":5126,"count":860,"type":"VEC2"},{"bufferView":17,"componentType":5123,"count":1308,"type":"SCALAR"},{"bufferView":18,"componentType":5126,"count":2204,"max":[-0.023658212274312973,0.09750013798475266,0.09577155113220215],"min":[-0.04539000242948532,0.060100007802248,-0.09116508811712265],"type":"VEC3"},{"bufferView":19,"componentType":5126,"count":2204,"type":"VEC3"},{"bufferView":20,"componentType":5126,"count":2204,"type":"VEC2"},{"bufferView":21,"componentType":5126,"count":2204,"type":"VEC2"},{"bufferView":22,"componentType":5123,"count":3624,"type":"SCALAR"},{"bufferView":23,"componentType":5126,"count":2204,"max":[0.04539000242948532,0.09750013798475266,0.09577155113220215],"min":[0.023658212274312973,0.060100007802248,-0.09116508811712265],"type":"VEC3"},{"bufferView":24,"componentType":5126,"count":2204,"type":"VEC3"},{"bufferView":25,"componentType":5126,"count":2204,"type":"VEC2"},{"bufferView":26,"componentType":5126,"count":2204,"type":"VEC2"},{"bufferView":27,"componentType":5123,"count":3624,"type":"SCALAR"},{"bufferView":28,"componentType":5126,"count":644,"max":[0.024000000208616257,0.03999999910593033,0.026499999687075615],"min":[-0.024000000208616257,0.0361500009894371,-0.017500000074505806],"type":"VEC3"},{"bufferView":29,"componentType":5126,"count":644,"type":"VEC3"},{"bufferView":30,"componentType":5126,"count":644,"type":"VEC2"},{"bufferView":31,"componentType":5126,"count":644,"type":"VEC2"},{"bufferView":32,"componentType":5123,"count":1164,"type":"SCALAR"},{"bufferView":33,"componentType":5126,"count":402,"max":[0.01549999974668026,0.07766470313072205,-0.10000000149011612],"min":[-0.01549999974668026,0.06699999421834946,-0.10270000249147415],"type":"VEC3"},{"bufferView":34,"componentType":5126,"count":402,"type":"VEC3"},{"bufferView":35,"componentType":5126,"count":402,"type":"VEC2"},{"bufferView":36,"componentType":5126,"count":402,"type":"VEC2"},{"bufferView":37,"componentType":5123,"count":510,"type":"SCALAR"},{"bufferView":38,"componentType":5126,"count":66,"max":[0.0056160008534789085,0.10459999740123749,0.026359999552369118],"min":[-0.005760000552982092,0.10459999740123749,0.015415999107062817],"type":"VEC3"},{"bufferView":39,"componentType":5126,"count":66,"type":"VEC3"},{"bufferView":40,"componentType":5126,"count":66,"type":"VEC2"},{"bufferView":41,"componentType":5126,"count":66,"type":"VEC2"},{"bufferView":42,"componentType":5123,"count":66,"type":"SCALAR"},{"bufferView":43,"componentType":5126,"count":971,"max":[0.008500000461935997,0.010489999316632748,0.10989999771118164],"min":[-0.09930000454187393,-0.01979999989271164,-0.008500000461935997],"type":"VEC3"},{"bufferView":44,"componentType":5126,"count":971,"type":"VEC3"},{"bufferView":45,"componentType":5126,"count":971,"type":"VEC2"},{"bufferView":46,"componentType":5126,"count":971,"type":"VEC2"},{"bufferView":47,"componentType":5123,"count":1503,"type":"SCALAR"},{"bufferView":48,"componentType":5126,"count":304,"max":[0.004964381456375122,0.0020000003278255463,0.004999995231628418],"min":[-0.011000007390975952,-0.05254000425338745,-0.0325000062584877],"type":"VEC3"},{"bufferView":49,"componentType":5126,"count":304,"type":"VEC3"},{"bufferView":50,"componentType":5126,"count":304,"type":"VEC2"},{"bufferView":51,"componentType":5126,"count":304,"type":"VEC2"},{"bufferView":52,"componentType":5123,"count":444,"type":"SCALAR"},{"bufferView":53,"componentType":5126,"count":1344,"max":[0.012350000441074371,0.017499998211860657,0.012350000441074371],"min":[-0.012350000441074371,-0.007249999791383743,-0.012350000441074371],"type":"VEC3"},{"bufferView":54,"componentType":5126,"count":1344,"type":"VEC3"},{"bufferView":55,"componentType":5126,"count":1344,"type":"VEC2"},{"bufferView":56,"componentType":5126,"count":1344,"type":"VEC2"},{"bufferView":57,"componentType":5123,"count":2148,"type":"SCALAR"},{"bufferView":58,"componentType":5126,"count":336,"max":[0.007463498506695032,0.0019899969920516014,0.011587349697947502],"min":[-0.007463498506695032,-0.0010999999940395355,-0.011587349697947502],"type":"VEC3"},{"bufferView":59,"componentType":5126,"count":336,"type":"VEC3"},{"bufferView":60,"componentType":5126,"count":336,"type":"VEC2"},{"bufferView":61,"componentType":5126,"count":336,"type":"VEC2"},{"bufferView":62,"componentType":5123,"count":552,"type":"SCALAR"},{"bufferView":63,"componentType":5126,"count":104,"max":[0.003309294581413269,0.0016999989748001099,0.10438258945941925],"min":[-0.0437789112329483,-0.0006000027060508728,-0.0023195743560791016],"type":"VEC3"},{"bufferView":64,"componentType":5126,"count":104,"type":"VEC3"},{"bufferView":65,"componentType":5126,"count":104,"type":"VEC2"},{"bufferView":66,"componentType":5123,"count":156,"type":"SCALAR"},{"bufferView":67,"componentType":5126,"count":104,"max":[0.0437789112329483,0.0016999989748001099,0.0023195594549179077],"min":[-0.003309279680252075,-0.0006000027060508728,-0.10438260436058044],"type":"VEC3"},{"bufferView":68,"componentType":5126,"count":104,"type":"VEC3"},{"bufferView":69,"componentType":5126,"count":104,"type":"VEC2"},{"bufferView":70,"componentType":5123,"count":156,"type":"SCALAR"},{"bufferView":71,"componentType":5126,"count":971,"max":[0.09929998964071274,0.010489999316632748,0.10990000516176224],"min":[-0.008500000461935997,-0.01979999989271164,-0.008500000461935997],"type":"VEC3"},{"bufferView":72,"componentType":5126,"count":971,"type":"VEC3"},{"bufferView":73,"componentType":5126,"count":971,"type":"VEC2"},{"bufferView":74,"componentType":5126,"count":971,"type":"VEC2"},{"bufferView":75,"componentType":5123,"count":1503,"type":"SCALAR"},{"bufferView":76,"componentType":5126,"count":304,"max":[0.011000007390975952,0.0020000003278255463,0.004999995231628418],"min":[-0.004964381456375122,-0.05254000425338745,-0.0325000062584877],"type":"VEC3"},{"bufferView":77,"componentType":5126,"count":304,"type":"VEC3"},{"bufferView":78,"componentType":5126,"count":304,"type":"VEC2"},{"bufferView":79,"componentType":5126,"count":304,"type":"VEC2"},{"bufferView":80,"componentType":5123,"count":444,"type":"SCALAR"},{"bufferView":81,"componentType":5126,"count":1344,"max":[0.012350000441074371,0.017499998211860657,0.012350000441074371],"min":[-0.012350000441074371,-0.007249999791383743,-0.012350000441074371],"type":"VEC3"},{"bufferView":82,"componentType":5126,"count":1344,"type":"VEC3"},{"bufferView":83,"componentType":5126,"count":1344,"type":"VEC2"},{"bufferView":84,"componentType":5126,"count":1344,"type":"VEC2"},{"bufferView":85,"componentType":5123,"count":2148,"type":"SCALAR"},{"bufferView":86,"componentType":5126,"count":336,"max":[0.007051633205264807,0.0019899969920516014,0.011561061255633831],"min":[-0.007051633205264807,-0.0010999999940395355,-0.011561061255633831],"type":"VEC3"},{"bufferView":87,"componentType":5126,"count":336,"type":"VEC3"},{"bufferView":88,"componentType":5126,"count":336,"type":"VEC2"},{"bufferView":89,"componentType":5126,"count":336,"type":"VEC2"},{"bufferView":90,"componentType":5123,"count":552,"type":"SCALAR"},{"bufferView":91,"componentType":5126,"count":104,"max":[0.023462489247322083,0.0016999989748001099,0.1092914491891861],"min":[-0.008224882185459137,-0.0006000027060508728,-0.002195581793785095],"type":"VEC3"},{"bufferView":92,"componentType":5126,"count":104,"type":"VEC3"},{"bufferView":93,"componentType":5126,"count":104,"type":"VEC2"},{"bufferView":94,"componentType":5123,"count":156,"type":"SCALAR"},{"bufferView":95,"componentType":5126,"count":104,"max":[0.008224889636039734,0.0016999989748001099,0.002195581793785095],"min":[-0.023462481796741486,-0.0006000027060508728,-0.10929146409034729],"type":"VEC3"},{"bufferView":96,"componentType":5126,"count":104,"type":"VEC3"},{"bufferView":97,"componentType":5126,"count":104,"type":"VEC2"},{"bufferView":98,"componentType":5123,"count":156,"type":"SCALAR"},{"bufferView":99,"componentType":5126,"count":704,"max":[0.008500000461935997,0.016300000250339508,0.008500000461935997],"min":[-0.1022999957203865,-0.008999999612569809,-0.12239999324083328],"type":"VEC3"},{"bufferView":100,"componentType":5126,"count":704,"type":"VEC3"},{"bufferView":101,"componentType":5126,"count":704,"type":"VEC2"},{"bufferView":102,"componentType":5126,"count":704,"type":"VEC2"},{"bufferView":103,"componentType":5123,"count":1236,"type":"SCALAR"},{"bufferView":104,"componentType":5126,"count":208,"max":[0.003999993205070496,0.0015000030398368835,0],"min":[-0.003999993205070496,-0.021779999136924744,-0.013000011444091797],"type":"VEC3"},{"bufferView":105,"componentType":5126,"count":208,"type":"VEC3"},{"bufferView":106,"componentType":5126,"count":208,"type":"VEC2"},{"bufferView":107,"componentType":5126,"count":208,"type":"VEC2"},{"bufferView":108,"componentType":5123,"count":312,"type":"SCALAR"},{"bufferView":109,"componentType":5126,"count":1344,"max":[0.012350000441074371,0.01749999448657036,0.012350000441074371],"min":[-0.012350000441074371,-0.007249999791383743,-0.012350000441074371],"type":"VEC3"},{"bufferView":110,"componentType":5126,"count":1344,"type":"VEC3"},{"bufferView":111,"componentType":5126,"count":1344,"type":"VEC2"},{"bufferView":112,"componentType":5126,"count":1344,"type":"VEC2"},{"bufferView":113,"componentType":5123,"count":2148,"type":"SCALAR"},{"bufferView":114,"componentType":5126,"count":336,"max":[0.009510304778814316,0.0019899969920516014,0.011139636859297752],"min":[-0.009510304778814316,-0.0010999999940395355,-0.011139636859297752],"type":"VEC3"},{"bufferView":115,"componentType":5126,"count":336,"type":"VEC3"},{"bufferView":116,"componentType":5126,"count":336,"type":"VEC2"},{"bufferView":117,"componentType":5126,"count":336,"type":"VEC2"},{"bufferView":118,"componentType":5123,"count":552,"type":"SCALAR"},{"bufferView":119,"componentType":5126,"count":104,"max":[0.059091657400131226,0.0016999989748001099,0.09628137201070786],"min":[-0.0033229589462280273,-0.0006000027060508728,-0.002931922674179077],"type":"VEC3"},{"bufferView":120,"componentType":5126,"count":104,"type":"VEC3"},{"bufferView":121,"componentType":5126,"count":104,"type":"VEC2"},{"bufferView":122,"componentType":5123,"count":156,"type":"SCALAR"},{"bufferView":123,"componentType":5126,"count":104,"max":[0.003322973847389221,0.0016999989748001099,0.002931922674179077],"min":[-0.059091657400131226,-0.0006000027060508728,-0.09628137946128845],"type":"VEC3"},{"bufferView":124,"componentType":5126,"count":104,"type":"VEC3"},{"bufferView":125,"componentType":5126,"count":104,"type":"VEC2"},{"bufferView":126,"componentType":5123,"count":156,"type":"SCALAR"},{"bufferView":127,"componentType":5126,"count":704,"max":[0.1023000031709671,0.016300000250339508,0.008500000461935997],"min":[-0.008500000461935997,-0.008999999612569809,-0.12239998579025269],"type":"VEC3"},{"bufferView":128,"componentType":5126,"count":704,"type":"VEC3"},{"bufferView":129,"componentType":5126,"count":704,"type":"VEC2"},{"bufferView":130,"componentType":5126,"count":704,"type":"VEC2"},{"bufferView":131,"componentType":5123,"count":1236,"type":"SCALAR"},{"bufferView":132,"componentType":5126,"count":208,"max":[0.003999993205070496,0.0015000030398368835,0],"min":[-0.003999993205070496,-0.021779999136924744,-0.013000011444091797],"type":"VEC3"},{"bufferView":133,"componentType":5126,"count":208,"type":"VEC3"},{"bufferView":134,"componentType":5126,"count":208,"type":"VEC2"},{"bufferView":135,"componentType":5126,"count":208,"type":"VEC2"},{"bufferView":136,"componentType":5126,"count":1344,"max":[0.012350000441074371,0.01749999448657036,0.012350000441074371],"min":[-0.012350000441074371,-0.007249999791383743,-0.012350000441074371],"type":"VEC3"},{"bufferView":137,"componentType":5126,"count":1344,"type":"VEC3"},{"bufferView":138,"componentType":5126,"count":1344,"type":"VEC2"},{"bufferView":139,"componentType":5126,"count":1344,"type":"VEC2"},{"bufferView":140,"componentType":5123,"count":2148,"type":"SCALAR"},{"bufferView":141,"componentType":5126,"count":336,"max":[0.009224094450473785,0.0019899969920516014,0.011285577900707722],"min":[-0.009224094450473785,-0.0010999999940395355,-0.011285577900707722],"type":"VEC3"},{"bufferView":142,"componentType":5126,"count":336,"type":"VEC3"},{"bufferView":143,"componentType":5126,"count":336,"type":"VEC2"},{"bufferView":144,"componentType":5126,"count":336,"type":"VEC2"},{"bufferView":145,"componentType":5123,"count":552,"type":"SCALAR"},{"bufferView":146,"componentType":5126,"count":104,"max":[0.0033416002988815308,0.0016999989748001099,0.09211321175098419],"min":[-0.0661299005150795,-0.0006000027060508728,-0.002846837043762207],"type":"VEC3"},{"bufferView":147,"componentType":5126,"count":104,"type":"VEC3"},{"bufferView":148,"componentType":5126,"count":104,"type":"VEC2"},{"bufferView":149,"componentType":5123,"count":156,"type":"SCALAR"},{"bufferView":150,"componentType":5126,"count":104,"max":[0.0661298930644989,0.0016999989748001099,0.002846851944923401],"min":[-0.0033416002988815308,-0.0006000027060508728,-0.09211322665214539],"type":"VEC3"},{"bufferView":151,"componentType":5126,"count":104,"type":"VEC3"},{"bufferView":152,"componentType":5126,"count":104,"type":"VEC2"},{"bufferView":153,"componentType":5123,"count":156,"type":"SCALAR"},{"bufferView":154,"componentType":5126,"count":208,"max":[-0.02182185649871826,0.061500001698732376,-0.07332874834537506],"min":[-0.035499997437000275,0.03887999802827835,-0.09149999916553497],"type":"VEC3"},{"bufferView":155,"componentType":5126,"count":208,"type":"VEC3"},{"bufferView":156,"componentType":5126,"count":208,"type":"VEC2"},{"bufferView":157,"componentType":5126,"count":208,"type":"VEC2"},{"bufferView":158,"componentType":5123,"count":312,"type":"SCALAR"},{"bufferView":159,"componentType":5126,"count":208,"max":[0.035499997437000275,0.061500001698732376,-0.07332874834537506],"min":[0.02182185649871826,0.03887999802827835,-0.09149999916553497],"type":"VEC3"},{"bufferView":160,"componentType":5126,"count":208,"type":"VEC3"},{"bufferView":161,"componentType":5126,"count":208,"type":"VEC2"},{"bufferView":162,"componentType":5126,"count":208,"type":"VEC2"},{"bufferView":163,"componentType":5123,"count":312,"type":"SCALAR"},{"bufferView":164,"componentType":5126,"count":216,"max":[0.01549999974668026,0.0044999998062849045,0.024000002071261406],"min":[-0.01549999974668026,-0.006999999284744263,-0.00800000037997961],"type":"VEC3"},{"bufferView":165,"componentType":5126,"count":216,"type":"VEC3"},{"bufferView":166,"componentType":5126,"count":216,"type":"VEC2"},{"bufferView":167,"componentType":5126,"count":216,"type":"VEC2"},{"bufferView":168,"componentType":5123,"count":360,"type":"SCALAR"},{"bufferView":169,"componentType":5126,"count":1224,"max":[0.027500003576278687,0.012499997392296791,0.021000003442168236],"min":[-0.027500003576278687,-0.017000000923871994,-0.012000001966953278],"type":"VEC3"},{"bufferView":170,"componentType":5126,"count":1224,"type":"VEC3"},{"bufferView":171,"componentType":5126,"count":1224,"type":"VEC2"},{"bufferView":172,"componentType":5126,"count":1224,"type":"VEC2"},{"bufferView":173,"componentType":5123,"count":2004,"type":"SCALAR"},{"bufferView":174,"componentType":5126,"count":4548,"max":[0.020500000566244125,0.02500000037252903,0.026160001754760742],"min":[-0.020500000566244125,-0.021500002592802048,-0.017000000923871994],"type":"VEC3"},{"bufferView":175,"componentType":5126,"count":4548,"type":"VEC3"},{"bufferView":176,"componentType":5126,"count":4548,"type":"VEC2"},{"bufferView":177,"componentType":5126,"count":4548,"type":"VEC2"},{"bufferView":178,"componentType":5123,"count":7188,"type":"SCALAR"},{"bufferView":179,"componentType":5126,"count":224,"max":[0.018400000408291817,0.006650000810623169,0.004999995231628418],"min":[0.012880000285804272,-0.014545999467372894,-0.002705603837966919],"type":"VEC3"},{"bufferView":180,"componentType":5126,"count":224,"type":"VEC3"},{"bufferView":181,"componentType":5126,"count":224,"type":"VEC2"},{"bufferView":182,"componentType":5123,"count":360,"type":"SCALAR"}],"bufferViews":[{"buffer":0,"byteLength":8832,"byteOffset":0,"target":34962},{"buffer":0,"byteLength":8832,"byteOffset":8832,"target":34962},{"buffer":0,"byteLength":5888,"byteOffset":17664,"target":34962},{"buffer":0,"byteLength":2232,"byteOffset":23552,"target":34963},{"buffer":0,"byteLength":8256,"byteOffset":25784,"target":34962},{"buffer":0,"byteLength":8256,"byteOffset":34040,"target":34962},{"buffer":0,"byteLength":5504,"byteOffset":42296,"target":34962},{"buffer":0,"byteLength":2088,"byteOffset":47800,"target":34963},{"buffer":0,"byteLength":19164,"byteOffset":49888,"target":34962},{"buffer":0,"byteLength":19164,"byteOffset":69052,"target":34962},{"buffer":0,"byteLength":12776,"byteOffset":88216,"target":34962},{"buffer":0,"byteLength":12776,"byteOffset":100992,"target":34962},{"buffer":0,"byteLength":4434,"byteOffset":113768,"target":34963},{"buffer":0,"byteLength":10320,"byteOffset":118204,"target":34962},{"buffer":0,"byteLength":10320,"byteOffset":128524,"target":34962},{"buffer":0,"byteLength":6880,"byteOffset":138844,"target":34962},{"buffer":0,"byteLength":6880,"byteOffset":145724,"target":34962},{"buffer":0,"byteLength":2616,"byteOffset":152604,"target":34963},{"buffer":0,"byteLength":26448,"byteOffset":155220,"target":34962},{"buffer":0,"byteLength":26448,"byteOffset":181668,"target":34962},{"buffer":0,"byteLength":17632,"byteOffset":208116,"target":34962},{"buffer":0,"byteLength":17632,"byteOffset":225748,"target":34962},{"buffer":0,"byteLength":7248,"byteOffset":243380,"target":34963},{"buffer":0,"byteLength":26448,"byteOffset":250628,"target":34962},{"buffer":0,"byteLength":26448,"byteOffset":277076,"target":34962},{"buffer":0,"byteLength":17632,"byteOffset":303524,"target":34962},{"buffer":0,"byteLength":17632,"byteOffset":321156,"target":34962},{"buffer":0,"byteLength":7248,"byteOffset":338788,"target":34963},{"buffer":0,"byteLength":7728,"byteOffset":346036,"target":34962},{"buffer":0,"byteLength":7728,"byteOffset":353764,"target":34962},{"buffer":0,"byteLength":5152,"byteOffset":361492,"target":34962},{"buffer":0,"byteLength":5152,"byteOffset":366644,"target":34962},{"buffer":0,"byteLength":2328,"byteOffset":371796,"target":34963},{"buffer":0,"byteLength":4824,"byteOffset":374124,"target":34962},{"buffer":0,"byteLength":4824,"byteOffset":378948,"target":34962},{"buffer":0,"byteLength":3216,"byteOffset":383772,"target":34962},{"buffer":0,"byteLength":3216,"byteOffset":386988,"target":34962},{"buffer":0,"byteLength":1020,"byteOffset":390204,"target":34963},{"buffer":0,"byteLength":792,"byteOffset":391224,"target":34962},{"buffer":0,"byteLength":792,"byteOffset":392016,"target":34962},{"buffer":0,"byteLength":528,"byteOffset":392808,"target":34962},{"buffer":0,"byteLength":528,"byteOffset":393336,"target":34962},{"buffer":0,"byteLength":132,"byteOffset":393864,"target":34963},{"buffer":0,"byteLength":11652,"byteOffset":393996,"target":34962},{"buffer":0,"byteLength":11652,"byteOffset":405648,"target":34962},{"buffer":0,"byteLength":7768,"byteOffset":417300,"target":34962},{"buffer":0,"byteLength":7768,"byteOffset":425068,"target":34962},{"buffer":0,"byteLength":3006,"byteOffset":432836,"target":34963},{"buffer":0,"byteLength":3648,"byteOffset":435844,"target":34962},{"buffer":0,"byteLength":3648,"byteOffset":439492,"target":34962},{"buffer":0,"byteLength":2432,"byteOffset":443140,"target":34962},{"buffer":0,"byteLength":2432,"byteOffset":445572,"target":34962},{"buffer":0,"byteLength":888,"byteOffset":448004,"target":34963},{"buffer":0,"byteLength":16128,"byteOffset":448892,"target":34962},{"buffer":0,"byteLength":16128,"byteOffset":465020,"target":34962},{"buffer":0,"byteLength":10752,"byteOffset":481148,"target":34962},{"buffer":0,"byteLength":10752,"byteOffset":491900,"target":34962},{"buffer":0,"byteLength":4296,"byteOffset":502652,"target":34963},{"buffer":0,"byteLength":4032,"byteOffset":506948,"target":34962},{"buffer":0,"byteLength":4032,"byteOffset":510980,"target":34962},{"buffer":0,"byteLength":2688,"byteOffset":515012,"target":34962},{"buffer":0,"byteLength":2688,"byteOffset":517700,"target":34962},{"buffer":0,"byteLength":1104,"byteOffset":520388,"target":34963},{"buffer":0,"byteLength":1248,"byteOffset":521492,"target":34962},{"buffer":0,"byteLength":1248,"byteOffset":522740,"target":34962},{"buffer":0,"byteLength":832,"byteOffset":523988,"target":34962},{"buffer":0,"byteLength":312,"byteOffset":524820,"target":34963},{"buffer":0,"byteLength":1248,"byteOffset":525132,"target":34962},{"buffer":0,"byteLength":1248,"byteOffset":526380,"target":34962},{"buffer":0,"byteLength":832,"byteOffset":527628,"target":34962},{"buffer":0,"byteLength":312,"byteOffset":528460,"target":34963},{"buffer":0,"byteLength":11652,"byteOffset":528772,"target":34962},{"buffer":0,"byteLength":11652,"byteOffset":540424,"target":34962},{"buffer":0,"byteLength":7768,"byteOffset":552076,"target":34962},{"buffer":0,"byteLength":7768,"byteOffset":559844,"target":34962},{"buffer":0,"byteLength":3006,"byteOffset":567612,"target":34963},{"buffer":0,"byteLength":3648,"byteOffset":570620,"target":34962},{"buffer":0,"byteLength":3648,"byteOffset":574268,"target":34962},{"buffer":0,"byteLength":2432,"byteOffset":577916,"target":34962},{"buffer":0,"byteLength":2432,"byteOffset":580348,"target":34962},{"buffer":0,"byteLength":888,"byteOffset":582780,"target":34963},{"buffer":0,"byteLength":16128,"byteOffset":583668,"target":34962},{"buffer":0,"byteLength":16128,"byteOffset":599796,"target":34962},{"buffer":0,"byteLength":10752,"byteOffset":615924,"target":34962},{"buffer":0,"byteLength":10752,"byteOffset":626676,"target":34962},{"buffer":0,"byteLength":4296,"byteOffset":637428,"target":34963},{"buffer":0,"byteLength":4032,"byteOffset":641724,"target":34962},{"buffer":0,"byteLength":4032,"byteOffset":645756,"target":34962},{"buffer":0,"byteLength":2688,"byteOffset":649788,"target":34962},{"buffer":0,"byteLength":2688,"byteOffset":652476,"target":34962},{"buffer":0,"byteLength":1104,"byteOffset":655164,"target":34963},{"buffer":0,"byteLength":1248,"byteOffset":656268,"target":34962},{"buffer":0,"byteLength":1248,"byteOffset":657516,"target":34962},{"buffer":0,"byteLength":832,"byteOffset":658764,"target":34962},{"buffer":0,"byteLength":312,"byteOffset":659596,"target":34963},{"buffer":0,"byteLength":1248,"byteOffset":659908,"target":34962},{"buffer":0,"byteLength":1248,"byteOffset":661156,"target":34962},{"buffer":0,"byteLength":832,"byteOffset":662404,"target":34962},{"buffer":0,"byteLength":312,"byteOffset":663236,"target":34963},{"buffer":0,"byteLength":8448,"byteOffset":663548,"target":34962},{"buffer":0,"byteLength":8448,"byteOffset":671996,"target":34962},{"buffer":0,"byteLength":5632,"byteOffset":680444,"target":34962},{"buffer":0,"byteLength":5632,"byteOffset":686076,"target":34962},{"buffer":0,"byteLength":2472,"byteOffset":691708,"target":34963},{"buffer":0,"byteLength":2496,"byteOffset":694180,"target":34962},{"buffer":0,"byteLength":2496,"byteOffset":696676,"target":34962},{"buffer":0,"byteLength":1664,"byteOffset":699172,"target":34962},{"buffer":0,"byteLength":1664,"byteOffset":700836,"target":34962},{"buffer":0,"byteLength":624,"byteOffset":702500,"target":34963},{"buffer":0,"byteLength":16128,"byteOffset":703124,"target":34962},{"buffer":0,"byteLength":16128,"byteOffset":719252,"target":34962},{"buffer":0,"byteLength":10752,"byteOffset":735380,"target":34962},{"buffer":0,"byteLength":10752,"byteOffset":746132,"target":34962},{"buffer":0,"byteLength":4296,"byteOffset":756884,"target":34963},{"buffer":0,"byteLength":4032,"byteOffset":761180,"target":34962},{"buffer":0,"byteLength":4032,"byteOffset":765212,"target":34962},{"buffer":0,"byteLength":2688,"byteOffset":769244,"target":34962},{"buffer":0,"byteLength":2688,"byteOffset":771932,"target":34962},{"buffer":0,"byteLength":1104,"byteOffset":774620,"target":34963},{"buffer":0,"byteLength":1248,"byteOffset":775724,"target":34962},{"buffer":0,"byteLength":1248,"byteOffset":776972,"target":34962},{"buffer":0,"byteLength":832,"byteOffset":778220,"target":34962},{"buffer":0,"byteLength":312,"byteOffset":779052,"target":34963},{"buffer":0,"byteLength":1248,"byteOffset":779364,"target":34962},{"buffer":0,"byteLength":1248,"byteOffset":780612,"target":34962},{"buffer":0,"byteLength":832,"byteOffset":781860,"target":34962},{"buffer":0,"byteLength":312,"byteOffset":782692,"target":34963},{"buffer":0,"byteLength":8448,"byteOffset":783004,"target":34962},{"buffer":0,"byteLength":8448,"byteOffset":791452,"target":34962},{"buffer":0,"byteLength":5632,"byteOffset":799900,"target":34962},{"buffer":0,"byteLength":5632,"byteOffset":805532,"target":34962},{"buffer":0,"byteLength":2472,"byteOffset":811164,"target":34963},{"buffer":0,"byteLength":2496,"byteOffset":813636,"target":34962},{"buffer":0,"byteLength":2496,"byteOffset":816132,"target":34962},{"buffer":0,"byteLength":1664,"byteOffset":818628,"target":34962},{"buffer":0,"byteLength":1664,"byteOffset":820292,"target":34962},{"buffer":0,"byteLength":16128,"byteOffset":821956,"target":34962},{"buffer":0,"byteLength":16128,"byteOffset":838084,"target":34962},{"buffer":0,"byteLength":10752,"byteOffset":854212,"target":34962},{"buffer":0,"byteLength":10752,"byteOffset":864964,"target":34962},{"buffer":0,"byteLength":4296,"byteOffset":875716,"target":34963},{"buffer":0,"byteLength":4032,"byteOffset":880012,"target":34962},{"buffer":0,"byteLength":4032,"byteOffset":884044,"target":34962},{"buffer":0,"byteLength":2688,"byteOffset":888076,"target":34962},{"buffer":0,"byteLength":2688,"byteOffset":890764,"target":34962},{"buffer":0,"byteLength":1104,"byteOffset":893452,"target":34963},{"buffer":0,"byteLength":1248,"byteOffset":894556,"target":34962},{"buffer":0,"byteLength":1248,"byteOffset":895804,"target":34962},{"buffer":0,"byteLength":832,"byteOffset":897052,"target":34962},{"buffer":0,"byteLength":312,"byteOffset":897884,"target":34963},{"buffer":0,"byteLength":1248,"byteOffset":898196,"target":34962},{"buffer":0,"byteLength":1248,"byteOffset":899444,"target":34962},{"buffer":0,"byteLength":832,"byteOffset":900692,"target":34962},{"buffer":0,"byteLength":312,"byteOffset":901524,"target":34963},{"buffer":0,"byteLength":2496,"byteOffset":901836,"target":34962},{"buffer":0,"byteLength":2496,"byteOffset":904332,"target":34962},{"buffer":0,"byteLength":1664,"byteOffset":906828,"target":34962},{"buffer":0,"byteLength":1664,"byteOffset":908492,"target":34962},{"buffer":0,"byteLength":624,"byteOffset":910156,"target":34963},{"buffer":0,"byteLength":2496,"byteOffset":910780,"target":34962},{"buffer":0,"byteLength":2496,"byteOffset":913276,"target":34962},{"buffer":0,"byteLength":1664,"byteOffset":915772,"target":34962},{"buffer":0,"byteLength":1664,"byteOffset":917436,"target":34962},{"buffer":0,"byteLength":624,"byteOffset":919100,"target":34963},{"buffer":0,"byteLength":2592,"byteOffset":919724,"target":34962},{"buffer":0,"byteLength":2592,"byteOffset":922316,"target":34962},{"buffer":0,"byteLength":1728,"byteOffset":924908,"target":34962},{"buffer":0,"byteLength":1728,"byteOffset":926636,"target":34962},{"buffer":0,"byteLength":720,"byteOffset":928364,"target":34963},{"buffer":0,"byteLength":14688,"byteOffset":929084,"target":34962},{"buffer":0,"byteLength":14688,"byteOffset":943772,"target":34962},{"buffer":0,"byteLength":9792,"byteOffset":958460,"target":34962},{"buffer":0,"byteLength":9792,"byteOffset":968252,"target":34962},{"buffer":0,"byteLength":4008,"byteOffset":978044,"target":34963},{"buffer":0,"byteLength":54576,"byteOffset":982052,"target":34962},{"buffer":0,"byteLength":54576,"byteOffset":1036628,"target":34962},{"buffer":0,"byteLength":36384,"byteOffset":1091204,"target":34962},{"buffer":0,"byteLength":36384,"byteOffset":1127588,"target":34962},{"buffer":0,"byteLength":14376,"byteOffset":1163972,"target":34963},{"buffer":0,"byteLength":2688,"byteOffset":1178348,"target":34962},{"buffer":0,"byteLength":2688,"byteOffset":1181036,"target":34962},{"buffer":0,"byteLength":1792,"byteOffset":1183724,"target":34962},{"buffer":0,"byteLength":720,"byteOffset":1185516,"target":34963}],"samplers":[{"magFilter":9728,"minFilter":9984},{"magFilter":9729,"minFilter":9987}],"buffers":[{"byteLength":1186236,"extras":{"resourceLocation":"wflib:raw_models/drones/mavic.bin"}}]}