{"asset":{"generator":"Khronos glTF Blender I/O v5.2.39","version":"2.0"},"scene":0,"scenes":[{"name":"Scene","nodes":[6]}],"nodes":[{"extras":{"surface":"paint"},"mesh":0,"name":"01_CASE_mesh"},{"children":[0],"extras":{"removable_module":true},"name":"01_CASE"},{"extras":{"surface":"darkpaint"},"mesh":1,"name":"02_TOP_DISC_mesh"},{"children":[2],"extras":{"removable_module":true},"name":"02_TOP_DISC","translation":[0,0.03200000151991844,0]},{"extras":{"surface":"darkpaint"},"mesh":2,"name":"03_BASE_mesh"},{"children":[4],"extras":{"removable_module":true},"name":"03_BASE"},{"children":[1,3,5],"extras":{"description":"Antipersonnel mine; fictional exterior game prop; EMB4-inspired finish","axes":"Metres; +Z up; -Y front."},"name":"AP_Mine_ROOT","scale":[2.8,2.8,2.8]}],"materials":[{"doubleSided":true,"name":"AP_Mine | worn olive","pbrMetallicRoughness":{"baseColorTexture":{"index":0},"metallicRoughnessTexture":{"index":1}}}],"meshes":[{"name":"Low_profile_case","primitives":[{"attributes":{"POSITION":0,"NORMAL":1,"TEXCOORD_0":2},"indices":3,"material":0}]},{"name":"Recessed_top_disc","primitives":[{"attributes":{"POSITION":4,"NORMAL":5,"TEXCOORD_0":6},"indices":7,"material":0}]},{"name":"Base_foot","primitives":[{"attributes":{"POSITION":8,"NORMAL":9,"TEXCOORD_0":10},"indices":11,"material":0}]}],"textures":[{"sampler":0,"source":0},{"sampler":1,"source":1}],"images":[{"mimeType":"image/png","name":"AP_Mine_basecolor_512","extras":{"resourceLocation":"wflib:textures/models/mines/ap_basecolor.png"}},{"mimeType":"image/png","name":"AP_Mine_ORM_512","extras":{"resourceLocation":"wflib:textures/models/mines/ap_orm.png"}}],"accessors":[{"bufferView":0,"componentType":5126,"count":912,"max":[0.06700000166893005,0.03200000151991844,0.06700000166893005],"min":[-0.06700000166893005,0.003000000026077032,-0.06700000166893005],"type":"VEC3"},{"bufferView":1,"componentType":5126,"count":912,"type":"VEC3"},{"bufferView":2,"componentType":5126,"count":912,"type":"VEC2"},{"bufferView":3,"componentType":5123,"count":1560,"type":"SCALAR"},{"bufferView":4,"componentType":5126,"count":1187,"max":[0.05299999937415123,0.01249999925494194,0.05299999937415123],"min":[-0.05299999937415123,-0.0010000020265579224,-0.05299999937415123],"type":"VEC3"},{"bufferView":5,"componentType":5126,"count":1187,"type":"VEC3"},{"bufferView":6,"componentType":5126,"count":1187,"type":"VEC2"},{"bufferView":7,"componentType":5123,"count":1875,"type":"SCALAR"},{"bufferView":8,"componentType":5126,"count":384,"max":[0.0560000017285347,0.03207999840378761,0.0560000017285347],"min":[-0.0560000017285347,0.0010000000474974513,-0.0560000017285347],"type":"VEC3"},{"bufferView":9,"componentType":5126,"count":384,"type":"VEC3"},{"bufferView":10,"componentType":5126,"count":384,"type":"VEC2"},{"bufferView":11,"componentType":5123,"count":660,"type":"SCALAR"}],"bufferViews":[{"buffer":0,"byteLength":10944,"byteOffset":0,"target":34962},{"buffer":0,"byteLength":10944,"byteOffset":10944,"target":34962},{"buffer":0,"byteLength":7296,"byteOffset":21888,"target":34962},{"buffer":0,"byteLength":3120,"byteOffset":29184,"target":34963},{"buffer":0,"byteLength":14244,"byteOffset":32304,"target":34962},{"buffer":0,"byteLength":14244,"byteOffset":46548,"target":34962},{"buffer":0,"byteLength":9496,"byteOffset":60792,"target":34962},{"buffer":0,"byteLength":3750,"byteOffset":70288,"target":34963},{"buffer":0,"byteLength":4608,"byteOffset":74040,"target":34962},{"buffer":0,"byteLength":4608,"byteOffset":78648,"target":34962},{"buffer":0,"byteLength":3072,"byteOffset":83256,"target":34962},{"buffer":0,"byteLength":1320,"byteOffset":86328,"target":34963}],"samplers":[{"magFilter":9728,"minFilter":9984},{"magFilter":9729,"minFilter":9987}],"buffers":[{"byteLength":87648,"extras":{"resourceLocation":"wflib:raw_models/mines/ap.bin"}}]}