{"asset":{"generator":"Khronos glTF Blender I/O v5.2.39","version":"2.0"},"scene":0,"scenes":[{"name":"Scene","nodes":[6]}],"nodes":[{"extras":{"surface":"paint"},"mesh":0,"name":"01_CANISTER_mesh"},{"children":[0],"extras":{"removable_module":true},"name":"01_CANISTER"},{"extras":{"surface":"paint"},"mesh":1,"name":"02_TOP_CROWN_mesh"},{"children":[2],"extras":{"removable_module":true},"name":"02_TOP_CROWN","translation":[0,0.15800000727176666,0]},{"extras":{"surface":"darkpaint"},"mesh":2,"name":"03_BASE_RING_mesh"},{"children":[4],"extras":{"removable_module":true},"name":"03_BASE_RING"},{"children":[1,3,5],"extras":{"description":"Bounding mine; fictional exterior game prop; EMB4-inspired finish","axes":"Metres; +Z up; -Y front."},"name":"Bounding_Mine_ROOT","scale":[2.8,2.8,2.8]}],"materials":[{"doubleSided":true,"name":"Bounding_Mine | worn olive","pbrMetallicRoughness":{"baseColorTexture":{"index":0},"metallicRoughnessTexture":{"index":1}}}],"meshes":[{"name":"Upright_canister","primitives":[{"attributes":{"POSITION":0,"NORMAL":1,"TEXCOORD_0":2},"indices":3,"material":0}]},{"name":"Upper_cap","primitives":[{"attributes":{"POSITION":4,"NORMAL":5,"TEXCOORD_0":6},"indices":7,"material":0}]},{"name":"Base_ring","primitives":[{"attributes":{"POSITION":8,"NORMAL":9,"TEXCOORD_0":10},"indices":11,"material":0}]}],"textures":[{"sampler":0,"source":0},{"sampler":1,"source":1}],"images":[{"mimeType":"image/png","name":"Bounding_Mine_basecolor_512","extras":{"resourceLocation":"wflib:textures/models/mines/bounding_basecolor.png"}},{"mimeType":"image/png","name":"Bounding_Mine_ORM_512","extras":{"resourceLocation":"wflib:textures/models/mines/bounding_orm.png"}}],"accessors":[{"bufferView":0,"componentType":5126,"count":2086,"max":[0.060499999672174454,0.16099999845027924,0.060499999672174454],"min":[-0.060499999672174454,0.004999999888241291,-0.060499999672174454],"type":"VEC3"},{"bufferView":1,"componentType":5126,"count":2086,"type":"VEC3"},{"bufferView":2,"componentType":5126,"count":2086,"type":"VEC2"},{"bufferView":3,"componentType":5123,"count":2973,"type":"SCALAR"},{"bufferView":4,"componentType":5126,"count":1080,"max":[0.05000000074505806,0.05099998414516449,0.05000000074505806],"min":[-0.05000000074505806,-0.0010000020265579224,-0.05000000074505806],"type":"VEC3"},{"bufferView":5,"componentType":5126,"count":1080,"type":"VEC3"},{"bufferView":6,"componentType":5126,"count":1080,"type":"VEC2"},{"bufferView":7,"componentType":5123,"count":1812,"type":"SCALAR"},{"bufferView":8,"componentType":5126,"count":816,"max":[0.05979999899864197,0.010999999940395355,0.05979999899864197],"min":[-0.05979999899864197,0.0010000000474974513,-0.05979999899864197],"type":"VEC3"},{"bufferView":9,"componentType":5126,"count":816,"type":"VEC3"},{"bufferView":10,"componentType":5126,"count":816,"type":"VEC2"},{"bufferView":11,"componentType":5123,"count":1284,"type":"SCALAR"}],"bufferViews":[{"buffer":0,"byteLength":25032,"byteOffset":0,"target":34962},{"buffer":0,"byteLength":25032,"byteOffset":25032,"target":34962},{"buffer":0,"byteLength":16688,"byteOffset":50064,"target":34962},{"buffer":0,"byteLength":5946,"byteOffset":66752,"target":34963},{"buffer":0,"byteLength":12960,"byteOffset":72700,"target":34962},{"buffer":0,"byteLength":12960,"byteOffset":85660,"target":34962},{"buffer":0,"byteLength":8640,"byteOffset":98620,"target":34962},{"buffer":0,"byteLength":3624,"byteOffset":107260,"target":34963},{"buffer":0,"byteLength":9792,"byteOffset":110884,"target":34962},{"buffer":0,"byteLength":9792,"byteOffset":120676,"target":34962},{"buffer":0,"byteLength":6528,"byteOffset":130468,"target":34962},{"buffer":0,"byteLength":2568,"byteOffset":136996,"target":34963}],"samplers":[{"magFilter":9728,"minFilter":9984},{"magFilter":9729,"minFilter":9987}],"buffers":[{"byteLength":139564,"extras":{"resourceLocation":"wflib:raw_models/mines/bounding.bin"}}]}