{"asset":{"generator":"Khronos glTF Blender I/O v5.2.39","version":"2.0"},"scene":0,"scenes":[{"name":"Scene","nodes":[8]}],"nodes":[{"extras":{"surface":"paint"},"mesh":0,"name":"01_CURVED_BODY_mesh"},{"children":[0],"extras":{"removable_module":true},"name":"01_CURVED_BODY"},{"extras":{"surface":"darkpaint"},"mesh":1,"name":"02_TOP_COVERS_mesh"},{"children":[2],"extras":{"removable_module":true},"name":"02_TOP_COVERS"},{"extras":{"surface":"steel"},"mesh":2,"name":"03_STAND_L_mesh"},{"children":[4],"extras":{"removable_module":true},"name":"03_STAND_L","translation":[-0.08299999684095383,0.09700000286102295,0]},{"extras":{"surface":"steel"},"mesh":3,"name":"03_STAND_R_mesh"},{"children":[6],"extras":{"removable_module":true},"name":"03_STAND_R","translation":[0.08299999684095383,0.09700000286102295,0]},{"children":[1,3,5,7],"extras":{"description":"Claymore mine; fictional exterior game prop; EMB4-inspired finish","axes":"Metres; +Z up; -Y front."},"name":"Claymore_Mine_ROOT","scale":[2.8,2.8,2.8]}],"materials":[{"doubleSided":true,"name":"Claymore_Mine | worn olive","pbrMetallicRoughness":{"baseColorTexture":{"index":0},"metallicRoughnessTexture":{"index":1}}}],"meshes":[{"name":"Curved_directional_case","primitives":[{"attributes":{"POSITION":0,"NORMAL":1,"TEXCOORD_0":2},"indices":3,"material":0}]},{"name":"Closed_top_boss","primitives":[{"attributes":{"POSITION":4,"NORMAL":5,"TEXCOORD_0":6},"indices":7,"material":0}]},{"name":"Stand_top_axle","primitives":[{"attributes":{"POSITION":8,"NORMAL":9,"TEXCOORD_0":10},"indices":11,"material":0}]},{"name":"Stand_top_axle.001","primitives":[{"attributes":{"POSITION":12,"NORMAL":13,"TEXCOORD_0":14},"indices":15,"material":0}]}],"textures":[{"sampler":0,"source":0},{"sampler":1,"source":1}],"images":[{"mimeType":"image/png","name":"Claymore_Mine_basecolor_512","extras":{"resourceLocation":"wflib:textures/models/mines/claymore_basecolor.png"}},{"mimeType":"image/png","name":"Claymore_Mine_ORM_512","extras":{"resourceLocation":"wflib:textures/models/mines/claymore_orm.png"}}],"accessors":[{"bufferView":0,"componentType":5126,"count":1479,"max":[0.12148530036211014,0.1979999989271164,0.02829996682703495],"min":[-0.12148530036211014,0.09399999678134918,-0.027578778564929962],"type":"VEC3"},{"bufferView":1,"componentType":5126,"count":1479,"type":"VEC3"},{"bufferView":2,"componentType":5126,"count":1479,"type":"VEC2"},{"bufferView":3,"componentType":5123,"count":2091,"type":"SCALAR"},{"bufferView":4,"componentType":5126,"count":384,"max":[0.0729999989271164,0.2070000022649765,0.01426559966057539],"min":[-0.0729999989271164,0.19599999487400055,-0.003734399564564228],"type":"VEC3"},{"bufferView":5,"componentType":5126,"count":384,"type":"VEC3"},{"bufferView":6,"componentType":5126,"count":384,"type":"VEC2"},{"bufferView":7,"componentType":5123,"count":672,"type":"SCALAR"},{"bufferView":8,"componentType":5126,"count":432,"max":[0.004500001668930054,0.012499995529651642,0.05250000208616257],"min":[-0.02749999612569809,-0.09149999916553497,-0.05250000208616257],"type":"VEC3"},{"bufferView":9,"componentType":5126,"count":432,"type":"VEC3"},{"bufferView":10,"componentType":5126,"count":432,"type":"VEC2"},{"bufferView":11,"componentType":5123,"count":684,"type":"SCALAR"},{"bufferView":12,"componentType":5126,"count":432,"max":[0.02749999612569809,0.012499995529651642,0.05250000208616257],"min":[-0.004500001668930054,-0.09149999916553497,-0.05250000208616257],"type":"VEC3"},{"bufferView":13,"componentType":5126,"count":432,"type":"VEC3"},{"bufferView":14,"componentType":5126,"count":432,"type":"VEC2"},{"bufferView":15,"componentType":5123,"count":684,"type":"SCALAR"}],"bufferViews":[{"buffer":0,"byteLength":17748,"byteOffset":0,"target":34962},{"buffer":0,"byteLength":17748,"byteOffset":17748,"target":34962},{"buffer":0,"byteLength":11832,"byteOffset":35496,"target":34962},{"buffer":0,"byteLength":4182,"byteOffset":47328,"target":34963},{"buffer":0,"byteLength":4608,"byteOffset":51512,"target":34962},{"buffer":0,"byteLength":4608,"byteOffset":56120,"target":34962},{"buffer":0,"byteLength":3072,"byteOffset":60728,"target":34962},{"buffer":0,"byteLength":1344,"byteOffset":63800,"target":34963},{"buffer":0,"byteLength":5184,"byteOffset":65144,"target":34962},{"buffer":0,"byteLength":5184,"byteOffset":70328,"target":34962},{"buffer":0,"byteLength":3456,"byteOffset":75512,"target":34962},{"buffer":0,"byteLength":1368,"byteOffset":78968,"target":34963},{"buffer":0,"byteLength":5184,"byteOffset":80336,"target":34962},{"buffer":0,"byteLength":5184,"byteOffset":85520,"target":34962},{"buffer":0,"byteLength":3456,"byteOffset":90704,"target":34962},{"buffer":0,"byteLength":1368,"byteOffset":94160,"target":34963}],"samplers":[{"magFilter":9728,"minFilter":9984},{"magFilter":9729,"minFilter":9987}],"buffers":[{"byteLength":95528,"extras":{"resourceLocation":"wflib:raw_models/mines/claymore.bin"}}]}