{
  "accessors": [
    {
      "bufferView": 0,
      "componentType": 5126,
      "count": 1665,
      "max": [
        0.19425000250339508,
        0.10286000370979309,
        0.11840000003576279
      ],
      "min": [
        -0.19425000250339508,
        0.008510000072419643,
        -0.11100000143051147
      ],
      "type": "VEC3"
    },
    {
      "bufferView": 1,
      "componentType": 5126,
      "count": 1665,
      "type": "VEC3"
    },
    {
      "bufferView": 2,
      "componentType": 5126,
      "count": 1665,
      "type": "VEC2"
    },
    {
      "bufferView": 3,
      "componentType": 5123,
      "count": 2226,
      "type": "SCALAR"
    },
    {
      "bufferView": 4,
      "componentType": 5126,
      "count": 624,
      "max": [
        0.17723000049591064,
        0.02293998748064041,
        0.07362999767065048
      ],
      "min": [
        -0.17723000049591064,
        -0.00962001085281372,
        -0.07659000158309937
      ],
      "type": "VEC3"
    },
    {
      "bufferView": 5,
      "componentType": 5126,
      "count": 624,
      "type": "VEC3"
    },
    {
      "bufferView": 6,
      "componentType": 5126,
      "count": 624,
      "type": "VEC2"
    },
    {
      "bufferView": 7,
      "componentType": 5123,
      "count": 924,
      "type": "SCALAR"
    },
    {
      "bufferView": 8,
      "componentType": 5126,
      "count": 1272,
      "max": [
        0.03438009321689606,
        0.12284000217914581,
        0.034380100667476654
      ],
      "min": [
        -0.03438008576631546,
        -0.007461816072463989,
        -0.034380100667476654
      ],
      "type": "VEC3"
    },
    {
      "bufferView": 9,
      "componentType": 5126,
      "count": 1272,
      "type": "VEC3"
    },
    {
      "bufferView": 10,
      "componentType": 5126,
      "count": 1272,
      "type": "VEC2"
    },
    {
      "bufferView": 11,
      "componentType": 5123,
      "count": 1932,
      "type": "SCALAR"
    },
    {
      "bufferView": 12,
      "componentType": 5126,
      "count": 380,
      "max": [
        0.03253169730305672,
        0.007252037525177002,
        0.03253168612718582
      ],
      "min": [
        -0.03253169357776642,
        -0.0018500089645385742,
        -0.03253171965479851
      ],
      "type": "VEC3"
    },
    {
      "bufferView": 13,
      "componentType": 5126,
      "count": 380,
      "type": "VEC3"
    },
    {
      "bufferView": 14,
      "componentType": 5126,
      "count": 380,
      "type": "VEC2"
    },
    {
      "bufferView": 15,
      "componentType": 5123,
      "count": 684,
      "type": "SCALAR"
    },
    {
      "bufferView": 16,
      "componentType": 5126,
      "count": 963,
      "max": [
        0.026124998927116394,
        0.0625,
        0.02562500536441803
      ],
      "min": [
        -0.02612501010298729,
        -2.9802322387695312e-08,
        -0.025625009089708328
      ],
      "type": "VEC3"
    },
    {
      "bufferView": 17,
      "componentType": 5126,
      "count": 963,
      "type": "VEC3"
    },
    {
      "bufferView": 18,
      "componentType": 5126,
      "count": 963,
      "type": "VEC2"
    },
    {
      "bufferView": 19,
      "componentType": 5123,
      "count": 1629,
      "type": "SCALAR"
    },
    {
      "bufferView": 20,
      "componentType": 5126,
      "count": 1272,
      "max": [
        0.03440999984741211,
        0.122840017080307,
        0.03441000357270241
      ],
      "min": [
        -0.03440999984741211,
        -0.003053829073905945,
        -0.03440999984741211
      ],
      "type": "VEC3"
    },
    {
      "bufferView": 21,
      "componentType": 5126,
      "count": 1272,
      "type": "VEC3"
    },
    {
      "bufferView": 22,
      "componentType": 5126,
      "count": 1272,
      "type": "VEC2"
    },
    {
      "bufferView": 23,
      "componentType": 5123,
      "count": 1932,
      "type": "SCALAR"
    },
    {
      "bufferView": 24,
      "componentType": 5126,
      "count": 380,
      "max": [
        0.03255999833345413,
        0.007252037525177002,
        0.03256000950932503
      ],
      "min": [
        -0.03255999833345413,
        -0.001850023865699768,
        -0.032559994608163834
      ],
      "type": "VEC3"
    },
    {
      "bufferView": 25,
      "componentType": 5126,
      "count": 380,
      "type": "VEC3"
    },
    {
      "bufferView": 26,
      "componentType": 5126,
      "count": 380,
      "type": "VEC2"
    },
    {
      "bufferView": 27,
      "componentType": 5123,
      "count": 684,
      "type": "SCALAR"
    },
    {
      "bufferView": 28,
      "componentType": 5126,
      "count": 1272,
      "max": [
        0.03438008576631546,
        0.12284000217914581,
        0.034380100667476654
      ],
      "min": [
        -0.03438009321689606,
        -0.007461816072463989,
        -0.034380100667476654
      ],
      "type": "VEC3"
    },
    {
      "bufferView": 29,
      "componentType": 5126,
      "count": 1272,
      "type": "VEC3"
    },
    {
      "bufferView": 30,
      "componentType": 5126,
      "count": 1272,
      "type": "VEC2"
    },
    {
      "bufferView": 31,
      "componentType": 5123,
      "count": 1932,
      "type": "SCALAR"
    },
    {
      "bufferView": 32,
      "componentType": 5126,
      "count": 380,
      "max": [
        0.03253169357776642,
        0.007252037525177002,
        0.03253168612718582
      ],
      "min": [
        -0.03253169730305672,
        -0.0018500089645385742,
        -0.03253171965479851
      ],
      "type": "VEC3"
    },
    {
      "bufferView": 33,
      "componentType": 5126,
      "count": 380,
      "type": "VEC3"
    },
    {
      "bufferView": 34,
      "componentType": 5126,
      "count": 380,
      "type": "VEC2"
    },
    {
      "bufferView": 35,
      "componentType": 5123,
      "count": 684,
      "type": "SCALAR"
    },
    {
      "bufferView": 36,
      "componentType": 5126,
      "count": 1272,
      "max": [
        0.03438008576631546,
        0.12283997237682343,
        0.034380100667476654
      ],
      "min": [
        -0.03438009321689606,
        -0.007461830973625183,
        -0.034380100667476654
      ],
      "type": "VEC3"
    },
    {
      "bufferView": 37,
      "componentType": 5126,
      "count": 1272,
      "type": "VEC3"
    },
    {
      "bufferView": 38,
      "componentType": 5126,
      "count": 1272,
      "type": "VEC2"
    },
    {
      "bufferView": 39,
      "componentType": 5123,
      "count": 1932,
      "type": "SCALAR"
    },
    {
      "bufferView": 40,
      "componentType": 5126,
      "count": 380,
      "max": [
        0.03253169357776642,
        0.007251948118209839,
        0.03253169357776642
      ],
      "min": [
        -0.03253169357776642,
        -0.0018500685691833496,
        -0.03253170847892761
      ],
      "type": "VEC3"
    },
    {
      "bufferView": 41,
      "componentType": 5126,
      "count": 380,
      "type": "VEC3"
    },
    {
      "bufferView": 42,
      "componentType": 5126,
      "count": 380,
      "type": "VEC2"
    },
    {
      "bufferView": 43,
      "componentType": 5123,
      "count": 684,
      "type": "SCALAR"
    },
    {
      "bufferView": 44,
      "componentType": 5126,
      "count": 1272,
      "max": [
        0.03440998122096062,
        0.1228400319814682,
        0.034409988671541214
      ],
      "min": [
        -0.034409988671541214,
        -0.0030538439750671387,
        -0.034409988671541214
      ],
      "type": "VEC3"
    },
    {
      "bufferView": 45,
      "componentType": 5126,
      "count": 1272,
      "type": "VEC3"
    },
    {
      "bufferView": 46,
      "componentType": 5126,
      "count": 1272,
      "type": "VEC2"
    },
    {
      "bufferView": 47,
      "componentType": 5123,
      "count": 1932,
      "type": "SCALAR"
    },
    {
      "bufferView": 48,
      "componentType": 5126,
      "count": 380,
      "max": [
        0.03255997970700264,
        0.007252097129821777,
        0.03255998715758324
      ],
      "min": [
        -0.03255998715758324,
        -0.0018499791622161865,
        -0.032559994608163834
      ],
      "type": "VEC3"
    },
    {
      "bufferView": 49,
      "componentType": 5126,
      "count": 380,
      "type": "VEC3"
    },
    {
      "bufferView": 50,
      "componentType": 5126,
      "count": 380,
      "type": "VEC2"
    },
    {
      "bufferView": 51,
      "componentType": 5123,
      "count": 684,
      "type": "SCALAR"
    },
    {
      "bufferView": 52,
      "componentType": 5126,
      "count": 1272,
      "max": [
        0.03438009321689606,
        0.12283997237682343,
        0.034380100667476654
      ],
      "min": [
        -0.03438008576631546,
        -0.007461830973625183,
        -0.034380100667476654
      ],
      "type": "VEC3"
    },
    {
      "bufferView": 53,
      "componentType": 5126,
      "count": 1272,
      "type": "VEC3"
    },
    {
      "bufferView": 54,
      "componentType": 5126,
      "count": 1272,
      "type": "VEC2"
    },
    {
      "bufferView": 55,
      "componentType": 5123,
      "count": 1932,
      "type": "SCALAR"
    },
    {
      "bufferView": 56,
      "componentType": 5126,
      "count": 380,
      "max": [
        0.03253169357776642,
        0.007251948118209839,
        0.03253169357776642
      ],
      "min": [
        -0.03253169357776642,
        -0.0018500685691833496,
        -0.03253170847892761
      ],
      "type": "VEC3"
    },
    {
      "bufferView": 57,
      "componentType": 5126,
      "count": 380,
      "type": "VEC3"
    },
    {
      "bufferView": 58,
      "componentType": 5126,
      "count": 380,
      "type": "VEC2"
    },
    {
      "bufferView": 59,
      "componentType": 5123,
      "count": 684,
      "type": "SCALAR"
    },
    {
      "bufferView": 60,
      "componentType": 5126,
      "count": 376,
      "max": [
        0.17611999809741974,
        0.06104999780654907,
        0.0011100023984909058
      ],
      "min": [
        -0.17611999809741974,
        -0.00628998875617981,
        -0.009619995951652527
      ],
      "type": "VEC3"
    },
    {
      "bufferView": 61,
      "componentType": 5126,
      "count": 376,
      "type": "VEC3"
    },
    {
      "bufferView": 62,
      "componentType": 5126,
      "count": 376,
      "type": "VEC2"
    },
    {
      "bufferView": 63,
      "componentType": 5123,
      "count": 528,
      "type": "SCALAR"
    },
    {
      "bufferView": 64,
      "componentType": 5126,
      "count": 789,
      "max": [
        0.10137999802827835,
        0.011840008199214935,
        0.03033999353647232
      ],
      "min": [
        -0.10137999802827835,
        -0.004809997975826263,
        -0.030340012162923813
      ],
      "type": "VEC3"
    },
    {
      "bufferView": 65,
      "componentType": 5126,
      "count": 789,
      "type": "VEC3"
    },
    {
      "bufferView": 66,
      "componentType": 5126,
      "count": 789,
      "type": "VEC2"
    },
    {
      "bufferView": 67,
      "componentType": 5123,
      "count": 1269,
      "type": "SCALAR"
    },
    {
      "bufferView": 68,
      "componentType": 5126,
      "count": 192,
      "max": [
        0.014430016279220581,
        0.021325964480638504,
        0.12505999207496643
      ],
      "min": [
        -0.018869996070861816,
        -0.030710000544786453,
        -0.009619999676942825
      ],
      "type": "VEC3"
    },
    {
      "bufferView": 69,
      "componentType": 5126,
      "count": 192,
      "type": "VEC3"
    },
    {
      "bufferView": 70,
      "componentType": 5126,
      "count": 192,
      "type": "VEC2"
    },
    {
      "bufferView": 71,
      "componentType": 5123,
      "count": 300,
      "type": "SCALAR"
    },
    {
      "bufferView": 72,
      "componentType": 5126,
      "count": 192,
      "max": [
        0.018869996070861816,
        0.021325964480638504,
        0.12505999207496643
      ],
      "min": [
        -0.014430016279220581,
        -0.030710000544786453,
        -0.009619999676942825
      ],
      "type": "VEC3"
    },
    {
      "bufferView": 73,
      "componentType": 5126,
      "count": 192,
      "type": "VEC3"
    },
    {
      "bufferView": 74,
      "componentType": 5126,
      "count": 192,
      "type": "VEC2"
    },
    {
      "bufferView": 75,
      "componentType": 5126,
      "count": 360,
      "max": [
        0.0654899999499321,
        0.011100001633167267,
        0.008880004286766052
      ],
      "min": [
        -0.0654899999499321,
        -0.011100001633167267,
        -0.03774000704288483
      ],
      "type": "VEC3"
    },
    {
      "bufferView": 76,
      "componentType": 5126,
      "count": 360,
      "type": "VEC3"
    },
    {
      "bufferView": 77,
      "componentType": 5126,
      "count": 360,
      "type": "VEC2"
    },
    {
      "bufferView": 78,
      "componentType": 5123,
      "count": 564,
      "type": "SCALAR"
    },
    {
      "bufferView": 79,
      "componentType": 5126,
      "count": 172,
      "max": [
        0.008139997720718384,
        0.14800319075584412,
        0.008139997720718384
      ],
      "min": [
        -0.011997118592262268,
        -0.0007399991154670715,
        -0.010582417249679565
      ],
      "type": "VEC3"
    },
    {
      "bufferView": 80,
      "componentType": 5126,
      "count": 172,
      "type": "VEC3"
    },
    {
      "bufferView": 81,
      "componentType": 5126,
      "count": 172,
      "type": "VEC2"
    },
    {
      "bufferView": 82,
      "componentType": 5123,
      "count": 300,
      "type": "SCALAR"
    }
  ],
  "asset": {
    "generator": "Khronos glTF Blender I/O v5.2.39",
    "version": "2.0"
  },
  "bufferViews": [
    {
      "buffer": 0,
      "byteLength": 19980,
      "byteOffset": 0,
      "target": 34962
    },
    {
      "buffer": 0,
      "byteLength": 19980,
      "byteOffset": 19980,
      "target": 34962
    },
    {
      "buffer": 0,
      "byteLength": 13320,
      "byteOffset": 39960,
      "target": 34962
    },
    {
      "buffer": 0,
      "byteLength": 4452,
      "byteOffset": 53280,
      "target": 34963
    },
    {
      "buffer": 0,
      "byteLength": 7488,
      "byteOffset": 57732,
      "target": 34962
    },
    {
      "buffer": 0,
      "byteLength": 7488,
      "byteOffset": 65220,
      "target": 34962
    },
    {
      "buffer": 0,
      "byteLength": 4992,
      "byteOffset": 72708,
      "target": 34962
    },
    {
      "buffer": 0,
      "byteLength": 1848,
      "byteOffset": 77700,
      "target": 34963
    },
    {
      "buffer": 0,
      "byteLength": 15264,
      "byteOffset": 79548,
      "target": 34962
    },
    {
      "buffer": 0,
      "byteLength": 15264,
      "byteOffset": 94812,
      "target": 34962
    },
    {
      "buffer": 0,
      "byteLength": 10176,
      "byteOffset": 110076,
      "target": 34962
    },
    {
      "buffer": 0,
      "byteLength": 3864,
      "byteOffset": 120252,
      "target": 34963
    },
    {
      "buffer": 0,
      "byteLength": 4560,
      "byteOffset": 124116,
      "target": 34962
    },
    {
      "buffer": 0,
      "byteLength": 4560,
      "byteOffset": 128676,
      "target": 34962
    },
    {
      "buffer": 0,
      "byteLength": 3040,
      "byteOffset": 133236,
      "target": 34962
    },
    {
      "buffer": 0,
      "byteLength": 1368,
      "byteOffset": 136276,
      "target": 34963
    },
    {
      "buffer": 0,
      "byteLength": 11556,
      "byteOffset": 137644,
      "target": 34962
    },
    {
      "buffer": 0,
      "byteLength": 11556,
      "byteOffset": 149200,
      "target": 34962
    },
    {
      "buffer": 0,
      "byteLength": 7704,
      "byteOffset": 160756,
      "target": 34962
    },
    {
      "buffer": 0,
      "byteLength": 3258,
      "byteOffset": 168460,
      "target": 34963
    },
    {
      "buffer": 0,
      "byteLength": 15264,
      "byteOffset": 171720,
      "target": 34962
    },
    {
      "buffer": 0,
      "byteLength": 15264,
      "byteOffset": 186984,
      "target": 34962
    },
    {
      "buffer": 0,
      "byteLength": 10176,
      "byteOffset": 202248,
      "target": 34962
    },
    {
      "buffer": 0,
      "byteLength": 3864,
      "byteOffset": 212424,
      "target": 34963
    },
    {
      "buffer": 0,
      "byteLength": 4560,
      "byteOffset": 216288,
      "target": 34962
    },
    {
      "buffer": 0,
      "byteLength": 4560,
      "byteOffset": 220848,
      "target": 34962
    },
    {
      "buffer": 0,
      "byteLength": 3040,
      "byteOffset": 225408,
      "target": 34962
    },
    {
      "buffer": 0,
      "byteLength": 1368,
      "byteOffset": 228448,
      "target": 34963
    },
    {
      "buffer": 0,
      "byteLength": 15264,
      "byteOffset": 229816,
      "target": 34962
    },
    {
      "buffer": 0,
      "byteLength": 15264,
      "byteOffset": 245080,
      "target": 34962
    },
    {
      "buffer": 0,
      "byteLength": 10176,
      "byteOffset": 260344,
      "target": 34962
    },
    {
      "buffer": 0,
      "byteLength": 3864,
      "byteOffset": 270520,
      "target": 34963
    },
    {
      "buffer": 0,
      "byteLength": 4560,
      "byteOffset": 274384,
      "target": 34962
    },
    {
      "buffer": 0,
      "byteLength": 4560,
      "byteOffset": 278944,
      "target": 34962
    },
    {
      "buffer": 0,
      "byteLength": 3040,
      "byteOffset": 283504,
      "target": 34962
    },
    {
      "buffer": 0,
      "byteLength": 1368,
      "byteOffset": 286544,
      "target": 34963
    },
    {
      "buffer": 0,
      "byteLength": 15264,
      "byteOffset": 287912,
      "target": 34962
    },
    {
      "buffer": 0,
      "byteLength": 15264,
      "byteOffset": 303176,
      "target": 34962
    },
    {
      "buffer": 0,
      "byteLength": 10176,
      "byteOffset": 318440,
      "target": 34962
    },
    {
      "buffer": 0,
      "byteLength": 3864,
      "byteOffset": 328616,
      "target": 34963
    },
    {
      "buffer": 0,
      "byteLength": 4560,
      "byteOffset": 332480,
      "target": 34962
    },
    {
      "buffer": 0,
      "byteLength": 4560,
      "byteOffset": 337040,
      "target": 34962
    },
    {
      "buffer": 0,
      "byteLength": 3040,
      "byteOffset": 341600,
      "target": 34962
    },
    {
      "buffer": 0,
      "byteLength": 1368,
      "byteOffset": 344640,
      "target": 34963
    },
    {
      "buffer": 0,
      "byteLength": 15264,
      "byteOffset": 346008,
      "target": 34962
    },
    {
      "buffer": 0,
      "byteLength": 15264,
      "byteOffset": 361272,
      "target": 34962
    },
    {
      "buffer": 0,
      "byteLength": 10176,
      "byteOffset": 376536,
      "target": 34962
    },
    {
      "buffer": 0,
      "byteLength": 3864,
      "byteOffset": 386712,
      "target": 34963
    },
    {
      "buffer": 0,
      "byteLength": 4560,
      "byteOffset": 390576,
      "target": 34962
    },
    {
      "buffer": 0,
      "byteLength": 4560,
      "byteOffset": 395136,
      "target": 34962
    },
    {
      "buffer": 0,
      "byteLength": 3040,
      "byteOffset": 399696,
      "target": 34962
    },
    {
      "buffer": 0,
      "byteLength": 1368,
      "byteOffset": 402736,
      "target": 34963
    },
    {
      "buffer": 0,
      "byteLength": 15264,
      "byteOffset": 404104,
      "target": 34962
    },
    {
      "buffer": 0,
      "byteLength": 15264,
      "byteOffset": 419368,
      "target": 34962
    },
    {
      "buffer": 0,
      "byteLength": 10176,
      "byteOffset": 434632,
      "target": 34962
    },
    {
      "buffer": 0,
      "byteLength": 3864,
      "byteOffset": 444808,
      "target": 34963
    },
    {
      "buffer": 0,
      "byteLength": 4560,
      "byteOffset": 448672,
      "target": 34962
    },
    {
      "buffer": 0,
      "byteLength": 4560,
      "byteOffset": 453232,
      "target": 34962
    },
    {
      "buffer": 0,
      "byteLength": 3040,
      "byteOffset": 457792,
      "target": 34962
    },
    {
      "buffer": 0,
      "byteLength": 1368,
      "byteOffset": 460832,
      "target": 34963
    },
    {
      "buffer": 0,
      "byteLength": 4512,
      "byteOffset": 462200,
      "target": 34962
    },
    {
      "buffer": 0,
      "byteLength": 4512,
      "byteOffset": 466712,
      "target": 34962
    },
    {
      "buffer": 0,
      "byteLength": 3008,
      "byteOffset": 471224,
      "target": 34962
    },
    {
      "buffer": 0,
      "byteLength": 1056,
      "byteOffset": 474232,
      "target": 34963
    },
    {
      "buffer": 0,
      "byteLength": 9468,
      "byteOffset": 475288,
      "target": 34962
    },
    {
      "buffer": 0,
      "byteLength": 9468,
      "byteOffset": 484756,
      "target": 34962
    },
    {
      "buffer": 0,
      "byteLength": 6312,
      "byteOffset": 494224,
      "target": 34962
    },
    {
      "buffer": 0,
      "byteLength": 2538,
      "byteOffset": 500536,
      "target": 34963
    },
    {
      "buffer": 0,
      "byteLength": 2304,
      "byteOffset": 503076,
      "target": 34962
    },
    {
      "buffer": 0,
      "byteLength": 2304,
      "byteOffset": 505380,
      "target": 34962
    },
    {
      "buffer": 0,
      "byteLength": 1536,
      "byteOffset": 507684,
      "target": 34962
    },
    {
      "buffer": 0,
      "byteLength": 600,
      "byteOffset": 509220,
      "target": 34963
    },
    {
      "buffer": 0,
      "byteLength": 2304,
      "byteOffset": 509820,
      "target": 34962
    },
    {
      "buffer": 0,
      "byteLength": 2304,
      "byteOffset": 512124,
      "target": 34962
    },
    {
      "buffer": 0,
      "byteLength": 1536,
      "byteOffset": 514428,
      "target": 34962
    },
    {
      "buffer": 0,
      "byteLength": 4320,
      "byteOffset": 515964,
      "target": 34962
    },
    {
      "buffer": 0,
      "byteLength": 4320,
      "byteOffset": 520284,
      "target": 34962
    },
    {
      "buffer": 0,
      "byteLength": 2880,
      "byteOffset": 524604,
      "target": 34962
    },
    {
      "buffer": 0,
      "byteLength": 1128,
      "byteOffset": 527484,
      "target": 34963
    },
    {
      "buffer": 0,
      "byteLength": 2064,
      "byteOffset": 528612,
      "target": 34962
    },
    {
      "buffer": 0,
      "byteLength": 2064,
      "byteOffset": 530676,
      "target": 34962
    },
    {
      "buffer": 0,
      "byteLength": 1376,
      "byteOffset": 532740,
      "target": 34962
    },
    {
      "buffer": 0,
      "byteLength": 600,
      "byteOffset": 534116,
      "target": 34963
    }
  ],
  "buffers": [
    {
      "byteLength": 534716,
      "extras": {
        "resourceLocation": "wflib:raw_models/mines/dispenser_ap.bin"
      }
    }
  ],
  "images": [
    {
      "extras": {
        "resourceLocation": "wflib:textures/models/mines/dispenser_ap_basecolor.png"
      },
      "mimeType": "image/png",
      "name": "AP_Mine_Dispenser_basecolor_512"
    },
    {
      "extras": {
        "resourceLocation": "wflib:textures/models/mines/dispenser_ap_orm.png"
      },
      "mimeType": "image/png",
      "name": "AP_Mine_Dispenser_ORM_512"
    }
  ],
  "materials": [
    {
      "doubleSided": true,
      "name": "AP_Mine_Dispenser | worn olive",
      "pbrMetallicRoughness": {
        "baseColorTexture": {
          "index": 0
        },
        "metallicRoughnessTexture": {
          "index": 1
        }
      }
    }
  ],
  "meshes": [
    {
      "name": "Beveled_field_case",
      "primitives": [
        {
          "attributes": {
            "NORMAL": 1,
            "POSITION": 0,
            "TEXCOORD_0": 2
          },
          "indices": 3,
          "material": 0
        }
      ]
    },
    {
      "name": "Canister_support_tray",
      "primitives": [
        {
          "attributes": {
            "NORMAL": 5,
            "POSITION": 4,
            "TEXCOORD_0": 6
          },
          "indices": 7,
          "material": 0
        }
      ]
    },
    {
      "name": "Open_tube_outer_shell",
      "primitives": [
        {
          "attributes": {
            "NORMAL": 9,
            "POSITION": 8,
            "TEXCOORD_0": 10
          },
          "indices": 11,
          "material": 0
        }
      ]
    },
    {
      "name": "Removable_tube_cap",
      "primitives": [
        {
          "attributes": {
            "NORMAL": 13,
            "POSITION": 12,
            "TEXCOORD_0": 14
          },
          "indices": 15,
          "material": 0
        }
      ]
    },
    {
      "name": "Stowed_mine_case",
      "primitives": [
        {
          "attributes": {
            "NORMAL": 17,
            "POSITION": 16,
            "TEXCOORD_0": 18
          },
          "indices": 19,
          "material": 0
        }
      ]
    },
    {
      "name": "Open_tube_outer_shell.001",
      "primitives": [
        {
          "attributes": {
            "NORMAL": 21,
            "POSITION": 20,
            "TEXCOORD_0": 22
          },
          "indices": 23,
          "material": 0
        }
      ]
    },
    {
      "name": "Removable_tube_cap.001",
      "primitives": [
        {
          "attributes": {
            "NORMAL": 25,
            "POSITION": 24,
            "TEXCOORD_0": 26
          },
          "indices": 27,
          "material": 0
        }
      ]
    },
    {
      "name": "Open_tube_outer_shell.002",
      "primitives": [
        {
          "attributes": {
            "NORMAL": 29,
            "POSITION": 28,
            "TEXCOORD_0": 30
          },
          "indices": 31,
          "material": 0
        }
      ]
    },
    {
      "name": "Removable_tube_cap.002",
      "primitives": [
        {
          "attributes": {
            "NORMAL": 33,
            "POSITION": 32,
            "TEXCOORD_0": 34
          },
          "indices": 35,
          "material": 0
        }
      ]
    },
    {
      "name": "Open_tube_outer_shell.003",
      "primitives": [
        {
          "attributes": {
            "NORMAL": 37,
            "POSITION": 36,
            "TEXCOORD_0": 38
          },
          "indices": 39,
          "material": 0
        }
      ]
    },
    {
      "name": "Removable_tube_cap.003",
      "primitives": [
        {
          "attributes": {
            "NORMAL": 41,
            "POSITION": 40,
            "TEXCOORD_0": 42
          },
          "indices": 43,
          "material": 0
        }
      ]
    },
    {
      "name": "Open_tube_outer_shell.004",
      "primitives": [
        {
          "attributes": {
            "NORMAL": 45,
            "POSITION": 44,
            "TEXCOORD_0": 46
          },
          "indices": 47,
          "material": 0
        }
      ]
    },
    {
      "name": "Removable_tube_cap.004",
      "primitives": [
        {
          "attributes": {
            "NORMAL": 49,
            "POSITION": 48,
            "TEXCOORD_0": 50
          },
          "indices": 51,
          "material": 0
        }
      ]
    },
    {
      "name": "Open_tube_outer_shell.005",
      "primitives": [
        {
          "attributes": {
            "NORMAL": 53,
            "POSITION": 52,
            "TEXCOORD_0": 54
          },
          "indices": 55,
          "material": 0
        }
      ]
    },
    {
      "name": "Removable_tube_cap.005",
      "primitives": [
        {
          "attributes": {
            "NORMAL": 57,
            "POSITION": 56,
            "TEXCOORD_0": 58
          },
          "indices": 59,
          "material": 0
        }
      ]
    },
    {
      "name": "Rear_guard_panel",
      "primitives": [
        {
          "attributes": {
            "NORMAL": 61,
            "POSITION": 60,
            "TEXCOORD_0": 62
          },
          "indices": 63,
          "material": 0
        }
      ]
    },
    {
      "name": "Instrument_panel_surround",
      "primitives": [
        {
          "attributes": {
            "NORMAL": 65,
            "POSITION": 64,
            "TEXCOORD_0": 66
          },
          "indices": 67,
          "material": 0
        }
      ]
    },
    {
      "name": "Folding_support_foot",
      "primitives": [
        {
          "attributes": {
            "NORMAL": 69,
            "POSITION": 68,
            "TEXCOORD_0": 70
          },
          "indices": 71,
          "material": 0
        }
      ]
    },
    {
      "name": "Folding_support_foot.001",
      "primitives": [
        {
          "attributes": {
            "NORMAL": 73,
            "POSITION": 72,
            "TEXCOORD_0": 74
          },
          "indices": 71,
          "material": 0
        }
      ]
    },
    {
      "name": "Carry_handle_mount",
      "primitives": [
        {
          "attributes": {
            "NORMAL": 76,
            "POSITION": 75,
            "TEXCOORD_0": 77
          },
          "indices": 78,
          "material": 0
        }
      ]
    },
    {
      "name": "Antenna_foot",
      "primitives": [
        {
          "attributes": {
            "NORMAL": 80,
            "POSITION": 79,
            "TEXCOORD_0": 81
          },
          "indices": 82,
          "material": 0
        }
      ]
    }
  ],
  "nodes": [
    {
      "extras": {
        "surface": "paint"
      },
      "mesh": 0,
      "name": "01_BASE_CASE_mesh"
    },
    {
      "children": [
        0
      ],
      "extras": {
        "removable_module": true
      },
      "name": "01_BASE_CASE"
    },
    {
      "extras": {
        "surface": "darkpaint"
      },
      "mesh": 1,
      "name": "02_RACK_FRAME_mesh"
    },
    {
      "extras": {
        "surface": "paint"
      },
      "mesh": 2,
      "name": "03_CANISTER_01_mesh"
    },
    {
      "extras": {
        "surface": "edge"
      },
      "mesh": 3,
      "name": "09_TUBE_CAP_01_mesh"
    },
    {
      "children": [
        4
      ],
      "extras": {
        "part_type": "removable_cap",
        "removable_module": true,
        "slot": 1
      },
      "name": "09_TUBE_CAP_01",
      "translation": [
        0,
        0.12505999207496643,
        0
      ]
    },
    {
      "extras": {
        "surface": "paint"
      },
      "mesh": 4,
      "name": "10_STOWED_MINE_01_mesh"
    },
    {
      "children": [
        6
      ],
      "extras": {
        "matching_asset": "AP_Scatter_Mine",
        "move_axis": "local Z",
        "part_type": "removable_mine",
        "pose": "stowed exterior",
        "removable_module": true,
        "slot": 1
      },
      "name": "10_STOWED_MINE_01",
      "translation": [
        0,
        0.05442000553011894,
        0
      ]
    },
    {
      "children": [
        3,
        5,
        7
      ],
      "extras": {
        "part_type": "hollow_tube",
        "removable_module": true,
        "slot": 1
      },
      "name": "03_CANISTER_01",
      "rotation": [
        0.090821772813797,
        -0.5639901161193848,
        0.06258996576070786,
        0.8183820247650146
      ],
      "translation": [
        -0.11100000143051147,
        0.008880001492798328,
        0.03404000401496887
      ]
    },
    {
      "extras": {
        "surface": "paint"
      },
      "mesh": 5,
      "name": "03_CANISTER_02_mesh"
    },
    {
      "extras": {
        "surface": "edge"
      },
      "mesh": 6,
      "name": "09_TUBE_CAP_02_mesh"
    },
    {
      "children": [
        10
      ],
      "extras": {
        "part_type": "removable_cap",
        "removable_module": true,
        "slot": 2
      },
      "name": "09_TUBE_CAP_02",
      "translation": [
        0,
        0.12506000697612762,
        0
      ]
    },
    {
      "extras": {
        "surface": "paint"
      },
      "mesh": 4,
      "name": "10_STOWED_MINE_02_mesh"
    },
    {
      "children": [
        12
      ],
      "extras": {
        "matching_asset": "AP_Scatter_Mine",
        "move_axis": "local Z",
        "part_type": "removable_mine",
        "pose": "stowed exterior",
        "removable_module": true,
        "slot": 2
      },
      "name": "10_STOWED_MINE_02",
      "translation": [
        0,
        0.05442000925540924,
        0
      ]
    },
    {
      "children": [
        9,
        11,
        13
      ],
      "extras": {
        "part_type": "hollow_tube",
        "removable_module": true,
        "slot": 2
      },
      "name": "03_CANISTER_02",
      "rotation": [
        0.03990411385893822,
        0,
        0,
        0.9992035627365112
      ],
      "translation": [
        0,
        0.008880001492798328,
        0.03404000401496887
      ]
    },
    {
      "extras": {
        "surface": "paint"
      },
      "mesh": 7,
      "name": "03_CANISTER_03_mesh"
    },
    {
      "extras": {
        "surface": "edge"
      },
      "mesh": 8,
      "name": "09_TUBE_CAP_03_mesh"
    },
    {
      "children": [
        16
      ],
      "extras": {
        "part_type": "removable_cap",
        "removable_module": true,
        "slot": 3
      },
      "name": "09_TUBE_CAP_03",
      "translation": [
        0,
        0.12505999207496643,
        0
      ]
    },
    {
      "extras": {
        "surface": "paint"
      },
      "mesh": 4,
      "name": "10_STOWED_MINE_03_mesh"
    },
    {
      "children": [
        18
      ],
      "extras": {
        "matching_asset": "AP_Scatter_Mine",
        "move_axis": "local Z",
        "part_type": "removable_mine",
        "pose": "stowed exterior",
        "removable_module": true,
        "slot": 3
      },
      "name": "10_STOWED_MINE_03",
      "translation": [
        0,
        0.05442000553011894,
        0
      ]
    },
    {
      "children": [
        15,
        17,
        19
      ],
      "extras": {
        "part_type": "hollow_tube",
        "removable_module": true,
        "slot": 3
      },
      "name": "03_CANISTER_03",
      "rotation": [
        0.090821772813797,
        0.5639901161193848,
        -0.06258996576070786,
        0.8183820247650146
      ],
      "translation": [
        0.11100000143051147,
        0.008880001492798328,
        0.03404000401496887
      ]
    },
    {
      "extras": {
        "surface": "paint"
      },
      "mesh": 9,
      "name": "03_CANISTER_04_mesh"
    },
    {
      "extras": {
        "surface": "edge"
      },
      "mesh": 10,
      "name": "09_TUBE_CAP_04_mesh"
    },
    {
      "children": [
        22
      ],
      "extras": {
        "part_type": "removable_cap",
        "removable_module": true,
        "slot": 4
      },
      "name": "09_TUBE_CAP_04",
      "translation": [
        0,
        0.12506002187728882,
        0
      ]
    },
    {
      "extras": {
        "surface": "paint"
      },
      "mesh": 4,
      "name": "10_STOWED_MINE_04_mesh"
    },
    {
      "children": [
        24
      ],
      "extras": {
        "matching_asset": "AP_Scatter_Mine",
        "move_axis": "local Z",
        "part_type": "removable_mine",
        "pose": "stowed exterior",
        "removable_module": true,
        "slot": 4
      },
      "name": "10_STOWED_MINE_04",
      "translation": [
        0,
        0.05442001298069954,
        0
      ]
    },
    {
      "children": [
        21,
        23,
        25
      ],
      "extras": {
        "part_type": "hollow_tube",
        "removable_module": true,
        "slot": 4
      },
      "name": "03_CANISTER_04",
      "rotation": [
        0.0625901073217392,
        -0.8183820843696594,
        0.09082171320915222,
        0.5639899969100952
      ],
      "translation": [
        -0.11100000143051147,
        0.008879991248250008,
        -0.03922000527381897
      ]
    },
    {
      "extras": {
        "surface": "paint"
      },
      "mesh": 11,
      "name": "03_CANISTER_05_mesh"
    },
    {
      "extras": {
        "surface": "edge"
      },
      "mesh": 12,
      "name": "09_TUBE_CAP_05_mesh"
    },
    {
      "children": [
        28
      ],
      "extras": {
        "part_type": "removable_cap",
        "removable_module": true,
        "slot": 5
      },
      "name": "09_TUBE_CAP_05",
      "translation": [
        0,
        0.12506000697612762,
        0
      ]
    },
    {
      "extras": {
        "surface": "paint"
      },
      "mesh": 4,
      "name": "10_STOWED_MINE_05_mesh"
    },
    {
      "children": [
        30
      ],
      "extras": {
        "matching_asset": "AP_Scatter_Mine",
        "move_axis": "local Z",
        "part_type": "removable_mine",
        "pose": "stowed exterior",
        "removable_module": true,
        "slot": 5
      },
      "name": "10_STOWED_MINE_05",
      "translation": [
        0,
        0.054420024156570435,
        0
      ]
    },
    {
      "children": [
        27,
        29,
        31
      ],
      "extras": {
        "part_type": "hollow_tube",
        "removable_module": true,
        "slot": 5
      },
      "name": "03_CANISTER_05",
      "rotation": [
        0,
        -0.9992035031318665,
        0.03990468382835388,
        7.557686387826834e-08
      ],
      "translation": [
        0,
        0.008879991248250008,
        -0.03922000527381897
      ]
    },
    {
      "extras": {
        "surface": "paint"
      },
      "mesh": 13,
      "name": "03_CANISTER_06_mesh"
    },
    {
      "extras": {
        "surface": "edge"
      },
      "mesh": 14,
      "name": "09_TUBE_CAP_06_mesh"
    },
    {
      "children": [
        34
      ],
      "extras": {
        "part_type": "removable_cap",
        "removable_module": true,
        "slot": 6
      },
      "name": "09_TUBE_CAP_06",
      "translation": [
        0,
        0.12506002187728882,
        0
      ]
    },
    {
      "extras": {
        "surface": "paint"
      },
      "mesh": 4,
      "name": "10_STOWED_MINE_06_mesh"
    },
    {
      "children": [
        36
      ],
      "extras": {
        "matching_asset": "AP_Scatter_Mine",
        "move_axis": "local Z",
        "part_type": "removable_mine",
        "pose": "stowed exterior",
        "removable_module": true,
        "slot": 6
      },
      "name": "10_STOWED_MINE_06",
      "translation": [
        0,
        0.05442001298069954,
        0
      ]
    },
    {
      "children": [
        33,
        35,
        37
      ],
      "extras": {
        "part_type": "hollow_tube",
        "removable_module": true,
        "slot": 6
      },
      "name": "03_CANISTER_06",
      "rotation": [
        0.0625901073217392,
        0.8183820843696594,
        -0.09082171320915222,
        0.5639899969100952
      ],
      "translation": [
        0.11100000143051147,
        0.008879991248250008,
        -0.03922000527381897
      ]
    },
    {
      "extras": {
        "surface": "paint"
      },
      "mesh": 15,
      "name": "04_REAR_RACK_GUARD_mesh"
    },
    {
      "children": [
        39
      ],
      "extras": {
        "removable_module": true
      },
      "name": "04_REAR_RACK_GUARD",
      "translation": [
        0,
        0.016280006617307663,
        -0.0769599974155426
      ]
    },
    {
      "children": [
        2,
        8,
        14,
        20,
        26,
        32,
        38,
        40
      ],
      "extras": {
        "removable_module": true
      },
      "name": "02_RACK_FRAME",
      "rotation": [
        0.1736481636762619,
        0,
        0,
        0.9848077893257141
      ],
      "translation": [
        0,
        0.11618000268936157,
        -0.022199999541044235
      ]
    },
    {
      "extras": {
        "surface": "edge"
      },
      "mesh": 16,
      "name": "05_CONTROL_PANEL_mesh"
    },
    {
      "children": [
        42
      ],
      "extras": {
        "removable_module": true
      },
      "name": "05_CONTROL_PANEL",
      "rotation": [
        0.13052619993686676,
        0,
        0,
        0.9914448857307434
      ],
      "translation": [
        0,
        0.10729999840259552,
        0.07474000006914139
      ]
    },
    {
      "extras": {
        "surface": "darkpaint"
      },
      "mesh": 17,
      "name": "06_FOOT_L_mesh"
    },
    {
      "children": [
        44
      ],
      "extras": {
        "removable_module": true
      },
      "name": "06_FOOT_L",
      "translation": [
        -0.1517000049352646,
        0.0333000011742115,
        0.06363999843597412
      ]
    },
    {
      "extras": {
        "surface": "darkpaint"
      },
      "mesh": 18,
      "name": "06_FOOT_R_mesh"
    },
    {
      "children": [
        46
      ],
      "extras": {
        "removable_module": true
      },
      "name": "06_FOOT_R",
      "translation": [
        0.1517000049352646,
        0.0333000011742115,
        0.06363999843597412
      ]
    },
    {
      "extras": {
        "surface": "steel"
      },
      "mesh": 19,
      "name": "07_CARRY_HANDLE_mesh"
    },
    {
      "children": [
        48
      ],
      "extras": {
        "removable_module": true
      },
      "name": "07_CARRY_HANDLE",
      "translation": [
        0,
        0.06734000146389008,
        -0.11100000143051147
      ]
    },
    {
      "extras": {
        "surface": "rubber"
      },
      "mesh": 20,
      "name": "08_ANTENNA_mesh"
    },
    {
      "children": [
        50
      ],
      "extras": {
        "removable_module": true
      },
      "name": "08_ANTENNA",
      "translation": [
        0.16575999557971954,
        0.10582000017166138,
        -0.08436000347137451
      ]
    },
    {
      "children": [
        1,
        41,
        43,
        45,
        47,
        49,
        51
      ],
      "extras": {
        "axes": "Metres; +Z up; -Y front.",
        "description": "AP mine dispenser; fictional exterior game prop; EMB4-inspired finish"
      },
      "name": "AP_Mine_Dispenser_ROOT",
      "scale": [
        2.8,
        2.8,
        2.8
      ],
      "translation": [
        0.0,
        -0.007252001762390131,
        0.0
      ]
    }
  ],
  "samplers": [
    {
      "magFilter": 9728,
      "minFilter": 9984
    },
    {
      "magFilter": 9729,
      "minFilter": 9987
    }
  ],
  "scene": 0,
  "scenes": [
    {
      "name": "Scene",
      "nodes": [
        52
      ]
    }
  ],
  "textures": [
    {
      "sampler": 0,
      "source": 0
    },
    {
      "sampler": 1,
      "source": 1
    }
  ]
}