{
  "accessors": [
    {
      "bufferView": 0,
      "componentType": 5126,
      "count": 1632,
      "max": [
        0.26249998807907104,
        0.13899999856948853,
        0.1600000113248825
      ],
      "min": [
        -0.26249998807907104,
        0.011500000022351742,
        -0.15000000596046448
      ],
      "type": "VEC3"
    },
    {
      "bufferView": 1,
      "componentType": 5126,
      "count": 1632,
      "type": "VEC3"
    },
    {
      "bufferView": 2,
      "componentType": 5126,
      "count": 1632,
      "type": "VEC2"
    },
    {
      "bufferView": 3,
      "componentType": 5123,
      "count": 2184,
      "type": "SCALAR"
    },
    {
      "bufferView": 4,
      "componentType": 5126,
      "count": 624,
      "max": [
        0.2395000010728836,
        0.030999958515167236,
        0.09950000047683716
      ],
      "min": [
        -0.2395000010728836,
        -0.013000041246414185,
        -0.10350000858306885
      ],
      "type": "VEC3"
    },
    {
      "bufferView": 5,
      "componentType": 5126,
      "count": 624,
      "type": "VEC3"
    },
    {
      "bufferView": 6,
      "componentType": 5126,
      "count": 624,
      "type": "VEC2"
    },
    {
      "bufferView": 7,
      "componentType": 5123,
      "count": 924,
      "type": "SCALAR"
    },
    {
      "bufferView": 8,
      "componentType": 5126,
      "count": 1272,
      "max": [
        0.04645957052707672,
        0.16599999368190765,
        0.04645957052707672
      ],
      "min": [
        -0.04645959287881851,
        -0.010083526372909546,
        -0.04645960405468941
      ],
      "type": "VEC3"
    },
    {
      "bufferView": 9,
      "componentType": 5126,
      "count": 1272,
      "type": "VEC3"
    },
    {
      "bufferView": 10,
      "componentType": 5126,
      "count": 1272,
      "type": "VEC2"
    },
    {
      "bufferView": 11,
      "componentType": 5123,
      "count": 1932,
      "type": "SCALAR"
    },
    {
      "bufferView": 12,
      "componentType": 5126,
      "count": 380,
      "max": [
        0.04396175593137741,
        0.009799987077713013,
        0.04396174103021622
      ],
      "min": [
        -0.04396175593137741,
        -0.0025000572204589844,
        -0.0439617782831192
      ],
      "type": "VEC3"
    },
    {
      "bufferView": 13,
      "componentType": 5126,
      "count": 380,
      "type": "VEC3"
    },
    {
      "bufferView": 14,
      "componentType": 5126,
      "count": 380,
      "type": "VEC2"
    },
    {
      "bufferView": 15,
      "componentType": 5123,
      "count": 684,
      "type": "SCALAR"
    },
    {
      "bufferView": 16,
      "componentType": 5126,
      "count": 1140,
      "max": [
        0.03955000266432762,
        0.0975000262260437,
        0.039549991488456726
      ],
      "min": [
        -0.03955001384019852,
        0,
        -0.03955001384019852
      ],
      "type": "VEC3"
    },
    {
      "bufferView": 17,
      "componentType": 5126,
      "count": 1140,
      "type": "VEC3"
    },
    {
      "bufferView": 18,
      "componentType": 5126,
      "count": 1140,
      "type": "VEC2"
    },
    {
      "bufferView": 19,
      "componentType": 5123,
      "count": 1971,
      "type": "SCALAR"
    },
    {
      "bufferView": 20,
      "componentType": 5126,
      "count": 1272,
      "max": [
        0.04650000110268593,
        0.16600003838539124,
        0.04650000482797623
      ],
      "min": [
        -0.04650000110268593,
        -0.004126787185668945,
        -0.04649999737739563
      ],
      "type": "VEC3"
    },
    {
      "bufferView": 21,
      "componentType": 5126,
      "count": 1272,
      "type": "VEC3"
    },
    {
      "bufferView": 22,
      "componentType": 5126,
      "count": 1272,
      "type": "VEC2"
    },
    {
      "bufferView": 23,
      "componentType": 5123,
      "count": 1932,
      "type": "SCALAR"
    },
    {
      "bufferView": 24,
      "componentType": 5126,
      "count": 380,
      "max": [
        0.04399999976158142,
        0.0098000168800354,
        0.044000010937452316
      ],
      "min": [
        -0.04399999976158142,
        -0.002499997615814209,
        -0.04399999603629112
      ],
      "type": "VEC3"
    },
    {
      "bufferView": 25,
      "componentType": 5126,
      "count": 380,
      "type": "VEC3"
    },
    {
      "bufferView": 26,
      "componentType": 5126,
      "count": 380,
      "type": "VEC2"
    },
    {
      "bufferView": 27,
      "componentType": 5123,
      "count": 684,
      "type": "SCALAR"
    },
    {
      "bufferView": 28,
      "componentType": 5126,
      "count": 1272,
      "max": [
        0.04645959287881851,
        0.16599999368190765,
        0.04645957052707672
      ],
      "min": [
        -0.04645957052707672,
        -0.010083526372909546,
        -0.04645960405468941
      ],
      "type": "VEC3"
    },
    {
      "bufferView": 29,
      "componentType": 5126,
      "count": 1272,
      "type": "VEC3"
    },
    {
      "bufferView": 30,
      "componentType": 5126,
      "count": 1272,
      "type": "VEC2"
    },
    {
      "bufferView": 31,
      "componentType": 5123,
      "count": 1932,
      "type": "SCALAR"
    },
    {
      "bufferView": 32,
      "componentType": 5126,
      "count": 380,
      "max": [
        0.04396175593137741,
        0.009799987077713013,
        0.04396174103021622
      ],
      "min": [
        -0.04396175593137741,
        -0.0025000572204589844,
        -0.0439617782831192
      ],
      "type": "VEC3"
    },
    {
      "bufferView": 33,
      "componentType": 5126,
      "count": 380,
      "type": "VEC3"
    },
    {
      "bufferView": 34,
      "componentType": 5126,
      "count": 380,
      "type": "VEC2"
    },
    {
      "bufferView": 35,
      "componentType": 5123,
      "count": 684,
      "type": "SCALAR"
    },
    {
      "bufferView": 36,
      "componentType": 5126,
      "count": 1272,
      "max": [
        0.046459585428237915,
        0.16600000858306885,
        0.04645960032939911
      ],
      "min": [
        -0.046459585428237915,
        -0.01008354127407074,
        -0.04645957797765732
      ],
      "type": "VEC3"
    },
    {
      "bufferView": 37,
      "componentType": 5126,
      "count": 1272,
      "type": "VEC3"
    },
    {
      "bufferView": 38,
      "componentType": 5126,
      "count": 1272,
      "type": "VEC2"
    },
    {
      "bufferView": 39,
      "componentType": 5123,
      "count": 1932,
      "type": "SCALAR"
    },
    {
      "bufferView": 40,
      "componentType": 5126,
      "count": 380,
      "max": [
        0.04396174103021622,
        0.009799927473068237,
        0.04396173357963562
      ],
      "min": [
        -0.04396176338195801,
        -0.002500087022781372,
        -0.0439617782831192
      ],
      "type": "VEC3"
    },
    {
      "bufferView": 41,
      "componentType": 5126,
      "count": 380,
      "type": "VEC3"
    },
    {
      "bufferView": 42,
      "componentType": 5126,
      "count": 380,
      "type": "VEC2"
    },
    {
      "bufferView": 43,
      "componentType": 5123,
      "count": 684,
      "type": "SCALAR"
    },
    {
      "bufferView": 44,
      "componentType": 5126,
      "count": 1272,
      "max": [
        0.04649997875094414,
        0.16600008308887482,
        0.04649999737739563
      ],
      "min": [
        -0.04649997875094414,
        -0.004126816987991333,
        -0.04649997502565384
      ],
      "type": "VEC3"
    },
    {
      "bufferView": 45,
      "componentType": 5126,
      "count": 1272,
      "type": "VEC3"
    },
    {
      "bufferView": 46,
      "componentType": 5126,
      "count": 1272,
      "type": "VEC2"
    },
    {
      "bufferView": 47,
      "componentType": 5123,
      "count": 1932,
      "type": "SCALAR"
    },
    {
      "bufferView": 48,
      "componentType": 5126,
      "count": 380,
      "max": [
        0.04399998113512993,
        0.0098000168800354,
        0.043999992311000824
      ],
      "min": [
        -0.04399997368454933,
        -0.002499997615814209,
        -0.04399998486042023
      ],
      "type": "VEC3"
    },
    {
      "bufferView": 49,
      "componentType": 5126,
      "count": 380,
      "type": "VEC3"
    },
    {
      "bufferView": 50,
      "componentType": 5126,
      "count": 380,
      "type": "VEC2"
    },
    {
      "bufferView": 51,
      "componentType": 5123,
      "count": 684,
      "type": "SCALAR"
    },
    {
      "bufferView": 52,
      "componentType": 5126,
      "count": 1272,
      "max": [
        0.046459585428237915,
        0.16600000858306885,
        0.04645960032939911
      ],
      "min": [
        -0.046459585428237915,
        -0.01008354127407074,
        -0.04645957797765732
      ],
      "type": "VEC3"
    },
    {
      "bufferView": 53,
      "componentType": 5126,
      "count": 1272,
      "type": "VEC3"
    },
    {
      "bufferView": 54,
      "componentType": 5126,
      "count": 1272,
      "type": "VEC2"
    },
    {
      "bufferView": 55,
      "componentType": 5123,
      "count": 1932,
      "type": "SCALAR"
    },
    {
      "bufferView": 56,
      "componentType": 5126,
      "count": 380,
      "max": [
        0.04396176338195801,
        0.009799927473068237,
        0.04396173357963562
      ],
      "min": [
        -0.04396174103021622,
        -0.002500087022781372,
        -0.0439617782831192
      ],
      "type": "VEC3"
    },
    {
      "bufferView": 57,
      "componentType": 5126,
      "count": 380,
      "type": "VEC3"
    },
    {
      "bufferView": 58,
      "componentType": 5126,
      "count": 380,
      "type": "VEC2"
    },
    {
      "bufferView": 59,
      "componentType": 5123,
      "count": 684,
      "type": "SCALAR"
    },
    {
      "bufferView": 60,
      "componentType": 5126,
      "count": 376,
      "max": [
        0.23800000548362732,
        0.08249999582767487,
        0.0015000104904174805
      ],
      "min": [
        -0.23800000548362732,
        -0.00849999487400055,
        -0.012999996542930603
      ],
      "type": "VEC3"
    },
    {
      "bufferView": 61,
      "componentType": 5126,
      "count": 376,
      "type": "VEC3"
    },
    {
      "bufferView": 62,
      "componentType": 5126,
      "count": 376,
      "type": "VEC2"
    },
    {
      "bufferView": 63,
      "componentType": 5123,
      "count": 528,
      "type": "SCALAR"
    },
    {
      "bufferView": 64,
      "componentType": 5126,
      "count": 756,
      "max": [
        0.13699999451637268,
        0.016000017523765564,
        0.04099998623132706
      ],
      "min": [
        -0.13699999451637268,
        -0.006499990820884705,
        -0.04100001975893974
      ],
      "type": "VEC3"
    },
    {
      "bufferView": 65,
      "componentType": 5126,
      "count": 756,
      "type": "VEC3"
    },
    {
      "bufferView": 66,
      "componentType": 5126,
      "count": 756,
      "type": "VEC2"
    },
    {
      "bufferView": 67,
      "componentType": 5123,
      "count": 1227,
      "type": "SCALAR"
    },
    {
      "bufferView": 68,
      "componentType": 5126,
      "count": 192,
      "max": [
        0.0195000022649765,
        0.028818875551223755,
        0.16899999976158142
      ],
      "min": [
        -0.025500014424324036,
        -0.04150000214576721,
        -0.0130000039935112
      ],
      "type": "VEC3"
    },
    {
      "bufferView": 69,
      "componentType": 5126,
      "count": 192,
      "type": "VEC3"
    },
    {
      "bufferView": 70,
      "componentType": 5126,
      "count": 192,
      "type": "VEC2"
    },
    {
      "bufferView": 71,
      "componentType": 5123,
      "count": 300,
      "type": "SCALAR"
    },
    {
      "bufferView": 72,
      "componentType": 5126,
      "count": 192,
      "max": [
        0.025500014424324036,
        0.028818875551223755,
        0.16899999976158142
      ],
      "min": [
        -0.0195000022649765,
        -0.04150000214576721,
        -0.0130000039935112
      ],
      "type": "VEC3"
    },
    {
      "bufferView": 73,
      "componentType": 5126,
      "count": 192,
      "type": "VEC3"
    },
    {
      "bufferView": 74,
      "componentType": 5126,
      "count": 192,
      "type": "VEC2"
    },
    {
      "bufferView": 75,
      "componentType": 5126,
      "count": 360,
      "max": [
        0.0885000005364418,
        0.015000000596046448,
        0.012000009417533875
      ],
      "min": [
        -0.0885000005364418,
        -0.015000000596046448,
        -0.050999999046325684
      ],
      "type": "VEC3"
    },
    {
      "bufferView": 76,
      "componentType": 5126,
      "count": 360,
      "type": "VEC3"
    },
    {
      "bufferView": 77,
      "componentType": 5126,
      "count": 360,
      "type": "VEC2"
    },
    {
      "bufferView": 78,
      "componentType": 5123,
      "count": 564,
      "type": "SCALAR"
    },
    {
      "bufferView": 79,
      "componentType": 5126,
      "count": 172,
      "max": [
        0.011000007390975952,
        0.20000430941581726,
        0.010999999940395355
      ],
      "min": [
        -0.01621231436729431,
        -0.0010000020265579224,
        -0.01430056244134903
      ],
      "type": "VEC3"
    },
    {
      "bufferView": 80,
      "componentType": 5126,
      "count": 172,
      "type": "VEC3"
    },
    {
      "bufferView": 81,
      "componentType": 5126,
      "count": 172,
      "type": "VEC2"
    },
    {
      "bufferView": 82,
      "componentType": 5123,
      "count": 300,
      "type": "SCALAR"
    }
  ],
  "asset": {
    "generator": "Khronos glTF Blender I/O v5.2.39",
    "version": "2.0"
  },
  "bufferViews": [
    {
      "buffer": 0,
      "byteLength": 19584,
      "byteOffset": 0,
      "target": 34962
    },
    {
      "buffer": 0,
      "byteLength": 19584,
      "byteOffset": 19584,
      "target": 34962
    },
    {
      "buffer": 0,
      "byteLength": 13056,
      "byteOffset": 39168,
      "target": 34962
    },
    {
      "buffer": 0,
      "byteLength": 4368,
      "byteOffset": 52224,
      "target": 34963
    },
    {
      "buffer": 0,
      "byteLength": 7488,
      "byteOffset": 56592,
      "target": 34962
    },
    {
      "buffer": 0,
      "byteLength": 7488,
      "byteOffset": 64080,
      "target": 34962
    },
    {
      "buffer": 0,
      "byteLength": 4992,
      "byteOffset": 71568,
      "target": 34962
    },
    {
      "buffer": 0,
      "byteLength": 1848,
      "byteOffset": 76560,
      "target": 34963
    },
    {
      "buffer": 0,
      "byteLength": 15264,
      "byteOffset": 78408,
      "target": 34962
    },
    {
      "buffer": 0,
      "byteLength": 15264,
      "byteOffset": 93672,
      "target": 34962
    },
    {
      "buffer": 0,
      "byteLength": 10176,
      "byteOffset": 108936,
      "target": 34962
    },
    {
      "buffer": 0,
      "byteLength": 3864,
      "byteOffset": 119112,
      "target": 34963
    },
    {
      "buffer": 0,
      "byteLength": 4560,
      "byteOffset": 122976,
      "target": 34962
    },
    {
      "buffer": 0,
      "byteLength": 4560,
      "byteOffset": 127536,
      "target": 34962
    },
    {
      "buffer": 0,
      "byteLength": 3040,
      "byteOffset": 132096,
      "target": 34962
    },
    {
      "buffer": 0,
      "byteLength": 1368,
      "byteOffset": 135136,
      "target": 34963
    },
    {
      "buffer": 0,
      "byteLength": 13680,
      "byteOffset": 136504,
      "target": 34962
    },
    {
      "buffer": 0,
      "byteLength": 13680,
      "byteOffset": 150184,
      "target": 34962
    },
    {
      "buffer": 0,
      "byteLength": 9120,
      "byteOffset": 163864,
      "target": 34962
    },
    {
      "buffer": 0,
      "byteLength": 3942,
      "byteOffset": 172984,
      "target": 34963
    },
    {
      "buffer": 0,
      "byteLength": 15264,
      "byteOffset": 176928,
      "target": 34962
    },
    {
      "buffer": 0,
      "byteLength": 15264,
      "byteOffset": 192192,
      "target": 34962
    },
    {
      "buffer": 0,
      "byteLength": 10176,
      "byteOffset": 207456,
      "target": 34962
    },
    {
      "buffer": 0,
      "byteLength": 3864,
      "byteOffset": 217632,
      "target": 34963
    },
    {
      "buffer": 0,
      "byteLength": 4560,
      "byteOffset": 221496,
      "target": 34962
    },
    {
      "buffer": 0,
      "byteLength": 4560,
      "byteOffset": 226056,
      "target": 34962
    },
    {
      "buffer": 0,
      "byteLength": 3040,
      "byteOffset": 230616,
      "target": 34962
    },
    {
      "buffer": 0,
      "byteLength": 1368,
      "byteOffset": 233656,
      "target": 34963
    },
    {
      "buffer": 0,
      "byteLength": 15264,
      "byteOffset": 235024,
      "target": 34962
    },
    {
      "buffer": 0,
      "byteLength": 15264,
      "byteOffset": 250288,
      "target": 34962
    },
    {
      "buffer": 0,
      "byteLength": 10176,
      "byteOffset": 265552,
      "target": 34962
    },
    {
      "buffer": 0,
      "byteLength": 3864,
      "byteOffset": 275728,
      "target": 34963
    },
    {
      "buffer": 0,
      "byteLength": 4560,
      "byteOffset": 279592,
      "target": 34962
    },
    {
      "buffer": 0,
      "byteLength": 4560,
      "byteOffset": 284152,
      "target": 34962
    },
    {
      "buffer": 0,
      "byteLength": 3040,
      "byteOffset": 288712,
      "target": 34962
    },
    {
      "buffer": 0,
      "byteLength": 1368,
      "byteOffset": 291752,
      "target": 34963
    },
    {
      "buffer": 0,
      "byteLength": 15264,
      "byteOffset": 293120,
      "target": 34962
    },
    {
      "buffer": 0,
      "byteLength": 15264,
      "byteOffset": 308384,
      "target": 34962
    },
    {
      "buffer": 0,
      "byteLength": 10176,
      "byteOffset": 323648,
      "target": 34962
    },
    {
      "buffer": 0,
      "byteLength": 3864,
      "byteOffset": 333824,
      "target": 34963
    },
    {
      "buffer": 0,
      "byteLength": 4560,
      "byteOffset": 337688,
      "target": 34962
    },
    {
      "buffer": 0,
      "byteLength": 4560,
      "byteOffset": 342248,
      "target": 34962
    },
    {
      "buffer": 0,
      "byteLength": 3040,
      "byteOffset": 346808,
      "target": 34962
    },
    {
      "buffer": 0,
      "byteLength": 1368,
      "byteOffset": 349848,
      "target": 34963
    },
    {
      "buffer": 0,
      "byteLength": 15264,
      "byteOffset": 351216,
      "target": 34962
    },
    {
      "buffer": 0,
      "byteLength": 15264,
      "byteOffset": 366480,
      "target": 34962
    },
    {
      "buffer": 0,
      "byteLength": 10176,
      "byteOffset": 381744,
      "target": 34962
    },
    {
      "buffer": 0,
      "byteLength": 3864,
      "byteOffset": 391920,
      "target": 34963
    },
    {
      "buffer": 0,
      "byteLength": 4560,
      "byteOffset": 395784,
      "target": 34962
    },
    {
      "buffer": 0,
      "byteLength": 4560,
      "byteOffset": 400344,
      "target": 34962
    },
    {
      "buffer": 0,
      "byteLength": 3040,
      "byteOffset": 404904,
      "target": 34962
    },
    {
      "buffer": 0,
      "byteLength": 1368,
      "byteOffset": 407944,
      "target": 34963
    },
    {
      "buffer": 0,
      "byteLength": 15264,
      "byteOffset": 409312,
      "target": 34962
    },
    {
      "buffer": 0,
      "byteLength": 15264,
      "byteOffset": 424576,
      "target": 34962
    },
    {
      "buffer": 0,
      "byteLength": 10176,
      "byteOffset": 439840,
      "target": 34962
    },
    {
      "buffer": 0,
      "byteLength": 3864,
      "byteOffset": 450016,
      "target": 34963
    },
    {
      "buffer": 0,
      "byteLength": 4560,
      "byteOffset": 453880,
      "target": 34962
    },
    {
      "buffer": 0,
      "byteLength": 4560,
      "byteOffset": 458440,
      "target": 34962
    },
    {
      "buffer": 0,
      "byteLength": 3040,
      "byteOffset": 463000,
      "target": 34962
    },
    {
      "buffer": 0,
      "byteLength": 1368,
      "byteOffset": 466040,
      "target": 34963
    },
    {
      "buffer": 0,
      "byteLength": 4512,
      "byteOffset": 467408,
      "target": 34962
    },
    {
      "buffer": 0,
      "byteLength": 4512,
      "byteOffset": 471920,
      "target": 34962
    },
    {
      "buffer": 0,
      "byteLength": 3008,
      "byteOffset": 476432,
      "target": 34962
    },
    {
      "buffer": 0,
      "byteLength": 1056,
      "byteOffset": 479440,
      "target": 34963
    },
    {
      "buffer": 0,
      "byteLength": 9072,
      "byteOffset": 480496,
      "target": 34962
    },
    {
      "buffer": 0,
      "byteLength": 9072,
      "byteOffset": 489568,
      "target": 34962
    },
    {
      "buffer": 0,
      "byteLength": 6048,
      "byteOffset": 498640,
      "target": 34962
    },
    {
      "buffer": 0,
      "byteLength": 2454,
      "byteOffset": 504688,
      "target": 34963
    },
    {
      "buffer": 0,
      "byteLength": 2304,
      "byteOffset": 507144,
      "target": 34962
    },
    {
      "buffer": 0,
      "byteLength": 2304,
      "byteOffset": 509448,
      "target": 34962
    },
    {
      "buffer": 0,
      "byteLength": 1536,
      "byteOffset": 511752,
      "target": 34962
    },
    {
      "buffer": 0,
      "byteLength": 600,
      "byteOffset": 513288,
      "target": 34963
    },
    {
      "buffer": 0,
      "byteLength": 2304,
      "byteOffset": 513888,
      "target": 34962
    },
    {
      "buffer": 0,
      "byteLength": 2304,
      "byteOffset": 516192,
      "target": 34962
    },
    {
      "buffer": 0,
      "byteLength": 1536,
      "byteOffset": 518496,
      "target": 34962
    },
    {
      "buffer": 0,
      "byteLength": 4320,
      "byteOffset": 520032,
      "target": 34962
    },
    {
      "buffer": 0,
      "byteLength": 4320,
      "byteOffset": 524352,
      "target": 34962
    },
    {
      "buffer": 0,
      "byteLength": 2880,
      "byteOffset": 528672,
      "target": 34962
    },
    {
      "buffer": 0,
      "byteLength": 1128,
      "byteOffset": 531552,
      "target": 34963
    },
    {
      "buffer": 0,
      "byteLength": 2064,
      "byteOffset": 532680,
      "target": 34962
    },
    {
      "buffer": 0,
      "byteLength": 2064,
      "byteOffset": 534744,
      "target": 34962
    },
    {
      "buffer": 0,
      "byteLength": 1376,
      "byteOffset": 536808,
      "target": 34962
    },
    {
      "buffer": 0,
      "byteLength": 600,
      "byteOffset": 538184,
      "target": 34963
    }
  ],
  "buffers": [
    {
      "byteLength": 538784,
      "extras": {
        "resourceLocation": "wflib:raw_models/mines/dispenser_at.bin"
      }
    }
  ],
  "images": [
    {
      "extras": {
        "resourceLocation": "wflib:textures/models/mines/dispenser_at_basecolor.png"
      },
      "mimeType": "image/png",
      "name": "AT_Mine_Dispenser_basecolor_512"
    },
    {
      "extras": {
        "resourceLocation": "wflib:textures/models/mines/dispenser_at_orm.png"
      },
      "mimeType": "image/png",
      "name": "AT_Mine_Dispenser_ORM_512"
    }
  ],
  "materials": [
    {
      "doubleSided": true,
      "name": "AT_Mine_Dispenser | worn olive",
      "pbrMetallicRoughness": {
        "baseColorTexture": {
          "index": 0
        },
        "metallicRoughnessTexture": {
          "index": 1
        }
      }
    }
  ],
  "meshes": [
    {
      "name": "Beveled_field_case",
      "primitives": [
        {
          "attributes": {
            "NORMAL": 1,
            "POSITION": 0,
            "TEXCOORD_0": 2
          },
          "indices": 3,
          "material": 0
        }
      ]
    },
    {
      "name": "Canister_support_tray",
      "primitives": [
        {
          "attributes": {
            "NORMAL": 5,
            "POSITION": 4,
            "TEXCOORD_0": 6
          },
          "indices": 7,
          "material": 0
        }
      ]
    },
    {
      "name": "Open_tube_outer_shell",
      "primitives": [
        {
          "attributes": {
            "NORMAL": 9,
            "POSITION": 8,
            "TEXCOORD_0": 10
          },
          "indices": 11,
          "material": 0
        }
      ]
    },
    {
      "name": "Removable_tube_cap",
      "primitives": [
        {
          "attributes": {
            "NORMAL": 13,
            "POSITION": 12,
            "TEXCOORD_0": 14
          },
          "indices": 15,
          "material": 0
        }
      ]
    },
    {
      "name": "Stowed_mine_case",
      "primitives": [
        {
          "attributes": {
            "NORMAL": 17,
            "POSITION": 16,
            "TEXCOORD_0": 18
          },
          "indices": 19,
          "material": 0
        }
      ]
    },
    {
      "name": "Open_tube_outer_shell.001",
      "primitives": [
        {
          "attributes": {
            "NORMAL": 21,
            "POSITION": 20,
            "TEXCOORD_0": 22
          },
          "indices": 23,
          "material": 0
        }
      ]
    },
    {
      "name": "Removable_tube_cap.001",
      "primitives": [
        {
          "attributes": {
            "NORMAL": 25,
            "POSITION": 24,
            "TEXCOORD_0": 26
          },
          "indices": 27,
          "material": 0
        }
      ]
    },
    {
      "name": "Open_tube_outer_shell.002",
      "primitives": [
        {
          "attributes": {
            "NORMAL": 29,
            "POSITION": 28,
            "TEXCOORD_0": 30
          },
          "indices": 31,
          "material": 0
        }
      ]
    },
    {
      "name": "Removable_tube_cap.002",
      "primitives": [
        {
          "attributes": {
            "NORMAL": 33,
            "POSITION": 32,
            "TEXCOORD_0": 34
          },
          "indices": 35,
          "material": 0
        }
      ]
    },
    {
      "name": "Open_tube_outer_shell.003",
      "primitives": [
        {
          "attributes": {
            "NORMAL": 37,
            "POSITION": 36,
            "TEXCOORD_0": 38
          },
          "indices": 39,
          "material": 0
        }
      ]
    },
    {
      "name": "Removable_tube_cap.003",
      "primitives": [
        {
          "attributes": {
            "NORMAL": 41,
            "POSITION": 40,
            "TEXCOORD_0": 42
          },
          "indices": 43,
          "material": 0
        }
      ]
    },
    {
      "name": "Open_tube_outer_shell.004",
      "primitives": [
        {
          "attributes": {
            "NORMAL": 45,
            "POSITION": 44,
            "TEXCOORD_0": 46
          },
          "indices": 47,
          "material": 0
        }
      ]
    },
    {
      "name": "Removable_tube_cap.004",
      "primitives": [
        {
          "attributes": {
            "NORMAL": 49,
            "POSITION": 48,
            "TEXCOORD_0": 50
          },
          "indices": 51,
          "material": 0
        }
      ]
    },
    {
      "name": "Open_tube_outer_shell.005",
      "primitives": [
        {
          "attributes": {
            "NORMAL": 53,
            "POSITION": 52,
            "TEXCOORD_0": 54
          },
          "indices": 55,
          "material": 0
        }
      ]
    },
    {
      "name": "Removable_tube_cap.005",
      "primitives": [
        {
          "attributes": {
            "NORMAL": 57,
            "POSITION": 56,
            "TEXCOORD_0": 58
          },
          "indices": 59,
          "material": 0
        }
      ]
    },
    {
      "name": "Rear_guard_panel",
      "primitives": [
        {
          "attributes": {
            "NORMAL": 61,
            "POSITION": 60,
            "TEXCOORD_0": 62
          },
          "indices": 63,
          "material": 0
        }
      ]
    },
    {
      "name": "Instrument_panel_surround",
      "primitives": [
        {
          "attributes": {
            "NORMAL": 65,
            "POSITION": 64,
            "TEXCOORD_0": 66
          },
          "indices": 67,
          "material": 0
        }
      ]
    },
    {
      "name": "Folding_support_foot",
      "primitives": [
        {
          "attributes": {
            "NORMAL": 69,
            "POSITION": 68,
            "TEXCOORD_0": 70
          },
          "indices": 71,
          "material": 0
        }
      ]
    },
    {
      "name": "Folding_support_foot.001",
      "primitives": [
        {
          "attributes": {
            "NORMAL": 73,
            "POSITION": 72,
            "TEXCOORD_0": 74
          },
          "indices": 71,
          "material": 0
        }
      ]
    },
    {
      "name": "Carry_handle_mount",
      "primitives": [
        {
          "attributes": {
            "NORMAL": 76,
            "POSITION": 75,
            "TEXCOORD_0": 77
          },
          "indices": 78,
          "material": 0
        }
      ]
    },
    {
      "name": "Antenna_foot",
      "primitives": [
        {
          "attributes": {
            "NORMAL": 80,
            "POSITION": 79,
            "TEXCOORD_0": 81
          },
          "indices": 82,
          "material": 0
        }
      ]
    }
  ],
  "nodes": [
    {
      "extras": {
        "surface": "paint"
      },
      "mesh": 0,
      "name": "01_BASE_CASE_mesh"
    },
    {
      "children": [
        0
      ],
      "extras": {
        "removable_module": true
      },
      "name": "01_BASE_CASE"
    },
    {
      "extras": {
        "surface": "darkpaint"
      },
      "mesh": 1,
      "name": "02_RACK_FRAME_mesh"
    },
    {
      "extras": {
        "surface": "paint"
      },
      "mesh": 2,
      "name": "03_CANISTER_01_mesh"
    },
    {
      "extras": {
        "surface": "edge"
      },
      "mesh": 3,
      "name": "09_TUBE_CAP_01_mesh"
    },
    {
      "children": [
        4
      ],
      "extras": {
        "part_type": "removable_cap",
        "removable_module": true,
        "slot": 1
      },
      "name": "09_TUBE_CAP_01",
      "translation": [
        0,
        0.1690000295639038,
        0
      ]
    },
    {
      "extras": {
        "surface": "paint"
      },
      "mesh": 4,
      "name": "10_STOWED_MINE_01_mesh"
    },
    {
      "children": [
        6
      ],
      "extras": {
        "matching_asset": "AT_Scatter_Mine",
        "move_axis": "local Z",
        "part_type": "removable_mine",
        "pose": "stowed exterior",
        "removable_module": true,
        "slot": 1
      },
      "name": "10_STOWED_MINE_01",
      "translation": [
        0,
        0.060499995946884155,
        0
      ]
    },
    {
      "children": [
        3,
        5,
        7
      ],
      "extras": {
        "part_type": "hollow_tube",
        "removable_module": true,
        "slot": 1
      },
      "name": "03_CANISTER_01",
      "rotation": [
        0.090821772813797,
        -0.5639901161193848,
        0.06258996576070786,
        0.8183820247650146
      ],
      "translation": [
        -0.15000000596046448,
        0.011999974027276039,
        0.046000003814697266
      ]
    },
    {
      "extras": {
        "surface": "paint"
      },
      "mesh": 5,
      "name": "03_CANISTER_02_mesh"
    },
    {
      "extras": {
        "surface": "edge"
      },
      "mesh": 6,
      "name": "09_TUBE_CAP_02_mesh"
    },
    {
      "children": [
        10
      ],
      "extras": {
        "part_type": "removable_cap",
        "removable_module": true,
        "slot": 2
      },
      "name": "09_TUBE_CAP_02",
      "translation": [
        0,
        0.16899999976158142,
        0
      ]
    },
    {
      "extras": {
        "surface": "paint"
      },
      "mesh": 4,
      "name": "10_STOWED_MINE_02_mesh"
    },
    {
      "children": [
        12
      ],
      "extras": {
        "matching_asset": "AT_Scatter_Mine",
        "move_axis": "local Z",
        "part_type": "removable_mine",
        "pose": "stowed exterior",
        "removable_module": true,
        "slot": 2
      },
      "name": "10_STOWED_MINE_02",
      "translation": [
        0,
        0.06050001084804535,
        0
      ]
    },
    {
      "children": [
        9,
        11,
        13
      ],
      "extras": {
        "part_type": "hollow_tube",
        "removable_module": true,
        "slot": 2
      },
      "name": "03_CANISTER_02",
      "rotation": [
        0.03990411385893822,
        0,
        0,
        0.9992035627365112
      ],
      "translation": [
        0,
        0.011999974027276039,
        0.046000003814697266
      ]
    },
    {
      "extras": {
        "surface": "paint"
      },
      "mesh": 7,
      "name": "03_CANISTER_03_mesh"
    },
    {
      "extras": {
        "surface": "edge"
      },
      "mesh": 8,
      "name": "09_TUBE_CAP_03_mesh"
    },
    {
      "children": [
        16
      ],
      "extras": {
        "part_type": "removable_cap",
        "removable_module": true,
        "slot": 3
      },
      "name": "09_TUBE_CAP_03",
      "translation": [
        0,
        0.1690000295639038,
        0
      ]
    },
    {
      "extras": {
        "surface": "paint"
      },
      "mesh": 4,
      "name": "10_STOWED_MINE_03_mesh"
    },
    {
      "children": [
        18
      ],
      "extras": {
        "matching_asset": "AT_Scatter_Mine",
        "move_axis": "local Z",
        "part_type": "removable_mine",
        "pose": "stowed exterior",
        "removable_module": true,
        "slot": 3
      },
      "name": "10_STOWED_MINE_03",
      "translation": [
        0,
        0.060499995946884155,
        0
      ]
    },
    {
      "children": [
        15,
        17,
        19
      ],
      "extras": {
        "part_type": "hollow_tube",
        "removable_module": true,
        "slot": 3
      },
      "name": "03_CANISTER_03",
      "rotation": [
        0.090821772813797,
        0.5639901161193848,
        -0.06258996576070786,
        0.8183820247650146
      ],
      "translation": [
        0.15000000596046448,
        0.011999974027276039,
        0.046000003814697266
      ]
    },
    {
      "extras": {
        "surface": "paint"
      },
      "mesh": 9,
      "name": "03_CANISTER_04_mesh"
    },
    {
      "extras": {
        "surface": "edge"
      },
      "mesh": 10,
      "name": "09_TUBE_CAP_04_mesh"
    },
    {
      "children": [
        22
      ],
      "extras": {
        "part_type": "removable_cap",
        "removable_module": true,
        "slot": 4
      },
      "name": "09_TUBE_CAP_04",
      "translation": [
        0,
        0.1690000593662262,
        0
      ]
    },
    {
      "extras": {
        "surface": "paint"
      },
      "mesh": 4,
      "name": "10_STOWED_MINE_04_mesh"
    },
    {
      "children": [
        24
      ],
      "extras": {
        "matching_asset": "AT_Scatter_Mine",
        "move_axis": "local Z",
        "part_type": "removable_mine",
        "pose": "stowed exterior",
        "removable_module": true,
        "slot": 4
      },
      "name": "10_STOWED_MINE_04",
      "translation": [
        0,
        0.06050000339746475,
        0
      ]
    },
    {
      "children": [
        21,
        23,
        25
      ],
      "extras": {
        "part_type": "hollow_tube",
        "removable_module": true,
        "slot": 4
      },
      "name": "03_CANISTER_04",
      "rotation": [
        0.0625901073217392,
        -0.8183820843696594,
        0.09082171320915222,
        0.5639899969100952
      ],
      "translation": [
        -0.15000000596046448,
        0.011999975889921188,
        -0.05299999564886093
      ]
    },
    {
      "extras": {
        "surface": "paint"
      },
      "mesh": 11,
      "name": "03_CANISTER_05_mesh"
    },
    {
      "extras": {
        "surface": "edge"
      },
      "mesh": 12,
      "name": "09_TUBE_CAP_05_mesh"
    },
    {
      "children": [
        28
      ],
      "extras": {
        "part_type": "removable_cap",
        "removable_module": true,
        "slot": 5
      },
      "name": "09_TUBE_CAP_05",
      "translation": [
        0,
        0.16900001466274261,
        0
      ]
    },
    {
      "extras": {
        "surface": "paint"
      },
      "mesh": 4,
      "name": "10_STOWED_MINE_05_mesh"
    },
    {
      "children": [
        30
      ],
      "extras": {
        "matching_asset": "AT_Scatter_Mine",
        "move_axis": "local Z",
        "part_type": "removable_mine",
        "pose": "stowed exterior",
        "removable_module": true,
        "slot": 5
      },
      "name": "10_STOWED_MINE_05",
      "translation": [
        0,
        0.060500018298625946,
        0
      ]
    },
    {
      "children": [
        27,
        29,
        31
      ],
      "extras": {
        "part_type": "hollow_tube",
        "removable_module": true,
        "slot": 5
      },
      "name": "03_CANISTER_05",
      "rotation": [
        0,
        -0.9992035031318665,
        0.03990468382835388,
        7.557686387826834e-08
      ],
      "translation": [
        0,
        0.011999975889921188,
        -0.05299999564886093
      ]
    },
    {
      "extras": {
        "surface": "paint"
      },
      "mesh": 13,
      "name": "03_CANISTER_06_mesh"
    },
    {
      "extras": {
        "surface": "edge"
      },
      "mesh": 14,
      "name": "09_TUBE_CAP_06_mesh"
    },
    {
      "children": [
        34
      ],
      "extras": {
        "part_type": "removable_cap",
        "removable_module": true,
        "slot": 6
      },
      "name": "09_TUBE_CAP_06",
      "translation": [
        0,
        0.1690000593662262,
        0
      ]
    },
    {
      "extras": {
        "surface": "paint"
      },
      "mesh": 4,
      "name": "10_STOWED_MINE_06_mesh"
    },
    {
      "children": [
        36
      ],
      "extras": {
        "matching_asset": "AT_Scatter_Mine",
        "move_axis": "local Z",
        "part_type": "removable_mine",
        "pose": "stowed exterior",
        "removable_module": true,
        "slot": 6
      },
      "name": "10_STOWED_MINE_06",
      "translation": [
        0,
        0.06050000339746475,
        0
      ]
    },
    {
      "children": [
        33,
        35,
        37
      ],
      "extras": {
        "part_type": "hollow_tube",
        "removable_module": true,
        "slot": 6
      },
      "name": "03_CANISTER_06",
      "rotation": [
        0.0625901073217392,
        0.8183820843696594,
        -0.09082171320915222,
        0.5639899969100952
      ],
      "translation": [
        0.15000000596046448,
        0.011999975889921188,
        -0.05299999564886093
      ]
    },
    {
      "extras": {
        "surface": "paint"
      },
      "mesh": 15,
      "name": "04_REAR_RACK_GUARD_mesh"
    },
    {
      "children": [
        39
      ],
      "extras": {
        "removable_module": true
      },
      "name": "04_REAR_RACK_GUARD",
      "translation": [
        0,
        0.021999984979629517,
        -0.10400000959634781
      ]
    },
    {
      "children": [
        2,
        8,
        14,
        20,
        26,
        32,
        38,
        40
      ],
      "extras": {
        "removable_module": true
      },
      "name": "02_RACK_FRAME",
      "rotation": [
        0.1736481636762619,
        0,
        0,
        0.9848077893257141
      ],
      "translation": [
        0,
        0.15700000524520874,
        -0.029999999329447746
      ]
    },
    {
      "extras": {
        "surface": "edge"
      },
      "mesh": 16,
      "name": "05_CONTROL_PANEL_mesh"
    },
    {
      "children": [
        42
      ],
      "extras": {
        "removable_module": true
      },
      "name": "05_CONTROL_PANEL",
      "rotation": [
        0.13052619993686676,
        0,
        0,
        0.9914448857307434
      ],
      "translation": [
        0,
        0.14499999582767487,
        0.10100000351667404
      ]
    },
    {
      "extras": {
        "surface": "darkpaint"
      },
      "mesh": 17,
      "name": "06_FOOT_L_mesh"
    },
    {
      "children": [
        44
      ],
      "extras": {
        "removable_module": true
      },
      "name": "06_FOOT_L",
      "translation": [
        -0.20499999821186066,
        0.04500000178813934,
        0.0860000029206276
      ]
    },
    {
      "extras": {
        "surface": "darkpaint"
      },
      "mesh": 18,
      "name": "06_FOOT_R_mesh"
    },
    {
      "children": [
        46
      ],
      "extras": {
        "removable_module": true
      },
      "name": "06_FOOT_R",
      "translation": [
        0.20499999821186066,
        0.04500000178813934,
        0.0860000029206276
      ]
    },
    {
      "extras": {
        "surface": "steel"
      },
      "mesh": 19,
      "name": "07_CARRY_HANDLE_mesh"
    },
    {
      "children": [
        48
      ],
      "extras": {
        "removable_module": true
      },
      "name": "07_CARRY_HANDLE",
      "translation": [
        0,
        0.09099999815225601,
        -0.15000000596046448
      ]
    },
    {
      "extras": {
        "surface": "rubber"
      },
      "mesh": 20,
      "name": "08_ANTENNA_mesh"
    },
    {
      "children": [
        50
      ],
      "extras": {
        "removable_module": true
      },
      "name": "08_ANTENNA",
      "translation": [
        0.2240000069141388,
        0.14300000667572021,
        -0.11400000005960464
      ]
    },
    {
      "children": [
        1,
        41,
        43,
        45,
        47,
        49,
        51
      ],
      "extras": {
        "axes": "Metres; +Z up; -Y front.",
        "description": "AT mine dispenser; fictional exterior game prop; EMB4-inspired finish"
      },
      "name": "AT_Mine_Dispenser_ROOT",
      "scale": [
        2.8,
        2.8,
        2.8
      ],
      "translation": [
        0.0,
        -0.009799998998641965,
        0.0
      ]
    }
  ],
  "samplers": [
    {
      "magFilter": 9728,
      "minFilter": 9984
    },
    {
      "magFilter": 9729,
      "minFilter": 9987
    }
  ],
  "scene": 0,
  "scenes": [
    {
      "name": "Scene",
      "nodes": [
        52
      ]
    }
  ],
  "textures": [
    {
      "sampler": 0,
      "source": 0
    },
    {
      "sampler": 1,
      "source": 1
    }
  ]
}