{"asset":{"generator":"Khronos glTF Blender I/O v5.2.39","version":"2.0"},"scene":0,"scenes":[{"name":"Scene","nodes":[8]}],"nodes":[{"extras":{"surface":"paint"},"mesh":0,"name":"01_HEAVY_CASE_mesh"},{"children":[0],"extras":{"removable_module":true},"name":"01_HEAVY_CASE"},{"extras":{"surface":"rubber"},"mesh":1,"name":"02_TOP_DISC_mesh"},{"children":[2],"extras":{"removable_module":true},"name":"02_TOP_DISC","translation":[0,0.06499999761581421,0]},{"extras":{"surface":"edge"},"mesh":2,"name":"03_CARRY_HANDLE_mesh"},{"children":[4],"extras":{"removable_module":true},"name":"03_CARRY_HANDLE","translation":[0,0.03700000047683716,-0.164000004529953]},{"extras":{"surface":"darkpaint"},"mesh":3,"name":"04_BASE_mesh"},{"children":[6],"extras":{"removable_module":true},"name":"04_BASE"},{"children":[1,3,5,7],"extras":{"description":"Anti-armor mine; fictional exterior game prop; EMB4-inspired finish","axes":"Metres; +Z up; -Y front."},"name":"Anti_Armour_Mine_ROOT","scale":[2.8,2.8,2.8]}],"materials":[{"doubleSided":true,"name":"Anti_Armour_Mine | worn olive","pbrMetallicRoughness":{"baseColorTexture":{"index":0},"metallicRoughnessTexture":{"index":1}}}],"meshes":[{"name":"Broad_armored_case","primitives":[{"attributes":{"POSITION":0,"NORMAL":1,"TEXCOORD_0":2},"indices":3,"material":0}]},{"name":"Top_plate_seal","primitives":[{"attributes":{"POSITION":4,"NORMAL":5,"TEXCOORD_0":6},"indices":7,"material":0}]},{"name":"Carry_mount","primitives":[{"attributes":{"POSITION":8,"NORMAL":9,"TEXCOORD_0":10},"indices":11,"material":0}]},{"name":"Recessed_base","primitives":[{"attributes":{"POSITION":12,"NORMAL":13,"TEXCOORD_0":14},"indices":15,"material":0}]}],"textures":[{"sampler":0,"source":0},{"sampler":1,"source":1}],"images":[{"mimeType":"image/png","name":"Anti_Armour_Mine_basecolor_512","extras":{"resourceLocation":"wflib:textures/models/mines/heat_basecolor.png"}},{"mimeType":"image/png","name":"Anti_Armour_Mine_ORM_512","extras":{"resourceLocation":"wflib:textures/models/mines/heat_orm.png"}}],"accessors":[{"bufferView":0,"componentType":5126,"count":1616,"max":[0.1655000001192093,0.06700000166893005,0.1655000001192093],"min":[-0.1655000001192093,0.003000000026077032,-0.1655000001192093],"type":"VEC3"},{"bufferView":1,"componentType":5126,"count":1616,"type":"VEC3"},{"bufferView":2,"componentType":5126,"count":1616,"type":"VEC2"},{"bufferView":3,"componentType":5123,"count":2664,"type":"SCALAR"},{"bufferView":4,"componentType":5126,"count":1696,"max":[0.12800000607967377,0.01600000262260437,0.12800000607967377],"min":[-0.12800000607967377,0,-0.12800000607967377],"type":"VEC3"},{"bufferView":5,"componentType":5126,"count":1696,"type":"VEC3"},{"bufferView":6,"componentType":5126,"count":1696,"type":"VEC2"},{"bufferView":7,"componentType":5123,"count":2706,"type":"SCALAR"},{"bufferView":8,"componentType":5126,"count":336,"max":[0.0625,0.00899999588727951,0.011500000953674316],"min":[-0.0625,-0.011000001803040504,-0.038499996066093445],"type":"VEC3"},{"bufferView":9,"componentType":5126,"count":336,"type":"VEC3"},{"bufferView":10,"componentType":5126,"count":336,"type":"VEC2"},{"bufferView":11,"componentType":5123,"count":516,"type":"SCALAR"},{"bufferView":12,"componentType":5126,"count":192,"max":[0.14100000262260437,0.007000000216066837,0.14100000262260437],"min":[-0.14100000262260437,0.0010000000474974513,-0.14100000262260437],"type":"VEC3"},{"bufferView":13,"componentType":5126,"count":192,"type":"VEC3"},{"bufferView":14,"componentType":5126,"count":192,"type":"VEC2"},{"bufferView":15,"componentType":5123,"count":372,"type":"SCALAR"}],"bufferViews":[{"buffer":0,"byteLength":19392,"byteOffset":0,"target":34962},{"buffer":0,"byteLength":19392,"byteOffset":19392,"target":34962},{"buffer":0,"byteLength":12928,"byteOffset":38784,"target":34962},{"buffer":0,"byteLength":5328,"byteOffset":51712,"target":34963},{"buffer":0,"byteLength":20352,"byteOffset":57040,"target":34962},{"buffer":0,"byteLength":20352,"byteOffset":77392,"target":34962},{"buffer":0,"byteLength":13568,"byteOffset":97744,"target":34962},{"buffer":0,"byteLength":5412,"byteOffset":111312,"target":34963},{"buffer":0,"byteLength":4032,"byteOffset":116724,"target":34962},{"buffer":0,"byteLength":4032,"byteOffset":120756,"target":34962},{"buffer":0,"byteLength":2688,"byteOffset":124788,"target":34962},{"buffer":0,"byteLength":1032,"byteOffset":127476,"target":34963},{"buffer":0,"byteLength":2304,"byteOffset":128508,"target":34962},{"buffer":0,"byteLength":2304,"byteOffset":130812,"target":34962},{"buffer":0,"byteLength":1536,"byteOffset":133116,"target":34962},{"buffer":0,"byteLength":744,"byteOffset":134652,"target":34963}],"samplers":[{"magFilter":9728,"minFilter":9984},{"magFilter":9729,"minFilter":9987}],"buffers":[{"byteLength":135396,"extras":{"resourceLocation":"wflib:raw_models/mines/heat.bin"}}]}