{"asset":{"generator":"Khronos glTF Blender I/O v5.2.39","version":"2.0"},"scene":0,"scenes":[{"name":"Scene","nodes":[28]}],"nodes":[{"extras":{"surface":"paint"},"mesh":0,"name":"01_LOWER_SHELL_mesh"},{"children":[0],"extras":{"removable_module":true},"name":"01_LOWER_SHELL","translation":[0,0.6499999761581421,0]},{"extras":{"surface":"paint"},"mesh":1,"name":"02_UPPER_SHELL_mesh"},{"children":[2],"extras":{"removable_module":true},"name":"02_UPPER_SHELL","translation":[0,0.6499999761581421,0]},{"extras":{"surface":"darkpaint"},"mesh":2,"name":"03_EQUATOR_BAND_mesh"},{"children":[4],"extras":{"removable_module":true},"name":"03_EQUATOR_BAND","translation":[0,0.6499999761581421,0]},{"extras":{"surface":"edge"},"mesh":3,"name":"04_HORN_01_mesh"},{"children":[6],"extras":{"removable_module":true},"name":"04_HORN_01","translation":[0.4020223319530487,0.9556190967559814,0]},{"extras":{"surface":"edge"},"mesh":4,"name":"04_HORN_02_mesh"},{"children":[8],"extras":{"removable_module":true},"name":"04_HORN_02","translation":[0,0.9556190967559814,-0.4020223319530487]},{"extras":{"surface":"edge"},"mesh":5,"name":"04_HORN_03_mesh"},{"children":[10],"extras":{"removable_module":true},"name":"04_HORN_03","translation":[-0.4020223319530487,0.9556190967559814,0]},{"extras":{"surface":"edge"},"mesh":6,"name":"04_HORN_04_mesh"},{"children":[12],"extras":{"removable_module":true},"name":"04_HORN_04","translation":[0,0.9556190967559814,0.4020223319530487]},{"extras":{"surface":"edge"},"mesh":7,"name":"04_HORN_05_mesh"},{"children":[14],"extras":{"removable_module":true},"name":"04_HORN_05","translation":[0.34997090697288513,0.5496719479560852,-0.34997090697288513]},{"extras":{"surface":"edge"},"mesh":8,"name":"04_HORN_06_mesh"},{"children":[16],"extras":{"removable_module":true},"name":"04_HORN_06","translation":[-0.34997090697288513,0.5496719479560852,-0.34997090697288513]},{"extras":{"surface":"edge"},"mesh":9,"name":"04_HORN_07_mesh"},{"children":[18],"extras":{"removable_module":true},"name":"04_HORN_07","translation":[-0.34997090697288513,0.5496719479560852,0.34997090697288513]},{"extras":{"surface":"edge"},"mesh":10,"name":"04_HORN_08_mesh"},{"children":[20],"extras":{"removable_module":true},"name":"04_HORN_08","translation":[0.34997090697288513,0.5496719479560852,0.34997090697288513]},{"extras":{"surface":"edge"},"mesh":11,"name":"04_HORN_09_mesh"},{"children":[22],"extras":{"removable_module":true},"name":"04_HORN_09","translation":[0,1.1549999713897705,0]},{"extras":{"surface":"edge"},"mesh":12,"name":"05_LOWER_LUG_mesh"},{"children":[24],"extras":{"removable_module":true},"name":"05_LOWER_LUG","translation":[0,0.12999999523162842,0]},{"extras":{"surface":"stencil"},"mesh":13,"name":"06_MARKINGS_mesh"},{"children":[26],"extras":{"removable_module":true},"name":"06_MARKINGS"},{"children":[1,3,5,7,9,11,13,15,17,19,21,23,25,27],"extras":{"description":"Naval mine; fictional exterior game prop; EMB4-inspired finish","axes":"Metres; +Z up; -Y front."},"name":"Naval_Mine_ROOT"}],"materials":[{"doubleSided":true,"name":"Naval_Mine | worn olive","pbrMetallicRoughness":{"baseColorTexture":{"index":0},"metallicRoughnessTexture":{"index":1}}}],"meshes":[{"name":"Spherical_casing","primitives":[{"attributes":{"POSITION":0,"NORMAL":1,"TEXCOORD_0":2},"indices":3,"material":0}]},{"name":"Spherical_casing.001","primitives":[{"attributes":{"POSITION":4,"NORMAL":5,"TEXCOORD_0":6},"indices":7,"material":0}]},{"name":"Equator_joint","primitives":[{"attributes":{"POSITION":8,"NORMAL":9,"TEXCOORD_0":10},"indices":11,"material":0}]},{"name":"Horn_flange","primitives":[{"attributes":{"POSITION":12,"NORMAL":13,"TEXCOORD_0":14},"indices":15,"material":0}]},{"name":"Horn_flange.001","primitives":[{"attributes":{"POSITION":16,"NORMAL":17,"TEXCOORD_0":18},"indices":19,"material":0}]},{"name":"Horn_flange.002","primitives":[{"attributes":{"POSITION":20,"NORMAL":21,"TEXCOORD_0":22},"indices":23,"material":0}]},{"name":"Horn_flange.003","primitives":[{"attributes":{"POSITION":24,"NORMAL":25,"TEXCOORD_0":26},"indices":27,"material":0}]},{"name":"Horn_flange.004","primitives":[{"attributes":{"POSITION":28,"NORMAL":29,"TEXCOORD_0":30},"indices":31,"material":0}]},{"name":"Horn_flange.005","primitives":[{"attributes":{"POSITION":32,"NORMAL":33,"TEXCOORD_0":34},"indices":35,"material":0}]},{"name":"Horn_flange.006","primitives":[{"attributes":{"POSITION":36,"NORMAL":37,"TEXCOORD_0":38},"indices":39,"material":0}]},{"name":"Horn_flange.007","primitives":[{"attributes":{"POSITION":40,"NORMAL":41,"TEXCOORD_0":42},"indices":43,"material":0}]},{"name":"Horn_flange.008","primitives":[{"attributes":{"POSITION":44,"NORMAL":45,"TEXCOORD_0":46},"indices":47,"material":0}]},{"name":"Lower_lug_block","primitives":[{"attributes":{"POSITION":48,"NORMAL":49,"TEXCOORD_0":50},"indices":51,"material":0}]},{"name":"Naval_ID.001","primitives":[{"attributes":{"POSITION":52,"NORMAL":53,"TEXCOORD_0":54},"indices":55,"material":0}]}],"textures":[{"sampler":0,"source":0},{"sampler":1,"source":1}],"images":[{"mimeType":"image/png","name":"Naval_Mine_basecolor_512","extras":{"resourceLocation":"wflib:textures/models/mines/naval_basecolor.png"}},{"mimeType":"image/png","name":"Naval_Mine_ORM_512","extras":{"resourceLocation":"wflib:textures/models/mines/naval_orm.png"}}],"accessors":[{"bufferView":0,"componentType":5126,"count":832,"max":[0.5199999809265137,0,0.5199999809265137],"min":[-0.5199999809265137,-0.5196832418441772,-0.5199999809265137],"type":"VEC3"},{"bufferView":1,"componentType":5126,"count":832,"type":"VEC3"},{"bufferView":2,"componentType":5126,"count":832,"type":"VEC2"},{"bufferView":3,"componentType":5123,"count":1332,"type":"SCALAR"},{"bufferView":4,"componentType":5126,"count":832,"max":[0.5199999809265137,0.5196832418441772,0.5199999809265137],"min":[-0.5199999809265137,0,-0.5199999809265137],"type":"VEC3"},{"bufferView":5,"componentType":5126,"count":832,"type":"VEC3"},{"bufferView":6,"componentType":5126,"count":832,"type":"VEC2"},{"bufferView":7,"componentType":5123,"count":1332,"type":"SCALAR"},{"bufferView":8,"componentType":5126,"count":1168,"max":[0.5394999980926514,0.018000006675720215,0.5394999980926514],"min":[-0.5394999980926514,-0.018000006675720215,-0.5394999980926514],"type":"VEC3"},{"bufferView":9,"componentType":5126,"count":1168,"type":"VEC3"},{"bufferView":10,"componentType":5126,"count":1168,"type":"VEC2"},{"bufferView":11,"componentType":5123,"count":1908,"type":"SCALAR"},{"bufferView":12,"componentType":5126,"count":336,"max":[0.1774657666683197,0.14062261581420898,0.05700000002980232],"min":[-0.03389045596122742,-0.044580698013305664,-0.05700000002980232],"type":"VEC3"},{"bufferView":13,"componentType":5126,"count":336,"type":"VEC3"},{"bufferView":14,"componentType":5126,"count":336,"type":"VEC2"},{"bufferView":15,"componentType":5123,"count":552,"type":"SCALAR"},{"bufferView":16,"componentType":5126,"count":336,"max":[0.05700000002980232,0.14062261581420898,0.03389045596122742],"min":[-0.05700000002980232,-0.044580698013305664,-0.1774657666683197],"type":"VEC3"},{"bufferView":17,"componentType":5126,"count":336,"type":"VEC3"},{"bufferView":18,"componentType":5126,"count":336,"type":"VEC2"},{"bufferView":19,"componentType":5123,"count":552,"type":"SCALAR"},{"bufferView":20,"componentType":5126,"count":336,"max":[0.03389045596122742,0.14062261581420898,0.05700000002980232],"min":[-0.1774657666683197,-0.044580698013305664,-0.05700000002980232],"type":"VEC3"},{"bufferView":21,"componentType":5126,"count":336,"type":"VEC3"},{"bufferView":22,"componentType":5126,"count":336,"type":"VEC2"},{"bufferView":23,"componentType":5123,"count":552,"type":"SCALAR"},{"bufferView":24,"componentType":5126,"count":336,"max":[0.05700000002980232,0.14062261581420898,0.1774657666683197],"min":[-0.05700000002980232,-0.044580698013305664,-0.03389045596122742],"type":"VEC3"},{"bufferView":25,"componentType":5126,"count":336,"type":"VEC3"},{"bufferView":26,"componentType":5126,"count":336,"type":"VEC2"},{"bufferView":27,"componentType":5123,"count":552,"type":"SCALAR"},{"bufferView":28,"componentType":5126,"count":336,"max":[0.1576826274394989,0.053831636905670166,0.040371865034103394],"min":[-0.040024012327194214,-0.0606512725353241,-0.15778818726539612],"type":"VEC3"},{"bufferView":29,"componentType":5126,"count":336,"type":"VEC3"},{"bufferView":30,"componentType":5126,"count":336,"type":"VEC2"},{"bufferView":31,"componentType":5123,"count":552,"type":"SCALAR"},{"bufferView":32,"componentType":5126,"count":336,"max":[0.040024012327194214,0.053831636905670166,0.040371865034103394],"min":[-0.1576826274394989,-0.0606512725353241,-0.15778818726539612],"type":"VEC3"},{"bufferView":33,"componentType":5126,"count":336,"type":"VEC3"},{"bufferView":34,"componentType":5126,"count":336,"type":"VEC2"},{"bufferView":35,"componentType":5123,"count":552,"type":"SCALAR"},{"bufferView":36,"componentType":5126,"count":336,"max":[0.040024012327194214,0.053831636905670166,0.15778818726539612],"min":[-0.1576826274394989,-0.0606512725353241,-0.040371865034103394],"type":"VEC3"},{"bufferView":37,"componentType":5126,"count":336,"type":"VEC3"},{"bufferView":38,"componentType":5126,"count":336,"type":"VEC2"},{"bufferView":39,"componentType":5123,"count":552,"type":"SCALAR"},{"bufferView":40,"componentType":5126,"count":336,"max":[0.1576826274394989,0.053831636905670166,0.15778818726539612],"min":[-0.040024012327194214,-0.0606512725353241,-0.040371865034103394],"type":"VEC3"},{"bufferView":41,"componentType":5126,"count":336,"type":"VEC3"},{"bufferView":42,"componentType":5126,"count":336,"type":"VEC2"},{"bufferView":43,"componentType":5123,"count":552,"type":"SCALAR"},{"bufferView":44,"componentType":5126,"count":336,"max":[0.05700000002980232,0.21399998664855957,0.05700000002980232],"min":[-0.05700000002980232,0,-0.05700000002980232],"type":"VEC3"},{"bufferView":45,"componentType":5126,"count":336,"type":"VEC3"},{"bufferView":46,"componentType":5126,"count":336,"type":"VEC2"},{"bufferView":47,"componentType":5123,"count":552,"type":"SCALAR"},{"bufferView":48,"componentType":5126,"count":480,"max":[0.06300000101327896,0.04450000822544098,0.05000000074505806],"min":[-0.06300000101327896,-0.12099999934434891,-0.05000000074505806],"type":"VEC3"},{"bufferView":49,"componentType":5126,"count":480,"type":"VEC3"},{"bufferView":50,"componentType":5126,"count":480,"type":"VEC2"},{"bufferView":51,"componentType":5123,"count":708,"type":"SCALAR"},{"bufferView":52,"componentType":5126,"count":345,"max":[0.11157900840044022,0.7504980564117432,0.518504798412323],"min":[-0.11064300686120987,0.50764000415802,0.49879562854766846],"type":"VEC3"},{"bufferView":53,"componentType":5126,"count":345,"type":"VEC3"},{"bufferView":54,"componentType":5126,"count":345,"type":"VEC2"},{"bufferView":55,"componentType":5123,"count":345,"type":"SCALAR"}],"bufferViews":[{"buffer":0,"byteLength":9984,"byteOffset":0,"target":34962},{"buffer":0,"byteLength":9984,"byteOffset":9984,"target":34962},{"buffer":0,"byteLength":6656,"byteOffset":19968,"target":34962},{"buffer":0,"byteLength":2664,"byteOffset":26624,"target":34963},{"buffer":0,"byteLength":9984,"byteOffset":29288,"target":34962},{"buffer":0,"byteLength":9984,"byteOffset":39272,"target":34962},{"buffer":0,"byteLength":6656,"byteOffset":49256,"target":34962},{"buffer":0,"byteLength":2664,"byteOffset":55912,"target":34963},{"buffer":0,"byteLength":14016,"byteOffset":58576,"target":34962},{"buffer":0,"byteLength":14016,"byteOffset":72592,"target":34962},{"buffer":0,"byteLength":9344,"byteOffset":86608,"target":34962},{"buffer":0,"byteLength":3816,"byteOffset":95952,"target":34963},{"buffer":0,"byteLength":4032,"byteOffset":99768,"target":34962},{"buffer":0,"byteLength":4032,"byteOffset":103800,"target":34962},{"buffer":0,"byteLength":2688,"byteOffset":107832,"target":34962},{"buffer":0,"byteLength":1104,"byteOffset":110520,"target":34963},{"buffer":0,"byteLength":4032,"byteOffset":111624,"target":34962},{"buffer":0,"byteLength":4032,"byteOffset":115656,"target":34962},{"buffer":0,"byteLength":2688,"byteOffset":119688,"target":34962},{"buffer":0,"byteLength":1104,"byteOffset":122376,"target":34963},{"buffer":0,"byteLength":4032,"byteOffset":123480,"target":34962},{"buffer":0,"byteLength":4032,"byteOffset":127512,"target":34962},{"buffer":0,"byteLength":2688,"byteOffset":131544,"target":34962},{"buffer":0,"byteLength":1104,"byteOffset":134232,"target":34963},{"buffer":0,"byteLength":4032,"byteOffset":135336,"target":34962},{"buffer":0,"byteLength":4032,"byteOffset":139368,"target":34962},{"buffer":0,"byteLength":2688,"byteOffset":143400,"target":34962},{"buffer":0,"byteLength":1104,"byteOffset":146088,"target":34963},{"buffer":0,"byteLength":4032,"byteOffset":147192,"target":34962},{"buffer":0,"byteLength":4032,"byteOffset":151224,"target":34962},{"buffer":0,"byteLength":2688,"byteOffset":155256,"target":34962},{"buffer":0,"byteLength":1104,"byteOffset":157944,"target":34963},{"buffer":0,"byteLength":4032,"byteOffset":159048,"target":34962},{"buffer":0,"byteLength":4032,"byteOffset":163080,"target":34962},{"buffer":0,"byteLength":2688,"byteOffset":167112,"target":34962},{"buffer":0,"byteLength":1104,"byteOffset":169800,"target":34963},{"buffer":0,"byteLength":4032,"byteOffset":170904,"target":34962},{"buffer":0,"byteLength":4032,"byteOffset":174936,"target":34962},{"buffer":0,"byteLength":2688,"byteOffset":178968,"target":34962},{"buffer":0,"byteLength":1104,"byteOffset":181656,"target":34963},{"buffer":0,"byteLength":4032,"byteOffset":182760,"target":34962},{"buffer":0,"byteLength":4032,"byteOffset":186792,"target":34962},{"buffer":0,"byteLength":2688,"byteOffset":190824,"target":34962},{"buffer":0,"byteLength":1104,"byteOffset":193512,"target":34963},{"buffer":0,"byteLength":4032,"byteOffset":194616,"target":34962},{"buffer":0,"byteLength":4032,"byteOffset":198648,"target":34962},{"buffer":0,"byteLength":2688,"byteOffset":202680,"target":34962},{"buffer":0,"byteLength":1104,"byteOffset":205368,"target":34963},{"buffer":0,"byteLength":5760,"byteOffset":206472,"target":34962},{"buffer":0,"byteLength":5760,"byteOffset":212232,"target":34962},{"buffer":0,"byteLength":3840,"byteOffset":217992,"target":34962},{"buffer":0,"byteLength":1416,"byteOffset":221832,"target":34963},{"buffer":0,"byteLength":4140,"byteOffset":223248,"target":34962},{"buffer":0,"byteLength":4140,"byteOffset":227388,"target":34962},{"buffer":0,"byteLength":2760,"byteOffset":231528,"target":34962},{"buffer":0,"byteLength":690,"byteOffset":234288,"target":34963}],"samplers":[{"magFilter":9728,"minFilter":9984},{"magFilter":9729,"minFilter":9987}],"buffers":[{"byteLength":234980,"extras":{"resourceLocation":"wflib:raw_models/mines/naval.bin"}}]}