{
  "accessors": [
    {
      "bufferView": 0,
      "componentType": 5126,
      "count": 520,
      "max": [
        0.03894999995827675,
        0.13099999725818634,
        0.03894999995827675
      ],
      "min": [
        -0.03894999995827675,
        0.03999999910593033,
        -0.03894999995827675
      ],
      "type": "VEC3"
    },
    {
      "bufferView": 1,
      "componentType": 5126,
      "count": 520,
      "type": "VEC3"
    },
    {
      "bufferView": 2,
      "componentType": 5126,
      "count": 520,
      "type": "VEC2"
    },
    {
      "bufferView": 3,
      "componentType": 5123,
      "count": 924,
      "type": "SCALAR"
    },
    {
      "bufferView": 4,
      "componentType": 5126,
      "count": 308,
      "max": [
        0.03381999954581261,
        0.0065000057220458984,
        0.03381999954581261
      ],
      "min": [
        -0.03381999954581261,
        -0.0010000020265579224,
        -0.03381999954581261
      ],
      "type": "VEC3"
    },
    {
      "bufferView": 5,
      "componentType": 5126,
      "count": 308,
      "type": "VEC3"
    },
    {
      "bufferView": 6,
      "componentType": 5126,
      "count": 308,
      "type": "VEC2"
    },
    {
      "bufferView": 7,
      "componentType": 5123,
      "count": 531,
      "type": "SCALAR"
    },
    {
      "bufferView": 8,
      "componentType": 5126,
      "count": 108,
      "max": [
        0.054061517119407654,
        0.03158043324947357,
        0.0075240000151097775
      ],
      "min": [
        -0.003200000151991844,
        -0.0032000020146369934,
        -0.007523999083787203
      ],
      "type": "VEC3"
    },
    {
      "bufferView": 9,
      "componentType": 5126,
      "count": 108,
      "type": "VEC3"
    },
    {
      "bufferView": 10,
      "componentType": 5126,
      "count": 108,
      "type": "VEC2"
    },
    {
      "bufferView": 11,
      "componentType": 5123,
      "count": 180,
      "type": "SCALAR"
    },
    {
      "bufferView": 12,
      "componentType": 5126,
      "count": 108,
      "max": [
        0.04077357426285744,
        0.003199998289346695,
        0.007583012804389
      ],
      "min": [
        -0.007583012804389,
        -0.037035245448350906,
        -0.04077357426285744
      ],
      "type": "VEC3"
    },
    {
      "bufferView": 13,
      "componentType": 5126,
      "count": 108,
      "type": "VEC3"
    },
    {
      "bufferView": 14,
      "componentType": 5126,
      "count": 108,
      "type": "VEC2"
    },
    {
      "bufferView": 15,
      "componentType": 5123,
      "count": 180,
      "type": "SCALAR"
    },
    {
      "bufferView": 16,
      "componentType": 5126,
      "count": 108,
      "max": [
        0.0075240000151097775,
        0.03136870265007019,
        0.003200000151991844
      ],
      "min": [
        -0.007523999083787203,
        -0.0032000020146369934,
        -0.05394609272480011
      ],
      "type": "VEC3"
    },
    {
      "bufferView": 17,
      "componentType": 5126,
      "count": 108,
      "type": "VEC3"
    },
    {
      "bufferView": 18,
      "componentType": 5126,
      "count": 108,
      "type": "VEC2"
    },
    {
      "bufferView": 19,
      "componentType": 5123,
      "count": 180,
      "type": "SCALAR"
    },
    {
      "bufferView": 20,
      "componentType": 5126,
      "count": 108,
      "max": [
        0.007583012804389,
        0.003199998289346695,
        0.007583012804389
      ],
      "min": [
        -0.04077357426285744,
        -0.037035245448350906,
        -0.04077357426285744
      ],
      "type": "VEC3"
    },
    {
      "bufferView": 21,
      "componentType": 5126,
      "count": 108,
      "type": "VEC3"
    },
    {
      "bufferView": 22,
      "componentType": 5126,
      "count": 108,
      "type": "VEC2"
    },
    {
      "bufferView": 23,
      "componentType": 5123,
      "count": 180,
      "type": "SCALAR"
    },
    {
      "bufferView": 24,
      "componentType": 5126,
      "count": 108,
      "max": [
        0.003200000151991844,
        0.03158043324947357,
        0.007523999083787203
      ],
      "min": [
        -0.054061517119407654,
        -0.0032000020146369934,
        -0.0075240000151097775
      ],
      "type": "VEC3"
    },
    {
      "bufferView": 25,
      "componentType": 5126,
      "count": 108,
      "type": "VEC3"
    },
    {
      "bufferView": 26,
      "componentType": 5126,
      "count": 108,
      "type": "VEC2"
    },
    {
      "bufferView": 27,
      "componentType": 5123,
      "count": 180,
      "type": "SCALAR"
    },
    {
      "bufferView": 28,
      "componentType": 5126,
      "count": 108,
      "max": [
        0.007583012804389,
        0.003199998289346695,
        0.04077357426285744
      ],
      "min": [
        -0.04077357426285744,
        -0.037035245448350906,
        -0.007583012804389
      ],
      "type": "VEC3"
    },
    {
      "bufferView": 29,
      "componentType": 5126,
      "count": 108,
      "type": "VEC3"
    },
    {
      "bufferView": 30,
      "componentType": 5126,
      "count": 108,
      "type": "VEC2"
    },
    {
      "bufferView": 31,
      "componentType": 5123,
      "count": 180,
      "type": "SCALAR"
    },
    {
      "bufferView": 32,
      "componentType": 5126,
      "count": 108,
      "max": [
        0.007523999083787203,
        0.03136870265007019,
        0.05394609272480011
      ],
      "min": [
        -0.0075240000151097775,
        -0.0032000020146369934,
        -0.003200000151991844
      ],
      "type": "VEC3"
    },
    {
      "bufferView": 33,
      "componentType": 5126,
      "count": 108,
      "type": "VEC3"
    },
    {
      "bufferView": 34,
      "componentType": 5126,
      "count": 108,
      "type": "VEC2"
    },
    {
      "bufferView": 35,
      "componentType": 5123,
      "count": 180,
      "type": "SCALAR"
    },
    {
      "bufferView": 36,
      "componentType": 5126,
      "count": 108,
      "max": [
        0.04077357426285744,
        0.003199998289346695,
        0.04077357426285744
      ],
      "min": [
        -0.007583012804389,
        -0.037035245448350906,
        -0.007583012804389
      ],
      "type": "VEC3"
    },
    {
      "bufferView": 37,
      "componentType": 5126,
      "count": 108,
      "type": "VEC3"
    },
    {
      "bufferView": 38,
      "componentType": 5126,
      "count": 108,
      "type": "VEC2"
    },
    {
      "bufferView": 39,
      "componentType": 5123,
      "count": 180,
      "type": "SCALAR"
    },
    {
      "bufferView": 40,
      "componentType": 5126,
      "count": 360,
      "max": [
        0.03420000150799751,
        0.13619700074195862,
        0.03420000150799751
      ],
      "min": [
        -0.03420000150799751,
        0.03799999877810478,
        -0.03420000150799751
      ],
      "type": "VEC3"
    },
    {
      "bufferView": 41,
      "componentType": 5126,
      "count": 360,
      "type": "VEC3"
    },
    {
      "bufferView": 42,
      "componentType": 5126,
      "count": 360,
      "type": "VEC2"
    },
    {
      "bufferView": 43,
      "componentType": 5123,
      "count": 612,
      "type": "SCALAR"
    }
  ],
  "asset": {
    "generator": "Khronos glTF Blender I/O v5.2.39",
    "version": "2.0"
  },
  "bufferViews": [
    {
      "buffer": 0,
      "byteLength": 6240,
      "byteOffset": 0,
      "target": 34962
    },
    {
      "buffer": 0,
      "byteLength": 6240,
      "byteOffset": 6240,
      "target": 34962
    },
    {
      "buffer": 0,
      "byteLength": 4160,
      "byteOffset": 12480,
      "target": 34962
    },
    {
      "buffer": 0,
      "byteLength": 1848,
      "byteOffset": 16640,
      "target": 34963
    },
    {
      "buffer": 0,
      "byteLength": 3696,
      "byteOffset": 18488,
      "target": 34962
    },
    {
      "buffer": 0,
      "byteLength": 3696,
      "byteOffset": 22184,
      "target": 34962
    },
    {
      "buffer": 0,
      "byteLength": 2464,
      "byteOffset": 25880,
      "target": 34962
    },
    {
      "buffer": 0,
      "byteLength": 1062,
      "byteOffset": 28344,
      "target": 34963
    },
    {
      "buffer": 0,
      "byteLength": 1296,
      "byteOffset": 29408,
      "target": 34962
    },
    {
      "buffer": 0,
      "byteLength": 1296,
      "byteOffset": 30704,
      "target": 34962
    },
    {
      "buffer": 0,
      "byteLength": 864,
      "byteOffset": 32000,
      "target": 34962
    },
    {
      "buffer": 0,
      "byteLength": 360,
      "byteOffset": 32864,
      "target": 34963
    },
    {
      "buffer": 0,
      "byteLength": 1296,
      "byteOffset": 33224,
      "target": 34962
    },
    {
      "buffer": 0,
      "byteLength": 1296,
      "byteOffset": 34520,
      "target": 34962
    },
    {
      "buffer": 0,
      "byteLength": 864,
      "byteOffset": 35816,
      "target": 34962
    },
    {
      "buffer": 0,
      "byteLength": 360,
      "byteOffset": 36680,
      "target": 34963
    },
    {
      "buffer": 0,
      "byteLength": 1296,
      "byteOffset": 37040,
      "target": 34962
    },
    {
      "buffer": 0,
      "byteLength": 1296,
      "byteOffset": 38336,
      "target": 34962
    },
    {
      "buffer": 0,
      "byteLength": 864,
      "byteOffset": 39632,
      "target": 34962
    },
    {
      "buffer": 0,
      "byteLength": 360,
      "byteOffset": 40496,
      "target": 34963
    },
    {
      "buffer": 0,
      "byteLength": 1296,
      "byteOffset": 40856,
      "target": 34962
    },
    {
      "buffer": 0,
      "byteLength": 1296,
      "byteOffset": 42152,
      "target": 34962
    },
    {
      "buffer": 0,
      "byteLength": 864,
      "byteOffset": 43448,
      "target": 34962
    },
    {
      "buffer": 0,
      "byteLength": 360,
      "byteOffset": 44312,
      "target": 34963
    },
    {
      "buffer": 0,
      "byteLength": 1296,
      "byteOffset": 44672,
      "target": 34962
    },
    {
      "buffer": 0,
      "byteLength": 1296,
      "byteOffset": 45968,
      "target": 34962
    },
    {
      "buffer": 0,
      "byteLength": 864,
      "byteOffset": 47264,
      "target": 34962
    },
    {
      "buffer": 0,
      "byteLength": 360,
      "byteOffset": 48128,
      "target": 34963
    },
    {
      "buffer": 0,
      "byteLength": 1296,
      "byteOffset": 48488,
      "target": 34962
    },
    {
      "buffer": 0,
      "byteLength": 1296,
      "byteOffset": 49784,
      "target": 34962
    },
    {
      "buffer": 0,
      "byteLength": 864,
      "byteOffset": 51080,
      "target": 34962
    },
    {
      "buffer": 0,
      "byteLength": 360,
      "byteOffset": 51944,
      "target": 34963
    },
    {
      "buffer": 0,
      "byteLength": 1296,
      "byteOffset": 52304,
      "target": 34962
    },
    {
      "buffer": 0,
      "byteLength": 1296,
      "byteOffset": 53600,
      "target": 34962
    },
    {
      "buffer": 0,
      "byteLength": 864,
      "byteOffset": 54896,
      "target": 34962
    },
    {
      "buffer": 0,
      "byteLength": 360,
      "byteOffset": 55760,
      "target": 34963
    },
    {
      "buffer": 0,
      "byteLength": 1296,
      "byteOffset": 56120,
      "target": 34962
    },
    {
      "buffer": 0,
      "byteLength": 1296,
      "byteOffset": 57416,
      "target": 34962
    },
    {
      "buffer": 0,
      "byteLength": 864,
      "byteOffset": 58712,
      "target": 34962
    },
    {
      "buffer": 0,
      "byteLength": 360,
      "byteOffset": 59576,
      "target": 34963
    },
    {
      "buffer": 0,
      "byteLength": 4320,
      "byteOffset": 59936,
      "target": 34962
    },
    {
      "buffer": 0,
      "byteLength": 4320,
      "byteOffset": 64256,
      "target": 34962
    },
    {
      "buffer": 0,
      "byteLength": 2880,
      "byteOffset": 68576,
      "target": 34962
    },
    {
      "buffer": 0,
      "byteLength": 1224,
      "byteOffset": 71456,
      "target": 34963
    }
  ],
  "buffers": [
    {
      "byteLength": 72680,
      "extras": {
        "resourceLocation": "wflib:raw_models/mines/scatter_at.bin"
      }
    }
  ],
  "images": [
    {
      "extras": {
        "resourceLocation": "wflib:textures/models/mines/scatter_at_basecolor.png"
      },
      "mimeType": "image/png",
      "name": "AT_Scatter_Mine_basecolor_512"
    },
    {
      "extras": {
        "resourceLocation": "wflib:textures/models/mines/scatter_at_orm.png"
      },
      "mimeType": "image/png",
      "name": "AT_Scatter_Mine_ORM_512"
    }
  ],
  "materials": [
    {
      "doubleSided": true,
      "name": "AT_Scatter_Mine | worn olive",
      "pbrMetallicRoughness": {
        "baseColorTexture": {
          "index": 0
        },
        "metallicRoughnessTexture": {
          "index": 1
        }
      }
    }
  ],
  "meshes": [
    {
      "name": "Scatter_mine_casing",
      "primitives": [
        {
          "attributes": {
            "NORMAL": 1,
            "POSITION": 0,
            "TEXCOORD_0": 2
          },
          "indices": 3,
          "material": 0
        }
      ]
    },
    {
      "name": "Closed_top_cap",
      "primitives": [
        {
          "attributes": {
            "NORMAL": 5,
            "POSITION": 4,
            "TEXCOORD_0": 6
          },
          "indices": 7,
          "material": 0
        }
      ]
    },
    {
      "name": "Exterior_stabilizer_vane",
      "primitives": [
        {
          "attributes": {
            "NORMAL": 9,
            "POSITION": 8,
            "TEXCOORD_0": 10
          },
          "indices": 11,
          "material": 0
        }
      ]
    },
    {
      "name": "Exterior_stabilizer_vane.001",
      "primitives": [
        {
          "attributes": {
            "NORMAL": 13,
            "POSITION": 12,
            "TEXCOORD_0": 14
          },
          "indices": 15,
          "material": 0
        }
      ]
    },
    {
      "name": "Exterior_stabilizer_vane.002",
      "primitives": [
        {
          "attributes": {
            "NORMAL": 17,
            "POSITION": 16,
            "TEXCOORD_0": 18
          },
          "indices": 19,
          "material": 0
        }
      ]
    },
    {
      "name": "Exterior_stabilizer_vane.003",
      "primitives": [
        {
          "attributes": {
            "NORMAL": 21,
            "POSITION": 20,
            "TEXCOORD_0": 22
          },
          "indices": 23,
          "material": 0
        }
      ]
    },
    {
      "name": "Exterior_stabilizer_vane.004",
      "primitives": [
        {
          "attributes": {
            "NORMAL": 25,
            "POSITION": 24,
            "TEXCOORD_0": 26
          },
          "indices": 27,
          "material": 0
        }
      ]
    },
    {
      "name": "Exterior_stabilizer_vane.005",
      "primitives": [
        {
          "attributes": {
            "NORMAL": 29,
            "POSITION": 28,
            "TEXCOORD_0": 30
          },
          "indices": 31,
          "material": 0
        }
      ]
    },
    {
      "name": "Exterior_stabilizer_vane.006",
      "primitives": [
        {
          "attributes": {
            "NORMAL": 33,
            "POSITION": 32,
            "TEXCOORD_0": 34
          },
          "indices": 35,
          "material": 0
        }
      ]
    },
    {
      "name": "Exterior_stabilizer_vane.007",
      "primitives": [
        {
          "attributes": {
            "NORMAL": 37,
            "POSITION": 36,
            "TEXCOORD_0": 38
          },
          "indices": 39,
          "material": 0
        }
      ]
    },
    {
      "name": "Lower_end_cap",
      "primitives": [
        {
          "attributes": {
            "NORMAL": 41,
            "POSITION": 40,
            "TEXCOORD_0": 42
          },
          "indices": 43,
          "material": 0
        }
      ]
    }
  ],
  "nodes": [
    {
      "extras": {
        "surface": "paint"
      },
      "mesh": 0,
      "name": "01_CYLINDRICAL_CASE_mesh"
    },
    {
      "children": [
        0
      ],
      "extras": {
        "removable_module": true
      },
      "name": "01_CYLINDRICAL_CASE"
    },
    {
      "extras": {
        "surface": "darkpaint"
      },
      "mesh": 1,
      "name": "02_TOP_CAP_mesh"
    },
    {
      "children": [
        2
      ],
      "extras": {
        "removable_module": true
      },
      "name": "02_TOP_CAP",
      "translation": [
        0,
        0.13099999725818634,
        0
      ]
    },
    {
      "extras": {
        "surface": "darkpaint"
      },
      "mesh": 2,
      "name": "03_VANE_01_mesh"
    },
    {
      "children": [
        4
      ],
      "extras": {
        "removable_module": true
      },
      "name": "03_VANE_01",
      "translation": [
        0.033440001308918,
        0.1128000020980835,
        0
      ]
    },
    {
      "extras": {
        "surface": "darkpaint"
      },
      "mesh": 3,
      "name": "03_VANE_02_mesh"
    },
    {
      "children": [
        6
      ],
      "extras": {
        "removable_module": true
      },
      "name": "03_VANE_02",
      "translation": [
        0.02364565059542656,
        0.056379999965429306,
        -0.02364565059542656
      ]
    },
    {
      "extras": {
        "surface": "darkpaint"
      },
      "mesh": 4,
      "name": "03_VANE_03_mesh"
    },
    {
      "children": [
        8
      ],
      "extras": {
        "removable_module": true
      },
      "name": "03_VANE_03",
      "translation": [
        0,
        0.1128000020980835,
        -0.033440001308918
      ]
    },
    {
      "extras": {
        "surface": "darkpaint"
      },
      "mesh": 5,
      "name": "03_VANE_04_mesh"
    },
    {
      "children": [
        10
      ],
      "extras": {
        "removable_module": true
      },
      "name": "03_VANE_04",
      "translation": [
        -0.02364565059542656,
        0.056379999965429306,
        -0.02364565059542656
      ]
    },
    {
      "extras": {
        "surface": "darkpaint"
      },
      "mesh": 6,
      "name": "03_VANE_05_mesh"
    },
    {
      "children": [
        12
      ],
      "extras": {
        "removable_module": true
      },
      "name": "03_VANE_05",
      "translation": [
        -0.033440001308918,
        0.1128000020980835,
        0
      ]
    },
    {
      "extras": {
        "surface": "darkpaint"
      },
      "mesh": 7,
      "name": "03_VANE_06_mesh"
    },
    {
      "children": [
        14
      ],
      "extras": {
        "removable_module": true
      },
      "name": "03_VANE_06",
      "translation": [
        -0.02364565059542656,
        0.056379999965429306,
        0.02364565059542656
      ]
    },
    {
      "extras": {
        "surface": "darkpaint"
      },
      "mesh": 8,
      "name": "03_VANE_07_mesh"
    },
    {
      "children": [
        16
      ],
      "extras": {
        "removable_module": true
      },
      "name": "03_VANE_07",
      "translation": [
        0,
        0.1128000020980835,
        0.033440001308918
      ]
    },
    {
      "extras": {
        "surface": "darkpaint"
      },
      "mesh": 9,
      "name": "03_VANE_08_mesh"
    },
    {
      "children": [
        18
      ],
      "extras": {
        "removable_module": true
      },
      "name": "03_VANE_08",
      "translation": [
        0.02364565059542656,
        0.056379999965429306,
        0.02364565059542656
      ]
    },
    {
      "extras": {
        "surface": "darkpaint"
      },
      "mesh": 10,
      "name": "04_BASE_RING_mesh"
    },
    {
      "children": [
        20
      ],
      "extras": {
        "removable_module": true
      },
      "name": "04_BASE_RING"
    },
    {
      "children": [
        1,
        3,
        5,
        7,
        9,
        11,
        13,
        15,
        17,
        19,
        21
      ],
      "extras": {
        "axes": "Metres; +Z up; -Y front.",
        "description": "AT scatter mine; fictional exterior game prop; EMB4-inspired finish"
      },
      "name": "AT_Scatter_Mine_ROOT",
      "scale": [
        2.8,
        2.8,
        2.8
      ],
      "translation": [
        0.0,
        -0.054165312647819513,
        0.0
      ]
    }
  ],
  "samplers": [
    {
      "magFilter": 9728,
      "minFilter": 9984
    },
    {
      "magFilter": 9729,
      "minFilter": 9987
    }
  ],
  "scene": 0,
  "scenes": [
    {
      "name": "Scene",
      "nodes": [
        22
      ]
    }
  ],
  "textures": [
    {
      "sampler": 0,
      "source": 0
    },
    {
      "sampler": 1,
      "source": 1
    }
  ]
}